<?xml version="1.0" encoding="utf-8" standalone="no"?>
<!DOCTYPE svg PUBLIC "-//W3C//DTD SVG 1.1//EN"
  "http://www.w3.org/Graphics/SVG/1.1/DTD/svg11.dtd">
<svg height="648pt" version="1.1" viewBox="0 0 1728 648" width="1728pt" xmlns="http://www.w3.org/2000/svg" xmlns:xlink="http://www.w3.org/1999/xlink">
 <metadata>
  <rdf:RDF xmlns:cc="http://creativecommons.org/ns#" xmlns:dc="http://purl.org/dc/elements/1.1/" xmlns:rdf="http://www.w3.org/1999/02/22-rdf-syntax-ns#">
   <cc:Work>
    <dc:type rdf:resource="http://purl.org/dc/dcmitype/StillImage"/>
    <dc:date>2025-07-07T16:58:38.050910</dc:date>
    <dc:format>image/svg+xml</dc:format>
    <dc:creator>
     <cc:Agent>
      <dc:title>Matplotlib v3.4.3, https://matplotlib.org/</dc:title>
     </cc:Agent>
    </dc:creator>
   </cc:Work>
  </rdf:RDF>
 </metadata>
 <defs>
  <style type="text/css">*{stroke-linecap:butt;stroke-linejoin:round;}</style>
 </defs>
 <g id="figure_1">
  <g id="patch_1">
   <path d="M 0 648 
L 1728 648 
L 1728 0 
L 0 0 
z
" style="fill:none;"/>
  </g>
  <g id="axes_1">
   <g id="patch_2">
    <path d="M 547.351905 447.24 
L 1695.832618 447.24 
L 1695.832618 107.76 
L 547.351905 107.76 
z
" style="fill:#ffffff;"/>
   </g>
   <g id="matplotlib.axis_1">
    <g id="xtick_1">
     <g id="text_1">
      <!-- 100 -->
      <g style="fill:#262626;" transform="translate(539.40901 480.08125)scale(0.36 -0.36)">
       <defs>
        <path d="M 2297 0 
L 1697 0 
L 1697 3194 
L 647 3194 
L 647 3641 
Q 1197 3659 1465 3817 
Q 1734 3975 1856 4500 
L 2297 4500 
L 2297 0 
z
" id="HelveticaWorld-Regular-31" transform="scale(0.015625)"/>
        <path d="M 2719 2188 
Q 2719 3091 2480 3542 
Q 2241 3994 1778 3994 
Q 1325 3994 1081 3542 
Q 838 3091 838 2188 
Q 838 1313 1078 848 
Q 1319 384 1778 384 
Q 2241 384 2480 832 
Q 2719 1281 2719 2188 
z
M 3322 2188 
Q 3322 1081 2922 479 
Q 2522 -122 1778 -122 
Q 1006 -122 622 501 
Q 238 1125 238 2188 
Q 238 3278 631 3889 
Q 1025 4500 1778 4500 
Q 2522 4500 2922 3892 
Q 3322 3284 3322 2188 
z
" id="HelveticaWorld-Regular-30" transform="scale(0.015625)"/>
       </defs>
       <use xlink:href="#HelveticaWorld-Regular-31"/>
       <use x="55.615234" xlink:href="#HelveticaWorld-Regular-30"/>
       <use x="111.230469" xlink:href="#HelveticaWorld-Regular-30"/>
      </g>
     </g>
    </g>
    <g id="xtick_2">
     <g id="text_2">
      <!-- 500 -->
      <g style="fill:#262626;" transform="translate(614.277374 480.08125)scale(0.36 -0.36)">
       <defs>
        <path d="M 941 2619 
Q 1313 2900 1813 2900 
Q 2419 2900 2855 2497 
Q 3291 2094 3291 1459 
Q 3291 769 2870 320 
Q 2450 -128 1691 -128 
Q 1031 -128 650 195 
Q 269 519 206 1113 
L 788 1113 
Q 831 750 1072 558 
Q 1313 366 1741 366 
Q 2156 366 2422 653 
Q 2688 941 2688 1388 
Q 2688 1844 2409 2119 
Q 2131 2394 1691 2394 
Q 1191 2394 856 1966 
L 372 1991 
L 709 4397 
L 3041 4397 
L 3041 3853 
L 1131 3853 
L 941 2619 
z
" id="HelveticaWorld-Regular-35" transform="scale(0.015625)"/>
       </defs>
       <use xlink:href="#HelveticaWorld-Regular-35"/>
       <use x="55.615234" xlink:href="#HelveticaWorld-Regular-30"/>
       <use x="111.230469" xlink:href="#HelveticaWorld-Regular-30"/>
      </g>
     </g>
    </g>
    <g id="xtick_3">
     <g id="text_3">
      <!-- 1000 -->
      <g style="fill:#262626;" transform="translate(697.853143 480.08125)scale(0.36 -0.36)">
       <use xlink:href="#HelveticaWorld-Regular-31"/>
       <use x="55.615234" xlink:href="#HelveticaWorld-Regular-30"/>
       <use x="111.230469" xlink:href="#HelveticaWorld-Regular-30"/>
       <use x="166.845703" xlink:href="#HelveticaWorld-Regular-30"/>
      </g>
     </g>
    </g>
    <g id="xtick_4">
     <g id="text_4">
      <!-- 2000 -->
      <g style="fill:#262626;" transform="translate(885.024054 480.08125)scale(0.36 -0.36)">
       <defs>
        <path d="M 281 2888 
Q 281 3681 690 4090 
Q 1100 4500 1838 4500 
Q 2456 4500 2850 4125 
Q 3244 3750 3244 3156 
Q 3244 2694 3017 2376 
Q 2791 2059 2350 1819 
L 1575 1394 
Q 891 1019 800 531 
L 3244 531 
L 3244 0 
L 166 0 
Q 191 634 441 1056 
Q 691 1478 1222 1784 
L 2028 2253 
Q 2350 2438 2497 2636 
Q 2644 2834 2644 3181 
Q 2644 3525 2403 3759 
Q 2163 3994 1753 3994 
Q 1300 3994 1075 3695 
Q 850 3397 844 2888 
L 281 2888 
z
" id="HelveticaWorld-Regular-32" transform="scale(0.015625)"/>
       </defs>
       <use xlink:href="#HelveticaWorld-Regular-32"/>
       <use x="55.615234" xlink:href="#HelveticaWorld-Regular-30"/>
       <use x="111.230469" xlink:href="#HelveticaWorld-Regular-30"/>
       <use x="166.845703" xlink:href="#HelveticaWorld-Regular-30"/>
      </g>
     </g>
    </g>
    <g id="xtick_5">
     <g id="text_5">
      <!-- 3000 -->
      <g style="fill:#262626;" transform="translate(1072.194966 480.08125)scale(0.36 -0.36)">
       <defs>
        <path d="M 1434 2559 
Q 1575 2547 1728 2547 
Q 2125 2547 2354 2730 
Q 2584 2913 2584 3284 
Q 2584 3584 2370 3789 
Q 2156 3994 1753 3994 
Q 1306 3994 1098 3731 
Q 891 3469 878 3028 
L 325 3028 
Q 325 3731 694 4115 
Q 1063 4500 1778 4500 
Q 2413 4500 2791 4173 
Q 3169 3847 3169 3316 
Q 3169 2631 2591 2388 
L 2591 2375 
Q 3341 2119 3341 1325 
Q 3341 691 2919 284 
Q 2497 -122 1722 -122 
Q 1088 -122 678 211 
Q 269 544 219 1375 
L 800 1375 
Q 813 856 1056 620 
Q 1300 384 1759 384 
Q 2203 384 2472 631 
Q 2741 878 2741 1253 
Q 2741 1663 2484 1872 
Q 2228 2081 1691 2081 
Q 1563 2081 1434 2075 
L 1434 2559 
z
" id="HelveticaWorld-Regular-33" transform="scale(0.015625)"/>
       </defs>
       <use xlink:href="#HelveticaWorld-Regular-33"/>
       <use x="55.615234" xlink:href="#HelveticaWorld-Regular-30"/>
       <use x="111.230469" xlink:href="#HelveticaWorld-Regular-30"/>
       <use x="166.845703" xlink:href="#HelveticaWorld-Regular-30"/>
      </g>
     </g>
    </g>
    <g id="xtick_6">
     <g id="text_6">
      <!-- 4000 -->
      <g style="fill:#262626;" transform="translate(1259.365878 480.08125)scale(0.36 -0.36)">
       <defs>
        <path d="M 678 1581 
L 2125 1581 
L 2125 3622 
L 2113 3622 
L 678 1581 
z
M 2688 1094 
L 2688 0 
L 2125 0 
L 2125 1094 
L 159 1094 
L 159 1644 
L 2222 4500 
L 2688 4500 
L 2688 1581 
L 3347 1581 
L 3347 1094 
L 2688 1094 
z
" id="HelveticaWorld-Regular-34" transform="scale(0.015625)"/>
       </defs>
       <use xlink:href="#HelveticaWorld-Regular-34"/>
       <use x="55.615234" xlink:href="#HelveticaWorld-Regular-30"/>
       <use x="111.230469" xlink:href="#HelveticaWorld-Regular-30"/>
       <use x="166.845703" xlink:href="#HelveticaWorld-Regular-30"/>
      </g>
     </g>
    </g>
    <g id="xtick_7">
     <g id="text_7">
      <!-- 5000 -->
      <g style="fill:#262626;" transform="translate(1446.536789 480.08125)scale(0.36 -0.36)">
       <use xlink:href="#HelveticaWorld-Regular-35"/>
       <use x="55.615234" xlink:href="#HelveticaWorld-Regular-30"/>
       <use x="111.230469" xlink:href="#HelveticaWorld-Regular-30"/>
       <use x="166.845703" xlink:href="#HelveticaWorld-Regular-30"/>
      </g>
     </g>
    </g>
    <g id="xtick_8">
     <g id="text_8">
      <!-- 6000 -->
      <g style="fill:#262626;" transform="translate(1633.707701 480.08125)scale(0.36 -0.36)">
       <defs>
        <path d="M 903 1381 
Q 903 941 1165 662 
Q 1428 384 1850 384 
Q 2253 384 2492 668 
Q 2731 953 2731 1416 
Q 2731 1819 2495 2091 
Q 2259 2363 1825 2363 
Q 1403 2363 1153 2097 
Q 903 1831 903 1381 
z
M 2669 3303 
Q 2606 3647 2414 3820 
Q 2222 3994 1894 3994 
Q 1375 3994 1103 3487 
Q 831 2981 825 2328 
L 838 2316 
Q 1197 2869 1906 2869 
Q 2472 2869 2894 2494 
Q 3316 2119 3316 1441 
Q 3316 769 2916 323 
Q 2516 -122 1838 -122 
Q 1056 -122 650 434 
Q 244 991 244 2094 
Q 244 3156 659 3828 
Q 1075 4500 1906 4500 
Q 2444 4500 2816 4179 
Q 3188 3859 3219 3303 
L 2669 3303 
z
" id="HelveticaWorld-Regular-36" transform="scale(0.015625)"/>
       </defs>
       <use xlink:href="#HelveticaWorld-Regular-36"/>
       <use x="55.615234" xlink:href="#HelveticaWorld-Regular-30"/>
       <use x="111.230469" xlink:href="#HelveticaWorld-Regular-30"/>
       <use x="166.845703" xlink:href="#HelveticaWorld-Regular-30"/>
      </g>
     </g>
    </g>
    <g id="text_9">
     <!-- Number of Voxels -->
     <g style="fill:#262626;" transform="translate(983.377574 517.375625)scale(0.36 -0.36)">
      <defs>
       <path d="M 3559 4594 
L 4159 4594 
L 4159 0 
L 3469 0 
L 1125 3713 
L 1113 3713 
L 1113 0 
L 519 0 
L 519 4594 
L 1247 4594 
L 3547 884 
L 3559 884 
L 3559 4594 
z
" id="HelveticaWorld-Regular-4e" transform="scale(0.015625)"/>
       <path d="M 391 3347 
L 953 3347 
L 953 1125 
Q 953 756 1120 573 
Q 1288 391 1600 391 
Q 2034 391 2278 698 
Q 2522 1006 2522 1503 
L 2522 3347 
L 3084 3347 
L 3084 0 
L 2553 0 
L 2553 488 
L 2541 500 
Q 2222 -97 1478 -97 
Q 997 -97 694 165 
Q 391 428 391 941 
L 391 3347 
z
" id="HelveticaWorld-Regular-75" transform="scale(0.015625)"/>
       <path d="M 422 3347 
L 953 3347 
L 953 2875 
L 966 2875 
Q 1344 3444 1978 3444 
Q 2606 3444 2869 2900 
Q 3109 3194 3334 3319 
Q 3559 3444 3891 3444 
Q 4325 3444 4626 3159 
Q 4928 2875 4928 2316 
L 4928 0 
L 4366 0 
L 4366 2163 
Q 4366 2553 4219 2745 
Q 4072 2938 3744 2938 
Q 3413 2938 3184 2669 
Q 2956 2400 2956 2041 
L 2956 0 
L 2394 0 
L 2394 2316 
Q 2394 2606 2259 2772 
Q 2125 2938 1869 2938 
Q 1466 2938 1225 2638 
Q 984 2338 984 1825 
L 984 0 
L 422 0 
L 422 3347 
z
" id="HelveticaWorld-Regular-6d" transform="scale(0.015625)"/>
       <path d="M 2778 1684 
Q 2778 2356 2540 2647 
Q 2303 2938 1863 2938 
Q 1416 2931 1187 2589 
Q 959 2247 959 1600 
Q 959 941 1234 666 
Q 1509 391 1875 391 
Q 2291 391 2534 733 
Q 2778 1075 2778 1684 
z
M 422 0 
L 422 4594 
L 984 4594 
L 984 2925 
L 997 2925 
Q 1356 3444 1966 3444 
Q 2591 3444 2975 2980 
Q 3359 2516 3359 1772 
Q 3359 934 2971 418 
Q 2584 -97 1888 -97 
Q 1275 -97 966 416 
L 953 416 
L 953 0 
L 422 0 
z
" id="HelveticaWorld-Regular-62" transform="scale(0.015625)"/>
       <path d="M 2719 1941 
Q 2675 2484 2431 2711 
Q 2188 2938 1784 2938 
Q 1375 2938 1123 2650 
Q 872 2363 856 1941 
L 2719 1941 
z
M 3256 1050 
Q 3163 531 2747 191 
Q 2381 -97 1784 -103 
Q 1081 -97 668 358 
Q 256 813 256 1581 
Q 256 2463 681 2953 
Q 1106 3444 1863 3444 
Q 2541 3444 2922 2937 
Q 3303 2431 3303 1491 
L 856 1491 
Q 856 966 1100 678 
Q 1344 391 1831 391 
Q 2175 391 2422 598 
Q 2669 806 2694 1050 
L 3256 1050 
z
" id="HelveticaWorld-Regular-65" transform="scale(0.015625)"/>
       <path d="M 984 0 
L 422 0 
L 422 3347 
L 953 3347 
L 953 2791 
L 966 2791 
Q 1331 3444 1906 3444 
Q 1997 3444 2053 3425 
L 2053 2841 
L 1844 2841 
Q 1466 2841 1225 2584 
Q 984 2328 984 1947 
L 984 0 
z
" id="HelveticaWorld-Regular-72" transform="scale(0.015625)"/>
       <path id="HelveticaWorld-Regular-20" transform="scale(0.015625)"/>
       <path d="M 813 1678 
Q 813 1119 1066 758 
Q 1319 397 1784 397 
Q 2266 397 2516 775 
Q 2766 1153 2766 1678 
Q 2766 2209 2516 2579 
Q 2266 2950 1784 2950 
Q 1338 2950 1075 2601 
Q 813 2253 813 1678 
z
M 238 1678 
Q 238 2425 653 2934 
Q 1069 3444 1784 3444 
Q 2516 3444 2928 2928 
Q 3341 2413 3341 1678 
Q 3341 941 2931 422 
Q 2522 -97 1784 -97 
Q 1075 -97 656 406 
Q 238 909 238 1678 
z
" id="HelveticaWorld-Regular-6f" transform="scale(0.015625)"/>
       <path d="M 1100 2881 
L 1100 0 
L 538 0 
L 538 2881 
L 78 2881 
L 78 3347 
L 538 3347 
L 538 3922 
Q 538 4300 767 4479 
Q 997 4659 1409 4659 
Q 1550 4659 1663 4647 
L 1663 4141 
Q 1563 4153 1434 4153 
Q 1247 4153 1173 4061 
Q 1100 3969 1100 3763 
L 1100 3347 
L 1663 3347 
L 1663 2881 
L 1100 2881 
z
" id="HelveticaWorld-Regular-66" transform="scale(0.015625)"/>
       <path d="M 3413 4594 
L 4109 4594 
L 2425 0 
L 1772 0 
L 97 4594 
L 788 4594 
L 2100 678 
L 2113 678 
L 3413 4594 
z
" id="HelveticaWorld-Regular-56" transform="scale(0.015625)"/>
       <path d="M 3138 0 
L 2413 0 
L 1588 1259 
L 781 0 
L 72 0 
L 1241 1722 
L 128 3347 
L 844 3347 
L 1619 2169 
L 2400 3347 
L 3084 3347 
L 1959 1722 
L 3138 0 
z
" id="HelveticaWorld-Regular-78" transform="scale(0.015625)"/>
       <path d="M 984 0 
L 422 0 
L 422 4594 
L 984 4594 
L 984 0 
z
" id="HelveticaWorld-Regular-6c" transform="scale(0.015625)"/>
       <path d="M 2309 2394 
Q 2297 2694 2095 2825 
Q 1894 2956 1516 2956 
Q 1241 2956 1045 2834 
Q 850 2713 850 2484 
Q 850 2303 965 2217 
Q 1081 2131 1466 2034 
L 2022 1894 
Q 2528 1766 2745 1567 
Q 2963 1369 2963 1013 
Q 2963 519 2602 211 
Q 2241 -97 1638 -97 
Q 934 -97 573 195 
Q 213 488 206 1075 
L 750 1075 
Q 763 728 980 559 
Q 1197 391 1631 391 
Q 1984 391 2192 531 
Q 2400 672 2400 922 
Q 2400 1100 2265 1206 
Q 2131 1313 1734 1403 
L 1081 1563 
Q 684 1663 495 1861 
Q 306 2059 306 2375 
Q 306 2869 659 3156 
Q 1013 3444 1581 3444 
Q 2188 3444 2511 3148 
Q 2834 2853 2853 2394 
L 2309 2394 
z
" id="HelveticaWorld-Regular-73" transform="scale(0.015625)"/>
      </defs>
      <use xlink:href="#HelveticaWorld-Regular-4e"/>
      <use x="73.095703" xlink:href="#HelveticaWorld-Regular-75"/>
      <use x="127.880859" xlink:href="#HelveticaWorld-Regular-6d"/>
      <use x="210.888672" xlink:href="#HelveticaWorld-Regular-62"/>
      <use x="267.382812" xlink:href="#HelveticaWorld-Regular-65"/>
      <use x="322.802734" xlink:href="#HelveticaWorld-Regular-72"/>
      <use x="355.371094" xlink:href="#HelveticaWorld-Regular-20"/>
      <use x="379.785156" xlink:href="#HelveticaWorld-Regular-6f"/>
      <use x="435.693359" xlink:href="#HelveticaWorld-Regular-66"/>
      <use x="463.378906" xlink:href="#HelveticaWorld-Regular-20"/>
      <use x="482.792969" xlink:href="#HelveticaWorld-Regular-56"/>
      <use x="540.619141" xlink:href="#HelveticaWorld-Regular-6f"/>
      <use x="593.652344" xlink:href="#HelveticaWorld-Regular-78"/>
      <use x="640.402344" xlink:href="#HelveticaWorld-Regular-65"/>
      <use x="695.822266" xlink:href="#HelveticaWorld-Regular-6c"/>
      <use x="717.84375" xlink:href="#HelveticaWorld-Regular-73"/>
     </g>
    </g>
   </g>
   <g id="matplotlib.axis_2">
    <g id="ytick_1">
     <g id="text_10">
      <!-- 0.0 -->
      <g style="fill:#262626;" transform="translate(490.311905 460.160625)scale(0.36 -0.36)">
       <defs>
        <path d="M 1222 0 
L 556 0 
L 556 678 
L 1222 678 
L 1222 0 
z
" id="HelveticaWorld-Regular-2e" transform="scale(0.015625)"/>
       </defs>
       <use xlink:href="#HelveticaWorld-Regular-30"/>
       <use x="55.615234" xlink:href="#HelveticaWorld-Regular-2e"/>
       <use x="83.398438" xlink:href="#HelveticaWorld-Regular-30"/>
      </g>
     </g>
    </g>
    <g id="ytick_2">
     <g id="text_11">
      <!-- 0.1 -->
      <g style="fill:#262626;" transform="translate(490.311905 384.720625)scale(0.36 -0.36)">
       <use xlink:href="#HelveticaWorld-Regular-30"/>
       <use x="55.615234" xlink:href="#HelveticaWorld-Regular-2e"/>
       <use x="83.398438" xlink:href="#HelveticaWorld-Regular-31"/>
      </g>
     </g>
    </g>
    <g id="ytick_3">
     <g id="text_12">
      <!-- 0.2 -->
      <g style="fill:#262626;" transform="translate(490.311905 309.280625)scale(0.36 -0.36)">
       <use xlink:href="#HelveticaWorld-Regular-30"/>
       <use x="55.615234" xlink:href="#HelveticaWorld-Regular-2e"/>
       <use x="83.398438" xlink:href="#HelveticaWorld-Regular-32"/>
      </g>
     </g>
    </g>
    <g id="ytick_4">
     <g id="text_13">
      <!-- 0.3 -->
      <g style="fill:#262626;" transform="translate(490.311905 233.840625)scale(0.36 -0.36)">
       <use xlink:href="#HelveticaWorld-Regular-30"/>
       <use x="55.615234" xlink:href="#HelveticaWorld-Regular-2e"/>
       <use x="83.398438" xlink:href="#HelveticaWorld-Regular-33"/>
      </g>
     </g>
    </g>
    <g id="ytick_5">
     <g id="text_14">
      <!-- 0.4 -->
      <g style="fill:#262626;" transform="translate(490.311905 158.400625)scale(0.36 -0.36)">
       <use xlink:href="#HelveticaWorld-Regular-30"/>
       <use x="55.615234" xlink:href="#HelveticaWorld-Regular-2e"/>
       <use x="83.398438" xlink:href="#HelveticaWorld-Regular-34"/>
      </g>
     </g>
    </g>
    <g id="text_15">
     <!-- Classifier Information (a.u.) -->
     <g style="fill:#262626;" transform="translate(478.85878 490.535625)rotate(-90)scale(0.36 -0.36)">
      <defs>
       <path d="M 3713 3213 
Q 3609 3681 3279 3923 
Q 2950 4166 2425 4166 
Q 1747 4166 1334 3673 
Q 922 3181 922 2344 
Q 922 1375 1312 901 
Q 1703 428 2444 428 
Q 2931 428 3282 751 
Q 3634 1075 3756 1691 
L 4359 1691 
Q 4238 806 3688 342 
Q 3138 -122 2350 -122 
Q 1409 -122 845 525 
Q 281 1172 281 2322 
Q 281 3431 870 4073 
Q 1459 4716 2425 4716 
Q 3225 4716 3722 4303 
Q 4219 3891 4313 3213 
L 3713 3213 
z
" id="HelveticaWorld-Regular-43" transform="scale(0.015625)"/>
       <path d="M 2456 1709 
Q 2394 1644 2211 1603 
Q 2028 1563 1528 1497 
Q 1159 1453 986 1315 
Q 813 1178 813 953 
Q 813 678 959 525 
Q 1106 372 1428 372 
Q 1831 372 2143 601 
Q 2456 831 2456 1159 
L 2456 1709 
z
M 397 2328 
Q 416 2894 764 3169 
Q 1113 3444 1778 3444 
Q 2309 3444 2668 3203 
Q 3028 2963 3028 2509 
L 3028 581 
Q 3028 384 3206 384 
Q 3278 384 3391 409 
L 3391 0 
Q 3238 -63 3072 -63 
Q 2784 -63 2643 60 
Q 2503 184 2497 447 
Q 2016 -97 1288 -97 
Q 813 -97 525 172 
Q 238 441 238 872 
Q 238 1313 488 1584 
Q 738 1856 1216 1913 
L 2209 2034 
Q 2478 2075 2478 2431 
Q 2478 2694 2283 2834 
Q 2088 2975 1691 2975 
Q 1338 2975 1148 2819 
Q 959 2663 922 2328 
L 397 2328 
z
" id="HelveticaWorld-Regular-61" transform="scale(0.015625)"/>
       <path d="M 422 3956 
L 422 4594 
L 984 4594 
L 984 3956 
L 422 3956 
z
M 984 0 
L 422 0 
L 422 3347 
L 984 3347 
L 984 0 
z
" id="HelveticaWorld-Regular-69" transform="scale(0.015625)"/>
       <path d="M 1141 0 
L 519 0 
L 519 4594 
L 1141 4594 
L 1141 0 
z
" id="HelveticaWorld-Regular-49" transform="scale(0.015625)"/>
       <path d="M 3150 0 
L 2584 0 
L 2584 2059 
Q 2584 2534 2418 2736 
Q 2253 2938 1869 2938 
Q 1491 2938 1237 2650 
Q 984 2363 984 1825 
L 984 0 
L 422 0 
L 422 3347 
L 953 3347 
L 953 2875 
L 966 2875 
Q 1363 3444 1978 3444 
Q 2547 3444 2848 3142 
Q 3150 2841 3150 2278 
L 3150 0 
z
" id="HelveticaWorld-Regular-6e" transform="scale(0.015625)"/>
       <path d="M 1100 2881 
L 1100 703 
Q 1100 575 1170 508 
Q 1241 441 1422 441 
L 1638 441 
L 1638 0 
Q 1331 -44 1216 -44 
Q 863 -44 700 125 
Q 538 294 538 672 
L 538 2881 
L 84 2881 
L 84 3347 
L 538 3347 
L 538 4281 
L 1100 4281 
L 1100 3347 
L 1638 3347 
L 1638 2881 
L 1100 2881 
z
" id="HelveticaWorld-Regular-74" transform="scale(0.015625)"/>
       <path d="M 1906 4691 
Q 1338 3675 1188 3037 
Q 1038 2400 1038 1631 
Q 1038 872 1242 215 
Q 1447 -441 1913 -1325 
L 1538 -1325 
Q 1006 -550 720 140 
Q 434 831 434 1672 
Q 434 2463 693 3180 
Q 953 3897 1516 4691 
L 1906 4691 
z
" id="HelveticaWorld-Regular-28" transform="scale(0.015625)"/>
       <path d="M 225 -1325 
Q 788 -306 938 330 
Q 1088 966 1088 1734 
Q 1088 2497 886 3153 
Q 684 3809 219 4691 
L 588 4691 
Q 1125 3916 1411 3225 
Q 1697 2534 1697 1697 
Q 1697 903 1437 186 
Q 1178 -531 616 -1325 
L 225 -1325 
z
" id="HelveticaWorld-Regular-29" transform="scale(0.015625)"/>
      </defs>
      <use xlink:href="#HelveticaWorld-Regular-43"/>
      <use x="72.314453" xlink:href="#HelveticaWorld-Regular-6c"/>
      <use x="94.335938" xlink:href="#HelveticaWorld-Regular-61"/>
      <use x="149.267578" xlink:href="#HelveticaWorld-Regular-73"/>
      <use x="199.267578" xlink:href="#HelveticaWorld-Regular-73"/>
      <use x="249.267578" xlink:href="#HelveticaWorld-Regular-69"/>
      <use x="271.289062" xlink:href="#HelveticaWorld-Regular-66"/>
      <use x="298.974609" xlink:href="#HelveticaWorld-Regular-69"/>
      <use x="320.996094" xlink:href="#HelveticaWorld-Regular-65"/>
      <use x="376.416016" xlink:href="#HelveticaWorld-Regular-72"/>
      <use x="408.984375" xlink:href="#HelveticaWorld-Regular-20"/>
      <use x="433.398438" xlink:href="#HelveticaWorld-Regular-49"/>
      <use x="459.179688" xlink:href="#HelveticaWorld-Regular-6e"/>
      <use x="514.355469" xlink:href="#HelveticaWorld-Regular-66"/>
      <use x="540.041016" xlink:href="#HelveticaWorld-Regular-6f"/>
      <use x="595.949219" xlink:href="#HelveticaWorld-Regular-72"/>
      <use x="628.517578" xlink:href="#HelveticaWorld-Regular-6d"/>
      <use x="711.525391" xlink:href="#HelveticaWorld-Regular-61"/>
      <use x="766.457031" xlink:href="#HelveticaWorld-Regular-74"/>
      <use x="794.142578" xlink:href="#HelveticaWorld-Regular-69"/>
      <use x="816.164062" xlink:href="#HelveticaWorld-Regular-6f"/>
      <use x="872.072266" xlink:href="#HelveticaWorld-Regular-6e"/>
      <use x="927.248047" xlink:href="#HelveticaWorld-Regular-20"/>
      <use x="951.662109" xlink:href="#HelveticaWorld-Regular-28"/>
      <use x="984.962891" xlink:href="#HelveticaWorld-Regular-61"/>
      <use x="1039.894531" xlink:href="#HelveticaWorld-Regular-2e"/>
      <use x="1067.677734" xlink:href="#HelveticaWorld-Regular-75"/>
      <use x="1122.462891" xlink:href="#HelveticaWorld-Regular-2e"/>
      <use x="1150.246094" xlink:href="#HelveticaWorld-Regular-29"/>
     </g>
    </g>
   </g>
   <g id="PolyCollection_1">
    <defs>
     <path d="M 569.438072 -471.887842 
L 569.438072 -432.907092 
L 588.155163 -460.41777 
L 606.872254 -465.973265 
L 625.589346 -472.175052 
L 644.306437 -472.080969 
L 663.023528 -475.656116 
L 681.740619 -473.072761 
L 700.45771 -476.012519 
L 719.174801 -473.153171 
L 737.891893 -469.012015 
L 756.608984 -466.517655 
L 775.326075 -462.865614 
L 794.043166 -461.911272 
L 812.760257 -461.375254 
L 831.477348 -456.258198 
L 850.19444 -454.258098 
L 868.911531 -450.562579 
L 887.628622 -448.149953 
L 906.345713 -446.421194 
L 925.062804 -442.340209 
L 943.779895 -440.604332 
L 962.496987 -436.871755 
L 981.214078 -433.269389 
L 999.931169 -429.280756 
L 1018.64826 -425.541682 
L 1037.365351 -423.143492 
L 1056.082442 -420.418405 
L 1074.799534 -416.6729 
L 1093.516625 -412.483284 
L 1112.233716 -409.878545 
L 1130.950807 -406.864292 
L 1149.667898 -404.552732 
L 1168.384989 -402.265079 
L 1187.102081 -398.275075 
L 1205.819172 -397.986532 
L 1224.536263 -393.293755 
L 1243.253354 -392.300497 
L 1261.970445 -391.202367 
L 1280.687536 -389.749341 
L 1299.404628 -388.069468 
L 1318.121719 -386.924235 
L 1336.83881 -385.430696 
L 1355.555901 -385.11153 
L 1374.272992 -382.536161 
L 1392.990083 -381.799479 
L 1411.707174 -381.643034 
L 1430.424266 -382.800943 
L 1449.141357 -381.401583 
L 1467.858448 -381.471964 
L 1486.575539 -380.256543 
L 1505.29263 -379.802255 
L 1524.009721 -380.194929 
L 1542.726813 -381.877203 
L 1561.443904 -381.103654 
L 1580.160995 -381.006829 
L 1598.878086 -381.119489 
L 1617.595177 -379.653436 
L 1636.312268 -381.102524 
L 1655.02936 -378.953496 
L 1673.746451 -379.578213 
L 1673.746451 -411.636426 
L 1673.746451 -411.636426 
L 1655.02936 -412.842819 
L 1636.312268 -411.92523 
L 1617.595177 -411.130935 
L 1598.878086 -413.102504 
L 1580.160995 -412.642179 
L 1561.443904 -412.684505 
L 1542.726813 -412.700528 
L 1524.009721 -412.326504 
L 1505.29263 -412.326495 
L 1486.575539 -411.810269 
L 1467.858448 -413.787026 
L 1449.141357 -412.352838 
L 1430.424266 -413.795122 
L 1411.707174 -412.55701 
L 1392.990083 -415.39273 
L 1374.272992 -414.472022 
L 1355.555901 -415.533632 
L 1336.83881 -417.385846 
L 1318.121719 -418.616055 
L 1299.404628 -419.685668 
L 1280.687536 -422.491961 
L 1261.970445 -423.276975 
L 1243.253354 -425.134489 
L 1224.536263 -427.298945 
L 1205.819172 -428.869458 
L 1187.102081 -431.610232 
L 1168.384989 -436.321195 
L 1149.667898 -438.345029 
L 1130.950807 -442.867959 
L 1112.233716 -443.832822 
L 1093.516625 -449.065189 
L 1074.799534 -451.336264 
L 1056.082442 -454.997016 
L 1037.365351 -458.914757 
L 1018.64826 -460.800201 
L 999.931169 -465.795881 
L 981.214078 -469.713471 
L 962.496987 -473.048796 
L 943.779895 -476.515527 
L 925.062804 -480.399953 
L 906.345713 -483.248072 
L 887.628622 -485.230026 
L 868.911531 -488.349678 
L 850.19444 -492.072896 
L 831.477348 -492.944037 
L 812.760257 -498.477212 
L 794.043166 -501.350273 
L 775.326075 -502.035322 
L 756.608984 -506.34125 
L 737.891893 -508.555856 
L 719.174801 -511.632179 
L 700.45771 -515.535263 
L 681.740619 -514.735149 
L 663.023528 -515.175427 
L 644.306437 -514.020291 
L 625.589346 -511.715715 
L 606.872254 -505.163792 
L 588.155163 -499.165951 
L 569.438072 -471.887842 
z
" id="m528c745f63" style="stroke:#1b9e77;stroke-opacity:0.2;"/>
    </defs>
    <g clip-path="url(#pd43fb7614c)">
     <use style="fill:#1b9e77;fill-opacity:0.2;stroke:#1b9e77;stroke-opacity:0.2;" x="0" xlink:href="#m528c745f63" y="648"/>
    </g>
   </g>
   <g id="PolyCollection_2">
    <defs>
     <path d="M 569.438072 -440.914926 
L 569.438072 -408.539956 
L 588.155163 -414.589577 
L 606.872254 -416.225625 
L 625.589346 -420.179176 
L 644.306437 -416.576673 
L 663.023528 -417.283072 
L 681.740619 -417.453038 
L 700.45771 -417.091195 
L 719.174801 -413.340977 
L 737.891893 -412.249892 
L 756.608984 -409.556743 
L 775.326075 -406.582213 
L 794.043166 -404.278583 
L 812.760257 -402.304344 
L 831.477348 -400.198197 
L 850.19444 -398.733041 
L 868.911531 -397.38283 
L 887.628622 -395.262568 
L 906.345713 -393.195639 
L 925.062804 -391.281167 
L 943.779895 -388.831619 
L 962.496987 -386.16163 
L 981.214078 -384.49252 
L 999.931169 -380.932919 
L 1018.64826 -378.553672 
L 1037.365351 -376.286423 
L 1056.082442 -374.693921 
L 1074.799534 -371.275879 
L 1093.516625 -368.028319 
L 1112.233716 -364.337388 
L 1130.950807 -361.979537 
L 1149.667898 -357.932135 
L 1168.384989 -356.947972 
L 1187.102081 -354.504369 
L 1205.819172 -353.81035 
L 1224.536263 -349.479635 
L 1243.253354 -349.427557 
L 1261.970445 -348.181832 
L 1280.687536 -345.868988 
L 1299.404628 -345.791393 
L 1318.121719 -343.845573 
L 1336.83881 -343.617699 
L 1355.555901 -342.776603 
L 1374.272992 -342.728343 
L 1392.990083 -340.229647 
L 1411.707174 -340.010674 
L 1430.424266 -339.213774 
L 1449.141357 -338.807103 
L 1467.858448 -339.96757 
L 1486.575539 -337.895583 
L 1505.29263 -337.616688 
L 1524.009721 -338.243227 
L 1542.726813 -339.830708 
L 1561.443904 -337.800321 
L 1580.160995 -339.872548 
L 1598.878086 -339.902844 
L 1617.595177 -338.873402 
L 1636.312268 -339.853085 
L 1655.02936 -339.879828 
L 1673.746451 -338.904625 
L 1673.746451 -373.958976 
L 1673.746451 -373.958976 
L 1655.02936 -374.497454 
L 1636.312268 -374.632778 
L 1617.595177 -375.083855 
L 1598.878086 -374.826149 
L 1580.160995 -373.966442 
L 1561.443904 -374.245216 
L 1542.726813 -375.182719 
L 1524.009721 -374.032562 
L 1505.29263 -373.022136 
L 1486.575539 -374.409976 
L 1467.858448 -373.810256 
L 1449.141357 -374.143034 
L 1430.424266 -375.707311 
L 1411.707174 -375.469816 
L 1392.990083 -376.14307 
L 1374.272992 -374.895356 
L 1355.555901 -377.712211 
L 1336.83881 -377.886626 
L 1318.121719 -379.668608 
L 1299.404628 -380.349385 
L 1280.687536 -380.757222 
L 1261.970445 -382.232958 
L 1243.253354 -384.610782 
L 1224.536263 -385.301166 
L 1205.819172 -389.79133 
L 1187.102081 -391.050991 
L 1168.384989 -392.193794 
L 1149.667898 -395.732064 
L 1130.950807 -398.160091 
L 1112.233716 -401.541598 
L 1093.516625 -405.523994 
L 1074.799534 -407.722018 
L 1056.082442 -410.81022 
L 1037.365351 -412.568274 
L 1018.64826 -416.603558 
L 999.931169 -420.688673 
L 981.214078 -422.135407 
L 962.496987 -426.089263 
L 943.779895 -427.638151 
L 925.062804 -429.385243 
L 906.345713 -430.286871 
L 887.628622 -433.84245 
L 868.911531 -435.559448 
L 850.19444 -437.473283 
L 831.477348 -439.121696 
L 812.760257 -440.774064 
L 794.043166 -443.052927 
L 775.326075 -444.904267 
L 756.608984 -447.428684 
L 737.891893 -450.141854 
L 719.174801 -451.001092 
L 700.45771 -453.999243 
L 681.740619 -454.358095 
L 663.023528 -454.520929 
L 644.306437 -454.295904 
L 625.589346 -457.256544 
L 606.872254 -455.022639 
L 588.155163 -450.445442 
L 569.438072 -440.914926 
z
" id="md23c3aaa90" style="stroke:#d95f02;stroke-opacity:0.2;"/>
    </defs>
    <g clip-path="url(#pd43fb7614c)">
     <use style="fill:#d95f02;fill-opacity:0.2;stroke:#d95f02;stroke-opacity:0.2;" x="0" xlink:href="#md23c3aaa90" y="648"/>
    </g>
   </g>
   <g id="PathCollection_1">
    <defs>
     <path d="M 0 -6.708204 
L 0 0 
L -5.809475 -3.354102 
L 0 0 
L -5.809475 3.354102 
L 0 0 
L -0 6.708204 
L 0 0 
L 5.809475 3.354102 
L 0 0 
L 5.809475 -3.354102 
L 0 0 
z
" id="m72e3c5a644" style="stroke:#000000;stroke-width:3;"/>
    </defs>
    <g clip-path="url(#pd43fb7614c)">
     <use style="stroke:#000000;stroke-width:3;" x="588.155163" xlink:href="#m72e3c5a644" y="432.152"/>
    </g>
   </g>
   <g id="PathCollection_2">
    <g clip-path="url(#pd43fb7614c)">
     <use style="stroke:#000000;stroke-width:3;" x="606.872254" xlink:href="#m72e3c5a644" y="432.152"/>
    </g>
   </g>
   <g id="PathCollection_3">
    <g clip-path="url(#pd43fb7614c)">
     <use style="stroke:#000000;stroke-width:3;" x="625.589346" xlink:href="#m72e3c5a644" y="432.152"/>
    </g>
   </g>
   <g id="PathCollection_4">
    <g clip-path="url(#pd43fb7614c)">
     <use style="stroke:#000000;stroke-width:3;" x="644.306437" xlink:href="#m72e3c5a644" y="432.152"/>
    </g>
   </g>
   <g id="PathCollection_5">
    <g clip-path="url(#pd43fb7614c)">
     <use style="stroke:#000000;stroke-width:3;" x="663.023528" xlink:href="#m72e3c5a644" y="432.152"/>
    </g>
   </g>
   <g id="PathCollection_6">
    <g clip-path="url(#pd43fb7614c)">
     <use style="stroke:#000000;stroke-width:3;" x="681.740619" xlink:href="#m72e3c5a644" y="432.152"/>
    </g>
   </g>
   <g id="PathCollection_7">
    <g clip-path="url(#pd43fb7614c)">
     <use style="stroke:#000000;stroke-width:3;" x="700.45771" xlink:href="#m72e3c5a644" y="432.152"/>
    </g>
   </g>
   <g id="PathCollection_8">
    <g clip-path="url(#pd43fb7614c)">
     <use style="stroke:#000000;stroke-width:3;" x="719.174801" xlink:href="#m72e3c5a644" y="432.152"/>
    </g>
   </g>
   <g id="PathCollection_9">
    <g clip-path="url(#pd43fb7614c)">
     <use style="stroke:#000000;stroke-width:3;" x="737.891893" xlink:href="#m72e3c5a644" y="432.152"/>
    </g>
   </g>
   <g id="PathCollection_10">
    <g clip-path="url(#pd43fb7614c)">
     <use style="stroke:#000000;stroke-width:3;" x="756.608984" xlink:href="#m72e3c5a644" y="432.152"/>
    </g>
   </g>
   <g id="PathCollection_11">
    <g clip-path="url(#pd43fb7614c)">
     <use style="stroke:#000000;stroke-width:3;" x="775.326075" xlink:href="#m72e3c5a644" y="432.152"/>
    </g>
   </g>
   <g id="PathCollection_12">
    <g clip-path="url(#pd43fb7614c)">
     <use style="stroke:#000000;stroke-width:3;" x="794.043166" xlink:href="#m72e3c5a644" y="432.152"/>
    </g>
   </g>
   <g id="PathCollection_13">
    <g clip-path="url(#pd43fb7614c)">
     <use style="stroke:#000000;stroke-width:3;" x="812.760257" xlink:href="#m72e3c5a644" y="432.152"/>
    </g>
   </g>
   <g id="PathCollection_14">
    <g clip-path="url(#pd43fb7614c)">
     <use style="stroke:#000000;stroke-width:3;" x="831.477348" xlink:href="#m72e3c5a644" y="432.152"/>
    </g>
   </g>
   <g id="PathCollection_15">
    <g clip-path="url(#pd43fb7614c)">
     <use style="stroke:#000000;stroke-width:3;" x="850.19444" xlink:href="#m72e3c5a644" y="432.152"/>
    </g>
   </g>
   <g id="PathCollection_16">
    <g clip-path="url(#pd43fb7614c)">
     <use style="stroke:#000000;stroke-width:3;" x="868.911531" xlink:href="#m72e3c5a644" y="432.152"/>
    </g>
   </g>
   <g id="line2d_1">
    <path clip-path="url(#pd43fb7614c)" d="M 569.438072 195.859557 
L 588.155163 169.02677 
L 606.872254 161.768775 
L 625.589346 155.608586 
L 644.306437 154.662927 
L 663.023528 152.598491 
L 681.740619 153.273149 
L 700.45771 153.790692 
L 719.174801 155.997046 
L 737.891893 158.546996 
L 756.608984 161.57385 
L 775.326075 164.485484 
L 794.043166 166.715492 
L 812.760257 169.209468 
L 831.477348 172.306761 
L 850.19444 174.865596 
L 868.911531 177.556921 
L 887.628622 180.971909 
L 906.345713 183.980825 
L 925.062804 186.888852 
L 943.779895 189.893668 
L 962.496987 193.092057 
L 981.214078 196.88212 
L 999.931169 200.549647 
L 1018.64826 204.01744 
L 1037.365351 207.639062 
L 1056.082442 211.196811 
L 1074.799534 214.694323 
L 1093.516625 217.520146 
L 1112.233716 220.687787 
L 1130.950807 223.622079 
L 1149.667898 226.559786 
L 1168.384989 229.348154 
L 1187.102081 232.048281 
L 1205.819172 234.603371 
L 1224.536263 236.562039 
L 1243.253354 238.739369 
L 1261.970445 240.630998 
L 1280.687536 242.424967 
L 1299.404628 244.037606 
L 1318.121719 245.442677 
L 1336.83881 246.687904 
L 1355.555901 247.726057 
L 1374.272992 248.540642 
L 1392.990083 249.25151 
L 1411.707174 249.902309 
L 1430.424266 250.363889 
L 1449.141357 250.636328 
L 1467.858448 250.968067 
L 1486.575539 251.204801 
L 1505.29263 251.420747 
L 1524.009721 251.488385 
L 1542.726813 251.534106 
L 1561.443904 251.558757 
L 1580.160995 251.579037 
L 1598.878086 251.579037 
L 1617.595177 251.579037 
L 1636.312268 251.579037 
L 1655.02936 251.579037 
L 1673.746451 251.579037 
" style="fill:none;stroke:#1b9e77;stroke-linecap:round;stroke-width:1.5;"/>
    <defs>
     <path d="M 0 5 
C 1.326016 5 2.597899 4.473168 3.535534 3.535534 
C 4.473168 2.597899 5 1.326016 5 0 
C 5 -1.326016 4.473168 -2.597899 3.535534 -3.535534 
C 2.597899 -4.473168 1.326016 -5 0 -5 
C -1.326016 -5 -2.597899 -4.473168 -3.535534 -3.535534 
C -4.473168 -2.597899 -5 -1.326016 -5 0 
C -5 1.326016 -4.473168 2.597899 -3.535534 3.535534 
C -2.597899 4.473168 -1.326016 5 0 5 
z
" id="m917d0e7b3e" style="stroke:#000000;stroke-opacity:0;stroke-width:0.75;"/>
    </defs>
    <g clip-path="url(#pd43fb7614c)">
     <use style="fill:#1b9e77;stroke:#000000;stroke-opacity:0;stroke-width:0.75;" x="569.438072" xlink:href="#m917d0e7b3e" y="195.859557"/>
     <use style="fill:#1b9e77;stroke:#000000;stroke-opacity:0;stroke-width:0.75;" x="588.155163" xlink:href="#m917d0e7b3e" y="169.02677"/>
     <use style="fill:#1b9e77;stroke:#000000;stroke-opacity:0;stroke-width:0.75;" x="606.872254" xlink:href="#m917d0e7b3e" y="161.768775"/>
     <use style="fill:#1b9e77;stroke:#000000;stroke-opacity:0;stroke-width:0.75;" x="625.589346" xlink:href="#m917d0e7b3e" y="155.608586"/>
     <use style="fill:#1b9e77;stroke:#000000;stroke-opacity:0;stroke-width:0.75;" x="644.306437" xlink:href="#m917d0e7b3e" y="154.662927"/>
     <use style="fill:#1b9e77;stroke:#000000;stroke-opacity:0;stroke-width:0.75;" x="663.023528" xlink:href="#m917d0e7b3e" y="152.598491"/>
     <use style="fill:#1b9e77;stroke:#000000;stroke-opacity:0;stroke-width:0.75;" x="681.740619" xlink:href="#m917d0e7b3e" y="153.273149"/>
     <use style="fill:#1b9e77;stroke:#000000;stroke-opacity:0;stroke-width:0.75;" x="700.45771" xlink:href="#m917d0e7b3e" y="153.790692"/>
     <use style="fill:#1b9e77;stroke:#000000;stroke-opacity:0;stroke-width:0.75;" x="719.174801" xlink:href="#m917d0e7b3e" y="155.997046"/>
     <use style="fill:#1b9e77;stroke:#000000;stroke-opacity:0;stroke-width:0.75;" x="737.891893" xlink:href="#m917d0e7b3e" y="158.546996"/>
     <use style="fill:#1b9e77;stroke:#000000;stroke-opacity:0;stroke-width:0.75;" x="756.608984" xlink:href="#m917d0e7b3e" y="161.57385"/>
     <use style="fill:#1b9e77;stroke:#000000;stroke-opacity:0;stroke-width:0.75;" x="775.326075" xlink:href="#m917d0e7b3e" y="164.485484"/>
     <use style="fill:#1b9e77;stroke:#000000;stroke-opacity:0;stroke-width:0.75;" x="794.043166" xlink:href="#m917d0e7b3e" y="166.715492"/>
     <use style="fill:#1b9e77;stroke:#000000;stroke-opacity:0;stroke-width:0.75;" x="812.760257" xlink:href="#m917d0e7b3e" y="169.209468"/>
     <use style="fill:#1b9e77;stroke:#000000;stroke-opacity:0;stroke-width:0.75;" x="831.477348" xlink:href="#m917d0e7b3e" y="172.306761"/>
     <use style="fill:#1b9e77;stroke:#000000;stroke-opacity:0;stroke-width:0.75;" x="850.19444" xlink:href="#m917d0e7b3e" y="174.865596"/>
     <use style="fill:#1b9e77;stroke:#000000;stroke-opacity:0;stroke-width:0.75;" x="868.911531" xlink:href="#m917d0e7b3e" y="177.556921"/>
     <use style="fill:#1b9e77;stroke:#000000;stroke-opacity:0;stroke-width:0.75;" x="887.628622" xlink:href="#m917d0e7b3e" y="180.971909"/>
     <use style="fill:#1b9e77;stroke:#000000;stroke-opacity:0;stroke-width:0.75;" x="906.345713" xlink:href="#m917d0e7b3e" y="183.980825"/>
     <use style="fill:#1b9e77;stroke:#000000;stroke-opacity:0;stroke-width:0.75;" x="925.062804" xlink:href="#m917d0e7b3e" y="186.888852"/>
     <use style="fill:#1b9e77;stroke:#000000;stroke-opacity:0;stroke-width:0.75;" x="943.779895" xlink:href="#m917d0e7b3e" y="189.893668"/>
     <use style="fill:#1b9e77;stroke:#000000;stroke-opacity:0;stroke-width:0.75;" x="962.496987" xlink:href="#m917d0e7b3e" y="193.092057"/>
     <use style="fill:#1b9e77;stroke:#000000;stroke-opacity:0;stroke-width:0.75;" x="981.214078" xlink:href="#m917d0e7b3e" y="196.88212"/>
     <use style="fill:#1b9e77;stroke:#000000;stroke-opacity:0;stroke-width:0.75;" x="999.931169" xlink:href="#m917d0e7b3e" y="200.549647"/>
     <use style="fill:#1b9e77;stroke:#000000;stroke-opacity:0;stroke-width:0.75;" x="1018.64826" xlink:href="#m917d0e7b3e" y="204.01744"/>
     <use style="fill:#1b9e77;stroke:#000000;stroke-opacity:0;stroke-width:0.75;" x="1037.365351" xlink:href="#m917d0e7b3e" y="207.639062"/>
     <use style="fill:#1b9e77;stroke:#000000;stroke-opacity:0;stroke-width:0.75;" x="1056.082442" xlink:href="#m917d0e7b3e" y="211.196811"/>
     <use style="fill:#1b9e77;stroke:#000000;stroke-opacity:0;stroke-width:0.75;" x="1074.799534" xlink:href="#m917d0e7b3e" y="214.694323"/>
     <use style="fill:#1b9e77;stroke:#000000;stroke-opacity:0;stroke-width:0.75;" x="1093.516625" xlink:href="#m917d0e7b3e" y="217.520146"/>
     <use style="fill:#1b9e77;stroke:#000000;stroke-opacity:0;stroke-width:0.75;" x="1112.233716" xlink:href="#m917d0e7b3e" y="220.687787"/>
     <use style="fill:#1b9e77;stroke:#000000;stroke-opacity:0;stroke-width:0.75;" x="1130.950807" xlink:href="#m917d0e7b3e" y="223.622079"/>
     <use style="fill:#1b9e77;stroke:#000000;stroke-opacity:0;stroke-width:0.75;" x="1149.667898" xlink:href="#m917d0e7b3e" y="226.559786"/>
     <use style="fill:#1b9e77;stroke:#000000;stroke-opacity:0;stroke-width:0.75;" x="1168.384989" xlink:href="#m917d0e7b3e" y="229.348154"/>
     <use style="fill:#1b9e77;stroke:#000000;stroke-opacity:0;stroke-width:0.75;" x="1187.102081" xlink:href="#m917d0e7b3e" y="232.048281"/>
     <use style="fill:#1b9e77;stroke:#000000;stroke-opacity:0;stroke-width:0.75;" x="1205.819172" xlink:href="#m917d0e7b3e" y="234.603371"/>
     <use style="fill:#1b9e77;stroke:#000000;stroke-opacity:0;stroke-width:0.75;" x="1224.536263" xlink:href="#m917d0e7b3e" y="236.562039"/>
     <use style="fill:#1b9e77;stroke:#000000;stroke-opacity:0;stroke-width:0.75;" x="1243.253354" xlink:href="#m917d0e7b3e" y="238.739369"/>
     <use style="fill:#1b9e77;stroke:#000000;stroke-opacity:0;stroke-width:0.75;" x="1261.970445" xlink:href="#m917d0e7b3e" y="240.630998"/>
     <use style="fill:#1b9e77;stroke:#000000;stroke-opacity:0;stroke-width:0.75;" x="1280.687536" xlink:href="#m917d0e7b3e" y="242.424967"/>
     <use style="fill:#1b9e77;stroke:#000000;stroke-opacity:0;stroke-width:0.75;" x="1299.404628" xlink:href="#m917d0e7b3e" y="244.037606"/>
     <use style="fill:#1b9e77;stroke:#000000;stroke-opacity:0;stroke-width:0.75;" x="1318.121719" xlink:href="#m917d0e7b3e" y="245.442677"/>
     <use style="fill:#1b9e77;stroke:#000000;stroke-opacity:0;stroke-width:0.75;" x="1336.83881" xlink:href="#m917d0e7b3e" y="246.687904"/>
     <use style="fill:#1b9e77;stroke:#000000;stroke-opacity:0;stroke-width:0.75;" x="1355.555901" xlink:href="#m917d0e7b3e" y="247.726057"/>
     <use style="fill:#1b9e77;stroke:#000000;stroke-opacity:0;stroke-width:0.75;" x="1374.272992" xlink:href="#m917d0e7b3e" y="248.540642"/>
     <use style="fill:#1b9e77;stroke:#000000;stroke-opacity:0;stroke-width:0.75;" x="1392.990083" xlink:href="#m917d0e7b3e" y="249.25151"/>
     <use style="fill:#1b9e77;stroke:#000000;stroke-opacity:0;stroke-width:0.75;" x="1411.707174" xlink:href="#m917d0e7b3e" y="249.902309"/>
     <use style="fill:#1b9e77;stroke:#000000;stroke-opacity:0;stroke-width:0.75;" x="1430.424266" xlink:href="#m917d0e7b3e" y="250.363889"/>
     <use style="fill:#1b9e77;stroke:#000000;stroke-opacity:0;stroke-width:0.75;" x="1449.141357" xlink:href="#m917d0e7b3e" y="250.636328"/>
     <use style="fill:#1b9e77;stroke:#000000;stroke-opacity:0;stroke-width:0.75;" x="1467.858448" xlink:href="#m917d0e7b3e" y="250.968067"/>
     <use style="fill:#1b9e77;stroke:#000000;stroke-opacity:0;stroke-width:0.75;" x="1486.575539" xlink:href="#m917d0e7b3e" y="251.204801"/>
     <use style="fill:#1b9e77;stroke:#000000;stroke-opacity:0;stroke-width:0.75;" x="1505.29263" xlink:href="#m917d0e7b3e" y="251.420747"/>
     <use style="fill:#1b9e77;stroke:#000000;stroke-opacity:0;stroke-width:0.75;" x="1524.009721" xlink:href="#m917d0e7b3e" y="251.488385"/>
     <use style="fill:#1b9e77;stroke:#000000;stroke-opacity:0;stroke-width:0.75;" x="1542.726813" xlink:href="#m917d0e7b3e" y="251.534106"/>
     <use style="fill:#1b9e77;stroke:#000000;stroke-opacity:0;stroke-width:0.75;" x="1561.443904" xlink:href="#m917d0e7b3e" y="251.558757"/>
     <use style="fill:#1b9e77;stroke:#000000;stroke-opacity:0;stroke-width:0.75;" x="1580.160995" xlink:href="#m917d0e7b3e" y="251.579037"/>
     <use style="fill:#1b9e77;stroke:#000000;stroke-opacity:0;stroke-width:0.75;" x="1598.878086" xlink:href="#m917d0e7b3e" y="251.579037"/>
     <use style="fill:#1b9e77;stroke:#000000;stroke-opacity:0;stroke-width:0.75;" x="1617.595177" xlink:href="#m917d0e7b3e" y="251.579037"/>
     <use style="fill:#1b9e77;stroke:#000000;stroke-opacity:0;stroke-width:0.75;" x="1636.312268" xlink:href="#m917d0e7b3e" y="251.579037"/>
     <use style="fill:#1b9e77;stroke:#000000;stroke-opacity:0;stroke-width:0.75;" x="1655.02936" xlink:href="#m917d0e7b3e" y="251.579037"/>
     <use style="fill:#1b9e77;stroke:#000000;stroke-opacity:0;stroke-width:0.75;" x="1673.746451" xlink:href="#m917d0e7b3e" y="251.579037"/>
    </g>
   </g>
   <g id="line2d_2">
    <path clip-path="url(#pd43fb7614c)" d="M 569.438072 223.713464 
L 588.155163 214.832742 
L 606.872254 211.789746 
L 625.589346 209.008167 
L 644.306437 212.021453 
L 663.023528 211.194733 
L 681.740619 211.506279 
L 700.45771 212.711456 
L 719.174801 215.371127 
L 737.891893 217.230748 
L 756.608984 220.053406 
L 775.326075 222.627683 
L 794.043166 225.042708 
L 812.760257 226.947109 
L 831.477348 228.508907 
L 850.19444 229.599603 
L 868.911531 231.709498 
L 887.628622 233.45993 
L 906.345713 234.834826 
L 925.062804 237.638007 
L 943.779895 239.598952 
L 962.496987 242.456687 
L 981.214078 244.660297 
L 999.931169 246.848439 
L 1018.64826 249.536669 
L 1037.365351 252.744092 
L 1056.082442 255.028439 
L 1074.799534 258.274578 
L 1093.516625 261.6025 
L 1112.233716 264.388254 
L 1130.950807 267.697684 
L 1149.667898 270.371863 
L 1168.384989 272.948867 
L 1187.102081 274.860715 
L 1205.819172 277.196521 
L 1224.536263 279.061331 
L 1243.253354 280.731455 
L 1261.970445 282.538628 
L 1280.687536 284.135672 
L 1299.404628 285.582232 
L 1318.121719 286.524509 
L 1336.83881 287.536235 
L 1355.555901 288.178448 
L 1374.272992 288.821182 
L 1392.990083 289.643454 
L 1411.707174 290.186261 
L 1430.424266 290.637517 
L 1449.141357 290.766075 
L 1467.858448 291.0132 
L 1486.575539 291.128591 
L 1505.29263 291.25471 
L 1524.009721 291.290448 
L 1542.726813 291.298037 
L 1561.443904 291.30302 
L 1580.160995 291.303913 
L 1598.878086 291.303913 
L 1617.595177 291.303913 
L 1636.312268 291.303913 
L 1655.02936 291.303913 
L 1673.746451 291.303913 
" style="fill:none;stroke:#d95f02;stroke-linecap:round;stroke-width:1.5;"/>
    <defs>
     <path d="M 0 5 
C 1.326016 5 2.597899 4.473168 3.535534 3.535534 
C 4.473168 2.597899 5 1.326016 5 0 
C 5 -1.326016 4.473168 -2.597899 3.535534 -3.535534 
C 2.597899 -4.473168 1.326016 -5 0 -5 
C -1.326016 -5 -2.597899 -4.473168 -3.535534 -3.535534 
C -4.473168 -2.597899 -5 -1.326016 -5 0 
C -5 1.326016 -4.473168 2.597899 -3.535534 3.535534 
C -2.597899 4.473168 -1.326016 5 0 5 
z
" id="m633d4a7dbf" style="stroke:#000000;stroke-opacity:0;stroke-width:0.75;"/>
    </defs>
    <g clip-path="url(#pd43fb7614c)">
     <use style="fill:#d95f02;stroke:#000000;stroke-opacity:0;stroke-width:0.75;" x="569.438072" xlink:href="#m633d4a7dbf" y="223.713464"/>
     <use style="fill:#d95f02;stroke:#000000;stroke-opacity:0;stroke-width:0.75;" x="588.155163" xlink:href="#m633d4a7dbf" y="214.832742"/>
     <use style="fill:#d95f02;stroke:#000000;stroke-opacity:0;stroke-width:0.75;" x="606.872254" xlink:href="#m633d4a7dbf" y="211.789746"/>
     <use style="fill:#d95f02;stroke:#000000;stroke-opacity:0;stroke-width:0.75;" x="625.589346" xlink:href="#m633d4a7dbf" y="209.008167"/>
     <use style="fill:#d95f02;stroke:#000000;stroke-opacity:0;stroke-width:0.75;" x="644.306437" xlink:href="#m633d4a7dbf" y="212.021453"/>
     <use style="fill:#d95f02;stroke:#000000;stroke-opacity:0;stroke-width:0.75;" x="663.023528" xlink:href="#m633d4a7dbf" y="211.194733"/>
     <use style="fill:#d95f02;stroke:#000000;stroke-opacity:0;stroke-width:0.75;" x="681.740619" xlink:href="#m633d4a7dbf" y="211.506279"/>
     <use style="fill:#d95f02;stroke:#000000;stroke-opacity:0;stroke-width:0.75;" x="700.45771" xlink:href="#m633d4a7dbf" y="212.711456"/>
     <use style="fill:#d95f02;stroke:#000000;stroke-opacity:0;stroke-width:0.75;" x="719.174801" xlink:href="#m633d4a7dbf" y="215.371127"/>
     <use style="fill:#d95f02;stroke:#000000;stroke-opacity:0;stroke-width:0.75;" x="737.891893" xlink:href="#m633d4a7dbf" y="217.230748"/>
     <use style="fill:#d95f02;stroke:#000000;stroke-opacity:0;stroke-width:0.75;" x="756.608984" xlink:href="#m633d4a7dbf" y="220.053406"/>
     <use style="fill:#d95f02;stroke:#000000;stroke-opacity:0;stroke-width:0.75;" x="775.326075" xlink:href="#m633d4a7dbf" y="222.627683"/>
     <use style="fill:#d95f02;stroke:#000000;stroke-opacity:0;stroke-width:0.75;" x="794.043166" xlink:href="#m633d4a7dbf" y="225.042708"/>
     <use style="fill:#d95f02;stroke:#000000;stroke-opacity:0;stroke-width:0.75;" x="812.760257" xlink:href="#m633d4a7dbf" y="226.947109"/>
     <use style="fill:#d95f02;stroke:#000000;stroke-opacity:0;stroke-width:0.75;" x="831.477348" xlink:href="#m633d4a7dbf" y="228.508907"/>
     <use style="fill:#d95f02;stroke:#000000;stroke-opacity:0;stroke-width:0.75;" x="850.19444" xlink:href="#m633d4a7dbf" y="229.599603"/>
     <use style="fill:#d95f02;stroke:#000000;stroke-opacity:0;stroke-width:0.75;" x="868.911531" xlink:href="#m633d4a7dbf" y="231.709498"/>
     <use style="fill:#d95f02;stroke:#000000;stroke-opacity:0;stroke-width:0.75;" x="887.628622" xlink:href="#m633d4a7dbf" y="233.45993"/>
     <use style="fill:#d95f02;stroke:#000000;stroke-opacity:0;stroke-width:0.75;" x="906.345713" xlink:href="#m633d4a7dbf" y="234.834826"/>
     <use style="fill:#d95f02;stroke:#000000;stroke-opacity:0;stroke-width:0.75;" x="925.062804" xlink:href="#m633d4a7dbf" y="237.638007"/>
     <use style="fill:#d95f02;stroke:#000000;stroke-opacity:0;stroke-width:0.75;" x="943.779895" xlink:href="#m633d4a7dbf" y="239.598952"/>
     <use style="fill:#d95f02;stroke:#000000;stroke-opacity:0;stroke-width:0.75;" x="962.496987" xlink:href="#m633d4a7dbf" y="242.456687"/>
     <use style="fill:#d95f02;stroke:#000000;stroke-opacity:0;stroke-width:0.75;" x="981.214078" xlink:href="#m633d4a7dbf" y="244.660297"/>
     <use style="fill:#d95f02;stroke:#000000;stroke-opacity:0;stroke-width:0.75;" x="999.931169" xlink:href="#m633d4a7dbf" y="246.848439"/>
     <use style="fill:#d95f02;stroke:#000000;stroke-opacity:0;stroke-width:0.75;" x="1018.64826" xlink:href="#m633d4a7dbf" y="249.536669"/>
     <use style="fill:#d95f02;stroke:#000000;stroke-opacity:0;stroke-width:0.75;" x="1037.365351" xlink:href="#m633d4a7dbf" y="252.744092"/>
     <use style="fill:#d95f02;stroke:#000000;stroke-opacity:0;stroke-width:0.75;" x="1056.082442" xlink:href="#m633d4a7dbf" y="255.028439"/>
     <use style="fill:#d95f02;stroke:#000000;stroke-opacity:0;stroke-width:0.75;" x="1074.799534" xlink:href="#m633d4a7dbf" y="258.274578"/>
     <use style="fill:#d95f02;stroke:#000000;stroke-opacity:0;stroke-width:0.75;" x="1093.516625" xlink:href="#m633d4a7dbf" y="261.6025"/>
     <use style="fill:#d95f02;stroke:#000000;stroke-opacity:0;stroke-width:0.75;" x="1112.233716" xlink:href="#m633d4a7dbf" y="264.388254"/>
     <use style="fill:#d95f02;stroke:#000000;stroke-opacity:0;stroke-width:0.75;" x="1130.950807" xlink:href="#m633d4a7dbf" y="267.697684"/>
     <use style="fill:#d95f02;stroke:#000000;stroke-opacity:0;stroke-width:0.75;" x="1149.667898" xlink:href="#m633d4a7dbf" y="270.371863"/>
     <use style="fill:#d95f02;stroke:#000000;stroke-opacity:0;stroke-width:0.75;" x="1168.384989" xlink:href="#m633d4a7dbf" y="272.948867"/>
     <use style="fill:#d95f02;stroke:#000000;stroke-opacity:0;stroke-width:0.75;" x="1187.102081" xlink:href="#m633d4a7dbf" y="274.860715"/>
     <use style="fill:#d95f02;stroke:#000000;stroke-opacity:0;stroke-width:0.75;" x="1205.819172" xlink:href="#m633d4a7dbf" y="277.196521"/>
     <use style="fill:#d95f02;stroke:#000000;stroke-opacity:0;stroke-width:0.75;" x="1224.536263" xlink:href="#m633d4a7dbf" y="279.061331"/>
     <use style="fill:#d95f02;stroke:#000000;stroke-opacity:0;stroke-width:0.75;" x="1243.253354" xlink:href="#m633d4a7dbf" y="280.731455"/>
     <use style="fill:#d95f02;stroke:#000000;stroke-opacity:0;stroke-width:0.75;" x="1261.970445" xlink:href="#m633d4a7dbf" y="282.538628"/>
     <use style="fill:#d95f02;stroke:#000000;stroke-opacity:0;stroke-width:0.75;" x="1280.687536" xlink:href="#m633d4a7dbf" y="284.135672"/>
     <use style="fill:#d95f02;stroke:#000000;stroke-opacity:0;stroke-width:0.75;" x="1299.404628" xlink:href="#m633d4a7dbf" y="285.582232"/>
     <use style="fill:#d95f02;stroke:#000000;stroke-opacity:0;stroke-width:0.75;" x="1318.121719" xlink:href="#m633d4a7dbf" y="286.524509"/>
     <use style="fill:#d95f02;stroke:#000000;stroke-opacity:0;stroke-width:0.75;" x="1336.83881" xlink:href="#m633d4a7dbf" y="287.536235"/>
     <use style="fill:#d95f02;stroke:#000000;stroke-opacity:0;stroke-width:0.75;" x="1355.555901" xlink:href="#m633d4a7dbf" y="288.178448"/>
     <use style="fill:#d95f02;stroke:#000000;stroke-opacity:0;stroke-width:0.75;" x="1374.272992" xlink:href="#m633d4a7dbf" y="288.821182"/>
     <use style="fill:#d95f02;stroke:#000000;stroke-opacity:0;stroke-width:0.75;" x="1392.990083" xlink:href="#m633d4a7dbf" y="289.643454"/>
     <use style="fill:#d95f02;stroke:#000000;stroke-opacity:0;stroke-width:0.75;" x="1411.707174" xlink:href="#m633d4a7dbf" y="290.186261"/>
     <use style="fill:#d95f02;stroke:#000000;stroke-opacity:0;stroke-width:0.75;" x="1430.424266" xlink:href="#m633d4a7dbf" y="290.637517"/>
     <use style="fill:#d95f02;stroke:#000000;stroke-opacity:0;stroke-width:0.75;" x="1449.141357" xlink:href="#m633d4a7dbf" y="290.766075"/>
     <use style="fill:#d95f02;stroke:#000000;stroke-opacity:0;stroke-width:0.75;" x="1467.858448" xlink:href="#m633d4a7dbf" y="291.0132"/>
     <use style="fill:#d95f02;stroke:#000000;stroke-opacity:0;stroke-width:0.75;" x="1486.575539" xlink:href="#m633d4a7dbf" y="291.128591"/>
     <use style="fill:#d95f02;stroke:#000000;stroke-opacity:0;stroke-width:0.75;" x="1505.29263" xlink:href="#m633d4a7dbf" y="291.25471"/>
     <use style="fill:#d95f02;stroke:#000000;stroke-opacity:0;stroke-width:0.75;" x="1524.009721" xlink:href="#m633d4a7dbf" y="291.290448"/>
     <use style="fill:#d95f02;stroke:#000000;stroke-opacity:0;stroke-width:0.75;" x="1542.726813" xlink:href="#m633d4a7dbf" y="291.298037"/>
     <use style="fill:#d95f02;stroke:#000000;stroke-opacity:0;stroke-width:0.75;" x="1561.443904" xlink:href="#m633d4a7dbf" y="291.30302"/>
     <use style="fill:#d95f02;stroke:#000000;stroke-opacity:0;stroke-width:0.75;" x="1580.160995" xlink:href="#m633d4a7dbf" y="291.303913"/>
     <use style="fill:#d95f02;stroke:#000000;stroke-opacity:0;stroke-width:0.75;" x="1598.878086" xlink:href="#m633d4a7dbf" y="291.303913"/>
     <use style="fill:#d95f02;stroke:#000000;stroke-opacity:0;stroke-width:0.75;" x="1617.595177" xlink:href="#m633d4a7dbf" y="291.303913"/>
     <use style="fill:#d95f02;stroke:#000000;stroke-opacity:0;stroke-width:0.75;" x="1636.312268" xlink:href="#m633d4a7dbf" y="291.303913"/>
     <use style="fill:#d95f02;stroke:#000000;stroke-opacity:0;stroke-width:0.75;" x="1655.02936" xlink:href="#m633d4a7dbf" y="291.303913"/>
     <use style="fill:#d95f02;stroke:#000000;stroke-opacity:0;stroke-width:0.75;" x="1673.746451" xlink:href="#m633d4a7dbf" y="291.303913"/>
    </g>
   </g>
   <g id="line2d_3"/>
   <g id="line2d_4"/>
   <g id="patch_3">
    <path d="M 547.351905 447.24 
L 547.351905 107.76 
" style="fill:none;stroke:#262626;stroke-linecap:square;stroke-linejoin:miter;stroke-width:2;"/>
   </g>
   <g id="patch_4">
    <path d="M 547.351905 447.24 
L 1695.832618 447.24 
" style="fill:none;stroke:#262626;stroke-linecap:square;stroke-linejoin:miter;stroke-width:2;"/>
   </g>
   <g id="legend_1">
    <g id="line2d_5">
     <path d="M 1373.694493 154.0875 
L 1445.694493 154.0875 
" style="fill:none;stroke:#1b9e77;stroke-linecap:round;stroke-width:1.5;"/>
    </g>
    <g id="line2d_6">
     <g>
      <use style="fill:#1b9e77;stroke:#000000;stroke-opacity:0;stroke-width:0.75;" x="1409.694493" xlink:href="#m917d0e7b3e" y="154.0875"/>
     </g>
    </g>
    <g id="text_16">
     <!-- Congruent -->
     <g style="fill:#262626;" transform="translate(1474.494493 166.6875)scale(0.36 -0.36)">
      <defs>
       <path d="M 831 1684 
Q 831 1069 1075 730 
Q 1319 391 1734 391 
Q 2138 391 2394 684 
Q 2650 978 2650 1516 
Q 2650 2222 2426 2580 
Q 2203 2938 1747 2938 
Q 1288 2938 1059 2633 
Q 831 2328 831 1684 
z
M 3188 191 
Q 3188 -616 2800 -1012 
Q 2413 -1409 1631 -1409 
Q 1069 -1409 736 -1150 
Q 403 -891 353 -409 
L 916 -409 
Q 959 -653 1142 -797 
Q 1325 -941 1672 -941 
Q 2144 -941 2384 -687 
Q 2625 -434 2625 134 
L 2625 372 
L 2613 372 
Q 2297 -97 1722 -97 
Q 1006 -97 628 431 
Q 250 959 250 1772 
Q 250 2516 631 2980 
Q 1013 3444 1644 3444 
Q 2278 3444 2644 2875 
L 2656 2875 
L 2656 3347 
L 3188 3347 
L 3188 191 
z
" id="HelveticaWorld-Regular-67" transform="scale(0.015625)"/>
      </defs>
      <use xlink:href="#HelveticaWorld-Regular-43"/>
      <use x="72.314453" xlink:href="#HelveticaWorld-Regular-6f"/>
      <use x="128.222656" xlink:href="#HelveticaWorld-Regular-6e"/>
      <use x="183.398438" xlink:href="#HelveticaWorld-Regular-67"/>
      <use x="239.306641" xlink:href="#HelveticaWorld-Regular-72"/>
      <use x="271.875" xlink:href="#HelveticaWorld-Regular-75"/>
      <use x="326.660156" xlink:href="#HelveticaWorld-Regular-65"/>
      <use x="382.080078" xlink:href="#HelveticaWorld-Regular-6e"/>
      <use x="437.255859" xlink:href="#HelveticaWorld-Regular-74"/>
     </g>
    </g>
    <g id="line2d_7">
     <path d="M 1373.694493 205.854375 
L 1445.694493 205.854375 
" style="fill:none;stroke:#d95f02;stroke-linecap:round;stroke-width:1.5;"/>
    </g>
    <g id="line2d_8">
     <g>
      <use style="fill:#d95f02;stroke:#000000;stroke-opacity:0;stroke-width:0.75;" x="1409.694493" xlink:href="#m633d4a7dbf" y="205.854375"/>
     </g>
    </g>
    <g id="text_17">
     <!-- Incongruent -->
     <g style="fill:#262626;" transform="translate(1474.494493 218.454375)scale(0.36 -0.36)">
      <defs>
       <path d="M 2534 2222 
Q 2413 2938 1741 2938 
Q 1325 2938 1072 2605 
Q 819 2272 819 1678 
Q 819 1031 1053 711 
Q 1288 391 1734 391 
Q 2034 391 2253 611 
Q 2472 831 2534 1184 
L 3078 1184 
Q 2994 563 2639 233 
Q 2284 -97 1722 -97 
Q 1063 -97 641 354 
Q 219 806 219 1581 
Q 219 2431 641 2937 
Q 1063 3444 1825 3444 
Q 2381 3444 2711 3111 
Q 3041 2778 3078 2222 
L 2534 2222 
z
" id="HelveticaWorld-Regular-63" transform="scale(0.015625)"/>
      </defs>
      <use xlink:href="#HelveticaWorld-Regular-49"/>
      <use x="25.78125" xlink:href="#HelveticaWorld-Regular-6e"/>
      <use x="80.957031" xlink:href="#HelveticaWorld-Regular-63"/>
      <use x="132.226562" xlink:href="#HelveticaWorld-Regular-6f"/>
      <use x="188.134766" xlink:href="#HelveticaWorld-Regular-6e"/>
      <use x="243.310547" xlink:href="#HelveticaWorld-Regular-67"/>
      <use x="299.21875" xlink:href="#HelveticaWorld-Regular-72"/>
      <use x="331.787109" xlink:href="#HelveticaWorld-Regular-75"/>
      <use x="386.572266" xlink:href="#HelveticaWorld-Regular-65"/>
      <use x="441.992188" xlink:href="#HelveticaWorld-Regular-6e"/>
      <use x="497.167969" xlink:href="#HelveticaWorld-Regular-74"/>
     </g>
    </g>
   </g>
  </g>
  <g id="axes_2">
   <g id="patch_5">
    <path d="M 128.675 544.2 
L 439.801905 544.2 
L 439.801905 10.8 
L 128.675 10.8 
z
" style="fill:#ffffff;"/>
   </g>
   <g id="matplotlib.axis_3">
    <g id="xtick_9">
     <g id="text_18">
      <!-- Left -->
      <g style="fill:#262626;" transform="translate(202.677736 577.04125)scale(0.36 -0.36)">
       <defs>
        <path d="M 1131 550 
L 3469 550 
L 3469 0 
L 519 0 
L 519 4594 
L 1131 4594 
L 1131 550 
z
" id="HelveticaWorld-Regular-4c" transform="scale(0.015625)"/>
       </defs>
       <use xlink:href="#HelveticaWorld-Regular-4c"/>
       <use x="53.865234" xlink:href="#HelveticaWorld-Regular-65"/>
       <use x="108.285156" xlink:href="#HelveticaWorld-Regular-66"/>
       <use x="135.970703" xlink:href="#HelveticaWorld-Regular-74"/>
      </g>
     </g>
    </g>
    <g id="xtick_10">
     <g id="text_19">
      <!-- Right -->
      <g style="fill:#262626;" transform="translate(294.550106 577.04125)scale(0.36 -0.36)">
       <defs>
        <path d="M 1141 2503 
L 2578 2503 
Q 3078 2503 3295 2708 
Q 3513 2913 3513 3297 
Q 3513 3647 3325 3855 
Q 3138 4063 2681 4063 
L 1141 4063 
L 1141 2503 
z
M 1141 0 
L 519 0 
L 519 4594 
L 2644 4594 
Q 3384 4594 3765 4278 
Q 4147 3963 4147 3359 
Q 4147 2963 3994 2697 
Q 3841 2431 3513 2259 
Q 3794 2156 3919 1970 
Q 4044 1784 4063 1394 
L 4103 538 
Q 4109 325 4170 239 
Q 4231 153 4341 103 
L 4341 0 
L 3572 0 
Q 3513 172 3488 522 
Q 3463 872 3463 1153 
Q 3463 1294 3438 1441 
Q 3413 1588 3328 1706 
Q 3244 1825 3081 1898 
Q 2919 1972 2644 1972 
L 1141 1972 
L 1141 0 
z
" id="HelveticaWorld-Regular-52" transform="scale(0.015625)"/>
        <path d="M 3150 0 
L 2584 0 
L 2584 2188 
Q 2584 2591 2428 2764 
Q 2272 2938 1919 2938 
Q 1484 2938 1234 2656 
Q 984 2375 984 1825 
L 984 0 
L 422 0 
L 422 4594 
L 984 4594 
L 984 2900 
L 997 2900 
Q 1381 3444 1978 3444 
Q 2528 3444 2839 3156 
Q 3150 2869 3150 2278 
L 3150 0 
z
" id="HelveticaWorld-Regular-68" transform="scale(0.015625)"/>
       </defs>
       <use xlink:href="#HelveticaWorld-Regular-52"/>
       <use x="71.386719" xlink:href="#HelveticaWorld-Regular-69"/>
       <use x="93.408203" xlink:href="#HelveticaWorld-Regular-67"/>
       <use x="149.316406" xlink:href="#HelveticaWorld-Regular-68"/>
       <use x="204.492188" xlink:href="#HelveticaWorld-Regular-74"/>
      </g>
     </g>
    </g>
    <g id="text_20">
     <!-- Hemisphere -->
     <g style="fill:#262626;" transform="translate(187.482827 626.808125)scale(0.36 -0.36)">
      <defs>
       <path d="M 4153 0 
L 3531 0 
L 3531 2144 
L 1131 2144 
L 1131 0 
L 519 0 
L 519 4594 
L 1131 4594 
L 1131 2694 
L 3531 2694 
L 3531 4594 
L 4153 4594 
L 4153 0 
z
" id="HelveticaWorld-Regular-48" transform="scale(0.015625)"/>
       <path d="M 959 1516 
Q 959 978 1221 684 
Q 1484 391 1875 391 
Q 2303 391 2540 739 
Q 2778 1088 2778 1684 
Q 2778 2338 2550 2638 
Q 2322 2938 1863 2938 
Q 1416 2938 1187 2586 
Q 959 2234 959 1516 
z
M 422 3347 
L 953 3347 
L 953 2875 
L 966 2875 
Q 1325 3444 1966 3444 
Q 2613 3444 2986 2973 
Q 3359 2503 3359 1772 
Q 3359 953 2978 428 
Q 2597 -97 1888 -97 
Q 1306 -97 997 353 
L 984 353 
L 984 -1325 
L 422 -1325 
L 422 3347 
z
" id="HelveticaWorld-Regular-70" transform="scale(0.015625)"/>
      </defs>
      <use xlink:href="#HelveticaWorld-Regular-48"/>
      <use x="72.998047" xlink:href="#HelveticaWorld-Regular-65"/>
      <use x="128.417969" xlink:href="#HelveticaWorld-Regular-6d"/>
      <use x="211.425781" xlink:href="#HelveticaWorld-Regular-69"/>
      <use x="233.447266" xlink:href="#HelveticaWorld-Regular-73"/>
      <use x="283.447266" xlink:href="#HelveticaWorld-Regular-70"/>
      <use x="339.941406" xlink:href="#HelveticaWorld-Regular-68"/>
      <use x="395.117188" xlink:href="#HelveticaWorld-Regular-65"/>
      <use x="450.537109" xlink:href="#HelveticaWorld-Regular-72"/>
      <use x="482.105469" xlink:href="#HelveticaWorld-Regular-65"/>
     </g>
    </g>
   </g>
   <g id="matplotlib.axis_4">
    <g id="ytick_6">
     <g id="text_21">
      <!-- 0.6 -->
      <g style="fill:#262626;" transform="translate(50.54125 519.020625)scale(0.36 -0.36)">
       <defs>
        <path d="M 3494 1381 
L 256 1381 
L 256 1850 
L 3494 1850 
L 3494 1381 
z
" id="HelveticaWorld-Regular-2212" transform="scale(0.015625)"/>
       </defs>
       <use xlink:href="#HelveticaWorld-Regular-2212"/>
       <use x="58.59375" xlink:href="#HelveticaWorld-Regular-30"/>
       <use x="114.208984" xlink:href="#HelveticaWorld-Regular-2e"/>
       <use x="141.992188" xlink:href="#HelveticaWorld-Regular-36"/>
      </g>
     </g>
    </g>
    <g id="ytick_7">
     <g id="text_22">
      <!-- 0.4 -->
      <g style="fill:#262626;" transform="translate(50.54125 442.820625)scale(0.36 -0.36)">
       <use xlink:href="#HelveticaWorld-Regular-2212"/>
       <use x="58.59375" xlink:href="#HelveticaWorld-Regular-30"/>
       <use x="114.208984" xlink:href="#HelveticaWorld-Regular-2e"/>
       <use x="141.992188" xlink:href="#HelveticaWorld-Regular-34"/>
      </g>
     </g>
    </g>
    <g id="ytick_8">
     <g id="text_23">
      <!-- 0.2 -->
      <g style="fill:#262626;" transform="translate(50.54125 366.620625)scale(0.36 -0.36)">
       <use xlink:href="#HelveticaWorld-Regular-2212"/>
       <use x="58.59375" xlink:href="#HelveticaWorld-Regular-30"/>
       <use x="114.208984" xlink:href="#HelveticaWorld-Regular-2e"/>
       <use x="141.992188" xlink:href="#HelveticaWorld-Regular-32"/>
      </g>
     </g>
    </g>
    <g id="ytick_9">
     <g id="text_24">
      <!-- 0.0 -->
      <g style="fill:#262626;" transform="translate(71.635 290.420625)scale(0.36 -0.36)">
       <use xlink:href="#HelveticaWorld-Regular-30"/>
       <use x="55.615234" xlink:href="#HelveticaWorld-Regular-2e"/>
       <use x="83.398438" xlink:href="#HelveticaWorld-Regular-30"/>
      </g>
     </g>
    </g>
    <g id="ytick_10">
     <g id="text_25">
      <!-- 0.2 -->
      <g style="fill:#262626;" transform="translate(71.635 214.220625)scale(0.36 -0.36)">
       <use xlink:href="#HelveticaWorld-Regular-30"/>
       <use x="55.615234" xlink:href="#HelveticaWorld-Regular-2e"/>
       <use x="83.398438" xlink:href="#HelveticaWorld-Regular-32"/>
      </g>
     </g>
    </g>
    <g id="ytick_11">
     <g id="text_26">
      <!-- 0.4 -->
      <g style="fill:#262626;" transform="translate(71.635 138.020625)scale(0.36 -0.36)">
       <use xlink:href="#HelveticaWorld-Regular-30"/>
       <use x="55.615234" xlink:href="#HelveticaWorld-Regular-2e"/>
       <use x="83.398438" xlink:href="#HelveticaWorld-Regular-34"/>
      </g>
     </g>
    </g>
    <g id="ytick_12">
     <g id="text_27">
      <!-- 0.6 -->
      <g style="fill:#262626;" transform="translate(71.635 61.820625)scale(0.36 -0.36)">
       <use xlink:href="#HelveticaWorld-Regular-30"/>
       <use x="55.615234" xlink:href="#HelveticaWorld-Regular-2e"/>
       <use x="83.398438" xlink:href="#HelveticaWorld-Regular-36"/>
      </g>
     </g>
    </g>
    <g id="text_28">
     <!--  Classifier Information (a.u.) -->
     <g style="fill:#262626;" transform="translate(39.088125 506.814375)rotate(-90)scale(0.36 -0.36)">
      <defs>
       <path d="M 941 550 
L 3244 550 
L 2125 3891 
L 2113 3891 
L 941 550 
z
M 97 0 
L 1831 4594 
L 2456 4594 
L 4128 0 
L 97 0 
z
" id="HelveticaWorld-Regular-394" transform="scale(0.015625)"/>
      </defs>
      <use xlink:href="#HelveticaWorld-Regular-394"/>
      <use x="66.015625" xlink:href="#HelveticaWorld-Regular-20"/>
      <use x="90.429688" xlink:href="#HelveticaWorld-Regular-43"/>
      <use x="162.744141" xlink:href="#HelveticaWorld-Regular-6c"/>
      <use x="184.765625" xlink:href="#HelveticaWorld-Regular-61"/>
      <use x="239.697266" xlink:href="#HelveticaWorld-Regular-73"/>
      <use x="289.697266" xlink:href="#HelveticaWorld-Regular-73"/>
      <use x="339.697266" xlink:href="#HelveticaWorld-Regular-69"/>
      <use x="361.71875" xlink:href="#HelveticaWorld-Regular-66"/>
      <use x="389.404297" xlink:href="#HelveticaWorld-Regular-69"/>
      <use x="411.425781" xlink:href="#HelveticaWorld-Regular-65"/>
      <use x="466.845703" xlink:href="#HelveticaWorld-Regular-72"/>
      <use x="499.414062" xlink:href="#HelveticaWorld-Regular-20"/>
      <use x="523.828125" xlink:href="#HelveticaWorld-Regular-49"/>
      <use x="549.609375" xlink:href="#HelveticaWorld-Regular-6e"/>
      <use x="604.785156" xlink:href="#HelveticaWorld-Regular-66"/>
      <use x="630.470703" xlink:href="#HelveticaWorld-Regular-6f"/>
      <use x="686.378906" xlink:href="#HelveticaWorld-Regular-72"/>
      <use x="718.947266" xlink:href="#HelveticaWorld-Regular-6d"/>
      <use x="801.955078" xlink:href="#HelveticaWorld-Regular-61"/>
      <use x="856.886719" xlink:href="#HelveticaWorld-Regular-74"/>
      <use x="884.572266" xlink:href="#HelveticaWorld-Regular-69"/>
      <use x="906.59375" xlink:href="#HelveticaWorld-Regular-6f"/>
      <use x="962.501953" xlink:href="#HelveticaWorld-Regular-6e"/>
      <use x="1017.677734" xlink:href="#HelveticaWorld-Regular-20"/>
      <use x="1042.091797" xlink:href="#HelveticaWorld-Regular-28"/>
      <use x="1075.392578" xlink:href="#HelveticaWorld-Regular-61"/>
      <use x="1130.324219" xlink:href="#HelveticaWorld-Regular-2e"/>
      <use x="1158.107422" xlink:href="#HelveticaWorld-Regular-75"/>
      <use x="1212.892578" xlink:href="#HelveticaWorld-Regular-2e"/>
      <use x="1240.675781" xlink:href="#HelveticaWorld-Regular-29"/>
     </g>
    </g>
   </g>
   <g id="PolyCollection_3">
    <defs>
     <path d="M 254.465543 -147.871489 
L 253.520547 -147.871489 
L 253.165424 -152.380458 
L 252.71965 -156.889428 
L 252.176344 -161.398398 
L 251.533612 -165.907367 
L 250.79587 -170.416337 
L 249.974671 -174.925307 
L 249.088809 -179.434276 
L 248.163594 -183.943246 
L 247.229317 -188.452215 
L 246.319049 -192.961185 
L 245.466051 -197.470155 
L 244.701067 -201.979124 
L 244.049801 -206.488094 
L 243.530766 -210.997064 
L 243.15361 -215.506033 
L 242.91791 -220.015003 
L 242.812434 -224.523973 
L 242.814837 -229.032942 
L 242.891877 -233.541912 
L 243.000239 -238.050881 
L 243.08816 -242.559851 
L 243.097932 -247.068821 
L 242.969284 -251.57779 
L 242.643441 -256.08676 
L 242.067472 -260.59573 
L 241.198405 -265.104699 
L 240.006521 -269.613669 
L 238.477313 -274.122638 
L 236.611755 -278.631608 
L 234.424755 -283.140578 
L 231.941917 -287.649547 
L 229.194997 -292.158517 
L 226.216597 -296.667487 
L 223.034775 -301.176456 
L 219.668339 -305.685426 
L 216.123502 -310.194396 
L 212.392557 -314.703365 
L 208.455004 -319.212335 
L 204.281324 -323.721304 
L 199.839274 -328.230274 
L 195.10224 -332.739244 
L 190.058813 -337.248213 
L 184.722512 -341.757183 
L 179.140367 -346.266153 
L 173.39905 -350.775122 
L 167.627337 -355.284092 
L 161.99398 -359.793061 
L 156.700459 -364.302031 
L 151.968687 -368.811001 
L 148.024378 -373.31997 
L 145.077531 -377.82894 
L 143.30207 -382.33791 
L 142.817132 -386.846879 
L 143.672556 -391.355849 
L 145.840797 -395.864818 
L 149.216705 -400.373788 
L 153.625522 -404.882758 
L 158.838242 -409.391727 
L 164.592329 -413.900697 
L 170.615094 -418.409667 
L 176.646702 -422.918636 
L 182.460086 -427.427606 
L 187.875706 -431.936576 
L 192.770047 -436.445545 
L 197.077716 -440.954515 
L 200.787822 -445.463484 
L 203.93591 -449.972454 
L 206.59297 -454.481424 
L 208.853065 -458.990393 
L 210.820977 -463.499363 
L 212.60098 -468.008333 
L 214.287554 -472.517302 
L 215.958556 -477.026272 
L 217.671066 -481.535241 
L 219.459886 -486.044211 
L 221.338432 -490.553181 
L 223.301618 -495.06215 
L 225.33015 -499.57112 
L 227.395624 -504.08009 
L 229.465764 -508.589059 
L 231.509163 -513.098029 
L 233.499017 -517.606999 
L 235.415471 -522.115968 
L 237.246405 -526.624938 
L 238.986765 -531.133907 
L 240.636734 -535.642877 
L 242.199268 -540.151847 
L 243.677552 -544.660816 
L 245.072951 -549.169786 
L 246.383831 -553.678756 
L 247.60542 -558.187725 
L 248.730624 -562.696695 
L 249.751515 -567.205664 
L 250.661081 -571.714634 
L 251.454819 -576.223604 
L 252.131868 -580.732573 
L 252.69548 -585.241543 
L 253.152831 -589.750513 
L 253.514295 -594.259482 
L 254.465543 -594.259482 
L 254.465543 -594.259482 
L 254.465543 -589.750513 
L 254.465543 -585.241543 
L 254.465543 -580.732573 
L 254.465543 -576.223604 
L 254.465543 -571.714634 
L 254.465543 -567.205664 
L 254.465543 -562.696695 
L 254.465543 -558.187725 
L 254.465543 -553.678756 
L 254.465543 -549.169786 
L 254.465543 -544.660816 
L 254.465543 -540.151847 
L 254.465543 -535.642877 
L 254.465543 -531.133907 
L 254.465543 -526.624938 
L 254.465543 -522.115968 
L 254.465543 -517.606999 
L 254.465543 -513.098029 
L 254.465543 -508.589059 
L 254.465543 -504.08009 
L 254.465543 -499.57112 
L 254.465543 -495.06215 
L 254.465543 -490.553181 
L 254.465543 -486.044211 
L 254.465543 -481.535241 
L 254.465543 -477.026272 
L 254.465543 -472.517302 
L 254.465543 -468.008333 
L 254.465543 -463.499363 
L 254.465543 -458.990393 
L 254.465543 -454.481424 
L 254.465543 -449.972454 
L 254.465543 -445.463484 
L 254.465543 -440.954515 
L 254.465543 -436.445545 
L 254.465543 -431.936576 
L 254.465543 -427.427606 
L 254.465543 -422.918636 
L 254.465543 -418.409667 
L 254.465543 -413.900697 
L 254.465543 -409.391727 
L 254.465543 -404.882758 
L 254.465543 -400.373788 
L 254.465543 -395.864818 
L 254.465543 -391.355849 
L 254.465543 -386.846879 
L 254.465543 -382.33791 
L 254.465543 -377.82894 
L 254.465543 -373.31997 
L 254.465543 -368.811001 
L 254.465543 -364.302031 
L 254.465543 -359.793061 
L 254.465543 -355.284092 
L 254.465543 -350.775122 
L 254.465543 -346.266153 
L 254.465543 -341.757183 
L 254.465543 -337.248213 
L 254.465543 -332.739244 
L 254.465543 -328.230274 
L 254.465543 -323.721304 
L 254.465543 -319.212335 
L 254.465543 -314.703365 
L 254.465543 -310.194396 
L 254.465543 -305.685426 
L 254.465543 -301.176456 
L 254.465543 -296.667487 
L 254.465543 -292.158517 
L 254.465543 -287.649547 
L 254.465543 -283.140578 
L 254.465543 -278.631608 
L 254.465543 -274.122638 
L 254.465543 -269.613669 
L 254.465543 -265.104699 
L 254.465543 -260.59573 
L 254.465543 -256.08676 
L 254.465543 -251.57779 
L 254.465543 -247.068821 
L 254.465543 -242.559851 
L 254.465543 -238.050881 
L 254.465543 -233.541912 
L 254.465543 -229.032942 
L 254.465543 -224.523973 
L 254.465543 -220.015003 
L 254.465543 -215.506033 
L 254.465543 -210.997064 
L 254.465543 -206.488094 
L 254.465543 -201.979124 
L 254.465543 -197.470155 
L 254.465543 -192.961185 
L 254.465543 -188.452215 
L 254.465543 -183.943246 
L 254.465543 -179.434276 
L 254.465543 -174.925307 
L 254.465543 -170.416337 
L 254.465543 -165.907367 
L 254.465543 -161.398398 
L 254.465543 -156.889428 
L 254.465543 -152.380458 
L 254.465543 -147.871489 
z
" id="m153ed4d6c0" style="stroke:#7a7a7a;stroke-width:1.5;"/>
    </defs>
    <g clip-path="url(#p5269f80c62)">
     <use style="fill:#cccccc;stroke:#7a7a7a;stroke-width:1.5;" x="0" xlink:href="#m153ed4d6c0" y="648"/>
    </g>
   </g>
   <g id="PolyCollection_4">
    <defs>
     <path d="M 254.465543 -364.302031 
L 156.700459 -364.302031 
L 151.968687 -368.811001 
L 151.968687 -368.811001 
L 148.024378 -373.31997 
L 145.077531 -377.82894 
L 143.30207 -382.33791 
L 142.817132 -386.846879 
L 143.672556 -391.355849 
L 143.672556 -391.355849 
L 145.840797 -395.864818 
L 149.216705 -400.373788 
L 153.625522 -404.882758 
L 158.838242 -409.391727 
L 254.465543 -409.391727 
L 254.465543 -409.391727 
L 254.465543 -404.882758 
L 254.465543 -400.373788 
L 254.465543 -395.864818 
L 254.465543 -391.355849 
L 254.465543 -391.355849 
L 254.465543 -386.846879 
L 254.465543 -382.33791 
L 254.465543 -377.82894 
L 254.465543 -373.31997 
L 254.465543 -368.811001 
L 254.465543 -368.811001 
L 254.465543 -364.302031 
z
" id="m9ac52e25db" style="stroke:#666666;stroke-width:1.5;"/>
    </defs>
    <g clip-path="url(#p5269f80c62)">
     <use style="fill:#8f8f8f;stroke:#666666;stroke-width:1.5;" x="0" xlink:href="#m9ac52e25db" y="648"/>
    </g>
   </g>
   <g id="PolyCollection_5">
    <defs>
     <path d="M 314.011362 -226.979646 
L 316.04407 -226.979646 
L 316.808906 -230.832963 
L 317.783911 -234.686279 
L 318.997014 -238.539595 
L 320.469804 -242.392911 
L 322.214183 -246.246227 
L 324.229391 -250.099543 
L 326.499945 -253.95286 
L 328.995085 -257.806176 
L 331.670144 -261.659492 
L 334.470087 -265.512808 
L 337.335092 -269.366124 
L 340.207682 -273.21944 
L 343.040569 -277.072757 
L 345.804068 -280.926073 
L 348.49186 -284.779389 
L 351.123984 -288.632705 
L 353.746248 -292.486021 
L 356.425747 -296.339337 
L 359.242769 -300.192654 
L 362.279956 -304.04597 
L 365.610074 -307.899286 
L 369.284054 -311.752602 
L 373.320997 -315.605918 
L 377.701659 -319.459234 
L 382.366524 -323.312551 
L 387.218959 -327.165867 
L 392.133291 -331.019183 
L 396.966948 -334.872499 
L 401.575201 -338.725815 
L 405.826607 -342.579132 
L 409.617041 -346.432448 
L 412.880301 -350.285764 
L 415.593703 -354.13908 
L 417.777746 -357.992396 
L 419.489878 -361.845712 
L 420.813323 -365.699029 
L 421.84279 -369.552345 
L 422.66944 -373.405661 
L 423.367611 -377.258977 
L 423.98546 -381.112293 
L 424.540939 -384.965609 
L 425.02346 -388.818926 
L 425.400533 -392.672242 
L 425.627728 -396.525558 
L 425.659773 -400.378874 
L 425.460464 -404.23219 
L 425.009515 -408.085506 
L 424.305167 -411.938823 
L 423.362381 -415.792139 
L 422.207337 -419.645455 
L 420.869703 -423.498771 
L 419.374489 -427.352087 
L 417.735289 -431.205403 
L 415.95028 -435.05872 
L 414.001722 -438.912036 
L 411.858924 -442.765352 
L 409.483962 -446.618668 
L 406.838936 -450.471984 
L 403.893349 -454.3253 
L 400.630278 -458.178617 
L 397.05035 -462.031933 
L 393.17303 -465.885249 
L 389.035276 -469.738565 
L 384.688088 -473.591881 
L 380.191784 -477.445197 
L 375.610977 -481.298514 
L 371.01009 -485.15183 
L 366.450054 -489.005146 
L 361.986426 -492.858462 
L 357.668841 -496.711778 
L 353.541408 -500.565095 
L 349.643461 -504.418411 
L 346.010115 -508.271727 
L 342.672126 -512.125043 
L 339.654871 -515.978359 
L 336.976496 -519.831675 
L 334.645601 -523.684992 
L 332.658987 -527.538308 
L 331.000089 -531.391624 
L 329.638637 -535.24494 
L 328.531877 -539.098256 
L 327.627416 -542.951572 
L 326.867426 -546.804889 
L 326.193682 -550.658205 
L 325.552752 -554.511521 
L 324.90058 -558.364837 
L 324.205844 -562.218153 
L 323.451663 -566.071469 
L 322.635488 -569.924786 
L 321.767356 -573.778102 
L 320.866854 -577.631418 
L 319.959372 -581.484734 
L 319.072212 -585.33805 
L 318.231089 -589.191366 
L 317.457431 -593.044683 
L 316.766679 -596.897999 
L 316.167621 -600.751315 
L 315.662635 -604.604631 
L 315.248609 -608.457947 
L 314.011362 -608.457947 
L 314.011362 -608.457947 
L 314.011362 -604.604631 
L 314.011362 -600.751315 
L 314.011362 -596.897999 
L 314.011362 -593.044683 
L 314.011362 -589.191366 
L 314.011362 -585.33805 
L 314.011362 -581.484734 
L 314.011362 -577.631418 
L 314.011362 -573.778102 
L 314.011362 -569.924786 
L 314.011362 -566.071469 
L 314.011362 -562.218153 
L 314.011362 -558.364837 
L 314.011362 -554.511521 
L 314.011362 -550.658205 
L 314.011362 -546.804889 
L 314.011362 -542.951572 
L 314.011362 -539.098256 
L 314.011362 -535.24494 
L 314.011362 -531.391624 
L 314.011362 -527.538308 
L 314.011362 -523.684992 
L 314.011362 -519.831675 
L 314.011362 -515.978359 
L 314.011362 -512.125043 
L 314.011362 -508.271727 
L 314.011362 -504.418411 
L 314.011362 -500.565095 
L 314.011362 -496.711778 
L 314.011362 -492.858462 
L 314.011362 -489.005146 
L 314.011362 -485.15183 
L 314.011362 -481.298514 
L 314.011362 -477.445197 
L 314.011362 -473.591881 
L 314.011362 -469.738565 
L 314.011362 -465.885249 
L 314.011362 -462.031933 
L 314.011362 -458.178617 
L 314.011362 -454.3253 
L 314.011362 -450.471984 
L 314.011362 -446.618668 
L 314.011362 -442.765352 
L 314.011362 -438.912036 
L 314.011362 -435.05872 
L 314.011362 -431.205403 
L 314.011362 -427.352087 
L 314.011362 -423.498771 
L 314.011362 -419.645455 
L 314.011362 -415.792139 
L 314.011362 -411.938823 
L 314.011362 -408.085506 
L 314.011362 -404.23219 
L 314.011362 -400.378874 
L 314.011362 -396.525558 
L 314.011362 -392.672242 
L 314.011362 -388.818926 
L 314.011362 -384.965609 
L 314.011362 -381.112293 
L 314.011362 -377.258977 
L 314.011362 -373.405661 
L 314.011362 -369.552345 
L 314.011362 -365.699029 
L 314.011362 -361.845712 
L 314.011362 -357.992396 
L 314.011362 -354.13908 
L 314.011362 -350.285764 
L 314.011362 -346.432448 
L 314.011362 -342.579132 
L 314.011362 -338.725815 
L 314.011362 -334.872499 
L 314.011362 -331.019183 
L 314.011362 -327.165867 
L 314.011362 -323.312551 
L 314.011362 -319.459234 
L 314.011362 -315.605918 
L 314.011362 -311.752602 
L 314.011362 -307.899286 
L 314.011362 -304.04597 
L 314.011362 -300.192654 
L 314.011362 -296.339337 
L 314.011362 -292.486021 
L 314.011362 -288.632705 
L 314.011362 -284.779389 
L 314.011362 -280.926073 
L 314.011362 -277.072757 
L 314.011362 -273.21944 
L 314.011362 -269.366124 
L 314.011362 -265.512808 
L 314.011362 -261.659492 
L 314.011362 -257.806176 
L 314.011362 -253.95286 
L 314.011362 -250.099543 
L 314.011362 -246.246227 
L 314.011362 -242.392911 
L 314.011362 -238.539595 
L 314.011362 -234.686279 
L 314.011362 -230.832963 
L 314.011362 -226.979646 
z
" id="ma8fd506ea9" style="stroke:#7a7a7a;stroke-width:1.5;"/>
    </defs>
    <g clip-path="url(#p5269f80c62)">
     <use style="fill:#cccccc;stroke:#7a7a7a;stroke-width:1.5;" x="0" xlink:href="#ma8fd506ea9" y="648"/>
    </g>
   </g>
   <g id="PolyCollection_6">
    <defs>
     <path d="M 314.011362 -378.12 
L 423.367611 -378.12 
L 423.98546 -381.112293 
L 424.540939 -384.965609 
L 425.02346 -388.818926 
L 425.400533 -392.672242 
L 425.627728 -396.525558 
L 425.659773 -400.378874 
L 425.460464 -404.23219 
L 425.009515 -408.085506 
L 424.305167 -411.938823 
L 423.362381 -415.792139 
L 422.207337 -419.645455 
L 314.011362 -419.645455 
L 314.011362 -419.645455 
L 314.011362 -415.792139 
L 314.011362 -411.938823 
L 314.011362 -408.085506 
L 314.011362 -404.23219 
L 314.011362 -400.378874 
L 314.011362 -396.525558 
L 314.011362 -392.672242 
L 314.011362 -388.818926 
L 314.011362 -384.965609 
L 314.011362 -381.112293 
L 314.011362 -378.12 
z
" id="m515d2371c3" style="stroke:#666666;stroke-width:1.5;"/>
    </defs>
    <g clip-path="url(#p5269f80c62)">
     <use style="fill:#8f8f8f;stroke:#666666;stroke-width:1.5;" x="0" xlink:href="#m515d2371c3" y="648"/>
    </g>
   </g>
   <g id="PathCollection_17">
    <defs>
     <path d="M 0 3 
C 0.795609 3 1.55874 2.683901 2.12132 2.12132 
C 2.683901 1.55874 3 0.795609 3 0 
C 3 -0.795609 2.683901 -1.55874 2.12132 -2.12132 
C 1.55874 -2.683901 0.795609 -3 0 -3 
C -0.795609 -3 -1.55874 -2.683901 -2.12132 -2.12132 
C -2.683901 -1.55874 -3 -0.795609 -3 0 
C -3 0.795609 -2.683901 1.55874 -2.12132 2.12132 
C -1.55874 2.683901 -0.795609 3 0 3 
z
" id="me4b79386a9" style="stroke:#000000;stroke-opacity:0.3;"/>
    </defs>
    <g clip-path="url(#p5269f80c62)">
     <use style="fill-opacity:0.3;stroke:#000000;stroke-opacity:0.3;" x="253.163658" xlink:href="#me4b79386a9" y="144.913683"/>
     <use style="fill-opacity:0.3;stroke:#000000;stroke-opacity:0.3;" x="251.493407" xlink:href="#me4b79386a9" y="174.659553"/>
     <use style="fill-opacity:0.3;stroke:#000000;stroke-opacity:0.3;" x="243.339513" xlink:href="#me4b79386a9" y="203.449017"/>
     <use style="fill-opacity:0.3;stroke:#000000;stroke-opacity:0.3;" x="195.684308" xlink:href="#me4b79386a9" y="231.700733"/>
     <use style="fill-opacity:0.3;stroke:#000000;stroke-opacity:0.3;" x="167.756904" xlink:href="#me4b79386a9" y="277.093797"/>
     <use style="fill-opacity:0.3;stroke:#000000;stroke-opacity:0.3;" x="226.574902" xlink:href="#me4b79386a9" y="177.477336"/>
     <use style="fill-opacity:0.3;stroke:#000000;stroke-opacity:0.3;" x="163.324483" xlink:href="#me4b79386a9" y="243.776926"/>
     <use style="fill-opacity:0.3;stroke:#000000;stroke-opacity:0.3;" x="239.6231" xlink:href="#me4b79386a9" y="269.860175"/>
     <use style="fill-opacity:0.3;stroke:#000000;stroke-opacity:0.3;" x="177.822201" xlink:href="#me4b79386a9" y="279.041075"/>
     <use style="fill-opacity:0.3;stroke:#000000;stroke-opacity:0.3;" x="217.033179" xlink:href="#me4b79386a9" y="339.905758"/>
     <use style="fill-opacity:0.3;stroke:#000000;stroke-opacity:0.3;" x="203.796294" xlink:href="#me4b79386a9" y="262.35538"/>
     <use style="fill-opacity:0.3;stroke:#000000;stroke-opacity:0.3;" x="179.286744" xlink:href="#me4b79386a9" y="291.636548"/>
     <use style="fill-opacity:0.3;stroke:#000000;stroke-opacity:0.3;" x="240.553598" xlink:href="#me4b79386a9" y="151.91544"/>
     <use style="fill-opacity:0.3;stroke:#000000;stroke-opacity:0.3;" x="212.012636" xlink:href="#me4b79386a9" y="258.491074"/>
     <use style="fill-opacity:0.3;stroke:#000000;stroke-opacity:0.3;" x="242.571695" xlink:href="#me4b79386a9" y="289.074994"/>
     <use style="fill-opacity:0.3;stroke:#000000;stroke-opacity:0.3;" x="242.787317" xlink:href="#me4b79386a9" y="358.22926"/>
     <use style="fill-opacity:0.3;stroke:#000000;stroke-opacity:0.3;" x="213.916918" xlink:href="#me4b79386a9" y="253.463135"/>
     <use style="fill-opacity:0.3;stroke:#000000;stroke-opacity:0.3;" x="253.779627" xlink:href="#me4b79386a9" y="444.266594"/>
     <use style="fill-opacity:0.3;stroke:#000000;stroke-opacity:0.3;" x="173.468471" xlink:href="#me4b79386a9" y="244.670212"/>
     <use style="fill-opacity:0.3;stroke:#000000;stroke-opacity:0.3;" x="225.358627" xlink:href="#me4b79386a9" y="213.404275"/>
     <use style="fill-opacity:0.3;stroke:#000000;stroke-opacity:0.3;" x="249.408969" xlink:href="#me4b79386a9" y="314.488479"/>
     <use style="fill-opacity:0.3;stroke:#000000;stroke-opacity:0.3;" x="217.451668" xlink:href="#me4b79386a9" y="321.951119"/>
     <use style="fill-opacity:0.3;stroke:#000000;stroke-opacity:0.3;" x="236.470452" xlink:href="#me4b79386a9" y="263.413225"/>
     <use style="fill-opacity:0.3;stroke:#000000;stroke-opacity:0.3;" x="249.931255" xlink:href="#me4b79386a9" y="109.602435"/>
     <use style="fill-opacity:0.3;stroke:#000000;stroke-opacity:0.3;" x="219.329696" xlink:href="#me4b79386a9" y="252.80159"/>
     <use style="fill-opacity:0.3;stroke:#000000;stroke-opacity:0.3;" x="218.688477" xlink:href="#me4b79386a9" y="328.133186"/>
     <use style="fill-opacity:0.3;stroke:#000000;stroke-opacity:0.3;" x="229.766921" xlink:href="#me4b79386a9" y="181.849476"/>
     <use style="fill-opacity:0.3;stroke:#000000;stroke-opacity:0.3;" x="228.910234" xlink:href="#me4b79386a9" y="296.613424"/>
     <use style="fill-opacity:0.3;stroke:#000000;stroke-opacity:0.3;" x="165.956005" xlink:href="#me4b79386a9" y="263.293412"/>
     <use style="fill-opacity:0.3;stroke:#000000;stroke-opacity:0.3;" x="243.927856" xlink:href="#me4b79386a9" y="411.015443"/>
     <use style="fill-opacity:0.3;stroke:#000000;stroke-opacity:0.3;" x="208.509826" xlink:href="#me4b79386a9" y="217.426969"/>
     <use style="fill-opacity:0.3;stroke:#000000;stroke-opacity:0.3;" x="193.523154" xlink:href="#me4b79386a9" y="241.957788"/>
     <use style="fill-opacity:0.3;stroke:#000000;stroke-opacity:0.3;" x="237.37424" xlink:href="#me4b79386a9" y="289.382468"/>
     <use style="fill-opacity:0.3;stroke:#000000;stroke-opacity:0.3;" x="249.646269" xlink:href="#me4b79386a9" y="252.507069"/>
     <use style="fill-opacity:0.3;stroke:#000000;stroke-opacity:0.3;" x="214.518213" xlink:href="#me4b79386a9" y="257.947798"/>
    </g>
   </g>
   <g id="PathCollection_18">
    <g clip-path="url(#p5269f80c62)">
     <use style="fill-opacity:0.3;stroke:#000000;stroke-opacity:0.3;" x="322.603915" xlink:href="#me4b79386a9" y="91.175126"/>
     <use style="fill-opacity:0.3;stroke:#000000;stroke-opacity:0.3;" x="327.30579" xlink:href="#me4b79386a9" y="298.088131"/>
     <use style="fill-opacity:0.3;stroke:#000000;stroke-opacity:0.3;" x="391.303884" xlink:href="#me4b79386a9" y="223.659205"/>
     <use style="fill-opacity:0.3;stroke:#000000;stroke-opacity:0.3;" x="325.115992" xlink:href="#me4b79386a9" y="286.117528"/>
     <use style="fill-opacity:0.3;stroke:#000000;stroke-opacity:0.3;" x="338.494903" xlink:href="#me4b79386a9" y="369.38728"/>
     <use style="fill-opacity:0.3;stroke:#000000;stroke-opacity:0.3;" x="341.556188" xlink:href="#me4b79386a9" y="174.485148"/>
     <use style="fill-opacity:0.3;stroke:#000000;stroke-opacity:0.3;" x="398.524415" xlink:href="#me4b79386a9" y="210.976805"/>
     <use style="fill-opacity:0.3;stroke:#000000;stroke-opacity:0.3;" x="334.024272" xlink:href="#me4b79386a9" y="259.950605"/>
     <use style="fill-opacity:0.3;stroke:#000000;stroke-opacity:0.3;" x="365.741915" xlink:href="#me4b79386a9" y="205.351415"/>
     <use style="fill-opacity:0.3;stroke:#000000;stroke-opacity:0.3;" x="321.184328" xlink:href="#me4b79386a9" y="356.690364"/>
     <use style="fill-opacity:0.3;stroke:#000000;stroke-opacity:0.3;" x="389.6646" xlink:href="#me4b79386a9" y="215.555125"/>
     <use style="fill-opacity:0.3;stroke:#000000;stroke-opacity:0.3;" x="364.095766" xlink:href="#me4b79386a9" y="313.075883"/>
     <use style="fill-opacity:0.3;stroke:#000000;stroke-opacity:0.3;" x="391.100745" xlink:href="#me4b79386a9" y="245.934176"/>
     <use style="fill-opacity:0.3;stroke:#000000;stroke-opacity:0.3;" x="342.179355" xlink:href="#me4b79386a9" y="170.899523"/>
     <use style="fill-opacity:0.3;stroke:#000000;stroke-opacity:0.3;" x="319.453958" xlink:href="#me4b79386a9" y="321.548846"/>
     <use style="fill-opacity:0.3;stroke:#000000;stroke-opacity:0.3;" x="355.771998" xlink:href="#me4b79386a9" y="242.604567"/>
     <use style="fill-opacity:0.3;stroke:#000000;stroke-opacity:0.3;" x="415.257935" xlink:href="#me4b79386a9" y="287.996401"/>
     <use style="fill-opacity:0.3;stroke:#000000;stroke-opacity:0.3;" x="333.219102" xlink:href="#me4b79386a9" y="321.866865"/>
     <use style="fill-opacity:0.3;stroke:#000000;stroke-opacity:0.3;" x="374.514483" xlink:href="#me4b79386a9" y="194.767376"/>
     <use style="fill-opacity:0.3;stroke:#000000;stroke-opacity:0.3;" x="333.168251" xlink:href="#me4b79386a9" y="238.720755"/>
     <use style="fill-opacity:0.3;stroke:#000000;stroke-opacity:0.3;" x="315.582066" xlink:href="#me4b79386a9" y="291.129787"/>
     <use style="fill-opacity:0.3;stroke:#000000;stroke-opacity:0.3;" x="323.412188" xlink:href="#me4b79386a9" y="261.415431"/>
     <use style="fill-opacity:0.3;stroke:#000000;stroke-opacity:0.3;" x="314.295858" xlink:href="#me4b79386a9" y="141.042067"/>
     <use style="fill-opacity:0.3;stroke:#000000;stroke-opacity:0.3;" x="393.9023" xlink:href="#me4b79386a9" y="196.050523"/>
     <use style="fill-opacity:0.3;stroke:#000000;stroke-opacity:0.3;" x="317.855596" xlink:href="#me4b79386a9" y="238.488648"/>
     <use style="fill-opacity:0.3;stroke:#000000;stroke-opacity:0.3;" x="344.491756" xlink:href="#me4b79386a9" y="185.691977"/>
     <use style="fill-opacity:0.3;stroke:#000000;stroke-opacity:0.3;" x="414.079953" xlink:href="#me4b79386a9" y="237.116234"/>
     <use style="fill-opacity:0.3;stroke:#000000;stroke-opacity:0.3;" x="360.819878" xlink:href="#me4b79386a9" y="194.064281"/>
     <use style="fill-opacity:0.3;stroke:#000000;stroke-opacity:0.3;" x="376.536542" xlink:href="#me4b79386a9" y="298.156527"/>
     <use style="fill-opacity:0.3;stroke:#000000;stroke-opacity:0.3;" x="348.994114" xlink:href="#me4b79386a9" y="355.908456"/>
     <use style="fill-opacity:0.3;stroke:#000000;stroke-opacity:0.3;" x="389.586383" xlink:href="#me4b79386a9" y="259.146207"/>
     <use style="fill-opacity:0.3;stroke:#000000;stroke-opacity:0.3;" x="346.378101" xlink:href="#me4b79386a9" y="153.651456"/>
     <use style="fill-opacity:0.3;stroke:#000000;stroke-opacity:0.3;" x="335.092704" xlink:href="#me4b79386a9" y="296.226116"/>
     <use style="fill-opacity:0.3;stroke:#000000;stroke-opacity:0.3;" x="416.800523" xlink:href="#me4b79386a9" y="255.663327"/>
     <use style="fill-opacity:0.3;stroke:#000000;stroke-opacity:0.3;" x="408.893829" xlink:href="#me4b79386a9" y="290.383776"/>
    </g>
   </g>
   <g id="line2d_9">
    <path clip-path="url(#p5269f80c62)" d="M 284.238452 273.69 
L 284.238452 235.59 
" style="fill:none;stroke:#000000;stroke-linecap:round;stroke-width:3;"/>
   </g>
   <g id="line2d_10">
    <path clip-path="url(#p5269f80c62)" d="M 276.795225 273.69 
L 291.68168 273.69 
" style="fill:none;stroke:#000000;stroke-linecap:round;stroke-width:3;"/>
   </g>
   <g id="line2d_11">
    <path clip-path="url(#p5269f80c62)" d="M 276.795225 235.59 
L 291.68168 235.59 
" style="fill:none;stroke:#000000;stroke-linecap:round;stroke-width:3;"/>
   </g>
   <g id="line2d_12">
    <defs>
     <path d="M 0 7.5 
C 1.989023 7.5 3.896849 6.709753 5.303301 5.303301 
C 6.709753 3.896849 7.5 1.989023 7.5 0 
C 7.5 -1.989023 6.709753 -3.896849 5.303301 -5.303301 
C 3.896849 -6.709753 1.989023 -7.5 0 -7.5 
C -1.989023 -7.5 -3.896849 -6.709753 -5.303301 -5.303301 
C -6.709753 -3.896849 -7.5 -1.989023 -7.5 0 
C -7.5 1.989023 -6.709753 3.896849 -5.303301 5.303301 
C -3.896849 6.709753 -1.989023 7.5 0 7.5 
z
" id="m915a2bce6d" style="stroke:#000000;"/>
    </defs>
    <g clip-path="url(#p5269f80c62)">
     <use style="stroke:#000000;" x="284.238452" xlink:href="#m915a2bce6d" y="254.210783"/>
    </g>
   </g>
   <g id="line2d_13">
    <path clip-path="url(#p5269f80c62)" d="M 128.675 277.5 
L 439.801905 277.5 
" style="fill:none;stroke:#000000;stroke-dasharray:7.4,3.2;stroke-dashoffset:0;stroke-width:2;"/>
   </g>
   <g id="patch_6">
    <path d="M 128.675 544.2 
L 128.675 10.8 
" style="fill:none;stroke:#262626;stroke-linecap:square;stroke-linejoin:miter;stroke-width:2;"/>
   </g>
  </g>
 </g>
 <defs>
  <clipPath id="pd43fb7614c">
   <rect height="339.48" width="1148.480714" x="547.351905" y="107.76"/>
  </clipPath>
  <clipPath id="p5269f80c62">
   <rect height="533.4" width="311.126905" x="128.675" y="10.8"/>
  </clipPath>
 </defs>
</svg>
