<?xml version="1.0" encoding="utf-8" standalone="no"?>
<!DOCTYPE svg PUBLIC "-//W3C//DTD SVG 1.1//EN"
  "http://www.w3.org/Graphics/SVG/1.1/DTD/svg11.dtd">
<svg height="720pt" version="1.1" viewBox="0 0 1440 720" width="1440pt" xmlns="http://www.w3.org/2000/svg" xmlns:xlink="http://www.w3.org/1999/xlink">
 <metadata>
  <rdf:RDF xmlns:cc="http://creativecommons.org/ns#" xmlns:dc="http://purl.org/dc/elements/1.1/" xmlns:rdf="http://www.w3.org/1999/02/22-rdf-syntax-ns#">
   <cc:Work>
    <dc:type rdf:resource="http://purl.org/dc/dcmitype/StillImage"/>
    <dc:date>2024-09-10T09:32:45.161580</dc:date>
    <dc:format>image/svg+xml</dc:format>
    <dc:creator>
     <cc:Agent>
      <dc:title>Matplotlib v3.4.3, https://matplotlib.org/</dc:title>
     </cc:Agent>
    </dc:creator>
   </cc:Work>
  </rdf:RDF>
 </metadata>
 <defs>
  <style type="text/css">*{stroke-linecap:butt;stroke-linejoin:round;}</style>
 </defs>
 <g id="figure_1">
  <g id="patch_1">
   <path d="M 0 720 
L 1440 720 
L 1440 0 
L 0 0 
z
" style="fill:none;"/>
  </g>
  <g id="axes_1">
   <g id="patch_2">
    <path d="M 462.880233 548 
L 1413.820932 548 
L 1413.820932 131 
L 462.880233 131 
z
" style="fill:#ffffff;"/>
   </g>
   <g id="matplotlib.axis_1">
    <g id="xtick_1">
     <g id="text_1">
      <!-- 100 -->
      <g style="fill:#262626;" transform="translate(457.811617 575.09875)scale(0.28 -0.28)">
       <defs>
        <path d="M 2297 0 
L 1697 0 
L 1697 3194 
L 647 3194 
L 647 3641 
Q 1197 3659 1465 3817 
Q 1734 3975 1856 4500 
L 2297 4500 
L 2297 0 
z
" id="HelveticaWorld-Regular-31" transform="scale(0.015625)"/>
        <path d="M 2719 2188 
Q 2719 3091 2480 3542 
Q 2241 3994 1778 3994 
Q 1325 3994 1081 3542 
Q 838 3091 838 2188 
Q 838 1313 1078 848 
Q 1319 384 1778 384 
Q 2241 384 2480 832 
Q 2719 1281 2719 2188 
z
M 3322 2188 
Q 3322 1081 2922 479 
Q 2522 -122 1778 -122 
Q 1006 -122 622 501 
Q 238 1125 238 2188 
Q 238 3278 631 3889 
Q 1025 4500 1778 4500 
Q 2522 4500 2922 3892 
Q 3322 3284 3322 2188 
z
" id="HelveticaWorld-Regular-30" transform="scale(0.015625)"/>
       </defs>
       <use xlink:href="#HelveticaWorld-Regular-31"/>
       <use x="55.615234" xlink:href="#HelveticaWorld-Regular-30"/>
       <use x="111.230469" xlink:href="#HelveticaWorld-Regular-30"/>
      </g>
     </g>
    </g>
    <g id="xtick_2">
     <g id="text_2">
      <!-- 500 -->
      <g style="fill:#262626;" transform="translate(519.802536 575.09875)scale(0.28 -0.28)">
       <defs>
        <path d="M 941 2619 
Q 1313 2900 1813 2900 
Q 2419 2900 2855 2497 
Q 3291 2094 3291 1459 
Q 3291 769 2870 320 
Q 2450 -128 1691 -128 
Q 1031 -128 650 195 
Q 269 519 206 1113 
L 788 1113 
Q 831 750 1072 558 
Q 1313 366 1741 366 
Q 2156 366 2422 653 
Q 2688 941 2688 1388 
Q 2688 1844 2409 2119 
Q 2131 2394 1691 2394 
Q 1191 2394 856 1966 
L 372 1991 
L 709 4397 
L 3041 4397 
L 3041 3853 
L 1131 3853 
L 941 2619 
z
" id="HelveticaWorld-Regular-35" transform="scale(0.015625)"/>
       </defs>
       <use xlink:href="#HelveticaWorld-Regular-35"/>
       <use x="55.615234" xlink:href="#HelveticaWorld-Regular-30"/>
       <use x="111.230469" xlink:href="#HelveticaWorld-Regular-30"/>
      </g>
     </g>
    </g>
    <g id="xtick_3">
     <g id="text_3">
      <!-- 1000 -->
      <g style="fill:#262626;" transform="translate(589.505872 575.09875)scale(0.28 -0.28)">
       <use xlink:href="#HelveticaWorld-Regular-31"/>
       <use x="55.615234" xlink:href="#HelveticaWorld-Regular-30"/>
       <use x="111.230469" xlink:href="#HelveticaWorld-Regular-30"/>
       <use x="166.845703" xlink:href="#HelveticaWorld-Regular-30"/>
      </g>
     </g>
    </g>
    <g id="xtick_4">
     <g id="text_4">
      <!-- 2000 -->
      <g style="fill:#262626;" transform="translate(744.48317 575.09875)scale(0.28 -0.28)">
       <defs>
        <path d="M 281 2888 
Q 281 3681 690 4090 
Q 1100 4500 1838 4500 
Q 2456 4500 2850 4125 
Q 3244 3750 3244 3156 
Q 3244 2694 3017 2376 
Q 2791 2059 2350 1819 
L 1575 1394 
Q 891 1019 800 531 
L 3244 531 
L 3244 0 
L 166 0 
Q 191 634 441 1056 
Q 691 1478 1222 1784 
L 2028 2253 
Q 2350 2438 2497 2636 
Q 2644 2834 2644 3181 
Q 2644 3525 2403 3759 
Q 2163 3994 1753 3994 
Q 1300 3994 1075 3695 
Q 850 3397 844 2888 
L 281 2888 
z
" id="HelveticaWorld-Regular-32" transform="scale(0.015625)"/>
       </defs>
       <use xlink:href="#HelveticaWorld-Regular-32"/>
       <use x="55.615234" xlink:href="#HelveticaWorld-Regular-30"/>
       <use x="111.230469" xlink:href="#HelveticaWorld-Regular-30"/>
       <use x="166.845703" xlink:href="#HelveticaWorld-Regular-30"/>
      </g>
     </g>
    </g>
    <g id="xtick_5">
     <g id="text_5">
      <!-- 3000 -->
      <g style="fill:#262626;" transform="translate(899.460468 575.09875)scale(0.28 -0.28)">
       <defs>
        <path d="M 1434 2559 
Q 1575 2547 1728 2547 
Q 2125 2547 2354 2730 
Q 2584 2913 2584 3284 
Q 2584 3584 2370 3789 
Q 2156 3994 1753 3994 
Q 1306 3994 1098 3731 
Q 891 3469 878 3028 
L 325 3028 
Q 325 3731 694 4115 
Q 1063 4500 1778 4500 
Q 2413 4500 2791 4173 
Q 3169 3847 3169 3316 
Q 3169 2631 2591 2388 
L 2591 2375 
Q 3341 2119 3341 1325 
Q 3341 691 2919 284 
Q 2497 -122 1722 -122 
Q 1088 -122 678 211 
Q 269 544 219 1375 
L 800 1375 
Q 813 856 1056 620 
Q 1300 384 1759 384 
Q 2203 384 2472 631 
Q 2741 878 2741 1253 
Q 2741 1663 2484 1872 
Q 2228 2081 1691 2081 
Q 1563 2081 1434 2075 
L 1434 2559 
z
" id="HelveticaWorld-Regular-33" transform="scale(0.015625)"/>
       </defs>
       <use xlink:href="#HelveticaWorld-Regular-33"/>
       <use x="55.615234" xlink:href="#HelveticaWorld-Regular-30"/>
       <use x="111.230469" xlink:href="#HelveticaWorld-Regular-30"/>
       <use x="166.845703" xlink:href="#HelveticaWorld-Regular-30"/>
      </g>
     </g>
    </g>
    <g id="xtick_6">
     <g id="text_6">
      <!-- 4000 -->
      <g style="fill:#262626;" transform="translate(1054.437765 575.09875)scale(0.28 -0.28)">
       <defs>
        <path d="M 678 1581 
L 2125 1581 
L 2125 3622 
L 2113 3622 
L 678 1581 
z
M 2688 1094 
L 2688 0 
L 2125 0 
L 2125 1094 
L 159 1094 
L 159 1644 
L 2222 4500 
L 2688 4500 
L 2688 1581 
L 3347 1581 
L 3347 1094 
L 2688 1094 
z
" id="HelveticaWorld-Regular-34" transform="scale(0.015625)"/>
       </defs>
       <use xlink:href="#HelveticaWorld-Regular-34"/>
       <use x="55.615234" xlink:href="#HelveticaWorld-Regular-30"/>
       <use x="111.230469" xlink:href="#HelveticaWorld-Regular-30"/>
       <use x="166.845703" xlink:href="#HelveticaWorld-Regular-30"/>
      </g>
     </g>
    </g>
    <g id="xtick_7">
     <g id="text_7">
      <!-- 5000 -->
      <g style="fill:#262626;" transform="translate(1209.415063 575.09875)scale(0.28 -0.28)">
       <use xlink:href="#HelveticaWorld-Regular-35"/>
       <use x="55.615234" xlink:href="#HelveticaWorld-Regular-30"/>
       <use x="111.230469" xlink:href="#HelveticaWorld-Regular-30"/>
       <use x="166.845703" xlink:href="#HelveticaWorld-Regular-30"/>
      </g>
     </g>
    </g>
    <g id="xtick_8">
     <g id="text_8">
      <!-- 6000 -->
      <g style="fill:#262626;" transform="translate(1364.392361 575.09875)scale(0.28 -0.28)">
       <defs>
        <path d="M 903 1381 
Q 903 941 1165 662 
Q 1428 384 1850 384 
Q 2253 384 2492 668 
Q 2731 953 2731 1416 
Q 2731 1819 2495 2091 
Q 2259 2363 1825 2363 
Q 1403 2363 1153 2097 
Q 903 1831 903 1381 
z
M 2669 3303 
Q 2606 3647 2414 3820 
Q 2222 3994 1894 3994 
Q 1375 3994 1103 3487 
Q 831 2981 825 2328 
L 838 2316 
Q 1197 2869 1906 2869 
Q 2472 2869 2894 2494 
Q 3316 2119 3316 1441 
Q 3316 769 2916 323 
Q 2516 -122 1838 -122 
Q 1056 -122 650 434 
Q 244 991 244 2094 
Q 244 3156 659 3828 
Q 1075 4500 1906 4500 
Q 2444 4500 2816 4179 
Q 3188 3859 3219 3303 
L 2669 3303 
z
" id="HelveticaWorld-Regular-36" transform="scale(0.015625)"/>
       </defs>
       <use xlink:href="#HelveticaWorld-Regular-36"/>
       <use x="55.615234" xlink:href="#HelveticaWorld-Regular-30"/>
       <use x="111.230469" xlink:href="#HelveticaWorld-Regular-30"/>
       <use x="166.845703" xlink:href="#HelveticaWorld-Regular-30"/>
      </g>
     </g>
    </g>
    <g id="text_9">
     <!-- Number of Voxels -->
     <g style="fill:#262626;" transform="translate(815.493082 607.865625)scale(0.32 -0.32)">
      <defs>
       <path d="M 3559 4594 
L 4159 4594 
L 4159 0 
L 3469 0 
L 1125 3713 
L 1113 3713 
L 1113 0 
L 519 0 
L 519 4594 
L 1247 4594 
L 3547 884 
L 3559 884 
L 3559 4594 
z
" id="HelveticaWorld-Regular-4e" transform="scale(0.015625)"/>
       <path d="M 391 3347 
L 953 3347 
L 953 1125 
Q 953 756 1120 573 
Q 1288 391 1600 391 
Q 2034 391 2278 698 
Q 2522 1006 2522 1503 
L 2522 3347 
L 3084 3347 
L 3084 0 
L 2553 0 
L 2553 488 
L 2541 500 
Q 2222 -97 1478 -97 
Q 997 -97 694 165 
Q 391 428 391 941 
L 391 3347 
z
" id="HelveticaWorld-Regular-75" transform="scale(0.015625)"/>
       <path d="M 422 3347 
L 953 3347 
L 953 2875 
L 966 2875 
Q 1344 3444 1978 3444 
Q 2606 3444 2869 2900 
Q 3109 3194 3334 3319 
Q 3559 3444 3891 3444 
Q 4325 3444 4626 3159 
Q 4928 2875 4928 2316 
L 4928 0 
L 4366 0 
L 4366 2163 
Q 4366 2553 4219 2745 
Q 4072 2938 3744 2938 
Q 3413 2938 3184 2669 
Q 2956 2400 2956 2041 
L 2956 0 
L 2394 0 
L 2394 2316 
Q 2394 2606 2259 2772 
Q 2125 2938 1869 2938 
Q 1466 2938 1225 2638 
Q 984 2338 984 1825 
L 984 0 
L 422 0 
L 422 3347 
z
" id="HelveticaWorld-Regular-6d" transform="scale(0.015625)"/>
       <path d="M 2778 1684 
Q 2778 2356 2540 2647 
Q 2303 2938 1863 2938 
Q 1416 2931 1187 2589 
Q 959 2247 959 1600 
Q 959 941 1234 666 
Q 1509 391 1875 391 
Q 2291 391 2534 733 
Q 2778 1075 2778 1684 
z
M 422 0 
L 422 4594 
L 984 4594 
L 984 2925 
L 997 2925 
Q 1356 3444 1966 3444 
Q 2591 3444 2975 2980 
Q 3359 2516 3359 1772 
Q 3359 934 2971 418 
Q 2584 -97 1888 -97 
Q 1275 -97 966 416 
L 953 416 
L 953 0 
L 422 0 
z
" id="HelveticaWorld-Regular-62" transform="scale(0.015625)"/>
       <path d="M 2719 1941 
Q 2675 2484 2431 2711 
Q 2188 2938 1784 2938 
Q 1375 2938 1123 2650 
Q 872 2363 856 1941 
L 2719 1941 
z
M 3256 1050 
Q 3163 531 2747 191 
Q 2381 -97 1784 -103 
Q 1081 -97 668 358 
Q 256 813 256 1581 
Q 256 2463 681 2953 
Q 1106 3444 1863 3444 
Q 2541 3444 2922 2937 
Q 3303 2431 3303 1491 
L 856 1491 
Q 856 966 1100 678 
Q 1344 391 1831 391 
Q 2175 391 2422 598 
Q 2669 806 2694 1050 
L 3256 1050 
z
" id="HelveticaWorld-Regular-65" transform="scale(0.015625)"/>
       <path d="M 984 0 
L 422 0 
L 422 3347 
L 953 3347 
L 953 2791 
L 966 2791 
Q 1331 3444 1906 3444 
Q 1997 3444 2053 3425 
L 2053 2841 
L 1844 2841 
Q 1466 2841 1225 2584 
Q 984 2328 984 1947 
L 984 0 
z
" id="HelveticaWorld-Regular-72" transform="scale(0.015625)"/>
       <path id="HelveticaWorld-Regular-20" transform="scale(0.015625)"/>
       <path d="M 813 1678 
Q 813 1119 1066 758 
Q 1319 397 1784 397 
Q 2266 397 2516 775 
Q 2766 1153 2766 1678 
Q 2766 2209 2516 2579 
Q 2266 2950 1784 2950 
Q 1338 2950 1075 2601 
Q 813 2253 813 1678 
z
M 238 1678 
Q 238 2425 653 2934 
Q 1069 3444 1784 3444 
Q 2516 3444 2928 2928 
Q 3341 2413 3341 1678 
Q 3341 941 2931 422 
Q 2522 -97 1784 -97 
Q 1075 -97 656 406 
Q 238 909 238 1678 
z
" id="HelveticaWorld-Regular-6f" transform="scale(0.015625)"/>
       <path d="M 1100 2881 
L 1100 0 
L 538 0 
L 538 2881 
L 78 2881 
L 78 3347 
L 538 3347 
L 538 3922 
Q 538 4300 767 4479 
Q 997 4659 1409 4659 
Q 1550 4659 1663 4647 
L 1663 4141 
Q 1563 4153 1434 4153 
Q 1247 4153 1173 4061 
Q 1100 3969 1100 3763 
L 1100 3347 
L 1663 3347 
L 1663 2881 
L 1100 2881 
z
" id="HelveticaWorld-Regular-66" transform="scale(0.015625)"/>
       <path d="M 3413 4594 
L 4109 4594 
L 2425 0 
L 1772 0 
L 97 4594 
L 788 4594 
L 2100 678 
L 2113 678 
L 3413 4594 
z
" id="HelveticaWorld-Regular-56" transform="scale(0.015625)"/>
       <path d="M 3138 0 
L 2413 0 
L 1588 1259 
L 781 0 
L 72 0 
L 1241 1722 
L 128 3347 
L 844 3347 
L 1619 2169 
L 2400 3347 
L 3084 3347 
L 1959 1722 
L 3138 0 
z
" id="HelveticaWorld-Regular-78" transform="scale(0.015625)"/>
       <path d="M 984 0 
L 422 0 
L 422 4594 
L 984 4594 
L 984 0 
z
" id="HelveticaWorld-Regular-6c" transform="scale(0.015625)"/>
       <path d="M 2309 2394 
Q 2297 2694 2095 2825 
Q 1894 2956 1516 2956 
Q 1241 2956 1045 2834 
Q 850 2713 850 2484 
Q 850 2303 965 2217 
Q 1081 2131 1466 2034 
L 2022 1894 
Q 2528 1766 2745 1567 
Q 2963 1369 2963 1013 
Q 2963 519 2602 211 
Q 2241 -97 1638 -97 
Q 934 -97 573 195 
Q 213 488 206 1075 
L 750 1075 
Q 763 728 980 559 
Q 1197 391 1631 391 
Q 1984 391 2192 531 
Q 2400 672 2400 922 
Q 2400 1100 2265 1206 
Q 2131 1313 1734 1403 
L 1081 1563 
Q 684 1663 495 1861 
Q 306 2059 306 2375 
Q 306 2869 659 3156 
Q 1013 3444 1581 3444 
Q 2188 3444 2511 3148 
Q 2834 2853 2853 2394 
L 2309 2394 
z
" id="HelveticaWorld-Regular-73" transform="scale(0.015625)"/>
      </defs>
      <use xlink:href="#HelveticaWorld-Regular-4e"/>
      <use x="73.095703" xlink:href="#HelveticaWorld-Regular-75"/>
      <use x="127.880859" xlink:href="#HelveticaWorld-Regular-6d"/>
      <use x="210.888672" xlink:href="#HelveticaWorld-Regular-62"/>
      <use x="267.382812" xlink:href="#HelveticaWorld-Regular-65"/>
      <use x="322.802734" xlink:href="#HelveticaWorld-Regular-72"/>
      <use x="355.371094" xlink:href="#HelveticaWorld-Regular-20"/>
      <use x="379.785156" xlink:href="#HelveticaWorld-Regular-6f"/>
      <use x="435.693359" xlink:href="#HelveticaWorld-Regular-66"/>
      <use x="463.378906" xlink:href="#HelveticaWorld-Regular-20"/>
      <use x="482.792969" xlink:href="#HelveticaWorld-Regular-56"/>
      <use x="540.619141" xlink:href="#HelveticaWorld-Regular-6f"/>
      <use x="593.652344" xlink:href="#HelveticaWorld-Regular-78"/>
      <use x="640.402344" xlink:href="#HelveticaWorld-Regular-65"/>
      <use x="695.822266" xlink:href="#HelveticaWorld-Regular-6c"/>
      <use x="717.84375" xlink:href="#HelveticaWorld-Regular-73"/>
     </g>
    </g>
   </g>
   <g id="matplotlib.axis_2">
    <g id="ytick_1">
     <g id="text_10">
      <!-- 0.0 -->
      <g style="fill:#262626;" transform="translate(416.960233 558.049375)scale(0.28 -0.28)">
       <defs>
        <path d="M 1222 0 
L 556 0 
L 556 678 
L 1222 678 
L 1222 0 
z
" id="HelveticaWorld-Regular-2e" transform="scale(0.015625)"/>
       </defs>
       <use xlink:href="#HelveticaWorld-Regular-30"/>
       <use x="55.615234" xlink:href="#HelveticaWorld-Regular-2e"/>
       <use x="83.398438" xlink:href="#HelveticaWorld-Regular-30"/>
      </g>
     </g>
    </g>
    <g id="ytick_2">
     <g id="text_11">
      <!-- 0.1 -->
      <g style="fill:#262626;" transform="translate(416.960233 465.382708)scale(0.28 -0.28)">
       <use xlink:href="#HelveticaWorld-Regular-30"/>
       <use x="55.615234" xlink:href="#HelveticaWorld-Regular-2e"/>
       <use x="83.398438" xlink:href="#HelveticaWorld-Regular-31"/>
      </g>
     </g>
    </g>
    <g id="ytick_3">
     <g id="text_12">
      <!-- 0.2 -->
      <g style="fill:#262626;" transform="translate(416.960233 372.716042)scale(0.28 -0.28)">
       <use xlink:href="#HelveticaWorld-Regular-30"/>
       <use x="55.615234" xlink:href="#HelveticaWorld-Regular-2e"/>
       <use x="83.398438" xlink:href="#HelveticaWorld-Regular-32"/>
      </g>
     </g>
    </g>
    <g id="ytick_4">
     <g id="text_13">
      <!-- 0.3 -->
      <g style="fill:#262626;" transform="translate(416.960233 280.049375)scale(0.28 -0.28)">
       <use xlink:href="#HelveticaWorld-Regular-30"/>
       <use x="55.615234" xlink:href="#HelveticaWorld-Regular-2e"/>
       <use x="83.398438" xlink:href="#HelveticaWorld-Regular-33"/>
      </g>
     </g>
    </g>
    <g id="ytick_5">
     <g id="text_14">
      <!-- 0.4 -->
      <g style="fill:#262626;" transform="translate(416.960233 187.382708)scale(0.28 -0.28)">
       <use xlink:href="#HelveticaWorld-Regular-30"/>
       <use x="55.615234" xlink:href="#HelveticaWorld-Regular-2e"/>
       <use x="83.398438" xlink:href="#HelveticaWorld-Regular-34"/>
      </g>
     </g>
    </g>
    <g id="text_15">
     <!-- Classifier Information (a.u.) -->
     <g style="fill:#262626;" transform="translate(406.335233 528.865)rotate(-90)scale(0.32 -0.32)">
      <defs>
       <path d="M 3713 3213 
Q 3609 3681 3279 3923 
Q 2950 4166 2425 4166 
Q 1747 4166 1334 3673 
Q 922 3181 922 2344 
Q 922 1375 1312 901 
Q 1703 428 2444 428 
Q 2931 428 3282 751 
Q 3634 1075 3756 1691 
L 4359 1691 
Q 4238 806 3688 342 
Q 3138 -122 2350 -122 
Q 1409 -122 845 525 
Q 281 1172 281 2322 
Q 281 3431 870 4073 
Q 1459 4716 2425 4716 
Q 3225 4716 3722 4303 
Q 4219 3891 4313 3213 
L 3713 3213 
z
" id="HelveticaWorld-Regular-43" transform="scale(0.015625)"/>
       <path d="M 2456 1709 
Q 2394 1644 2211 1603 
Q 2028 1563 1528 1497 
Q 1159 1453 986 1315 
Q 813 1178 813 953 
Q 813 678 959 525 
Q 1106 372 1428 372 
Q 1831 372 2143 601 
Q 2456 831 2456 1159 
L 2456 1709 
z
M 397 2328 
Q 416 2894 764 3169 
Q 1113 3444 1778 3444 
Q 2309 3444 2668 3203 
Q 3028 2963 3028 2509 
L 3028 581 
Q 3028 384 3206 384 
Q 3278 384 3391 409 
L 3391 0 
Q 3238 -63 3072 -63 
Q 2784 -63 2643 60 
Q 2503 184 2497 447 
Q 2016 -97 1288 -97 
Q 813 -97 525 172 
Q 238 441 238 872 
Q 238 1313 488 1584 
Q 738 1856 1216 1913 
L 2209 2034 
Q 2478 2075 2478 2431 
Q 2478 2694 2283 2834 
Q 2088 2975 1691 2975 
Q 1338 2975 1148 2819 
Q 959 2663 922 2328 
L 397 2328 
z
" id="HelveticaWorld-Regular-61" transform="scale(0.015625)"/>
       <path d="M 422 3956 
L 422 4594 
L 984 4594 
L 984 3956 
L 422 3956 
z
M 984 0 
L 422 0 
L 422 3347 
L 984 3347 
L 984 0 
z
" id="HelveticaWorld-Regular-69" transform="scale(0.015625)"/>
       <path d="M 1141 0 
L 519 0 
L 519 4594 
L 1141 4594 
L 1141 0 
z
" id="HelveticaWorld-Regular-49" transform="scale(0.015625)"/>
       <path d="M 3150 0 
L 2584 0 
L 2584 2059 
Q 2584 2534 2418 2736 
Q 2253 2938 1869 2938 
Q 1491 2938 1237 2650 
Q 984 2363 984 1825 
L 984 0 
L 422 0 
L 422 3347 
L 953 3347 
L 953 2875 
L 966 2875 
Q 1363 3444 1978 3444 
Q 2547 3444 2848 3142 
Q 3150 2841 3150 2278 
L 3150 0 
z
" id="HelveticaWorld-Regular-6e" transform="scale(0.015625)"/>
       <path d="M 1100 2881 
L 1100 703 
Q 1100 575 1170 508 
Q 1241 441 1422 441 
L 1638 441 
L 1638 0 
Q 1331 -44 1216 -44 
Q 863 -44 700 125 
Q 538 294 538 672 
L 538 2881 
L 84 2881 
L 84 3347 
L 538 3347 
L 538 4281 
L 1100 4281 
L 1100 3347 
L 1638 3347 
L 1638 2881 
L 1100 2881 
z
" id="HelveticaWorld-Regular-74" transform="scale(0.015625)"/>
       <path d="M 1906 4691 
Q 1338 3675 1188 3037 
Q 1038 2400 1038 1631 
Q 1038 872 1242 215 
Q 1447 -441 1913 -1325 
L 1538 -1325 
Q 1006 -550 720 140 
Q 434 831 434 1672 
Q 434 2463 693 3180 
Q 953 3897 1516 4691 
L 1906 4691 
z
" id="HelveticaWorld-Regular-28" transform="scale(0.015625)"/>
       <path d="M 225 -1325 
Q 788 -306 938 330 
Q 1088 966 1088 1734 
Q 1088 2497 886 3153 
Q 684 3809 219 4691 
L 588 4691 
Q 1125 3916 1411 3225 
Q 1697 2534 1697 1697 
Q 1697 903 1437 186 
Q 1178 -531 616 -1325 
L 225 -1325 
z
" id="HelveticaWorld-Regular-29" transform="scale(0.015625)"/>
      </defs>
      <use xlink:href="#HelveticaWorld-Regular-43"/>
      <use x="72.314453" xlink:href="#HelveticaWorld-Regular-6c"/>
      <use x="94.335938" xlink:href="#HelveticaWorld-Regular-61"/>
      <use x="149.267578" xlink:href="#HelveticaWorld-Regular-73"/>
      <use x="199.267578" xlink:href="#HelveticaWorld-Regular-73"/>
      <use x="249.267578" xlink:href="#HelveticaWorld-Regular-69"/>
      <use x="271.289062" xlink:href="#HelveticaWorld-Regular-66"/>
      <use x="298.974609" xlink:href="#HelveticaWorld-Regular-69"/>
      <use x="320.996094" xlink:href="#HelveticaWorld-Regular-65"/>
      <use x="376.416016" xlink:href="#HelveticaWorld-Regular-72"/>
      <use x="408.984375" xlink:href="#HelveticaWorld-Regular-20"/>
      <use x="433.398438" xlink:href="#HelveticaWorld-Regular-49"/>
      <use x="459.179688" xlink:href="#HelveticaWorld-Regular-6e"/>
      <use x="514.355469" xlink:href="#HelveticaWorld-Regular-66"/>
      <use x="540.041016" xlink:href="#HelveticaWorld-Regular-6f"/>
      <use x="595.949219" xlink:href="#HelveticaWorld-Regular-72"/>
      <use x="628.517578" xlink:href="#HelveticaWorld-Regular-6d"/>
      <use x="711.525391" xlink:href="#HelveticaWorld-Regular-61"/>
      <use x="766.457031" xlink:href="#HelveticaWorld-Regular-74"/>
      <use x="794.142578" xlink:href="#HelveticaWorld-Regular-69"/>
      <use x="816.164062" xlink:href="#HelveticaWorld-Regular-6f"/>
      <use x="872.072266" xlink:href="#HelveticaWorld-Regular-6e"/>
      <use x="927.248047" xlink:href="#HelveticaWorld-Regular-20"/>
      <use x="951.662109" xlink:href="#HelveticaWorld-Regular-28"/>
      <use x="984.962891" xlink:href="#HelveticaWorld-Regular-61"/>
      <use x="1039.894531" xlink:href="#HelveticaWorld-Regular-2e"/>
      <use x="1067.677734" xlink:href="#HelveticaWorld-Regular-75"/>
      <use x="1122.462891" xlink:href="#HelveticaWorld-Regular-2e"/>
      <use x="1150.246094" xlink:href="#HelveticaWorld-Regular-29"/>
     </g>
    </g>
   </g>
   <g id="PolyCollection_1">
    <defs>
     <path d="M 481.167554 -507.093997 
L 481.167554 -460.175027 
L 496.665284 -492.589153 
L 512.163014 -502.49632 
L 527.660743 -510.765216 
L 543.158473 -513.015549 
L 558.656203 -518.439088 
L 574.153933 -515.866036 
L 589.651663 -513.777944 
L 605.149392 -513.478291 
L 620.647122 -507.436979 
L 636.144852 -507.397729 
L 651.642582 -503.541338 
L 667.140311 -499.935643 
L 682.638041 -500.496248 
L 698.135771 -495.391753 
L 713.633501 -489.742522 
L 729.131231 -486.108328 
L 744.62896 -482.668886 
L 760.12669 -480.169492 
L 775.62442 -476.189262 
L 791.12215 -473.283521 
L 806.619879 -471.083502 
L 822.117609 -465.670593 
L 837.615339 -461.706514 
L 853.113069 -459.123321 
L 868.610798 -455.295908 
L 884.108528 -450.310632 
L 899.606258 -446.699235 
L 915.103988 -445.563696 
L 930.601718 -440.234948 
L 946.099447 -436.567224 
L 961.597177 -434.810491 
L 977.094907 -430.422468 
L 992.592637 -427.187062 
L 1008.090366 -425.148315 
L 1023.588096 -421.151463 
L 1039.085826 -419.817573 
L 1054.583556 -415.016214 
L 1070.081286 -415.335231 
L 1085.579015 -415.037201 
L 1101.076745 -411.833097 
L 1116.574475 -408.810666 
L 1132.072205 -408.398704 
L 1147.569934 -408.941751 
L 1163.067664 -407.226201 
L 1178.565394 -405.724841 
L 1194.063124 -405.901815 
L 1209.560854 -402.985248 
L 1225.058583 -404.802857 
L 1240.556313 -405.203574 
L 1256.054043 -404.887979 
L 1271.551773 -404.510425 
L 1287.049502 -404.447214 
L 1302.547232 -404.859152 
L 1318.044962 -405.032552 
L 1333.542692 -403.521401 
L 1349.040421 -404.934054 
L 1364.538151 -403.235934 
L 1380.035881 -403.47723 
L 1395.533611 -405.80421 
L 1395.533611 -441.946325 
L 1395.533611 -441.946325 
L 1380.035881 -442.674867 
L 1364.538151 -442.052391 
L 1349.040421 -441.882231 
L 1333.542692 -442.948173 
L 1318.044962 -442.328098 
L 1302.547232 -443.222873 
L 1287.049502 -442.882087 
L 1271.551773 -442.706413 
L 1256.054043 -441.823641 
L 1240.556313 -441.96745 
L 1225.058583 -444.481953 
L 1209.560854 -441.616892 
L 1194.063124 -444.131895 
L 1178.565394 -444.334885 
L 1163.067664 -444.492342 
L 1147.569934 -445.736119 
L 1132.072205 -446.893225 
L 1116.574475 -448.895084 
L 1101.076745 -448.776532 
L 1085.579015 -451.421598 
L 1070.081286 -451.733012 
L 1054.583556 -455.506437 
L 1039.085826 -460.131139 
L 1023.588096 -462.49715 
L 1008.090366 -464.493687 
L 992.592637 -466.962835 
L 977.094907 -471.893187 
L 961.597177 -475.362721 
L 946.099447 -477.347231 
L 930.601718 -482.407819 
L 915.103988 -485.205262 
L 899.606258 -488.951993 
L 884.108528 -493.466133 
L 868.610798 -498.402757 
L 853.113069 -501.369903 
L 837.615339 -506.867169 
L 822.117609 -510.691907 
L 806.619879 -513.660413 
L 791.12215 -518.483224 
L 775.62442 -520.216515 
L 760.12669 -527.061445 
L 744.62896 -530.103862 
L 729.131231 -532.071728 
L 713.633501 -537.769289 
L 698.135771 -541.341386 
L 682.638041 -545.594486 
L 667.140311 -548.110129 
L 651.642582 -548.530813 
L 636.144852 -555.289341 
L 620.647122 -556.706957 
L 605.149392 -561.141903 
L 589.651663 -563.612877 
L 574.153933 -566.081219 
L 558.656203 -566.8712 
L 543.158473 -562.861669 
L 527.660743 -560.581311 
L 512.163014 -555.334826 
L 496.665284 -542.629382 
L 481.167554 -507.093997 
z
" id="m14fe37cb63" style="stroke:#1b9e77;stroke-opacity:0.2;"/>
    </defs>
    <g clip-path="url(#p0156a7b8b1)">
     <use style="fill:#1b9e77;fill-opacity:0.2;stroke:#1b9e77;stroke-opacity:0.2;" x="0" xlink:href="#m14fe37cb63" y="720"/>
    </g>
   </g>
   <g id="PolyCollection_2">
    <defs>
     <path d="M 481.167554 -449.401523 
L 481.167554 -403.863913 
L 496.665284 -422.860831 
L 512.163014 -426.287229 
L 527.660743 -430.540735 
L 543.158473 -428.023184 
L 558.656203 -427.725286 
L 574.153933 -429.837186 
L 589.651663 -427.329735 
L 605.149392 -426.021171 
L 620.647122 -422.728674 
L 636.144852 -420.946892 
L 651.642582 -416.778579 
L 667.140311 -416.528796 
L 682.638041 -414.226698 
L 698.135771 -411.64934 
L 713.633501 -411.128374 
L 729.131231 -409.298728 
L 744.62896 -408.849873 
L 760.12669 -405.534734 
L 775.62442 -403.407324 
L 791.12215 -401.8132 
L 806.619879 -399.031874 
L 822.117609 -395.628292 
L 837.615339 -391.682958 
L 853.113069 -390.70692 
L 868.610798 -388.861835 
L 884.108528 -386.617262 
L 899.606258 -381.809821 
L 915.103988 -378.257068 
L 930.601718 -376.370304 
L 946.099447 -371.778098 
L 961.597177 -370.220944 
L 977.094907 -368.049546 
L 992.592637 -365.49786 
L 1008.090366 -362.659532 
L 1023.588096 -360.583951 
L 1039.085826 -358.703586 
L 1054.583556 -356.610069 
L 1070.081286 -356.411934 
L 1085.579015 -355.457343 
L 1101.076745 -351.485497 
L 1116.574475 -352.025578 
L 1132.072205 -350.073882 
L 1147.569934 -351.625641 
L 1163.067664 -349.976369 
L 1178.565394 -348.314661 
L 1194.063124 -350.089212 
L 1209.560854 -345.721446 
L 1225.058583 -347.610043 
L 1240.556313 -347.614428 
L 1256.054043 -346.633144 
L 1271.551773 -348.96567 
L 1287.049502 -346.790858 
L 1302.547232 -348.718362 
L 1318.044962 -349.466697 
L 1333.542692 -347.329597 
L 1349.040421 -347.046982 
L 1364.538151 -346.920623 
L 1380.035881 -348.039546 
L 1395.533611 -348.675601 
L 1395.533611 -392.260268 
L 1395.533611 -392.260268 
L 1380.035881 -392.074381 
L 1364.538151 -389.482981 
L 1349.040421 -391.392147 
L 1333.542692 -390.637257 
L 1318.044962 -391.578944 
L 1302.547232 -391.670069 
L 1287.049502 -392.144854 
L 1271.551773 -390.437553 
L 1256.054043 -392.048019 
L 1240.556313 -393.107865 
L 1225.058583 -391.371347 
L 1209.560854 -391.92096 
L 1194.063124 -393.013193 
L 1178.565394 -392.316897 
L 1163.067664 -393.680018 
L 1147.569934 -394.183542 
L 1132.072205 -396.351059 
L 1116.574475 -395.596185 
L 1101.076745 -399.442138 
L 1085.579015 -400.430134 
L 1070.081286 -402.074685 
L 1054.583556 -401.530361 
L 1039.085826 -403.658228 
L 1023.588096 -406.625304 
L 1008.090366 -408.69826 
L 992.592637 -412.392257 
L 977.094907 -413.593046 
L 961.597177 -418.193736 
L 946.099447 -419.742148 
L 930.601718 -419.879743 
L 915.103988 -429.206159 
L 899.606258 -428.523067 
L 884.108528 -432.628173 
L 868.610798 -436.243767 
L 853.113069 -439.221881 
L 837.615339 -440.8011 
L 822.117609 -444.775537 
L 806.619879 -447.779602 
L 791.12215 -449.140935 
L 775.62442 -454.039585 
L 760.12669 -454.70995 
L 744.62896 -455.80198 
L 729.131231 -459.424004 
L 713.633501 -461.487848 
L 698.135771 -460.419033 
L 682.638041 -462.875026 
L 667.140311 -465.791438 
L 651.642582 -465.879344 
L 636.144852 -467.91946 
L 620.647122 -471.185084 
L 605.149392 -476.757772 
L 589.651663 -477.00325 
L 574.153933 -478.443033 
L 558.656203 -480.494117 
L 543.158473 -478.697933 
L 527.660743 -480.624974 
L 512.163014 -476.032476 
L 496.665284 -467.014469 
L 481.167554 -449.401523 
z
" id="mf93a52e152" style="stroke:#d95f02;stroke-opacity:0.2;"/>
    </defs>
    <g clip-path="url(#p0156a7b8b1)">
     <use style="fill:#d95f02;fill-opacity:0.2;stroke:#d95f02;stroke-opacity:0.2;" x="0" xlink:href="#mf93a52e152" y="720"/>
    </g>
   </g>
   <g id="PathCollection_1">
    <defs>
     <path d="M 0 -6.708204 
L 0 0 
L -5.809475 -3.354102 
L 0 0 
L -5.809475 3.354102 
L 0 0 
L -0 6.708204 
L 0 0 
L 5.809475 3.354102 
L 0 0 
L 5.809475 -3.354102 
L 0 0 
z
" id="m42224a4958" style="stroke:#000000;stroke-width:2;"/>
    </defs>
    <g clip-path="url(#p0156a7b8b1)">
     <use style="stroke:#000000;stroke-width:2;" x="496.665284" xlink:href="#m42224a4958" y="529.466667"/>
    </g>
   </g>
   <g id="PathCollection_2">
    <g clip-path="url(#p0156a7b8b1)">
     <use style="stroke:#000000;stroke-width:2;" x="496.665284" xlink:href="#m42224a4958" y="510.933333"/>
    </g>
   </g>
   <g id="PathCollection_3">
    <g clip-path="url(#p0156a7b8b1)">
     <use style="stroke:#000000;stroke-width:2;" x="512.163014" xlink:href="#m42224a4958" y="529.466667"/>
    </g>
   </g>
   <g id="PathCollection_4">
    <g clip-path="url(#p0156a7b8b1)">
     <use style="stroke:#000000;stroke-width:2;" x="512.163014" xlink:href="#m42224a4958" y="510.933333"/>
    </g>
   </g>
   <g id="PathCollection_5">
    <g clip-path="url(#p0156a7b8b1)">
     <use style="stroke:#000000;stroke-width:2;" x="527.660743" xlink:href="#m42224a4958" y="529.466667"/>
    </g>
   </g>
   <g id="PathCollection_6">
    <g clip-path="url(#p0156a7b8b1)">
     <use style="stroke:#000000;stroke-width:2;" x="527.660743" xlink:href="#m42224a4958" y="510.933333"/>
    </g>
   </g>
   <g id="PathCollection_7">
    <g clip-path="url(#p0156a7b8b1)">
     <use style="stroke:#000000;stroke-width:2;" x="543.158473" xlink:href="#m42224a4958" y="529.466667"/>
    </g>
   </g>
   <g id="PathCollection_8">
    <g clip-path="url(#p0156a7b8b1)">
     <use style="stroke:#000000;stroke-width:2;" x="543.158473" xlink:href="#m42224a4958" y="510.933333"/>
    </g>
   </g>
   <g id="PathCollection_9">
    <g clip-path="url(#p0156a7b8b1)">
     <use style="stroke:#000000;stroke-width:2;" x="558.656203" xlink:href="#m42224a4958" y="529.466667"/>
    </g>
   </g>
   <g id="PathCollection_10">
    <g clip-path="url(#p0156a7b8b1)">
     <use style="stroke:#000000;stroke-width:2;" x="558.656203" xlink:href="#m42224a4958" y="510.933333"/>
    </g>
   </g>
   <g id="PathCollection_11">
    <g clip-path="url(#p0156a7b8b1)">
     <use style="stroke:#000000;stroke-width:2;" x="574.153933" xlink:href="#m42224a4958" y="529.466667"/>
    </g>
   </g>
   <g id="PathCollection_12">
    <g clip-path="url(#p0156a7b8b1)">
     <use style="stroke:#000000;stroke-width:2;" x="574.153933" xlink:href="#m42224a4958" y="510.933333"/>
    </g>
   </g>
   <g id="PathCollection_13">
    <g clip-path="url(#p0156a7b8b1)">
     <use style="stroke:#000000;stroke-width:2;" x="589.651663" xlink:href="#m42224a4958" y="529.466667"/>
    </g>
   </g>
   <g id="PathCollection_14">
    <g clip-path="url(#p0156a7b8b1)">
     <use style="stroke:#000000;stroke-width:2;" x="605.149392" xlink:href="#m42224a4958" y="529.466667"/>
    </g>
   </g>
   <g id="PathCollection_15">
    <g clip-path="url(#p0156a7b8b1)">
     <use style="stroke:#000000;stroke-width:2;" x="620.647122" xlink:href="#m42224a4958" y="529.466667"/>
    </g>
   </g>
   <g id="PathCollection_16">
    <g clip-path="url(#p0156a7b8b1)">
     <use style="stroke:#000000;stroke-width:2;" x="636.144852" xlink:href="#m42224a4958" y="529.466667"/>
    </g>
   </g>
   <g id="PathCollection_17">
    <g clip-path="url(#p0156a7b8b1)">
     <use style="stroke:#000000;stroke-width:2;" x="651.642582" xlink:href="#m42224a4958" y="529.466667"/>
    </g>
   </g>
   <g id="PathCollection_18">
    <g clip-path="url(#p0156a7b8b1)">
     <use style="stroke:#000000;stroke-width:2;" x="667.140311" xlink:href="#m42224a4958" y="529.466667"/>
    </g>
   </g>
   <g id="PathCollection_19">
    <g clip-path="url(#p0156a7b8b1)">
     <use style="stroke:#000000;stroke-width:2;" x="682.638041" xlink:href="#m42224a4958" y="529.466667"/>
    </g>
   </g>
   <g id="PathCollection_20">
    <g clip-path="url(#p0156a7b8b1)">
     <use style="stroke:#000000;stroke-width:2;" x="698.135771" xlink:href="#m42224a4958" y="529.466667"/>
    </g>
   </g>
   <g id="PathCollection_21">
    <g clip-path="url(#p0156a7b8b1)">
     <use style="stroke:#000000;stroke-width:2;" x="713.633501" xlink:href="#m42224a4958" y="529.466667"/>
    </g>
   </g>
   <g id="PathCollection_22">
    <g clip-path="url(#p0156a7b8b1)">
     <use style="stroke:#000000;stroke-width:2;" x="729.131231" xlink:href="#m42224a4958" y="529.466667"/>
    </g>
   </g>
   <g id="PathCollection_23">
    <g clip-path="url(#p0156a7b8b1)">
     <use style="stroke:#000000;stroke-width:2;" x="744.62896" xlink:href="#m42224a4958" y="529.466667"/>
    </g>
   </g>
   <g id="PathCollection_24">
    <g clip-path="url(#p0156a7b8b1)">
     <use style="stroke:#000000;stroke-width:2;" x="760.12669" xlink:href="#m42224a4958" y="529.466667"/>
    </g>
   </g>
   <g id="PathCollection_25">
    <g clip-path="url(#p0156a7b8b1)">
     <use style="stroke:#000000;stroke-width:2;" x="775.62442" xlink:href="#m42224a4958" y="529.466667"/>
    </g>
   </g>
   <g id="PathCollection_26">
    <g clip-path="url(#p0156a7b8b1)">
     <use style="stroke:#000000;stroke-width:2;" x="791.12215" xlink:href="#m42224a4958" y="529.466667"/>
    </g>
   </g>
   <g id="PathCollection_27">
    <g clip-path="url(#p0156a7b8b1)">
     <use style="stroke:#000000;stroke-width:2;" x="806.619879" xlink:href="#m42224a4958" y="529.466667"/>
    </g>
   </g>
   <g id="PathCollection_28">
    <g clip-path="url(#p0156a7b8b1)">
     <use style="stroke:#000000;stroke-width:2;" x="822.117609" xlink:href="#m42224a4958" y="529.466667"/>
    </g>
   </g>
   <g id="PathCollection_29">
    <g clip-path="url(#p0156a7b8b1)">
     <use style="stroke:#000000;stroke-width:2;" x="822.117609" xlink:href="#m42224a4958" y="510.933333"/>
    </g>
   </g>
   <g id="PathCollection_30">
    <g clip-path="url(#p0156a7b8b1)">
     <use style="stroke:#000000;stroke-width:2;" x="837.615339" xlink:href="#m42224a4958" y="529.466667"/>
    </g>
   </g>
   <g id="PathCollection_31">
    <g clip-path="url(#p0156a7b8b1)">
     <use style="stroke:#000000;stroke-width:2;" x="853.113069" xlink:href="#m42224a4958" y="529.466667"/>
    </g>
   </g>
   <g id="PathCollection_32">
    <g clip-path="url(#p0156a7b8b1)">
     <use style="stroke:#000000;stroke-width:2;" x="868.610798" xlink:href="#m42224a4958" y="529.466667"/>
    </g>
   </g>
   <g id="PathCollection_33">
    <g clip-path="url(#p0156a7b8b1)">
     <use style="stroke:#000000;stroke-width:2;" x="884.108528" xlink:href="#m42224a4958" y="529.466667"/>
    </g>
   </g>
   <g id="PathCollection_34">
    <g clip-path="url(#p0156a7b8b1)">
     <use style="stroke:#000000;stroke-width:2;" x="899.606258" xlink:href="#m42224a4958" y="529.466667"/>
    </g>
   </g>
   <g id="PathCollection_35">
    <g clip-path="url(#p0156a7b8b1)">
     <use style="stroke:#000000;stroke-width:2;" x="992.592637" xlink:href="#m42224a4958" y="529.466667"/>
    </g>
   </g>
   <g id="PathCollection_36">
    <g clip-path="url(#p0156a7b8b1)">
     <use style="stroke:#000000;stroke-width:2;" x="992.592637" xlink:href="#m42224a4958" y="510.933333"/>
    </g>
   </g>
   <g id="PathCollection_37">
    <g clip-path="url(#p0156a7b8b1)">
     <use style="stroke:#000000;stroke-width:2;" x="1163.067664" xlink:href="#m42224a4958" y="529.466667"/>
    </g>
   </g>
   <g id="PathCollection_38">
    <g clip-path="url(#p0156a7b8b1)">
     <use style="stroke:#000000;stroke-width:2;" x="1163.067664" xlink:href="#m42224a4958" y="510.933333"/>
    </g>
   </g>
   <g id="PathCollection_39">
    <g clip-path="url(#p0156a7b8b1)">
     <use style="stroke:#000000;stroke-width:2;" x="1333.542692" xlink:href="#m42224a4958" y="529.466667"/>
    </g>
   </g>
   <g id="PathCollection_40">
    <g clip-path="url(#p0156a7b8b1)">
     <use style="stroke:#000000;stroke-width:2;" x="1333.542692" xlink:href="#m42224a4958" y="510.933333"/>
    </g>
   </g>
   <g id="PathCollection_41">
    <g clip-path="url(#p0156a7b8b1)">
     <use style="stroke:#000000;stroke-width:2;" x="1364.538151" xlink:href="#m42224a4958" y="529.466667"/>
    </g>
   </g>
   <g id="PathCollection_42">
    <g clip-path="url(#p0156a7b8b1)">
     <use style="stroke:#000000;stroke-width:2;" x="1364.538151" xlink:href="#m42224a4958" y="510.933333"/>
    </g>
   </g>
   <g id="PathCollection_43">
    <g clip-path="url(#p0156a7b8b1)">
     <use style="stroke:#000000;stroke-width:2;" x="1380.035881" xlink:href="#m42224a4958" y="529.466667"/>
    </g>
   </g>
   <g id="PathCollection_44">
    <g clip-path="url(#p0156a7b8b1)">
     <use style="stroke:#000000;stroke-width:2;" x="1380.035881" xlink:href="#m42224a4958" y="510.933333"/>
    </g>
   </g>
   <g id="PathCollection_45">
    <g clip-path="url(#p0156a7b8b1)">
     <use style="stroke:#000000;stroke-width:2;" x="1395.533611" xlink:href="#m42224a4958" y="529.466667"/>
    </g>
   </g>
   <g id="PathCollection_46">
    <g clip-path="url(#p0156a7b8b1)">
     <use style="stroke:#000000;stroke-width:2;" x="1395.533611" xlink:href="#m42224a4958" y="510.933333"/>
    </g>
   </g>
   <g id="line2d_1">
    <path clip-path="url(#p0156a7b8b1)" d="M 481.167554 236.301604 
L 496.665284 201.667576 
L 512.163014 190.973097 
L 527.660743 183.836772 
L 543.158473 182.190332 
L 558.656203 179.05018 
L 574.153933 178.912075 
L 589.651663 181.472738 
L 605.149392 183.755023 
L 620.647122 185.826008 
L 636.144852 189.586575 
L 651.642582 193.755211 
L 667.140311 196.407168 
L 682.638041 199.291875 
L 698.135771 202.990438 
L 713.633501 206.76839 
L 729.131231 209.868183 
L 744.62896 213.649317 
L 760.12669 217.016931 
L 775.62442 220.818017 
L 791.12215 224.065463 
L 806.619879 227.815438 
L 822.117609 232.149287 
L 837.615339 236.024949 
L 853.113069 239.787384 
L 868.610798 243.860144 
L 884.108528 247.760055 
L 899.606258 251.520044 
L 915.103988 254.9214 
L 930.601718 258.416157 
L 946.099447 261.85763 
L 961.597177 265.172947 
L 977.094907 268.804418 
L 992.592637 272.279198 
L 1008.090366 276.040575 
L 1023.588096 278.949177 
L 1039.085826 281.611709 
L 1054.583556 283.865927 
L 1070.081286 286.005109 
L 1085.579015 287.818361 
L 1101.076745 289.549595 
L 1116.574475 291.053994 
L 1132.072205 292.2459 
L 1147.569934 293.177023 
L 1163.067664 293.990545 
L 1178.565394 294.746481 
L 1194.063124 295.339492 
L 1209.560854 295.667682 
L 1225.058583 296.104859 
L 1240.556313 296.417463 
L 1256.054043 296.695136 
L 1271.551773 296.801825 
L 1287.049502 296.875245 
L 1302.547232 296.930799 
L 1318.044962 296.955364 
L 1333.542692 296.955364 
L 1349.040421 296.955364 
L 1364.538151 296.955364 
L 1380.035881 296.955364 
L 1395.533611 296.955364 
" style="fill:none;stroke:#1b9e77;stroke-linecap:round;stroke-width:1.5;"/>
    <defs>
     <path d="M 0 5 
C 1.326016 5 2.597899 4.473168 3.535534 3.535534 
C 4.473168 2.597899 5 1.326016 5 0 
C 5 -1.326016 4.473168 -2.597899 3.535534 -3.535534 
C 2.597899 -4.473168 1.326016 -5 0 -5 
C -1.326016 -5 -2.597899 -4.473168 -3.535534 -3.535534 
C -4.473168 -2.597899 -5 -1.326016 -5 0 
C -5 1.326016 -4.473168 2.597899 -3.535534 3.535534 
C -2.597899 4.473168 -1.326016 5 0 5 
z
" id="mf632a34fe8" style="stroke:#000000;stroke-opacity:0;stroke-width:0.75;"/>
    </defs>
    <g clip-path="url(#p0156a7b8b1)">
     <use style="fill:#1b9e77;stroke:#000000;stroke-opacity:0;stroke-width:0.75;" x="481.167554" xlink:href="#mf632a34fe8" y="236.301604"/>
     <use style="fill:#1b9e77;stroke:#000000;stroke-opacity:0;stroke-width:0.75;" x="496.665284" xlink:href="#mf632a34fe8" y="201.667576"/>
     <use style="fill:#1b9e77;stroke:#000000;stroke-opacity:0;stroke-width:0.75;" x="512.163014" xlink:href="#mf632a34fe8" y="190.973097"/>
     <use style="fill:#1b9e77;stroke:#000000;stroke-opacity:0;stroke-width:0.75;" x="527.660743" xlink:href="#mf632a34fe8" y="183.836772"/>
     <use style="fill:#1b9e77;stroke:#000000;stroke-opacity:0;stroke-width:0.75;" x="543.158473" xlink:href="#mf632a34fe8" y="182.190332"/>
     <use style="fill:#1b9e77;stroke:#000000;stroke-opacity:0;stroke-width:0.75;" x="558.656203" xlink:href="#mf632a34fe8" y="179.05018"/>
     <use style="fill:#1b9e77;stroke:#000000;stroke-opacity:0;stroke-width:0.75;" x="574.153933" xlink:href="#mf632a34fe8" y="178.912075"/>
     <use style="fill:#1b9e77;stroke:#000000;stroke-opacity:0;stroke-width:0.75;" x="589.651663" xlink:href="#mf632a34fe8" y="181.472738"/>
     <use style="fill:#1b9e77;stroke:#000000;stroke-opacity:0;stroke-width:0.75;" x="605.149392" xlink:href="#mf632a34fe8" y="183.755023"/>
     <use style="fill:#1b9e77;stroke:#000000;stroke-opacity:0;stroke-width:0.75;" x="620.647122" xlink:href="#mf632a34fe8" y="185.826008"/>
     <use style="fill:#1b9e77;stroke:#000000;stroke-opacity:0;stroke-width:0.75;" x="636.144852" xlink:href="#mf632a34fe8" y="189.586575"/>
     <use style="fill:#1b9e77;stroke:#000000;stroke-opacity:0;stroke-width:0.75;" x="651.642582" xlink:href="#mf632a34fe8" y="193.755211"/>
     <use style="fill:#1b9e77;stroke:#000000;stroke-opacity:0;stroke-width:0.75;" x="667.140311" xlink:href="#mf632a34fe8" y="196.407168"/>
     <use style="fill:#1b9e77;stroke:#000000;stroke-opacity:0;stroke-width:0.75;" x="682.638041" xlink:href="#mf632a34fe8" y="199.291875"/>
     <use style="fill:#1b9e77;stroke:#000000;stroke-opacity:0;stroke-width:0.75;" x="698.135771" xlink:href="#mf632a34fe8" y="202.990438"/>
     <use style="fill:#1b9e77;stroke:#000000;stroke-opacity:0;stroke-width:0.75;" x="713.633501" xlink:href="#mf632a34fe8" y="206.76839"/>
     <use style="fill:#1b9e77;stroke:#000000;stroke-opacity:0;stroke-width:0.75;" x="729.131231" xlink:href="#mf632a34fe8" y="209.868183"/>
     <use style="fill:#1b9e77;stroke:#000000;stroke-opacity:0;stroke-width:0.75;" x="744.62896" xlink:href="#mf632a34fe8" y="213.649317"/>
     <use style="fill:#1b9e77;stroke:#000000;stroke-opacity:0;stroke-width:0.75;" x="760.12669" xlink:href="#mf632a34fe8" y="217.016931"/>
     <use style="fill:#1b9e77;stroke:#000000;stroke-opacity:0;stroke-width:0.75;" x="775.62442" xlink:href="#mf632a34fe8" y="220.818017"/>
     <use style="fill:#1b9e77;stroke:#000000;stroke-opacity:0;stroke-width:0.75;" x="791.12215" xlink:href="#mf632a34fe8" y="224.065463"/>
     <use style="fill:#1b9e77;stroke:#000000;stroke-opacity:0;stroke-width:0.75;" x="806.619879" xlink:href="#mf632a34fe8" y="227.815438"/>
     <use style="fill:#1b9e77;stroke:#000000;stroke-opacity:0;stroke-width:0.75;" x="822.117609" xlink:href="#mf632a34fe8" y="232.149287"/>
     <use style="fill:#1b9e77;stroke:#000000;stroke-opacity:0;stroke-width:0.75;" x="837.615339" xlink:href="#mf632a34fe8" y="236.024949"/>
     <use style="fill:#1b9e77;stroke:#000000;stroke-opacity:0;stroke-width:0.75;" x="853.113069" xlink:href="#mf632a34fe8" y="239.787384"/>
     <use style="fill:#1b9e77;stroke:#000000;stroke-opacity:0;stroke-width:0.75;" x="868.610798" xlink:href="#mf632a34fe8" y="243.860144"/>
     <use style="fill:#1b9e77;stroke:#000000;stroke-opacity:0;stroke-width:0.75;" x="884.108528" xlink:href="#mf632a34fe8" y="247.760055"/>
     <use style="fill:#1b9e77;stroke:#000000;stroke-opacity:0;stroke-width:0.75;" x="899.606258" xlink:href="#mf632a34fe8" y="251.520044"/>
     <use style="fill:#1b9e77;stroke:#000000;stroke-opacity:0;stroke-width:0.75;" x="915.103988" xlink:href="#mf632a34fe8" y="254.9214"/>
     <use style="fill:#1b9e77;stroke:#000000;stroke-opacity:0;stroke-width:0.75;" x="930.601718" xlink:href="#mf632a34fe8" y="258.416157"/>
     <use style="fill:#1b9e77;stroke:#000000;stroke-opacity:0;stroke-width:0.75;" x="946.099447" xlink:href="#mf632a34fe8" y="261.85763"/>
     <use style="fill:#1b9e77;stroke:#000000;stroke-opacity:0;stroke-width:0.75;" x="961.597177" xlink:href="#mf632a34fe8" y="265.172947"/>
     <use style="fill:#1b9e77;stroke:#000000;stroke-opacity:0;stroke-width:0.75;" x="977.094907" xlink:href="#mf632a34fe8" y="268.804418"/>
     <use style="fill:#1b9e77;stroke:#000000;stroke-opacity:0;stroke-width:0.75;" x="992.592637" xlink:href="#mf632a34fe8" y="272.279198"/>
     <use style="fill:#1b9e77;stroke:#000000;stroke-opacity:0;stroke-width:0.75;" x="1008.090366" xlink:href="#mf632a34fe8" y="276.040575"/>
     <use style="fill:#1b9e77;stroke:#000000;stroke-opacity:0;stroke-width:0.75;" x="1023.588096" xlink:href="#mf632a34fe8" y="278.949177"/>
     <use style="fill:#1b9e77;stroke:#000000;stroke-opacity:0;stroke-width:0.75;" x="1039.085826" xlink:href="#mf632a34fe8" y="281.611709"/>
     <use style="fill:#1b9e77;stroke:#000000;stroke-opacity:0;stroke-width:0.75;" x="1054.583556" xlink:href="#mf632a34fe8" y="283.865927"/>
     <use style="fill:#1b9e77;stroke:#000000;stroke-opacity:0;stroke-width:0.75;" x="1070.081286" xlink:href="#mf632a34fe8" y="286.005109"/>
     <use style="fill:#1b9e77;stroke:#000000;stroke-opacity:0;stroke-width:0.75;" x="1085.579015" xlink:href="#mf632a34fe8" y="287.818361"/>
     <use style="fill:#1b9e77;stroke:#000000;stroke-opacity:0;stroke-width:0.75;" x="1101.076745" xlink:href="#mf632a34fe8" y="289.549595"/>
     <use style="fill:#1b9e77;stroke:#000000;stroke-opacity:0;stroke-width:0.75;" x="1116.574475" xlink:href="#mf632a34fe8" y="291.053994"/>
     <use style="fill:#1b9e77;stroke:#000000;stroke-opacity:0;stroke-width:0.75;" x="1132.072205" xlink:href="#mf632a34fe8" y="292.2459"/>
     <use style="fill:#1b9e77;stroke:#000000;stroke-opacity:0;stroke-width:0.75;" x="1147.569934" xlink:href="#mf632a34fe8" y="293.177023"/>
     <use style="fill:#1b9e77;stroke:#000000;stroke-opacity:0;stroke-width:0.75;" x="1163.067664" xlink:href="#mf632a34fe8" y="293.990545"/>
     <use style="fill:#1b9e77;stroke:#000000;stroke-opacity:0;stroke-width:0.75;" x="1178.565394" xlink:href="#mf632a34fe8" y="294.746481"/>
     <use style="fill:#1b9e77;stroke:#000000;stroke-opacity:0;stroke-width:0.75;" x="1194.063124" xlink:href="#mf632a34fe8" y="295.339492"/>
     <use style="fill:#1b9e77;stroke:#000000;stroke-opacity:0;stroke-width:0.75;" x="1209.560854" xlink:href="#mf632a34fe8" y="295.667682"/>
     <use style="fill:#1b9e77;stroke:#000000;stroke-opacity:0;stroke-width:0.75;" x="1225.058583" xlink:href="#mf632a34fe8" y="296.104859"/>
     <use style="fill:#1b9e77;stroke:#000000;stroke-opacity:0;stroke-width:0.75;" x="1240.556313" xlink:href="#mf632a34fe8" y="296.417463"/>
     <use style="fill:#1b9e77;stroke:#000000;stroke-opacity:0;stroke-width:0.75;" x="1256.054043" xlink:href="#mf632a34fe8" y="296.695136"/>
     <use style="fill:#1b9e77;stroke:#000000;stroke-opacity:0;stroke-width:0.75;" x="1271.551773" xlink:href="#mf632a34fe8" y="296.801825"/>
     <use style="fill:#1b9e77;stroke:#000000;stroke-opacity:0;stroke-width:0.75;" x="1287.049502" xlink:href="#mf632a34fe8" y="296.875245"/>
     <use style="fill:#1b9e77;stroke:#000000;stroke-opacity:0;stroke-width:0.75;" x="1302.547232" xlink:href="#mf632a34fe8" y="296.930799"/>
     <use style="fill:#1b9e77;stroke:#000000;stroke-opacity:0;stroke-width:0.75;" x="1318.044962" xlink:href="#mf632a34fe8" y="296.955364"/>
     <use style="fill:#1b9e77;stroke:#000000;stroke-opacity:0;stroke-width:0.75;" x="1333.542692" xlink:href="#mf632a34fe8" y="296.955364"/>
     <use style="fill:#1b9e77;stroke:#000000;stroke-opacity:0;stroke-width:0.75;" x="1349.040421" xlink:href="#mf632a34fe8" y="296.955364"/>
     <use style="fill:#1b9e77;stroke:#000000;stroke-opacity:0;stroke-width:0.75;" x="1364.538151" xlink:href="#mf632a34fe8" y="296.955364"/>
     <use style="fill:#1b9e77;stroke:#000000;stroke-opacity:0;stroke-width:0.75;" x="1380.035881" xlink:href="#mf632a34fe8" y="296.955364"/>
     <use style="fill:#1b9e77;stroke:#000000;stroke-opacity:0;stroke-width:0.75;" x="1395.533611" xlink:href="#mf632a34fe8" y="296.955364"/>
    </g>
   </g>
   <g id="line2d_2">
    <path clip-path="url(#p0156a7b8b1)" d="M 481.167554 294.699922 
L 496.665284 275.363679 
L 512.163014 268.130933 
L 527.660743 266.172158 
L 543.158473 266.943331 
L 558.656203 266.389078 
L 574.153933 266.715334 
L 589.651663 266.720231 
L 605.149392 269.504186 
L 620.647122 271.428638 
L 636.144852 274.946277 
L 651.642582 277.42403 
L 667.140311 280.146982 
L 682.638041 281.408911 
L 698.135771 283.17392 
L 713.633501 284.286961 
L 729.131231 286.53518 
L 744.62896 288.084481 
L 760.12669 289.142316 
L 775.62442 291.809159 
L 791.12215 293.932806 
L 806.619879 296.992946 
L 822.117609 299.195253 
L 837.615339 301.943324 
L 853.113069 304.520753 
L 868.610798 308.025963 
L 884.108528 310.456223 
L 899.606258 313.97643 
L 915.103988 317.560415 
L 930.601718 320.602899 
L 946.099447 324.004292 
L 961.597177 326.534233 
L 977.094907 329.26198 
L 992.592637 331.067871 
L 1008.090366 333.796113 
L 1023.588096 335.814381 
L 1039.085826 337.753477 
L 1054.583556 339.722174 
L 1070.081286 341.636841 
L 1085.579015 342.987767 
L 1101.076745 344.200222 
L 1116.574475 345.635303 
L 1132.072205 346.500786 
L 1147.569934 347.209389 
L 1163.067664 348.112022 
L 1178.565394 348.872582 
L 1194.063124 349.411411 
L 1209.560854 349.633169 
L 1225.058583 350.0059 
L 1240.556313 350.233408 
L 1256.054043 350.461498 
L 1271.551773 350.549721 
L 1287.049502 350.583145 
L 1302.547232 350.601694 
L 1318.044962 350.620692 
L 1333.542692 350.620692 
L 1349.040421 350.620692 
L 1364.538151 350.620692 
L 1380.035881 350.620692 
L 1395.533611 350.620692 
" style="fill:none;stroke:#d95f02;stroke-linecap:round;stroke-width:1.5;"/>
    <defs>
     <path d="M 0 5 
C 1.326016 5 2.597899 4.473168 3.535534 3.535534 
C 4.473168 2.597899 5 1.326016 5 0 
C 5 -1.326016 4.473168 -2.597899 3.535534 -3.535534 
C 2.597899 -4.473168 1.326016 -5 0 -5 
C -1.326016 -5 -2.597899 -4.473168 -3.535534 -3.535534 
C -4.473168 -2.597899 -5 -1.326016 -5 0 
C -5 1.326016 -4.473168 2.597899 -3.535534 3.535534 
C -2.597899 4.473168 -1.326016 5 0 5 
z
" id="m2036e2f730" style="stroke:#000000;stroke-opacity:0;stroke-width:0.75;"/>
    </defs>
    <g clip-path="url(#p0156a7b8b1)">
     <use style="fill:#d95f02;stroke:#000000;stroke-opacity:0;stroke-width:0.75;" x="481.167554" xlink:href="#m2036e2f730" y="294.699922"/>
     <use style="fill:#d95f02;stroke:#000000;stroke-opacity:0;stroke-width:0.75;" x="496.665284" xlink:href="#m2036e2f730" y="275.363679"/>
     <use style="fill:#d95f02;stroke:#000000;stroke-opacity:0;stroke-width:0.75;" x="512.163014" xlink:href="#m2036e2f730" y="268.130933"/>
     <use style="fill:#d95f02;stroke:#000000;stroke-opacity:0;stroke-width:0.75;" x="527.660743" xlink:href="#m2036e2f730" y="266.172158"/>
     <use style="fill:#d95f02;stroke:#000000;stroke-opacity:0;stroke-width:0.75;" x="543.158473" xlink:href="#m2036e2f730" y="266.943331"/>
     <use style="fill:#d95f02;stroke:#000000;stroke-opacity:0;stroke-width:0.75;" x="558.656203" xlink:href="#m2036e2f730" y="266.389078"/>
     <use style="fill:#d95f02;stroke:#000000;stroke-opacity:0;stroke-width:0.75;" x="574.153933" xlink:href="#m2036e2f730" y="266.715334"/>
     <use style="fill:#d95f02;stroke:#000000;stroke-opacity:0;stroke-width:0.75;" x="589.651663" xlink:href="#m2036e2f730" y="266.720231"/>
     <use style="fill:#d95f02;stroke:#000000;stroke-opacity:0;stroke-width:0.75;" x="605.149392" xlink:href="#m2036e2f730" y="269.504186"/>
     <use style="fill:#d95f02;stroke:#000000;stroke-opacity:0;stroke-width:0.75;" x="620.647122" xlink:href="#m2036e2f730" y="271.428638"/>
     <use style="fill:#d95f02;stroke:#000000;stroke-opacity:0;stroke-width:0.75;" x="636.144852" xlink:href="#m2036e2f730" y="274.946277"/>
     <use style="fill:#d95f02;stroke:#000000;stroke-opacity:0;stroke-width:0.75;" x="651.642582" xlink:href="#m2036e2f730" y="277.42403"/>
     <use style="fill:#d95f02;stroke:#000000;stroke-opacity:0;stroke-width:0.75;" x="667.140311" xlink:href="#m2036e2f730" y="280.146982"/>
     <use style="fill:#d95f02;stroke:#000000;stroke-opacity:0;stroke-width:0.75;" x="682.638041" xlink:href="#m2036e2f730" y="281.408911"/>
     <use style="fill:#d95f02;stroke:#000000;stroke-opacity:0;stroke-width:0.75;" x="698.135771" xlink:href="#m2036e2f730" y="283.17392"/>
     <use style="fill:#d95f02;stroke:#000000;stroke-opacity:0;stroke-width:0.75;" x="713.633501" xlink:href="#m2036e2f730" y="284.286961"/>
     <use style="fill:#d95f02;stroke:#000000;stroke-opacity:0;stroke-width:0.75;" x="729.131231" xlink:href="#m2036e2f730" y="286.53518"/>
     <use style="fill:#d95f02;stroke:#000000;stroke-opacity:0;stroke-width:0.75;" x="744.62896" xlink:href="#m2036e2f730" y="288.084481"/>
     <use style="fill:#d95f02;stroke:#000000;stroke-opacity:0;stroke-width:0.75;" x="760.12669" xlink:href="#m2036e2f730" y="289.142316"/>
     <use style="fill:#d95f02;stroke:#000000;stroke-opacity:0;stroke-width:0.75;" x="775.62442" xlink:href="#m2036e2f730" y="291.809159"/>
     <use style="fill:#d95f02;stroke:#000000;stroke-opacity:0;stroke-width:0.75;" x="791.12215" xlink:href="#m2036e2f730" y="293.932806"/>
     <use style="fill:#d95f02;stroke:#000000;stroke-opacity:0;stroke-width:0.75;" x="806.619879" xlink:href="#m2036e2f730" y="296.992946"/>
     <use style="fill:#d95f02;stroke:#000000;stroke-opacity:0;stroke-width:0.75;" x="822.117609" xlink:href="#m2036e2f730" y="299.195253"/>
     <use style="fill:#d95f02;stroke:#000000;stroke-opacity:0;stroke-width:0.75;" x="837.615339" xlink:href="#m2036e2f730" y="301.943324"/>
     <use style="fill:#d95f02;stroke:#000000;stroke-opacity:0;stroke-width:0.75;" x="853.113069" xlink:href="#m2036e2f730" y="304.520753"/>
     <use style="fill:#d95f02;stroke:#000000;stroke-opacity:0;stroke-width:0.75;" x="868.610798" xlink:href="#m2036e2f730" y="308.025963"/>
     <use style="fill:#d95f02;stroke:#000000;stroke-opacity:0;stroke-width:0.75;" x="884.108528" xlink:href="#m2036e2f730" y="310.456223"/>
     <use style="fill:#d95f02;stroke:#000000;stroke-opacity:0;stroke-width:0.75;" x="899.606258" xlink:href="#m2036e2f730" y="313.97643"/>
     <use style="fill:#d95f02;stroke:#000000;stroke-opacity:0;stroke-width:0.75;" x="915.103988" xlink:href="#m2036e2f730" y="317.560415"/>
     <use style="fill:#d95f02;stroke:#000000;stroke-opacity:0;stroke-width:0.75;" x="930.601718" xlink:href="#m2036e2f730" y="320.602899"/>
     <use style="fill:#d95f02;stroke:#000000;stroke-opacity:0;stroke-width:0.75;" x="946.099447" xlink:href="#m2036e2f730" y="324.004292"/>
     <use style="fill:#d95f02;stroke:#000000;stroke-opacity:0;stroke-width:0.75;" x="961.597177" xlink:href="#m2036e2f730" y="326.534233"/>
     <use style="fill:#d95f02;stroke:#000000;stroke-opacity:0;stroke-width:0.75;" x="977.094907" xlink:href="#m2036e2f730" y="329.26198"/>
     <use style="fill:#d95f02;stroke:#000000;stroke-opacity:0;stroke-width:0.75;" x="992.592637" xlink:href="#m2036e2f730" y="331.067871"/>
     <use style="fill:#d95f02;stroke:#000000;stroke-opacity:0;stroke-width:0.75;" x="1008.090366" xlink:href="#m2036e2f730" y="333.796113"/>
     <use style="fill:#d95f02;stroke:#000000;stroke-opacity:0;stroke-width:0.75;" x="1023.588096" xlink:href="#m2036e2f730" y="335.814381"/>
     <use style="fill:#d95f02;stroke:#000000;stroke-opacity:0;stroke-width:0.75;" x="1039.085826" xlink:href="#m2036e2f730" y="337.753477"/>
     <use style="fill:#d95f02;stroke:#000000;stroke-opacity:0;stroke-width:0.75;" x="1054.583556" xlink:href="#m2036e2f730" y="339.722174"/>
     <use style="fill:#d95f02;stroke:#000000;stroke-opacity:0;stroke-width:0.75;" x="1070.081286" xlink:href="#m2036e2f730" y="341.636841"/>
     <use style="fill:#d95f02;stroke:#000000;stroke-opacity:0;stroke-width:0.75;" x="1085.579015" xlink:href="#m2036e2f730" y="342.987767"/>
     <use style="fill:#d95f02;stroke:#000000;stroke-opacity:0;stroke-width:0.75;" x="1101.076745" xlink:href="#m2036e2f730" y="344.200222"/>
     <use style="fill:#d95f02;stroke:#000000;stroke-opacity:0;stroke-width:0.75;" x="1116.574475" xlink:href="#m2036e2f730" y="345.635303"/>
     <use style="fill:#d95f02;stroke:#000000;stroke-opacity:0;stroke-width:0.75;" x="1132.072205" xlink:href="#m2036e2f730" y="346.500786"/>
     <use style="fill:#d95f02;stroke:#000000;stroke-opacity:0;stroke-width:0.75;" x="1147.569934" xlink:href="#m2036e2f730" y="347.209389"/>
     <use style="fill:#d95f02;stroke:#000000;stroke-opacity:0;stroke-width:0.75;" x="1163.067664" xlink:href="#m2036e2f730" y="348.112022"/>
     <use style="fill:#d95f02;stroke:#000000;stroke-opacity:0;stroke-width:0.75;" x="1178.565394" xlink:href="#m2036e2f730" y="348.872582"/>
     <use style="fill:#d95f02;stroke:#000000;stroke-opacity:0;stroke-width:0.75;" x="1194.063124" xlink:href="#m2036e2f730" y="349.411411"/>
     <use style="fill:#d95f02;stroke:#000000;stroke-opacity:0;stroke-width:0.75;" x="1209.560854" xlink:href="#m2036e2f730" y="349.633169"/>
     <use style="fill:#d95f02;stroke:#000000;stroke-opacity:0;stroke-width:0.75;" x="1225.058583" xlink:href="#m2036e2f730" y="350.0059"/>
     <use style="fill:#d95f02;stroke:#000000;stroke-opacity:0;stroke-width:0.75;" x="1240.556313" xlink:href="#m2036e2f730" y="350.233408"/>
     <use style="fill:#d95f02;stroke:#000000;stroke-opacity:0;stroke-width:0.75;" x="1256.054043" xlink:href="#m2036e2f730" y="350.461498"/>
     <use style="fill:#d95f02;stroke:#000000;stroke-opacity:0;stroke-width:0.75;" x="1271.551773" xlink:href="#m2036e2f730" y="350.549721"/>
     <use style="fill:#d95f02;stroke:#000000;stroke-opacity:0;stroke-width:0.75;" x="1287.049502" xlink:href="#m2036e2f730" y="350.583145"/>
     <use style="fill:#d95f02;stroke:#000000;stroke-opacity:0;stroke-width:0.75;" x="1302.547232" xlink:href="#m2036e2f730" y="350.601694"/>
     <use style="fill:#d95f02;stroke:#000000;stroke-opacity:0;stroke-width:0.75;" x="1318.044962" xlink:href="#m2036e2f730" y="350.620692"/>
     <use style="fill:#d95f02;stroke:#000000;stroke-opacity:0;stroke-width:0.75;" x="1333.542692" xlink:href="#m2036e2f730" y="350.620692"/>
     <use style="fill:#d95f02;stroke:#000000;stroke-opacity:0;stroke-width:0.75;" x="1349.040421" xlink:href="#m2036e2f730" y="350.620692"/>
     <use style="fill:#d95f02;stroke:#000000;stroke-opacity:0;stroke-width:0.75;" x="1364.538151" xlink:href="#m2036e2f730" y="350.620692"/>
     <use style="fill:#d95f02;stroke:#000000;stroke-opacity:0;stroke-width:0.75;" x="1380.035881" xlink:href="#m2036e2f730" y="350.620692"/>
     <use style="fill:#d95f02;stroke:#000000;stroke-opacity:0;stroke-width:0.75;" x="1395.533611" xlink:href="#m2036e2f730" y="350.620692"/>
    </g>
   </g>
   <g id="line2d_3"/>
   <g id="line2d_4"/>
   <g id="patch_3">
    <path d="M 462.880233 548 
L 462.880233 131 
" style="fill:none;stroke:#262626;stroke-linecap:square;stroke-linejoin:miter;stroke-width:2;"/>
   </g>
   <g id="patch_4">
    <path d="M 462.880233 548 
L 1413.820932 548 
" style="fill:none;stroke:#262626;stroke-linecap:square;stroke-linejoin:miter;stroke-width:2;"/>
   </g>
   <g id="legend_1">
    <g id="line2d_5">
     <path d="M 1163.269057 167.0325 
L 1219.269057 167.0325 
" style="fill:none;stroke:#1b9e77;stroke-linecap:round;stroke-width:1.5;"/>
    </g>
    <g id="line2d_6">
     <g>
      <use style="fill:#1b9e77;stroke:#000000;stroke-opacity:0;stroke-width:0.75;" x="1191.269057" xlink:href="#mf632a34fe8" y="167.0325"/>
     </g>
    </g>
    <g id="text_16">
     <!-- Congruent -->
     <g style="fill:#262626;" transform="translate(1241.669057 176.8325)scale(0.28 -0.28)">
      <defs>
       <path d="M 831 1684 
Q 831 1069 1075 730 
Q 1319 391 1734 391 
Q 2138 391 2394 684 
Q 2650 978 2650 1516 
Q 2650 2222 2426 2580 
Q 2203 2938 1747 2938 
Q 1288 2938 1059 2633 
Q 831 2328 831 1684 
z
M 3188 191 
Q 3188 -616 2800 -1012 
Q 2413 -1409 1631 -1409 
Q 1069 -1409 736 -1150 
Q 403 -891 353 -409 
L 916 -409 
Q 959 -653 1142 -797 
Q 1325 -941 1672 -941 
Q 2144 -941 2384 -687 
Q 2625 -434 2625 134 
L 2625 372 
L 2613 372 
Q 2297 -97 1722 -97 
Q 1006 -97 628 431 
Q 250 959 250 1772 
Q 250 2516 631 2980 
Q 1013 3444 1644 3444 
Q 2278 3444 2644 2875 
L 2656 2875 
L 2656 3347 
L 3188 3347 
L 3188 191 
z
" id="HelveticaWorld-Regular-67" transform="scale(0.015625)"/>
      </defs>
      <use xlink:href="#HelveticaWorld-Regular-43"/>
      <use x="72.314453" xlink:href="#HelveticaWorld-Regular-6f"/>
      <use x="128.222656" xlink:href="#HelveticaWorld-Regular-6e"/>
      <use x="183.398438" xlink:href="#HelveticaWorld-Regular-67"/>
      <use x="239.306641" xlink:href="#HelveticaWorld-Regular-72"/>
      <use x="271.875" xlink:href="#HelveticaWorld-Regular-75"/>
      <use x="326.660156" xlink:href="#HelveticaWorld-Regular-65"/>
      <use x="382.080078" xlink:href="#HelveticaWorld-Regular-6e"/>
      <use x="437.255859" xlink:href="#HelveticaWorld-Regular-74"/>
     </g>
    </g>
    <g id="line2d_7">
     <path d="M 1163.269057 207.295625 
L 1219.269057 207.295625 
" style="fill:none;stroke:#d95f02;stroke-linecap:round;stroke-width:1.5;"/>
    </g>
    <g id="line2d_8">
     <g>
      <use style="fill:#d95f02;stroke:#000000;stroke-opacity:0;stroke-width:0.75;" x="1191.269057" xlink:href="#m2036e2f730" y="207.295625"/>
     </g>
    </g>
    <g id="text_17">
     <!-- Incongruent -->
     <g style="fill:#262626;" transform="translate(1241.669057 217.095625)scale(0.28 -0.28)">
      <defs>
       <path d="M 2534 2222 
Q 2413 2938 1741 2938 
Q 1325 2938 1072 2605 
Q 819 2272 819 1678 
Q 819 1031 1053 711 
Q 1288 391 1734 391 
Q 2034 391 2253 611 
Q 2472 831 2534 1184 
L 3078 1184 
Q 2994 563 2639 233 
Q 2284 -97 1722 -97 
Q 1063 -97 641 354 
Q 219 806 219 1581 
Q 219 2431 641 2937 
Q 1063 3444 1825 3444 
Q 2381 3444 2711 3111 
Q 3041 2778 3078 2222 
L 2534 2222 
z
" id="HelveticaWorld-Regular-63" transform="scale(0.015625)"/>
      </defs>
      <use xlink:href="#HelveticaWorld-Regular-49"/>
      <use x="25.78125" xlink:href="#HelveticaWorld-Regular-6e"/>
      <use x="80.957031" xlink:href="#HelveticaWorld-Regular-63"/>
      <use x="132.226562" xlink:href="#HelveticaWorld-Regular-6f"/>
      <use x="188.134766" xlink:href="#HelveticaWorld-Regular-6e"/>
      <use x="243.310547" xlink:href="#HelveticaWorld-Regular-67"/>
      <use x="299.21875" xlink:href="#HelveticaWorld-Regular-72"/>
      <use x="331.787109" xlink:href="#HelveticaWorld-Regular-75"/>
      <use x="386.572266" xlink:href="#HelveticaWorld-Regular-65"/>
      <use x="441.992188" xlink:href="#HelveticaWorld-Regular-6e"/>
      <use x="497.167969" xlink:href="#HelveticaWorld-Regular-74"/>
     </g>
    </g>
   </g>
  </g>
  <g id="axes_2">
   <g id="patch_5">
    <path d="M 115.55 668.2 
L 371.830233 668.2 
L 371.830233 10.8 
L 115.55 10.8 
z
" style="fill:#ffffff;"/>
   </g>
   <g id="matplotlib.axis_3">
    <g id="xtick_9"/>
    <g id="text_18">
     <!-- Average -->
     <g style="fill:#262626;" transform="translate(185.500116 702.17)scale(0.32 -0.32)">
      <defs>
       <path d="M 2816 1888 
L 2138 3909 
L 2125 3909 
L 1388 1888 
L 2816 1888 
z
M 1197 1338 
L 716 0 
L 78 0 
L 1806 4594 
L 2509 4594 
L 4172 0 
L 3494 0 
L 3041 1338 
L 1197 1338 
z
" id="HelveticaWorld-Regular-41" transform="scale(0.015625)"/>
       <path d="M 2522 3347 
L 3138 3347 
L 1863 0 
L 1259 0 
L 38 3347 
L 691 3347 
L 1563 622 
L 1575 622 
L 2522 3347 
z
" id="HelveticaWorld-Regular-76" transform="scale(0.015625)"/>
      </defs>
      <use xlink:href="#HelveticaWorld-Regular-41"/>
      <use x="62.824219" xlink:href="#HelveticaWorld-Regular-76"/>
      <use x="110.433594" xlink:href="#HelveticaWorld-Regular-65"/>
      <use x="165.853516" xlink:href="#HelveticaWorld-Regular-72"/>
      <use x="197.421875" xlink:href="#HelveticaWorld-Regular-61"/>
      <use x="252.353516" xlink:href="#HelveticaWorld-Regular-67"/>
      <use x="308.261719" xlink:href="#HelveticaWorld-Regular-65"/>
     </g>
    </g>
   </g>
   <g id="matplotlib.axis_4">
    <g id="ytick_6">
     <g id="text_19">
      <!-- 0.6 -->
      <g style="fill:#262626;" transform="translate(45.32 632.727857)scale(0.32 -0.32)">
       <defs>
        <path d="M 3494 1381 
L 256 1381 
L 256 1850 
L 3494 1850 
L 3494 1381 
z
" id="HelveticaWorld-Regular-2212" transform="scale(0.015625)"/>
       </defs>
       <use xlink:href="#HelveticaWorld-Regular-2212"/>
       <use x="58.59375" xlink:href="#HelveticaWorld-Regular-30"/>
       <use x="114.208984" xlink:href="#HelveticaWorld-Regular-2e"/>
       <use x="141.992188" xlink:href="#HelveticaWorld-Regular-36"/>
      </g>
     </g>
    </g>
    <g id="ytick_7">
     <g id="text_20">
      <!-- 0.4 -->
      <g style="fill:#262626;" transform="translate(45.32 538.813571)scale(0.32 -0.32)">
       <use xlink:href="#HelveticaWorld-Regular-2212"/>
       <use x="58.59375" xlink:href="#HelveticaWorld-Regular-30"/>
       <use x="114.208984" xlink:href="#HelveticaWorld-Regular-2e"/>
       <use x="141.992188" xlink:href="#HelveticaWorld-Regular-34"/>
      </g>
     </g>
    </g>
    <g id="ytick_8">
     <g id="text_21">
      <!-- 0.2 -->
      <g style="fill:#262626;" transform="translate(45.32 444.899286)scale(0.32 -0.32)">
       <use xlink:href="#HelveticaWorld-Regular-2212"/>
       <use x="58.59375" xlink:href="#HelveticaWorld-Regular-30"/>
       <use x="114.208984" xlink:href="#HelveticaWorld-Regular-2e"/>
       <use x="141.992188" xlink:href="#HelveticaWorld-Regular-32"/>
      </g>
     </g>
    </g>
    <g id="ytick_9">
     <g id="text_22">
      <!-- 0.0 -->
      <g style="fill:#262626;" transform="translate(64.07 350.985)scale(0.32 -0.32)">
       <use xlink:href="#HelveticaWorld-Regular-30"/>
       <use x="55.615234" xlink:href="#HelveticaWorld-Regular-2e"/>
       <use x="83.398438" xlink:href="#HelveticaWorld-Regular-30"/>
      </g>
     </g>
    </g>
    <g id="ytick_10">
     <g id="text_23">
      <!-- 0.2 -->
      <g style="fill:#262626;" transform="translate(64.07 257.070714)scale(0.32 -0.32)">
       <use xlink:href="#HelveticaWorld-Regular-30"/>
       <use x="55.615234" xlink:href="#HelveticaWorld-Regular-2e"/>
       <use x="83.398438" xlink:href="#HelveticaWorld-Regular-32"/>
      </g>
     </g>
    </g>
    <g id="ytick_11">
     <g id="text_24">
      <!-- 0.4 -->
      <g style="fill:#262626;" transform="translate(64.07 163.156429)scale(0.32 -0.32)">
       <use xlink:href="#HelveticaWorld-Regular-30"/>
       <use x="55.615234" xlink:href="#HelveticaWorld-Regular-2e"/>
       <use x="83.398438" xlink:href="#HelveticaWorld-Regular-34"/>
      </g>
     </g>
    </g>
    <g id="ytick_12">
     <g id="text_25">
      <!-- 0.6 -->
      <g style="fill:#262626;" transform="translate(64.07 69.242143)scale(0.32 -0.32)">
       <use xlink:href="#HelveticaWorld-Regular-30"/>
       <use x="55.615234" xlink:href="#HelveticaWorld-Regular-2e"/>
       <use x="83.398438" xlink:href="#HelveticaWorld-Regular-36"/>
      </g>
     </g>
    </g>
    <g id="text_26">
     <!--  Classifier information (a.u.) -->
     <g style="fill:#262626;" transform="translate(34.695 542.7325)rotate(-90)scale(0.32 -0.32)">
      <defs>
       <path d="M 941 550 
L 3244 550 
L 2125 3891 
L 2113 3891 
L 941 550 
z
M 97 0 
L 1831 4594 
L 2456 4594 
L 4128 0 
L 97 0 
z
" id="HelveticaWorld-Regular-394" transform="scale(0.015625)"/>
      </defs>
      <use xlink:href="#HelveticaWorld-Regular-394"/>
      <use x="66.015625" xlink:href="#HelveticaWorld-Regular-20"/>
      <use x="90.429688" xlink:href="#HelveticaWorld-Regular-43"/>
      <use x="162.744141" xlink:href="#HelveticaWorld-Regular-6c"/>
      <use x="184.765625" xlink:href="#HelveticaWorld-Regular-61"/>
      <use x="239.697266" xlink:href="#HelveticaWorld-Regular-73"/>
      <use x="289.697266" xlink:href="#HelveticaWorld-Regular-73"/>
      <use x="339.697266" xlink:href="#HelveticaWorld-Regular-69"/>
      <use x="361.71875" xlink:href="#HelveticaWorld-Regular-66"/>
      <use x="389.404297" xlink:href="#HelveticaWorld-Regular-69"/>
      <use x="411.425781" xlink:href="#HelveticaWorld-Regular-65"/>
      <use x="466.845703" xlink:href="#HelveticaWorld-Regular-72"/>
      <use x="499.414062" xlink:href="#HelveticaWorld-Regular-20"/>
      <use x="523.828125" xlink:href="#HelveticaWorld-Regular-69"/>
      <use x="545.849609" xlink:href="#HelveticaWorld-Regular-6e"/>
      <use x="601.025391" xlink:href="#HelveticaWorld-Regular-66"/>
      <use x="626.710938" xlink:href="#HelveticaWorld-Regular-6f"/>
      <use x="682.619141" xlink:href="#HelveticaWorld-Regular-72"/>
      <use x="715.1875" xlink:href="#HelveticaWorld-Regular-6d"/>
      <use x="798.195312" xlink:href="#HelveticaWorld-Regular-61"/>
      <use x="853.126953" xlink:href="#HelveticaWorld-Regular-74"/>
      <use x="880.8125" xlink:href="#HelveticaWorld-Regular-69"/>
      <use x="902.833984" xlink:href="#HelveticaWorld-Regular-6f"/>
      <use x="958.742188" xlink:href="#HelveticaWorld-Regular-6e"/>
      <use x="1013.917969" xlink:href="#HelveticaWorld-Regular-20"/>
      <use x="1038.332031" xlink:href="#HelveticaWorld-Regular-28"/>
      <use x="1071.632812" xlink:href="#HelveticaWorld-Regular-61"/>
      <use x="1126.564453" xlink:href="#HelveticaWorld-Regular-2e"/>
      <use x="1154.347656" xlink:href="#HelveticaWorld-Regular-75"/>
      <use x="1209.132812" xlink:href="#HelveticaWorld-Regular-2e"/>
      <use x="1236.916016" xlink:href="#HelveticaWorld-Regular-29"/>
     </g>
    </g>
   </g>
   <g id="PolyCollection_3">
    <defs>
     <path d="M 219.165692 -110.847225 
L 218.444381 -110.847225 
L 218.173456 -116.234406 
L 217.837637 -121.621586 
L 217.436006 -127.008767 
L 216.97325 -132.395948 
L 216.460582 -137.783128 
L 215.91585 -143.170309 
L 215.362569 -148.55749 
L 214.8278 -153.94467 
L 214.339001 -159.331851 
L 213.920253 -164.719032 
L 213.588436 -170.106212 
L 213.350076 -175.493393 
L 213.199513 -180.880573 
L 213.118878 -186.267754 
L 213.080023 -191.654935 
L 213.048217 -197.042115 
L 212.987012 -202.429296 
L 212.863489 -207.816477 
L 212.652953 -213.203657 
L 212.342267 -218.590838 
L 211.931215 -223.978019 
L 211.431673 -229.365199 
L 210.864695 -234.75238 
L 210.256009 -240.13956 
L 209.630625 -245.526741 
L 209.007422 -250.913922 
L 208.394572 -256.301102 
L 207.786554 -261.688283 
L 207.163288 -267.075464 
L 206.491625 -272.462644 
L 205.729065 -277.849825 
L 204.829186 -283.237005 
L 203.747886 -288.624186 
L 202.449294 -294.011367 
L 200.910114 -299.398547 
L 199.121356 -304.785728 
L 197.086881 -310.172909 
L 194.818875 -315.560089 
L 192.331173 -320.94727 
L 189.632036 -326.334451 
L 186.71835 -331.721631 
L 183.573107 -337.108812 
L 180.167418 -342.495992 
L 176.467284 -347.883173 
L 172.444188 -353.270354 
L 168.087562 -358.657534 
L 163.416612 -364.044715 
L 158.489008 -369.431896 
L 153.404561 -374.819076 
L 148.303025 -380.206257 
L 143.356284 -385.593438 
L 138.756157 -390.980618 
L 134.699602 -396.367799 
L 131.373239 -401.754979 
L 128.938875 -407.14216 
L 127.521287 -412.529341 
L 127.199101 -417.916521 
L 127.999264 -423.303702 
L 129.895402 -428.690883 
L 132.810197 -434.078063 
L 136.621671 -439.465244 
L 141.172909 -444.852425 
L 146.284319 -450.239605 
L 151.767074 -455.626786 
L 157.436122 -461.013966 
L 163.121193 -466.401147 
L 168.674608 -471.788328 
L 173.975366 -477.175508 
L 178.929722 -482.562689 
L 183.469163 -487.94987 
L 187.54701 -493.33705 
L 191.134918 -498.724231 
L 194.220212 -504.111412 
L 196.804456 -509.498592 
L 198.903162 -514.885773 
L 200.546081 -520.272953 
L 201.777384 -525.660134 
L 202.655044 -531.047315 
L 203.248975 -536.434495 
L 203.637777 -541.821676 
L 203.904213 -547.208857 
L 204.129824 -552.596037 
L 204.38922 -557.983218 
L 204.74468 -563.370399 
L 205.241713 -568.757579 
L 205.906114 -574.14476 
L 206.742963 -579.53194 
L 207.737698 -584.919121 
L 208.859201 -590.306302 
L 210.064455 -595.693482 
L 211.304167 -601.080663 
L 212.528554 -606.467844 
L 213.692536 -611.855024 
L 214.7597 -617.242205 
L 215.704669 -622.629385 
L 216.513785 -628.016566 
L 217.184305 -633.403747 
L 217.722504 -638.790927 
L 218.141168 -644.178108 
L 219.165692 -644.178108 
L 219.165692 -644.178108 
L 219.165692 -638.790927 
L 219.165692 -633.403747 
L 219.165692 -628.016566 
L 219.165692 -622.629385 
L 219.165692 -617.242205 
L 219.165692 -611.855024 
L 219.165692 -606.467844 
L 219.165692 -601.080663 
L 219.165692 -595.693482 
L 219.165692 -590.306302 
L 219.165692 -584.919121 
L 219.165692 -579.53194 
L 219.165692 -574.14476 
L 219.165692 -568.757579 
L 219.165692 -563.370399 
L 219.165692 -557.983218 
L 219.165692 -552.596037 
L 219.165692 -547.208857 
L 219.165692 -541.821676 
L 219.165692 -536.434495 
L 219.165692 -531.047315 
L 219.165692 -525.660134 
L 219.165692 -520.272953 
L 219.165692 -514.885773 
L 219.165692 -509.498592 
L 219.165692 -504.111412 
L 219.165692 -498.724231 
L 219.165692 -493.33705 
L 219.165692 -487.94987 
L 219.165692 -482.562689 
L 219.165692 -477.175508 
L 219.165692 -471.788328 
L 219.165692 -466.401147 
L 219.165692 -461.013966 
L 219.165692 -455.626786 
L 219.165692 -450.239605 
L 219.165692 -444.852425 
L 219.165692 -439.465244 
L 219.165692 -434.078063 
L 219.165692 -428.690883 
L 219.165692 -423.303702 
L 219.165692 -417.916521 
L 219.165692 -412.529341 
L 219.165692 -407.14216 
L 219.165692 -401.754979 
L 219.165692 -396.367799 
L 219.165692 -390.980618 
L 219.165692 -385.593438 
L 219.165692 -380.206257 
L 219.165692 -374.819076 
L 219.165692 -369.431896 
L 219.165692 -364.044715 
L 219.165692 -358.657534 
L 219.165692 -353.270354 
L 219.165692 -347.883173 
L 219.165692 -342.495992 
L 219.165692 -337.108812 
L 219.165692 -331.721631 
L 219.165692 -326.334451 
L 219.165692 -320.94727 
L 219.165692 -315.560089 
L 219.165692 -310.172909 
L 219.165692 -304.785728 
L 219.165692 -299.398547 
L 219.165692 -294.011367 
L 219.165692 -288.624186 
L 219.165692 -283.237005 
L 219.165692 -277.849825 
L 219.165692 -272.462644 
L 219.165692 -267.075464 
L 219.165692 -261.688283 
L 219.165692 -256.301102 
L 219.165692 -250.913922 
L 219.165692 -245.526741 
L 219.165692 -240.13956 
L 219.165692 -234.75238 
L 219.165692 -229.365199 
L 219.165692 -223.978019 
L 219.165692 -218.590838 
L 219.165692 -213.203657 
L 219.165692 -207.816477 
L 219.165692 -202.429296 
L 219.165692 -197.042115 
L 219.165692 -191.654935 
L 219.165692 -186.267754 
L 219.165692 -180.880573 
L 219.165692 -175.493393 
L 219.165692 -170.106212 
L 219.165692 -164.719032 
L 219.165692 -159.331851 
L 219.165692 -153.94467 
L 219.165692 -148.55749 
L 219.165692 -143.170309 
L 219.165692 -137.783128 
L 219.165692 -132.395948 
L 219.165692 -127.008767 
L 219.165692 -121.621586 
L 219.165692 -116.234406 
L 219.165692 -110.847225 
z
" id="mcc44253b1a" style="stroke:#7a7a7a;stroke-width:1.5;"/>
    </defs>
    <g clip-path="url(#p634930f94d)">
     <use style="fill:#cccccc;stroke:#7a7a7a;stroke-width:1.5;" x="0" xlink:href="#mcc44253b1a" y="720"/>
    </g>
   </g>
   <g id="PolyCollection_4">
    <defs>
     <path d="M 219.165692 -380.5 
L 148.303025 -380.5 
L 143.356284 -385.593438 
L 138.756157 -390.980618 
L 134.699602 -396.367799 
L 131.373239 -401.754979 
L 131.373239 -401.754979 
L 128.938875 -407.14216 
L 127.521287 -412.529341 
L 127.199101 -417.916521 
L 127.999264 -423.303702 
L 129.895402 -428.690883 
L 132.810197 -434.078063 
L 219.165692 -434.078063 
L 219.165692 -434.078063 
L 219.165692 -428.690883 
L 219.165692 -423.303702 
L 219.165692 -417.916521 
L 219.165692 -412.529341 
L 219.165692 -407.14216 
L 219.165692 -401.754979 
L 219.165692 -401.754979 
L 219.165692 -396.367799 
L 219.165692 -390.980618 
L 219.165692 -385.593438 
L 219.165692 -380.5 
z
" id="ma46dd3c924" style="stroke:#666666;stroke-width:1.5;"/>
    </defs>
    <g clip-path="url(#p634930f94d)">
     <use style="fill:#8f8f8f;stroke:#666666;stroke-width:1.5;" x="0" xlink:href="#ma46dd3c924" y="720"/>
    </g>
   </g>
   <g id="PolyCollection_5">
    <defs>
     <path d="M 268.214541 -193.918627 
L 269.322226 -193.918627 
L 269.744876 -198.903855 
L 270.284764 -203.889083 
L 270.95847 -208.874312 
L 271.780327 -213.85954 
L 272.761339 -218.844768 
L 273.908371 -223.829997 
L 275.223764 -228.815225 
L 276.705415 -233.800453 
L 278.347279 -238.785681 
L 280.140156 -243.77091 
L 282.072534 -248.756138 
L 284.131272 -253.741366 
L 286.30196 -258.726595 
L 288.568914 -263.711823 
L 290.914905 -268.697051 
L 293.320885 -273.68228 
L 295.766004 -278.667508 
L 298.228222 -283.652736 
L 300.68567 -288.637965 
L 303.118728 -293.623193 
L 305.512567 -298.608421 
L 307.859711 -303.59365 
L 310.162097 -308.578878 
L 312.432144 -313.564106 
L 314.692469 -318.549335 
L 316.974094 -323.534563 
L 319.313222 -328.519791 
L 321.746853 -333.50502 
L 324.30763 -338.490248 
L 327.01845 -343.475476 
L 329.887403 -348.460705 
L 332.903664 -353.445933 
L 336.035013 -358.431161 
L 339.22759 -363.416389 
L 342.408392 -368.401618 
L 345.490716 -373.386846 
L 348.382323 -378.372074 
L 350.995548 -383.357303 
L 353.258091 -388.342531 
L 355.122805 -393.327759 
L 356.574729 -398.312988 
L 357.633846 -403.298216 
L 358.352648 -408.283444 
L 358.808421 -413.268673 
L 359.09109 -418.253901 
L 359.288293 -423.239129 
L 359.469907 -428.224358 
L 359.674453 -433.209586 
L 359.899568 -438.194814 
L 360.098177 -443.180043 
L 360.181131 -448.165271 
L 360.026125 -453.150499 
L 359.49176 -458.135728 
L 358.434875 -463.120956 
L 356.728801 -468.106184 
L 354.280085 -473.091413 
L 351.041507 -478.076641 
L 347.019804 -483.061869 
L 342.277295 -488.047097 
L 336.927464 -493.032326 
L 331.125334 -498.017554 
L 325.054056 -503.002782 
L 318.909454 -507.988011 
L 312.884332 -512.973239 
L 307.154158 -517.958467 
L 301.865427 -522.943696 
L 297.127554 -527.928924 
L 293.008739 -532.914152 
L 289.535793 -537.899381 
L 286.69756 -542.884609 
L 284.451262 -547.869837 
L 282.730812 -552.855066 
L 281.456045 -557.840294 
L 280.541721 -562.825522 
L 279.905298 -567.810751 
L 279.472685 -572.795979 
L 279.181545 -577.781207 
L 278.982131 -582.766436 
L 278.836063 -587.751664 
L 278.713763 -592.736892 
L 278.591407 -597.722121 
L 278.448281 -602.707349 
L 278.265138 -607.692577 
L 278.023895 -612.677805 
L 277.708568 -617.663034 
L 277.307054 -622.648262 
L 276.813148 -627.63349 
L 276.228159 -632.618719 
L 275.561607 -637.603947 
L 274.830743 -642.589175 
L 274.058907 -647.574404 
L 273.273018 -652.559632 
L 272.500643 -657.54486 
L 271.767152 -662.530089 
L 271.093407 -667.515317 
L 270.494266 -672.500545 
L 269.97803 -677.485774 
L 269.546738 -682.471002 
L 269.197132 -687.45623 
L 268.214541 -687.45623 
L 268.214541 -687.45623 
L 268.214541 -682.471002 
L 268.214541 -677.485774 
L 268.214541 -672.500545 
L 268.214541 -667.515317 
L 268.214541 -662.530089 
L 268.214541 -657.54486 
L 268.214541 -652.559632 
L 268.214541 -647.574404 
L 268.214541 -642.589175 
L 268.214541 -637.603947 
L 268.214541 -632.618719 
L 268.214541 -627.63349 
L 268.214541 -622.648262 
L 268.214541 -617.663034 
L 268.214541 -612.677805 
L 268.214541 -607.692577 
L 268.214541 -602.707349 
L 268.214541 -597.722121 
L 268.214541 -592.736892 
L 268.214541 -587.751664 
L 268.214541 -582.766436 
L 268.214541 -577.781207 
L 268.214541 -572.795979 
L 268.214541 -567.810751 
L 268.214541 -562.825522 
L 268.214541 -557.840294 
L 268.214541 -552.855066 
L 268.214541 -547.869837 
L 268.214541 -542.884609 
L 268.214541 -537.899381 
L 268.214541 -532.914152 
L 268.214541 -527.928924 
L 268.214541 -522.943696 
L 268.214541 -517.958467 
L 268.214541 -512.973239 
L 268.214541 -507.988011 
L 268.214541 -503.002782 
L 268.214541 -498.017554 
L 268.214541 -493.032326 
L 268.214541 -488.047097 
L 268.214541 -483.061869 
L 268.214541 -478.076641 
L 268.214541 -473.091413 
L 268.214541 -468.106184 
L 268.214541 -463.120956 
L 268.214541 -458.135728 
L 268.214541 -453.150499 
L 268.214541 -448.165271 
L 268.214541 -443.180043 
L 268.214541 -438.194814 
L 268.214541 -433.209586 
L 268.214541 -428.224358 
L 268.214541 -423.239129 
L 268.214541 -418.253901 
L 268.214541 -413.268673 
L 268.214541 -408.283444 
L 268.214541 -403.298216 
L 268.214541 -398.312988 
L 268.214541 -393.327759 
L 268.214541 -388.342531 
L 268.214541 -383.357303 
L 268.214541 -378.372074 
L 268.214541 -373.386846 
L 268.214541 -368.401618 
L 268.214541 -363.416389 
L 268.214541 -358.431161 
L 268.214541 -353.445933 
L 268.214541 -348.460705 
L 268.214541 -343.475476 
L 268.214541 -338.490248 
L 268.214541 -333.50502 
L 268.214541 -328.519791 
L 268.214541 -323.534563 
L 268.214541 -318.549335 
L 268.214541 -313.564106 
L 268.214541 -308.578878 
L 268.214541 -303.59365 
L 268.214541 -298.608421 
L 268.214541 -293.623193 
L 268.214541 -288.637965 
L 268.214541 -283.652736 
L 268.214541 -278.667508 
L 268.214541 -273.68228 
L 268.214541 -268.697051 
L 268.214541 -263.711823 
L 268.214541 -258.726595 
L 268.214541 -253.741366 
L 268.214541 -248.756138 
L 268.214541 -243.77091 
L 268.214541 -238.785681 
L 268.214541 -233.800453 
L 268.214541 -228.815225 
L 268.214541 -223.829997 
L 268.214541 -218.844768 
L 268.214541 -213.85954 
L 268.214541 -208.874312 
L 268.214541 -203.889083 
L 268.214541 -198.903855 
L 268.214541 -193.918627 
z
" id="m940086bcca" style="stroke:#7a7a7a;stroke-width:1.5;"/>
    </defs>
    <g clip-path="url(#p634930f94d)">
     <use style="fill:#cccccc;stroke:#7a7a7a;stroke-width:1.5;" x="0" xlink:href="#m940086bcca" y="720"/>
    </g>
   </g>
   <g id="PolyCollection_6">
    <defs>
     <path d="M 268.214541 -389.891429 
L 353.258091 -389.891429 
L 355.122805 -393.327759 
L 356.574729 -398.312988 
L 357.633846 -403.298216 
L 358.352648 -408.283444 
L 358.808421 -413.268673 
L 359.09109 -418.253901 
L 359.288293 -423.239129 
L 359.469907 -428.224358 
L 359.674453 -433.209586 
L 359.899568 -438.194814 
L 360.098177 -443.180043 
L 268.214541 -443.180043 
L 268.214541 -443.180043 
L 268.214541 -438.194814 
L 268.214541 -433.209586 
L 268.214541 -428.224358 
L 268.214541 -423.239129 
L 268.214541 -418.253901 
L 268.214541 -413.268673 
L 268.214541 -408.283444 
L 268.214541 -403.298216 
L 268.214541 -398.312988 
L 268.214541 -393.327759 
L 268.214541 -389.891429 
z
" id="mede6aa2859" style="stroke:#666666;stroke-width:1.5;"/>
    </defs>
    <g clip-path="url(#p634930f94d)">
     <use style="fill:#8f8f8f;stroke:#666666;stroke-width:1.5;" x="0" xlink:href="#mede6aa2859" y="720"/>
    </g>
   </g>
   <g id="PathCollection_47">
    <defs>
     <path d="M 0 3 
C 0.795609 3 1.55874 2.683901 2.12132 2.12132 
C 2.683901 1.55874 3 0.795609 3 0 
C 3 -0.795609 2.683901 -1.55874 2.12132 -2.12132 
C 1.55874 -2.683901 0.795609 -3 0 -3 
C -0.795609 -3 -1.55874 -2.683901 -2.12132 -2.12132 
C -2.683901 -1.55874 -3 -0.795609 -3 0 
C -3 0.795609 -2.683901 1.55874 -2.12132 2.12132 
C -1.55874 2.683901 -0.795609 3 0 3 
z
" id="m3b373efb01" style="stroke:#000000;stroke-opacity:0.3;"/>
    </defs>
    <g clip-path="url(#p634930f94d)">
     <use style="fill-opacity:0.3;stroke:#000000;stroke-opacity:0.3;" x="176.877768" xlink:href="#m3b373efb01" y="264.547334"/>
     <use style="fill-opacity:0.3;stroke:#000000;stroke-opacity:0.3;" x="208.735405" xlink:href="#m3b373efb01" y="185.602794"/>
     <use style="fill-opacity:0.3;stroke:#000000;stroke-opacity:0.3;" x="214.43957" xlink:href="#m3b373efb01" y="241.425436"/>
     <use style="fill-opacity:0.3;stroke:#000000;stroke-opacity:0.3;" x="153.702077" xlink:href="#m3b373efb01" y="290.296686"/>
     <use style="fill-opacity:0.3;stroke:#000000;stroke-opacity:0.3;" x="194.407539" xlink:href="#m3b373efb01" y="329.68302"/>
     <use style="fill-opacity:0.3;stroke:#000000;stroke-opacity:0.3;" x="204.884576" xlink:href="#m3b373efb01" y="292.821398"/>
     <use style="fill-opacity:0.3;stroke:#000000;stroke-opacity:0.3;" x="186.121245" xlink:href="#m3b373efb01" y="331.041861"/>
     <use style="fill-opacity:0.3;stroke:#000000;stroke-opacity:0.3;" x="186.436918" xlink:href="#m3b373efb01" y="319.364965"/>
     <use style="fill-opacity:0.3;stroke:#000000;stroke-opacity:0.3;" x="190.166062" xlink:href="#m3b373efb01" y="376.751381"/>
     <use style="fill-opacity:0.3;stroke:#000000;stroke-opacity:0.3;" x="175.540287" xlink:href="#m3b373efb01" y="310.329114"/>
     <use style="fill-opacity:0.3;stroke:#000000;stroke-opacity:0.3;" x="182.047722" xlink:href="#m3b373efb01" y="327.332956"/>
     <use style="fill-opacity:0.3;stroke:#000000;stroke-opacity:0.3;" x="217.295853" xlink:href="#m3b373efb01" y="154.224243"/>
     <use style="fill-opacity:0.3;stroke:#000000;stroke-opacity:0.3;" x="215.591177" xlink:href="#m3b373efb01" y="271.769305"/>
     <use style="fill-opacity:0.3;stroke:#000000;stroke-opacity:0.3;" x="157.748343" xlink:href="#m3b373efb01" y="335.200216"/>
     <use style="fill-opacity:0.3;stroke:#000000;stroke-opacity:0.3;" x="217.649497" xlink:href="#m3b373efb01" y="441.552771"/>
     <use style="fill-opacity:0.3;stroke:#000000;stroke-opacity:0.3;" x="136.607958" xlink:href="#m3b373efb01" y="287.35976"/>
     <use style="fill-opacity:0.3;stroke:#000000;stroke-opacity:0.3;" x="215.510742" xlink:href="#m3b373efb01" y="544.288537"/>
     <use style="fill-opacity:0.3;stroke:#000000;stroke-opacity:0.3;" x="137.461558" xlink:href="#m3b373efb01" y="311.67013"/>
     <use style="fill-opacity:0.3;stroke:#000000;stroke-opacity:0.3;" x="199.188025" xlink:href="#m3b373efb01" y="280.420574"/>
     <use style="fill-opacity:0.3;stroke:#000000;stroke-opacity:0.3;" x="208.903339" xlink:href="#m3b373efb01" y="384.251266"/>
     <use style="fill-opacity:0.3;stroke:#000000;stroke-opacity:0.3;" x="215.262679" xlink:href="#m3b373efb01" y="380.816558"/>
     <use style="fill-opacity:0.3;stroke:#000000;stroke-opacity:0.3;" x="176.423253" xlink:href="#m3b373efb01" y="290.880921"/>
     <use style="fill-opacity:0.3;stroke:#000000;stroke-opacity:0.3;" x="212.613109" xlink:href="#m3b373efb01" y="140.68613"/>
     <use style="fill-opacity:0.3;stroke:#000000;stroke-opacity:0.3;" x="198.367926" xlink:href="#m3b373efb01" y="291.063136"/>
     <use style="fill-opacity:0.3;stroke:#000000;stroke-opacity:0.3;" x="201.645831" xlink:href="#m3b373efb01" y="342.576628"/>
     <use style="fill-opacity:0.3;stroke:#000000;stroke-opacity:0.3;" x="189.256197" xlink:href="#m3b373efb01" y="230.73189"/>
     <use style="fill-opacity:0.3;stroke:#000000;stroke-opacity:0.3;" x="197.145478" xlink:href="#m3b373efb01" y="394.786833"/>
     <use style="fill-opacity:0.3;stroke:#000000;stroke-opacity:0.3;" x="209.452409" xlink:href="#m3b373efb01" y="305.41238"/>
     <use style="fill-opacity:0.3;stroke:#000000;stroke-opacity:0.3;" x="214.447097" xlink:href="#m3b373efb01" y="472.633233"/>
     <use style="fill-opacity:0.3;stroke:#000000;stroke-opacity:0.3;" x="183.003514" xlink:href="#m3b373efb01" y="239.389713"/>
     <use style="fill-opacity:0.3;stroke:#000000;stroke-opacity:0.3;" x="181.077193" xlink:href="#m3b373efb01" y="290.80713"/>
     <use style="fill-opacity:0.3;stroke:#000000;stroke-opacity:0.3;" x="183.760356" xlink:href="#m3b373efb01" y="338.002569"/>
     <use style="fill-opacity:0.3;stroke:#000000;stroke-opacity:0.3;" x="149.799918" xlink:href="#m3b373efb01" y="272.954937"/>
     <use style="fill-opacity:0.3;stroke:#000000;stroke-opacity:0.3;" x="146.844403" xlink:href="#m3b373efb01" y="314.000994"/>
    </g>
   </g>
   <g id="PathCollection_48">
    <g clip-path="url(#p634930f94d)">
     <use style="fill-opacity:0.3;stroke:#000000;stroke-opacity:0.3;" x="268.673939" xlink:href="#m3b373efb01" y="96.008581"/>
     <use style="fill-opacity:0.3;stroke:#000000;stroke-opacity:0.3;" x="296.885048" xlink:href="#m3b373efb01" y="357.928439"/>
     <use style="fill-opacity:0.3;stroke:#000000;stroke-opacity:0.3;" x="342.625317" xlink:href="#m3b373efb01" y="265.940535"/>
     <use style="fill-opacity:0.3;stroke:#000000;stroke-opacity:0.3;" x="346.66606" xlink:href="#m3b373efb01" y="333.196774"/>
     <use style="fill-opacity:0.3;stroke:#000000;stroke-opacity:0.3;" x="278.050353" xlink:href="#m3b373efb01" y="462.616562"/>
     <use style="fill-opacity:0.3;stroke:#000000;stroke-opacity:0.3;" x="329.340152" xlink:href="#m3b373efb01" y="249.242549"/>
     <use style="fill-opacity:0.3;stroke:#000000;stroke-opacity:0.3;" x="286.22585" xlink:href="#m3b373efb01" y="312.058154"/>
     <use style="fill-opacity:0.3;stroke:#000000;stroke-opacity:0.3;" x="269.227679" xlink:href="#m3b373efb01" y="244.920801"/>
     <use style="fill-opacity:0.3;stroke:#000000;stroke-opacity:0.3;" x="274.210603" xlink:href="#m3b373efb01" y="434.008706"/>
     <use style="fill-opacity:0.3;stroke:#000000;stroke-opacity:0.3;" x="329.555576" xlink:href="#m3b373efb01" y="238.458838"/>
     <use style="fill-opacity:0.3;stroke:#000000;stroke-opacity:0.3;" x="309.070868" xlink:href="#m3b373efb01" y="369.208358"/>
     <use style="fill-opacity:0.3;stroke:#000000;stroke-opacity:0.3;" x="347.724459" xlink:href="#m3b373efb01" y="260.854447"/>
     <use style="fill-opacity:0.3;stroke:#000000;stroke-opacity:0.3;" x="335.869585" xlink:href="#m3b373efb01" y="225.097798"/>
     <use style="fill-opacity:0.3;stroke:#000000;stroke-opacity:0.3;" x="305.503325" xlink:href="#m3b373efb01" y="415.580583"/>
     <use style="fill-opacity:0.3;stroke:#000000;stroke-opacity:0.3;" x="288.663223" xlink:href="#m3b373efb01" y="334.748683"/>
     <use style="fill-opacity:0.3;stroke:#000000;stroke-opacity:0.3;" x="330.478335" xlink:href="#m3b373efb01" y="318.389389"/>
     <use style="fill-opacity:0.3;stroke:#000000;stroke-opacity:0.3;" x="281.14123" xlink:href="#m3b373efb01" y="405.234036"/>
     <use style="fill-opacity:0.3;stroke:#000000;stroke-opacity:0.3;" x="331.68474" xlink:href="#m3b373efb01" y="253.40921"/>
     <use style="fill-opacity:0.3;stroke:#000000;stroke-opacity:0.3;" x="352.228734" xlink:href="#m3b373efb01" y="295.366168"/>
     <use style="fill-opacity:0.3;stroke:#000000;stroke-opacity:0.3;" x="313.650862" xlink:href="#m3b373efb01" y="324.944337"/>
     <use style="fill-opacity:0.3;stroke:#000000;stroke-opacity:0.3;" x="345.348818" xlink:href="#m3b373efb01" y="316.78758"/>
     <use style="fill-opacity:0.3;stroke:#000000;stroke-opacity:0.3;" x="273.055403" xlink:href="#m3b373efb01" y="149.349684"/>
     <use style="fill-opacity:0.3;stroke:#000000;stroke-opacity:0.3;" x="295.218674" xlink:href="#m3b373efb01" y="247.065199"/>
     <use style="fill-opacity:0.3;stroke:#000000;stroke-opacity:0.3;" x="282.01158" xlink:href="#m3b373efb01" y="281.996795"/>
     <use style="fill-opacity:0.3;stroke:#000000;stroke-opacity:0.3;" x="289.651547" xlink:href="#m3b373efb01" y="209.775527"/>
     <use style="fill-opacity:0.3;stroke:#000000;stroke-opacity:0.3;" x="284.254085" xlink:href="#m3b373efb01" y="288.698654"/>
     <use style="fill-opacity:0.3;stroke:#000000;stroke-opacity:0.3;" x="326.696192" xlink:href="#m3b373efb01" y="249.885563"/>
     <use style="fill-opacity:0.3;stroke:#000000;stroke-opacity:0.3;" x="307.018458" xlink:href="#m3b373efb01" y="369.219371"/>
     <use style="fill-opacity:0.3;stroke:#000000;stroke-opacity:0.3;" x="275.914865" xlink:href="#m3b373efb01" y="403.893086"/>
     <use style="fill-opacity:0.3;stroke:#000000;stroke-opacity:0.3;" x="295.713594" xlink:href="#m3b373efb01" y="286.355058"/>
     <use style="fill-opacity:0.3;stroke:#000000;stroke-opacity:0.3;" x="281.382545" xlink:href="#m3b373efb01" y="224.298989"/>
     <use style="fill-opacity:0.3;stroke:#000000;stroke-opacity:0.3;" x="320.384508" xlink:href="#m3b373efb01" y="375.526691"/>
     <use style="fill-opacity:0.3;stroke:#000000;stroke-opacity:0.3;" x="354.299069" xlink:href="#m3b373efb01" y="324.306055"/>
     <use style="fill-opacity:0.3;stroke:#000000;stroke-opacity:0.3;" x="332.333641" xlink:href="#m3b373efb01" y="334.696492"/>
    </g>
   </g>
   <g id="line2d_9">
    <path clip-path="url(#p634930f94d)" d="M 243.690116 330.108571 
L 243.690116 283.151429 
" style="fill:none;stroke:#000000;stroke-linecap:round;stroke-width:3;"/>
   </g>
   <g id="line2d_10">
    <path clip-path="url(#p634930f94d)" d="M 237.55901 330.108571 
L 249.821223 330.108571 
" style="fill:none;stroke:#000000;stroke-linecap:round;stroke-width:3;"/>
   </g>
   <g id="line2d_11">
    <path clip-path="url(#p634930f94d)" d="M 237.55901 283.151429 
L 249.821223 283.151429 
" style="fill:none;stroke:#000000;stroke-linecap:round;stroke-width:3;"/>
   </g>
   <g id="line2d_12">
    <defs>
     <path d="M 0 7.5 
C 1.989023 7.5 3.896849 6.709753 5.303301 5.303301 
C 6.709753 3.896849 7.5 1.989023 7.5 0 
C 7.5 -1.989023 6.709753 -3.896849 5.303301 -5.303301 
C 3.896849 -6.709753 1.989023 -7.5 0 -7.5 
C -1.989023 -7.5 -3.896849 -6.709753 -5.303301 -5.303301 
C -6.709753 -3.896849 -7.5 -1.989023 -7.5 0 
C -7.5 1.989023 -6.709753 3.896849 -5.303301 5.303301 
C -3.896849 6.709753 -1.989023 7.5 0 7.5 
z
" id="m79f90f2a87" style="stroke:#000000;"/>
    </defs>
    <g clip-path="url(#p634930f94d)">
     <use style="stroke:#000000;" x="243.690116" xlink:href="#m79f90f2a87" y="306.525654"/>
    </g>
   </g>
   <g id="line2d_13">
    <path clip-path="url(#p634930f94d)" d="M 115.55 339.5 
L 371.830233 339.5 
" style="fill:none;stroke:#000000;stroke-dasharray:7.4,3.2;stroke-dashoffset:0;stroke-width:2;"/>
   </g>
   <g id="patch_6">
    <path d="M 115.55 668.2 
L 115.55 10.8 
" style="fill:none;stroke:#262626;stroke-linecap:square;stroke-linejoin:miter;stroke-width:2;"/>
   </g>
  </g>
 </g>
 <defs>
  <clipPath id="p0156a7b8b1">
   <rect height="417" width="950.940699" x="462.880233" y="131"/>
  </clipPath>
  <clipPath id="p634930f94d">
   <rect height="657.4" width="256.280233" x="115.55" y="10.8"/>
  </clipPath>
 </defs>
</svg>
