<?xml version="1.0" encoding="utf-8" standalone="no"?>
<!DOCTYPE svg PUBLIC "-//W3C//DTD SVG 1.1//EN"
  "http://www.w3.org/Graphics/SVG/1.1/DTD/svg11.dtd">
<svg height="720pt" version="1.1" viewBox="0 0 1440 720" width="1440pt" xmlns="http://www.w3.org/2000/svg" xmlns:xlink="http://www.w3.org/1999/xlink">
 <metadata>
  <rdf:RDF xmlns:cc="http://creativecommons.org/ns#" xmlns:dc="http://purl.org/dc/elements/1.1/" xmlns:rdf="http://www.w3.org/1999/02/22-rdf-syntax-ns#">
   <cc:Work>
    <dc:type rdf:resource="http://purl.org/dc/dcmitype/StillImage"/>
    <dc:date>2024-11-03T12:22:31.582844</dc:date>
    <dc:format>image/svg+xml</dc:format>
    <dc:creator>
     <cc:Agent>
      <dc:title>Matplotlib v3.4.3, https://matplotlib.org/</dc:title>
     </cc:Agent>
    </dc:creator>
   </cc:Work>
  </rdf:RDF>
 </metadata>
 <defs>
  <style type="text/css">*{stroke-linecap:butt;stroke-linejoin:round;}</style>
 </defs>
 <g id="figure_1">
  <g id="patch_1">
   <path d="M 0 720 
L 1440 720 
L 1440 0 
L 0 0 
z
" style="fill:none;"/>
  </g>
  <g id="axes_1">
   <g id="patch_2">
    <path d="M 462.880233 548 
L 1413.820932 548 
L 1413.820932 131 
L 462.880233 131 
z
" style="fill:#ffffff;"/>
   </g>
   <g id="matplotlib.axis_1">
    <g id="xtick_1">
     <g id="text_1">
      <!-- 100 -->
      <g style="fill:#262626;" transform="translate(457.811617 575.09875)scale(0.28 -0.28)">
       <defs>
        <path d="M 2297 0 
L 1697 0 
L 1697 3194 
L 647 3194 
L 647 3641 
Q 1197 3659 1465 3817 
Q 1734 3975 1856 4500 
L 2297 4500 
L 2297 0 
z
" id="HelveticaWorld-Regular-31" transform="scale(0.015625)"/>
        <path d="M 2719 2188 
Q 2719 3091 2480 3542 
Q 2241 3994 1778 3994 
Q 1325 3994 1081 3542 
Q 838 3091 838 2188 
Q 838 1313 1078 848 
Q 1319 384 1778 384 
Q 2241 384 2480 832 
Q 2719 1281 2719 2188 
z
M 3322 2188 
Q 3322 1081 2922 479 
Q 2522 -122 1778 -122 
Q 1006 -122 622 501 
Q 238 1125 238 2188 
Q 238 3278 631 3889 
Q 1025 4500 1778 4500 
Q 2522 4500 2922 3892 
Q 3322 3284 3322 2188 
z
" id="HelveticaWorld-Regular-30" transform="scale(0.015625)"/>
       </defs>
       <use xlink:href="#HelveticaWorld-Regular-31"/>
       <use x="55.615234" xlink:href="#HelveticaWorld-Regular-30"/>
       <use x="111.230469" xlink:href="#HelveticaWorld-Regular-30"/>
      </g>
     </g>
    </g>
    <g id="xtick_2">
     <g id="text_2">
      <!-- 500 -->
      <g style="fill:#262626;" transform="translate(519.802536 575.09875)scale(0.28 -0.28)">
       <defs>
        <path d="M 941 2619 
Q 1313 2900 1813 2900 
Q 2419 2900 2855 2497 
Q 3291 2094 3291 1459 
Q 3291 769 2870 320 
Q 2450 -128 1691 -128 
Q 1031 -128 650 195 
Q 269 519 206 1113 
L 788 1113 
Q 831 750 1072 558 
Q 1313 366 1741 366 
Q 2156 366 2422 653 
Q 2688 941 2688 1388 
Q 2688 1844 2409 2119 
Q 2131 2394 1691 2394 
Q 1191 2394 856 1966 
L 372 1991 
L 709 4397 
L 3041 4397 
L 3041 3853 
L 1131 3853 
L 941 2619 
z
" id="HelveticaWorld-Regular-35" transform="scale(0.015625)"/>
       </defs>
       <use xlink:href="#HelveticaWorld-Regular-35"/>
       <use x="55.615234" xlink:href="#HelveticaWorld-Regular-30"/>
       <use x="111.230469" xlink:href="#HelveticaWorld-Regular-30"/>
      </g>
     </g>
    </g>
    <g id="xtick_3">
     <g id="text_3">
      <!-- 1000 -->
      <g style="fill:#262626;" transform="translate(589.505872 575.09875)scale(0.28 -0.28)">
       <use xlink:href="#HelveticaWorld-Regular-31"/>
       <use x="55.615234" xlink:href="#HelveticaWorld-Regular-30"/>
       <use x="111.230469" xlink:href="#HelveticaWorld-Regular-30"/>
       <use x="166.845703" xlink:href="#HelveticaWorld-Regular-30"/>
      </g>
     </g>
    </g>
    <g id="xtick_4">
     <g id="text_4">
      <!-- 2000 -->
      <g style="fill:#262626;" transform="translate(744.48317 575.09875)scale(0.28 -0.28)">
       <defs>
        <path d="M 281 2888 
Q 281 3681 690 4090 
Q 1100 4500 1838 4500 
Q 2456 4500 2850 4125 
Q 3244 3750 3244 3156 
Q 3244 2694 3017 2376 
Q 2791 2059 2350 1819 
L 1575 1394 
Q 891 1019 800 531 
L 3244 531 
L 3244 0 
L 166 0 
Q 191 634 441 1056 
Q 691 1478 1222 1784 
L 2028 2253 
Q 2350 2438 2497 2636 
Q 2644 2834 2644 3181 
Q 2644 3525 2403 3759 
Q 2163 3994 1753 3994 
Q 1300 3994 1075 3695 
Q 850 3397 844 2888 
L 281 2888 
z
" id="HelveticaWorld-Regular-32" transform="scale(0.015625)"/>
       </defs>
       <use xlink:href="#HelveticaWorld-Regular-32"/>
       <use x="55.615234" xlink:href="#HelveticaWorld-Regular-30"/>
       <use x="111.230469" xlink:href="#HelveticaWorld-Regular-30"/>
       <use x="166.845703" xlink:href="#HelveticaWorld-Regular-30"/>
      </g>
     </g>
    </g>
    <g id="xtick_5">
     <g id="text_5">
      <!-- 3000 -->
      <g style="fill:#262626;" transform="translate(899.460468 575.09875)scale(0.28 -0.28)">
       <defs>
        <path d="M 1434 2559 
Q 1575 2547 1728 2547 
Q 2125 2547 2354 2730 
Q 2584 2913 2584 3284 
Q 2584 3584 2370 3789 
Q 2156 3994 1753 3994 
Q 1306 3994 1098 3731 
Q 891 3469 878 3028 
L 325 3028 
Q 325 3731 694 4115 
Q 1063 4500 1778 4500 
Q 2413 4500 2791 4173 
Q 3169 3847 3169 3316 
Q 3169 2631 2591 2388 
L 2591 2375 
Q 3341 2119 3341 1325 
Q 3341 691 2919 284 
Q 2497 -122 1722 -122 
Q 1088 -122 678 211 
Q 269 544 219 1375 
L 800 1375 
Q 813 856 1056 620 
Q 1300 384 1759 384 
Q 2203 384 2472 631 
Q 2741 878 2741 1253 
Q 2741 1663 2484 1872 
Q 2228 2081 1691 2081 
Q 1563 2081 1434 2075 
L 1434 2559 
z
" id="HelveticaWorld-Regular-33" transform="scale(0.015625)"/>
       </defs>
       <use xlink:href="#HelveticaWorld-Regular-33"/>
       <use x="55.615234" xlink:href="#HelveticaWorld-Regular-30"/>
       <use x="111.230469" xlink:href="#HelveticaWorld-Regular-30"/>
       <use x="166.845703" xlink:href="#HelveticaWorld-Regular-30"/>
      </g>
     </g>
    </g>
    <g id="xtick_6">
     <g id="text_6">
      <!-- 4000 -->
      <g style="fill:#262626;" transform="translate(1054.437765 575.09875)scale(0.28 -0.28)">
       <defs>
        <path d="M 678 1581 
L 2125 1581 
L 2125 3622 
L 2113 3622 
L 678 1581 
z
M 2688 1094 
L 2688 0 
L 2125 0 
L 2125 1094 
L 159 1094 
L 159 1644 
L 2222 4500 
L 2688 4500 
L 2688 1581 
L 3347 1581 
L 3347 1094 
L 2688 1094 
z
" id="HelveticaWorld-Regular-34" transform="scale(0.015625)"/>
       </defs>
       <use xlink:href="#HelveticaWorld-Regular-34"/>
       <use x="55.615234" xlink:href="#HelveticaWorld-Regular-30"/>
       <use x="111.230469" xlink:href="#HelveticaWorld-Regular-30"/>
       <use x="166.845703" xlink:href="#HelveticaWorld-Regular-30"/>
      </g>
     </g>
    </g>
    <g id="xtick_7">
     <g id="text_7">
      <!-- 5000 -->
      <g style="fill:#262626;" transform="translate(1209.415063 575.09875)scale(0.28 -0.28)">
       <use xlink:href="#HelveticaWorld-Regular-35"/>
       <use x="55.615234" xlink:href="#HelveticaWorld-Regular-30"/>
       <use x="111.230469" xlink:href="#HelveticaWorld-Regular-30"/>
       <use x="166.845703" xlink:href="#HelveticaWorld-Regular-30"/>
      </g>
     </g>
    </g>
    <g id="xtick_8">
     <g id="text_8">
      <!-- 6000 -->
      <g style="fill:#262626;" transform="translate(1364.392361 575.09875)scale(0.28 -0.28)">
       <defs>
        <path d="M 903 1381 
Q 903 941 1165 662 
Q 1428 384 1850 384 
Q 2253 384 2492 668 
Q 2731 953 2731 1416 
Q 2731 1819 2495 2091 
Q 2259 2363 1825 2363 
Q 1403 2363 1153 2097 
Q 903 1831 903 1381 
z
M 2669 3303 
Q 2606 3647 2414 3820 
Q 2222 3994 1894 3994 
Q 1375 3994 1103 3487 
Q 831 2981 825 2328 
L 838 2316 
Q 1197 2869 1906 2869 
Q 2472 2869 2894 2494 
Q 3316 2119 3316 1441 
Q 3316 769 2916 323 
Q 2516 -122 1838 -122 
Q 1056 -122 650 434 
Q 244 991 244 2094 
Q 244 3156 659 3828 
Q 1075 4500 1906 4500 
Q 2444 4500 2816 4179 
Q 3188 3859 3219 3303 
L 2669 3303 
z
" id="HelveticaWorld-Regular-36" transform="scale(0.015625)"/>
       </defs>
       <use xlink:href="#HelveticaWorld-Regular-36"/>
       <use x="55.615234" xlink:href="#HelveticaWorld-Regular-30"/>
       <use x="111.230469" xlink:href="#HelveticaWorld-Regular-30"/>
       <use x="166.845703" xlink:href="#HelveticaWorld-Regular-30"/>
      </g>
     </g>
    </g>
    <g id="text_9">
     <!-- Number of Voxels -->
     <g style="fill:#262626;" transform="translate(815.493082 607.865625)scale(0.32 -0.32)">
      <defs>
       <path d="M 3559 4594 
L 4159 4594 
L 4159 0 
L 3469 0 
L 1125 3713 
L 1113 3713 
L 1113 0 
L 519 0 
L 519 4594 
L 1247 4594 
L 3547 884 
L 3559 884 
L 3559 4594 
z
" id="HelveticaWorld-Regular-4e" transform="scale(0.015625)"/>
       <path d="M 391 3347 
L 953 3347 
L 953 1125 
Q 953 756 1120 573 
Q 1288 391 1600 391 
Q 2034 391 2278 698 
Q 2522 1006 2522 1503 
L 2522 3347 
L 3084 3347 
L 3084 0 
L 2553 0 
L 2553 488 
L 2541 500 
Q 2222 -97 1478 -97 
Q 997 -97 694 165 
Q 391 428 391 941 
L 391 3347 
z
" id="HelveticaWorld-Regular-75" transform="scale(0.015625)"/>
       <path d="M 422 3347 
L 953 3347 
L 953 2875 
L 966 2875 
Q 1344 3444 1978 3444 
Q 2606 3444 2869 2900 
Q 3109 3194 3334 3319 
Q 3559 3444 3891 3444 
Q 4325 3444 4626 3159 
Q 4928 2875 4928 2316 
L 4928 0 
L 4366 0 
L 4366 2163 
Q 4366 2553 4219 2745 
Q 4072 2938 3744 2938 
Q 3413 2938 3184 2669 
Q 2956 2400 2956 2041 
L 2956 0 
L 2394 0 
L 2394 2316 
Q 2394 2606 2259 2772 
Q 2125 2938 1869 2938 
Q 1466 2938 1225 2638 
Q 984 2338 984 1825 
L 984 0 
L 422 0 
L 422 3347 
z
" id="HelveticaWorld-Regular-6d" transform="scale(0.015625)"/>
       <path d="M 2778 1684 
Q 2778 2356 2540 2647 
Q 2303 2938 1863 2938 
Q 1416 2931 1187 2589 
Q 959 2247 959 1600 
Q 959 941 1234 666 
Q 1509 391 1875 391 
Q 2291 391 2534 733 
Q 2778 1075 2778 1684 
z
M 422 0 
L 422 4594 
L 984 4594 
L 984 2925 
L 997 2925 
Q 1356 3444 1966 3444 
Q 2591 3444 2975 2980 
Q 3359 2516 3359 1772 
Q 3359 934 2971 418 
Q 2584 -97 1888 -97 
Q 1275 -97 966 416 
L 953 416 
L 953 0 
L 422 0 
z
" id="HelveticaWorld-Regular-62" transform="scale(0.015625)"/>
       <path d="M 2719 1941 
Q 2675 2484 2431 2711 
Q 2188 2938 1784 2938 
Q 1375 2938 1123 2650 
Q 872 2363 856 1941 
L 2719 1941 
z
M 3256 1050 
Q 3163 531 2747 191 
Q 2381 -97 1784 -103 
Q 1081 -97 668 358 
Q 256 813 256 1581 
Q 256 2463 681 2953 
Q 1106 3444 1863 3444 
Q 2541 3444 2922 2937 
Q 3303 2431 3303 1491 
L 856 1491 
Q 856 966 1100 678 
Q 1344 391 1831 391 
Q 2175 391 2422 598 
Q 2669 806 2694 1050 
L 3256 1050 
z
" id="HelveticaWorld-Regular-65" transform="scale(0.015625)"/>
       <path d="M 984 0 
L 422 0 
L 422 3347 
L 953 3347 
L 953 2791 
L 966 2791 
Q 1331 3444 1906 3444 
Q 1997 3444 2053 3425 
L 2053 2841 
L 1844 2841 
Q 1466 2841 1225 2584 
Q 984 2328 984 1947 
L 984 0 
z
" id="HelveticaWorld-Regular-72" transform="scale(0.015625)"/>
       <path id="HelveticaWorld-Regular-20" transform="scale(0.015625)"/>
       <path d="M 813 1678 
Q 813 1119 1066 758 
Q 1319 397 1784 397 
Q 2266 397 2516 775 
Q 2766 1153 2766 1678 
Q 2766 2209 2516 2579 
Q 2266 2950 1784 2950 
Q 1338 2950 1075 2601 
Q 813 2253 813 1678 
z
M 238 1678 
Q 238 2425 653 2934 
Q 1069 3444 1784 3444 
Q 2516 3444 2928 2928 
Q 3341 2413 3341 1678 
Q 3341 941 2931 422 
Q 2522 -97 1784 -97 
Q 1075 -97 656 406 
Q 238 909 238 1678 
z
" id="HelveticaWorld-Regular-6f" transform="scale(0.015625)"/>
       <path d="M 1100 2881 
L 1100 0 
L 538 0 
L 538 2881 
L 78 2881 
L 78 3347 
L 538 3347 
L 538 3922 
Q 538 4300 767 4479 
Q 997 4659 1409 4659 
Q 1550 4659 1663 4647 
L 1663 4141 
Q 1563 4153 1434 4153 
Q 1247 4153 1173 4061 
Q 1100 3969 1100 3763 
L 1100 3347 
L 1663 3347 
L 1663 2881 
L 1100 2881 
z
" id="HelveticaWorld-Regular-66" transform="scale(0.015625)"/>
       <path d="M 3413 4594 
L 4109 4594 
L 2425 0 
L 1772 0 
L 97 4594 
L 788 4594 
L 2100 678 
L 2113 678 
L 3413 4594 
z
" id="HelveticaWorld-Regular-56" transform="scale(0.015625)"/>
       <path d="M 3138 0 
L 2413 0 
L 1588 1259 
L 781 0 
L 72 0 
L 1241 1722 
L 128 3347 
L 844 3347 
L 1619 2169 
L 2400 3347 
L 3084 3347 
L 1959 1722 
L 3138 0 
z
" id="HelveticaWorld-Regular-78" transform="scale(0.015625)"/>
       <path d="M 984 0 
L 422 0 
L 422 4594 
L 984 4594 
L 984 0 
z
" id="HelveticaWorld-Regular-6c" transform="scale(0.015625)"/>
       <path d="M 2309 2394 
Q 2297 2694 2095 2825 
Q 1894 2956 1516 2956 
Q 1241 2956 1045 2834 
Q 850 2713 850 2484 
Q 850 2303 965 2217 
Q 1081 2131 1466 2034 
L 2022 1894 
Q 2528 1766 2745 1567 
Q 2963 1369 2963 1013 
Q 2963 519 2602 211 
Q 2241 -97 1638 -97 
Q 934 -97 573 195 
Q 213 488 206 1075 
L 750 1075 
Q 763 728 980 559 
Q 1197 391 1631 391 
Q 1984 391 2192 531 
Q 2400 672 2400 922 
Q 2400 1100 2265 1206 
Q 2131 1313 1734 1403 
L 1081 1563 
Q 684 1663 495 1861 
Q 306 2059 306 2375 
Q 306 2869 659 3156 
Q 1013 3444 1581 3444 
Q 2188 3444 2511 3148 
Q 2834 2853 2853 2394 
L 2309 2394 
z
" id="HelveticaWorld-Regular-73" transform="scale(0.015625)"/>
      </defs>
      <use xlink:href="#HelveticaWorld-Regular-4e"/>
      <use x="73.095703" xlink:href="#HelveticaWorld-Regular-75"/>
      <use x="127.880859" xlink:href="#HelveticaWorld-Regular-6d"/>
      <use x="210.888672" xlink:href="#HelveticaWorld-Regular-62"/>
      <use x="267.382812" xlink:href="#HelveticaWorld-Regular-65"/>
      <use x="322.802734" xlink:href="#HelveticaWorld-Regular-72"/>
      <use x="355.371094" xlink:href="#HelveticaWorld-Regular-20"/>
      <use x="379.785156" xlink:href="#HelveticaWorld-Regular-6f"/>
      <use x="435.693359" xlink:href="#HelveticaWorld-Regular-66"/>
      <use x="463.378906" xlink:href="#HelveticaWorld-Regular-20"/>
      <use x="482.792969" xlink:href="#HelveticaWorld-Regular-56"/>
      <use x="540.619141" xlink:href="#HelveticaWorld-Regular-6f"/>
      <use x="593.652344" xlink:href="#HelveticaWorld-Regular-78"/>
      <use x="640.402344" xlink:href="#HelveticaWorld-Regular-65"/>
      <use x="695.822266" xlink:href="#HelveticaWorld-Regular-6c"/>
      <use x="717.84375" xlink:href="#HelveticaWorld-Regular-73"/>
     </g>
    </g>
   </g>
   <g id="matplotlib.axis_2">
    <g id="ytick_1">
     <g id="text_10">
      <!-- 0.0 -->
      <g style="fill:#262626;" transform="translate(416.960233 558.049375)scale(0.28 -0.28)">
       <defs>
        <path d="M 1222 0 
L 556 0 
L 556 678 
L 1222 678 
L 1222 0 
z
" id="HelveticaWorld-Regular-2e" transform="scale(0.015625)"/>
       </defs>
       <use xlink:href="#HelveticaWorld-Regular-30"/>
       <use x="55.615234" xlink:href="#HelveticaWorld-Regular-2e"/>
       <use x="83.398438" xlink:href="#HelveticaWorld-Regular-30"/>
      </g>
     </g>
    </g>
    <g id="ytick_2">
     <g id="text_11">
      <!-- 0.1 -->
      <g style="fill:#262626;" transform="translate(416.960233 465.382708)scale(0.28 -0.28)">
       <use xlink:href="#HelveticaWorld-Regular-30"/>
       <use x="55.615234" xlink:href="#HelveticaWorld-Regular-2e"/>
       <use x="83.398438" xlink:href="#HelveticaWorld-Regular-31"/>
      </g>
     </g>
    </g>
    <g id="ytick_3">
     <g id="text_12">
      <!-- 0.2 -->
      <g style="fill:#262626;" transform="translate(416.960233 372.716042)scale(0.28 -0.28)">
       <use xlink:href="#HelveticaWorld-Regular-30"/>
       <use x="55.615234" xlink:href="#HelveticaWorld-Regular-2e"/>
       <use x="83.398438" xlink:href="#HelveticaWorld-Regular-32"/>
      </g>
     </g>
    </g>
    <g id="ytick_4">
     <g id="text_13">
      <!-- 0.3 -->
      <g style="fill:#262626;" transform="translate(416.960233 280.049375)scale(0.28 -0.28)">
       <use xlink:href="#HelveticaWorld-Regular-30"/>
       <use x="55.615234" xlink:href="#HelveticaWorld-Regular-2e"/>
       <use x="83.398438" xlink:href="#HelveticaWorld-Regular-33"/>
      </g>
     </g>
    </g>
    <g id="ytick_5">
     <g id="text_14">
      <!-- 0.4 -->
      <g style="fill:#262626;" transform="translate(416.960233 187.382708)scale(0.28 -0.28)">
       <use xlink:href="#HelveticaWorld-Regular-30"/>
       <use x="55.615234" xlink:href="#HelveticaWorld-Regular-2e"/>
       <use x="83.398438" xlink:href="#HelveticaWorld-Regular-34"/>
      </g>
     </g>
    </g>
    <g id="text_15">
     <!-- Classifier Information (a.u.) -->
     <g style="fill:#262626;" transform="translate(406.335233 528.865)rotate(-90)scale(0.32 -0.32)">
      <defs>
       <path d="M 3713 3213 
Q 3609 3681 3279 3923 
Q 2950 4166 2425 4166 
Q 1747 4166 1334 3673 
Q 922 3181 922 2344 
Q 922 1375 1312 901 
Q 1703 428 2444 428 
Q 2931 428 3282 751 
Q 3634 1075 3756 1691 
L 4359 1691 
Q 4238 806 3688 342 
Q 3138 -122 2350 -122 
Q 1409 -122 845 525 
Q 281 1172 281 2322 
Q 281 3431 870 4073 
Q 1459 4716 2425 4716 
Q 3225 4716 3722 4303 
Q 4219 3891 4313 3213 
L 3713 3213 
z
" id="HelveticaWorld-Regular-43" transform="scale(0.015625)"/>
       <path d="M 2456 1709 
Q 2394 1644 2211 1603 
Q 2028 1563 1528 1497 
Q 1159 1453 986 1315 
Q 813 1178 813 953 
Q 813 678 959 525 
Q 1106 372 1428 372 
Q 1831 372 2143 601 
Q 2456 831 2456 1159 
L 2456 1709 
z
M 397 2328 
Q 416 2894 764 3169 
Q 1113 3444 1778 3444 
Q 2309 3444 2668 3203 
Q 3028 2963 3028 2509 
L 3028 581 
Q 3028 384 3206 384 
Q 3278 384 3391 409 
L 3391 0 
Q 3238 -63 3072 -63 
Q 2784 -63 2643 60 
Q 2503 184 2497 447 
Q 2016 -97 1288 -97 
Q 813 -97 525 172 
Q 238 441 238 872 
Q 238 1313 488 1584 
Q 738 1856 1216 1913 
L 2209 2034 
Q 2478 2075 2478 2431 
Q 2478 2694 2283 2834 
Q 2088 2975 1691 2975 
Q 1338 2975 1148 2819 
Q 959 2663 922 2328 
L 397 2328 
z
" id="HelveticaWorld-Regular-61" transform="scale(0.015625)"/>
       <path d="M 422 3956 
L 422 4594 
L 984 4594 
L 984 3956 
L 422 3956 
z
M 984 0 
L 422 0 
L 422 3347 
L 984 3347 
L 984 0 
z
" id="HelveticaWorld-Regular-69" transform="scale(0.015625)"/>
       <path d="M 1141 0 
L 519 0 
L 519 4594 
L 1141 4594 
L 1141 0 
z
" id="HelveticaWorld-Regular-49" transform="scale(0.015625)"/>
       <path d="M 3150 0 
L 2584 0 
L 2584 2059 
Q 2584 2534 2418 2736 
Q 2253 2938 1869 2938 
Q 1491 2938 1237 2650 
Q 984 2363 984 1825 
L 984 0 
L 422 0 
L 422 3347 
L 953 3347 
L 953 2875 
L 966 2875 
Q 1363 3444 1978 3444 
Q 2547 3444 2848 3142 
Q 3150 2841 3150 2278 
L 3150 0 
z
" id="HelveticaWorld-Regular-6e" transform="scale(0.015625)"/>
       <path d="M 1100 2881 
L 1100 703 
Q 1100 575 1170 508 
Q 1241 441 1422 441 
L 1638 441 
L 1638 0 
Q 1331 -44 1216 -44 
Q 863 -44 700 125 
Q 538 294 538 672 
L 538 2881 
L 84 2881 
L 84 3347 
L 538 3347 
L 538 4281 
L 1100 4281 
L 1100 3347 
L 1638 3347 
L 1638 2881 
L 1100 2881 
z
" id="HelveticaWorld-Regular-74" transform="scale(0.015625)"/>
       <path d="M 1906 4691 
Q 1338 3675 1188 3037 
Q 1038 2400 1038 1631 
Q 1038 872 1242 215 
Q 1447 -441 1913 -1325 
L 1538 -1325 
Q 1006 -550 720 140 
Q 434 831 434 1672 
Q 434 2463 693 3180 
Q 953 3897 1516 4691 
L 1906 4691 
z
" id="HelveticaWorld-Regular-28" transform="scale(0.015625)"/>
       <path d="M 225 -1325 
Q 788 -306 938 330 
Q 1088 966 1088 1734 
Q 1088 2497 886 3153 
Q 684 3809 219 4691 
L 588 4691 
Q 1125 3916 1411 3225 
Q 1697 2534 1697 1697 
Q 1697 903 1437 186 
Q 1178 -531 616 -1325 
L 225 -1325 
z
" id="HelveticaWorld-Regular-29" transform="scale(0.015625)"/>
      </defs>
      <use xlink:href="#HelveticaWorld-Regular-43"/>
      <use x="72.314453" xlink:href="#HelveticaWorld-Regular-6c"/>
      <use x="94.335938" xlink:href="#HelveticaWorld-Regular-61"/>
      <use x="149.267578" xlink:href="#HelveticaWorld-Regular-73"/>
      <use x="199.267578" xlink:href="#HelveticaWorld-Regular-73"/>
      <use x="249.267578" xlink:href="#HelveticaWorld-Regular-69"/>
      <use x="271.289062" xlink:href="#HelveticaWorld-Regular-66"/>
      <use x="298.974609" xlink:href="#HelveticaWorld-Regular-69"/>
      <use x="320.996094" xlink:href="#HelveticaWorld-Regular-65"/>
      <use x="376.416016" xlink:href="#HelveticaWorld-Regular-72"/>
      <use x="408.984375" xlink:href="#HelveticaWorld-Regular-20"/>
      <use x="433.398438" xlink:href="#HelveticaWorld-Regular-49"/>
      <use x="459.179688" xlink:href="#HelveticaWorld-Regular-6e"/>
      <use x="514.355469" xlink:href="#HelveticaWorld-Regular-66"/>
      <use x="540.041016" xlink:href="#HelveticaWorld-Regular-6f"/>
      <use x="595.949219" xlink:href="#HelveticaWorld-Regular-72"/>
      <use x="628.517578" xlink:href="#HelveticaWorld-Regular-6d"/>
      <use x="711.525391" xlink:href="#HelveticaWorld-Regular-61"/>
      <use x="766.457031" xlink:href="#HelveticaWorld-Regular-74"/>
      <use x="794.142578" xlink:href="#HelveticaWorld-Regular-69"/>
      <use x="816.164062" xlink:href="#HelveticaWorld-Regular-6f"/>
      <use x="872.072266" xlink:href="#HelveticaWorld-Regular-6e"/>
      <use x="927.248047" xlink:href="#HelveticaWorld-Regular-20"/>
      <use x="951.662109" xlink:href="#HelveticaWorld-Regular-28"/>
      <use x="984.962891" xlink:href="#HelveticaWorld-Regular-61"/>
      <use x="1039.894531" xlink:href="#HelveticaWorld-Regular-2e"/>
      <use x="1067.677734" xlink:href="#HelveticaWorld-Regular-75"/>
      <use x="1122.462891" xlink:href="#HelveticaWorld-Regular-2e"/>
      <use x="1150.246094" xlink:href="#HelveticaWorld-Regular-29"/>
     </g>
    </g>
   </g>
   <g id="PolyCollection_1">
    <defs>
     <path d="M 481.167554 -505.107886 
L 481.167554 -458.117929 
L 496.665284 -490.259959 
L 512.163014 -498.652909 
L 527.660743 -505.670071 
L 543.158473 -508.634277 
L 558.656203 -509.079169 
L 574.153933 -507.392817 
L 589.651663 -508.680494 
L 605.149392 -504.709789 
L 620.647122 -503.133704 
L 636.144852 -498.934304 
L 651.642582 -497.513133 
L 667.140311 -492.723888 
L 682.638041 -489.805083 
L 698.135771 -487.442429 
L 713.633501 -484.747153 
L 729.131231 -482.055217 
L 744.62896 -475.974635 
L 760.12669 -473.34796 
L 775.62442 -470.505859 
L 791.12215 -467.349786 
L 806.619879 -462.831854 
L 822.117609 -457.888926 
L 837.615339 -452.613503 
L 853.113069 -448.877599 
L 868.610798 -445.6415 
L 884.108528 -439.059746 
L 899.606258 -438.470647 
L 915.103988 -431.889117 
L 930.601718 -428.388122 
L 946.099447 -424.81463 
L 961.597177 -421.886221 
L 977.094907 -418.772131 
L 992.592637 -414.702236 
L 1008.090366 -412.122907 
L 1023.588096 -411.913849 
L 1039.085826 -407.254572 
L 1054.583556 -404.136452 
L 1070.081286 -403.057371 
L 1085.579015 -402.53423 
L 1101.076745 -399.600151 
L 1116.574475 -397.903687 
L 1132.072205 -397.476532 
L 1147.569934 -397.775651 
L 1163.067664 -394.144303 
L 1178.565394 -394.454482 
L 1194.063124 -394.518992 
L 1209.560854 -394.264581 
L 1225.058583 -394.034 
L 1240.556313 -393.037214 
L 1256.054043 -391.801503 
L 1271.551773 -392.655119 
L 1287.049502 -391.968337 
L 1302.547232 -393.11006 
L 1318.044962 -393.814361 
L 1333.542692 -392.388688 
L 1349.040421 -392.549315 
L 1364.538151 -393.571545 
L 1380.035881 -392.907234 
L 1395.533611 -393.08956 
L 1395.533611 -431.51823 
L 1395.533611 -431.51823 
L 1380.035881 -432.684446 
L 1364.538151 -431.649807 
L 1349.040421 -432.044433 
L 1333.542692 -431.141098 
L 1318.044962 -432.666477 
L 1302.547232 -432.065771 
L 1287.049502 -431.258701 
L 1271.551773 -433.229224 
L 1256.054043 -431.280785 
L 1240.556313 -430.457393 
L 1225.058583 -432.65801 
L 1209.560854 -433.736177 
L 1194.063124 -432.845762 
L 1178.565394 -434.849236 
L 1163.067664 -435.141805 
L 1147.569934 -435.077187 
L 1132.072205 -436.607837 
L 1116.574475 -436.663718 
L 1101.076745 -438.631381 
L 1085.579015 -441.227332 
L 1070.081286 -443.429636 
L 1054.583556 -444.742277 
L 1039.085826 -447.12985 
L 1023.588096 -452.565642 
L 1008.090366 -454.021883 
L 992.592637 -456.08978 
L 977.094907 -461.455196 
L 961.597177 -463.660328 
L 946.099447 -468.757828 
L 930.601718 -471.479991 
L 915.103988 -474.050187 
L 899.606258 -478.146877 
L 884.108528 -484.101427 
L 868.610798 -488.382746 
L 853.113069 -493.417398 
L 837.615339 -496.929029 
L 822.117609 -501.882937 
L 806.619879 -504.866055 
L 791.12215 -512.14288 
L 775.62442 -516.692367 
L 760.12669 -518.253295 
L 744.62896 -524.39276 
L 729.131231 -526.810781 
L 713.633501 -529.022274 
L 698.135771 -533.657607 
L 682.638041 -536.502465 
L 667.140311 -541.16775 
L 651.642582 -545.393813 
L 636.144852 -547.260443 
L 620.647122 -550.741934 
L 605.149392 -556.10777 
L 589.651663 -556.660545 
L 574.153933 -558.161084 
L 558.656203 -560.335541 
L 543.158473 -556.737074 
L 527.660743 -553.047425 
L 512.163014 -548.130323 
L 496.665284 -536.245272 
L 481.167554 -505.107886 
z
" id="m83ecdd54fb" style="stroke:#1b9e77;stroke-opacity:0.2;"/>
    </defs>
    <g clip-path="url(#p7fd4dddc24)">
     <use style="fill:#1b9e77;fill-opacity:0.2;stroke:#1b9e77;stroke-opacity:0.2;" x="0" xlink:href="#m83ecdd54fb" y="720"/>
    </g>
   </g>
   <g id="PolyCollection_2">
    <defs>
     <path d="M 481.167554 -467.047556 
L 481.167554 -427.258822 
L 496.665284 -434.348795 
L 512.163014 -439.967187 
L 527.660743 -441.00977 
L 543.158473 -437.882628 
L 558.656203 -437.574038 
L 574.153933 -438.631011 
L 589.651663 -437.432096 
L 605.149392 -435.190023 
L 620.647122 -431.779037 
L 636.144852 -426.808788 
L 651.642582 -424.124915 
L 667.140311 -421.056677 
L 682.638041 -419.592778 
L 698.135771 -418.118357 
L 713.633501 -413.949401 
L 729.131231 -413.331544 
L 744.62896 -412.19959 
L 760.12669 -409.105536 
L 775.62442 -405.441908 
L 791.12215 -404.149612 
L 806.619879 -399.566192 
L 822.117609 -398.566591 
L 837.615339 -394.648705 
L 853.113069 -391.096815 
L 868.610798 -386.355599 
L 884.108528 -385.11836 
L 899.606258 -381.28444 
L 915.103988 -377.476411 
L 930.601718 -374.842785 
L 946.099447 -368.872101 
L 961.597177 -364.957132 
L 977.094907 -366.016448 
L 992.592637 -362.285555 
L 1008.090366 -361.14444 
L 1023.588096 -357.020968 
L 1039.085826 -353.668783 
L 1054.583556 -351.562434 
L 1070.081286 -349.689231 
L 1085.579015 -350.838731 
L 1101.076745 -348.338568 
L 1116.574475 -347.925979 
L 1132.072205 -345.812243 
L 1147.569934 -344.489499 
L 1163.067664 -343.275713 
L 1178.565394 -343.534949 
L 1194.063124 -342.387893 
L 1209.560854 -343.412979 
L 1225.058583 -342.924298 
L 1240.556313 -343.959376 
L 1256.054043 -343.49944 
L 1271.551773 -340.247353 
L 1287.049502 -342.193306 
L 1302.547232 -341.313971 
L 1318.044962 -340.479018 
L 1333.542692 -341.01846 
L 1349.040421 -340.028788 
L 1364.538151 -343.256514 
L 1380.035881 -342.598888 
L 1395.533611 -341.700163 
L 1395.533611 -384.853915 
L 1395.533611 -384.853915 
L 1380.035881 -385.889447 
L 1364.538151 -384.500403 
L 1349.040421 -384.686743 
L 1333.542692 -384.873755 
L 1318.044962 -384.683163 
L 1302.547232 -383.952146 
L 1287.049502 -385.886964 
L 1271.551773 -384.049429 
L 1256.054043 -385.376458 
L 1240.556313 -387.205121 
L 1225.058583 -385.526353 
L 1209.560854 -386.156268 
L 1194.063124 -385.172247 
L 1178.565394 -385.332466 
L 1163.067664 -385.339722 
L 1147.569934 -389.107312 
L 1132.072205 -387.720591 
L 1116.574475 -389.196419 
L 1101.076745 -390.739347 
L 1085.579015 -391.918051 
L 1070.081286 -394.482744 
L 1054.583556 -394.153579 
L 1039.085826 -397.220972 
L 1023.588096 -400.019759 
L 1008.090366 -404.411707 
L 992.592637 -408.612615 
L 977.094907 -408.013661 
L 961.597177 -411.188157 
L 946.099447 -415.828206 
L 930.601718 -419.522274 
L 915.103988 -424.03512 
L 899.606258 -426.100326 
L 884.108528 -431.023383 
L 868.610798 -434.761515 
L 853.113069 -438.49903 
L 837.615339 -439.777692 
L 822.117609 -443.66115 
L 806.619879 -446.153394 
L 791.12215 -449.119124 
L 775.62442 -453.033356 
L 760.12669 -456.310467 
L 744.62896 -457.795611 
L 729.131231 -461.749704 
L 713.633501 -461.435476 
L 698.135771 -463.744214 
L 682.638041 -466.820616 
L 667.140311 -468.311985 
L 651.642582 -472.750681 
L 636.144852 -475.482571 
L 620.647122 -477.181277 
L 605.149392 -477.674899 
L 589.651663 -484.126403 
L 574.153933 -484.306144 
L 558.656203 -485.259722 
L 543.158473 -484.224588 
L 527.660743 -488.71401 
L 512.163014 -485.145281 
L 496.665284 -480.718863 
L 481.167554 -467.047556 
z
" id="m69eced0961" style="stroke:#d95f02;stroke-opacity:0.2;"/>
    </defs>
    <g clip-path="url(#p7fd4dddc24)">
     <use style="fill:#d95f02;fill-opacity:0.2;stroke:#d95f02;stroke-opacity:0.2;" x="0" xlink:href="#m69eced0961" y="720"/>
    </g>
   </g>
   <g id="PathCollection_1">
    <defs>
     <path d="M 0 -6.708204 
L 0 0 
L -5.809475 -3.354102 
L 0 0 
L -5.809475 3.354102 
L 0 0 
L -0 6.708204 
L 0 0 
L 5.809475 3.354102 
L 0 0 
L 5.809475 -3.354102 
L 0 0 
z
" id="m06c0dec2f1" style="stroke:#000000;stroke-width:2;"/>
    </defs>
    <g clip-path="url(#p7fd4dddc24)">
     <use style="stroke:#000000;stroke-width:2;" x="496.665284" xlink:href="#m06c0dec2f1" y="529.466667"/>
    </g>
   </g>
   <g id="PathCollection_2">
    <g clip-path="url(#p7fd4dddc24)">
     <use style="stroke:#000000;stroke-width:2;" x="512.163014" xlink:href="#m06c0dec2f1" y="529.466667"/>
    </g>
   </g>
   <g id="PathCollection_3">
    <g clip-path="url(#p7fd4dddc24)">
     <use style="stroke:#000000;stroke-width:2;" x="527.660743" xlink:href="#m06c0dec2f1" y="529.466667"/>
    </g>
   </g>
   <g id="PathCollection_4">
    <g clip-path="url(#p7fd4dddc24)">
     <use style="stroke:#000000;stroke-width:2;" x="543.158473" xlink:href="#m06c0dec2f1" y="529.466667"/>
    </g>
   </g>
   <g id="PathCollection_5">
    <g clip-path="url(#p7fd4dddc24)">
     <use style="stroke:#000000;stroke-width:2;" x="558.656203" xlink:href="#m06c0dec2f1" y="529.466667"/>
    </g>
   </g>
   <g id="PathCollection_6">
    <g clip-path="url(#p7fd4dddc24)">
     <use style="stroke:#000000;stroke-width:2;" x="574.153933" xlink:href="#m06c0dec2f1" y="529.466667"/>
    </g>
   </g>
   <g id="PathCollection_7">
    <g clip-path="url(#p7fd4dddc24)">
     <use style="stroke:#000000;stroke-width:2;" x="589.651663" xlink:href="#m06c0dec2f1" y="529.466667"/>
    </g>
   </g>
   <g id="PathCollection_8">
    <g clip-path="url(#p7fd4dddc24)">
     <use style="stroke:#000000;stroke-width:2;" x="605.149392" xlink:href="#m06c0dec2f1" y="529.466667"/>
    </g>
   </g>
   <g id="PathCollection_9">
    <g clip-path="url(#p7fd4dddc24)">
     <use style="stroke:#000000;stroke-width:2;" x="620.647122" xlink:href="#m06c0dec2f1" y="529.466667"/>
    </g>
   </g>
   <g id="PathCollection_10">
    <g clip-path="url(#p7fd4dddc24)">
     <use style="stroke:#000000;stroke-width:2;" x="636.144852" xlink:href="#m06c0dec2f1" y="529.466667"/>
    </g>
   </g>
   <g id="PathCollection_11">
    <g clip-path="url(#p7fd4dddc24)">
     <use style="stroke:#000000;stroke-width:2;" x="651.642582" xlink:href="#m06c0dec2f1" y="529.466667"/>
    </g>
   </g>
   <g id="PathCollection_12">
    <g clip-path="url(#p7fd4dddc24)">
     <use style="stroke:#000000;stroke-width:2;" x="667.140311" xlink:href="#m06c0dec2f1" y="529.466667"/>
    </g>
   </g>
   <g id="PathCollection_13">
    <g clip-path="url(#p7fd4dddc24)">
     <use style="stroke:#000000;stroke-width:2;" x="682.638041" xlink:href="#m06c0dec2f1" y="529.466667"/>
    </g>
   </g>
   <g id="PathCollection_14">
    <g clip-path="url(#p7fd4dddc24)">
     <use style="stroke:#000000;stroke-width:2;" x="698.135771" xlink:href="#m06c0dec2f1" y="529.466667"/>
    </g>
   </g>
   <g id="PathCollection_15">
    <g clip-path="url(#p7fd4dddc24)">
     <use style="stroke:#000000;stroke-width:2;" x="713.633501" xlink:href="#m06c0dec2f1" y="529.466667"/>
    </g>
   </g>
   <g id="PathCollection_16">
    <g clip-path="url(#p7fd4dddc24)">
     <use style="stroke:#000000;stroke-width:2;" x="729.131231" xlink:href="#m06c0dec2f1" y="529.466667"/>
    </g>
   </g>
   <g id="line2d_1">
    <path clip-path="url(#p7fd4dddc24)" d="M 481.167554 239.217023 
L 496.665284 206.25699 
L 512.163014 197.341637 
L 527.660743 189.774774 
L 543.158473 188.613175 
L 558.656203 186.077327 
L 574.153933 186.906042 
L 589.651663 187.541766 
L 605.149392 190.251939 
L 620.647122 193.384167 
L 636.144852 197.102201 
L 651.642582 200.678705 
L 667.140311 203.417934 
L 682.638041 206.481408 
L 698.135771 210.285965 
L 713.633501 213.429108 
L 729.131231 216.734995 
L 744.62896 220.929793 
L 760.12669 224.625792 
L 775.62442 228.197866 
L 791.12215 231.888829 
L 806.619879 235.817567 
L 822.117609 240.473089 
L 837.615339 244.978092 
L 853.113069 249.237754 
L 868.610798 253.68637 
L 884.108528 258.056528 
L 899.606258 262.352695 
L 915.103988 265.823792 
L 930.601718 269.714762 
L 946.099447 273.319097 
L 961.597177 276.927626 
L 977.094907 280.352716 
L 992.592637 283.669416 
L 1008.090366 286.807958 
L 1023.588096 289.213887 
L 1039.085826 291.888408 
L 1054.583556 294.21199 
L 1070.081286 296.41561 
L 1085.579015 298.396493 
L 1101.076745 300.122412 
L 1116.574475 301.651985 
L 1132.072205 302.927199 
L 1147.569934 303.927795 
L 1163.067664 304.800989 
L 1178.565394 305.600397 
L 1194.063124 306.167379 
L 1209.560854 306.502029 
L 1225.058583 306.90952 
L 1240.556313 307.200312 
L 1256.054043 307.465569 
L 1271.551773 307.548652 
L 1287.049502 307.604814 
L 1302.547232 307.635093 
L 1318.044962 307.660005 
L 1333.542692 307.660005 
L 1349.040421 307.660005 
L 1364.538151 307.660005 
L 1380.035881 307.660005 
L 1395.533611 307.660005 
" style="fill:none;stroke:#1b9e77;stroke-linecap:round;stroke-width:1.5;"/>
    <defs>
     <path d="M 0 5 
C 1.326016 5 2.597899 4.473168 3.535534 3.535534 
C 4.473168 2.597899 5 1.326016 5 0 
C 5 -1.326016 4.473168 -2.597899 3.535534 -3.535534 
C 2.597899 -4.473168 1.326016 -5 0 -5 
C -1.326016 -5 -2.597899 -4.473168 -3.535534 -3.535534 
C -4.473168 -2.597899 -5 -1.326016 -5 0 
C -5 1.326016 -4.473168 2.597899 -3.535534 3.535534 
C -2.597899 4.473168 -1.326016 5 0 5 
z
" id="m235178e2f3" style="stroke:#000000;stroke-opacity:0;stroke-width:0.75;"/>
    </defs>
    <g clip-path="url(#p7fd4dddc24)">
     <use style="fill:#1b9e77;stroke:#000000;stroke-opacity:0;stroke-width:0.75;" x="481.167554" xlink:href="#m235178e2f3" y="239.217023"/>
     <use style="fill:#1b9e77;stroke:#000000;stroke-opacity:0;stroke-width:0.75;" x="496.665284" xlink:href="#m235178e2f3" y="206.25699"/>
     <use style="fill:#1b9e77;stroke:#000000;stroke-opacity:0;stroke-width:0.75;" x="512.163014" xlink:href="#m235178e2f3" y="197.341637"/>
     <use style="fill:#1b9e77;stroke:#000000;stroke-opacity:0;stroke-width:0.75;" x="527.660743" xlink:href="#m235178e2f3" y="189.774774"/>
     <use style="fill:#1b9e77;stroke:#000000;stroke-opacity:0;stroke-width:0.75;" x="543.158473" xlink:href="#m235178e2f3" y="188.613175"/>
     <use style="fill:#1b9e77;stroke:#000000;stroke-opacity:0;stroke-width:0.75;" x="558.656203" xlink:href="#m235178e2f3" y="186.077327"/>
     <use style="fill:#1b9e77;stroke:#000000;stroke-opacity:0;stroke-width:0.75;" x="574.153933" xlink:href="#m235178e2f3" y="186.906042"/>
     <use style="fill:#1b9e77;stroke:#000000;stroke-opacity:0;stroke-width:0.75;" x="589.651663" xlink:href="#m235178e2f3" y="187.541766"/>
     <use style="fill:#1b9e77;stroke:#000000;stroke-opacity:0;stroke-width:0.75;" x="605.149392" xlink:href="#m235178e2f3" y="190.251939"/>
     <use style="fill:#1b9e77;stroke:#000000;stroke-opacity:0;stroke-width:0.75;" x="620.647122" xlink:href="#m235178e2f3" y="193.384167"/>
     <use style="fill:#1b9e77;stroke:#000000;stroke-opacity:0;stroke-width:0.75;" x="636.144852" xlink:href="#m235178e2f3" y="197.102201"/>
     <use style="fill:#1b9e77;stroke:#000000;stroke-opacity:0;stroke-width:0.75;" x="651.642582" xlink:href="#m235178e2f3" y="200.678705"/>
     <use style="fill:#1b9e77;stroke:#000000;stroke-opacity:0;stroke-width:0.75;" x="667.140311" xlink:href="#m235178e2f3" y="203.417934"/>
     <use style="fill:#1b9e77;stroke:#000000;stroke-opacity:0;stroke-width:0.75;" x="682.638041" xlink:href="#m235178e2f3" y="206.481408"/>
     <use style="fill:#1b9e77;stroke:#000000;stroke-opacity:0;stroke-width:0.75;" x="698.135771" xlink:href="#m235178e2f3" y="210.285965"/>
     <use style="fill:#1b9e77;stroke:#000000;stroke-opacity:0;stroke-width:0.75;" x="713.633501" xlink:href="#m235178e2f3" y="213.429108"/>
     <use style="fill:#1b9e77;stroke:#000000;stroke-opacity:0;stroke-width:0.75;" x="729.131231" xlink:href="#m235178e2f3" y="216.734995"/>
     <use style="fill:#1b9e77;stroke:#000000;stroke-opacity:0;stroke-width:0.75;" x="744.62896" xlink:href="#m235178e2f3" y="220.929793"/>
     <use style="fill:#1b9e77;stroke:#000000;stroke-opacity:0;stroke-width:0.75;" x="760.12669" xlink:href="#m235178e2f3" y="224.625792"/>
     <use style="fill:#1b9e77;stroke:#000000;stroke-opacity:0;stroke-width:0.75;" x="775.62442" xlink:href="#m235178e2f3" y="228.197866"/>
     <use style="fill:#1b9e77;stroke:#000000;stroke-opacity:0;stroke-width:0.75;" x="791.12215" xlink:href="#m235178e2f3" y="231.888829"/>
     <use style="fill:#1b9e77;stroke:#000000;stroke-opacity:0;stroke-width:0.75;" x="806.619879" xlink:href="#m235178e2f3" y="235.817567"/>
     <use style="fill:#1b9e77;stroke:#000000;stroke-opacity:0;stroke-width:0.75;" x="822.117609" xlink:href="#m235178e2f3" y="240.473089"/>
     <use style="fill:#1b9e77;stroke:#000000;stroke-opacity:0;stroke-width:0.75;" x="837.615339" xlink:href="#m235178e2f3" y="244.978092"/>
     <use style="fill:#1b9e77;stroke:#000000;stroke-opacity:0;stroke-width:0.75;" x="853.113069" xlink:href="#m235178e2f3" y="249.237754"/>
     <use style="fill:#1b9e77;stroke:#000000;stroke-opacity:0;stroke-width:0.75;" x="868.610798" xlink:href="#m235178e2f3" y="253.68637"/>
     <use style="fill:#1b9e77;stroke:#000000;stroke-opacity:0;stroke-width:0.75;" x="884.108528" xlink:href="#m235178e2f3" y="258.056528"/>
     <use style="fill:#1b9e77;stroke:#000000;stroke-opacity:0;stroke-width:0.75;" x="899.606258" xlink:href="#m235178e2f3" y="262.352695"/>
     <use style="fill:#1b9e77;stroke:#000000;stroke-opacity:0;stroke-width:0.75;" x="915.103988" xlink:href="#m235178e2f3" y="265.823792"/>
     <use style="fill:#1b9e77;stroke:#000000;stroke-opacity:0;stroke-width:0.75;" x="930.601718" xlink:href="#m235178e2f3" y="269.714762"/>
     <use style="fill:#1b9e77;stroke:#000000;stroke-opacity:0;stroke-width:0.75;" x="946.099447" xlink:href="#m235178e2f3" y="273.319097"/>
     <use style="fill:#1b9e77;stroke:#000000;stroke-opacity:0;stroke-width:0.75;" x="961.597177" xlink:href="#m235178e2f3" y="276.927626"/>
     <use style="fill:#1b9e77;stroke:#000000;stroke-opacity:0;stroke-width:0.75;" x="977.094907" xlink:href="#m235178e2f3" y="280.352716"/>
     <use style="fill:#1b9e77;stroke:#000000;stroke-opacity:0;stroke-width:0.75;" x="992.592637" xlink:href="#m235178e2f3" y="283.669416"/>
     <use style="fill:#1b9e77;stroke:#000000;stroke-opacity:0;stroke-width:0.75;" x="1008.090366" xlink:href="#m235178e2f3" y="286.807958"/>
     <use style="fill:#1b9e77;stroke:#000000;stroke-opacity:0;stroke-width:0.75;" x="1023.588096" xlink:href="#m235178e2f3" y="289.213887"/>
     <use style="fill:#1b9e77;stroke:#000000;stroke-opacity:0;stroke-width:0.75;" x="1039.085826" xlink:href="#m235178e2f3" y="291.888408"/>
     <use style="fill:#1b9e77;stroke:#000000;stroke-opacity:0;stroke-width:0.75;" x="1054.583556" xlink:href="#m235178e2f3" y="294.21199"/>
     <use style="fill:#1b9e77;stroke:#000000;stroke-opacity:0;stroke-width:0.75;" x="1070.081286" xlink:href="#m235178e2f3" y="296.41561"/>
     <use style="fill:#1b9e77;stroke:#000000;stroke-opacity:0;stroke-width:0.75;" x="1085.579015" xlink:href="#m235178e2f3" y="298.396493"/>
     <use style="fill:#1b9e77;stroke:#000000;stroke-opacity:0;stroke-width:0.75;" x="1101.076745" xlink:href="#m235178e2f3" y="300.122412"/>
     <use style="fill:#1b9e77;stroke:#000000;stroke-opacity:0;stroke-width:0.75;" x="1116.574475" xlink:href="#m235178e2f3" y="301.651985"/>
     <use style="fill:#1b9e77;stroke:#000000;stroke-opacity:0;stroke-width:0.75;" x="1132.072205" xlink:href="#m235178e2f3" y="302.927199"/>
     <use style="fill:#1b9e77;stroke:#000000;stroke-opacity:0;stroke-width:0.75;" x="1147.569934" xlink:href="#m235178e2f3" y="303.927795"/>
     <use style="fill:#1b9e77;stroke:#000000;stroke-opacity:0;stroke-width:0.75;" x="1163.067664" xlink:href="#m235178e2f3" y="304.800989"/>
     <use style="fill:#1b9e77;stroke:#000000;stroke-opacity:0;stroke-width:0.75;" x="1178.565394" xlink:href="#m235178e2f3" y="305.600397"/>
     <use style="fill:#1b9e77;stroke:#000000;stroke-opacity:0;stroke-width:0.75;" x="1194.063124" xlink:href="#m235178e2f3" y="306.167379"/>
     <use style="fill:#1b9e77;stroke:#000000;stroke-opacity:0;stroke-width:0.75;" x="1209.560854" xlink:href="#m235178e2f3" y="306.502029"/>
     <use style="fill:#1b9e77;stroke:#000000;stroke-opacity:0;stroke-width:0.75;" x="1225.058583" xlink:href="#m235178e2f3" y="306.90952"/>
     <use style="fill:#1b9e77;stroke:#000000;stroke-opacity:0;stroke-width:0.75;" x="1240.556313" xlink:href="#m235178e2f3" y="307.200312"/>
     <use style="fill:#1b9e77;stroke:#000000;stroke-opacity:0;stroke-width:0.75;" x="1256.054043" xlink:href="#m235178e2f3" y="307.465569"/>
     <use style="fill:#1b9e77;stroke:#000000;stroke-opacity:0;stroke-width:0.75;" x="1271.551773" xlink:href="#m235178e2f3" y="307.548652"/>
     <use style="fill:#1b9e77;stroke:#000000;stroke-opacity:0;stroke-width:0.75;" x="1287.049502" xlink:href="#m235178e2f3" y="307.604814"/>
     <use style="fill:#1b9e77;stroke:#000000;stroke-opacity:0;stroke-width:0.75;" x="1302.547232" xlink:href="#m235178e2f3" y="307.635093"/>
     <use style="fill:#1b9e77;stroke:#000000;stroke-opacity:0;stroke-width:0.75;" x="1318.044962" xlink:href="#m235178e2f3" y="307.660005"/>
     <use style="fill:#1b9e77;stroke:#000000;stroke-opacity:0;stroke-width:0.75;" x="1333.542692" xlink:href="#m235178e2f3" y="307.660005"/>
     <use style="fill:#1b9e77;stroke:#000000;stroke-opacity:0;stroke-width:0.75;" x="1349.040421" xlink:href="#m235178e2f3" y="307.660005"/>
     <use style="fill:#1b9e77;stroke:#000000;stroke-opacity:0;stroke-width:0.75;" x="1364.538151" xlink:href="#m235178e2f3" y="307.660005"/>
     <use style="fill:#1b9e77;stroke:#000000;stroke-opacity:0;stroke-width:0.75;" x="1380.035881" xlink:href="#m235178e2f3" y="307.660005"/>
     <use style="fill:#1b9e77;stroke:#000000;stroke-opacity:0;stroke-width:0.75;" x="1395.533611" xlink:href="#m235178e2f3" y="307.660005"/>
    </g>
   </g>
   <g id="line2d_2">
    <path clip-path="url(#p7fd4dddc24)" d="M 481.167554 273.43135 
L 496.665284 262.522721 
L 512.163014 258.784859 
L 527.660743 255.368108 
L 543.158473 259.069477 
L 558.656203 258.053976 
L 574.153933 258.436663 
L 589.651663 259.917041 
L 605.149392 263.184046 
L 620.647122 265.468311 
L 636.144852 268.93552 
L 651.642582 272.097631 
L 667.140311 275.064125 
L 682.638041 277.403395 
L 698.135771 279.321828 
L 713.633501 280.661583 
L 729.131231 283.253272 
L 744.62896 285.403413 
L 760.12669 287.092266 
L 775.62442 290.535551 
L 791.12215 292.944276 
L 806.619879 296.454573 
L 822.117609 299.161376 
L 837.615339 301.849178 
L 853.113069 305.151264 
L 868.610798 309.091099 
L 884.108528 311.897076 
L 899.606258 315.884467 
L 915.103988 319.972318 
L 930.601718 323.394196 
L 946.099447 327.459333 
L 961.597177 330.744159 
L 977.094907 333.909619 
L 992.592637 336.258037 
L 1008.090366 339.127221 
L 1023.588096 341.41786 
L 1039.085826 343.469355 
L 1054.583556 345.689195 
L 1070.081286 347.650922 
L 1085.579015 349.427804 
L 1101.076745 350.585249 
L 1116.574475 351.828001 
L 1132.072205 352.616864 
L 1147.569934 353.406365 
L 1163.067664 354.416403 
L 1178.565394 355.083159 
L 1194.063124 355.637459 
L 1209.560854 355.795374 
L 1225.058583 356.098929 
L 1240.556313 356.24067 
L 1256.054043 356.395588 
L 1271.551773 356.439486 
L 1287.049502 356.448808 
L 1302.547232 356.454929 
L 1318.044962 356.456027 
L 1333.542692 356.456027 
L 1349.040421 356.456027 
L 1364.538151 356.456027 
L 1380.035881 356.456027 
L 1395.533611 356.456027 
" style="fill:none;stroke:#d95f02;stroke-linecap:round;stroke-width:1.5;"/>
    <defs>
     <path d="M 0 5 
C 1.326016 5 2.597899 4.473168 3.535534 3.535534 
C 4.473168 2.597899 5 1.326016 5 0 
C 5 -1.326016 4.473168 -2.597899 3.535534 -3.535534 
C 2.597899 -4.473168 1.326016 -5 0 -5 
C -1.326016 -5 -2.597899 -4.473168 -3.535534 -3.535534 
C -4.473168 -2.597899 -5 -1.326016 -5 0 
C -5 1.326016 -4.473168 2.597899 -3.535534 3.535534 
C -2.597899 4.473168 -1.326016 5 0 5 
z
" id="me8c9e42eb2" style="stroke:#000000;stroke-opacity:0;stroke-width:0.75;"/>
    </defs>
    <g clip-path="url(#p7fd4dddc24)">
     <use style="fill:#d95f02;stroke:#000000;stroke-opacity:0;stroke-width:0.75;" x="481.167554" xlink:href="#me8c9e42eb2" y="273.43135"/>
     <use style="fill:#d95f02;stroke:#000000;stroke-opacity:0;stroke-width:0.75;" x="496.665284" xlink:href="#me8c9e42eb2" y="262.522721"/>
     <use style="fill:#d95f02;stroke:#000000;stroke-opacity:0;stroke-width:0.75;" x="512.163014" xlink:href="#me8c9e42eb2" y="258.784859"/>
     <use style="fill:#d95f02;stroke:#000000;stroke-opacity:0;stroke-width:0.75;" x="527.660743" xlink:href="#me8c9e42eb2" y="255.368108"/>
     <use style="fill:#d95f02;stroke:#000000;stroke-opacity:0;stroke-width:0.75;" x="543.158473" xlink:href="#me8c9e42eb2" y="259.069477"/>
     <use style="fill:#d95f02;stroke:#000000;stroke-opacity:0;stroke-width:0.75;" x="558.656203" xlink:href="#me8c9e42eb2" y="258.053976"/>
     <use style="fill:#d95f02;stroke:#000000;stroke-opacity:0;stroke-width:0.75;" x="574.153933" xlink:href="#me8c9e42eb2" y="258.436663"/>
     <use style="fill:#d95f02;stroke:#000000;stroke-opacity:0;stroke-width:0.75;" x="589.651663" xlink:href="#me8c9e42eb2" y="259.917041"/>
     <use style="fill:#d95f02;stroke:#000000;stroke-opacity:0;stroke-width:0.75;" x="605.149392" xlink:href="#me8c9e42eb2" y="263.184046"/>
     <use style="fill:#d95f02;stroke:#000000;stroke-opacity:0;stroke-width:0.75;" x="620.647122" xlink:href="#me8c9e42eb2" y="265.468311"/>
     <use style="fill:#d95f02;stroke:#000000;stroke-opacity:0;stroke-width:0.75;" x="636.144852" xlink:href="#me8c9e42eb2" y="268.93552"/>
     <use style="fill:#d95f02;stroke:#000000;stroke-opacity:0;stroke-width:0.75;" x="651.642582" xlink:href="#me8c9e42eb2" y="272.097631"/>
     <use style="fill:#d95f02;stroke:#000000;stroke-opacity:0;stroke-width:0.75;" x="667.140311" xlink:href="#me8c9e42eb2" y="275.064125"/>
     <use style="fill:#d95f02;stroke:#000000;stroke-opacity:0;stroke-width:0.75;" x="682.638041" xlink:href="#me8c9e42eb2" y="277.403395"/>
     <use style="fill:#d95f02;stroke:#000000;stroke-opacity:0;stroke-width:0.75;" x="698.135771" xlink:href="#me8c9e42eb2" y="279.321828"/>
     <use style="fill:#d95f02;stroke:#000000;stroke-opacity:0;stroke-width:0.75;" x="713.633501" xlink:href="#me8c9e42eb2" y="280.661583"/>
     <use style="fill:#d95f02;stroke:#000000;stroke-opacity:0;stroke-width:0.75;" x="729.131231" xlink:href="#me8c9e42eb2" y="283.253272"/>
     <use style="fill:#d95f02;stroke:#000000;stroke-opacity:0;stroke-width:0.75;" x="744.62896" xlink:href="#me8c9e42eb2" y="285.403413"/>
     <use style="fill:#d95f02;stroke:#000000;stroke-opacity:0;stroke-width:0.75;" x="760.12669" xlink:href="#me8c9e42eb2" y="287.092266"/>
     <use style="fill:#d95f02;stroke:#000000;stroke-opacity:0;stroke-width:0.75;" x="775.62442" xlink:href="#me8c9e42eb2" y="290.535551"/>
     <use style="fill:#d95f02;stroke:#000000;stroke-opacity:0;stroke-width:0.75;" x="791.12215" xlink:href="#me8c9e42eb2" y="292.944276"/>
     <use style="fill:#d95f02;stroke:#000000;stroke-opacity:0;stroke-width:0.75;" x="806.619879" xlink:href="#me8c9e42eb2" y="296.454573"/>
     <use style="fill:#d95f02;stroke:#000000;stroke-opacity:0;stroke-width:0.75;" x="822.117609" xlink:href="#me8c9e42eb2" y="299.161376"/>
     <use style="fill:#d95f02;stroke:#000000;stroke-opacity:0;stroke-width:0.75;" x="837.615339" xlink:href="#me8c9e42eb2" y="301.849178"/>
     <use style="fill:#d95f02;stroke:#000000;stroke-opacity:0;stroke-width:0.75;" x="853.113069" xlink:href="#me8c9e42eb2" y="305.151264"/>
     <use style="fill:#d95f02;stroke:#000000;stroke-opacity:0;stroke-width:0.75;" x="868.610798" xlink:href="#me8c9e42eb2" y="309.091099"/>
     <use style="fill:#d95f02;stroke:#000000;stroke-opacity:0;stroke-width:0.75;" x="884.108528" xlink:href="#me8c9e42eb2" y="311.897076"/>
     <use style="fill:#d95f02;stroke:#000000;stroke-opacity:0;stroke-width:0.75;" x="899.606258" xlink:href="#me8c9e42eb2" y="315.884467"/>
     <use style="fill:#d95f02;stroke:#000000;stroke-opacity:0;stroke-width:0.75;" x="915.103988" xlink:href="#me8c9e42eb2" y="319.972318"/>
     <use style="fill:#d95f02;stroke:#000000;stroke-opacity:0;stroke-width:0.75;" x="930.601718" xlink:href="#me8c9e42eb2" y="323.394196"/>
     <use style="fill:#d95f02;stroke:#000000;stroke-opacity:0;stroke-width:0.75;" x="946.099447" xlink:href="#me8c9e42eb2" y="327.459333"/>
     <use style="fill:#d95f02;stroke:#000000;stroke-opacity:0;stroke-width:0.75;" x="961.597177" xlink:href="#me8c9e42eb2" y="330.744159"/>
     <use style="fill:#d95f02;stroke:#000000;stroke-opacity:0;stroke-width:0.75;" x="977.094907" xlink:href="#me8c9e42eb2" y="333.909619"/>
     <use style="fill:#d95f02;stroke:#000000;stroke-opacity:0;stroke-width:0.75;" x="992.592637" xlink:href="#me8c9e42eb2" y="336.258037"/>
     <use style="fill:#d95f02;stroke:#000000;stroke-opacity:0;stroke-width:0.75;" x="1008.090366" xlink:href="#me8c9e42eb2" y="339.127221"/>
     <use style="fill:#d95f02;stroke:#000000;stroke-opacity:0;stroke-width:0.75;" x="1023.588096" xlink:href="#me8c9e42eb2" y="341.41786"/>
     <use style="fill:#d95f02;stroke:#000000;stroke-opacity:0;stroke-width:0.75;" x="1039.085826" xlink:href="#me8c9e42eb2" y="343.469355"/>
     <use style="fill:#d95f02;stroke:#000000;stroke-opacity:0;stroke-width:0.75;" x="1054.583556" xlink:href="#me8c9e42eb2" y="345.689195"/>
     <use style="fill:#d95f02;stroke:#000000;stroke-opacity:0;stroke-width:0.75;" x="1070.081286" xlink:href="#me8c9e42eb2" y="347.650922"/>
     <use style="fill:#d95f02;stroke:#000000;stroke-opacity:0;stroke-width:0.75;" x="1085.579015" xlink:href="#me8c9e42eb2" y="349.427804"/>
     <use style="fill:#d95f02;stroke:#000000;stroke-opacity:0;stroke-width:0.75;" x="1101.076745" xlink:href="#me8c9e42eb2" y="350.585249"/>
     <use style="fill:#d95f02;stroke:#000000;stroke-opacity:0;stroke-width:0.75;" x="1116.574475" xlink:href="#me8c9e42eb2" y="351.828001"/>
     <use style="fill:#d95f02;stroke:#000000;stroke-opacity:0;stroke-width:0.75;" x="1132.072205" xlink:href="#me8c9e42eb2" y="352.616864"/>
     <use style="fill:#d95f02;stroke:#000000;stroke-opacity:0;stroke-width:0.75;" x="1147.569934" xlink:href="#me8c9e42eb2" y="353.406365"/>
     <use style="fill:#d95f02;stroke:#000000;stroke-opacity:0;stroke-width:0.75;" x="1163.067664" xlink:href="#me8c9e42eb2" y="354.416403"/>
     <use style="fill:#d95f02;stroke:#000000;stroke-opacity:0;stroke-width:0.75;" x="1178.565394" xlink:href="#me8c9e42eb2" y="355.083159"/>
     <use style="fill:#d95f02;stroke:#000000;stroke-opacity:0;stroke-width:0.75;" x="1194.063124" xlink:href="#me8c9e42eb2" y="355.637459"/>
     <use style="fill:#d95f02;stroke:#000000;stroke-opacity:0;stroke-width:0.75;" x="1209.560854" xlink:href="#me8c9e42eb2" y="355.795374"/>
     <use style="fill:#d95f02;stroke:#000000;stroke-opacity:0;stroke-width:0.75;" x="1225.058583" xlink:href="#me8c9e42eb2" y="356.098929"/>
     <use style="fill:#d95f02;stroke:#000000;stroke-opacity:0;stroke-width:0.75;" x="1240.556313" xlink:href="#me8c9e42eb2" y="356.24067"/>
     <use style="fill:#d95f02;stroke:#000000;stroke-opacity:0;stroke-width:0.75;" x="1256.054043" xlink:href="#me8c9e42eb2" y="356.395588"/>
     <use style="fill:#d95f02;stroke:#000000;stroke-opacity:0;stroke-width:0.75;" x="1271.551773" xlink:href="#me8c9e42eb2" y="356.439486"/>
     <use style="fill:#d95f02;stroke:#000000;stroke-opacity:0;stroke-width:0.75;" x="1287.049502" xlink:href="#me8c9e42eb2" y="356.448808"/>
     <use style="fill:#d95f02;stroke:#000000;stroke-opacity:0;stroke-width:0.75;" x="1302.547232" xlink:href="#me8c9e42eb2" y="356.454929"/>
     <use style="fill:#d95f02;stroke:#000000;stroke-opacity:0;stroke-width:0.75;" x="1318.044962" xlink:href="#me8c9e42eb2" y="356.456027"/>
     <use style="fill:#d95f02;stroke:#000000;stroke-opacity:0;stroke-width:0.75;" x="1333.542692" xlink:href="#me8c9e42eb2" y="356.456027"/>
     <use style="fill:#d95f02;stroke:#000000;stroke-opacity:0;stroke-width:0.75;" x="1349.040421" xlink:href="#me8c9e42eb2" y="356.456027"/>
     <use style="fill:#d95f02;stroke:#000000;stroke-opacity:0;stroke-width:0.75;" x="1364.538151" xlink:href="#me8c9e42eb2" y="356.456027"/>
     <use style="fill:#d95f02;stroke:#000000;stroke-opacity:0;stroke-width:0.75;" x="1380.035881" xlink:href="#me8c9e42eb2" y="356.456027"/>
     <use style="fill:#d95f02;stroke:#000000;stroke-opacity:0;stroke-width:0.75;" x="1395.533611" xlink:href="#me8c9e42eb2" y="356.456027"/>
    </g>
   </g>
   <g id="line2d_3"/>
   <g id="line2d_4"/>
   <g id="patch_3">
    <path d="M 462.880233 548 
L 462.880233 131 
" style="fill:none;stroke:#262626;stroke-linecap:square;stroke-linejoin:miter;stroke-width:2;"/>
   </g>
   <g id="patch_4">
    <path d="M 462.880233 548 
L 1413.820932 548 
" style="fill:none;stroke:#262626;stroke-linecap:square;stroke-linejoin:miter;stroke-width:2;"/>
   </g>
   <g id="legend_1">
    <g id="line2d_5">
     <path d="M 1163.269057 167.0325 
L 1219.269057 167.0325 
" style="fill:none;stroke:#1b9e77;stroke-linecap:round;stroke-width:1.5;"/>
    </g>
    <g id="line2d_6">
     <g>
      <use style="fill:#1b9e77;stroke:#000000;stroke-opacity:0;stroke-width:0.75;" x="1191.269057" xlink:href="#m235178e2f3" y="167.0325"/>
     </g>
    </g>
    <g id="text_16">
     <!-- Congruent -->
     <g style="fill:#262626;" transform="translate(1241.669057 176.8325)scale(0.28 -0.28)">
      <defs>
       <path d="M 831 1684 
Q 831 1069 1075 730 
Q 1319 391 1734 391 
Q 2138 391 2394 684 
Q 2650 978 2650 1516 
Q 2650 2222 2426 2580 
Q 2203 2938 1747 2938 
Q 1288 2938 1059 2633 
Q 831 2328 831 1684 
z
M 3188 191 
Q 3188 -616 2800 -1012 
Q 2413 -1409 1631 -1409 
Q 1069 -1409 736 -1150 
Q 403 -891 353 -409 
L 916 -409 
Q 959 -653 1142 -797 
Q 1325 -941 1672 -941 
Q 2144 -941 2384 -687 
Q 2625 -434 2625 134 
L 2625 372 
L 2613 372 
Q 2297 -97 1722 -97 
Q 1006 -97 628 431 
Q 250 959 250 1772 
Q 250 2516 631 2980 
Q 1013 3444 1644 3444 
Q 2278 3444 2644 2875 
L 2656 2875 
L 2656 3347 
L 3188 3347 
L 3188 191 
z
" id="HelveticaWorld-Regular-67" transform="scale(0.015625)"/>
      </defs>
      <use xlink:href="#HelveticaWorld-Regular-43"/>
      <use x="72.314453" xlink:href="#HelveticaWorld-Regular-6f"/>
      <use x="128.222656" xlink:href="#HelveticaWorld-Regular-6e"/>
      <use x="183.398438" xlink:href="#HelveticaWorld-Regular-67"/>
      <use x="239.306641" xlink:href="#HelveticaWorld-Regular-72"/>
      <use x="271.875" xlink:href="#HelveticaWorld-Regular-75"/>
      <use x="326.660156" xlink:href="#HelveticaWorld-Regular-65"/>
      <use x="382.080078" xlink:href="#HelveticaWorld-Regular-6e"/>
      <use x="437.255859" xlink:href="#HelveticaWorld-Regular-74"/>
     </g>
    </g>
    <g id="line2d_7">
     <path d="M 1163.269057 207.295625 
L 1219.269057 207.295625 
" style="fill:none;stroke:#d95f02;stroke-linecap:round;stroke-width:1.5;"/>
    </g>
    <g id="line2d_8">
     <g>
      <use style="fill:#d95f02;stroke:#000000;stroke-opacity:0;stroke-width:0.75;" x="1191.269057" xlink:href="#me8c9e42eb2" y="207.295625"/>
     </g>
    </g>
    <g id="text_17">
     <!-- Incongruent -->
     <g style="fill:#262626;" transform="translate(1241.669057 217.095625)scale(0.28 -0.28)">
      <defs>
       <path d="M 2534 2222 
Q 2413 2938 1741 2938 
Q 1325 2938 1072 2605 
Q 819 2272 819 1678 
Q 819 1031 1053 711 
Q 1288 391 1734 391 
Q 2034 391 2253 611 
Q 2472 831 2534 1184 
L 3078 1184 
Q 2994 563 2639 233 
Q 2284 -97 1722 -97 
Q 1063 -97 641 354 
Q 219 806 219 1581 
Q 219 2431 641 2937 
Q 1063 3444 1825 3444 
Q 2381 3444 2711 3111 
Q 3041 2778 3078 2222 
L 2534 2222 
z
" id="HelveticaWorld-Regular-63" transform="scale(0.015625)"/>
      </defs>
      <use xlink:href="#HelveticaWorld-Regular-49"/>
      <use x="25.78125" xlink:href="#HelveticaWorld-Regular-6e"/>
      <use x="80.957031" xlink:href="#HelveticaWorld-Regular-63"/>
      <use x="132.226562" xlink:href="#HelveticaWorld-Regular-6f"/>
      <use x="188.134766" xlink:href="#HelveticaWorld-Regular-6e"/>
      <use x="243.310547" xlink:href="#HelveticaWorld-Regular-67"/>
      <use x="299.21875" xlink:href="#HelveticaWorld-Regular-72"/>
      <use x="331.787109" xlink:href="#HelveticaWorld-Regular-75"/>
      <use x="386.572266" xlink:href="#HelveticaWorld-Regular-65"/>
      <use x="441.992188" xlink:href="#HelveticaWorld-Regular-6e"/>
      <use x="497.167969" xlink:href="#HelveticaWorld-Regular-74"/>
     </g>
    </g>
   </g>
  </g>
  <g id="axes_2">
   <g id="patch_5">
    <path d="M 115.55 668.2 
L 371.830233 668.2 
L 371.830233 10.8 
L 115.55 10.8 
z
" style="fill:#ffffff;"/>
   </g>
   <g id="matplotlib.axis_3">
    <g id="xtick_9"/>
    <g id="text_18">
     <!-- Average -->
     <g style="fill:#262626;" transform="translate(185.500116 702.17)scale(0.32 -0.32)">
      <defs>
       <path d="M 2816 1888 
L 2138 3909 
L 2125 3909 
L 1388 1888 
L 2816 1888 
z
M 1197 1338 
L 716 0 
L 78 0 
L 1806 4594 
L 2509 4594 
L 4172 0 
L 3494 0 
L 3041 1338 
L 1197 1338 
z
" id="HelveticaWorld-Regular-41" transform="scale(0.015625)"/>
       <path d="M 2522 3347 
L 3138 3347 
L 1863 0 
L 1259 0 
L 38 3347 
L 691 3347 
L 1563 622 
L 1575 622 
L 2522 3347 
z
" id="HelveticaWorld-Regular-76" transform="scale(0.015625)"/>
      </defs>
      <use xlink:href="#HelveticaWorld-Regular-41"/>
      <use x="62.824219" xlink:href="#HelveticaWorld-Regular-76"/>
      <use x="110.433594" xlink:href="#HelveticaWorld-Regular-65"/>
      <use x="165.853516" xlink:href="#HelveticaWorld-Regular-72"/>
      <use x="197.421875" xlink:href="#HelveticaWorld-Regular-61"/>
      <use x="252.353516" xlink:href="#HelveticaWorld-Regular-67"/>
      <use x="308.261719" xlink:href="#HelveticaWorld-Regular-65"/>
     </g>
    </g>
   </g>
   <g id="matplotlib.axis_4">
    <g id="ytick_6">
     <g id="text_19">
      <!-- 0.6 -->
      <g style="fill:#262626;" transform="translate(45.32 632.727857)scale(0.32 -0.32)">
       <defs>
        <path d="M 3494 1381 
L 256 1381 
L 256 1850 
L 3494 1850 
L 3494 1381 
z
" id="HelveticaWorld-Regular-2212" transform="scale(0.015625)"/>
       </defs>
       <use xlink:href="#HelveticaWorld-Regular-2212"/>
       <use x="58.59375" xlink:href="#HelveticaWorld-Regular-30"/>
       <use x="114.208984" xlink:href="#HelveticaWorld-Regular-2e"/>
       <use x="141.992188" xlink:href="#HelveticaWorld-Regular-36"/>
      </g>
     </g>
    </g>
    <g id="ytick_7">
     <g id="text_20">
      <!-- 0.4 -->
      <g style="fill:#262626;" transform="translate(45.32 538.813571)scale(0.32 -0.32)">
       <use xlink:href="#HelveticaWorld-Regular-2212"/>
       <use x="58.59375" xlink:href="#HelveticaWorld-Regular-30"/>
       <use x="114.208984" xlink:href="#HelveticaWorld-Regular-2e"/>
       <use x="141.992188" xlink:href="#HelveticaWorld-Regular-34"/>
      </g>
     </g>
    </g>
    <g id="ytick_8">
     <g id="text_21">
      <!-- 0.2 -->
      <g style="fill:#262626;" transform="translate(45.32 444.899286)scale(0.32 -0.32)">
       <use xlink:href="#HelveticaWorld-Regular-2212"/>
       <use x="58.59375" xlink:href="#HelveticaWorld-Regular-30"/>
       <use x="114.208984" xlink:href="#HelveticaWorld-Regular-2e"/>
       <use x="141.992188" xlink:href="#HelveticaWorld-Regular-32"/>
      </g>
     </g>
    </g>
    <g id="ytick_9">
     <g id="text_22">
      <!-- 0.0 -->
      <g style="fill:#262626;" transform="translate(64.07 350.985)scale(0.32 -0.32)">
       <use xlink:href="#HelveticaWorld-Regular-30"/>
       <use x="55.615234" xlink:href="#HelveticaWorld-Regular-2e"/>
       <use x="83.398438" xlink:href="#HelveticaWorld-Regular-30"/>
      </g>
     </g>
    </g>
    <g id="ytick_10">
     <g id="text_23">
      <!-- 0.2 -->
      <g style="fill:#262626;" transform="translate(64.07 257.070714)scale(0.32 -0.32)">
       <use xlink:href="#HelveticaWorld-Regular-30"/>
       <use x="55.615234" xlink:href="#HelveticaWorld-Regular-2e"/>
       <use x="83.398438" xlink:href="#HelveticaWorld-Regular-32"/>
      </g>
     </g>
    </g>
    <g id="ytick_11">
     <g id="text_24">
      <!-- 0.4 -->
      <g style="fill:#262626;" transform="translate(64.07 163.156429)scale(0.32 -0.32)">
       <use xlink:href="#HelveticaWorld-Regular-30"/>
       <use x="55.615234" xlink:href="#HelveticaWorld-Regular-2e"/>
       <use x="83.398438" xlink:href="#HelveticaWorld-Regular-34"/>
      </g>
     </g>
    </g>
    <g id="ytick_12">
     <g id="text_25">
      <!-- 0.6 -->
      <g style="fill:#262626;" transform="translate(64.07 69.242143)scale(0.32 -0.32)">
       <use xlink:href="#HelveticaWorld-Regular-30"/>
       <use x="55.615234" xlink:href="#HelveticaWorld-Regular-2e"/>
       <use x="83.398438" xlink:href="#HelveticaWorld-Regular-36"/>
      </g>
     </g>
    </g>
    <g id="text_26">
     <!--  Classifier Information (a.u.) -->
     <g style="fill:#262626;" transform="translate(34.695 543.335)rotate(-90)scale(0.32 -0.32)">
      <defs>
       <path d="M 941 550 
L 3244 550 
L 2125 3891 
L 2113 3891 
L 941 550 
z
M 97 0 
L 1831 4594 
L 2456 4594 
L 4128 0 
L 97 0 
z
" id="HelveticaWorld-Regular-394" transform="scale(0.015625)"/>
      </defs>
      <use xlink:href="#HelveticaWorld-Regular-394"/>
      <use x="66.015625" xlink:href="#HelveticaWorld-Regular-20"/>
      <use x="90.429688" xlink:href="#HelveticaWorld-Regular-43"/>
      <use x="162.744141" xlink:href="#HelveticaWorld-Regular-6c"/>
      <use x="184.765625" xlink:href="#HelveticaWorld-Regular-61"/>
      <use x="239.697266" xlink:href="#HelveticaWorld-Regular-73"/>
      <use x="289.697266" xlink:href="#HelveticaWorld-Regular-73"/>
      <use x="339.697266" xlink:href="#HelveticaWorld-Regular-69"/>
      <use x="361.71875" xlink:href="#HelveticaWorld-Regular-66"/>
      <use x="389.404297" xlink:href="#HelveticaWorld-Regular-69"/>
      <use x="411.425781" xlink:href="#HelveticaWorld-Regular-65"/>
      <use x="466.845703" xlink:href="#HelveticaWorld-Regular-72"/>
      <use x="499.414062" xlink:href="#HelveticaWorld-Regular-20"/>
      <use x="523.828125" xlink:href="#HelveticaWorld-Regular-49"/>
      <use x="549.609375" xlink:href="#HelveticaWorld-Regular-6e"/>
      <use x="604.785156" xlink:href="#HelveticaWorld-Regular-66"/>
      <use x="630.470703" xlink:href="#HelveticaWorld-Regular-6f"/>
      <use x="686.378906" xlink:href="#HelveticaWorld-Regular-72"/>
      <use x="718.947266" xlink:href="#HelveticaWorld-Regular-6d"/>
      <use x="801.955078" xlink:href="#HelveticaWorld-Regular-61"/>
      <use x="856.886719" xlink:href="#HelveticaWorld-Regular-74"/>
      <use x="884.572266" xlink:href="#HelveticaWorld-Regular-69"/>
      <use x="906.59375" xlink:href="#HelveticaWorld-Regular-6f"/>
      <use x="962.501953" xlink:href="#HelveticaWorld-Regular-6e"/>
      <use x="1017.677734" xlink:href="#HelveticaWorld-Regular-20"/>
      <use x="1042.091797" xlink:href="#HelveticaWorld-Regular-28"/>
      <use x="1075.392578" xlink:href="#HelveticaWorld-Regular-61"/>
      <use x="1130.324219" xlink:href="#HelveticaWorld-Regular-2e"/>
      <use x="1158.107422" xlink:href="#HelveticaWorld-Regular-75"/>
      <use x="1212.892578" xlink:href="#HelveticaWorld-Regular-2e"/>
      <use x="1240.675781" xlink:href="#HelveticaWorld-Regular-29"/>
     </g>
    </g>
   </g>
   <g id="PolyCollection_3">
    <defs>
     <path d="M 219.165692 -106.116829 
L 218.387284 -106.116829 
L 218.094764 -111.674003 
L 217.727572 -117.231177 
L 217.280043 -122.788351 
L 216.750613 -128.345525 
L 216.142924 -133.902699 
L 215.466489 -139.459874 
L 214.73679 -145.017048 
L 213.974676 -150.574222 
L 213.205096 -156.131396 
L 212.455295 -161.68857 
L 211.752667 -167.245744 
L 211.122537 -172.802918 
L 210.586078 -178.360092 
L 210.158541 -183.917266 
L 209.847871 -189.47444 
L 209.653722 -195.031614 
L 209.566839 -200.588788 
L 209.568819 -206.145962 
L 209.632278 -211.703136 
L 209.721537 -217.26031 
L 209.793959 -222.817484 
L 209.802009 -228.374658 
L 209.696039 -233.931832 
L 209.427637 -239.489006 
L 208.953202 -245.04618 
L 208.237337 -250.603354 
L 207.255563 -256.160528 
L 205.99593 -261.717703 
L 204.459241 -267.274877 
L 202.657773 -272.832051 
L 200.612619 -278.389225 
L 198.349938 -283.946399 
L 195.896581 -289.503573 
L 193.275664 -295.060747 
L 190.502676 -300.617921 
L 187.582737 -306.175095 
L 184.509497 -311.732269 
L 181.266072 -317.289443 
L 177.828144 -322.846617 
L 174.169157 -328.403791 
L 170.267186 -333.960965 
L 166.112834 -339.518139 
L 161.717237 -345.075313 
L 157.119134 -350.632487 
L 152.389919 -356.189661 
L 147.635666 -361.746835 
L 142.995379 -367.304009 
L 138.635021 -372.861183 
L 134.737384 -378.418357 
L 131.488394 -383.975531 
L 129.061028 -389.532706 
L 127.598553 -395.08988 
L 127.199101 -400.647054 
L 127.903728 -406.204228 
L 129.689743 -411.761402 
L 132.470532 -417.318576 
L 136.102146 -422.87575 
L 140.395947 -428.432924 
L 145.135682 -433.990098 
L 150.09673 -439.547272 
L 155.065062 -445.104446 
L 159.85364 -450.66162 
L 164.314573 -456.218794 
L 168.346121 -461.775968 
L 171.894417 -467.333142 
L 174.950491 -472.890316 
L 177.543622 -478.44749 
L 179.732285 -484.004664 
L 181.593961 -489.561838 
L 183.214962 -495.119012 
L 184.681179 -500.676186 
L 186.070437 -506.23336 
L 187.446868 -511.790535 
L 188.85749 -517.347709 
L 190.33097 -522.904883 
L 191.878359 -528.462057 
L 193.495467 -534.019231 
L 195.166401 -539.576405 
L 196.867765 -545.133579 
L 198.572973 -550.690753 
L 200.256153 -556.247927 
L 201.895228 -561.805101 
L 203.473842 -567.362275 
L 204.982012 -572.919449 
L 206.415574 -578.476623 
L 207.77468 -584.033797 
L 209.061765 -589.590971 
L 210.279451 -595.148145 
L 211.428863 -600.705319 
L 212.508657 -606.262493 
L 213.514899 -611.819667 
L 214.441747 -617.376841 
L 215.282672 -622.934015 
L 216.031896 -628.491189 
L 216.68571 -634.048364 
L 217.243407 -639.605538 
L 217.707663 -645.162712 
L 218.084391 -650.719886 
L 218.382134 -656.27706 
L 219.165692 -656.27706 
L 219.165692 -656.27706 
L 219.165692 -650.719886 
L 219.165692 -645.162712 
L 219.165692 -639.605538 
L 219.165692 -634.048364 
L 219.165692 -628.491189 
L 219.165692 -622.934015 
L 219.165692 -617.376841 
L 219.165692 -611.819667 
L 219.165692 -606.262493 
L 219.165692 -600.705319 
L 219.165692 -595.148145 
L 219.165692 -589.590971 
L 219.165692 -584.033797 
L 219.165692 -578.476623 
L 219.165692 -572.919449 
L 219.165692 -567.362275 
L 219.165692 -561.805101 
L 219.165692 -556.247927 
L 219.165692 -550.690753 
L 219.165692 -545.133579 
L 219.165692 -539.576405 
L 219.165692 -534.019231 
L 219.165692 -528.462057 
L 219.165692 -522.904883 
L 219.165692 -517.347709 
L 219.165692 -511.790535 
L 219.165692 -506.23336 
L 219.165692 -500.676186 
L 219.165692 -495.119012 
L 219.165692 -489.561838 
L 219.165692 -484.004664 
L 219.165692 -478.44749 
L 219.165692 -472.890316 
L 219.165692 -467.333142 
L 219.165692 -461.775968 
L 219.165692 -456.218794 
L 219.165692 -450.66162 
L 219.165692 -445.104446 
L 219.165692 -439.547272 
L 219.165692 -433.990098 
L 219.165692 -428.432924 
L 219.165692 -422.87575 
L 219.165692 -417.318576 
L 219.165692 -411.761402 
L 219.165692 -406.204228 
L 219.165692 -400.647054 
L 219.165692 -395.08988 
L 219.165692 -389.532706 
L 219.165692 -383.975531 
L 219.165692 -378.418357 
L 219.165692 -372.861183 
L 219.165692 -367.304009 
L 219.165692 -361.746835 
L 219.165692 -356.189661 
L 219.165692 -350.632487 
L 219.165692 -345.075313 
L 219.165692 -339.518139 
L 219.165692 -333.960965 
L 219.165692 -328.403791 
L 219.165692 -322.846617 
L 219.165692 -317.289443 
L 219.165692 -311.732269 
L 219.165692 -306.175095 
L 219.165692 -300.617921 
L 219.165692 -295.060747 
L 219.165692 -289.503573 
L 219.165692 -283.946399 
L 219.165692 -278.389225 
L 219.165692 -272.832051 
L 219.165692 -267.274877 
L 219.165692 -261.717703 
L 219.165692 -256.160528 
L 219.165692 -250.603354 
L 219.165692 -245.04618 
L 219.165692 -239.489006 
L 219.165692 -233.931832 
L 219.165692 -228.374658 
L 219.165692 -222.817484 
L 219.165692 -217.26031 
L 219.165692 -211.703136 
L 219.165692 -206.145962 
L 219.165692 -200.588788 
L 219.165692 -195.031614 
L 219.165692 -189.47444 
L 219.165692 -183.917266 
L 219.165692 -178.360092 
L 219.165692 -172.802918 
L 219.165692 -167.245744 
L 219.165692 -161.68857 
L 219.165692 -156.131396 
L 219.165692 -150.574222 
L 219.165692 -145.017048 
L 219.165692 -139.459874 
L 219.165692 -133.902699 
L 219.165692 -128.345525 
L 219.165692 -122.788351 
L 219.165692 -117.231177 
L 219.165692 -111.674003 
L 219.165692 -106.116829 
z
" id="m68b3873e08" style="stroke:#7a7a7a;stroke-width:1.5;"/>
    </defs>
    <g clip-path="url(#pb863f5087f)">
     <use style="fill:#cccccc;stroke:#7a7a7a;stroke-width:1.5;" x="0" xlink:href="#m68b3873e08" y="720"/>
    </g>
   </g>
   <g id="PolyCollection_4">
    <defs>
     <path d="M 219.165692 -372.861183 
L 138.635021 -372.861183 
L 134.737384 -378.418357 
L 134.737384 -378.418357 
L 131.488394 -383.975531 
L 129.061028 -389.532706 
L 127.598553 -395.08988 
L 127.199101 -400.647054 
L 127.903728 -406.204228 
L 127.903728 -406.204228 
L 129.689743 -411.761402 
L 132.470532 -417.318576 
L 136.102146 -422.87575 
L 140.395947 -428.432924 
L 219.165692 -428.432924 
L 219.165692 -428.432924 
L 219.165692 -422.87575 
L 219.165692 -417.318576 
L 219.165692 -411.761402 
L 219.165692 -406.204228 
L 219.165692 -406.204228 
L 219.165692 -400.647054 
L 219.165692 -395.08988 
L 219.165692 -389.532706 
L 219.165692 -383.975531 
L 219.165692 -378.418357 
L 219.165692 -378.418357 
L 219.165692 -372.861183 
z
" id="mfc77d67d85" style="stroke:#666666;stroke-width:1.5;"/>
    </defs>
    <g clip-path="url(#pb863f5087f)">
     <use style="fill:#8f8f8f;stroke:#666666;stroke-width:1.5;" x="0" xlink:href="#mfc77d67d85" y="720"/>
    </g>
   </g>
   <g id="PolyCollection_5">
    <defs>
     <path d="M 268.214541 -203.615335 
L 269.888915 -203.615335 
L 270.518923 -208.364435 
L 271.32205 -213.113535 
L 272.321302 -217.862635 
L 273.534463 -222.611736 
L 274.971337 -227.360836 
L 276.631295 -232.109936 
L 278.501588 -236.859036 
L 280.556874 -241.608136 
L 282.760363 -246.357237 
L 285.066722 -251.106337 
L 287.426672 -255.855437 
L 289.79287 -260.604537 
L 292.126365 -265.353637 
L 294.402704 -270.102738 
L 296.616681 -274.851838 
L 298.784804 -279.600938 
L 300.944805 -284.350038 
L 303.151952 -289.099138 
L 305.472378 -293.848239 
L 307.974157 -298.597339 
L 310.717229 -303.346439 
L 313.743546 -308.095539 
L 317.068841 -312.844639 
L 320.677262 -317.59374 
L 324.519786 -322.34284 
L 328.516815 -327.09194 
L 332.56483 -331.84104 
L 336.546391 -336.590141 
L 340.342283 -341.339241 
L 343.844234 -346.088341 
L 346.966475 -350.837441 
L 349.654476 -355.586541 
L 351.889549 -360.335642 
L 353.68858 -365.084742 
L 355.09889 -369.833842 
L 356.189033 -374.582942 
L 357.037021 -379.332042 
L 357.717947 -384.081143 
L 358.293041 -388.830243 
L 358.801973 -393.579343 
L 359.25953 -398.328443 
L 359.656991 -403.077543 
L 359.967591 -407.826644 
L 360.154736 -412.575744 
L 360.181131 -417.324844 
L 360.016958 -422.073944 
L 359.645504 -426.823044 
L 359.065321 -431.572145 
L 358.288733 -436.321245 
L 357.337305 -441.070345 
L 356.235474 -445.819445 
L 355.003842 -450.568546 
L 353.653607 -455.317646 
L 352.183267 -460.066746 
L 350.578208 -464.815846 
L 348.813151 -469.564946 
L 346.856856 -474.314047 
L 344.678106 -479.063147 
L 342.251778 -483.812247 
L 339.563934 -488.561347 
L 336.61509 -493.310447 
L 333.421279 -498.059548 
L 330.012945 -502.808648 
L 326.432096 -507.557748 
L 322.728419 -512.306848 
L 318.955134 -517.055948 
L 315.165309 -521.805049 
L 311.409134 -526.554149 
L 307.732372 -531.303249 
L 304.175909 -536.052349 
L 300.776075 -540.801449 
L 297.565274 -545.55055 
L 294.572428 -550.29965 
L 291.822873 -555.04875 
L 289.337511 -559.79785 
L 287.131291 -564.54695 
L 285.211295 -569.296051 
L 283.574889 -574.045151 
L 282.208428 -578.794251 
L 281.086978 -583.543351 
L 280.175322 -588.292452 
L 279.430303 -593.041552 
L 278.804287 -597.790652 
L 278.249314 -602.539752 
L 277.721369 -607.288852 
L 277.184165 -612.037953 
L 276.6119 -616.787053 
L 275.990668 -621.536153 
L 275.318372 -626.285253 
L 274.603277 -631.034353 
L 273.86152 -635.783454 
L 273.114013 -640.532554 
L 272.383244 -645.281654 
L 271.690398 -650.030754 
L 271.053123 -654.779854 
L 270.48414 -659.528955 
L 269.990686 -664.278055 
L 269.574721 -669.027155 
L 269.233681 -673.776255 
L 268.214541 -673.776255 
L 268.214541 -673.776255 
L 268.214541 -669.027155 
L 268.214541 -664.278055 
L 268.214541 -659.528955 
L 268.214541 -654.779854 
L 268.214541 -650.030754 
L 268.214541 -645.281654 
L 268.214541 -640.532554 
L 268.214541 -635.783454 
L 268.214541 -631.034353 
L 268.214541 -626.285253 
L 268.214541 -621.536153 
L 268.214541 -616.787053 
L 268.214541 -612.037953 
L 268.214541 -607.288852 
L 268.214541 -602.539752 
L 268.214541 -597.790652 
L 268.214541 -593.041552 
L 268.214541 -588.292452 
L 268.214541 -583.543351 
L 268.214541 -578.794251 
L 268.214541 -574.045151 
L 268.214541 -569.296051 
L 268.214541 -564.54695 
L 268.214541 -559.79785 
L 268.214541 -555.04875 
L 268.214541 -550.29965 
L 268.214541 -545.55055 
L 268.214541 -540.801449 
L 268.214541 -536.052349 
L 268.214541 -531.303249 
L 268.214541 -526.554149 
L 268.214541 -521.805049 
L 268.214541 -517.055948 
L 268.214541 -512.306848 
L 268.214541 -507.557748 
L 268.214541 -502.808648 
L 268.214541 -498.059548 
L 268.214541 -493.310447 
L 268.214541 -488.561347 
L 268.214541 -483.812247 
L 268.214541 -479.063147 
L 268.214541 -474.314047 
L 268.214541 -469.564946 
L 268.214541 -464.815846 
L 268.214541 -460.066746 
L 268.214541 -455.317646 
L 268.214541 -450.568546 
L 268.214541 -445.819445 
L 268.214541 -441.070345 
L 268.214541 -436.321245 
L 268.214541 -431.572145 
L 268.214541 -426.823044 
L 268.214541 -422.073944 
L 268.214541 -417.324844 
L 268.214541 -412.575744 
L 268.214541 -407.826644 
L 268.214541 -403.077543 
L 268.214541 -398.328443 
L 268.214541 -393.579343 
L 268.214541 -388.830243 
L 268.214541 -384.081143 
L 268.214541 -379.332042 
L 268.214541 -374.582942 
L 268.214541 -369.833842 
L 268.214541 -365.084742 
L 268.214541 -360.335642 
L 268.214541 -355.586541 
L 268.214541 -350.837441 
L 268.214541 -346.088341 
L 268.214541 -341.339241 
L 268.214541 -336.590141 
L 268.214541 -331.84104 
L 268.214541 -327.09194 
L 268.214541 -322.34284 
L 268.214541 -317.59374 
L 268.214541 -312.844639 
L 268.214541 -308.095539 
L 268.214541 -303.346439 
L 268.214541 -298.597339 
L 268.214541 -293.848239 
L 268.214541 -289.099138 
L 268.214541 -284.350038 
L 268.214541 -279.600938 
L 268.214541 -274.851838 
L 268.214541 -270.102738 
L 268.214541 -265.353637 
L 268.214541 -260.604537 
L 268.214541 -255.855437 
L 268.214541 -251.106337 
L 268.214541 -246.357237 
L 268.214541 -241.608136 
L 268.214541 -236.859036 
L 268.214541 -232.109936 
L 268.214541 -227.360836 
L 268.214541 -222.611736 
L 268.214541 -217.862635 
L 268.214541 -213.113535 
L 268.214541 -208.364435 
L 268.214541 -203.615335 
z
" id="m59571e8f79" style="stroke:#7a7a7a;stroke-width:1.5;"/>
    </defs>
    <g clip-path="url(#pb863f5087f)">
     <use style="fill:#cccccc;stroke:#7a7a7a;stroke-width:1.5;" x="0" xlink:href="#m59571e8f79" y="720"/>
    </g>
   </g>
   <g id="PolyCollection_6">
    <defs>
     <path d="M 268.214541 -389.891429 
L 358.293041 -389.891429 
L 358.801973 -393.579343 
L 359.25953 -398.328443 
L 359.656991 -403.077543 
L 359.967591 -407.826644 
L 360.154736 -412.575744 
L 360.181131 -417.324844 
L 360.016958 -422.073944 
L 359.645504 -426.823044 
L 359.065321 -431.572145 
L 358.288733 -436.321245 
L 357.337305 -441.070345 
L 268.214541 -441.070345 
L 268.214541 -441.070345 
L 268.214541 -436.321245 
L 268.214541 -431.572145 
L 268.214541 -426.823044 
L 268.214541 -422.073944 
L 268.214541 -417.324844 
L 268.214541 -412.575744 
L 268.214541 -407.826644 
L 268.214541 -403.077543 
L 268.214541 -398.328443 
L 268.214541 -393.579343 
L 268.214541 -389.891429 
z
" id="m1af5b3eb9b" style="stroke:#666666;stroke-width:1.5;"/>
    </defs>
    <g clip-path="url(#pb863f5087f)">
     <use style="fill:#8f8f8f;stroke:#666666;stroke-width:1.5;" x="0" xlink:href="#m1af5b3eb9b" y="720"/>
    </g>
   </g>
   <g id="PathCollection_17">
    <defs>
     <path d="M 0 3 
C 0.795609 3 1.55874 2.683901 2.12132 2.12132 
C 2.683901 1.55874 3 0.795609 3 0 
C 3 -0.795609 2.683901 -1.55874 2.12132 -2.12132 
C 1.55874 -2.683901 0.795609 -3 0 -3 
C -0.795609 -3 -1.55874 -2.683901 -2.12132 -2.12132 
C -2.683901 -1.55874 -3 -0.795609 -3 0 
C -3 0.795609 -2.683901 1.55874 -2.12132 2.12132 
C -1.55874 2.683901 -0.795609 3 0 3 
z
" id="m95305f3d70" style="stroke:#000000;stroke-opacity:0.3;"/>
    </defs>
    <g clip-path="url(#pb863f5087f)">
     <use style="fill-opacity:0.3;stroke:#000000;stroke-opacity:0.3;" x="203.348641" xlink:href="#m95305f3d70" y="176.091217"/>
     <use style="fill-opacity:0.3;stroke:#000000;stroke-opacity:0.3;" x="187.666463" xlink:href="#m95305f3d70" y="212.752138"/>
     <use style="fill-opacity:0.3;stroke:#000000;stroke-opacity:0.3;" x="179.807709" xlink:href="#m95305f3d70" y="248.234316"/>
     <use style="fill-opacity:0.3;stroke:#000000;stroke-opacity:0.3;" x="211.59983" xlink:href="#m95305f3d70" y="283.053735"/>
     <use style="fill-opacity:0.3;stroke:#000000;stroke-opacity:0.3;" x="157.980951" xlink:href="#m95305f3d70" y="338.999367"/>
     <use style="fill-opacity:0.3;stroke:#000000;stroke-opacity:0.3;" x="217.617823" xlink:href="#m95305f3d70" y="216.224974"/>
     <use style="fill-opacity:0.3;stroke:#000000;stroke-opacity:0.3;" x="144.616386" xlink:href="#m95305f3d70" y="297.937291"/>
     <use style="fill-opacity:0.3;stroke:#000000;stroke-opacity:0.3;" x="194.830853" xlink:href="#m95305f3d70" y="330.084137"/>
     <use style="fill-opacity:0.3;stroke:#000000;stroke-opacity:0.3;" x="155.532486" xlink:href="#m95305f3d70" y="341.39933"/>
     <use style="fill-opacity:0.3;stroke:#000000;stroke-opacity:0.3;" x="193.378029" xlink:href="#m95305f3d70" y="416.413283"/>
     <use style="fill-opacity:0.3;stroke:#000000;stroke-opacity:0.3;" x="186.034972" xlink:href="#m95305f3d70" y="320.834696"/>
     <use style="fill-opacity:0.3;stroke:#000000;stroke-opacity:0.3;" x="155.652602" xlink:href="#m95305f3d70" y="356.922884"/>
     <use style="fill-opacity:0.3;stroke:#000000;stroke-opacity:0.3;" x="212.277531" xlink:href="#m95305f3d70" y="184.720679"/>
     <use style="fill-opacity:0.3;stroke:#000000;stroke-opacity:0.3;" x="189.569622" xlink:href="#m95305f3d70" y="316.072051"/>
     <use style="fill-opacity:0.3;stroke:#000000;stroke-opacity:0.3;" x="205.049726" xlink:href="#m95305f3d70" y="353.765843"/>
     <use style="fill-opacity:0.3;stroke:#000000;stroke-opacity:0.3;" x="201.917543" xlink:href="#m95305f3d70" y="438.996467"/>
     <use style="fill-opacity:0.3;stroke:#000000;stroke-opacity:0.3;" x="162.287106" xlink:href="#m95305f3d70" y="309.875263"/>
     <use style="fill-opacity:0.3;stroke:#000000;stroke-opacity:0.3;" x="216.122626" xlink:href="#m95305f3d70" y="545.034981"/>
     <use style="fill-opacity:0.3;stroke:#000000;stroke-opacity:0.3;" x="191.195772" xlink:href="#m95305f3d70" y="299.038241"/>
     <use style="fill-opacity:0.3;stroke:#000000;stroke-opacity:0.3;" x="209.9817" xlink:href="#m95305f3d70" y="260.503882"/>
     <use style="fill-opacity:0.3;stroke:#000000;stroke-opacity:0.3;" x="218.36549" xlink:href="#m95305f3d70" y="385.087225"/>
     <use style="fill-opacity:0.3;stroke:#000000;stroke-opacity:0.3;" x="181.441675" xlink:href="#m95305f3d70" y="394.284712"/>
     <use style="fill-opacity:0.3;stroke:#000000;stroke-opacity:0.3;" x="130.118536" xlink:href="#m95305f3d70" y="322.138459"/>
     <use style="fill-opacity:0.3;stroke:#000000;stroke-opacity:0.3;" x="215.234847" xlink:href="#m95305f3d70" y="132.57113"/>
     <use style="fill-opacity:0.3;stroke:#000000;stroke-opacity:0.3;" x="192.664567" xlink:href="#m95305f3d70" y="309.059927"/>
     <use style="fill-opacity:0.3;stroke:#000000;stroke-opacity:0.3;" x="192.610428" xlink:href="#m95305f3d70" y="401.90393"/>
     <use style="fill-opacity:0.3;stroke:#000000;stroke-opacity:0.3;" x="199.532678" xlink:href="#m95305f3d70" y="221.613509"/>
     <use style="fill-opacity:0.3;stroke:#000000;stroke-opacity:0.3;" x="167.61065" xlink:href="#m95305f3d70" y="363.056739"/>
     <use style="fill-opacity:0.3;stroke:#000000;stroke-opacity:0.3;" x="189.164949" xlink:href="#m95305f3d70" y="321.990793"/>
     <use style="fill-opacity:0.3;stroke:#000000;stroke-opacity:0.3;" x="218.470995" xlink:href="#m95305f3d70" y="504.053904"/>
     <use style="fill-opacity:0.3;stroke:#000000;stroke-opacity:0.3;" x="178.411988" xlink:href="#m95305f3d70" y="265.461735"/>
     <use style="fill-opacity:0.3;stroke:#000000;stroke-opacity:0.3;" x="207.273628" xlink:href="#m95305f3d70" y="295.695257"/>
     <use style="fill-opacity:0.3;stroke:#000000;stroke-opacity:0.3;" x="190.753643" xlink:href="#m95305f3d70" y="354.144797"/>
     <use style="fill-opacity:0.3;stroke:#000000;stroke-opacity:0.3;" x="170.568336" xlink:href="#m95305f3d70" y="308.696939"/>
     <use style="fill-opacity:0.3;stroke:#000000;stroke-opacity:0.3;" x="133.921714" xlink:href="#m95305f3d70" y="315.402479"/>
    </g>
   </g>
   <g id="PathCollection_18">
    <g clip-path="url(#pb863f5087f)">
     <use style="fill-opacity:0.3;stroke:#000000;stroke-opacity:0.3;" x="271.399401" xlink:href="#m95305f3d70" y="109.860007"/>
     <use style="fill-opacity:0.3;stroke:#000000;stroke-opacity:0.3;" x="285.973653" xlink:href="#m95305f3d70" y="364.874274"/>
     <use style="fill-opacity:0.3;stroke:#000000;stroke-opacity:0.3;" x="303.984969" xlink:href="#m95305f3d70" y="273.142785"/>
     <use style="fill-opacity:0.3;stroke:#000000;stroke-opacity:0.3;" x="315.613866" xlink:href="#m95305f3d70" y="350.120853"/>
     <use style="fill-opacity:0.3;stroke:#000000;stroke-opacity:0.3;" x="273.84045" xlink:href="#m95305f3d70" y="452.748403"/>
     <use style="fill-opacity:0.3;stroke:#000000;stroke-opacity:0.3;" x="270.077904" xlink:href="#m95305f3d70" y="212.537189"/>
     <use style="fill-opacity:0.3;stroke:#000000;stroke-opacity:0.3;" x="303.414642" xlink:href="#m95305f3d70" y="257.512095"/>
     <use style="fill-opacity:0.3;stroke:#000000;stroke-opacity:0.3;" x="269.1382" xlink:href="#m95305f3d70" y="317.870881"/>
     <use style="fill-opacity:0.3;stroke:#000000;stroke-opacity:0.3;" x="322.342451" xlink:href="#m95305f3d70" y="250.578966"/>
     <use style="fill-opacity:0.3;stroke:#000000;stroke-opacity:0.3;" x="283.198227" xlink:href="#m95305f3d70" y="437.099822"/>
     <use style="fill-opacity:0.3;stroke:#000000;stroke-opacity:0.3;" x="293.725284" xlink:href="#m95305f3d70" y="263.154742"/>
     <use style="fill-opacity:0.3;stroke:#000000;stroke-opacity:0.3;" x="310.859284" xlink:href="#m95305f3d70" y="383.346242"/>
     <use style="fill-opacity:0.3;stroke:#000000;stroke-opacity:0.3;" x="358.439801" xlink:href="#m95305f3d70" y="300.59604"/>
     <use style="fill-opacity:0.3;stroke:#000000;stroke-opacity:0.3;" x="271.021679" xlink:href="#m95305f3d70" y="208.11801"/>
     <use style="fill-opacity:0.3;stroke:#000000;stroke-opacity:0.3;" x="278.276088" xlink:href="#m95305f3d70" y="393.788922"/>
     <use style="fill-opacity:0.3;stroke:#000000;stroke-opacity:0.3;" x="357.295061" xlink:href="#m95305f3d70" y="296.492393"/>
     <use style="fill-opacity:0.3;stroke:#000000;stroke-opacity:0.3;" x="339.326798" xlink:href="#m95305f3d70" y="352.436509"/>
     <use style="fill-opacity:0.3;stroke:#000000;stroke-opacity:0.3;" x="273.618665" xlink:href="#m95305f3d70" y="394.180872"/>
     <use style="fill-opacity:0.3;stroke:#000000;stroke-opacity:0.3;" x="306.126525" xlink:href="#m95305f3d70" y="237.534445"/>
     <use style="fill-opacity:0.3;stroke:#000000;stroke-opacity:0.3;" x="295.325706" xlink:href="#m95305f3d70" y="291.705707"/>
     <use style="fill-opacity:0.3;stroke:#000000;stroke-opacity:0.3;" x="329.478398" xlink:href="#m95305f3d70" y="356.298316"/>
     <use style="fill-opacity:0.3;stroke:#000000;stroke-opacity:0.3;" x="322.785965" xlink:href="#m95305f3d70" y="319.676236"/>
     <use style="fill-opacity:0.3;stroke:#000000;stroke-opacity:0.3;" x="279.35103" xlink:href="#m95305f3d70" y="171.319563"/>
     <use style="fill-opacity:0.3;stroke:#000000;stroke-opacity:0.3;" x="323.987499" xlink:href="#m95305f3d70" y="239.115886"/>
     <use style="fill-opacity:0.3;stroke:#000000;stroke-opacity:0.3;" x="301.304028" xlink:href="#m95305f3d70" y="291.419642"/>
     <use style="fill-opacity:0.3;stroke:#000000;stroke-opacity:0.3;" x="317.80203" xlink:href="#m95305f3d70" y="226.349279"/>
     <use style="fill-opacity:0.3;stroke:#000000;stroke-opacity:0.3;" x="341.30978" xlink:href="#m95305f3d70" y="289.728181"/>
     <use style="fill-opacity:0.3;stroke:#000000;stroke-opacity:0.3;" x="322.92386" xlink:href="#m95305f3d70" y="236.667901"/>
     <use style="fill-opacity:0.3;stroke:#000000;stroke-opacity:0.3;" x="305.177398" xlink:href="#m95305f3d70" y="364.958569"/>
     <use style="fill-opacity:0.3;stroke:#000000;stroke-opacity:0.3;" x="300.566879" xlink:href="#m95305f3d70" y="436.136144"/>
     <use style="fill-opacity:0.3;stroke:#000000;stroke-opacity:0.3;" x="299.938043" xlink:href="#m95305f3d70" y="316.879483"/>
     <use style="fill-opacity:0.3;stroke:#000000;stroke-opacity:0.3;" x="269.945672" xlink:href="#m95305f3d70" y="186.860268"/>
     <use style="fill-opacity:0.3;stroke:#000000;stroke-opacity:0.3;" x="318.698256" xlink:href="#m95305f3d70" y="362.579394"/>
     <use style="fill-opacity:0.3;stroke:#000000;stroke-opacity:0.3;" x="294.3824" xlink:href="#m95305f3d70" y="312.586935"/>
     <use style="fill-opacity:0.3;stroke:#000000;stroke-opacity:0.3;" x="293.709783" xlink:href="#m95305f3d70" y="355.37888"/>
    </g>
   </g>
   <g id="line2d_9">
    <path clip-path="url(#pb863f5087f)" d="M 243.690116 334.804286 
L 243.690116 287.847143 
" style="fill:none;stroke:#000000;stroke-linecap:round;stroke-width:3;"/>
   </g>
   <g id="line2d_10">
    <path clip-path="url(#pb863f5087f)" d="M 237.55901 334.804286 
L 249.821223 334.804286 
" style="fill:none;stroke:#000000;stroke-linecap:round;stroke-width:3;"/>
   </g>
   <g id="line2d_11">
    <path clip-path="url(#pb863f5087f)" d="M 237.55901 287.847143 
L 249.821223 287.847143 
" style="fill:none;stroke:#000000;stroke-linecap:round;stroke-width:3;"/>
   </g>
   <g id="line2d_12">
    <defs>
     <path d="M 0 7.5 
C 1.989023 7.5 3.896849 6.709753 5.303301 5.303301 
C 6.709753 3.896849 7.5 1.989023 7.5 0 
C 7.5 -1.989023 6.709753 -3.896849 5.303301 -5.303301 
C 3.896849 -6.709753 1.989023 -7.5 0 -7.5 
C -1.989023 -7.5 -3.896849 -6.709753 -5.303301 -5.303301 
C -6.709753 -3.896849 -7.5 -1.989023 -7.5 0 
C -7.5 1.989023 -6.709753 3.896849 -5.303301 5.303301 
C -3.896849 6.709753 -1.989023 7.5 0 7.5 
z
" id="m54d3307ddc" style="stroke:#000000;"/>
    </defs>
    <g clip-path="url(#pb863f5087f)">
     <use style="stroke:#000000;" x="243.690116" xlink:href="#m54d3307ddc" y="310.796716"/>
    </g>
   </g>
   <g id="line2d_13">
    <path clip-path="url(#pb863f5087f)" d="M 115.55 339.5 
L 371.830233 339.5 
" style="fill:none;stroke:#000000;stroke-dasharray:7.4,3.2;stroke-dashoffset:0;stroke-width:2;"/>
   </g>
   <g id="patch_6">
    <path d="M 115.55 668.2 
L 115.55 10.8 
" style="fill:none;stroke:#262626;stroke-linecap:square;stroke-linejoin:miter;stroke-width:2;"/>
   </g>
  </g>
 </g>
 <defs>
  <clipPath id="p7fd4dddc24">
   <rect height="417" width="950.940699" x="462.880233" y="131"/>
  </clipPath>
  <clipPath id="pb863f5087f">
   <rect height="657.4" width="256.280233" x="115.55" y="10.8"/>
  </clipPath>
 </defs>
</svg>
