<?xml version="1.0" encoding="utf-8" standalone="no"?>
<!DOCTYPE svg PUBLIC "-//W3C//DTD SVG 1.1//EN"
  "http://www.w3.org/Graphics/SVG/1.1/DTD/svg11.dtd">
<svg height="720pt" version="1.1" viewBox="0 0 1440 720" width="1440pt" xmlns="http://www.w3.org/2000/svg" xmlns:xlink="http://www.w3.org/1999/xlink">
 <metadata>
  <rdf:RDF xmlns:cc="http://creativecommons.org/ns#" xmlns:dc="http://purl.org/dc/elements/1.1/" xmlns:rdf="http://www.w3.org/1999/02/22-rdf-syntax-ns#">
   <cc:Work>
    <dc:type rdf:resource="http://purl.org/dc/dcmitype/StillImage"/>
    <dc:date>2025-06-15T20:12:22.316093</dc:date>
    <dc:format>image/svg+xml</dc:format>
    <dc:creator>
     <cc:Agent>
      <dc:title>Matplotlib v3.4.3, https://matplotlib.org/</dc:title>
     </cc:Agent>
    </dc:creator>
   </cc:Work>
  </rdf:RDF>
 </metadata>
 <defs>
  <style type="text/css">*{stroke-linecap:butt;stroke-linejoin:round;}</style>
 </defs>
 <g id="figure_1">
  <g id="patch_1">
   <path d="M 0 720 
L 1440 720 
L 1440 0 
L 0 0 
z
" style="fill:none;"/>
  </g>
  <g id="axes_1">
   <g id="patch_2">
    <path d="M 462.880233 548 
L 1413.820932 548 
L 1413.820932 131 
L 462.880233 131 
z
" style="fill:#ffffff;"/>
   </g>
   <g id="matplotlib.axis_1">
    <g id="xtick_1">
     <g id="text_1">
      <!-- 100 -->
      <g style="fill:#262626;" transform="translate(457.811617 575.09875)scale(0.28 -0.28)">
       <defs>
        <path d="M 2297 0 
L 1697 0 
L 1697 3194 
L 647 3194 
L 647 3641 
Q 1197 3659 1465 3817 
Q 1734 3975 1856 4500 
L 2297 4500 
L 2297 0 
z
" id="HelveticaWorld-Regular-31" transform="scale(0.015625)"/>
        <path d="M 2719 2188 
Q 2719 3091 2480 3542 
Q 2241 3994 1778 3994 
Q 1325 3994 1081 3542 
Q 838 3091 838 2188 
Q 838 1313 1078 848 
Q 1319 384 1778 384 
Q 2241 384 2480 832 
Q 2719 1281 2719 2188 
z
M 3322 2188 
Q 3322 1081 2922 479 
Q 2522 -122 1778 -122 
Q 1006 -122 622 501 
Q 238 1125 238 2188 
Q 238 3278 631 3889 
Q 1025 4500 1778 4500 
Q 2522 4500 2922 3892 
Q 3322 3284 3322 2188 
z
" id="HelveticaWorld-Regular-30" transform="scale(0.015625)"/>
       </defs>
       <use xlink:href="#HelveticaWorld-Regular-31"/>
       <use x="55.615234" xlink:href="#HelveticaWorld-Regular-30"/>
       <use x="111.230469" xlink:href="#HelveticaWorld-Regular-30"/>
      </g>
     </g>
    </g>
    <g id="xtick_2">
     <g id="text_2">
      <!-- 500 -->
      <g style="fill:#262626;" transform="translate(519.802536 575.09875)scale(0.28 -0.28)">
       <defs>
        <path d="M 941 2619 
Q 1313 2900 1813 2900 
Q 2419 2900 2855 2497 
Q 3291 2094 3291 1459 
Q 3291 769 2870 320 
Q 2450 -128 1691 -128 
Q 1031 -128 650 195 
Q 269 519 206 1113 
L 788 1113 
Q 831 750 1072 558 
Q 1313 366 1741 366 
Q 2156 366 2422 653 
Q 2688 941 2688 1388 
Q 2688 1844 2409 2119 
Q 2131 2394 1691 2394 
Q 1191 2394 856 1966 
L 372 1991 
L 709 4397 
L 3041 4397 
L 3041 3853 
L 1131 3853 
L 941 2619 
z
" id="HelveticaWorld-Regular-35" transform="scale(0.015625)"/>
       </defs>
       <use xlink:href="#HelveticaWorld-Regular-35"/>
       <use x="55.615234" xlink:href="#HelveticaWorld-Regular-30"/>
       <use x="111.230469" xlink:href="#HelveticaWorld-Regular-30"/>
      </g>
     </g>
    </g>
    <g id="xtick_3">
     <g id="text_3">
      <!-- 1000 -->
      <g style="fill:#262626;" transform="translate(589.505872 575.09875)scale(0.28 -0.28)">
       <use xlink:href="#HelveticaWorld-Regular-31"/>
       <use x="55.615234" xlink:href="#HelveticaWorld-Regular-30"/>
       <use x="111.230469" xlink:href="#HelveticaWorld-Regular-30"/>
       <use x="166.845703" xlink:href="#HelveticaWorld-Regular-30"/>
      </g>
     </g>
    </g>
    <g id="xtick_4">
     <g id="text_4">
      <!-- 2000 -->
      <g style="fill:#262626;" transform="translate(744.48317 575.09875)scale(0.28 -0.28)">
       <defs>
        <path d="M 281 2888 
Q 281 3681 690 4090 
Q 1100 4500 1838 4500 
Q 2456 4500 2850 4125 
Q 3244 3750 3244 3156 
Q 3244 2694 3017 2376 
Q 2791 2059 2350 1819 
L 1575 1394 
Q 891 1019 800 531 
L 3244 531 
L 3244 0 
L 166 0 
Q 191 634 441 1056 
Q 691 1478 1222 1784 
L 2028 2253 
Q 2350 2438 2497 2636 
Q 2644 2834 2644 3181 
Q 2644 3525 2403 3759 
Q 2163 3994 1753 3994 
Q 1300 3994 1075 3695 
Q 850 3397 844 2888 
L 281 2888 
z
" id="HelveticaWorld-Regular-32" transform="scale(0.015625)"/>
       </defs>
       <use xlink:href="#HelveticaWorld-Regular-32"/>
       <use x="55.615234" xlink:href="#HelveticaWorld-Regular-30"/>
       <use x="111.230469" xlink:href="#HelveticaWorld-Regular-30"/>
       <use x="166.845703" xlink:href="#HelveticaWorld-Regular-30"/>
      </g>
     </g>
    </g>
    <g id="xtick_5">
     <g id="text_5">
      <!-- 3000 -->
      <g style="fill:#262626;" transform="translate(899.460468 575.09875)scale(0.28 -0.28)">
       <defs>
        <path d="M 1434 2559 
Q 1575 2547 1728 2547 
Q 2125 2547 2354 2730 
Q 2584 2913 2584 3284 
Q 2584 3584 2370 3789 
Q 2156 3994 1753 3994 
Q 1306 3994 1098 3731 
Q 891 3469 878 3028 
L 325 3028 
Q 325 3731 694 4115 
Q 1063 4500 1778 4500 
Q 2413 4500 2791 4173 
Q 3169 3847 3169 3316 
Q 3169 2631 2591 2388 
L 2591 2375 
Q 3341 2119 3341 1325 
Q 3341 691 2919 284 
Q 2497 -122 1722 -122 
Q 1088 -122 678 211 
Q 269 544 219 1375 
L 800 1375 
Q 813 856 1056 620 
Q 1300 384 1759 384 
Q 2203 384 2472 631 
Q 2741 878 2741 1253 
Q 2741 1663 2484 1872 
Q 2228 2081 1691 2081 
Q 1563 2081 1434 2075 
L 1434 2559 
z
" id="HelveticaWorld-Regular-33" transform="scale(0.015625)"/>
       </defs>
       <use xlink:href="#HelveticaWorld-Regular-33"/>
       <use x="55.615234" xlink:href="#HelveticaWorld-Regular-30"/>
       <use x="111.230469" xlink:href="#HelveticaWorld-Regular-30"/>
       <use x="166.845703" xlink:href="#HelveticaWorld-Regular-30"/>
      </g>
     </g>
    </g>
    <g id="xtick_6">
     <g id="text_6">
      <!-- 4000 -->
      <g style="fill:#262626;" transform="translate(1054.437765 575.09875)scale(0.28 -0.28)">
       <defs>
        <path d="M 678 1581 
L 2125 1581 
L 2125 3622 
L 2113 3622 
L 678 1581 
z
M 2688 1094 
L 2688 0 
L 2125 0 
L 2125 1094 
L 159 1094 
L 159 1644 
L 2222 4500 
L 2688 4500 
L 2688 1581 
L 3347 1581 
L 3347 1094 
L 2688 1094 
z
" id="HelveticaWorld-Regular-34" transform="scale(0.015625)"/>
       </defs>
       <use xlink:href="#HelveticaWorld-Regular-34"/>
       <use x="55.615234" xlink:href="#HelveticaWorld-Regular-30"/>
       <use x="111.230469" xlink:href="#HelveticaWorld-Regular-30"/>
       <use x="166.845703" xlink:href="#HelveticaWorld-Regular-30"/>
      </g>
     </g>
    </g>
    <g id="xtick_7">
     <g id="text_7">
      <!-- 5000 -->
      <g style="fill:#262626;" transform="translate(1209.415063 575.09875)scale(0.28 -0.28)">
       <use xlink:href="#HelveticaWorld-Regular-35"/>
       <use x="55.615234" xlink:href="#HelveticaWorld-Regular-30"/>
       <use x="111.230469" xlink:href="#HelveticaWorld-Regular-30"/>
       <use x="166.845703" xlink:href="#HelveticaWorld-Regular-30"/>
      </g>
     </g>
    </g>
    <g id="xtick_8">
     <g id="text_8">
      <!-- 6000 -->
      <g style="fill:#262626;" transform="translate(1364.392361 575.09875)scale(0.28 -0.28)">
       <defs>
        <path d="M 903 1381 
Q 903 941 1165 662 
Q 1428 384 1850 384 
Q 2253 384 2492 668 
Q 2731 953 2731 1416 
Q 2731 1819 2495 2091 
Q 2259 2363 1825 2363 
Q 1403 2363 1153 2097 
Q 903 1831 903 1381 
z
M 2669 3303 
Q 2606 3647 2414 3820 
Q 2222 3994 1894 3994 
Q 1375 3994 1103 3487 
Q 831 2981 825 2328 
L 838 2316 
Q 1197 2869 1906 2869 
Q 2472 2869 2894 2494 
Q 3316 2119 3316 1441 
Q 3316 769 2916 323 
Q 2516 -122 1838 -122 
Q 1056 -122 650 434 
Q 244 991 244 2094 
Q 244 3156 659 3828 
Q 1075 4500 1906 4500 
Q 2444 4500 2816 4179 
Q 3188 3859 3219 3303 
L 2669 3303 
z
" id="HelveticaWorld-Regular-36" transform="scale(0.015625)"/>
       </defs>
       <use xlink:href="#HelveticaWorld-Regular-36"/>
       <use x="55.615234" xlink:href="#HelveticaWorld-Regular-30"/>
       <use x="111.230469" xlink:href="#HelveticaWorld-Regular-30"/>
       <use x="166.845703" xlink:href="#HelveticaWorld-Regular-30"/>
      </g>
     </g>
    </g>
    <g id="text_9">
     <!-- Number of Voxels -->
     <g style="fill:#262626;" transform="translate(815.493082 607.865625)scale(0.32 -0.32)">
      <defs>
       <path d="M 3559 4594 
L 4159 4594 
L 4159 0 
L 3469 0 
L 1125 3713 
L 1113 3713 
L 1113 0 
L 519 0 
L 519 4594 
L 1247 4594 
L 3547 884 
L 3559 884 
L 3559 4594 
z
" id="HelveticaWorld-Regular-4e" transform="scale(0.015625)"/>
       <path d="M 391 3347 
L 953 3347 
L 953 1125 
Q 953 756 1120 573 
Q 1288 391 1600 391 
Q 2034 391 2278 698 
Q 2522 1006 2522 1503 
L 2522 3347 
L 3084 3347 
L 3084 0 
L 2553 0 
L 2553 488 
L 2541 500 
Q 2222 -97 1478 -97 
Q 997 -97 694 165 
Q 391 428 391 941 
L 391 3347 
z
" id="HelveticaWorld-Regular-75" transform="scale(0.015625)"/>
       <path d="M 422 3347 
L 953 3347 
L 953 2875 
L 966 2875 
Q 1344 3444 1978 3444 
Q 2606 3444 2869 2900 
Q 3109 3194 3334 3319 
Q 3559 3444 3891 3444 
Q 4325 3444 4626 3159 
Q 4928 2875 4928 2316 
L 4928 0 
L 4366 0 
L 4366 2163 
Q 4366 2553 4219 2745 
Q 4072 2938 3744 2938 
Q 3413 2938 3184 2669 
Q 2956 2400 2956 2041 
L 2956 0 
L 2394 0 
L 2394 2316 
Q 2394 2606 2259 2772 
Q 2125 2938 1869 2938 
Q 1466 2938 1225 2638 
Q 984 2338 984 1825 
L 984 0 
L 422 0 
L 422 3347 
z
" id="HelveticaWorld-Regular-6d" transform="scale(0.015625)"/>
       <path d="M 2778 1684 
Q 2778 2356 2540 2647 
Q 2303 2938 1863 2938 
Q 1416 2931 1187 2589 
Q 959 2247 959 1600 
Q 959 941 1234 666 
Q 1509 391 1875 391 
Q 2291 391 2534 733 
Q 2778 1075 2778 1684 
z
M 422 0 
L 422 4594 
L 984 4594 
L 984 2925 
L 997 2925 
Q 1356 3444 1966 3444 
Q 2591 3444 2975 2980 
Q 3359 2516 3359 1772 
Q 3359 934 2971 418 
Q 2584 -97 1888 -97 
Q 1275 -97 966 416 
L 953 416 
L 953 0 
L 422 0 
z
" id="HelveticaWorld-Regular-62" transform="scale(0.015625)"/>
       <path d="M 2719 1941 
Q 2675 2484 2431 2711 
Q 2188 2938 1784 2938 
Q 1375 2938 1123 2650 
Q 872 2363 856 1941 
L 2719 1941 
z
M 3256 1050 
Q 3163 531 2747 191 
Q 2381 -97 1784 -103 
Q 1081 -97 668 358 
Q 256 813 256 1581 
Q 256 2463 681 2953 
Q 1106 3444 1863 3444 
Q 2541 3444 2922 2937 
Q 3303 2431 3303 1491 
L 856 1491 
Q 856 966 1100 678 
Q 1344 391 1831 391 
Q 2175 391 2422 598 
Q 2669 806 2694 1050 
L 3256 1050 
z
" id="HelveticaWorld-Regular-65" transform="scale(0.015625)"/>
       <path d="M 984 0 
L 422 0 
L 422 3347 
L 953 3347 
L 953 2791 
L 966 2791 
Q 1331 3444 1906 3444 
Q 1997 3444 2053 3425 
L 2053 2841 
L 1844 2841 
Q 1466 2841 1225 2584 
Q 984 2328 984 1947 
L 984 0 
z
" id="HelveticaWorld-Regular-72" transform="scale(0.015625)"/>
       <path id="HelveticaWorld-Regular-20" transform="scale(0.015625)"/>
       <path d="M 813 1678 
Q 813 1119 1066 758 
Q 1319 397 1784 397 
Q 2266 397 2516 775 
Q 2766 1153 2766 1678 
Q 2766 2209 2516 2579 
Q 2266 2950 1784 2950 
Q 1338 2950 1075 2601 
Q 813 2253 813 1678 
z
M 238 1678 
Q 238 2425 653 2934 
Q 1069 3444 1784 3444 
Q 2516 3444 2928 2928 
Q 3341 2413 3341 1678 
Q 3341 941 2931 422 
Q 2522 -97 1784 -97 
Q 1075 -97 656 406 
Q 238 909 238 1678 
z
" id="HelveticaWorld-Regular-6f" transform="scale(0.015625)"/>
       <path d="M 1100 2881 
L 1100 0 
L 538 0 
L 538 2881 
L 78 2881 
L 78 3347 
L 538 3347 
L 538 3922 
Q 538 4300 767 4479 
Q 997 4659 1409 4659 
Q 1550 4659 1663 4647 
L 1663 4141 
Q 1563 4153 1434 4153 
Q 1247 4153 1173 4061 
Q 1100 3969 1100 3763 
L 1100 3347 
L 1663 3347 
L 1663 2881 
L 1100 2881 
z
" id="HelveticaWorld-Regular-66" transform="scale(0.015625)"/>
       <path d="M 3413 4594 
L 4109 4594 
L 2425 0 
L 1772 0 
L 97 4594 
L 788 4594 
L 2100 678 
L 2113 678 
L 3413 4594 
z
" id="HelveticaWorld-Regular-56" transform="scale(0.015625)"/>
       <path d="M 3138 0 
L 2413 0 
L 1588 1259 
L 781 0 
L 72 0 
L 1241 1722 
L 128 3347 
L 844 3347 
L 1619 2169 
L 2400 3347 
L 3084 3347 
L 1959 1722 
L 3138 0 
z
" id="HelveticaWorld-Regular-78" transform="scale(0.015625)"/>
       <path d="M 984 0 
L 422 0 
L 422 4594 
L 984 4594 
L 984 0 
z
" id="HelveticaWorld-Regular-6c" transform="scale(0.015625)"/>
       <path d="M 2309 2394 
Q 2297 2694 2095 2825 
Q 1894 2956 1516 2956 
Q 1241 2956 1045 2834 
Q 850 2713 850 2484 
Q 850 2303 965 2217 
Q 1081 2131 1466 2034 
L 2022 1894 
Q 2528 1766 2745 1567 
Q 2963 1369 2963 1013 
Q 2963 519 2602 211 
Q 2241 -97 1638 -97 
Q 934 -97 573 195 
Q 213 488 206 1075 
L 750 1075 
Q 763 728 980 559 
Q 1197 391 1631 391 
Q 1984 391 2192 531 
Q 2400 672 2400 922 
Q 2400 1100 2265 1206 
Q 2131 1313 1734 1403 
L 1081 1563 
Q 684 1663 495 1861 
Q 306 2059 306 2375 
Q 306 2869 659 3156 
Q 1013 3444 1581 3444 
Q 2188 3444 2511 3148 
Q 2834 2853 2853 2394 
L 2309 2394 
z
" id="HelveticaWorld-Regular-73" transform="scale(0.015625)"/>
      </defs>
      <use xlink:href="#HelveticaWorld-Regular-4e"/>
      <use x="73.095703" xlink:href="#HelveticaWorld-Regular-75"/>
      <use x="127.880859" xlink:href="#HelveticaWorld-Regular-6d"/>
      <use x="210.888672" xlink:href="#HelveticaWorld-Regular-62"/>
      <use x="267.382812" xlink:href="#HelveticaWorld-Regular-65"/>
      <use x="322.802734" xlink:href="#HelveticaWorld-Regular-72"/>
      <use x="355.371094" xlink:href="#HelveticaWorld-Regular-20"/>
      <use x="379.785156" xlink:href="#HelveticaWorld-Regular-6f"/>
      <use x="435.693359" xlink:href="#HelveticaWorld-Regular-66"/>
      <use x="463.378906" xlink:href="#HelveticaWorld-Regular-20"/>
      <use x="482.792969" xlink:href="#HelveticaWorld-Regular-56"/>
      <use x="540.619141" xlink:href="#HelveticaWorld-Regular-6f"/>
      <use x="593.652344" xlink:href="#HelveticaWorld-Regular-78"/>
      <use x="640.402344" xlink:href="#HelveticaWorld-Regular-65"/>
      <use x="695.822266" xlink:href="#HelveticaWorld-Regular-6c"/>
      <use x="717.84375" xlink:href="#HelveticaWorld-Regular-73"/>
     </g>
    </g>
   </g>
   <g id="matplotlib.axis_2">
    <g id="ytick_1">
     <g id="text_10">
      <!-- 0.0 -->
      <g style="fill:#262626;" transform="translate(416.960233 558.049375)scale(0.28 -0.28)">
       <defs>
        <path d="M 1222 0 
L 556 0 
L 556 678 
L 1222 678 
L 1222 0 
z
" id="HelveticaWorld-Regular-2e" transform="scale(0.015625)"/>
       </defs>
       <use xlink:href="#HelveticaWorld-Regular-30"/>
       <use x="55.615234" xlink:href="#HelveticaWorld-Regular-2e"/>
       <use x="83.398438" xlink:href="#HelveticaWorld-Regular-30"/>
      </g>
     </g>
    </g>
    <g id="ytick_2">
     <g id="text_11">
      <!-- 0.1 -->
      <g style="fill:#262626;" transform="translate(416.960233 465.382708)scale(0.28 -0.28)">
       <use xlink:href="#HelveticaWorld-Regular-30"/>
       <use x="55.615234" xlink:href="#HelveticaWorld-Regular-2e"/>
       <use x="83.398438" xlink:href="#HelveticaWorld-Regular-31"/>
      </g>
     </g>
    </g>
    <g id="ytick_3">
     <g id="text_12">
      <!-- 0.2 -->
      <g style="fill:#262626;" transform="translate(416.960233 372.716042)scale(0.28 -0.28)">
       <use xlink:href="#HelveticaWorld-Regular-30"/>
       <use x="55.615234" xlink:href="#HelveticaWorld-Regular-2e"/>
       <use x="83.398438" xlink:href="#HelveticaWorld-Regular-32"/>
      </g>
     </g>
    </g>
    <g id="ytick_4">
     <g id="text_13">
      <!-- 0.3 -->
      <g style="fill:#262626;" transform="translate(416.960233 280.049375)scale(0.28 -0.28)">
       <use xlink:href="#HelveticaWorld-Regular-30"/>
       <use x="55.615234" xlink:href="#HelveticaWorld-Regular-2e"/>
       <use x="83.398438" xlink:href="#HelveticaWorld-Regular-33"/>
      </g>
     </g>
    </g>
    <g id="ytick_5">
     <g id="text_14">
      <!-- 0.4 -->
      <g style="fill:#262626;" transform="translate(416.960233 187.382708)scale(0.28 -0.28)">
       <use xlink:href="#HelveticaWorld-Regular-30"/>
       <use x="55.615234" xlink:href="#HelveticaWorld-Regular-2e"/>
       <use x="83.398438" xlink:href="#HelveticaWorld-Regular-34"/>
      </g>
     </g>
    </g>
    <g id="text_15">
     <!-- Classifier Information (a.u.) -->
     <g style="fill:#262626;" transform="translate(406.335233 528.865)rotate(-90)scale(0.32 -0.32)">
      <defs>
       <path d="M 3713 3213 
Q 3609 3681 3279 3923 
Q 2950 4166 2425 4166 
Q 1747 4166 1334 3673 
Q 922 3181 922 2344 
Q 922 1375 1312 901 
Q 1703 428 2444 428 
Q 2931 428 3282 751 
Q 3634 1075 3756 1691 
L 4359 1691 
Q 4238 806 3688 342 
Q 3138 -122 2350 -122 
Q 1409 -122 845 525 
Q 281 1172 281 2322 
Q 281 3431 870 4073 
Q 1459 4716 2425 4716 
Q 3225 4716 3722 4303 
Q 4219 3891 4313 3213 
L 3713 3213 
z
" id="HelveticaWorld-Regular-43" transform="scale(0.015625)"/>
       <path d="M 2456 1709 
Q 2394 1644 2211 1603 
Q 2028 1563 1528 1497 
Q 1159 1453 986 1315 
Q 813 1178 813 953 
Q 813 678 959 525 
Q 1106 372 1428 372 
Q 1831 372 2143 601 
Q 2456 831 2456 1159 
L 2456 1709 
z
M 397 2328 
Q 416 2894 764 3169 
Q 1113 3444 1778 3444 
Q 2309 3444 2668 3203 
Q 3028 2963 3028 2509 
L 3028 581 
Q 3028 384 3206 384 
Q 3278 384 3391 409 
L 3391 0 
Q 3238 -63 3072 -63 
Q 2784 -63 2643 60 
Q 2503 184 2497 447 
Q 2016 -97 1288 -97 
Q 813 -97 525 172 
Q 238 441 238 872 
Q 238 1313 488 1584 
Q 738 1856 1216 1913 
L 2209 2034 
Q 2478 2075 2478 2431 
Q 2478 2694 2283 2834 
Q 2088 2975 1691 2975 
Q 1338 2975 1148 2819 
Q 959 2663 922 2328 
L 397 2328 
z
" id="HelveticaWorld-Regular-61" transform="scale(0.015625)"/>
       <path d="M 422 3956 
L 422 4594 
L 984 4594 
L 984 3956 
L 422 3956 
z
M 984 0 
L 422 0 
L 422 3347 
L 984 3347 
L 984 0 
z
" id="HelveticaWorld-Regular-69" transform="scale(0.015625)"/>
       <path d="M 1141 0 
L 519 0 
L 519 4594 
L 1141 4594 
L 1141 0 
z
" id="HelveticaWorld-Regular-49" transform="scale(0.015625)"/>
       <path d="M 3150 0 
L 2584 0 
L 2584 2059 
Q 2584 2534 2418 2736 
Q 2253 2938 1869 2938 
Q 1491 2938 1237 2650 
Q 984 2363 984 1825 
L 984 0 
L 422 0 
L 422 3347 
L 953 3347 
L 953 2875 
L 966 2875 
Q 1363 3444 1978 3444 
Q 2547 3444 2848 3142 
Q 3150 2841 3150 2278 
L 3150 0 
z
" id="HelveticaWorld-Regular-6e" transform="scale(0.015625)"/>
       <path d="M 1100 2881 
L 1100 703 
Q 1100 575 1170 508 
Q 1241 441 1422 441 
L 1638 441 
L 1638 0 
Q 1331 -44 1216 -44 
Q 863 -44 700 125 
Q 538 294 538 672 
L 538 2881 
L 84 2881 
L 84 3347 
L 538 3347 
L 538 4281 
L 1100 4281 
L 1100 3347 
L 1638 3347 
L 1638 2881 
L 1100 2881 
z
" id="HelveticaWorld-Regular-74" transform="scale(0.015625)"/>
       <path d="M 1906 4691 
Q 1338 3675 1188 3037 
Q 1038 2400 1038 1631 
Q 1038 872 1242 215 
Q 1447 -441 1913 -1325 
L 1538 -1325 
Q 1006 -550 720 140 
Q 434 831 434 1672 
Q 434 2463 693 3180 
Q 953 3897 1516 4691 
L 1906 4691 
z
" id="HelveticaWorld-Regular-28" transform="scale(0.015625)"/>
       <path d="M 225 -1325 
Q 788 -306 938 330 
Q 1088 966 1088 1734 
Q 1088 2497 886 3153 
Q 684 3809 219 4691 
L 588 4691 
Q 1125 3916 1411 3225 
Q 1697 2534 1697 1697 
Q 1697 903 1437 186 
Q 1178 -531 616 -1325 
L 225 -1325 
z
" id="HelveticaWorld-Regular-29" transform="scale(0.015625)"/>
      </defs>
      <use xlink:href="#HelveticaWorld-Regular-43"/>
      <use x="72.314453" xlink:href="#HelveticaWorld-Regular-6c"/>
      <use x="94.335938" xlink:href="#HelveticaWorld-Regular-61"/>
      <use x="149.267578" xlink:href="#HelveticaWorld-Regular-73"/>
      <use x="199.267578" xlink:href="#HelveticaWorld-Regular-73"/>
      <use x="249.267578" xlink:href="#HelveticaWorld-Regular-69"/>
      <use x="271.289062" xlink:href="#HelveticaWorld-Regular-66"/>
      <use x="298.974609" xlink:href="#HelveticaWorld-Regular-69"/>
      <use x="320.996094" xlink:href="#HelveticaWorld-Regular-65"/>
      <use x="376.416016" xlink:href="#HelveticaWorld-Regular-72"/>
      <use x="408.984375" xlink:href="#HelveticaWorld-Regular-20"/>
      <use x="433.398438" xlink:href="#HelveticaWorld-Regular-49"/>
      <use x="459.179688" xlink:href="#HelveticaWorld-Regular-6e"/>
      <use x="514.355469" xlink:href="#HelveticaWorld-Regular-66"/>
      <use x="540.041016" xlink:href="#HelveticaWorld-Regular-6f"/>
      <use x="595.949219" xlink:href="#HelveticaWorld-Regular-72"/>
      <use x="628.517578" xlink:href="#HelveticaWorld-Regular-6d"/>
      <use x="711.525391" xlink:href="#HelveticaWorld-Regular-61"/>
      <use x="766.457031" xlink:href="#HelveticaWorld-Regular-74"/>
      <use x="794.142578" xlink:href="#HelveticaWorld-Regular-69"/>
      <use x="816.164062" xlink:href="#HelveticaWorld-Regular-6f"/>
      <use x="872.072266" xlink:href="#HelveticaWorld-Regular-6e"/>
      <use x="927.248047" xlink:href="#HelveticaWorld-Regular-20"/>
      <use x="951.662109" xlink:href="#HelveticaWorld-Regular-28"/>
      <use x="984.962891" xlink:href="#HelveticaWorld-Regular-61"/>
      <use x="1039.894531" xlink:href="#HelveticaWorld-Regular-2e"/>
      <use x="1067.677734" xlink:href="#HelveticaWorld-Regular-75"/>
      <use x="1122.462891" xlink:href="#HelveticaWorld-Regular-2e"/>
      <use x="1150.246094" xlink:href="#HelveticaWorld-Regular-29"/>
     </g>
    </g>
   </g>
   <g id="PolyCollection_1">
    <defs>
     <path d="M 481.167554 -484.210395 
L 481.167554 -437.926655 
L 496.665284 -460.432667 
L 512.163014 -473.903827 
L 527.660743 -479.9676 
L 543.158473 -485.64743 
L 558.656203 -487.345071 
L 574.153933 -490.070945 
L 589.651663 -493.293189 
L 605.149392 -491.276111 
L 620.647122 -491.600764 
L 636.144852 -492.32607 
L 651.642582 -494.234971 
L 667.140311 -492.518339 
L 682.638041 -491.637206 
L 698.135771 -490.713529 
L 713.633501 -491.615678 
L 729.131231 -492.901137 
L 744.62896 -490.424297 
L 760.12669 -489.575891 
L 775.62442 -487.809516 
L 791.12215 -488.046223 
L 806.619879 -487.37971 
L 822.117609 -486.941512 
L 837.615339 -482.94821 
L 853.113069 -482.471673 
L 868.610798 -480.488281 
L 884.108528 -478.136537 
L 899.606258 -474.942251 
L 915.103988 -474.879129 
L 930.601718 -473.50355 
L 946.099447 -471.173262 
L 961.597177 -470.889319 
L 977.094907 -468.751545 
L 992.592637 -468.820587 
L 1008.090366 -467.002388 
L 1023.588096 -465.181705 
L 1039.085826 -465.15296 
L 1054.583556 -466.38741 
L 1070.081286 -466.055819 
L 1085.579015 -463.572286 
L 1101.076745 -462.909757 
L 1116.574475 -463.099924 
L 1132.072205 -461.317589 
L 1147.569934 -461.817683 
L 1163.067664 -459.747928 
L 1178.565394 -460.002988 
L 1194.063124 -459.210041 
L 1209.560854 -458.393675 
L 1225.058583 -459.454917 
L 1240.556313 -457.646421 
L 1256.054043 -456.520201 
L 1271.551773 -458.892571 
L 1287.049502 -458.994586 
L 1302.547232 -458.652892 
L 1318.044962 -458.927102 
L 1333.542692 -459.451694 
L 1349.040421 -458.455312 
L 1364.538151 -458.723637 
L 1380.035881 -458.697546 
L 1395.533611 -458.885953 
L 1395.533611 -502.90977 
L 1395.533611 -502.90977 
L 1380.035881 -500.703952 
L 1364.538151 -501.983204 
L 1349.040421 -501.188031 
L 1333.542692 -501.180912 
L 1318.044962 -500.694038 
L 1302.547232 -501.556902 
L 1287.049502 -499.845562 
L 1271.551773 -501.835393 
L 1256.054043 -498.869946 
L 1240.556313 -500.642138 
L 1225.058583 -502.79835 
L 1209.560854 -503.120276 
L 1194.063124 -501.209658 
L 1178.565394 -502.661272 
L 1163.067664 -503.500192 
L 1147.569934 -503.652107 
L 1132.072205 -504.608623 
L 1116.574475 -505.187578 
L 1101.076745 -504.578093 
L 1085.579015 -506.240371 
L 1070.081286 -506.73562 
L 1054.583556 -507.066962 
L 1039.085826 -508.8873 
L 1023.588096 -510.966107 
L 1008.090366 -510.101163 
L 992.592637 -512.231496 
L 977.094907 -513.704418 
L 961.597177 -514.560029 
L 946.099447 -516.070062 
L 930.601718 -517.631784 
L 915.103988 -517.683376 
L 899.606258 -518.42673 
L 884.108528 -522.27748 
L 868.610798 -525.226896 
L 853.113069 -526.787517 
L 837.615339 -526.907189 
L 822.117609 -529.052383 
L 806.619879 -529.669064 
L 791.12215 -532.636881 
L 775.62442 -531.308676 
L 760.12669 -532.529129 
L 744.62896 -534.312187 
L 729.131231 -535.778499 
L 713.633501 -535.047911 
L 698.135771 -537.704156 
L 682.638041 -538.161098 
L 667.140311 -535.598308 
L 651.642582 -537.100937 
L 636.144852 -537.95842 
L 620.647122 -536.906897 
L 605.149392 -537.455196 
L 589.651663 -537.423995 
L 574.153933 -534.851439 
L 558.656203 -532.230409 
L 543.158473 -528.784981 
L 527.660743 -525.177401 
L 512.163014 -516.438732 
L 496.665284 -504.838928 
L 481.167554 -484.210395 
z
" id="m53b0d69bab" style="stroke:#1b9e77;stroke-opacity:0.2;"/>
    </defs>
    <g clip-path="url(#p755caf05d7)">
     <use style="fill:#1b9e77;fill-opacity:0.2;stroke:#1b9e77;stroke-opacity:0.2;" x="0" xlink:href="#m53b0d69bab" y="720"/>
    </g>
   </g>
   <g id="PolyCollection_2">
    <defs>
     <path d="M 481.167554 -437.052913 
L 481.167554 -396.352616 
L 496.665284 -396.278575 
L 512.163014 -410.645007 
L 527.660743 -412.892734 
L 543.158473 -413.919802 
L 558.656203 -420.029874 
L 574.153933 -419.562103 
L 589.651663 -419.938266 
L 605.149392 -420.421786 
L 620.647122 -423.039473 
L 636.144852 -421.181767 
L 651.642582 -420.89591 
L 667.140311 -420.107958 
L 682.638041 -420.036547 
L 698.135771 -419.772274 
L 713.633501 -418.914483 
L 729.131231 -419.27322 
L 744.62896 -417.979695 
L 760.12669 -420.207786 
L 775.62442 -418.272163 
L 791.12215 -420.149862 
L 806.619879 -420.711484 
L 822.117609 -418.618706 
L 837.615339 -416.494171 
L 853.113069 -414.844805 
L 868.610798 -414.157684 
L 884.108528 -412.607697 
L 899.606258 -411.667573 
L 915.103988 -409.476529 
L 930.601718 -406.877673 
L 946.099447 -406.383106 
L 961.597177 -406.01662 
L 977.094907 -403.003824 
L 992.592637 -402.662715 
L 1008.090366 -402.972312 
L 1023.588096 -403.814318 
L 1039.085826 -403.721364 
L 1054.583556 -403.447145 
L 1070.081286 -402.096297 
L 1085.579015 -398.543931 
L 1101.076745 -400.740414 
L 1116.574475 -398.706981 
L 1132.072205 -398.384347 
L 1147.569934 -399.069434 
L 1163.067664 -397.691249 
L 1178.565394 -398.32974 
L 1194.063124 -396.128729 
L 1209.560854 -398.18866 
L 1225.058583 -395.502867 
L 1240.556313 -396.285907 
L 1256.054043 -398.818239 
L 1271.551773 -395.749529 
L 1287.049502 -395.796739 
L 1302.547232 -396.767357 
L 1318.044962 -394.847362 
L 1333.542692 -396.34179 
L 1349.040421 -397.809006 
L 1364.538151 -399.379695 
L 1380.035881 -397.182464 
L 1395.533611 -395.170527 
L 1395.533611 -443.284321 
L 1395.533611 -443.284321 
L 1380.035881 -439.976364 
L 1364.538151 -444.480634 
L 1349.040421 -442.646142 
L 1333.542692 -443.12039 
L 1318.044962 -441.436927 
L 1302.547232 -442.248573 
L 1287.049502 -445.536162 
L 1271.551773 -444.853206 
L 1256.054043 -443.834543 
L 1240.556313 -444.746676 
L 1225.058583 -441.368628 
L 1209.560854 -445.017367 
L 1194.063124 -442.854728 
L 1178.565394 -444.81363 
L 1163.067664 -443.57213 
L 1147.569934 -445.697799 
L 1132.072205 -444.546019 
L 1116.574475 -446.435201 
L 1101.076745 -446.210176 
L 1085.579015 -445.157124 
L 1070.081286 -448.203137 
L 1054.583556 -447.924618 
L 1039.085826 -450.150573 
L 1023.588096 -449.221347 
L 1008.090366 -449.569866 
L 992.592637 -451.444718 
L 977.094907 -451.096152 
L 961.597177 -449.369892 
L 946.099447 -452.798001 
L 930.601718 -453.52578 
L 915.103988 -456.308824 
L 899.606258 -457.598275 
L 884.108528 -459.65648 
L 868.610798 -459.309044 
L 853.113069 -461.634127 
L 837.615339 -463.781111 
L 822.117609 -464.788718 
L 806.619879 -464.396941 
L 791.12215 -465.540026 
L 775.62442 -464.890486 
L 760.12669 -465.470942 
L 744.62896 -464.279217 
L 729.131231 -465.768968 
L 713.633501 -464.691334 
L 698.135771 -464.887525 
L 682.638041 -467.893426 
L 667.140311 -464.436566 
L 651.642582 -466.924632 
L 636.144852 -465.528787 
L 620.647122 -467.415333 
L 605.149392 -465.423542 
L 589.651663 -466.334575 
L 574.153933 -467.108175 
L 558.656203 -465.886036 
L 543.158473 -460.343611 
L 527.660743 -460.104997 
L 512.163014 -454.202402 
L 496.665284 -442.030975 
L 481.167554 -437.052913 
z
" id="m42adf8cfbe" style="stroke:#d95f02;stroke-opacity:0.2;"/>
    </defs>
    <g clip-path="url(#p755caf05d7)">
     <use style="fill:#d95f02;fill-opacity:0.2;stroke:#d95f02;stroke-opacity:0.2;" x="0" xlink:href="#m42adf8cfbe" y="720"/>
    </g>
   </g>
   <g id="PathCollection_1">
    <defs>
     <path d="M 0 -6.708204 
L 0 0 
L -5.809475 -3.354102 
L 0 0 
L -5.809475 3.354102 
L 0 0 
L -0 6.708204 
L 0 0 
L 5.809475 3.354102 
L 0 0 
L 5.809475 -3.354102 
L 0 0 
z
" id="mb67ecbaba7" style="stroke:#000000;stroke-width:2;"/>
    </defs>
    <g clip-path="url(#p755caf05d7)">
     <use style="stroke:#000000;stroke-width:2;" x="496.665284" xlink:href="#mb67ecbaba7" y="529.466667"/>
    </g>
   </g>
   <g id="PathCollection_2">
    <g clip-path="url(#p755caf05d7)">
     <use style="stroke:#000000;stroke-width:2;" x="512.163014" xlink:href="#mb67ecbaba7" y="529.466667"/>
    </g>
   </g>
   <g id="PathCollection_3">
    <g clip-path="url(#p755caf05d7)">
     <use style="stroke:#000000;stroke-width:2;" x="527.660743" xlink:href="#mb67ecbaba7" y="529.466667"/>
    </g>
   </g>
   <g id="PathCollection_4">
    <g clip-path="url(#p755caf05d7)">
     <use style="stroke:#000000;stroke-width:2;" x="543.158473" xlink:href="#mb67ecbaba7" y="529.466667"/>
    </g>
   </g>
   <g id="PathCollection_5">
    <g clip-path="url(#p755caf05d7)">
     <use style="stroke:#000000;stroke-width:2;" x="558.656203" xlink:href="#mb67ecbaba7" y="529.466667"/>
    </g>
   </g>
   <g id="PathCollection_6">
    <g clip-path="url(#p755caf05d7)">
     <use style="stroke:#000000;stroke-width:2;" x="574.153933" xlink:href="#mb67ecbaba7" y="529.466667"/>
    </g>
   </g>
   <g id="PathCollection_7">
    <g clip-path="url(#p755caf05d7)">
     <use style="stroke:#000000;stroke-width:2;" x="589.651663" xlink:href="#mb67ecbaba7" y="529.466667"/>
    </g>
   </g>
   <g id="PathCollection_8">
    <g clip-path="url(#p755caf05d7)">
     <use style="stroke:#000000;stroke-width:2;" x="605.149392" xlink:href="#mb67ecbaba7" y="529.466667"/>
    </g>
   </g>
   <g id="PathCollection_9">
    <g clip-path="url(#p755caf05d7)">
     <use style="stroke:#000000;stroke-width:2;" x="620.647122" xlink:href="#mb67ecbaba7" y="529.466667"/>
    </g>
   </g>
   <g id="PathCollection_10">
    <g clip-path="url(#p755caf05d7)">
     <use style="stroke:#000000;stroke-width:2;" x="636.144852" xlink:href="#mb67ecbaba7" y="529.466667"/>
    </g>
   </g>
   <g id="PathCollection_11">
    <g clip-path="url(#p755caf05d7)">
     <use style="stroke:#000000;stroke-width:2;" x="651.642582" xlink:href="#mb67ecbaba7" y="529.466667"/>
    </g>
   </g>
   <g id="PathCollection_12">
    <g clip-path="url(#p755caf05d7)">
     <use style="stroke:#000000;stroke-width:2;" x="667.140311" xlink:href="#mb67ecbaba7" y="529.466667"/>
    </g>
   </g>
   <g id="PathCollection_13">
    <g clip-path="url(#p755caf05d7)">
     <use style="stroke:#000000;stroke-width:2;" x="682.638041" xlink:href="#mb67ecbaba7" y="529.466667"/>
    </g>
   </g>
   <g id="PathCollection_14">
    <g clip-path="url(#p755caf05d7)">
     <use style="stroke:#000000;stroke-width:2;" x="698.135771" xlink:href="#mb67ecbaba7" y="529.466667"/>
    </g>
   </g>
   <g id="PathCollection_15">
    <g clip-path="url(#p755caf05d7)">
     <use style="stroke:#000000;stroke-width:2;" x="713.633501" xlink:href="#mb67ecbaba7" y="529.466667"/>
    </g>
   </g>
   <g id="PathCollection_16">
    <g clip-path="url(#p755caf05d7)">
     <use style="stroke:#000000;stroke-width:2;" x="729.131231" xlink:href="#mb67ecbaba7" y="529.466667"/>
    </g>
   </g>
   <g id="PathCollection_17">
    <g clip-path="url(#p755caf05d7)">
     <use style="stroke:#000000;stroke-width:2;" x="744.62896" xlink:href="#mb67ecbaba7" y="529.466667"/>
    </g>
   </g>
   <g id="PathCollection_18">
    <g clip-path="url(#p755caf05d7)">
     <use style="stroke:#000000;stroke-width:2;" x="760.12669" xlink:href="#mb67ecbaba7" y="529.466667"/>
    </g>
   </g>
   <g id="PathCollection_19">
    <g clip-path="url(#p755caf05d7)">
     <use style="stroke:#000000;stroke-width:2;" x="775.62442" xlink:href="#mb67ecbaba7" y="529.466667"/>
    </g>
   </g>
   <g id="PathCollection_20">
    <g clip-path="url(#p755caf05d7)">
     <use style="stroke:#000000;stroke-width:2;" x="791.12215" xlink:href="#mb67ecbaba7" y="529.466667"/>
    </g>
   </g>
   <g id="PathCollection_21">
    <g clip-path="url(#p755caf05d7)">
     <use style="stroke:#000000;stroke-width:2;" x="806.619879" xlink:href="#mb67ecbaba7" y="529.466667"/>
    </g>
   </g>
   <g id="PathCollection_22">
    <g clip-path="url(#p755caf05d7)">
     <use style="stroke:#000000;stroke-width:2;" x="822.117609" xlink:href="#mb67ecbaba7" y="529.466667"/>
    </g>
   </g>
   <g id="PathCollection_23">
    <g clip-path="url(#p755caf05d7)">
     <use style="stroke:#000000;stroke-width:2;" x="837.615339" xlink:href="#mb67ecbaba7" y="529.466667"/>
    </g>
   </g>
   <g id="PathCollection_24">
    <g clip-path="url(#p755caf05d7)">
     <use style="stroke:#000000;stroke-width:2;" x="853.113069" xlink:href="#mb67ecbaba7" y="529.466667"/>
    </g>
   </g>
   <g id="PathCollection_25">
    <g clip-path="url(#p755caf05d7)">
     <use style="stroke:#000000;stroke-width:2;" x="868.610798" xlink:href="#mb67ecbaba7" y="529.466667"/>
    </g>
   </g>
   <g id="PathCollection_26">
    <g clip-path="url(#p755caf05d7)">
     <use style="stroke:#000000;stroke-width:2;" x="884.108528" xlink:href="#mb67ecbaba7" y="529.466667"/>
    </g>
   </g>
   <g id="PathCollection_27">
    <g clip-path="url(#p755caf05d7)">
     <use style="stroke:#000000;stroke-width:2;" x="899.606258" xlink:href="#mb67ecbaba7" y="529.466667"/>
    </g>
   </g>
   <g id="PathCollection_28">
    <g clip-path="url(#p755caf05d7)">
     <use style="stroke:#000000;stroke-width:2;" x="915.103988" xlink:href="#mb67ecbaba7" y="529.466667"/>
    </g>
   </g>
   <g id="PathCollection_29">
    <g clip-path="url(#p755caf05d7)">
     <use style="stroke:#000000;stroke-width:2;" x="930.601718" xlink:href="#mb67ecbaba7" y="529.466667"/>
    </g>
   </g>
   <g id="PathCollection_30">
    <g clip-path="url(#p755caf05d7)">
     <use style="stroke:#000000;stroke-width:2;" x="946.099447" xlink:href="#mb67ecbaba7" y="529.466667"/>
    </g>
   </g>
   <g id="PathCollection_31">
    <g clip-path="url(#p755caf05d7)">
     <use style="stroke:#000000;stroke-width:2;" x="961.597177" xlink:href="#mb67ecbaba7" y="529.466667"/>
    </g>
   </g>
   <g id="PathCollection_32">
    <g clip-path="url(#p755caf05d7)">
     <use style="stroke:#000000;stroke-width:2;" x="977.094907" xlink:href="#mb67ecbaba7" y="529.466667"/>
    </g>
   </g>
   <g id="PathCollection_33">
    <g clip-path="url(#p755caf05d7)">
     <use style="stroke:#000000;stroke-width:2;" x="992.592637" xlink:href="#mb67ecbaba7" y="529.466667"/>
    </g>
   </g>
   <g id="PathCollection_34">
    <g clip-path="url(#p755caf05d7)">
     <use style="stroke:#000000;stroke-width:2;" x="1008.090366" xlink:href="#mb67ecbaba7" y="529.466667"/>
    </g>
   </g>
   <g id="line2d_1">
    <path clip-path="url(#p755caf05d7)" d="M 481.167554 258.830319 
L 496.665284 237.178326 
L 512.163014 224.715283 
L 527.660743 217.790611 
L 543.158473 213.557921 
L 558.656203 209.706576 
L 574.153933 207.415575 
L 589.651663 204.735306 
L 605.149392 206.25523 
L 620.647122 205.811798 
L 636.144852 205.162599 
L 651.642582 205.28107 
L 667.140311 204.910977 
L 682.638041 204.276034 
L 698.135771 205.588312 
L 713.633501 205.449624 
L 729.131231 206.252458 
L 744.62896 207.588652 
L 760.12669 208.421871 
L 775.62442 209.747531 
L 791.12215 210.181879 
L 806.619879 210.997823 
L 822.117609 212.86326 
L 837.615339 214.531576 
L 853.113069 216.084207 
L 868.610798 218.131835 
L 884.108528 220.051908 
L 899.606258 222.011981 
L 915.103988 222.879311 
L 930.601718 224.52279 
L 946.099447 226.242298 
L 961.597177 227.474569 
L 977.094907 228.820201 
L 992.592637 230.082802 
L 1008.090366 231.419428 
L 1023.588096 232.114009 
L 1039.085826 233.095525 
L 1054.583556 234.105405 
L 1070.081286 234.915934 
L 1085.579015 235.621732 
L 1101.076745 236.510589 
L 1116.574475 237.136939 
L 1132.072205 237.713222 
L 1147.569934 238.019628 
L 1163.067664 238.309622 
L 1178.565394 238.881291 
L 1194.063124 239.079326 
L 1209.560854 239.244648 
L 1225.058583 239.442019 
L 1240.556313 239.629045 
L 1256.054043 239.743948 
L 1271.551773 239.708282 
L 1287.049502 239.71511 
L 1302.547232 239.729364 
L 1318.044962 239.736176 
L 1333.542692 239.736176 
L 1349.040421 239.736176 
L 1364.538151 239.736176 
L 1380.035881 239.736176 
L 1395.533611 239.736176 
" style="fill:none;stroke:#1b9e77;stroke-linecap:round;stroke-width:1.5;"/>
    <defs>
     <path d="M 0 5 
C 1.326016 5 2.597899 4.473168 3.535534 3.535534 
C 4.473168 2.597899 5 1.326016 5 0 
C 5 -1.326016 4.473168 -2.597899 3.535534 -3.535534 
C 2.597899 -4.473168 1.326016 -5 0 -5 
C -1.326016 -5 -2.597899 -4.473168 -3.535534 -3.535534 
C -4.473168 -2.597899 -5 -1.326016 -5 0 
C -5 1.326016 -4.473168 2.597899 -3.535534 3.535534 
C -2.597899 4.473168 -1.326016 5 0 5 
z
" id="m5451474ca7" style="stroke:#000000;stroke-opacity:0;stroke-width:0.75;"/>
    </defs>
    <g clip-path="url(#p755caf05d7)">
     <use style="fill:#1b9e77;stroke:#000000;stroke-opacity:0;stroke-width:0.75;" x="481.167554" xlink:href="#m5451474ca7" y="258.830319"/>
     <use style="fill:#1b9e77;stroke:#000000;stroke-opacity:0;stroke-width:0.75;" x="496.665284" xlink:href="#m5451474ca7" y="237.178326"/>
     <use style="fill:#1b9e77;stroke:#000000;stroke-opacity:0;stroke-width:0.75;" x="512.163014" xlink:href="#m5451474ca7" y="224.715283"/>
     <use style="fill:#1b9e77;stroke:#000000;stroke-opacity:0;stroke-width:0.75;" x="527.660743" xlink:href="#m5451474ca7" y="217.790611"/>
     <use style="fill:#1b9e77;stroke:#000000;stroke-opacity:0;stroke-width:0.75;" x="543.158473" xlink:href="#m5451474ca7" y="213.557921"/>
     <use style="fill:#1b9e77;stroke:#000000;stroke-opacity:0;stroke-width:0.75;" x="558.656203" xlink:href="#m5451474ca7" y="209.706576"/>
     <use style="fill:#1b9e77;stroke:#000000;stroke-opacity:0;stroke-width:0.75;" x="574.153933" xlink:href="#m5451474ca7" y="207.415575"/>
     <use style="fill:#1b9e77;stroke:#000000;stroke-opacity:0;stroke-width:0.75;" x="589.651663" xlink:href="#m5451474ca7" y="204.735306"/>
     <use style="fill:#1b9e77;stroke:#000000;stroke-opacity:0;stroke-width:0.75;" x="605.149392" xlink:href="#m5451474ca7" y="206.25523"/>
     <use style="fill:#1b9e77;stroke:#000000;stroke-opacity:0;stroke-width:0.75;" x="620.647122" xlink:href="#m5451474ca7" y="205.811798"/>
     <use style="fill:#1b9e77;stroke:#000000;stroke-opacity:0;stroke-width:0.75;" x="636.144852" xlink:href="#m5451474ca7" y="205.162599"/>
     <use style="fill:#1b9e77;stroke:#000000;stroke-opacity:0;stroke-width:0.75;" x="651.642582" xlink:href="#m5451474ca7" y="205.28107"/>
     <use style="fill:#1b9e77;stroke:#000000;stroke-opacity:0;stroke-width:0.75;" x="667.140311" xlink:href="#m5451474ca7" y="204.910977"/>
     <use style="fill:#1b9e77;stroke:#000000;stroke-opacity:0;stroke-width:0.75;" x="682.638041" xlink:href="#m5451474ca7" y="204.276034"/>
     <use style="fill:#1b9e77;stroke:#000000;stroke-opacity:0;stroke-width:0.75;" x="698.135771" xlink:href="#m5451474ca7" y="205.588312"/>
     <use style="fill:#1b9e77;stroke:#000000;stroke-opacity:0;stroke-width:0.75;" x="713.633501" xlink:href="#m5451474ca7" y="205.449624"/>
     <use style="fill:#1b9e77;stroke:#000000;stroke-opacity:0;stroke-width:0.75;" x="729.131231" xlink:href="#m5451474ca7" y="206.252458"/>
     <use style="fill:#1b9e77;stroke:#000000;stroke-opacity:0;stroke-width:0.75;" x="744.62896" xlink:href="#m5451474ca7" y="207.588652"/>
     <use style="fill:#1b9e77;stroke:#000000;stroke-opacity:0;stroke-width:0.75;" x="760.12669" xlink:href="#m5451474ca7" y="208.421871"/>
     <use style="fill:#1b9e77;stroke:#000000;stroke-opacity:0;stroke-width:0.75;" x="775.62442" xlink:href="#m5451474ca7" y="209.747531"/>
     <use style="fill:#1b9e77;stroke:#000000;stroke-opacity:0;stroke-width:0.75;" x="791.12215" xlink:href="#m5451474ca7" y="210.181879"/>
     <use style="fill:#1b9e77;stroke:#000000;stroke-opacity:0;stroke-width:0.75;" x="806.619879" xlink:href="#m5451474ca7" y="210.997823"/>
     <use style="fill:#1b9e77;stroke:#000000;stroke-opacity:0;stroke-width:0.75;" x="822.117609" xlink:href="#m5451474ca7" y="212.86326"/>
     <use style="fill:#1b9e77;stroke:#000000;stroke-opacity:0;stroke-width:0.75;" x="837.615339" xlink:href="#m5451474ca7" y="214.531576"/>
     <use style="fill:#1b9e77;stroke:#000000;stroke-opacity:0;stroke-width:0.75;" x="853.113069" xlink:href="#m5451474ca7" y="216.084207"/>
     <use style="fill:#1b9e77;stroke:#000000;stroke-opacity:0;stroke-width:0.75;" x="868.610798" xlink:href="#m5451474ca7" y="218.131835"/>
     <use style="fill:#1b9e77;stroke:#000000;stroke-opacity:0;stroke-width:0.75;" x="884.108528" xlink:href="#m5451474ca7" y="220.051908"/>
     <use style="fill:#1b9e77;stroke:#000000;stroke-opacity:0;stroke-width:0.75;" x="899.606258" xlink:href="#m5451474ca7" y="222.011981"/>
     <use style="fill:#1b9e77;stroke:#000000;stroke-opacity:0;stroke-width:0.75;" x="915.103988" xlink:href="#m5451474ca7" y="222.879311"/>
     <use style="fill:#1b9e77;stroke:#000000;stroke-opacity:0;stroke-width:0.75;" x="930.601718" xlink:href="#m5451474ca7" y="224.52279"/>
     <use style="fill:#1b9e77;stroke:#000000;stroke-opacity:0;stroke-width:0.75;" x="946.099447" xlink:href="#m5451474ca7" y="226.242298"/>
     <use style="fill:#1b9e77;stroke:#000000;stroke-opacity:0;stroke-width:0.75;" x="961.597177" xlink:href="#m5451474ca7" y="227.474569"/>
     <use style="fill:#1b9e77;stroke:#000000;stroke-opacity:0;stroke-width:0.75;" x="977.094907" xlink:href="#m5451474ca7" y="228.820201"/>
     <use style="fill:#1b9e77;stroke:#000000;stroke-opacity:0;stroke-width:0.75;" x="992.592637" xlink:href="#m5451474ca7" y="230.082802"/>
     <use style="fill:#1b9e77;stroke:#000000;stroke-opacity:0;stroke-width:0.75;" x="1008.090366" xlink:href="#m5451474ca7" y="231.419428"/>
     <use style="fill:#1b9e77;stroke:#000000;stroke-opacity:0;stroke-width:0.75;" x="1023.588096" xlink:href="#m5451474ca7" y="232.114009"/>
     <use style="fill:#1b9e77;stroke:#000000;stroke-opacity:0;stroke-width:0.75;" x="1039.085826" xlink:href="#m5451474ca7" y="233.095525"/>
     <use style="fill:#1b9e77;stroke:#000000;stroke-opacity:0;stroke-width:0.75;" x="1054.583556" xlink:href="#m5451474ca7" y="234.105405"/>
     <use style="fill:#1b9e77;stroke:#000000;stroke-opacity:0;stroke-width:0.75;" x="1070.081286" xlink:href="#m5451474ca7" y="234.915934"/>
     <use style="fill:#1b9e77;stroke:#000000;stroke-opacity:0;stroke-width:0.75;" x="1085.579015" xlink:href="#m5451474ca7" y="235.621732"/>
     <use style="fill:#1b9e77;stroke:#000000;stroke-opacity:0;stroke-width:0.75;" x="1101.076745" xlink:href="#m5451474ca7" y="236.510589"/>
     <use style="fill:#1b9e77;stroke:#000000;stroke-opacity:0;stroke-width:0.75;" x="1116.574475" xlink:href="#m5451474ca7" y="237.136939"/>
     <use style="fill:#1b9e77;stroke:#000000;stroke-opacity:0;stroke-width:0.75;" x="1132.072205" xlink:href="#m5451474ca7" y="237.713222"/>
     <use style="fill:#1b9e77;stroke:#000000;stroke-opacity:0;stroke-width:0.75;" x="1147.569934" xlink:href="#m5451474ca7" y="238.019628"/>
     <use style="fill:#1b9e77;stroke:#000000;stroke-opacity:0;stroke-width:0.75;" x="1163.067664" xlink:href="#m5451474ca7" y="238.309622"/>
     <use style="fill:#1b9e77;stroke:#000000;stroke-opacity:0;stroke-width:0.75;" x="1178.565394" xlink:href="#m5451474ca7" y="238.881291"/>
     <use style="fill:#1b9e77;stroke:#000000;stroke-opacity:0;stroke-width:0.75;" x="1194.063124" xlink:href="#m5451474ca7" y="239.079326"/>
     <use style="fill:#1b9e77;stroke:#000000;stroke-opacity:0;stroke-width:0.75;" x="1209.560854" xlink:href="#m5451474ca7" y="239.244648"/>
     <use style="fill:#1b9e77;stroke:#000000;stroke-opacity:0;stroke-width:0.75;" x="1225.058583" xlink:href="#m5451474ca7" y="239.442019"/>
     <use style="fill:#1b9e77;stroke:#000000;stroke-opacity:0;stroke-width:0.75;" x="1240.556313" xlink:href="#m5451474ca7" y="239.629045"/>
     <use style="fill:#1b9e77;stroke:#000000;stroke-opacity:0;stroke-width:0.75;" x="1256.054043" xlink:href="#m5451474ca7" y="239.743948"/>
     <use style="fill:#1b9e77;stroke:#000000;stroke-opacity:0;stroke-width:0.75;" x="1271.551773" xlink:href="#m5451474ca7" y="239.708282"/>
     <use style="fill:#1b9e77;stroke:#000000;stroke-opacity:0;stroke-width:0.75;" x="1287.049502" xlink:href="#m5451474ca7" y="239.71511"/>
     <use style="fill:#1b9e77;stroke:#000000;stroke-opacity:0;stroke-width:0.75;" x="1302.547232" xlink:href="#m5451474ca7" y="239.729364"/>
     <use style="fill:#1b9e77;stroke:#000000;stroke-opacity:0;stroke-width:0.75;" x="1318.044962" xlink:href="#m5451474ca7" y="239.736176"/>
     <use style="fill:#1b9e77;stroke:#000000;stroke-opacity:0;stroke-width:0.75;" x="1333.542692" xlink:href="#m5451474ca7" y="239.736176"/>
     <use style="fill:#1b9e77;stroke:#000000;stroke-opacity:0;stroke-width:0.75;" x="1349.040421" xlink:href="#m5451474ca7" y="239.736176"/>
     <use style="fill:#1b9e77;stroke:#000000;stroke-opacity:0;stroke-width:0.75;" x="1364.538151" xlink:href="#m5451474ca7" y="239.736176"/>
     <use style="fill:#1b9e77;stroke:#000000;stroke-opacity:0;stroke-width:0.75;" x="1380.035881" xlink:href="#m5451474ca7" y="239.736176"/>
     <use style="fill:#1b9e77;stroke:#000000;stroke-opacity:0;stroke-width:0.75;" x="1395.533611" xlink:href="#m5451474ca7" y="239.736176"/>
    </g>
   </g>
   <g id="line2d_2">
    <path clip-path="url(#p755caf05d7)" d="M 481.167554 303.765855 
L 496.665284 299.486555 
L 512.163014 287.801913 
L 527.660743 284.704614 
L 543.158473 283.304344 
L 558.656203 279.009844 
L 574.153933 277.307324 
L 589.651663 276.76067 
L 605.149392 276.344521 
L 620.647122 274.730932 
L 636.144852 275.440791 
L 651.642582 276.295521 
L 667.140311 277.90517 
L 682.638041 277.044428 
L 698.135771 277.11017 
L 713.633501 276.845692 
L 729.131231 277.558154 
L 744.62896 277.580849 
L 760.12669 276.311555 
L 775.62442 277.309401 
L 791.12215 277.158067 
L 806.619879 277.779632 
L 822.117609 278.218735 
L 837.615339 279.194783 
L 853.113069 280.88788 
L 868.610798 282.779414 
L 884.108528 284.036147 
L 899.606258 285.640288 
L 915.103988 287.147992 
L 930.601718 288.967735 
L 946.099447 290.664625 
L 961.597177 291.466662 
L 977.094907 292.700857 
L 992.592637 292.579903 
L 1008.090366 293.221319 
L 1023.588096 293.376202 
L 1039.085826 293.726448 
L 1054.583556 294.394116 
L 1070.081286 295.468055 
L 1085.579015 296.336424 
L 1101.076745 296.960987 
L 1116.574475 297.642845 
L 1132.072205 298.134414 
L 1147.569934 298.165649 
L 1163.067664 299.13499 
L 1178.565394 299.427955 
L 1194.063124 299.469081 
L 1209.560854 299.403381 
L 1225.058583 299.634653 
L 1240.556313 299.805461 
L 1256.054043 299.933587 
L 1271.551773 299.871109 
L 1287.049502 299.85529 
L 1302.547232 299.818187 
L 1318.044962 299.823414 
L 1333.542692 299.823414 
L 1349.040421 299.823414 
L 1364.538151 299.823414 
L 1380.035881 299.823414 
L 1395.533611 299.823414 
" style="fill:none;stroke:#d95f02;stroke-linecap:round;stroke-width:1.5;"/>
    <defs>
     <path d="M 0 5 
C 1.326016 5 2.597899 4.473168 3.535534 3.535534 
C 4.473168 2.597899 5 1.326016 5 0 
C 5 -1.326016 4.473168 -2.597899 3.535534 -3.535534 
C 2.597899 -4.473168 1.326016 -5 0 -5 
C -1.326016 -5 -2.597899 -4.473168 -3.535534 -3.535534 
C -4.473168 -2.597899 -5 -1.326016 -5 0 
C -5 1.326016 -4.473168 2.597899 -3.535534 3.535534 
C -2.597899 4.473168 -1.326016 5 0 5 
z
" id="m51b7330fa7" style="stroke:#000000;stroke-opacity:0;stroke-width:0.75;"/>
    </defs>
    <g clip-path="url(#p755caf05d7)">
     <use style="fill:#d95f02;stroke:#000000;stroke-opacity:0;stroke-width:0.75;" x="481.167554" xlink:href="#m51b7330fa7" y="303.765855"/>
     <use style="fill:#d95f02;stroke:#000000;stroke-opacity:0;stroke-width:0.75;" x="496.665284" xlink:href="#m51b7330fa7" y="299.486555"/>
     <use style="fill:#d95f02;stroke:#000000;stroke-opacity:0;stroke-width:0.75;" x="512.163014" xlink:href="#m51b7330fa7" y="287.801913"/>
     <use style="fill:#d95f02;stroke:#000000;stroke-opacity:0;stroke-width:0.75;" x="527.660743" xlink:href="#m51b7330fa7" y="284.704614"/>
     <use style="fill:#d95f02;stroke:#000000;stroke-opacity:0;stroke-width:0.75;" x="543.158473" xlink:href="#m51b7330fa7" y="283.304344"/>
     <use style="fill:#d95f02;stroke:#000000;stroke-opacity:0;stroke-width:0.75;" x="558.656203" xlink:href="#m51b7330fa7" y="279.009844"/>
     <use style="fill:#d95f02;stroke:#000000;stroke-opacity:0;stroke-width:0.75;" x="574.153933" xlink:href="#m51b7330fa7" y="277.307324"/>
     <use style="fill:#d95f02;stroke:#000000;stroke-opacity:0;stroke-width:0.75;" x="589.651663" xlink:href="#m51b7330fa7" y="276.76067"/>
     <use style="fill:#d95f02;stroke:#000000;stroke-opacity:0;stroke-width:0.75;" x="605.149392" xlink:href="#m51b7330fa7" y="276.344521"/>
     <use style="fill:#d95f02;stroke:#000000;stroke-opacity:0;stroke-width:0.75;" x="620.647122" xlink:href="#m51b7330fa7" y="274.730932"/>
     <use style="fill:#d95f02;stroke:#000000;stroke-opacity:0;stroke-width:0.75;" x="636.144852" xlink:href="#m51b7330fa7" y="275.440791"/>
     <use style="fill:#d95f02;stroke:#000000;stroke-opacity:0;stroke-width:0.75;" x="651.642582" xlink:href="#m51b7330fa7" y="276.295521"/>
     <use style="fill:#d95f02;stroke:#000000;stroke-opacity:0;stroke-width:0.75;" x="667.140311" xlink:href="#m51b7330fa7" y="277.90517"/>
     <use style="fill:#d95f02;stroke:#000000;stroke-opacity:0;stroke-width:0.75;" x="682.638041" xlink:href="#m51b7330fa7" y="277.044428"/>
     <use style="fill:#d95f02;stroke:#000000;stroke-opacity:0;stroke-width:0.75;" x="698.135771" xlink:href="#m51b7330fa7" y="277.11017"/>
     <use style="fill:#d95f02;stroke:#000000;stroke-opacity:0;stroke-width:0.75;" x="713.633501" xlink:href="#m51b7330fa7" y="276.845692"/>
     <use style="fill:#d95f02;stroke:#000000;stroke-opacity:0;stroke-width:0.75;" x="729.131231" xlink:href="#m51b7330fa7" y="277.558154"/>
     <use style="fill:#d95f02;stroke:#000000;stroke-opacity:0;stroke-width:0.75;" x="744.62896" xlink:href="#m51b7330fa7" y="277.580849"/>
     <use style="fill:#d95f02;stroke:#000000;stroke-opacity:0;stroke-width:0.75;" x="760.12669" xlink:href="#m51b7330fa7" y="276.311555"/>
     <use style="fill:#d95f02;stroke:#000000;stroke-opacity:0;stroke-width:0.75;" x="775.62442" xlink:href="#m51b7330fa7" y="277.309401"/>
     <use style="fill:#d95f02;stroke:#000000;stroke-opacity:0;stroke-width:0.75;" x="791.12215" xlink:href="#m51b7330fa7" y="277.158067"/>
     <use style="fill:#d95f02;stroke:#000000;stroke-opacity:0;stroke-width:0.75;" x="806.619879" xlink:href="#m51b7330fa7" y="277.779632"/>
     <use style="fill:#d95f02;stroke:#000000;stroke-opacity:0;stroke-width:0.75;" x="822.117609" xlink:href="#m51b7330fa7" y="278.218735"/>
     <use style="fill:#d95f02;stroke:#000000;stroke-opacity:0;stroke-width:0.75;" x="837.615339" xlink:href="#m51b7330fa7" y="279.194783"/>
     <use style="fill:#d95f02;stroke:#000000;stroke-opacity:0;stroke-width:0.75;" x="853.113069" xlink:href="#m51b7330fa7" y="280.88788"/>
     <use style="fill:#d95f02;stroke:#000000;stroke-opacity:0;stroke-width:0.75;" x="868.610798" xlink:href="#m51b7330fa7" y="282.779414"/>
     <use style="fill:#d95f02;stroke:#000000;stroke-opacity:0;stroke-width:0.75;" x="884.108528" xlink:href="#m51b7330fa7" y="284.036147"/>
     <use style="fill:#d95f02;stroke:#000000;stroke-opacity:0;stroke-width:0.75;" x="899.606258" xlink:href="#m51b7330fa7" y="285.640288"/>
     <use style="fill:#d95f02;stroke:#000000;stroke-opacity:0;stroke-width:0.75;" x="915.103988" xlink:href="#m51b7330fa7" y="287.147992"/>
     <use style="fill:#d95f02;stroke:#000000;stroke-opacity:0;stroke-width:0.75;" x="930.601718" xlink:href="#m51b7330fa7" y="288.967735"/>
     <use style="fill:#d95f02;stroke:#000000;stroke-opacity:0;stroke-width:0.75;" x="946.099447" xlink:href="#m51b7330fa7" y="290.664625"/>
     <use style="fill:#d95f02;stroke:#000000;stroke-opacity:0;stroke-width:0.75;" x="961.597177" xlink:href="#m51b7330fa7" y="291.466662"/>
     <use style="fill:#d95f02;stroke:#000000;stroke-opacity:0;stroke-width:0.75;" x="977.094907" xlink:href="#m51b7330fa7" y="292.700857"/>
     <use style="fill:#d95f02;stroke:#000000;stroke-opacity:0;stroke-width:0.75;" x="992.592637" xlink:href="#m51b7330fa7" y="292.579903"/>
     <use style="fill:#d95f02;stroke:#000000;stroke-opacity:0;stroke-width:0.75;" x="1008.090366" xlink:href="#m51b7330fa7" y="293.221319"/>
     <use style="fill:#d95f02;stroke:#000000;stroke-opacity:0;stroke-width:0.75;" x="1023.588096" xlink:href="#m51b7330fa7" y="293.376202"/>
     <use style="fill:#d95f02;stroke:#000000;stroke-opacity:0;stroke-width:0.75;" x="1039.085826" xlink:href="#m51b7330fa7" y="293.726448"/>
     <use style="fill:#d95f02;stroke:#000000;stroke-opacity:0;stroke-width:0.75;" x="1054.583556" xlink:href="#m51b7330fa7" y="294.394116"/>
     <use style="fill:#d95f02;stroke:#000000;stroke-opacity:0;stroke-width:0.75;" x="1070.081286" xlink:href="#m51b7330fa7" y="295.468055"/>
     <use style="fill:#d95f02;stroke:#000000;stroke-opacity:0;stroke-width:0.75;" x="1085.579015" xlink:href="#m51b7330fa7" y="296.336424"/>
     <use style="fill:#d95f02;stroke:#000000;stroke-opacity:0;stroke-width:0.75;" x="1101.076745" xlink:href="#m51b7330fa7" y="296.960987"/>
     <use style="fill:#d95f02;stroke:#000000;stroke-opacity:0;stroke-width:0.75;" x="1116.574475" xlink:href="#m51b7330fa7" y="297.642845"/>
     <use style="fill:#d95f02;stroke:#000000;stroke-opacity:0;stroke-width:0.75;" x="1132.072205" xlink:href="#m51b7330fa7" y="298.134414"/>
     <use style="fill:#d95f02;stroke:#000000;stroke-opacity:0;stroke-width:0.75;" x="1147.569934" xlink:href="#m51b7330fa7" y="298.165649"/>
     <use style="fill:#d95f02;stroke:#000000;stroke-opacity:0;stroke-width:0.75;" x="1163.067664" xlink:href="#m51b7330fa7" y="299.13499"/>
     <use style="fill:#d95f02;stroke:#000000;stroke-opacity:0;stroke-width:0.75;" x="1178.565394" xlink:href="#m51b7330fa7" y="299.427955"/>
     <use style="fill:#d95f02;stroke:#000000;stroke-opacity:0;stroke-width:0.75;" x="1194.063124" xlink:href="#m51b7330fa7" y="299.469081"/>
     <use style="fill:#d95f02;stroke:#000000;stroke-opacity:0;stroke-width:0.75;" x="1209.560854" xlink:href="#m51b7330fa7" y="299.403381"/>
     <use style="fill:#d95f02;stroke:#000000;stroke-opacity:0;stroke-width:0.75;" x="1225.058583" xlink:href="#m51b7330fa7" y="299.634653"/>
     <use style="fill:#d95f02;stroke:#000000;stroke-opacity:0;stroke-width:0.75;" x="1240.556313" xlink:href="#m51b7330fa7" y="299.805461"/>
     <use style="fill:#d95f02;stroke:#000000;stroke-opacity:0;stroke-width:0.75;" x="1256.054043" xlink:href="#m51b7330fa7" y="299.933587"/>
     <use style="fill:#d95f02;stroke:#000000;stroke-opacity:0;stroke-width:0.75;" x="1271.551773" xlink:href="#m51b7330fa7" y="299.871109"/>
     <use style="fill:#d95f02;stroke:#000000;stroke-opacity:0;stroke-width:0.75;" x="1287.049502" xlink:href="#m51b7330fa7" y="299.85529"/>
     <use style="fill:#d95f02;stroke:#000000;stroke-opacity:0;stroke-width:0.75;" x="1302.547232" xlink:href="#m51b7330fa7" y="299.818187"/>
     <use style="fill:#d95f02;stroke:#000000;stroke-opacity:0;stroke-width:0.75;" x="1318.044962" xlink:href="#m51b7330fa7" y="299.823414"/>
     <use style="fill:#d95f02;stroke:#000000;stroke-opacity:0;stroke-width:0.75;" x="1333.542692" xlink:href="#m51b7330fa7" y="299.823414"/>
     <use style="fill:#d95f02;stroke:#000000;stroke-opacity:0;stroke-width:0.75;" x="1349.040421" xlink:href="#m51b7330fa7" y="299.823414"/>
     <use style="fill:#d95f02;stroke:#000000;stroke-opacity:0;stroke-width:0.75;" x="1364.538151" xlink:href="#m51b7330fa7" y="299.823414"/>
     <use style="fill:#d95f02;stroke:#000000;stroke-opacity:0;stroke-width:0.75;" x="1380.035881" xlink:href="#m51b7330fa7" y="299.823414"/>
     <use style="fill:#d95f02;stroke:#000000;stroke-opacity:0;stroke-width:0.75;" x="1395.533611" xlink:href="#m51b7330fa7" y="299.823414"/>
    </g>
   </g>
   <g id="line2d_3"/>
   <g id="line2d_4"/>
   <g id="patch_3">
    <path d="M 462.880233 548 
L 462.880233 131 
" style="fill:none;stroke:#262626;stroke-linecap:square;stroke-linejoin:miter;stroke-width:2;"/>
   </g>
   <g id="patch_4">
    <path d="M 462.880233 548 
L 1413.820932 548 
" style="fill:none;stroke:#262626;stroke-linecap:square;stroke-linejoin:miter;stroke-width:2;"/>
   </g>
   <g id="legend_1">
    <g id="line2d_5">
     <path d="M 1163.269057 167.0325 
L 1219.269057 167.0325 
" style="fill:none;stroke:#1b9e77;stroke-linecap:round;stroke-width:1.5;"/>
    </g>
    <g id="line2d_6">
     <g>
      <use style="fill:#1b9e77;stroke:#000000;stroke-opacity:0;stroke-width:0.75;" x="1191.269057" xlink:href="#m5451474ca7" y="167.0325"/>
     </g>
    </g>
    <g id="text_16">
     <!-- Congruent -->
     <g style="fill:#262626;" transform="translate(1241.669057 176.8325)scale(0.28 -0.28)">
      <defs>
       <path d="M 831 1684 
Q 831 1069 1075 730 
Q 1319 391 1734 391 
Q 2138 391 2394 684 
Q 2650 978 2650 1516 
Q 2650 2222 2426 2580 
Q 2203 2938 1747 2938 
Q 1288 2938 1059 2633 
Q 831 2328 831 1684 
z
M 3188 191 
Q 3188 -616 2800 -1012 
Q 2413 -1409 1631 -1409 
Q 1069 -1409 736 -1150 
Q 403 -891 353 -409 
L 916 -409 
Q 959 -653 1142 -797 
Q 1325 -941 1672 -941 
Q 2144 -941 2384 -687 
Q 2625 -434 2625 134 
L 2625 372 
L 2613 372 
Q 2297 -97 1722 -97 
Q 1006 -97 628 431 
Q 250 959 250 1772 
Q 250 2516 631 2980 
Q 1013 3444 1644 3444 
Q 2278 3444 2644 2875 
L 2656 2875 
L 2656 3347 
L 3188 3347 
L 3188 191 
z
" id="HelveticaWorld-Regular-67" transform="scale(0.015625)"/>
      </defs>
      <use xlink:href="#HelveticaWorld-Regular-43"/>
      <use x="72.314453" xlink:href="#HelveticaWorld-Regular-6f"/>
      <use x="128.222656" xlink:href="#HelveticaWorld-Regular-6e"/>
      <use x="183.398438" xlink:href="#HelveticaWorld-Regular-67"/>
      <use x="239.306641" xlink:href="#HelveticaWorld-Regular-72"/>
      <use x="271.875" xlink:href="#HelveticaWorld-Regular-75"/>
      <use x="326.660156" xlink:href="#HelveticaWorld-Regular-65"/>
      <use x="382.080078" xlink:href="#HelveticaWorld-Regular-6e"/>
      <use x="437.255859" xlink:href="#HelveticaWorld-Regular-74"/>
     </g>
    </g>
    <g id="line2d_7">
     <path d="M 1163.269057 207.295625 
L 1219.269057 207.295625 
" style="fill:none;stroke:#d95f02;stroke-linecap:round;stroke-width:1.5;"/>
    </g>
    <g id="line2d_8">
     <g>
      <use style="fill:#d95f02;stroke:#000000;stroke-opacity:0;stroke-width:0.75;" x="1191.269057" xlink:href="#m51b7330fa7" y="207.295625"/>
     </g>
    </g>
    <g id="text_17">
     <!-- Incongruent -->
     <g style="fill:#262626;" transform="translate(1241.669057 217.095625)scale(0.28 -0.28)">
      <defs>
       <path d="M 2534 2222 
Q 2413 2938 1741 2938 
Q 1325 2938 1072 2605 
Q 819 2272 819 1678 
Q 819 1031 1053 711 
Q 1288 391 1734 391 
Q 2034 391 2253 611 
Q 2472 831 2534 1184 
L 3078 1184 
Q 2994 563 2639 233 
Q 2284 -97 1722 -97 
Q 1063 -97 641 354 
Q 219 806 219 1581 
Q 219 2431 641 2937 
Q 1063 3444 1825 3444 
Q 2381 3444 2711 3111 
Q 3041 2778 3078 2222 
L 2534 2222 
z
" id="HelveticaWorld-Regular-63" transform="scale(0.015625)"/>
      </defs>
      <use xlink:href="#HelveticaWorld-Regular-49"/>
      <use x="25.78125" xlink:href="#HelveticaWorld-Regular-6e"/>
      <use x="80.957031" xlink:href="#HelveticaWorld-Regular-63"/>
      <use x="132.226562" xlink:href="#HelveticaWorld-Regular-6f"/>
      <use x="188.134766" xlink:href="#HelveticaWorld-Regular-6e"/>
      <use x="243.310547" xlink:href="#HelveticaWorld-Regular-67"/>
      <use x="299.21875" xlink:href="#HelveticaWorld-Regular-72"/>
      <use x="331.787109" xlink:href="#HelveticaWorld-Regular-75"/>
      <use x="386.572266" xlink:href="#HelveticaWorld-Regular-65"/>
      <use x="441.992188" xlink:href="#HelveticaWorld-Regular-6e"/>
      <use x="497.167969" xlink:href="#HelveticaWorld-Regular-74"/>
     </g>
    </g>
   </g>
  </g>
  <g id="axes_2">
   <g id="patch_5">
    <path d="M 115.55 668.2 
L 371.830233 668.2 
L 371.830233 10.8 
L 115.55 10.8 
z
" style="fill:#ffffff;"/>
   </g>
   <g id="matplotlib.axis_3">
    <g id="xtick_9"/>
    <g id="text_18">
     <!-- Average -->
     <g style="fill:#262626;" transform="translate(185.500116 702.17)scale(0.32 -0.32)">
      <defs>
       <path d="M 2816 1888 
L 2138 3909 
L 2125 3909 
L 1388 1888 
L 2816 1888 
z
M 1197 1338 
L 716 0 
L 78 0 
L 1806 4594 
L 2509 4594 
L 4172 0 
L 3494 0 
L 3041 1338 
L 1197 1338 
z
" id="HelveticaWorld-Regular-41" transform="scale(0.015625)"/>
       <path d="M 2522 3347 
L 3138 3347 
L 1863 0 
L 1259 0 
L 38 3347 
L 691 3347 
L 1563 622 
L 1575 622 
L 2522 3347 
z
" id="HelveticaWorld-Regular-76" transform="scale(0.015625)"/>
      </defs>
      <use xlink:href="#HelveticaWorld-Regular-41"/>
      <use x="62.824219" xlink:href="#HelveticaWorld-Regular-76"/>
      <use x="110.433594" xlink:href="#HelveticaWorld-Regular-65"/>
      <use x="165.853516" xlink:href="#HelveticaWorld-Regular-72"/>
      <use x="197.421875" xlink:href="#HelveticaWorld-Regular-61"/>
      <use x="252.353516" xlink:href="#HelveticaWorld-Regular-67"/>
      <use x="308.261719" xlink:href="#HelveticaWorld-Regular-65"/>
     </g>
    </g>
   </g>
   <g id="matplotlib.axis_4">
    <g id="ytick_6">
     <g id="text_19">
      <!-- 0.6 -->
      <g style="fill:#262626;" transform="translate(45.32 632.727857)scale(0.32 -0.32)">
       <defs>
        <path d="M 3494 1381 
L 256 1381 
L 256 1850 
L 3494 1850 
L 3494 1381 
z
" id="HelveticaWorld-Regular-2212" transform="scale(0.015625)"/>
       </defs>
       <use xlink:href="#HelveticaWorld-Regular-2212"/>
       <use x="58.59375" xlink:href="#HelveticaWorld-Regular-30"/>
       <use x="114.208984" xlink:href="#HelveticaWorld-Regular-2e"/>
       <use x="141.992188" xlink:href="#HelveticaWorld-Regular-36"/>
      </g>
     </g>
    </g>
    <g id="ytick_7">
     <g id="text_20">
      <!-- 0.4 -->
      <g style="fill:#262626;" transform="translate(45.32 538.813571)scale(0.32 -0.32)">
       <use xlink:href="#HelveticaWorld-Regular-2212"/>
       <use x="58.59375" xlink:href="#HelveticaWorld-Regular-30"/>
       <use x="114.208984" xlink:href="#HelveticaWorld-Regular-2e"/>
       <use x="141.992188" xlink:href="#HelveticaWorld-Regular-34"/>
      </g>
     </g>
    </g>
    <g id="ytick_8">
     <g id="text_21">
      <!-- 0.2 -->
      <g style="fill:#262626;" transform="translate(45.32 444.899286)scale(0.32 -0.32)">
       <use xlink:href="#HelveticaWorld-Regular-2212"/>
       <use x="58.59375" xlink:href="#HelveticaWorld-Regular-30"/>
       <use x="114.208984" xlink:href="#HelveticaWorld-Regular-2e"/>
       <use x="141.992188" xlink:href="#HelveticaWorld-Regular-32"/>
      </g>
     </g>
    </g>
    <g id="ytick_9">
     <g id="text_22">
      <!-- 0.0 -->
      <g style="fill:#262626;" transform="translate(64.07 350.985)scale(0.32 -0.32)">
       <use xlink:href="#HelveticaWorld-Regular-30"/>
       <use x="55.615234" xlink:href="#HelveticaWorld-Regular-2e"/>
       <use x="83.398438" xlink:href="#HelveticaWorld-Regular-30"/>
      </g>
     </g>
    </g>
    <g id="ytick_10">
     <g id="text_23">
      <!-- 0.2 -->
      <g style="fill:#262626;" transform="translate(64.07 257.070714)scale(0.32 -0.32)">
       <use xlink:href="#HelveticaWorld-Regular-30"/>
       <use x="55.615234" xlink:href="#HelveticaWorld-Regular-2e"/>
       <use x="83.398438" xlink:href="#HelveticaWorld-Regular-32"/>
      </g>
     </g>
    </g>
    <g id="ytick_11">
     <g id="text_24">
      <!-- 0.4 -->
      <g style="fill:#262626;" transform="translate(64.07 163.156429)scale(0.32 -0.32)">
       <use xlink:href="#HelveticaWorld-Regular-30"/>
       <use x="55.615234" xlink:href="#HelveticaWorld-Regular-2e"/>
       <use x="83.398438" xlink:href="#HelveticaWorld-Regular-34"/>
      </g>
     </g>
    </g>
    <g id="ytick_12">
     <g id="text_25">
      <!-- 0.6 -->
      <g style="fill:#262626;" transform="translate(64.07 69.242143)scale(0.32 -0.32)">
       <use xlink:href="#HelveticaWorld-Regular-30"/>
       <use x="55.615234" xlink:href="#HelveticaWorld-Regular-2e"/>
       <use x="83.398438" xlink:href="#HelveticaWorld-Regular-36"/>
      </g>
     </g>
    </g>
    <g id="text_26">
     <!--  Classifier Information (a.u.) -->
     <g style="fill:#262626;" transform="translate(34.695 543.335)rotate(-90)scale(0.32 -0.32)">
      <defs>
       <path d="M 941 550 
L 3244 550 
L 2125 3891 
L 2113 3891 
L 941 550 
z
M 97 0 
L 1831 4594 
L 2456 4594 
L 4128 0 
L 97 0 
z
" id="HelveticaWorld-Regular-394" transform="scale(0.015625)"/>
      </defs>
      <use xlink:href="#HelveticaWorld-Regular-394"/>
      <use x="66.015625" xlink:href="#HelveticaWorld-Regular-20"/>
      <use x="90.429688" xlink:href="#HelveticaWorld-Regular-43"/>
      <use x="162.744141" xlink:href="#HelveticaWorld-Regular-6c"/>
      <use x="184.765625" xlink:href="#HelveticaWorld-Regular-61"/>
      <use x="239.697266" xlink:href="#HelveticaWorld-Regular-73"/>
      <use x="289.697266" xlink:href="#HelveticaWorld-Regular-73"/>
      <use x="339.697266" xlink:href="#HelveticaWorld-Regular-69"/>
      <use x="361.71875" xlink:href="#HelveticaWorld-Regular-66"/>
      <use x="389.404297" xlink:href="#HelveticaWorld-Regular-69"/>
      <use x="411.425781" xlink:href="#HelveticaWorld-Regular-65"/>
      <use x="466.845703" xlink:href="#HelveticaWorld-Regular-72"/>
      <use x="499.414062" xlink:href="#HelveticaWorld-Regular-20"/>
      <use x="523.828125" xlink:href="#HelveticaWorld-Regular-49"/>
      <use x="549.609375" xlink:href="#HelveticaWorld-Regular-6e"/>
      <use x="604.785156" xlink:href="#HelveticaWorld-Regular-66"/>
      <use x="630.470703" xlink:href="#HelveticaWorld-Regular-6f"/>
      <use x="686.378906" xlink:href="#HelveticaWorld-Regular-72"/>
      <use x="718.947266" xlink:href="#HelveticaWorld-Regular-6d"/>
      <use x="801.955078" xlink:href="#HelveticaWorld-Regular-61"/>
      <use x="856.886719" xlink:href="#HelveticaWorld-Regular-74"/>
      <use x="884.572266" xlink:href="#HelveticaWorld-Regular-69"/>
      <use x="906.59375" xlink:href="#HelveticaWorld-Regular-6f"/>
      <use x="962.501953" xlink:href="#HelveticaWorld-Regular-6e"/>
      <use x="1017.677734" xlink:href="#HelveticaWorld-Regular-20"/>
      <use x="1042.091797" xlink:href="#HelveticaWorld-Regular-28"/>
      <use x="1075.392578" xlink:href="#HelveticaWorld-Regular-61"/>
      <use x="1130.324219" xlink:href="#HelveticaWorld-Regular-2e"/>
      <use x="1158.107422" xlink:href="#HelveticaWorld-Regular-75"/>
      <use x="1212.892578" xlink:href="#HelveticaWorld-Regular-2e"/>
      <use x="1240.675781" xlink:href="#HelveticaWorld-Regular-29"/>
     </g>
    </g>
   </g>
   <g id="PolyCollection_3">
    <defs>
     <path d="M 219.165692 -68.56195 
L 218.408371 -68.56195 
L 218.100914 -74.822935 
L 217.715414 -81.08392 
L 217.252019 -87.344905 
L 216.719302 -93.60589 
L 216.135613 -99.866875 
L 215.529066 -106.127859 
L 214.935739 -112.388844 
L 214.396038 -118.649829 
L 213.949528 -124.910814 
L 213.629016 -131.171799 
L 213.454926 -137.432784 
L 213.431082 -143.693769 
L 213.542873 -149.954753 
L 213.758287 -156.215738 
L 214.031806 -162.476723 
L 214.310548 -168.737708 
L 214.541604 -174.998693 
L 214.679297 -181.259678 
L 214.691082 -187.520663 
L 214.561053 -193.781647 
L 214.290418 -200.042632 
L 213.894838 -206.303617 
L 213.399019 -212.564602 
L 212.829494 -218.825587 
L 212.206832 -225.086572 
L 211.538733 -231.347557 
L 210.815355 -237.608541 
L 210.00788 -243.869526 
L 209.070807 -250.130511 
L 207.947754 -256.391496 
L 206.579943 -262.652481 
L 204.915987 -268.913466 
L 202.921342 -275.174451 
L 200.585733 -281.435435 
L 197.927142 -287.69642 
L 194.991432 -293.957405 
L 191.847347 -300.21839 
L 188.577432 -306.479375 
L 185.266149 -312.74036 
L 181.987094 -319.001345 
L 178.791468 -325.262329 
L 175.699852 -331.523314 
L 172.698835 -337.784299 
L 169.743199 -344.045284 
L 166.763541 -350.306269 
L 163.678426 -356.567254 
L 160.409643 -362.828239 
L 156.898821 -369.089223 
L 153.12347 -375.350208 
L 149.11034 -381.611193 
L 144.943826 -387.872178 
L 140.767236 -394.133163 
L 136.775234 -400.394148 
L 133.19694 -406.655133 
L 130.270946 -412.916117 
L 128.215535 -419.177102 
L 127.199101 -425.438087 
L 127.316441 -431.699072 
L 128.575901 -437.960057 
L 130.900249 -444.221042 
L 134.141115 -450.482027 
L 138.103809 -456.743011 
L 142.577079 -463.003996 
L 147.361576 -469.264981 
L 152.291624 -475.525966 
L 157.246935 -481.786951 
L 162.153561 -488.047936 
L 166.975812 -494.308921 
L 171.702542 -500.569905 
L 176.331775 -506.83089 
L 180.857232 -513.091875 
L 185.259203 -519.35286 
L 189.500818 -525.613845 
L 193.529492 -531.87483 
L 197.282404 -538.135815 
L 200.694437 -544.396799 
L 203.706891 -550.657784 
L 206.275583 -556.918769 
L 208.377207 -563.179754 
L 210.013287 -569.440739 
L 211.21131 -575.701724 
L 212.022969 -581.962709 
L 212.519691 -588.223693 
L 212.785911 -594.484678 
L 212.910844 -600.745663 
L 212.979745 -607.006648 
L 213.065809 -613.267633 
L 213.223832 -619.528618 
L 213.486532 -625.789603 
L 213.863976 -632.050587 
L 214.346051 -638.311572 
L 214.907336 -644.572557 
L 215.513379 -650.833542 
L 216.127198 -657.094527 
L 216.714918 -663.355512 
L 217.249803 -669.616497 
L 217.714327 -675.877481 
L 218.100397 -682.138466 
L 218.408132 -688.399451 
L 219.165692 -688.399451 
L 219.165692 -688.399451 
L 219.165692 -682.138466 
L 219.165692 -675.877481 
L 219.165692 -669.616497 
L 219.165692 -663.355512 
L 219.165692 -657.094527 
L 219.165692 -650.833542 
L 219.165692 -644.572557 
L 219.165692 -638.311572 
L 219.165692 -632.050587 
L 219.165692 -625.789603 
L 219.165692 -619.528618 
L 219.165692 -613.267633 
L 219.165692 -607.006648 
L 219.165692 -600.745663 
L 219.165692 -594.484678 
L 219.165692 -588.223693 
L 219.165692 -581.962709 
L 219.165692 -575.701724 
L 219.165692 -569.440739 
L 219.165692 -563.179754 
L 219.165692 -556.918769 
L 219.165692 -550.657784 
L 219.165692 -544.396799 
L 219.165692 -538.135815 
L 219.165692 -531.87483 
L 219.165692 -525.613845 
L 219.165692 -519.35286 
L 219.165692 -513.091875 
L 219.165692 -506.83089 
L 219.165692 -500.569905 
L 219.165692 -494.308921 
L 219.165692 -488.047936 
L 219.165692 -481.786951 
L 219.165692 -475.525966 
L 219.165692 -469.264981 
L 219.165692 -463.003996 
L 219.165692 -456.743011 
L 219.165692 -450.482027 
L 219.165692 -444.221042 
L 219.165692 -437.960057 
L 219.165692 -431.699072 
L 219.165692 -425.438087 
L 219.165692 -419.177102 
L 219.165692 -412.916117 
L 219.165692 -406.655133 
L 219.165692 -400.394148 
L 219.165692 -394.133163 
L 219.165692 -387.872178 
L 219.165692 -381.611193 
L 219.165692 -375.350208 
L 219.165692 -369.089223 
L 219.165692 -362.828239 
L 219.165692 -356.567254 
L 219.165692 -350.306269 
L 219.165692 -344.045284 
L 219.165692 -337.784299 
L 219.165692 -331.523314 
L 219.165692 -325.262329 
L 219.165692 -319.001345 
L 219.165692 -312.74036 
L 219.165692 -306.479375 
L 219.165692 -300.21839 
L 219.165692 -293.957405 
L 219.165692 -287.69642 
L 219.165692 -281.435435 
L 219.165692 -275.174451 
L 219.165692 -268.913466 
L 219.165692 -262.652481 
L 219.165692 -256.391496 
L 219.165692 -250.130511 
L 219.165692 -243.869526 
L 219.165692 -237.608541 
L 219.165692 -231.347557 
L 219.165692 -225.086572 
L 219.165692 -218.825587 
L 219.165692 -212.564602 
L 219.165692 -206.303617 
L 219.165692 -200.042632 
L 219.165692 -193.781647 
L 219.165692 -187.520663 
L 219.165692 -181.259678 
L 219.165692 -174.998693 
L 219.165692 -168.737708 
L 219.165692 -162.476723 
L 219.165692 -156.215738 
L 219.165692 -149.954753 
L 219.165692 -143.693769 
L 219.165692 -137.432784 
L 219.165692 -131.171799 
L 219.165692 -124.910814 
L 219.165692 -118.649829 
L 219.165692 -112.388844 
L 219.165692 -106.127859 
L 219.165692 -99.866875 
L 219.165692 -93.60589 
L 219.165692 -87.344905 
L 219.165692 -81.08392 
L 219.165692 -74.822935 
L 219.165692 -68.56195 
z
" id="m609932b155" style="stroke:#7a7a7a;stroke-width:1.5;"/>
    </defs>
    <g clip-path="url(#pf348582ce5)">
     <use style="fill:#cccccc;stroke:#7a7a7a;stroke-width:1.5;" x="0" xlink:href="#m609932b155" y="720"/>
    </g>
   </g>
   <g id="PolyCollection_4">
    <defs>
     <path d="M 219.165692 -381.611193 
L 149.11034 -381.611193 
L 144.943826 -387.872178 
L 144.943826 -387.872178 
L 140.767236 -394.133163 
L 136.775234 -400.394148 
L 133.19694 -406.655133 
L 133.19694 -406.655133 
L 130.270946 -412.916117 
L 128.215535 -419.177102 
L 127.199101 -425.438087 
L 127.199101 -425.438087 
L 127.316441 -431.699072 
L 128.575901 -437.960057 
L 219.165692 -437.960057 
L 219.165692 -437.960057 
L 219.165692 -431.699072 
L 219.165692 -425.438087 
L 219.165692 -425.438087 
L 219.165692 -419.177102 
L 219.165692 -412.916117 
L 219.165692 -406.655133 
L 219.165692 -406.655133 
L 219.165692 -400.394148 
L 219.165692 -394.133163 
L 219.165692 -387.872178 
L 219.165692 -387.872178 
L 219.165692 -381.611193 
z
" id="m569545801f" style="stroke:#666666;stroke-width:1.5;"/>
    </defs>
    <g clip-path="url(#pf348582ce5)">
     <use style="fill:#8f8f8f;stroke:#666666;stroke-width:1.5;" x="0" xlink:href="#m569545801f" y="720"/>
    </g>
   </g>
   <g id="PolyCollection_5">
    <defs>
     <path d="M 268.214541 -97.013013 
L 269.016282 -97.013013 
L 269.283689 -102.375982 
L 269.61139 -107.73895 
L 270.003086 -113.101919 
L 270.459728 -118.464888 
L 270.979002 -123.827857 
L 271.555134 -129.190825 
L 272.179119 -134.553794 
L 272.839403 -139.916763 
L 273.522977 -145.279732 
L 274.216744 -150.6427 
L 274.90895 -156.005669 
L 275.590417 -161.368638 
L 276.255331 -166.731607 
L 276.901403 -172.094575 
L 277.529325 -177.457544 
L 278.14162 -182.820513 
L 278.741114 -188.183482 
L 279.329377 -193.54645 
L 279.905556 -198.909419 
L 280.465932 -204.272388 
L 281.004455 -209.635357 
L 281.514281 -214.998325 
L 281.990113 -220.361294 
L 282.430949 -225.724263 
L 282.842684 -231.087232 
L 283.239988 -236.4502 
L 283.646956 -241.813169 
L 284.096218 -247.176138 
L 284.626472 -252.539107 
L 285.278693 -257.902075 
L 286.091512 -263.265044 
L 287.096467 -268.628013 
L 288.313834 -273.990982 
L 289.749698 -279.35395 
L 291.394716 -284.716919 
L 293.224745 -290.079888 
L 295.203212 -295.442857 
L 297.284861 -300.805825 
L 299.420303 -306.168794 
L 301.560744 -311.531763 
L 303.662305 -316.894732 
L 305.689494 -322.2577 
L 307.617559 -327.620669 
L 309.433689 -332.983638 
L 311.137168 -338.346607 
L 312.738717 -343.709575 
L 314.259256 -349.072544 
L 315.728315 -354.435513 
L 317.182201 -359.798482 
L 318.661982 -365.16145 
L 320.211236 -370.524419 
L 321.87353 -375.887388 
L 323.689618 -381.250357 
L 325.694377 -386.613325 
L 327.913651 -391.976294 
L 330.361169 -397.339263 
L 333.035796 -402.702232 
L 335.919348 -408.0652 
L 338.975159 -413.428169 
L 342.14755 -418.791138 
L 345.362305 -424.154106 
L 348.528211 -429.517075 
L 351.539753 -434.880044 
L 354.281015 -440.243013 
L 356.630827 -445.605981 
L 358.469122 -450.96895 
L 359.684293 -456.331919 
L 360.181131 -461.694888 
L 359.888702 -467.057856 
L 358.767277 -472.420825 
L 356.813405 -477.783794 
L 354.062216 -483.146763 
L 350.586349 -488.509731 
L 346.491296 -493.8727 
L 341.907478 -499.235669 
L 336.979887 -504.598638 
L 331.856548 -509.961606 
L 326.677243 -515.324575 
L 321.563937 -520.687544 
L 316.614037 -526.050513 
L 311.897132 -531.413481 
L 307.455314 -536.77645 
L 303.30659 -542.139419 
L 299.450479 -547.502388 
L 295.87465 -552.865356 
L 292.56142 -558.228325 
L 289.493171 -563.591294 
L 286.656024 -568.954263 
L 284.041555 -574.317231 
L 281.646696 -579.6802 
L 279.47226 -585.043169 
L 277.520671 -590.406138 
L 275.793529 -595.769106 
L 274.289515 -601.132075 
L 273.002988 -606.495044 
L 271.923421 -611.858013 
L 271.035646 -617.220981 
L 270.320735 -622.58395 
L 269.757277 -627.946919 
L 268.214541 -627.946919 
L 268.214541 -627.946919 
L 268.214541 -622.58395 
L 268.214541 -617.220981 
L 268.214541 -611.858013 
L 268.214541 -606.495044 
L 268.214541 -601.132075 
L 268.214541 -595.769106 
L 268.214541 -590.406138 
L 268.214541 -585.043169 
L 268.214541 -579.6802 
L 268.214541 -574.317231 
L 268.214541 -568.954263 
L 268.214541 -563.591294 
L 268.214541 -558.228325 
L 268.214541 -552.865356 
L 268.214541 -547.502388 
L 268.214541 -542.139419 
L 268.214541 -536.77645 
L 268.214541 -531.413481 
L 268.214541 -526.050513 
L 268.214541 -520.687544 
L 268.214541 -515.324575 
L 268.214541 -509.961606 
L 268.214541 -504.598638 
L 268.214541 -499.235669 
L 268.214541 -493.8727 
L 268.214541 -488.509731 
L 268.214541 -483.146763 
L 268.214541 -477.783794 
L 268.214541 -472.420825 
L 268.214541 -467.057856 
L 268.214541 -461.694888 
L 268.214541 -456.331919 
L 268.214541 -450.96895 
L 268.214541 -445.605981 
L 268.214541 -440.243013 
L 268.214541 -434.880044 
L 268.214541 -429.517075 
L 268.214541 -424.154106 
L 268.214541 -418.791138 
L 268.214541 -413.428169 
L 268.214541 -408.0652 
L 268.214541 -402.702232 
L 268.214541 -397.339263 
L 268.214541 -391.976294 
L 268.214541 -386.613325 
L 268.214541 -381.250357 
L 268.214541 -375.887388 
L 268.214541 -370.524419 
L 268.214541 -365.16145 
L 268.214541 -359.798482 
L 268.214541 -354.435513 
L 268.214541 -349.072544 
L 268.214541 -343.709575 
L 268.214541 -338.346607 
L 268.214541 -332.983638 
L 268.214541 -327.620669 
L 268.214541 -322.2577 
L 268.214541 -316.894732 
L 268.214541 -311.531763 
L 268.214541 -306.168794 
L 268.214541 -300.805825 
L 268.214541 -295.442857 
L 268.214541 -290.079888 
L 268.214541 -284.716919 
L 268.214541 -279.35395 
L 268.214541 -273.990982 
L 268.214541 -268.628013 
L 268.214541 -263.265044 
L 268.214541 -257.902075 
L 268.214541 -252.539107 
L 268.214541 -247.176138 
L 268.214541 -241.813169 
L 268.214541 -236.4502 
L 268.214541 -231.087232 
L 268.214541 -225.724263 
L 268.214541 -220.361294 
L 268.214541 -214.998325 
L 268.214541 -209.635357 
L 268.214541 -204.272388 
L 268.214541 -198.909419 
L 268.214541 -193.54645 
L 268.214541 -188.183482 
L 268.214541 -182.820513 
L 268.214541 -177.457544 
L 268.214541 -172.094575 
L 268.214541 -166.731607 
L 268.214541 -161.368638 
L 268.214541 -156.005669 
L 268.214541 -150.6427 
L 268.214541 -145.279732 
L 268.214541 -139.916763 
L 268.214541 -134.553794 
L 268.214541 -129.190825 
L 268.214541 -123.827857 
L 268.214541 -118.464888 
L 268.214541 -113.101919 
L 268.214541 -107.73895 
L 268.214541 -102.375982 
L 268.214541 -97.013013 
z
" id="m4617fa84ab" style="stroke:#7a7a7a;stroke-width:1.5;"/>
    </defs>
    <g clip-path="url(#pf348582ce5)">
     <use style="fill:#cccccc;stroke:#7a7a7a;stroke-width:1.5;" x="0" xlink:href="#m4617fa84ab" y="720"/>
    </g>
   </g>
   <g id="PolyCollection_6">
    <defs>
     <path d="M 268.214541 -386.613325 
L 325.694377 -386.613325 
L 327.913651 -391.976294 
L 327.913651 -391.976294 
L 330.361169 -397.339263 
L 333.035796 -402.702232 
L 335.919348 -408.0652 
L 338.975159 -413.428169 
L 342.14755 -418.791138 
L 345.362305 -424.154106 
L 348.528211 -429.517075 
L 348.528211 -429.517075 
L 351.539753 -434.880044 
L 354.281015 -440.243013 
L 268.214541 -440.243013 
L 268.214541 -440.243013 
L 268.214541 -434.880044 
L 268.214541 -429.517075 
L 268.214541 -429.517075 
L 268.214541 -424.154106 
L 268.214541 -418.791138 
L 268.214541 -413.428169 
L 268.214541 -408.0652 
L 268.214541 -402.702232 
L 268.214541 -397.339263 
L 268.214541 -391.976294 
L 268.214541 -391.976294 
L 268.214541 -386.613325 
z
" id="md8dc940e53" style="stroke:#666666;stroke-width:1.5;"/>
    </defs>
    <g clip-path="url(#pf348582ce5)">
     <use style="fill:#8f8f8f;stroke:#666666;stroke-width:1.5;" x="0" xlink:href="#md8dc940e53" y="720"/>
    </g>
   </g>
   <g id="PathCollection_35">
    <defs>
     <path d="M 0 3 
C 0.795609 3 1.55874 2.683901 2.12132 2.12132 
C 2.683901 1.55874 3 0.795609 3 0 
C 3 -0.795609 2.683901 -1.55874 2.12132 -2.12132 
C 1.55874 -2.683901 0.795609 -3 0 -3 
C -0.795609 -3 -1.55874 -2.683901 -2.12132 -2.12132 
C -2.683901 -1.55874 -3 -0.795609 -3 0 
C -3 0.795609 -2.683901 1.55874 -2.12132 2.12132 
C -1.55874 2.683901 -0.795609 3 0 3 
z
" id="md4dea5f9c7" style="stroke:#000000;stroke-opacity:0.3;"/>
    </defs>
    <g clip-path="url(#pf348582ce5)">
     <use style="fill-opacity:0.3;stroke:#000000;stroke-opacity:0.3;" x="177.911321" xlink:href="#md4dea5f9c7" y="261.287413"/>
     <use style="fill-opacity:0.3;stroke:#000000;stroke-opacity:0.3;" x="214.226512" xlink:href="#md4dea5f9c7" y="207.83679"/>
     <use style="fill-opacity:0.3;stroke:#000000;stroke-opacity:0.3;" x="195.885097" xlink:href="#md4dea5f9c7" y="223.702376"/>
     <use style="fill-opacity:0.3;stroke:#000000;stroke-opacity:0.3;" x="156.641586" xlink:href="#md4dea5f9c7" y="291.540967"/>
     <use style="fill-opacity:0.3;stroke:#000000;stroke-opacity:0.3;" x="145.972441" xlink:href="#md4dea5f9c7" y="259.09728"/>
     <use style="fill-opacity:0.3;stroke:#000000;stroke-opacity:0.3;" x="181.14765" xlink:href="#md4dea5f9c7" y="217.16913"/>
     <use style="fill-opacity:0.3;stroke:#000000;stroke-opacity:0.3;" x="153.457895" xlink:href="#md4dea5f9c7" y="281.364826"/>
     <use style="fill-opacity:0.3;stroke:#000000;stroke-opacity:0.3;" x="148.296797" xlink:href="#md4dea5f9c7" y="291.340584"/>
     <use style="fill-opacity:0.3;stroke:#000000;stroke-opacity:0.3;" x="189.159734" xlink:href="#md4dea5f9c7" y="339.316243"/>
     <use style="fill-opacity:0.3;stroke:#000000;stroke-opacity:0.3;" x="195.535206" xlink:href="#md4dea5f9c7" y="429.088962"/>
     <use style="fill-opacity:0.3;stroke:#000000;stroke-opacity:0.3;" x="145.156311" xlink:href="#md4dea5f9c7" y="310.955073"/>
     <use style="fill-opacity:0.3;stroke:#000000;stroke-opacity:0.3;" x="132.92622" xlink:href="#md4dea5f9c7" y="294.558282"/>
     <use style="fill-opacity:0.3;stroke:#000000;stroke-opacity:0.3;" x="199.976295" xlink:href="#md4dea5f9c7" y="187.665699"/>
     <use style="fill-opacity:0.3;stroke:#000000;stroke-opacity:0.3;" x="190.362801" xlink:href="#md4dea5f9c7" y="342.398178"/>
     <use style="fill-opacity:0.3;stroke:#000000;stroke-opacity:0.3;" x="211.168251" xlink:href="#md4dea5f9c7" y="296.68725"/>
     <use style="fill-opacity:0.3;stroke:#000000;stroke-opacity:0.3;" x="217.356597" xlink:href="#md4dea5f9c7" y="391.732412"/>
     <use style="fill-opacity:0.3;stroke:#000000;stroke-opacity:0.3;" x="204.090366" xlink:href="#md4dea5f9c7" y="284.804008"/>
     <use style="fill-opacity:0.3;stroke:#000000;stroke-opacity:0.3;" x="218.383825" xlink:href="#md4dea5f9c7" y="581.201067"/>
     <use style="fill-opacity:0.3;stroke:#000000;stroke-opacity:0.3;" x="210.807676" xlink:href="#md4dea5f9c7" y="244.634523"/>
     <use style="fill-opacity:0.3;stroke:#000000;stroke-opacity:0.3;" x="128.755019" xlink:href="#md4dea5f9c7" y="283.88289"/>
     <use style="fill-opacity:0.3;stroke:#000000;stroke-opacity:0.3;" x="197.502804" xlink:href="#md4dea5f9c7" y="391.723248"/>
     <use style="fill-opacity:0.3;stroke:#000000;stroke-opacity:0.3;" x="170.863497" xlink:href="#md4dea5f9c7" y="330.294206"/>
     <use style="fill-opacity:0.3;stroke:#000000;stroke-opacity:0.3;" x="211.92716" xlink:href="#md4dea5f9c7" y="355.425672"/>
     <use style="fill-opacity:0.3;stroke:#000000;stroke-opacity:0.3;" x="216.463326" xlink:href="#md4dea5f9c7" y="101.837532"/>
     <use style="fill-opacity:0.3;stroke:#000000;stroke-opacity:0.3;" x="134.612556" xlink:href="#md4dea5f9c7" y="299.572864"/>
     <use style="fill-opacity:0.3;stroke:#000000;stroke-opacity:0.3;" x="185.800393" xlink:href="#md4dea5f9c7" y="388.159646"/>
     <use style="fill-opacity:0.3;stroke:#000000;stroke-opacity:0.3;" x="193.770443" xlink:href="#md4dea5f9c7" y="309.703426"/>
     <use style="fill-opacity:0.3;stroke:#000000;stroke-opacity:0.3;" x="179.885538" xlink:href="#md4dea5f9c7" y="365.903903"/>
     <use style="fill-opacity:0.3;stroke:#000000;stroke-opacity:0.3;" x="140.04746" xlink:href="#md4dea5f9c7" y="290.548942"/>
     <use style="fill-opacity:0.3;stroke:#000000;stroke-opacity:0.3;" x="211.040565" xlink:href="#md4dea5f9c7" y="485.137574"/>
     <use style="fill-opacity:0.3;stroke:#000000;stroke-opacity:0.3;" x="212.227403" xlink:href="#md4dea5f9c7" y="231.439798"/>
     <use style="fill-opacity:0.3;stroke:#000000;stroke-opacity:0.3;" x="166.057734" xlink:href="#md4dea5f9c7" y="339.67009"/>
     <use style="fill-opacity:0.3;stroke:#000000;stroke-opacity:0.3;" x="182.140428" xlink:href="#md4dea5f9c7" y="397.820505"/>
     <use style="fill-opacity:0.3;stroke:#000000;stroke-opacity:0.3;" x="202.340162" xlink:href="#md4dea5f9c7" y="249.250734"/>
     <use style="fill-opacity:0.3;stroke:#000000;stroke-opacity:0.3;" x="134.99354" xlink:href="#md4dea5f9c7" y="288.198575"/>
    </g>
   </g>
   <g id="PathCollection_36">
    <g clip-path="url(#pf348582ce5)">
     <use style="fill-opacity:0.3;stroke:#000000;stroke-opacity:0.3;" x="275.365877" xlink:href="#md4dea5f9c7" y="171.658828"/>
     <use style="fill-opacity:0.3;stroke:#000000;stroke-opacity:0.3;" x="273.989063" xlink:href="#md4dea5f9c7" y="402.218176"/>
     <use style="fill-opacity:0.3;stroke:#000000;stroke-opacity:0.3;" x="311.854015" xlink:href="#md4dea5f9c7" y="235.157182"/>
     <use style="fill-opacity:0.3;stroke:#000000;stroke-opacity:0.3;" x="286.15843" xlink:href="#md4dea5f9c7" y="407.313293"/>
     <use style="fill-opacity:0.3;stroke:#000000;stroke-opacity:0.3;" x="269.587119" xlink:href="#md4dea5f9c7" y="550.07374"/>
     <use style="fill-opacity:0.3;stroke:#000000;stroke-opacity:0.3;" x="313.628878" xlink:href="#md4dea5f9c7" y="229.293958"/>
     <use style="fill-opacity:0.3;stroke:#000000;stroke-opacity:0.3;" x="296.324417" xlink:href="#md4dea5f9c7" y="235.438772"/>
     <use style="fill-opacity:0.3;stroke:#000000;stroke-opacity:0.3;" x="332.340489" xlink:href="#md4dea5f9c7" y="242.938378"/>
     <use style="fill-opacity:0.3;stroke:#000000;stroke-opacity:0.3;" x="282.750664" xlink:href="#md4dea5f9c7" y="242.492982"/>
     <use style="fill-opacity:0.3;stroke:#000000;stroke-opacity:0.3;" x="271.402221" xlink:href="#md4dea5f9c7" y="494.418986"/>
     <use style="fill-opacity:0.3;stroke:#000000;stroke-opacity:0.3;" x="300.930134" xlink:href="#md4dea5f9c7" y="264.950538"/>
     <use style="fill-opacity:0.3;stroke:#000000;stroke-opacity:0.3;" x="281.417697" xlink:href="#md4dea5f9c7" y="363.018179"/>
     <use style="fill-opacity:0.3;stroke:#000000;stroke-opacity:0.3;" x="344.491373" xlink:href="#md4dea5f9c7" y="291.324322"/>
     <use style="fill-opacity:0.3;stroke:#000000;stroke-opacity:0.3;" x="340.851601" xlink:href="#md4dea5f9c7" y="226.485647"/>
     <use style="fill-opacity:0.3;stroke:#000000;stroke-opacity:0.3;" x="290.654891" xlink:href="#md4dea5f9c7" y="419.914329"/>
     <use style="fill-opacity:0.3;stroke:#000000;stroke-opacity:0.3;" x="350.305988" xlink:href="#md4dea5f9c7" y="253.669755"/>
     <use style="fill-opacity:0.3;stroke:#000000;stroke-opacity:0.3;" x="340.948845" xlink:href="#md4dea5f9c7" y="281.069227"/>
     <use style="fill-opacity:0.3;stroke:#000000;stroke-opacity:0.3;" x="307.185626" xlink:href="#md4dea5f9c7" y="346.300329"/>
     <use style="fill-opacity:0.3;stroke:#000000;stroke-opacity:0.3;" x="284.400641" xlink:href="#md4dea5f9c7" y="262.024575"/>
     <use style="fill-opacity:0.3;stroke:#000000;stroke-opacity:0.3;" x="308.104639" xlink:href="#md4dea5f9c7" y="259.877177"/>
     <use style="fill-opacity:0.3;stroke:#000000;stroke-opacity:0.3;" x="326.384403" xlink:href="#md4dea5f9c7" y="303.333326"/>
     <use style="fill-opacity:0.3;stroke:#000000;stroke-opacity:0.3;" x="302.05955" xlink:href="#md4dea5f9c7" y="342.990785"/>
     <use style="fill-opacity:0.3;stroke:#000000;stroke-opacity:0.3;" x="289.868266" xlink:href="#md4dea5f9c7" y="164.966328"/>
     <use style="fill-opacity:0.3;stroke:#000000;stroke-opacity:0.3;" x="319.659824" xlink:href="#md4dea5f9c7" y="254.012129"/>
     <use style="fill-opacity:0.3;stroke:#000000;stroke-opacity:0.3;" x="289.246811" xlink:href="#md4dea5f9c7" y="287.171741"/>
     <use style="fill-opacity:0.3;stroke:#000000;stroke-opacity:0.3;" x="289.402372" xlink:href="#md4dea5f9c7" y="188.528838"/>
     <use style="fill-opacity:0.3;stroke:#000000;stroke-opacity:0.3;" x="333.936663" xlink:href="#md4dea5f9c7" y="299.257619"/>
     <use style="fill-opacity:0.3;stroke:#000000;stroke-opacity:0.3;" x="325.794184" xlink:href="#md4dea5f9c7" y="289.512082"/>
     <use style="fill-opacity:0.3;stroke:#000000;stroke-opacity:0.3;" x="289.802532" xlink:href="#md4dea5f9c7" y="381.382961"/>
     <use style="fill-opacity:0.3;stroke:#000000;stroke-opacity:0.3;" x="280.92591" xlink:href="#md4dea5f9c7" y="476.797938"/>
     <use style="fill-opacity:0.3;stroke:#000000;stroke-opacity:0.3;" x="269.984177" xlink:href="#md4dea5f9c7" y="321.485182"/>
     <use style="fill-opacity:0.3;stroke:#000000;stroke-opacity:0.3;" x="322.017613" xlink:href="#md4dea5f9c7" y="235.177755"/>
     <use style="fill-opacity:0.3;stroke:#000000;stroke-opacity:0.3;" x="285.95847" xlink:href="#md4dea5f9c7" y="375.046157"/>
     <use style="fill-opacity:0.3;stroke:#000000;stroke-opacity:0.3;" x="308.150486" xlink:href="#md4dea5f9c7" y="215.11828"/>
     <use style="fill-opacity:0.3;stroke:#000000;stroke-opacity:0.3;" x="297.17826" xlink:href="#md4dea5f9c7" y="336.383747"/>
    </g>
   </g>
   <g id="line2d_9">
    <path clip-path="url(#pf348582ce5)" d="M 243.690116 330.108571 
L 243.690116 283.151429 
" style="fill:none;stroke:#000000;stroke-linecap:round;stroke-width:3;"/>
   </g>
   <g id="line2d_10">
    <path clip-path="url(#pf348582ce5)" d="M 237.55901 330.108571 
L 249.821223 330.108571 
" style="fill:none;stroke:#000000;stroke-linecap:round;stroke-width:3;"/>
   </g>
   <g id="line2d_11">
    <path clip-path="url(#pf348582ce5)" d="M 237.55901 283.151429 
L 249.821223 283.151429 
" style="fill:none;stroke:#000000;stroke-linecap:round;stroke-width:3;"/>
   </g>
   <g id="line2d_12">
    <defs>
     <path d="M 0 7.5 
C 1.989023 7.5 3.896849 6.709753 5.303301 5.303301 
C 6.709753 3.896849 7.5 1.989023 7.5 0 
C 7.5 -1.989023 6.709753 -3.896849 5.303301 -5.303301 
C 3.896849 -6.709753 1.989023 -7.5 0 -7.5 
C -1.989023 -7.5 -3.896849 -6.709753 -5.303301 -5.303301 
C -6.709753 -3.896849 -7.5 -1.989023 -7.5 0 
C -7.5 1.989023 -6.709753 3.896849 -5.303301 5.303301 
C -3.896849 6.709753 -1.989023 7.5 0 7.5 
z
" id="m60088718b7" style="stroke:#000000;"/>
    </defs>
    <g clip-path="url(#pf348582ce5)">
     <use style="stroke:#000000;" x="243.690116" xlink:href="#m60088718b7" y="307.082199"/>
    </g>
   </g>
   <g id="line2d_13">
    <path clip-path="url(#pf348582ce5)" d="M 115.55 339.5 
L 371.830233 339.5 
" style="fill:none;stroke:#000000;stroke-dasharray:7.4,3.2;stroke-dashoffset:0;stroke-width:2;"/>
   </g>
   <g id="patch_6">
    <path d="M 115.55 668.2 
L 115.55 10.8 
" style="fill:none;stroke:#262626;stroke-linecap:square;stroke-linejoin:miter;stroke-width:2;"/>
   </g>
  </g>
 </g>
 <defs>
  <clipPath id="p755caf05d7">
   <rect height="417" width="950.940699" x="462.880233" y="131"/>
  </clipPath>
  <clipPath id="pf348582ce5">
   <rect height="657.4" width="256.280233" x="115.55" y="10.8"/>
  </clipPath>
 </defs>
</svg>
