<?xml version="1.0" encoding="utf-8" standalone="no"?>
<!DOCTYPE svg PUBLIC "-//W3C//DTD SVG 1.1//EN"
  "http://www.w3.org/Graphics/SVG/1.1/DTD/svg11.dtd">
<svg height="720pt" version="1.1" viewBox="0 0 1440 720" width="1440pt" xmlns="http://www.w3.org/2000/svg" xmlns:xlink="http://www.w3.org/1999/xlink">
 <metadata>
  <rdf:RDF xmlns:cc="http://creativecommons.org/ns#" xmlns:dc="http://purl.org/dc/elements/1.1/" xmlns:rdf="http://www.w3.org/1999/02/22-rdf-syntax-ns#">
   <cc:Work>
    <dc:type rdf:resource="http://purl.org/dc/dcmitype/StillImage"/>
    <dc:date>2024-11-03T12:31:34.556984</dc:date>
    <dc:format>image/svg+xml</dc:format>
    <dc:creator>
     <cc:Agent>
      <dc:title>Matplotlib v3.4.3, https://matplotlib.org/</dc:title>
     </cc:Agent>
    </dc:creator>
   </cc:Work>
  </rdf:RDF>
 </metadata>
 <defs>
  <style type="text/css">*{stroke-linecap:butt;stroke-linejoin:round;}</style>
 </defs>
 <g id="figure_1">
  <g id="patch_1">
   <path d="M 0 720 
L 1440 720 
L 1440 0 
L 0 0 
z
" style="fill:none;"/>
  </g>
  <g id="axes_1">
   <g id="patch_2">
    <path d="M 462.380233 548 
L 1413.820932 548 
L 1413.820932 131 
L 462.380233 131 
z
" style="fill:#ffffff;"/>
   </g>
   <g id="matplotlib.axis_1">
    <g id="xtick_1">
     <g id="text_1">
      <!-- 100 -->
      <g style="fill:#262626;" transform="translate(457.321232 575.09875)scale(0.28 -0.28)">
       <defs>
        <path d="M 2297 0 
L 1697 0 
L 1697 3194 
L 647 3194 
L 647 3641 
Q 1197 3659 1465 3817 
Q 1734 3975 1856 4500 
L 2297 4500 
L 2297 0 
z
" id="HelveticaWorld-Regular-31" transform="scale(0.015625)"/>
        <path d="M 2719 2188 
Q 2719 3091 2480 3542 
Q 2241 3994 1778 3994 
Q 1325 3994 1081 3542 
Q 838 3091 838 2188 
Q 838 1313 1078 848 
Q 1319 384 1778 384 
Q 2241 384 2480 832 
Q 2719 1281 2719 2188 
z
M 3322 2188 
Q 3322 1081 2922 479 
Q 2522 -122 1778 -122 
Q 1006 -122 622 501 
Q 238 1125 238 2188 
Q 238 3278 631 3889 
Q 1025 4500 1778 4500 
Q 2522 4500 2922 3892 
Q 3322 3284 3322 2188 
z
" id="HelveticaWorld-Regular-30" transform="scale(0.015625)"/>
       </defs>
       <use xlink:href="#HelveticaWorld-Regular-31"/>
       <use x="55.615234" xlink:href="#HelveticaWorld-Regular-30"/>
       <use x="111.230469" xlink:href="#HelveticaWorld-Regular-30"/>
      </g>
     </g>
    </g>
    <g id="xtick_2">
     <g id="text_2">
      <!-- 500 -->
      <g style="fill:#262626;" transform="translate(519.344746 575.09875)scale(0.28 -0.28)">
       <defs>
        <path d="M 941 2619 
Q 1313 2900 1813 2900 
Q 2419 2900 2855 2497 
Q 3291 2094 3291 1459 
Q 3291 769 2870 320 
Q 2450 -128 1691 -128 
Q 1031 -128 650 195 
Q 269 519 206 1113 
L 788 1113 
Q 831 750 1072 558 
Q 1313 366 1741 366 
Q 2156 366 2422 653 
Q 2688 941 2688 1388 
Q 2688 1844 2409 2119 
Q 2131 2394 1691 2394 
Q 1191 2394 856 1966 
L 372 1991 
L 709 4397 
L 3041 4397 
L 3041 3853 
L 1131 3853 
L 941 2619 
z
" id="HelveticaWorld-Regular-35" transform="scale(0.015625)"/>
       </defs>
       <use xlink:href="#HelveticaWorld-Regular-35"/>
       <use x="55.615234" xlink:href="#HelveticaWorld-Regular-30"/>
       <use x="111.230469" xlink:href="#HelveticaWorld-Regular-30"/>
      </g>
     </g>
    </g>
    <g id="xtick_3">
     <g id="text_3">
      <!-- 1000 -->
      <g style="fill:#262626;" transform="translate(589.088825 575.09875)scale(0.28 -0.28)">
       <use xlink:href="#HelveticaWorld-Regular-31"/>
       <use x="55.615234" xlink:href="#HelveticaWorld-Regular-30"/>
       <use x="111.230469" xlink:href="#HelveticaWorld-Regular-30"/>
       <use x="166.845703" xlink:href="#HelveticaWorld-Regular-30"/>
      </g>
     </g>
    </g>
    <g id="xtick_4">
     <g id="text_4">
      <!-- 2000 -->
      <g style="fill:#262626;" transform="translate(744.147609 575.09875)scale(0.28 -0.28)">
       <defs>
        <path d="M 281 2888 
Q 281 3681 690 4090 
Q 1100 4500 1838 4500 
Q 2456 4500 2850 4125 
Q 3244 3750 3244 3156 
Q 3244 2694 3017 2376 
Q 2791 2059 2350 1819 
L 1575 1394 
Q 891 1019 800 531 
L 3244 531 
L 3244 0 
L 166 0 
Q 191 634 441 1056 
Q 691 1478 1222 1784 
L 2028 2253 
Q 2350 2438 2497 2636 
Q 2644 2834 2644 3181 
Q 2644 3525 2403 3759 
Q 2163 3994 1753 3994 
Q 1300 3994 1075 3695 
Q 850 3397 844 2888 
L 281 2888 
z
" id="HelveticaWorld-Regular-32" transform="scale(0.015625)"/>
       </defs>
       <use xlink:href="#HelveticaWorld-Regular-32"/>
       <use x="55.615234" xlink:href="#HelveticaWorld-Regular-30"/>
       <use x="111.230469" xlink:href="#HelveticaWorld-Regular-30"/>
       <use x="166.845703" xlink:href="#HelveticaWorld-Regular-30"/>
      </g>
     </g>
    </g>
    <g id="xtick_5">
     <g id="text_5">
      <!-- 3000 -->
      <g style="fill:#262626;" transform="translate(899.206393 575.09875)scale(0.28 -0.28)">
       <defs>
        <path d="M 1434 2559 
Q 1575 2547 1728 2547 
Q 2125 2547 2354 2730 
Q 2584 2913 2584 3284 
Q 2584 3584 2370 3789 
Q 2156 3994 1753 3994 
Q 1306 3994 1098 3731 
Q 891 3469 878 3028 
L 325 3028 
Q 325 3731 694 4115 
Q 1063 4500 1778 4500 
Q 2413 4500 2791 4173 
Q 3169 3847 3169 3316 
Q 3169 2631 2591 2388 
L 2591 2375 
Q 3341 2119 3341 1325 
Q 3341 691 2919 284 
Q 2497 -122 1722 -122 
Q 1088 -122 678 211 
Q 269 544 219 1375 
L 800 1375 
Q 813 856 1056 620 
Q 1300 384 1759 384 
Q 2203 384 2472 631 
Q 2741 878 2741 1253 
Q 2741 1663 2484 1872 
Q 2228 2081 1691 2081 
Q 1563 2081 1434 2075 
L 1434 2559 
z
" id="HelveticaWorld-Regular-33" transform="scale(0.015625)"/>
       </defs>
       <use xlink:href="#HelveticaWorld-Regular-33"/>
       <use x="55.615234" xlink:href="#HelveticaWorld-Regular-30"/>
       <use x="111.230469" xlink:href="#HelveticaWorld-Regular-30"/>
       <use x="166.845703" xlink:href="#HelveticaWorld-Regular-30"/>
      </g>
     </g>
    </g>
    <g id="xtick_6">
     <g id="text_6">
      <!-- 4000 -->
      <g style="fill:#262626;" transform="translate(1054.265177 575.09875)scale(0.28 -0.28)">
       <defs>
        <path d="M 678 1581 
L 2125 1581 
L 2125 3622 
L 2113 3622 
L 678 1581 
z
M 2688 1094 
L 2688 0 
L 2125 0 
L 2125 1094 
L 159 1094 
L 159 1644 
L 2222 4500 
L 2688 4500 
L 2688 1581 
L 3347 1581 
L 3347 1094 
L 2688 1094 
z
" id="HelveticaWorld-Regular-34" transform="scale(0.015625)"/>
       </defs>
       <use xlink:href="#HelveticaWorld-Regular-34"/>
       <use x="55.615234" xlink:href="#HelveticaWorld-Regular-30"/>
       <use x="111.230469" xlink:href="#HelveticaWorld-Regular-30"/>
       <use x="166.845703" xlink:href="#HelveticaWorld-Regular-30"/>
      </g>
     </g>
    </g>
    <g id="xtick_7">
     <g id="text_7">
      <!-- 5000 -->
      <g style="fill:#262626;" transform="translate(1209.323961 575.09875)scale(0.28 -0.28)">
       <use xlink:href="#HelveticaWorld-Regular-35"/>
       <use x="55.615234" xlink:href="#HelveticaWorld-Regular-30"/>
       <use x="111.230469" xlink:href="#HelveticaWorld-Regular-30"/>
       <use x="166.845703" xlink:href="#HelveticaWorld-Regular-30"/>
      </g>
     </g>
    </g>
    <g id="xtick_8">
     <g id="text_8">
      <!-- 6000 -->
      <g style="fill:#262626;" transform="translate(1364.382745 575.09875)scale(0.28 -0.28)">
       <defs>
        <path d="M 903 1381 
Q 903 941 1165 662 
Q 1428 384 1850 384 
Q 2253 384 2492 668 
Q 2731 953 2731 1416 
Q 2731 1819 2495 2091 
Q 2259 2363 1825 2363 
Q 1403 2363 1153 2097 
Q 903 1831 903 1381 
z
M 2669 3303 
Q 2606 3647 2414 3820 
Q 2222 3994 1894 3994 
Q 1375 3994 1103 3487 
Q 831 2981 825 2328 
L 838 2316 
Q 1197 2869 1906 2869 
Q 2472 2869 2894 2494 
Q 3316 2119 3316 1441 
Q 3316 769 2916 323 
Q 2516 -122 1838 -122 
Q 1056 -122 650 434 
Q 244 991 244 2094 
Q 244 3156 659 3828 
Q 1075 4500 1906 4500 
Q 2444 4500 2816 4179 
Q 3188 3859 3219 3303 
L 2669 3303 
z
" id="HelveticaWorld-Regular-36" transform="scale(0.015625)"/>
       </defs>
       <use xlink:href="#HelveticaWorld-Regular-36"/>
       <use x="55.615234" xlink:href="#HelveticaWorld-Regular-30"/>
       <use x="111.230469" xlink:href="#HelveticaWorld-Regular-30"/>
       <use x="166.845703" xlink:href="#HelveticaWorld-Regular-30"/>
      </g>
     </g>
    </g>
    <g id="text_9">
     <!-- Number of Voxels -->
     <g style="fill:#262626;" transform="translate(815.243082 607.865625)scale(0.32 -0.32)">
      <defs>
       <path d="M 3559 4594 
L 4159 4594 
L 4159 0 
L 3469 0 
L 1125 3713 
L 1113 3713 
L 1113 0 
L 519 0 
L 519 4594 
L 1247 4594 
L 3547 884 
L 3559 884 
L 3559 4594 
z
" id="HelveticaWorld-Regular-4e" transform="scale(0.015625)"/>
       <path d="M 391 3347 
L 953 3347 
L 953 1125 
Q 953 756 1120 573 
Q 1288 391 1600 391 
Q 2034 391 2278 698 
Q 2522 1006 2522 1503 
L 2522 3347 
L 3084 3347 
L 3084 0 
L 2553 0 
L 2553 488 
L 2541 500 
Q 2222 -97 1478 -97 
Q 997 -97 694 165 
Q 391 428 391 941 
L 391 3347 
z
" id="HelveticaWorld-Regular-75" transform="scale(0.015625)"/>
       <path d="M 422 3347 
L 953 3347 
L 953 2875 
L 966 2875 
Q 1344 3444 1978 3444 
Q 2606 3444 2869 2900 
Q 3109 3194 3334 3319 
Q 3559 3444 3891 3444 
Q 4325 3444 4626 3159 
Q 4928 2875 4928 2316 
L 4928 0 
L 4366 0 
L 4366 2163 
Q 4366 2553 4219 2745 
Q 4072 2938 3744 2938 
Q 3413 2938 3184 2669 
Q 2956 2400 2956 2041 
L 2956 0 
L 2394 0 
L 2394 2316 
Q 2394 2606 2259 2772 
Q 2125 2938 1869 2938 
Q 1466 2938 1225 2638 
Q 984 2338 984 1825 
L 984 0 
L 422 0 
L 422 3347 
z
" id="HelveticaWorld-Regular-6d" transform="scale(0.015625)"/>
       <path d="M 2778 1684 
Q 2778 2356 2540 2647 
Q 2303 2938 1863 2938 
Q 1416 2931 1187 2589 
Q 959 2247 959 1600 
Q 959 941 1234 666 
Q 1509 391 1875 391 
Q 2291 391 2534 733 
Q 2778 1075 2778 1684 
z
M 422 0 
L 422 4594 
L 984 4594 
L 984 2925 
L 997 2925 
Q 1356 3444 1966 3444 
Q 2591 3444 2975 2980 
Q 3359 2516 3359 1772 
Q 3359 934 2971 418 
Q 2584 -97 1888 -97 
Q 1275 -97 966 416 
L 953 416 
L 953 0 
L 422 0 
z
" id="HelveticaWorld-Regular-62" transform="scale(0.015625)"/>
       <path d="M 2719 1941 
Q 2675 2484 2431 2711 
Q 2188 2938 1784 2938 
Q 1375 2938 1123 2650 
Q 872 2363 856 1941 
L 2719 1941 
z
M 3256 1050 
Q 3163 531 2747 191 
Q 2381 -97 1784 -103 
Q 1081 -97 668 358 
Q 256 813 256 1581 
Q 256 2463 681 2953 
Q 1106 3444 1863 3444 
Q 2541 3444 2922 2937 
Q 3303 2431 3303 1491 
L 856 1491 
Q 856 966 1100 678 
Q 1344 391 1831 391 
Q 2175 391 2422 598 
Q 2669 806 2694 1050 
L 3256 1050 
z
" id="HelveticaWorld-Regular-65" transform="scale(0.015625)"/>
       <path d="M 984 0 
L 422 0 
L 422 3347 
L 953 3347 
L 953 2791 
L 966 2791 
Q 1331 3444 1906 3444 
Q 1997 3444 2053 3425 
L 2053 2841 
L 1844 2841 
Q 1466 2841 1225 2584 
Q 984 2328 984 1947 
L 984 0 
z
" id="HelveticaWorld-Regular-72" transform="scale(0.015625)"/>
       <path id="HelveticaWorld-Regular-20" transform="scale(0.015625)"/>
       <path d="M 813 1678 
Q 813 1119 1066 758 
Q 1319 397 1784 397 
Q 2266 397 2516 775 
Q 2766 1153 2766 1678 
Q 2766 2209 2516 2579 
Q 2266 2950 1784 2950 
Q 1338 2950 1075 2601 
Q 813 2253 813 1678 
z
M 238 1678 
Q 238 2425 653 2934 
Q 1069 3444 1784 3444 
Q 2516 3444 2928 2928 
Q 3341 2413 3341 1678 
Q 3341 941 2931 422 
Q 2522 -97 1784 -97 
Q 1075 -97 656 406 
Q 238 909 238 1678 
z
" id="HelveticaWorld-Regular-6f" transform="scale(0.015625)"/>
       <path d="M 1100 2881 
L 1100 0 
L 538 0 
L 538 2881 
L 78 2881 
L 78 3347 
L 538 3347 
L 538 3922 
Q 538 4300 767 4479 
Q 997 4659 1409 4659 
Q 1550 4659 1663 4647 
L 1663 4141 
Q 1563 4153 1434 4153 
Q 1247 4153 1173 4061 
Q 1100 3969 1100 3763 
L 1100 3347 
L 1663 3347 
L 1663 2881 
L 1100 2881 
z
" id="HelveticaWorld-Regular-66" transform="scale(0.015625)"/>
       <path d="M 3413 4594 
L 4109 4594 
L 2425 0 
L 1772 0 
L 97 4594 
L 788 4594 
L 2100 678 
L 2113 678 
L 3413 4594 
z
" id="HelveticaWorld-Regular-56" transform="scale(0.015625)"/>
       <path d="M 3138 0 
L 2413 0 
L 1588 1259 
L 781 0 
L 72 0 
L 1241 1722 
L 128 3347 
L 844 3347 
L 1619 2169 
L 2400 3347 
L 3084 3347 
L 1959 1722 
L 3138 0 
z
" id="HelveticaWorld-Regular-78" transform="scale(0.015625)"/>
       <path d="M 984 0 
L 422 0 
L 422 4594 
L 984 4594 
L 984 0 
z
" id="HelveticaWorld-Regular-6c" transform="scale(0.015625)"/>
       <path d="M 2309 2394 
Q 2297 2694 2095 2825 
Q 1894 2956 1516 2956 
Q 1241 2956 1045 2834 
Q 850 2713 850 2484 
Q 850 2303 965 2217 
Q 1081 2131 1466 2034 
L 2022 1894 
Q 2528 1766 2745 1567 
Q 2963 1369 2963 1013 
Q 2963 519 2602 211 
Q 2241 -97 1638 -97 
Q 934 -97 573 195 
Q 213 488 206 1075 
L 750 1075 
Q 763 728 980 559 
Q 1197 391 1631 391 
Q 1984 391 2192 531 
Q 2400 672 2400 922 
Q 2400 1100 2265 1206 
Q 2131 1313 1734 1403 
L 1081 1563 
Q 684 1663 495 1861 
Q 306 2059 306 2375 
Q 306 2869 659 3156 
Q 1013 3444 1581 3444 
Q 2188 3444 2511 3148 
Q 2834 2853 2853 2394 
L 2309 2394 
z
" id="HelveticaWorld-Regular-73" transform="scale(0.015625)"/>
      </defs>
      <use xlink:href="#HelveticaWorld-Regular-4e"/>
      <use x="73.095703" xlink:href="#HelveticaWorld-Regular-75"/>
      <use x="127.880859" xlink:href="#HelveticaWorld-Regular-6d"/>
      <use x="210.888672" xlink:href="#HelveticaWorld-Regular-62"/>
      <use x="267.382812" xlink:href="#HelveticaWorld-Regular-65"/>
      <use x="322.802734" xlink:href="#HelveticaWorld-Regular-72"/>
      <use x="355.371094" xlink:href="#HelveticaWorld-Regular-20"/>
      <use x="379.785156" xlink:href="#HelveticaWorld-Regular-6f"/>
      <use x="435.693359" xlink:href="#HelveticaWorld-Regular-66"/>
      <use x="463.378906" xlink:href="#HelveticaWorld-Regular-20"/>
      <use x="482.792969" xlink:href="#HelveticaWorld-Regular-56"/>
      <use x="540.619141" xlink:href="#HelveticaWorld-Regular-6f"/>
      <use x="593.652344" xlink:href="#HelveticaWorld-Regular-78"/>
      <use x="640.402344" xlink:href="#HelveticaWorld-Regular-65"/>
      <use x="695.822266" xlink:href="#HelveticaWorld-Regular-6c"/>
      <use x="717.84375" xlink:href="#HelveticaWorld-Regular-73"/>
     </g>
    </g>
   </g>
   <g id="matplotlib.axis_2">
    <g id="ytick_1">
     <g id="text_10">
      <!-- 0.5 -->
      <g style="fill:#262626;" transform="translate(416.460233 558.049375)scale(0.28 -0.28)">
       <defs>
        <path d="M 1222 0 
L 556 0 
L 556 678 
L 1222 678 
L 1222 0 
z
" id="HelveticaWorld-Regular-2e" transform="scale(0.015625)"/>
       </defs>
       <use xlink:href="#HelveticaWorld-Regular-30"/>
       <use x="55.615234" xlink:href="#HelveticaWorld-Regular-2e"/>
       <use x="83.398438" xlink:href="#HelveticaWorld-Regular-35"/>
      </g>
     </g>
    </g>
    <g id="ytick_2">
     <g id="text_11">
      <!-- 0.6 -->
      <g style="fill:#262626;" transform="translate(416.460233 391.249375)scale(0.28 -0.28)">
       <use xlink:href="#HelveticaWorld-Regular-30"/>
       <use x="55.615234" xlink:href="#HelveticaWorld-Regular-2e"/>
       <use x="83.398438" xlink:href="#HelveticaWorld-Regular-36"/>
      </g>
     </g>
    </g>
    <g id="ytick_3">
     <g id="text_12">
      <!-- 0.7 -->
      <g style="fill:#262626;" transform="translate(416.460233 224.449375)scale(0.28 -0.28)">
       <defs>
        <path d="M 238 4403 
L 3347 4403 
L 3347 3909 
Q 2706 3256 2175 2143 
Q 1644 1031 1497 0 
L 878 0 
Q 972 850 1500 1954 
Q 2028 3059 2713 3853 
L 238 3853 
L 238 4403 
z
" id="HelveticaWorld-Regular-37" transform="scale(0.015625)"/>
       </defs>
       <use xlink:href="#HelveticaWorld-Regular-30"/>
       <use x="55.615234" xlink:href="#HelveticaWorld-Regular-2e"/>
       <use x="83.398438" xlink:href="#HelveticaWorld-Regular-37"/>
      </g>
     </g>
    </g>
    <g id="text_13">
     <!-- Decoding Accuracy (a.u.) -->
     <g style="fill:#262626;" transform="translate(405.415233 518.0275)rotate(-90)scale(0.32 -0.32)">
      <defs>
       <path d="M 1141 531 
L 2344 531 
Q 2969 531 3322 1011 
Q 3675 1491 3675 2322 
Q 3675 3144 3319 3600 
Q 2963 4056 2291 4063 
L 1141 4063 
L 1141 531 
z
M 519 4594 
L 2381 4594 
Q 3284 4594 3795 3973 
Q 4306 3353 4306 2363 
Q 4306 1300 3795 650 
Q 3284 0 2356 0 
L 519 0 
L 519 4594 
z
" id="HelveticaWorld-Regular-44" transform="scale(0.015625)"/>
       <path d="M 2534 2222 
Q 2413 2938 1741 2938 
Q 1325 2938 1072 2605 
Q 819 2272 819 1678 
Q 819 1031 1053 711 
Q 1288 391 1734 391 
Q 2034 391 2253 611 
Q 2472 831 2534 1184 
L 3078 1184 
Q 2994 563 2639 233 
Q 2284 -97 1722 -97 
Q 1063 -97 641 354 
Q 219 806 219 1581 
Q 219 2431 641 2937 
Q 1063 3444 1825 3444 
Q 2381 3444 2711 3111 
Q 3041 2778 3078 2222 
L 2534 2222 
z
" id="HelveticaWorld-Regular-63" transform="scale(0.015625)"/>
       <path d="M 838 1684 
Q 838 1063 1084 727 
Q 1331 391 1741 391 
Q 2131 391 2393 678 
Q 2656 966 2656 1516 
Q 2656 2222 2432 2580 
Q 2209 2938 1753 2938 
Q 1319 2938 1078 2653 
Q 838 2369 838 1684 
z
M 3225 0 
L 2694 0 
L 2694 459 
L 2681 459 
Q 2363 -97 1716 -97 
Q 1019 -97 637 434 
Q 256 966 256 1772 
Q 256 2516 634 2980 
Q 1013 3444 1650 3444 
Q 2278 3444 2650 2875 
L 2663 2913 
L 2663 4594 
L 3225 4594 
L 3225 0 
z
" id="HelveticaWorld-Regular-64" transform="scale(0.015625)"/>
       <path d="M 422 3956 
L 422 4594 
L 984 4594 
L 984 3956 
L 422 3956 
z
M 984 0 
L 422 0 
L 422 3347 
L 984 3347 
L 984 0 
z
" id="HelveticaWorld-Regular-69" transform="scale(0.015625)"/>
       <path d="M 3150 0 
L 2584 0 
L 2584 2059 
Q 2584 2534 2418 2736 
Q 2253 2938 1869 2938 
Q 1491 2938 1237 2650 
Q 984 2363 984 1825 
L 984 0 
L 422 0 
L 422 3347 
L 953 3347 
L 953 2875 
L 966 2875 
Q 1363 3444 1978 3444 
Q 2547 3444 2848 3142 
Q 3150 2841 3150 2278 
L 3150 0 
z
" id="HelveticaWorld-Regular-6e" transform="scale(0.015625)"/>
       <path d="M 831 1684 
Q 831 1069 1075 730 
Q 1319 391 1734 391 
Q 2138 391 2394 684 
Q 2650 978 2650 1516 
Q 2650 2222 2426 2580 
Q 2203 2938 1747 2938 
Q 1288 2938 1059 2633 
Q 831 2328 831 1684 
z
M 3188 191 
Q 3188 -616 2800 -1012 
Q 2413 -1409 1631 -1409 
Q 1069 -1409 736 -1150 
Q 403 -891 353 -409 
L 916 -409 
Q 959 -653 1142 -797 
Q 1325 -941 1672 -941 
Q 2144 -941 2384 -687 
Q 2625 -434 2625 134 
L 2625 372 
L 2613 372 
Q 2297 -97 1722 -97 
Q 1006 -97 628 431 
Q 250 959 250 1772 
Q 250 2516 631 2980 
Q 1013 3444 1644 3444 
Q 2278 3444 2644 2875 
L 2656 2875 
L 2656 3347 
L 3188 3347 
L 3188 191 
z
" id="HelveticaWorld-Regular-67" transform="scale(0.015625)"/>
       <path d="M 2816 1888 
L 2138 3909 
L 2125 3909 
L 1388 1888 
L 2816 1888 
z
M 1197 1338 
L 716 0 
L 78 0 
L 1806 4594 
L 2509 4594 
L 4172 0 
L 3494 0 
L 3041 1338 
L 1197 1338 
z
" id="HelveticaWorld-Regular-41" transform="scale(0.015625)"/>
       <path d="M 2456 1709 
Q 2394 1644 2211 1603 
Q 2028 1563 1528 1497 
Q 1159 1453 986 1315 
Q 813 1178 813 953 
Q 813 678 959 525 
Q 1106 372 1428 372 
Q 1831 372 2143 601 
Q 2456 831 2456 1159 
L 2456 1709 
z
M 397 2328 
Q 416 2894 764 3169 
Q 1113 3444 1778 3444 
Q 2309 3444 2668 3203 
Q 3028 2963 3028 2509 
L 3028 581 
Q 3028 384 3206 384 
Q 3278 384 3391 409 
L 3391 0 
Q 3238 -63 3072 -63 
Q 2784 -63 2643 60 
Q 2503 184 2497 447 
Q 2016 -97 1288 -97 
Q 813 -97 525 172 
Q 238 441 238 872 
Q 238 1313 488 1584 
Q 738 1856 1216 1913 
L 2209 2034 
Q 2478 2075 2478 2431 
Q 2478 2694 2283 2834 
Q 2088 2975 1691 2975 
Q 1338 2975 1148 2819 
Q 959 2663 922 2328 
L 397 2328 
z
" id="HelveticaWorld-Regular-61" transform="scale(0.015625)"/>
       <path d="M 2497 3347 
L 3109 3347 
L 1913 63 
Q 1881 -25 1850 -103 
Q 1578 -828 1381 -1098 
Q 1184 -1369 744 -1369 
Q 513 -1369 366 -1319 
L 366 -806 
Q 525 -863 716 -863 
Q 922 -863 1017 -733 
Q 1113 -603 1300 -97 
L 56 3347 
L 691 3347 
L 1588 622 
L 1600 622 
L 2497 3347 
z
" id="HelveticaWorld-Regular-79" transform="scale(0.015625)"/>
       <path d="M 1906 4691 
Q 1338 3675 1188 3037 
Q 1038 2400 1038 1631 
Q 1038 872 1242 215 
Q 1447 -441 1913 -1325 
L 1538 -1325 
Q 1006 -550 720 140 
Q 434 831 434 1672 
Q 434 2463 693 3180 
Q 953 3897 1516 4691 
L 1906 4691 
z
" id="HelveticaWorld-Regular-28" transform="scale(0.015625)"/>
       <path d="M 225 -1325 
Q 788 -306 938 330 
Q 1088 966 1088 1734 
Q 1088 2497 886 3153 
Q 684 3809 219 4691 
L 588 4691 
Q 1125 3916 1411 3225 
Q 1697 2534 1697 1697 
Q 1697 903 1437 186 
Q 1178 -531 616 -1325 
L 225 -1325 
z
" id="HelveticaWorld-Regular-29" transform="scale(0.015625)"/>
      </defs>
      <use xlink:href="#HelveticaWorld-Regular-44"/>
      <use x="72.021484" xlink:href="#HelveticaWorld-Regular-65"/>
      <use x="127.441406" xlink:href="#HelveticaWorld-Regular-63"/>
      <use x="178.710938" xlink:href="#HelveticaWorld-Regular-6f"/>
      <use x="234.619141" xlink:href="#HelveticaWorld-Regular-64"/>
      <use x="291.601562" xlink:href="#HelveticaWorld-Regular-69"/>
      <use x="313.623047" xlink:href="#HelveticaWorld-Regular-6e"/>
      <use x="368.798828" xlink:href="#HelveticaWorld-Regular-67"/>
      <use x="424.707031" xlink:href="#HelveticaWorld-Regular-20"/>
      <use x="449.121094" xlink:href="#HelveticaWorld-Regular-41"/>
      <use x="514.820312" xlink:href="#HelveticaWorld-Regular-63"/>
      <use x="566.089844" xlink:href="#HelveticaWorld-Regular-63"/>
      <use x="617.359375" xlink:href="#HelveticaWorld-Regular-75"/>
      <use x="672.144531" xlink:href="#HelveticaWorld-Regular-72"/>
      <use x="703.712891" xlink:href="#HelveticaWorld-Regular-61"/>
      <use x="758.644531" xlink:href="#HelveticaWorld-Regular-63"/>
      <use x="809.914062" xlink:href="#HelveticaWorld-Regular-79"/>
      <use x="859.523438" xlink:href="#HelveticaWorld-Regular-20"/>
      <use x="883.9375" xlink:href="#HelveticaWorld-Regular-28"/>
      <use x="917.238281" xlink:href="#HelveticaWorld-Regular-61"/>
      <use x="972.169922" xlink:href="#HelveticaWorld-Regular-2e"/>
      <use x="999.953125" xlink:href="#HelveticaWorld-Regular-75"/>
      <use x="1054.738281" xlink:href="#HelveticaWorld-Regular-2e"/>
      <use x="1082.521484" xlink:href="#HelveticaWorld-Regular-29"/>
     </g>
    </g>
   </g>
   <g id="PolyCollection_1">
    <defs>
     <path d="M 480.67717 -441.154545 
L 480.67717 -402.119013 
L 496.183048 -432.038312 
L 511.688926 -434.565584 
L 527.194805 -443.681818 
L 542.700683 -444.569974 
L 558.206562 -445.653091 
L 573.71244 -443.681818 
L 589.218318 -442.360416 
L 604.724197 -437.619974 
L 620.230075 -436.764312 
L 635.735954 -434.460883 
L 651.241832 -431.662831 
L 666.74771 -426.954883 
L 682.253589 -426.232805 
L 697.759467 -421.116883 
L 713.265346 -422.2 
L 728.771224 -420.921922 
L 744.277102 -417.325974 
L 759.782981 -414.513481 
L 775.288859 -411.610727 
L 790.794738 -405.501948 
L 806.300616 -404.570468 
L 821.806494 -397.876805 
L 837.312373 -394.670779 
L 852.818251 -391.136208 
L 868.32413 -386.276623 
L 883.830008 -382.214935 
L 899.335886 -379.582961 
L 914.841765 -374.813636 
L 930.347643 -372.723221 
L 945.853522 -370.300649 
L 961.3594 -370.195948 
L 976.865278 -367.683117 
L 992.371157 -366.13426 
L 1007.877035 -363.711688 
L 1023.382914 -361.531013 
L 1038.888792 -360.086857 
L 1054.394671 -359.288961 
L 1069.900549 -356.462026 
L 1085.406427 -355.469169 
L 1100.912306 -352.23426 
L 1116.418184 -353.588156 
L 1131.924063 -352.23426 
L 1147.429941 -351.512182 
L 1162.935819 -350.082468 
L 1178.441698 -350.172727 
L 1193.947576 -349.526468 
L 1209.453455 -349.436208 
L 1224.959333 -349.901948 
L 1240.465211 -349.136545 
L 1255.97109 -349.616727 
L 1271.476968 -349.450649 
L 1286.982847 -348.443351 
L 1302.488725 -349.631169 
L 1317.994603 -347.735714 
L 1333.500482 -349.345948 
L 1349.00636 -347.811532 
L 1364.512239 -347.992052 
L 1380.018117 -347.825974 
L 1395.523995 -348.338649 
L 1395.523995 -381.806961 
L 1395.523995 -381.806961 
L 1380.018117 -381.041558 
L 1364.512239 -381.492857 
L 1349.00636 -381.492857 
L 1333.500482 -379.868182 
L 1317.994603 -380.785221 
L 1302.488725 -380.770779 
L 1286.982847 -380.438623 
L 1271.476968 -379.626286 
L 1255.97109 -380.861039 
L 1240.465211 -380.514442 
L 1224.959333 -379.597403 
L 1209.453455 -379.431325 
L 1193.947576 -380.243662 
L 1178.441698 -380.333922 
L 1162.935819 -383.131974 
L 1147.429941 -382.695117 
L 1131.924063 -383.583273 
L 1116.418184 -384.471429 
L 1100.912306 -384.832468 
L 1085.406427 -386.742364 
L 1069.900549 -388.908597 
L 1054.394671 -392.067688 
L 1038.888792 -393.089429 
L 1023.382914 -394.414442 
L 1007.877035 -398.732468 
L 992.371157 -398.38587 
L 976.865278 -400.461844 
L 961.3594 -403.787013 
L 945.853522 -405.862987 
L 930.347643 -407.307143 
L 914.841765 -411.63961 
L 899.335886 -416.694156 
L 883.830008 -416.964935 
L 868.32413 -421.477922 
L 852.818251 -428.983922 
L 837.312373 -432.143013 
L 821.806494 -436.143325 
L 806.300616 -440.988468 
L 790.794738 -444.584416 
L 775.288859 -448.480026 
L 759.782981 -451.278078 
L 744.277102 -455.686364 
L 728.771224 -459.567532 
L 713.265346 -459.220935 
L 697.759467 -460.574831 
L 682.253589 -468.817351 
L 666.74771 -468.232468 
L 651.241832 -471.947558 
L 635.735954 -476.550805 
L 620.230075 -480.883273 
L 604.724197 -482.702909 
L 589.218318 -485.500961 
L 573.71244 -485.035221 
L 558.206562 -485.306 
L 542.700683 -484.493662 
L 527.194805 -483.576623 
L 511.688926 -476.265584 
L 496.183048 -472.113636 
L 480.67717 -441.154545 
z
" id="m0fa5b3c3d7" style="stroke:#1b9e77;stroke-opacity:0.2;"/>
    </defs>
    <g clip-path="url(#pdf38e20e5f)">
     <use style="fill:#1b9e77;fill-opacity:0.2;stroke:#1b9e77;stroke-opacity:0.2;" x="0" xlink:href="#m0fa5b3c3d7" y="720"/>
    </g>
   </g>
   <g id="PolyCollection_2">
    <defs>
     <path d="M 480.67717 -422.470779 
L 480.67717 -384.561688 
L 496.183048 -377.748883 
L 511.688926 -393.183299 
L 527.194805 -393.768182 
L 542.700683 -390.204727 
L 558.206562 -388.894156 
L 573.71244 -388.850831 
L 589.218318 -385.558156 
L 604.724197 -386.727922 
L 620.230075 -388.352597 
L 635.735954 -376.665766 
L 651.241832 -371.564286 
L 666.74771 -366.961039 
L 682.253589 -361.772909 
L 697.759467 -364.253247 
L 713.265346 -364.253247 
L 728.771224 -357.169662 
L 744.277102 -358.566883 
L 759.782981 -356.942208 
L 775.288859 -355.588312 
L 790.794738 -350.985065 
L 806.300616 -346.923377 
L 821.806494 -350.172727 
L 837.312373 -345.84026 
L 852.818251 -346.880052 
L 868.32413 -341.778571 
L 883.830008 -337.175325 
L 899.335886 -334.424208 
L 914.841765 -327.427273 
L 930.347643 -326.344156 
L 945.853522 -323.907143 
L 961.3594 -318.719013 
L 976.865278 -317.635896 
L 992.371157 -318.220779 
L 1007.877035 -313.844987 
L 1023.382914 -312.534416 
L 1038.888792 -307.931169 
L 1054.394671 -306.306494 
L 1069.900549 -302.786364 
L 1085.406427 -306.848052 
L 1100.912306 -303.327922 
L 1116.418184 -301.703247 
L 1131.924063 -299.493688 
L 1147.429941 -301.703247 
L 1162.935819 -299.266234 
L 1178.441698 -299.807792 
L 1193.947576 -297.641558 
L 1209.453455 -298.995455 
L 1224.959333 -298.724675 
L 1240.465211 -297.641558 
L 1255.97109 -298.453896 
L 1271.476968 -298.453896 
L 1286.982847 -297.641558 
L 1302.488725 -298.183117 
L 1317.994603 -297.912338 
L 1333.500482 -296.016883 
L 1349.00636 -297.641558 
L 1364.512239 -297.056675 
L 1380.018117 -297.912338 
L 1395.523995 -298.183117 
L 1395.523995 -336.362987 
L 1395.523995 -336.362987 
L 1380.018117 -337.175325 
L 1364.512239 -337.987662 
L 1349.00636 -337.716883 
L 1333.500482 -336.633766 
L 1317.994603 -339.070779 
L 1302.488725 -336.94787 
L 1286.982847 -336.633766 
L 1271.476968 -337.760208 
L 1255.97109 -339.341558 
L 1240.465211 -335.821429 
L 1224.959333 -338.8 
L 1209.453455 -341.009558 
L 1193.947576 -339.341558 
L 1178.441698 -338.843325 
L 1162.935819 -339.070779 
L 1147.429941 -341.009558 
L 1131.924063 -338.258442 
L 1116.418184 -341.280338 
L 1100.912306 -341.551117 
L 1085.406427 -345.298701 
L 1069.900549 -345.298701 
L 1054.394671 -347.50826 
L 1038.888792 -346.111039 
L 1023.382914 -348.818831 
L 1007.877035 -354.234416 
L 992.371157 -356.400649 
L 976.865278 -355.588312 
L 961.3594 -356.400649 
L 945.853522 -362.628571 
L 930.347643 -367.231818 
L 914.841765 -369.398052 
L 899.335886 -377.023195 
L 883.830008 -376.709091 
L 868.32413 -382.395455 
L 852.818251 -387.854364 
L 837.312373 -388.623377 
L 821.806494 -391.103714 
L 806.300616 -392.414286 
L 790.794738 -390.518831 
L 775.288859 -397.017532 
L 759.782981 -398.100649 
L 744.277102 -398.371429 
L 728.771224 -397.559091 
L 713.265346 -404.642675 
L 697.759467 -404.87013 
L 682.253589 -406.267351 
L 666.74771 -408.162805 
L 651.241832 -413.57839 
L 635.735954 -418.409091 
L 620.230075 -429.781818 
L 604.724197 -427.615584 
L 589.218318 -426.803247 
L 573.71244 -431.179039 
L 558.206562 -433.031169 
L 542.700683 -431.991377 
L 527.194805 -435.468182 
L 511.688926 -432.218831 
L 496.183048 -415.701299 
L 480.67717 -422.470779 
z
" id="m5fc86c3113" style="stroke:#d95f02;stroke-opacity:0.2;"/>
    </defs>
    <g clip-path="url(#pdf38e20e5f)">
     <use style="fill:#d95f02;fill-opacity:0.2;stroke:#d95f02;stroke-opacity:0.2;" x="0" xlink:href="#m5fc86c3113" y="720"/>
    </g>
   </g>
   <g id="PathCollection_1">
    <defs>
     <path d="M 0 -6.708204 
L 0 0 
L -5.809475 -3.354102 
L 0 0 
L -5.809475 3.354102 
L 0 0 
L -0 6.708204 
L 0 0 
L 5.809475 3.354102 
L 0 0 
L 5.809475 -3.354102 
L 0 0 
z
" id="m7c30a42ff6" style="stroke:#000000;stroke-width:2;"/>
    </defs>
    <g clip-path="url(#pdf38e20e5f)">
     <use style="stroke:#000000;stroke-width:2;" x="496.183048" xlink:href="#m7c30a42ff6" y="514.64"/>
    </g>
   </g>
   <g id="PathCollection_2">
    <g clip-path="url(#pdf38e20e5f)">
     <use style="stroke:#000000;stroke-width:2;" x="682.253589" xlink:href="#m7c30a42ff6" y="514.64"/>
    </g>
   </g>
   <g id="PathCollection_3">
    <g clip-path="url(#pdf38e20e5f)">
     <use style="stroke:#000000;stroke-width:2;" x="728.771224" xlink:href="#m7c30a42ff6" y="514.64"/>
    </g>
   </g>
   <g id="PathCollection_4">
    <g clip-path="url(#pdf38e20e5f)">
     <use style="stroke:#000000;stroke-width:2;" x="744.277102" xlink:href="#m7c30a42ff6" y="514.64"/>
    </g>
   </g>
   <g id="PathCollection_5">
    <g clip-path="url(#pdf38e20e5f)">
     <use style="stroke:#000000;stroke-width:2;" x="790.794738" xlink:href="#m7c30a42ff6" y="514.64"/>
    </g>
   </g>
   <g id="line2d_1">
    <path clip-path="url(#pdf38e20e5f)" d="M 480.67717 299.063636 
L 496.183048 268.104545 
L 511.688926 264.042857 
L 527.194805 257.273377 
L 542.700683 257.092857 
L 558.206562 253.662987 
L 573.71244 255.558442 
L 589.218318 255.919481 
L 604.724197 259.168831 
L 620.230075 261.605844 
L 635.735954 265.306494 
L 651.241832 268.375325 
L 666.74771 273.33961 
L 682.253589 274.061688 
L 697.759467 279.477273 
L 713.265346 278.845455 
L 728.771224 280.47013 
L 744.277102 284.170779 
L 759.782981 287.600649 
L 775.288859 291.301299 
L 790.794738 293.648052 
L 806.300616 297.70974 
L 821.806494 303.305844 
L 837.312373 306.374675 
L 852.818251 309.624026 
L 868.32413 316.122727 
L 883.830008 319.913636 
L 899.335886 322.350649 
L 914.841765 326.863636 
L 930.347643 329.571429 
L 945.853522 332.64026 
L 961.3594 333.903896 
L 976.865278 335.97987 
L 992.371157 337.965584 
L 1007.877035 339.138961 
L 1023.382914 342.027273 
L 1038.888792 343.922727 
L 1054.394671 345.005844 
L 1069.900549 347.894156 
L 1085.406427 348.706494 
L 1100.912306 351.053247 
L 1116.418184 351.143506 
L 1131.924063 352.587662 
L 1147.429941 353.038961 
L 1162.935819 353.49026 
L 1178.441698 354.753896 
L 1193.947576 354.844156 
L 1209.453455 354.934416 
L 1224.959333 355.205195 
L 1240.465211 354.934416 
L 1255.97109 355.114935 
L 1271.476968 354.844156 
L 1286.982847 355.024675 
L 1302.488725 354.934416 
L 1317.994603 355.205195 
L 1333.500482 355.205195 
L 1349.00636 355.205195 
L 1364.512239 355.205195 
L 1380.018117 355.205195 
L 1395.523995 355.205195 
" style="fill:none;stroke:#1b9e77;stroke-linecap:round;stroke-width:1.5;"/>
    <defs>
     <path d="M 0 5 
C 1.326016 5 2.597899 4.473168 3.535534 3.535534 
C 4.473168 2.597899 5 1.326016 5 0 
C 5 -1.326016 4.473168 -2.597899 3.535534 -3.535534 
C 2.597899 -4.473168 1.326016 -5 0 -5 
C -1.326016 -5 -2.597899 -4.473168 -3.535534 -3.535534 
C -4.473168 -2.597899 -5 -1.326016 -5 0 
C -5 1.326016 -4.473168 2.597899 -3.535534 3.535534 
C -2.597899 4.473168 -1.326016 5 0 5 
z
" id="mff41df2c9f" style="stroke:#000000;stroke-opacity:0;stroke-width:0.75;"/>
    </defs>
    <g clip-path="url(#pdf38e20e5f)">
     <use style="fill:#1b9e77;stroke:#000000;stroke-opacity:0;stroke-width:0.75;" x="480.67717" xlink:href="#mff41df2c9f" y="299.063636"/>
     <use style="fill:#1b9e77;stroke:#000000;stroke-opacity:0;stroke-width:0.75;" x="496.183048" xlink:href="#mff41df2c9f" y="268.104545"/>
     <use style="fill:#1b9e77;stroke:#000000;stroke-opacity:0;stroke-width:0.75;" x="511.688926" xlink:href="#mff41df2c9f" y="264.042857"/>
     <use style="fill:#1b9e77;stroke:#000000;stroke-opacity:0;stroke-width:0.75;" x="527.194805" xlink:href="#mff41df2c9f" y="257.273377"/>
     <use style="fill:#1b9e77;stroke:#000000;stroke-opacity:0;stroke-width:0.75;" x="542.700683" xlink:href="#mff41df2c9f" y="257.092857"/>
     <use style="fill:#1b9e77;stroke:#000000;stroke-opacity:0;stroke-width:0.75;" x="558.206562" xlink:href="#mff41df2c9f" y="253.662987"/>
     <use style="fill:#1b9e77;stroke:#000000;stroke-opacity:0;stroke-width:0.75;" x="573.71244" xlink:href="#mff41df2c9f" y="255.558442"/>
     <use style="fill:#1b9e77;stroke:#000000;stroke-opacity:0;stroke-width:0.75;" x="589.218318" xlink:href="#mff41df2c9f" y="255.919481"/>
     <use style="fill:#1b9e77;stroke:#000000;stroke-opacity:0;stroke-width:0.75;" x="604.724197" xlink:href="#mff41df2c9f" y="259.168831"/>
     <use style="fill:#1b9e77;stroke:#000000;stroke-opacity:0;stroke-width:0.75;" x="620.230075" xlink:href="#mff41df2c9f" y="261.605844"/>
     <use style="fill:#1b9e77;stroke:#000000;stroke-opacity:0;stroke-width:0.75;" x="635.735954" xlink:href="#mff41df2c9f" y="265.306494"/>
     <use style="fill:#1b9e77;stroke:#000000;stroke-opacity:0;stroke-width:0.75;" x="651.241832" xlink:href="#mff41df2c9f" y="268.375325"/>
     <use style="fill:#1b9e77;stroke:#000000;stroke-opacity:0;stroke-width:0.75;" x="666.74771" xlink:href="#mff41df2c9f" y="273.33961"/>
     <use style="fill:#1b9e77;stroke:#000000;stroke-opacity:0;stroke-width:0.75;" x="682.253589" xlink:href="#mff41df2c9f" y="274.061688"/>
     <use style="fill:#1b9e77;stroke:#000000;stroke-opacity:0;stroke-width:0.75;" x="697.759467" xlink:href="#mff41df2c9f" y="279.477273"/>
     <use style="fill:#1b9e77;stroke:#000000;stroke-opacity:0;stroke-width:0.75;" x="713.265346" xlink:href="#mff41df2c9f" y="278.845455"/>
     <use style="fill:#1b9e77;stroke:#000000;stroke-opacity:0;stroke-width:0.75;" x="728.771224" xlink:href="#mff41df2c9f" y="280.47013"/>
     <use style="fill:#1b9e77;stroke:#000000;stroke-opacity:0;stroke-width:0.75;" x="744.277102" xlink:href="#mff41df2c9f" y="284.170779"/>
     <use style="fill:#1b9e77;stroke:#000000;stroke-opacity:0;stroke-width:0.75;" x="759.782981" xlink:href="#mff41df2c9f" y="287.600649"/>
     <use style="fill:#1b9e77;stroke:#000000;stroke-opacity:0;stroke-width:0.75;" x="775.288859" xlink:href="#mff41df2c9f" y="291.301299"/>
     <use style="fill:#1b9e77;stroke:#000000;stroke-opacity:0;stroke-width:0.75;" x="790.794738" xlink:href="#mff41df2c9f" y="293.648052"/>
     <use style="fill:#1b9e77;stroke:#000000;stroke-opacity:0;stroke-width:0.75;" x="806.300616" xlink:href="#mff41df2c9f" y="297.70974"/>
     <use style="fill:#1b9e77;stroke:#000000;stroke-opacity:0;stroke-width:0.75;" x="821.806494" xlink:href="#mff41df2c9f" y="303.305844"/>
     <use style="fill:#1b9e77;stroke:#000000;stroke-opacity:0;stroke-width:0.75;" x="837.312373" xlink:href="#mff41df2c9f" y="306.374675"/>
     <use style="fill:#1b9e77;stroke:#000000;stroke-opacity:0;stroke-width:0.75;" x="852.818251" xlink:href="#mff41df2c9f" y="309.624026"/>
     <use style="fill:#1b9e77;stroke:#000000;stroke-opacity:0;stroke-width:0.75;" x="868.32413" xlink:href="#mff41df2c9f" y="316.122727"/>
     <use style="fill:#1b9e77;stroke:#000000;stroke-opacity:0;stroke-width:0.75;" x="883.830008" xlink:href="#mff41df2c9f" y="319.913636"/>
     <use style="fill:#1b9e77;stroke:#000000;stroke-opacity:0;stroke-width:0.75;" x="899.335886" xlink:href="#mff41df2c9f" y="322.350649"/>
     <use style="fill:#1b9e77;stroke:#000000;stroke-opacity:0;stroke-width:0.75;" x="914.841765" xlink:href="#mff41df2c9f" y="326.863636"/>
     <use style="fill:#1b9e77;stroke:#000000;stroke-opacity:0;stroke-width:0.75;" x="930.347643" xlink:href="#mff41df2c9f" y="329.571429"/>
     <use style="fill:#1b9e77;stroke:#000000;stroke-opacity:0;stroke-width:0.75;" x="945.853522" xlink:href="#mff41df2c9f" y="332.64026"/>
     <use style="fill:#1b9e77;stroke:#000000;stroke-opacity:0;stroke-width:0.75;" x="961.3594" xlink:href="#mff41df2c9f" y="333.903896"/>
     <use style="fill:#1b9e77;stroke:#000000;stroke-opacity:0;stroke-width:0.75;" x="976.865278" xlink:href="#mff41df2c9f" y="335.97987"/>
     <use style="fill:#1b9e77;stroke:#000000;stroke-opacity:0;stroke-width:0.75;" x="992.371157" xlink:href="#mff41df2c9f" y="337.965584"/>
     <use style="fill:#1b9e77;stroke:#000000;stroke-opacity:0;stroke-width:0.75;" x="1007.877035" xlink:href="#mff41df2c9f" y="339.138961"/>
     <use style="fill:#1b9e77;stroke:#000000;stroke-opacity:0;stroke-width:0.75;" x="1023.382914" xlink:href="#mff41df2c9f" y="342.027273"/>
     <use style="fill:#1b9e77;stroke:#000000;stroke-opacity:0;stroke-width:0.75;" x="1038.888792" xlink:href="#mff41df2c9f" y="343.922727"/>
     <use style="fill:#1b9e77;stroke:#000000;stroke-opacity:0;stroke-width:0.75;" x="1054.394671" xlink:href="#mff41df2c9f" y="345.005844"/>
     <use style="fill:#1b9e77;stroke:#000000;stroke-opacity:0;stroke-width:0.75;" x="1069.900549" xlink:href="#mff41df2c9f" y="347.894156"/>
     <use style="fill:#1b9e77;stroke:#000000;stroke-opacity:0;stroke-width:0.75;" x="1085.406427" xlink:href="#mff41df2c9f" y="348.706494"/>
     <use style="fill:#1b9e77;stroke:#000000;stroke-opacity:0;stroke-width:0.75;" x="1100.912306" xlink:href="#mff41df2c9f" y="351.053247"/>
     <use style="fill:#1b9e77;stroke:#000000;stroke-opacity:0;stroke-width:0.75;" x="1116.418184" xlink:href="#mff41df2c9f" y="351.143506"/>
     <use style="fill:#1b9e77;stroke:#000000;stroke-opacity:0;stroke-width:0.75;" x="1131.924063" xlink:href="#mff41df2c9f" y="352.587662"/>
     <use style="fill:#1b9e77;stroke:#000000;stroke-opacity:0;stroke-width:0.75;" x="1147.429941" xlink:href="#mff41df2c9f" y="353.038961"/>
     <use style="fill:#1b9e77;stroke:#000000;stroke-opacity:0;stroke-width:0.75;" x="1162.935819" xlink:href="#mff41df2c9f" y="353.49026"/>
     <use style="fill:#1b9e77;stroke:#000000;stroke-opacity:0;stroke-width:0.75;" x="1178.441698" xlink:href="#mff41df2c9f" y="354.753896"/>
     <use style="fill:#1b9e77;stroke:#000000;stroke-opacity:0;stroke-width:0.75;" x="1193.947576" xlink:href="#mff41df2c9f" y="354.844156"/>
     <use style="fill:#1b9e77;stroke:#000000;stroke-opacity:0;stroke-width:0.75;" x="1209.453455" xlink:href="#mff41df2c9f" y="354.934416"/>
     <use style="fill:#1b9e77;stroke:#000000;stroke-opacity:0;stroke-width:0.75;" x="1224.959333" xlink:href="#mff41df2c9f" y="355.205195"/>
     <use style="fill:#1b9e77;stroke:#000000;stroke-opacity:0;stroke-width:0.75;" x="1240.465211" xlink:href="#mff41df2c9f" y="354.934416"/>
     <use style="fill:#1b9e77;stroke:#000000;stroke-opacity:0;stroke-width:0.75;" x="1255.97109" xlink:href="#mff41df2c9f" y="355.114935"/>
     <use style="fill:#1b9e77;stroke:#000000;stroke-opacity:0;stroke-width:0.75;" x="1271.476968" xlink:href="#mff41df2c9f" y="354.844156"/>
     <use style="fill:#1b9e77;stroke:#000000;stroke-opacity:0;stroke-width:0.75;" x="1286.982847" xlink:href="#mff41df2c9f" y="355.024675"/>
     <use style="fill:#1b9e77;stroke:#000000;stroke-opacity:0;stroke-width:0.75;" x="1302.488725" xlink:href="#mff41df2c9f" y="354.934416"/>
     <use style="fill:#1b9e77;stroke:#000000;stroke-opacity:0;stroke-width:0.75;" x="1317.994603" xlink:href="#mff41df2c9f" y="355.205195"/>
     <use style="fill:#1b9e77;stroke:#000000;stroke-opacity:0;stroke-width:0.75;" x="1333.500482" xlink:href="#mff41df2c9f" y="355.205195"/>
     <use style="fill:#1b9e77;stroke:#000000;stroke-opacity:0;stroke-width:0.75;" x="1349.00636" xlink:href="#mff41df2c9f" y="355.205195"/>
     <use style="fill:#1b9e77;stroke:#000000;stroke-opacity:0;stroke-width:0.75;" x="1364.512239" xlink:href="#mff41df2c9f" y="355.205195"/>
     <use style="fill:#1b9e77;stroke:#000000;stroke-opacity:0;stroke-width:0.75;" x="1380.018117" xlink:href="#mff41df2c9f" y="355.205195"/>
     <use style="fill:#1b9e77;stroke:#000000;stroke-opacity:0;stroke-width:0.75;" x="1395.523995" xlink:href="#mff41df2c9f" y="355.205195"/>
    </g>
   </g>
   <g id="line2d_2">
    <path clip-path="url(#pdf38e20e5f)" d="M 480.67717 316.212987 
L 496.183048 322.982468 
L 511.688926 307.006494 
L 527.194805 306.735714 
L 542.700683 308.901948 
L 558.206562 308.901948 
L 573.71244 310.255844 
L 589.218318 313.234416 
L 604.724197 313.505195 
L 620.230075 312.963636 
L 635.735954 322.17013 
L 651.241832 326.773377 
L 666.74771 331.918182 
L 682.253589 336.521429 
L 697.759467 335.167532 
L 713.265346 335.438312 
L 728.771224 341.937013 
L 744.277102 341.937013 
L 759.782981 341.124675 
L 775.288859 344.103247 
L 790.794738 349.518831 
L 806.300616 350.331169 
L 821.806494 349.78961 
L 837.312373 351.414286 
L 852.818251 353.038961 
L 868.32413 358.454545 
L 883.830008 361.974675 
L 899.335886 365.494805 
L 914.841765 370.098052 
L 930.347643 372.805844 
L 945.853522 376.055195 
L 961.3594 381.741558 
L 976.865278 383.095455 
L 992.371157 383.907792 
L 1007.877035 386.344805 
L 1023.382914 388.781818 
L 1038.888792 393.655844 
L 1054.394671 393.385065 
L 1069.900549 395.822078 
L 1085.406427 395.00974 
L 1100.912306 397.717532 
L 1116.418184 399.071429 
L 1131.924063 399.612987 
L 1147.429941 399.883766 
L 1162.935819 400.696104 
L 1178.441698 400.696104 
L 1193.947576 402.320779 
L 1209.453455 400.425325 
L 1224.959333 401.237662 
L 1240.465211 402.862338 
L 1255.97109 402.05 
L 1271.476968 402.05 
L 1286.982847 402.320779 
L 1302.488725 402.320779 
L 1317.994603 402.320779 
L 1333.500482 402.320779 
L 1349.00636 402.320779 
L 1364.512239 402.320779 
L 1380.018117 402.320779 
L 1395.523995 402.320779 
" style="fill:none;stroke:#d95f02;stroke-linecap:round;stroke-width:1.5;"/>
    <defs>
     <path d="M 0 5 
C 1.326016 5 2.597899 4.473168 3.535534 3.535534 
C 4.473168 2.597899 5 1.326016 5 0 
C 5 -1.326016 4.473168 -2.597899 3.535534 -3.535534 
C 2.597899 -4.473168 1.326016 -5 0 -5 
C -1.326016 -5 -2.597899 -4.473168 -3.535534 -3.535534 
C -4.473168 -2.597899 -5 -1.326016 -5 0 
C -5 1.326016 -4.473168 2.597899 -3.535534 3.535534 
C -2.597899 4.473168 -1.326016 5 0 5 
z
" id="mc62da6053b" style="stroke:#000000;stroke-opacity:0;stroke-width:0.75;"/>
    </defs>
    <g clip-path="url(#pdf38e20e5f)">
     <use style="fill:#d95f02;stroke:#000000;stroke-opacity:0;stroke-width:0.75;" x="480.67717" xlink:href="#mc62da6053b" y="316.212987"/>
     <use style="fill:#d95f02;stroke:#000000;stroke-opacity:0;stroke-width:0.75;" x="496.183048" xlink:href="#mc62da6053b" y="322.982468"/>
     <use style="fill:#d95f02;stroke:#000000;stroke-opacity:0;stroke-width:0.75;" x="511.688926" xlink:href="#mc62da6053b" y="307.006494"/>
     <use style="fill:#d95f02;stroke:#000000;stroke-opacity:0;stroke-width:0.75;" x="527.194805" xlink:href="#mc62da6053b" y="306.735714"/>
     <use style="fill:#d95f02;stroke:#000000;stroke-opacity:0;stroke-width:0.75;" x="542.700683" xlink:href="#mc62da6053b" y="308.901948"/>
     <use style="fill:#d95f02;stroke:#000000;stroke-opacity:0;stroke-width:0.75;" x="558.206562" xlink:href="#mc62da6053b" y="308.901948"/>
     <use style="fill:#d95f02;stroke:#000000;stroke-opacity:0;stroke-width:0.75;" x="573.71244" xlink:href="#mc62da6053b" y="310.255844"/>
     <use style="fill:#d95f02;stroke:#000000;stroke-opacity:0;stroke-width:0.75;" x="589.218318" xlink:href="#mc62da6053b" y="313.234416"/>
     <use style="fill:#d95f02;stroke:#000000;stroke-opacity:0;stroke-width:0.75;" x="604.724197" xlink:href="#mc62da6053b" y="313.505195"/>
     <use style="fill:#d95f02;stroke:#000000;stroke-opacity:0;stroke-width:0.75;" x="620.230075" xlink:href="#mc62da6053b" y="312.963636"/>
     <use style="fill:#d95f02;stroke:#000000;stroke-opacity:0;stroke-width:0.75;" x="635.735954" xlink:href="#mc62da6053b" y="322.17013"/>
     <use style="fill:#d95f02;stroke:#000000;stroke-opacity:0;stroke-width:0.75;" x="651.241832" xlink:href="#mc62da6053b" y="326.773377"/>
     <use style="fill:#d95f02;stroke:#000000;stroke-opacity:0;stroke-width:0.75;" x="666.74771" xlink:href="#mc62da6053b" y="331.918182"/>
     <use style="fill:#d95f02;stroke:#000000;stroke-opacity:0;stroke-width:0.75;" x="682.253589" xlink:href="#mc62da6053b" y="336.521429"/>
     <use style="fill:#d95f02;stroke:#000000;stroke-opacity:0;stroke-width:0.75;" x="697.759467" xlink:href="#mc62da6053b" y="335.167532"/>
     <use style="fill:#d95f02;stroke:#000000;stroke-opacity:0;stroke-width:0.75;" x="713.265346" xlink:href="#mc62da6053b" y="335.438312"/>
     <use style="fill:#d95f02;stroke:#000000;stroke-opacity:0;stroke-width:0.75;" x="728.771224" xlink:href="#mc62da6053b" y="341.937013"/>
     <use style="fill:#d95f02;stroke:#000000;stroke-opacity:0;stroke-width:0.75;" x="744.277102" xlink:href="#mc62da6053b" y="341.937013"/>
     <use style="fill:#d95f02;stroke:#000000;stroke-opacity:0;stroke-width:0.75;" x="759.782981" xlink:href="#mc62da6053b" y="341.124675"/>
     <use style="fill:#d95f02;stroke:#000000;stroke-opacity:0;stroke-width:0.75;" x="775.288859" xlink:href="#mc62da6053b" y="344.103247"/>
     <use style="fill:#d95f02;stroke:#000000;stroke-opacity:0;stroke-width:0.75;" x="790.794738" xlink:href="#mc62da6053b" y="349.518831"/>
     <use style="fill:#d95f02;stroke:#000000;stroke-opacity:0;stroke-width:0.75;" x="806.300616" xlink:href="#mc62da6053b" y="350.331169"/>
     <use style="fill:#d95f02;stroke:#000000;stroke-opacity:0;stroke-width:0.75;" x="821.806494" xlink:href="#mc62da6053b" y="349.78961"/>
     <use style="fill:#d95f02;stroke:#000000;stroke-opacity:0;stroke-width:0.75;" x="837.312373" xlink:href="#mc62da6053b" y="351.414286"/>
     <use style="fill:#d95f02;stroke:#000000;stroke-opacity:0;stroke-width:0.75;" x="852.818251" xlink:href="#mc62da6053b" y="353.038961"/>
     <use style="fill:#d95f02;stroke:#000000;stroke-opacity:0;stroke-width:0.75;" x="868.32413" xlink:href="#mc62da6053b" y="358.454545"/>
     <use style="fill:#d95f02;stroke:#000000;stroke-opacity:0;stroke-width:0.75;" x="883.830008" xlink:href="#mc62da6053b" y="361.974675"/>
     <use style="fill:#d95f02;stroke:#000000;stroke-opacity:0;stroke-width:0.75;" x="899.335886" xlink:href="#mc62da6053b" y="365.494805"/>
     <use style="fill:#d95f02;stroke:#000000;stroke-opacity:0;stroke-width:0.75;" x="914.841765" xlink:href="#mc62da6053b" y="370.098052"/>
     <use style="fill:#d95f02;stroke:#000000;stroke-opacity:0;stroke-width:0.75;" x="930.347643" xlink:href="#mc62da6053b" y="372.805844"/>
     <use style="fill:#d95f02;stroke:#000000;stroke-opacity:0;stroke-width:0.75;" x="945.853522" xlink:href="#mc62da6053b" y="376.055195"/>
     <use style="fill:#d95f02;stroke:#000000;stroke-opacity:0;stroke-width:0.75;" x="961.3594" xlink:href="#mc62da6053b" y="381.741558"/>
     <use style="fill:#d95f02;stroke:#000000;stroke-opacity:0;stroke-width:0.75;" x="976.865278" xlink:href="#mc62da6053b" y="383.095455"/>
     <use style="fill:#d95f02;stroke:#000000;stroke-opacity:0;stroke-width:0.75;" x="992.371157" xlink:href="#mc62da6053b" y="383.907792"/>
     <use style="fill:#d95f02;stroke:#000000;stroke-opacity:0;stroke-width:0.75;" x="1007.877035" xlink:href="#mc62da6053b" y="386.344805"/>
     <use style="fill:#d95f02;stroke:#000000;stroke-opacity:0;stroke-width:0.75;" x="1023.382914" xlink:href="#mc62da6053b" y="388.781818"/>
     <use style="fill:#d95f02;stroke:#000000;stroke-opacity:0;stroke-width:0.75;" x="1038.888792" xlink:href="#mc62da6053b" y="393.655844"/>
     <use style="fill:#d95f02;stroke:#000000;stroke-opacity:0;stroke-width:0.75;" x="1054.394671" xlink:href="#mc62da6053b" y="393.385065"/>
     <use style="fill:#d95f02;stroke:#000000;stroke-opacity:0;stroke-width:0.75;" x="1069.900549" xlink:href="#mc62da6053b" y="395.822078"/>
     <use style="fill:#d95f02;stroke:#000000;stroke-opacity:0;stroke-width:0.75;" x="1085.406427" xlink:href="#mc62da6053b" y="395.00974"/>
     <use style="fill:#d95f02;stroke:#000000;stroke-opacity:0;stroke-width:0.75;" x="1100.912306" xlink:href="#mc62da6053b" y="397.717532"/>
     <use style="fill:#d95f02;stroke:#000000;stroke-opacity:0;stroke-width:0.75;" x="1116.418184" xlink:href="#mc62da6053b" y="399.071429"/>
     <use style="fill:#d95f02;stroke:#000000;stroke-opacity:0;stroke-width:0.75;" x="1131.924063" xlink:href="#mc62da6053b" y="399.612987"/>
     <use style="fill:#d95f02;stroke:#000000;stroke-opacity:0;stroke-width:0.75;" x="1147.429941" xlink:href="#mc62da6053b" y="399.883766"/>
     <use style="fill:#d95f02;stroke:#000000;stroke-opacity:0;stroke-width:0.75;" x="1162.935819" xlink:href="#mc62da6053b" y="400.696104"/>
     <use style="fill:#d95f02;stroke:#000000;stroke-opacity:0;stroke-width:0.75;" x="1178.441698" xlink:href="#mc62da6053b" y="400.696104"/>
     <use style="fill:#d95f02;stroke:#000000;stroke-opacity:0;stroke-width:0.75;" x="1193.947576" xlink:href="#mc62da6053b" y="402.320779"/>
     <use style="fill:#d95f02;stroke:#000000;stroke-opacity:0;stroke-width:0.75;" x="1209.453455" xlink:href="#mc62da6053b" y="400.425325"/>
     <use style="fill:#d95f02;stroke:#000000;stroke-opacity:0;stroke-width:0.75;" x="1224.959333" xlink:href="#mc62da6053b" y="401.237662"/>
     <use style="fill:#d95f02;stroke:#000000;stroke-opacity:0;stroke-width:0.75;" x="1240.465211" xlink:href="#mc62da6053b" y="402.862338"/>
     <use style="fill:#d95f02;stroke:#000000;stroke-opacity:0;stroke-width:0.75;" x="1255.97109" xlink:href="#mc62da6053b" y="402.05"/>
     <use style="fill:#d95f02;stroke:#000000;stroke-opacity:0;stroke-width:0.75;" x="1271.476968" xlink:href="#mc62da6053b" y="402.05"/>
     <use style="fill:#d95f02;stroke:#000000;stroke-opacity:0;stroke-width:0.75;" x="1286.982847" xlink:href="#mc62da6053b" y="402.320779"/>
     <use style="fill:#d95f02;stroke:#000000;stroke-opacity:0;stroke-width:0.75;" x="1302.488725" xlink:href="#mc62da6053b" y="402.320779"/>
     <use style="fill:#d95f02;stroke:#000000;stroke-opacity:0;stroke-width:0.75;" x="1317.994603" xlink:href="#mc62da6053b" y="402.320779"/>
     <use style="fill:#d95f02;stroke:#000000;stroke-opacity:0;stroke-width:0.75;" x="1333.500482" xlink:href="#mc62da6053b" y="402.320779"/>
     <use style="fill:#d95f02;stroke:#000000;stroke-opacity:0;stroke-width:0.75;" x="1349.00636" xlink:href="#mc62da6053b" y="402.320779"/>
     <use style="fill:#d95f02;stroke:#000000;stroke-opacity:0;stroke-width:0.75;" x="1364.512239" xlink:href="#mc62da6053b" y="402.320779"/>
     <use style="fill:#d95f02;stroke:#000000;stroke-opacity:0;stroke-width:0.75;" x="1380.018117" xlink:href="#mc62da6053b" y="402.320779"/>
     <use style="fill:#d95f02;stroke:#000000;stroke-opacity:0;stroke-width:0.75;" x="1395.523995" xlink:href="#mc62da6053b" y="402.320779"/>
    </g>
   </g>
   <g id="line2d_3"/>
   <g id="line2d_4"/>
   <g id="patch_3">
    <path d="M 462.380233 548 
L 462.380233 131 
" style="fill:none;stroke:#262626;stroke-linecap:square;stroke-linejoin:miter;stroke-width:2;"/>
   </g>
   <g id="patch_4">
    <path d="M 462.380233 548 
L 1413.820932 548 
" style="fill:none;stroke:#262626;stroke-linecap:square;stroke-linejoin:miter;stroke-width:2;"/>
   </g>
   <g id="legend_1">
    <g id="line2d_5">
     <path d="M 1163.269057 167.0325 
L 1219.269057 167.0325 
" style="fill:none;stroke:#1b9e77;stroke-linecap:round;stroke-width:1.5;"/>
    </g>
    <g id="line2d_6">
     <g>
      <use style="fill:#1b9e77;stroke:#000000;stroke-opacity:0;stroke-width:0.75;" x="1191.269057" xlink:href="#mff41df2c9f" y="167.0325"/>
     </g>
    </g>
    <g id="text_14">
     <!-- Congruent -->
     <g style="fill:#262626;" transform="translate(1241.669057 176.8325)scale(0.28 -0.28)">
      <defs>
       <path d="M 3713 3213 
Q 3609 3681 3279 3923 
Q 2950 4166 2425 4166 
Q 1747 4166 1334 3673 
Q 922 3181 922 2344 
Q 922 1375 1312 901 
Q 1703 428 2444 428 
Q 2931 428 3282 751 
Q 3634 1075 3756 1691 
L 4359 1691 
Q 4238 806 3688 342 
Q 3138 -122 2350 -122 
Q 1409 -122 845 525 
Q 281 1172 281 2322 
Q 281 3431 870 4073 
Q 1459 4716 2425 4716 
Q 3225 4716 3722 4303 
Q 4219 3891 4313 3213 
L 3713 3213 
z
" id="HelveticaWorld-Regular-43" transform="scale(0.015625)"/>
       <path d="M 1100 2881 
L 1100 703 
Q 1100 575 1170 508 
Q 1241 441 1422 441 
L 1638 441 
L 1638 0 
Q 1331 -44 1216 -44 
Q 863 -44 700 125 
Q 538 294 538 672 
L 538 2881 
L 84 2881 
L 84 3347 
L 538 3347 
L 538 4281 
L 1100 4281 
L 1100 3347 
L 1638 3347 
L 1638 2881 
L 1100 2881 
z
" id="HelveticaWorld-Regular-74" transform="scale(0.015625)"/>
      </defs>
      <use xlink:href="#HelveticaWorld-Regular-43"/>
      <use x="72.314453" xlink:href="#HelveticaWorld-Regular-6f"/>
      <use x="128.222656" xlink:href="#HelveticaWorld-Regular-6e"/>
      <use x="183.398438" xlink:href="#HelveticaWorld-Regular-67"/>
      <use x="239.306641" xlink:href="#HelveticaWorld-Regular-72"/>
      <use x="271.875" xlink:href="#HelveticaWorld-Regular-75"/>
      <use x="326.660156" xlink:href="#HelveticaWorld-Regular-65"/>
      <use x="382.080078" xlink:href="#HelveticaWorld-Regular-6e"/>
      <use x="437.255859" xlink:href="#HelveticaWorld-Regular-74"/>
     </g>
    </g>
    <g id="line2d_7">
     <path d="M 1163.269057 207.295625 
L 1219.269057 207.295625 
" style="fill:none;stroke:#d95f02;stroke-linecap:round;stroke-width:1.5;"/>
    </g>
    <g id="line2d_8">
     <g>
      <use style="fill:#d95f02;stroke:#000000;stroke-opacity:0;stroke-width:0.75;" x="1191.269057" xlink:href="#mc62da6053b" y="207.295625"/>
     </g>
    </g>
    <g id="text_15">
     <!-- Incongruent -->
     <g style="fill:#262626;" transform="translate(1241.669057 217.095625)scale(0.28 -0.28)">
      <defs>
       <path d="M 1141 0 
L 519 0 
L 519 4594 
L 1141 4594 
L 1141 0 
z
" id="HelveticaWorld-Regular-49" transform="scale(0.015625)"/>
      </defs>
      <use xlink:href="#HelveticaWorld-Regular-49"/>
      <use x="25.78125" xlink:href="#HelveticaWorld-Regular-6e"/>
      <use x="80.957031" xlink:href="#HelveticaWorld-Regular-63"/>
      <use x="132.226562" xlink:href="#HelveticaWorld-Regular-6f"/>
      <use x="188.134766" xlink:href="#HelveticaWorld-Regular-6e"/>
      <use x="243.310547" xlink:href="#HelveticaWorld-Regular-67"/>
      <use x="299.21875" xlink:href="#HelveticaWorld-Regular-72"/>
      <use x="331.787109" xlink:href="#HelveticaWorld-Regular-75"/>
      <use x="386.572266" xlink:href="#HelveticaWorld-Regular-65"/>
      <use x="441.992188" xlink:href="#HelveticaWorld-Regular-6e"/>
      <use x="497.167969" xlink:href="#HelveticaWorld-Regular-74"/>
     </g>
    </g>
   </g>
  </g>
  <g id="axes_2">
   <g id="patch_5">
    <path d="M 115.05 668.2 
L 371.830233 668.2 
L 371.830233 10.8 
L 115.05 10.8 
z
" style="fill:#ffffff;"/>
   </g>
   <g id="matplotlib.axis_3">
    <g id="xtick_9"/>
    <g id="text_16">
     <!-- Average -->
     <g style="fill:#262626;" transform="translate(185.250116 702.17)scale(0.32 -0.32)">
      <defs>
       <path d="M 2522 3347 
L 3138 3347 
L 1863 0 
L 1259 0 
L 38 3347 
L 691 3347 
L 1563 622 
L 1575 622 
L 2522 3347 
z
" id="HelveticaWorld-Regular-76" transform="scale(0.015625)"/>
      </defs>
      <use xlink:href="#HelveticaWorld-Regular-41"/>
      <use x="62.824219" xlink:href="#HelveticaWorld-Regular-76"/>
      <use x="110.433594" xlink:href="#HelveticaWorld-Regular-65"/>
      <use x="165.853516" xlink:href="#HelveticaWorld-Regular-72"/>
      <use x="197.421875" xlink:href="#HelveticaWorld-Regular-61"/>
      <use x="252.353516" xlink:href="#HelveticaWorld-Regular-67"/>
      <use x="308.261719" xlink:href="#HelveticaWorld-Regular-65"/>
     </g>
    </g>
   </g>
   <g id="matplotlib.axis_4">
    <g id="ytick_4">
     <g id="text_17">
      <!-- 0.6 -->
      <g style="fill:#262626;" transform="translate(44.82 632.727857)scale(0.32 -0.32)">
       <defs>
        <path d="M 3494 1381 
L 256 1381 
L 256 1850 
L 3494 1850 
L 3494 1381 
z
" id="HelveticaWorld-Regular-2212" transform="scale(0.015625)"/>
       </defs>
       <use xlink:href="#HelveticaWorld-Regular-2212"/>
       <use x="58.59375" xlink:href="#HelveticaWorld-Regular-30"/>
       <use x="114.208984" xlink:href="#HelveticaWorld-Regular-2e"/>
       <use x="141.992188" xlink:href="#HelveticaWorld-Regular-36"/>
      </g>
     </g>
    </g>
    <g id="ytick_5">
     <g id="text_18">
      <!-- 0.4 -->
      <g style="fill:#262626;" transform="translate(44.82 538.813571)scale(0.32 -0.32)">
       <use xlink:href="#HelveticaWorld-Regular-2212"/>
       <use x="58.59375" xlink:href="#HelveticaWorld-Regular-30"/>
       <use x="114.208984" xlink:href="#HelveticaWorld-Regular-2e"/>
       <use x="141.992188" xlink:href="#HelveticaWorld-Regular-34"/>
      </g>
     </g>
    </g>
    <g id="ytick_6">
     <g id="text_19">
      <!-- 0.2 -->
      <g style="fill:#262626;" transform="translate(44.82 444.899286)scale(0.32 -0.32)">
       <use xlink:href="#HelveticaWorld-Regular-2212"/>
       <use x="58.59375" xlink:href="#HelveticaWorld-Regular-30"/>
       <use x="114.208984" xlink:href="#HelveticaWorld-Regular-2e"/>
       <use x="141.992188" xlink:href="#HelveticaWorld-Regular-32"/>
      </g>
     </g>
    </g>
    <g id="ytick_7">
     <g id="text_20">
      <!-- 0.0 -->
      <g style="fill:#262626;" transform="translate(63.57 350.985)scale(0.32 -0.32)">
       <use xlink:href="#HelveticaWorld-Regular-30"/>
       <use x="55.615234" xlink:href="#HelveticaWorld-Regular-2e"/>
       <use x="83.398438" xlink:href="#HelveticaWorld-Regular-30"/>
      </g>
     </g>
    </g>
    <g id="ytick_8">
     <g id="text_21">
      <!-- 0.2 -->
      <g style="fill:#262626;" transform="translate(63.57 257.070714)scale(0.32 -0.32)">
       <use xlink:href="#HelveticaWorld-Regular-30"/>
       <use x="55.615234" xlink:href="#HelveticaWorld-Regular-2e"/>
       <use x="83.398438" xlink:href="#HelveticaWorld-Regular-32"/>
      </g>
     </g>
    </g>
    <g id="ytick_9">
     <g id="text_22">
      <!-- 0.4 -->
      <g style="fill:#262626;" transform="translate(63.57 163.156429)scale(0.32 -0.32)">
       <use xlink:href="#HelveticaWorld-Regular-30"/>
       <use x="55.615234" xlink:href="#HelveticaWorld-Regular-2e"/>
       <use x="83.398438" xlink:href="#HelveticaWorld-Regular-34"/>
      </g>
     </g>
    </g>
    <g id="ytick_10">
     <g id="text_23">
      <!-- 0.6 -->
      <g style="fill:#262626;" transform="translate(63.57 69.242143)scale(0.32 -0.32)">
       <use xlink:href="#HelveticaWorld-Regular-30"/>
       <use x="55.615234" xlink:href="#HelveticaWorld-Regular-2e"/>
       <use x="83.398438" xlink:href="#HelveticaWorld-Regular-36"/>
      </g>
     </g>
    </g>
    <g id="text_24">
     <!--  Decoding Accuracy (a.u.) -->
     <g style="fill:#262626;" transform="translate(33.775 532.4975)rotate(-90)scale(0.32 -0.32)">
      <defs>
       <path d="M 941 550 
L 3244 550 
L 2125 3891 
L 2113 3891 
L 941 550 
z
M 97 0 
L 1831 4594 
L 2456 4594 
L 4128 0 
L 97 0 
z
" id="HelveticaWorld-Regular-394" transform="scale(0.015625)"/>
      </defs>
      <use xlink:href="#HelveticaWorld-Regular-394"/>
      <use x="66.015625" xlink:href="#HelveticaWorld-Regular-20"/>
      <use x="90.429688" xlink:href="#HelveticaWorld-Regular-44"/>
      <use x="162.451172" xlink:href="#HelveticaWorld-Regular-65"/>
      <use x="217.871094" xlink:href="#HelveticaWorld-Regular-63"/>
      <use x="269.140625" xlink:href="#HelveticaWorld-Regular-6f"/>
      <use x="325.048828" xlink:href="#HelveticaWorld-Regular-64"/>
      <use x="382.03125" xlink:href="#HelveticaWorld-Regular-69"/>
      <use x="404.052734" xlink:href="#HelveticaWorld-Regular-6e"/>
      <use x="459.228516" xlink:href="#HelveticaWorld-Regular-67"/>
      <use x="515.136719" xlink:href="#HelveticaWorld-Regular-20"/>
      <use x="539.550781" xlink:href="#HelveticaWorld-Regular-41"/>
      <use x="605.25" xlink:href="#HelveticaWorld-Regular-63"/>
      <use x="656.519531" xlink:href="#HelveticaWorld-Regular-63"/>
      <use x="707.789062" xlink:href="#HelveticaWorld-Regular-75"/>
      <use x="762.574219" xlink:href="#HelveticaWorld-Regular-72"/>
      <use x="794.142578" xlink:href="#HelveticaWorld-Regular-61"/>
      <use x="849.074219" xlink:href="#HelveticaWorld-Regular-63"/>
      <use x="900.34375" xlink:href="#HelveticaWorld-Regular-79"/>
      <use x="949.953125" xlink:href="#HelveticaWorld-Regular-20"/>
      <use x="974.367188" xlink:href="#HelveticaWorld-Regular-28"/>
      <use x="1007.667969" xlink:href="#HelveticaWorld-Regular-61"/>
      <use x="1062.599609" xlink:href="#HelveticaWorld-Regular-2e"/>
      <use x="1090.382812" xlink:href="#HelveticaWorld-Regular-75"/>
      <use x="1145.167969" xlink:href="#HelveticaWorld-Regular-2e"/>
      <use x="1172.951172" xlink:href="#HelveticaWorld-Regular-29"/>
     </g>
    </g>
   </g>
   <g id="PolyCollection_3">
    <defs>
     <path d="M 218.867845 -106.116829 
L 218.087918 -106.116829 
L 217.794828 -111.674003 
L 217.42692 -117.231177 
L 216.978517 -122.788351 
L 216.448055 -128.345525 
L 215.839179 -133.902699 
L 215.161425 -139.459874 
L 214.430303 -145.017048 
L 213.666702 -150.574222 
L 212.89562 -156.131396 
L 212.144356 -161.68857 
L 211.440357 -167.245744 
L 210.808998 -172.802918 
L 210.271492 -178.360092 
L 209.843121 -183.917266 
L 209.531846 -189.47444 
L 209.337317 -195.031614 
L 209.250265 -200.588788 
L 209.252249 -206.145962 
L 209.315831 -211.703136 
L 209.405265 -217.26031 
L 209.477828 -222.817484 
L 209.485893 -228.374658 
L 209.379717 -233.931832 
L 209.110791 -239.489006 
L 208.63543 -245.04618 
L 207.918169 -250.603354 
L 206.93448 -256.160528 
L 205.672389 -261.717703 
L 204.132702 -267.274877 
L 202.327719 -272.832051 
L 200.278576 -278.389225 
L 198.01148 -283.946399 
L 195.553336 -289.503573 
L 192.927306 -295.060747 
L 190.148908 -300.617921 
L 187.223272 -306.175095 
L 184.144036 -311.732269 
L 180.894283 -317.289443 
L 177.449648 -322.846617 
L 173.783522 -328.403791 
L 169.873938 -333.960965 
L 165.711481 -339.518139 
L 161.307308 -345.075313 
L 156.700235 -350.632487 
L 151.961793 -356.189661 
L 147.198265 -361.746835 
L 142.548925 -367.304009 
L 138.18006 -372.861183 
L 134.274819 -378.418357 
L 131.019489 -383.975531 
L 128.587388 -389.532706 
L 127.122059 -395.08988 
L 126.721829 -400.647054 
L 127.42783 -406.204228 
L 129.21733 -411.761402 
L 132.003544 -417.318576 
L 135.642243 -422.87575 
L 139.944422 -428.432924 
L 144.693403 -433.990098 
L 149.66413 -439.547272 
L 154.642156 -445.104446 
L 159.440076 -450.66162 
L 163.909712 -456.218794 
L 167.949126 -461.775968 
L 171.504344 -467.333142 
L 174.56638 -472.890316 
L 177.164571 -478.44749 
L 179.357504 -484.004664 
L 181.222812 -489.561838 
L 182.846976 -495.119012 
L 184.316053 -500.676186 
L 185.708022 -506.23336 
L 187.087138 -511.790535 
L 188.500512 -517.347709 
L 189.976867 -522.904883 
L 191.527275 -528.462057 
L 193.147537 -534.019231 
L 194.821731 -539.576405 
L 196.526415 -545.133579 
L 198.23495 -550.690753 
L 199.921414 -556.247927 
L 201.563687 -561.805101 
L 203.14538 -567.362275 
L 204.656493 -572.919449 
L 206.092852 -578.476623 
L 207.45461 -584.033797 
L 208.744205 -589.590971 
L 209.964267 -595.148145 
L 211.115922 -600.705319 
L 212.197822 -606.262493 
L 213.206027 -611.819667 
L 214.134684 -617.376841 
L 214.97725 -622.934015 
L 215.727935 -628.491189 
L 216.383025 -634.048364 
L 216.941809 -639.605538 
L 217.406971 -645.162712 
L 217.784434 -650.719886 
L 218.082759 -656.27706 
L 218.867845 -656.27706 
L 218.867845 -656.27706 
L 218.867845 -650.719886 
L 218.867845 -645.162712 
L 218.867845 -639.605538 
L 218.867845 -634.048364 
L 218.867845 -628.491189 
L 218.867845 -622.934015 
L 218.867845 -617.376841 
L 218.867845 -611.819667 
L 218.867845 -606.262493 
L 218.867845 -600.705319 
L 218.867845 -595.148145 
L 218.867845 -589.590971 
L 218.867845 -584.033797 
L 218.867845 -578.476623 
L 218.867845 -572.919449 
L 218.867845 -567.362275 
L 218.867845 -561.805101 
L 218.867845 -556.247927 
L 218.867845 -550.690753 
L 218.867845 -545.133579 
L 218.867845 -539.576405 
L 218.867845 -534.019231 
L 218.867845 -528.462057 
L 218.867845 -522.904883 
L 218.867845 -517.347709 
L 218.867845 -511.790535 
L 218.867845 -506.23336 
L 218.867845 -500.676186 
L 218.867845 -495.119012 
L 218.867845 -489.561838 
L 218.867845 -484.004664 
L 218.867845 -478.44749 
L 218.867845 -472.890316 
L 218.867845 -467.333142 
L 218.867845 -461.775968 
L 218.867845 -456.218794 
L 218.867845 -450.66162 
L 218.867845 -445.104446 
L 218.867845 -439.547272 
L 218.867845 -433.990098 
L 218.867845 -428.432924 
L 218.867845 -422.87575 
L 218.867845 -417.318576 
L 218.867845 -411.761402 
L 218.867845 -406.204228 
L 218.867845 -400.647054 
L 218.867845 -395.08988 
L 218.867845 -389.532706 
L 218.867845 -383.975531 
L 218.867845 -378.418357 
L 218.867845 -372.861183 
L 218.867845 -367.304009 
L 218.867845 -361.746835 
L 218.867845 -356.189661 
L 218.867845 -350.632487 
L 218.867845 -345.075313 
L 218.867845 -339.518139 
L 218.867845 -333.960965 
L 218.867845 -328.403791 
L 218.867845 -322.846617 
L 218.867845 -317.289443 
L 218.867845 -311.732269 
L 218.867845 -306.175095 
L 218.867845 -300.617921 
L 218.867845 -295.060747 
L 218.867845 -289.503573 
L 218.867845 -283.946399 
L 218.867845 -278.389225 
L 218.867845 -272.832051 
L 218.867845 -267.274877 
L 218.867845 -261.717703 
L 218.867845 -256.160528 
L 218.867845 -250.603354 
L 218.867845 -245.04618 
L 218.867845 -239.489006 
L 218.867845 -233.931832 
L 218.867845 -228.374658 
L 218.867845 -222.817484 
L 218.867845 -217.26031 
L 218.867845 -211.703136 
L 218.867845 -206.145962 
L 218.867845 -200.588788 
L 218.867845 -195.031614 
L 218.867845 -189.47444 
L 218.867845 -183.917266 
L 218.867845 -178.360092 
L 218.867845 -172.802918 
L 218.867845 -167.245744 
L 218.867845 -161.68857 
L 218.867845 -156.131396 
L 218.867845 -150.574222 
L 218.867845 -145.017048 
L 218.867845 -139.459874 
L 218.867845 -133.902699 
L 218.867845 -128.345525 
L 218.867845 -122.788351 
L 218.867845 -117.231177 
L 218.867845 -111.674003 
L 218.867845 -106.116829 
z
" id="m283f1392d4" style="stroke:#7a7a7a;stroke-width:1.5;"/>
    </defs>
    <g clip-path="url(#p920cf64beb)">
     <use style="fill:#cccccc;stroke:#7a7a7a;stroke-width:1.5;" x="0" xlink:href="#m283f1392d4" y="720"/>
    </g>
   </g>
   <g id="PolyCollection_4">
    <defs>
     <path d="M 218.867845 -372.861183 
L 138.18006 -372.861183 
L 134.274819 -378.418357 
L 134.274819 -378.418357 
L 131.019489 -383.975531 
L 128.587388 -389.532706 
L 127.122059 -395.08988 
L 126.721829 -400.647054 
L 127.42783 -406.204228 
L 127.42783 -406.204228 
L 129.21733 -411.761402 
L 132.003544 -417.318576 
L 135.642243 -422.87575 
L 139.944422 -428.432924 
L 218.867845 -428.432924 
L 218.867845 -428.432924 
L 218.867845 -422.87575 
L 218.867845 -417.318576 
L 218.867845 -411.761402 
L 218.867845 -406.204228 
L 218.867845 -406.204228 
L 218.867845 -400.647054 
L 218.867845 -395.08988 
L 218.867845 -389.532706 
L 218.867845 -383.975531 
L 218.867845 -378.418357 
L 218.867845 -378.418357 
L 218.867845 -372.861183 
z
" id="m64e7320d8b" style="stroke:#666666;stroke-width:1.5;"/>
    </defs>
    <g clip-path="url(#p920cf64beb)">
     <use style="fill:#8f8f8f;stroke:#666666;stroke-width:1.5;" x="0" xlink:href="#m64e7320d8b" y="720"/>
    </g>
   </g>
   <g id="PolyCollection_5">
    <defs>
     <path d="M 268.012388 -203.615335 
L 269.690029 -203.615335 
L 270.321265 -208.364435 
L 271.12596 -213.113535 
L 272.127162 -217.862635 
L 273.342689 -222.611736 
L 274.782366 -227.360836 
L 276.445563 -232.109936 
L 278.319504 -236.859036 
L 280.378801 -241.608136 
L 282.586589 -246.357237 
L 284.897447 -251.106337 
L 287.262001 -255.855437 
L 289.632816 -260.604537 
L 291.970864 -265.353637 
L 294.251644 -270.102738 
L 296.469941 -274.851838 
L 298.642293 -279.600938 
L 300.806508 -284.350038 
L 303.017961 -289.099138 
L 305.342915 -293.848239 
L 307.849575 -298.597339 
L 310.597998 -303.346439 
L 313.63022 -308.095539 
L 316.962002 -312.844639 
L 320.577463 -317.59374 
L 324.427484 -322.34284 
L 328.432311 -327.09194 
L 332.488224 -331.84104 
L 336.477552 -336.590141 
L 340.28085 -341.339241 
L 343.789634 -346.088341 
L 346.917966 -350.837441 
L 349.611211 -355.586541 
L 351.850644 -360.335642 
L 353.653186 -365.084742 
L 355.066248 -369.833842 
L 356.158517 -374.582942 
L 357.00816 -379.332042 
L 357.690414 -384.081143 
L 358.26663 -388.830243 
L 358.776555 -393.579343 
L 359.235005 -398.328443 
L 359.633241 -403.077543 
L 359.944447 -407.826644 
L 360.131957 -412.575744 
L 360.158404 -417.324844 
L 359.99391 -422.073944 
L 359.621732 -426.823044 
L 359.040417 -431.572145 
L 358.262314 -436.321245 
L 357.309029 -441.070345 
L 356.205049 -445.819445 
L 354.971014 -450.568546 
L 353.618145 -455.317646 
L 352.144936 -460.066746 
L 350.536745 -464.815846 
L 348.768245 -469.564946 
L 346.808133 -474.314047 
L 344.625132 -479.063147 
L 342.194071 -483.812247 
L 339.500983 -488.561347 
L 336.546386 -493.310447 
L 333.346344 -498.059548 
L 329.93136 -502.808648 
L 326.343525 -507.557748 
L 322.632621 -512.306848 
L 318.851975 -517.055948 
L 315.054757 -521.805049 
L 311.291253 -526.554149 
L 307.607318 -531.303249 
L 304.043916 -536.052349 
L 300.637449 -540.801449 
L 297.420384 -545.55055 
L 294.421699 -550.29965 
L 291.66678 -555.04875 
L 289.176569 -559.79785 
L 286.966044 -564.54695 
L 285.042303 -569.296051 
L 283.402704 -574.045151 
L 282.033577 -578.794251 
L 280.909939 -583.543351 
L 279.996505 -588.292452 
L 279.250032 -593.041552 
L 278.622794 -597.790652 
L 278.066738 -602.539752 
L 277.537764 -607.288852 
L 276.999511 -612.037953 
L 276.42613 -616.787053 
L 275.803686 -621.536153 
L 275.130079 -626.285253 
L 274.413589 -631.034353 
L 273.670384 -635.783454 
L 272.921418 -640.532554 
L 272.189224 -645.281654 
L 271.495026 -650.030754 
L 270.856508 -654.779854 
L 270.286415 -659.528955 
L 269.791998 -664.278055 
L 269.375221 -669.027155 
L 269.033516 -673.776255 
L 268.012388 -673.776255 
L 268.012388 -673.776255 
L 268.012388 -669.027155 
L 268.012388 -664.278055 
L 268.012388 -659.528955 
L 268.012388 -654.779854 
L 268.012388 -650.030754 
L 268.012388 -645.281654 
L 268.012388 -640.532554 
L 268.012388 -635.783454 
L 268.012388 -631.034353 
L 268.012388 -626.285253 
L 268.012388 -621.536153 
L 268.012388 -616.787053 
L 268.012388 -612.037953 
L 268.012388 -607.288852 
L 268.012388 -602.539752 
L 268.012388 -597.790652 
L 268.012388 -593.041552 
L 268.012388 -588.292452 
L 268.012388 -583.543351 
L 268.012388 -578.794251 
L 268.012388 -574.045151 
L 268.012388 -569.296051 
L 268.012388 -564.54695 
L 268.012388 -559.79785 
L 268.012388 -555.04875 
L 268.012388 -550.29965 
L 268.012388 -545.55055 
L 268.012388 -540.801449 
L 268.012388 -536.052349 
L 268.012388 -531.303249 
L 268.012388 -526.554149 
L 268.012388 -521.805049 
L 268.012388 -517.055948 
L 268.012388 -512.306848 
L 268.012388 -507.557748 
L 268.012388 -502.808648 
L 268.012388 -498.059548 
L 268.012388 -493.310447 
L 268.012388 -488.561347 
L 268.012388 -483.812247 
L 268.012388 -479.063147 
L 268.012388 -474.314047 
L 268.012388 -469.564946 
L 268.012388 -464.815846 
L 268.012388 -460.066746 
L 268.012388 -455.317646 
L 268.012388 -450.568546 
L 268.012388 -445.819445 
L 268.012388 -441.070345 
L 268.012388 -436.321245 
L 268.012388 -431.572145 
L 268.012388 -426.823044 
L 268.012388 -422.073944 
L 268.012388 -417.324844 
L 268.012388 -412.575744 
L 268.012388 -407.826644 
L 268.012388 -403.077543 
L 268.012388 -398.328443 
L 268.012388 -393.579343 
L 268.012388 -388.830243 
L 268.012388 -384.081143 
L 268.012388 -379.332042 
L 268.012388 -374.582942 
L 268.012388 -369.833842 
L 268.012388 -365.084742 
L 268.012388 -360.335642 
L 268.012388 -355.586541 
L 268.012388 -350.837441 
L 268.012388 -346.088341 
L 268.012388 -341.339241 
L 268.012388 -336.590141 
L 268.012388 -331.84104 
L 268.012388 -327.09194 
L 268.012388 -322.34284 
L 268.012388 -317.59374 
L 268.012388 -312.844639 
L 268.012388 -308.095539 
L 268.012388 -303.346439 
L 268.012388 -298.597339 
L 268.012388 -293.848239 
L 268.012388 -289.099138 
L 268.012388 -284.350038 
L 268.012388 -279.600938 
L 268.012388 -274.851838 
L 268.012388 -270.102738 
L 268.012388 -265.353637 
L 268.012388 -260.604537 
L 268.012388 -255.855437 
L 268.012388 -251.106337 
L 268.012388 -246.357237 
L 268.012388 -241.608136 
L 268.012388 -236.859036 
L 268.012388 -232.109936 
L 268.012388 -227.360836 
L 268.012388 -222.611736 
L 268.012388 -217.862635 
L 268.012388 -213.113535 
L 268.012388 -208.364435 
L 268.012388 -203.615335 
z
" id="m0a9701bf62" style="stroke:#7a7a7a;stroke-width:1.5;"/>
    </defs>
    <g clip-path="url(#p920cf64beb)">
     <use style="fill:#cccccc;stroke:#7a7a7a;stroke-width:1.5;" x="0" xlink:href="#m0a9701bf62" y="720"/>
    </g>
   </g>
   <g id="PolyCollection_6">
    <defs>
     <path d="M 268.012388 -389.891429 
L 358.26663 -389.891429 
L 358.776555 -393.579343 
L 359.235005 -398.328443 
L 359.633241 -403.077543 
L 359.944447 -407.826644 
L 360.131957 -412.575744 
L 360.158404 -417.324844 
L 359.99391 -422.073944 
L 359.621732 -426.823044 
L 359.040417 -431.572145 
L 358.262314 -436.321245 
L 357.309029 -441.070345 
L 268.012388 -441.070345 
L 268.012388 -441.070345 
L 268.012388 -436.321245 
L 268.012388 -431.572145 
L 268.012388 -426.823044 
L 268.012388 -422.073944 
L 268.012388 -417.324844 
L 268.012388 -412.575744 
L 268.012388 -407.826644 
L 268.012388 -403.077543 
L 268.012388 -398.328443 
L 268.012388 -393.579343 
L 268.012388 -389.891429 
z
" id="mfbf12d5313" style="stroke:#666666;stroke-width:1.5;"/>
    </defs>
    <g clip-path="url(#p920cf64beb)">
     <use style="fill:#8f8f8f;stroke:#666666;stroke-width:1.5;" x="0" xlink:href="#mfbf12d5313" y="720"/>
    </g>
   </g>
   <g id="PathCollection_6">
    <defs>
     <path d="M 0 3 
C 0.795609 3 1.55874 2.683901 2.12132 2.12132 
C 2.683901 1.55874 3 0.795609 3 0 
C 3 -0.795609 2.683901 -1.55874 2.12132 -2.12132 
C 1.55874 -2.683901 0.795609 -3 0 -3 
C -0.795609 -3 -1.55874 -2.683901 -2.12132 -2.12132 
C -2.683901 -1.55874 -3 -0.795609 -3 0 
C -3 0.795609 -2.683901 1.55874 -2.12132 2.12132 
C -1.55874 2.683901 -0.795609 3 0 3 
z
" id="m6e98f46704" style="stroke:#000000;stroke-opacity:0.3;"/>
    </defs>
    <g clip-path="url(#p920cf64beb)">
     <use style="fill-opacity:0.3;stroke:#000000;stroke-opacity:0.3;" x="205.945148" xlink:href="#m6e98f46704" y="176.091217"/>
     <use style="fill-opacity:0.3;stroke:#000000;stroke-opacity:0.3;" x="213.359576" xlink:href="#m6e98f46704" y="212.752138"/>
     <use style="fill-opacity:0.3;stroke:#000000;stroke-opacity:0.3;" x="188.111548" xlink:href="#m6e98f46704" y="248.234316"/>
     <use style="fill-opacity:0.3;stroke:#000000;stroke-opacity:0.3;" x="205.232859" xlink:href="#m6e98f46704" y="283.053735"/>
     <use style="fill-opacity:0.3;stroke:#000000;stroke-opacity:0.3;" x="138.418163" xlink:href="#m6e98f46704" y="338.999367"/>
     <use style="fill-opacity:0.3;stroke:#000000;stroke-opacity:0.3;" x="190.928919" xlink:href="#m6e98f46704" y="216.224974"/>
     <use style="fill-opacity:0.3;stroke:#000000;stroke-opacity:0.3;" x="208.253243" xlink:href="#m6e98f46704" y="297.937291"/>
     <use style="fill-opacity:0.3;stroke:#000000;stroke-opacity:0.3;" x="178.571697" xlink:href="#m6e98f46704" y="330.084137"/>
     <use style="fill-opacity:0.3;stroke:#000000;stroke-opacity:0.3;" x="186.693849" xlink:href="#m6e98f46704" y="341.39933"/>
     <use style="fill-opacity:0.3;stroke:#000000;stroke-opacity:0.3;" x="191.494114" xlink:href="#m6e98f46704" y="416.413283"/>
     <use style="fill-opacity:0.3;stroke:#000000;stroke-opacity:0.3;" x="141.520421" xlink:href="#m6e98f46704" y="320.834696"/>
     <use style="fill-opacity:0.3;stroke:#000000;stroke-opacity:0.3;" x="163.85417" xlink:href="#m6e98f46704" y="356.922884"/>
     <use style="fill-opacity:0.3;stroke:#000000;stroke-opacity:0.3;" x="195.439802" xlink:href="#m6e98f46704" y="184.720679"/>
     <use style="fill-opacity:0.3;stroke:#000000;stroke-opacity:0.3;" x="186.616288" xlink:href="#m6e98f46704" y="316.072051"/>
     <use style="fill-opacity:0.3;stroke:#000000;stroke-opacity:0.3;" x="146.432042" xlink:href="#m6e98f46704" y="353.765843"/>
     <use style="fill-opacity:0.3;stroke:#000000;stroke-opacity:0.3;" x="216.602449" xlink:href="#m6e98f46704" y="438.996467"/>
     <use style="fill-opacity:0.3;stroke:#000000;stroke-opacity:0.3;" x="159.088913" xlink:href="#m6e98f46704" y="309.875263"/>
     <use style="fill-opacity:0.3;stroke:#000000;stroke-opacity:0.3;" x="217.36738" xlink:href="#m6e98f46704" y="545.034981"/>
     <use style="fill-opacity:0.3;stroke:#000000;stroke-opacity:0.3;" x="189.357254" xlink:href="#m6e98f46704" y="299.038241"/>
     <use style="fill-opacity:0.3;stroke:#000000;stroke-opacity:0.3;" x="174.083862" xlink:href="#m6e98f46704" y="260.503882"/>
     <use style="fill-opacity:0.3;stroke:#000000;stroke-opacity:0.3;" x="170.104815" xlink:href="#m6e98f46704" y="385.087225"/>
     <use style="fill-opacity:0.3;stroke:#000000;stroke-opacity:0.3;" x="194.913974" xlink:href="#m6e98f46704" y="394.284712"/>
     <use style="fill-opacity:0.3;stroke:#000000;stroke-opacity:0.3;" x="198.068636" xlink:href="#m6e98f46704" y="322.138459"/>
     <use style="fill-opacity:0.3;stroke:#000000;stroke-opacity:0.3;" x="211.96622" xlink:href="#m6e98f46704" y="132.57113"/>
     <use style="fill-opacity:0.3;stroke:#000000;stroke-opacity:0.3;" x="218.601893" xlink:href="#m6e98f46704" y="309.059927"/>
     <use style="fill-opacity:0.3;stroke:#000000;stroke-opacity:0.3;" x="205.878068" xlink:href="#m6e98f46704" y="401.90393"/>
     <use style="fill-opacity:0.3;stroke:#000000;stroke-opacity:0.3;" x="214.357737" xlink:href="#m6e98f46704" y="221.613509"/>
     <use style="fill-opacity:0.3;stroke:#000000;stroke-opacity:0.3;" x="183.069525" xlink:href="#m6e98f46704" y="363.056739"/>
     <use style="fill-opacity:0.3;stroke:#000000;stroke-opacity:0.3;" x="189.244913" xlink:href="#m6e98f46704" y="321.990793"/>
     <use style="fill-opacity:0.3;stroke:#000000;stroke-opacity:0.3;" x="217.214768" xlink:href="#m6e98f46704" y="504.053904"/>
     <use style="fill-opacity:0.3;stroke:#000000;stroke-opacity:0.3;" x="209.890137" xlink:href="#m6e98f46704" y="265.461735"/>
     <use style="fill-opacity:0.3;stroke:#000000;stroke-opacity:0.3;" x="211.117156" xlink:href="#m6e98f46704" y="295.695257"/>
     <use style="fill-opacity:0.3;stroke:#000000;stroke-opacity:0.3;" x="176.988125" xlink:href="#m6e98f46704" y="354.144797"/>
     <use style="fill-opacity:0.3;stroke:#000000;stroke-opacity:0.3;" x="183.82882" xlink:href="#m6e98f46704" y="308.696939"/>
     <use style="fill-opacity:0.3;stroke:#000000;stroke-opacity:0.3;" x="150.275235" xlink:href="#m6e98f46704" y="315.402479"/>
    </g>
   </g>
   <g id="PathCollection_7">
    <g clip-path="url(#p920cf64beb)">
     <use style="fill-opacity:0.3;stroke:#000000;stroke-opacity:0.3;" x="273.081776" xlink:href="#m6e98f46704" y="109.860007"/>
     <use style="fill-opacity:0.3;stroke:#000000;stroke-opacity:0.3;" x="343.001722" xlink:href="#m6e98f46704" y="364.874274"/>
     <use style="fill-opacity:0.3;stroke:#000000;stroke-opacity:0.3;" x="305.185971" xlink:href="#m6e98f46704" y="273.142785"/>
     <use style="fill-opacity:0.3;stroke:#000000;stroke-opacity:0.3;" x="284.91894" xlink:href="#m6e98f46704" y="350.120853"/>
     <use style="fill-opacity:0.3;stroke:#000000;stroke-opacity:0.3;" x="271.926956" xlink:href="#m6e98f46704" y="452.748403"/>
     <use style="fill-opacity:0.3;stroke:#000000;stroke-opacity:0.3;" x="313.953191" xlink:href="#m6e98f46704" y="212.537189"/>
     <use style="fill-opacity:0.3;stroke:#000000;stroke-opacity:0.3;" x="278.247838" xlink:href="#m6e98f46704" y="257.512095"/>
     <use style="fill-opacity:0.3;stroke:#000000;stroke-opacity:0.3;" x="275.17624" xlink:href="#m6e98f46704" y="317.870881"/>
     <use style="fill-opacity:0.3;stroke:#000000;stroke-opacity:0.3;" x="305.775936" xlink:href="#m6e98f46704" y="250.578966"/>
     <use style="fill-opacity:0.3;stroke:#000000;stroke-opacity:0.3;" x="275.01405" xlink:href="#m6e98f46704" y="437.099822"/>
     <use style="fill-opacity:0.3;stroke:#000000;stroke-opacity:0.3;" x="286.379046" xlink:href="#m6e98f46704" y="263.154742"/>
     <use style="fill-opacity:0.3;stroke:#000000;stroke-opacity:0.3;" x="274.496086" xlink:href="#m6e98f46704" y="383.346242"/>
     <use style="fill-opacity:0.3;stroke:#000000;stroke-opacity:0.3;" x="291.403043" xlink:href="#m6e98f46704" y="300.59604"/>
     <use style="fill-opacity:0.3;stroke:#000000;stroke-opacity:0.3;" x="285.826675" xlink:href="#m6e98f46704" y="208.11801"/>
     <use style="fill-opacity:0.3;stroke:#000000;stroke-opacity:0.3;" x="317.066366" xlink:href="#m6e98f46704" y="393.788922"/>
     <use style="fill-opacity:0.3;stroke:#000000;stroke-opacity:0.3;" x="272.950944" xlink:href="#m6e98f46704" y="296.492393"/>
     <use style="fill-opacity:0.3;stroke:#000000;stroke-opacity:0.3;" x="293.840618" xlink:href="#m6e98f46704" y="352.436509"/>
     <use style="fill-opacity:0.3;stroke:#000000;stroke-opacity:0.3;" x="278.00327" xlink:href="#m6e98f46704" y="394.180872"/>
     <use style="fill-opacity:0.3;stroke:#000000;stroke-opacity:0.3;" x="295.28192" xlink:href="#m6e98f46704" y="237.534445"/>
     <use style="fill-opacity:0.3;stroke:#000000;stroke-opacity:0.3;" x="309.68296" xlink:href="#m6e98f46704" y="291.705707"/>
     <use style="fill-opacity:0.3;stroke:#000000;stroke-opacity:0.3;" x="306.150048" xlink:href="#m6e98f46704" y="356.298316"/>
     <use style="fill-opacity:0.3;stroke:#000000;stroke-opacity:0.3;" x="348.029525" xlink:href="#m6e98f46704" y="319.676236"/>
     <use style="fill-opacity:0.3;stroke:#000000;stroke-opacity:0.3;" x="290.07091" xlink:href="#m6e98f46704" y="171.319563"/>
     <use style="fill-opacity:0.3;stroke:#000000;stroke-opacity:0.3;" x="277.245969" xlink:href="#m6e98f46704" y="239.115886"/>
     <use style="fill-opacity:0.3;stroke:#000000;stroke-opacity:0.3;" x="323.984803" xlink:href="#m6e98f46704" y="291.419642"/>
     <use style="fill-opacity:0.3;stroke:#000000;stroke-opacity:0.3;" x="313.522553" xlink:href="#m6e98f46704" y="226.349279"/>
     <use style="fill-opacity:0.3;stroke:#000000;stroke-opacity:0.3;" x="344.480797" xlink:href="#m6e98f46704" y="289.728181"/>
     <use style="fill-opacity:0.3;stroke:#000000;stroke-opacity:0.3;" x="273.983493" xlink:href="#m6e98f46704" y="236.667901"/>
     <use style="fill-opacity:0.3;stroke:#000000;stroke-opacity:0.3;" x="325.878381" xlink:href="#m6e98f46704" y="364.958569"/>
     <use style="fill-opacity:0.3;stroke:#000000;stroke-opacity:0.3;" x="297.971549" xlink:href="#m6e98f46704" y="436.136144"/>
     <use style="fill-opacity:0.3;stroke:#000000;stroke-opacity:0.3;" x="325.232658" xlink:href="#m6e98f46704" y="316.879483"/>
     <use style="fill-opacity:0.3;stroke:#000000;stroke-opacity:0.3;" x="300.183245" xlink:href="#m6e98f46704" y="186.860268"/>
     <use style="fill-opacity:0.3;stroke:#000000;stroke-opacity:0.3;" x="300.618314" xlink:href="#m6e98f46704" y="362.579394"/>
     <use style="fill-opacity:0.3;stroke:#000000;stroke-opacity:0.3;" x="326.03143" xlink:href="#m6e98f46704" y="312.586935"/>
     <use style="fill-opacity:0.3;stroke:#000000;stroke-opacity:0.3;" x="328.943998" xlink:href="#m6e98f46704" y="355.37888"/>
    </g>
   </g>
   <g id="line2d_9">
    <path clip-path="url(#p920cf64beb)" d="M 243.440116 334.804286 
L 243.440116 287.847143 
" style="fill:none;stroke:#000000;stroke-linecap:round;stroke-width:3;"/>
   </g>
   <g id="line2d_10">
    <path clip-path="url(#p920cf64beb)" d="M 237.297049 334.804286 
L 249.583184 334.804286 
" style="fill:none;stroke:#000000;stroke-linecap:round;stroke-width:3;"/>
   </g>
   <g id="line2d_11">
    <path clip-path="url(#p920cf64beb)" d="M 237.297049 287.847143 
L 249.583184 287.847143 
" style="fill:none;stroke:#000000;stroke-linecap:round;stroke-width:3;"/>
   </g>
   <g id="line2d_12">
    <defs>
     <path d="M 0 7.5 
C 1.989023 7.5 3.896849 6.709753 5.303301 5.303301 
C 6.709753 3.896849 7.5 1.989023 7.5 0 
C 7.5 -1.989023 6.709753 -3.896849 5.303301 -5.303301 
C 3.896849 -6.709753 1.989023 -7.5 0 -7.5 
C -1.989023 -7.5 -3.896849 -6.709753 -5.303301 -5.303301 
C -6.709753 -3.896849 -7.5 -1.989023 -7.5 0 
C -7.5 1.989023 -6.709753 3.896849 -5.303301 5.303301 
C -3.896849 6.709753 -1.989023 7.5 0 7.5 
z
" id="mf3d0c231de" style="stroke:#000000;"/>
    </defs>
    <g clip-path="url(#p920cf64beb)">
     <use style="stroke:#000000;" x="243.440116" xlink:href="#mf3d0c231de" y="310.796716"/>
    </g>
   </g>
   <g id="line2d_13">
    <path clip-path="url(#p920cf64beb)" d="M 115.05 339.5 
L 371.830233 339.5 
" style="fill:none;stroke:#000000;stroke-dasharray:7.4,3.2;stroke-dashoffset:0;stroke-width:2;"/>
   </g>
   <g id="patch_6">
    <path d="M 115.05 668.2 
L 115.05 10.8 
" style="fill:none;stroke:#262626;stroke-linecap:square;stroke-linejoin:miter;stroke-width:2;"/>
   </g>
  </g>
 </g>
 <defs>
  <clipPath id="pdf38e20e5f">
   <rect height="417" width="951.440699" x="462.380233" y="131"/>
  </clipPath>
  <clipPath id="p920cf64beb">
   <rect height="657.4" width="256.780233" x="115.05" y="10.8"/>
  </clipPath>
 </defs>
</svg>
