<?xml version="1.0" encoding="utf-8" standalone="no"?>
<!DOCTYPE svg PUBLIC "-//W3C//DTD SVG 1.1//EN"
  "http://www.w3.org/Graphics/SVG/1.1/DTD/svg11.dtd">
<svg height="720pt" version="1.1" viewBox="0 0 1440 720" width="1440pt" xmlns="http://www.w3.org/2000/svg" xmlns:xlink="http://www.w3.org/1999/xlink">
 <metadata>
  <rdf:RDF xmlns:cc="http://creativecommons.org/ns#" xmlns:dc="http://purl.org/dc/elements/1.1/" xmlns:rdf="http://www.w3.org/1999/02/22-rdf-syntax-ns#">
   <cc:Work>
    <dc:type rdf:resource="http://purl.org/dc/dcmitype/StillImage"/>
    <dc:date>2025-06-15T20:21:06.101655</dc:date>
    <dc:format>image/svg+xml</dc:format>
    <dc:creator>
     <cc:Agent>
      <dc:title>Matplotlib v3.4.3, https://matplotlib.org/</dc:title>
     </cc:Agent>
    </dc:creator>
   </cc:Work>
  </rdf:RDF>
 </metadata>
 <defs>
  <style type="text/css">*{stroke-linecap:butt;stroke-linejoin:round;}</style>
 </defs>
 <g id="figure_1">
  <g id="patch_1">
   <path d="M 0 720 
L 1440 720 
L 1440 0 
L 0 0 
z
" style="fill:none;"/>
  </g>
  <g id="axes_1">
   <g id="patch_2">
    <path d="M 462.880233 548 
L 1413.820932 548 
L 1413.820932 131 
L 462.880233 131 
z
" style="fill:#ffffff;"/>
   </g>
   <g id="matplotlib.axis_1">
    <g id="xtick_1">
     <g id="text_1">
      <!-- 100 -->
      <g style="fill:#262626;" transform="translate(457.811617 575.09875)scale(0.28 -0.28)">
       <defs>
        <path d="M 2297 0 
L 1697 0 
L 1697 3194 
L 647 3194 
L 647 3641 
Q 1197 3659 1465 3817 
Q 1734 3975 1856 4500 
L 2297 4500 
L 2297 0 
z
" id="HelveticaWorld-Regular-31" transform="scale(0.015625)"/>
        <path d="M 2719 2188 
Q 2719 3091 2480 3542 
Q 2241 3994 1778 3994 
Q 1325 3994 1081 3542 
Q 838 3091 838 2188 
Q 838 1313 1078 848 
Q 1319 384 1778 384 
Q 2241 384 2480 832 
Q 2719 1281 2719 2188 
z
M 3322 2188 
Q 3322 1081 2922 479 
Q 2522 -122 1778 -122 
Q 1006 -122 622 501 
Q 238 1125 238 2188 
Q 238 3278 631 3889 
Q 1025 4500 1778 4500 
Q 2522 4500 2922 3892 
Q 3322 3284 3322 2188 
z
" id="HelveticaWorld-Regular-30" transform="scale(0.015625)"/>
       </defs>
       <use xlink:href="#HelveticaWorld-Regular-31"/>
       <use x="55.615234" xlink:href="#HelveticaWorld-Regular-30"/>
       <use x="111.230469" xlink:href="#HelveticaWorld-Regular-30"/>
      </g>
     </g>
    </g>
    <g id="xtick_2">
     <g id="text_2">
      <!-- 500 -->
      <g style="fill:#262626;" transform="translate(519.802536 575.09875)scale(0.28 -0.28)">
       <defs>
        <path d="M 941 2619 
Q 1313 2900 1813 2900 
Q 2419 2900 2855 2497 
Q 3291 2094 3291 1459 
Q 3291 769 2870 320 
Q 2450 -128 1691 -128 
Q 1031 -128 650 195 
Q 269 519 206 1113 
L 788 1113 
Q 831 750 1072 558 
Q 1313 366 1741 366 
Q 2156 366 2422 653 
Q 2688 941 2688 1388 
Q 2688 1844 2409 2119 
Q 2131 2394 1691 2394 
Q 1191 2394 856 1966 
L 372 1991 
L 709 4397 
L 3041 4397 
L 3041 3853 
L 1131 3853 
L 941 2619 
z
" id="HelveticaWorld-Regular-35" transform="scale(0.015625)"/>
       </defs>
       <use xlink:href="#HelveticaWorld-Regular-35"/>
       <use x="55.615234" xlink:href="#HelveticaWorld-Regular-30"/>
       <use x="111.230469" xlink:href="#HelveticaWorld-Regular-30"/>
      </g>
     </g>
    </g>
    <g id="xtick_3">
     <g id="text_3">
      <!-- 1000 -->
      <g style="fill:#262626;" transform="translate(589.505872 575.09875)scale(0.28 -0.28)">
       <use xlink:href="#HelveticaWorld-Regular-31"/>
       <use x="55.615234" xlink:href="#HelveticaWorld-Regular-30"/>
       <use x="111.230469" xlink:href="#HelveticaWorld-Regular-30"/>
       <use x="166.845703" xlink:href="#HelveticaWorld-Regular-30"/>
      </g>
     </g>
    </g>
    <g id="xtick_4">
     <g id="text_4">
      <!-- 2000 -->
      <g style="fill:#262626;" transform="translate(744.48317 575.09875)scale(0.28 -0.28)">
       <defs>
        <path d="M 281 2888 
Q 281 3681 690 4090 
Q 1100 4500 1838 4500 
Q 2456 4500 2850 4125 
Q 3244 3750 3244 3156 
Q 3244 2694 3017 2376 
Q 2791 2059 2350 1819 
L 1575 1394 
Q 891 1019 800 531 
L 3244 531 
L 3244 0 
L 166 0 
Q 191 634 441 1056 
Q 691 1478 1222 1784 
L 2028 2253 
Q 2350 2438 2497 2636 
Q 2644 2834 2644 3181 
Q 2644 3525 2403 3759 
Q 2163 3994 1753 3994 
Q 1300 3994 1075 3695 
Q 850 3397 844 2888 
L 281 2888 
z
" id="HelveticaWorld-Regular-32" transform="scale(0.015625)"/>
       </defs>
       <use xlink:href="#HelveticaWorld-Regular-32"/>
       <use x="55.615234" xlink:href="#HelveticaWorld-Regular-30"/>
       <use x="111.230469" xlink:href="#HelveticaWorld-Regular-30"/>
       <use x="166.845703" xlink:href="#HelveticaWorld-Regular-30"/>
      </g>
     </g>
    </g>
    <g id="xtick_5">
     <g id="text_5">
      <!-- 3000 -->
      <g style="fill:#262626;" transform="translate(899.460468 575.09875)scale(0.28 -0.28)">
       <defs>
        <path d="M 1434 2559 
Q 1575 2547 1728 2547 
Q 2125 2547 2354 2730 
Q 2584 2913 2584 3284 
Q 2584 3584 2370 3789 
Q 2156 3994 1753 3994 
Q 1306 3994 1098 3731 
Q 891 3469 878 3028 
L 325 3028 
Q 325 3731 694 4115 
Q 1063 4500 1778 4500 
Q 2413 4500 2791 4173 
Q 3169 3847 3169 3316 
Q 3169 2631 2591 2388 
L 2591 2375 
Q 3341 2119 3341 1325 
Q 3341 691 2919 284 
Q 2497 -122 1722 -122 
Q 1088 -122 678 211 
Q 269 544 219 1375 
L 800 1375 
Q 813 856 1056 620 
Q 1300 384 1759 384 
Q 2203 384 2472 631 
Q 2741 878 2741 1253 
Q 2741 1663 2484 1872 
Q 2228 2081 1691 2081 
Q 1563 2081 1434 2075 
L 1434 2559 
z
" id="HelveticaWorld-Regular-33" transform="scale(0.015625)"/>
       </defs>
       <use xlink:href="#HelveticaWorld-Regular-33"/>
       <use x="55.615234" xlink:href="#HelveticaWorld-Regular-30"/>
       <use x="111.230469" xlink:href="#HelveticaWorld-Regular-30"/>
       <use x="166.845703" xlink:href="#HelveticaWorld-Regular-30"/>
      </g>
     </g>
    </g>
    <g id="xtick_6">
     <g id="text_6">
      <!-- 4000 -->
      <g style="fill:#262626;" transform="translate(1054.437765 575.09875)scale(0.28 -0.28)">
       <defs>
        <path d="M 678 1581 
L 2125 1581 
L 2125 3622 
L 2113 3622 
L 678 1581 
z
M 2688 1094 
L 2688 0 
L 2125 0 
L 2125 1094 
L 159 1094 
L 159 1644 
L 2222 4500 
L 2688 4500 
L 2688 1581 
L 3347 1581 
L 3347 1094 
L 2688 1094 
z
" id="HelveticaWorld-Regular-34" transform="scale(0.015625)"/>
       </defs>
       <use xlink:href="#HelveticaWorld-Regular-34"/>
       <use x="55.615234" xlink:href="#HelveticaWorld-Regular-30"/>
       <use x="111.230469" xlink:href="#HelveticaWorld-Regular-30"/>
       <use x="166.845703" xlink:href="#HelveticaWorld-Regular-30"/>
      </g>
     </g>
    </g>
    <g id="xtick_7">
     <g id="text_7">
      <!-- 5000 -->
      <g style="fill:#262626;" transform="translate(1209.415063 575.09875)scale(0.28 -0.28)">
       <use xlink:href="#HelveticaWorld-Regular-35"/>
       <use x="55.615234" xlink:href="#HelveticaWorld-Regular-30"/>
       <use x="111.230469" xlink:href="#HelveticaWorld-Regular-30"/>
       <use x="166.845703" xlink:href="#HelveticaWorld-Regular-30"/>
      </g>
     </g>
    </g>
    <g id="xtick_8">
     <g id="text_8">
      <!-- 6000 -->
      <g style="fill:#262626;" transform="translate(1364.392361 575.09875)scale(0.28 -0.28)">
       <defs>
        <path d="M 903 1381 
Q 903 941 1165 662 
Q 1428 384 1850 384 
Q 2253 384 2492 668 
Q 2731 953 2731 1416 
Q 2731 1819 2495 2091 
Q 2259 2363 1825 2363 
Q 1403 2363 1153 2097 
Q 903 1831 903 1381 
z
M 2669 3303 
Q 2606 3647 2414 3820 
Q 2222 3994 1894 3994 
Q 1375 3994 1103 3487 
Q 831 2981 825 2328 
L 838 2316 
Q 1197 2869 1906 2869 
Q 2472 2869 2894 2494 
Q 3316 2119 3316 1441 
Q 3316 769 2916 323 
Q 2516 -122 1838 -122 
Q 1056 -122 650 434 
Q 244 991 244 2094 
Q 244 3156 659 3828 
Q 1075 4500 1906 4500 
Q 2444 4500 2816 4179 
Q 3188 3859 3219 3303 
L 2669 3303 
z
" id="HelveticaWorld-Regular-36" transform="scale(0.015625)"/>
       </defs>
       <use xlink:href="#HelveticaWorld-Regular-36"/>
       <use x="55.615234" xlink:href="#HelveticaWorld-Regular-30"/>
       <use x="111.230469" xlink:href="#HelveticaWorld-Regular-30"/>
       <use x="166.845703" xlink:href="#HelveticaWorld-Regular-30"/>
      </g>
     </g>
    </g>
    <g id="text_9">
     <!-- Number of Voxels -->
     <g style="fill:#262626;" transform="translate(815.493082 607.865625)scale(0.32 -0.32)">
      <defs>
       <path d="M 3559 4594 
L 4159 4594 
L 4159 0 
L 3469 0 
L 1125 3713 
L 1113 3713 
L 1113 0 
L 519 0 
L 519 4594 
L 1247 4594 
L 3547 884 
L 3559 884 
L 3559 4594 
z
" id="HelveticaWorld-Regular-4e" transform="scale(0.015625)"/>
       <path d="M 391 3347 
L 953 3347 
L 953 1125 
Q 953 756 1120 573 
Q 1288 391 1600 391 
Q 2034 391 2278 698 
Q 2522 1006 2522 1503 
L 2522 3347 
L 3084 3347 
L 3084 0 
L 2553 0 
L 2553 488 
L 2541 500 
Q 2222 -97 1478 -97 
Q 997 -97 694 165 
Q 391 428 391 941 
L 391 3347 
z
" id="HelveticaWorld-Regular-75" transform="scale(0.015625)"/>
       <path d="M 422 3347 
L 953 3347 
L 953 2875 
L 966 2875 
Q 1344 3444 1978 3444 
Q 2606 3444 2869 2900 
Q 3109 3194 3334 3319 
Q 3559 3444 3891 3444 
Q 4325 3444 4626 3159 
Q 4928 2875 4928 2316 
L 4928 0 
L 4366 0 
L 4366 2163 
Q 4366 2553 4219 2745 
Q 4072 2938 3744 2938 
Q 3413 2938 3184 2669 
Q 2956 2400 2956 2041 
L 2956 0 
L 2394 0 
L 2394 2316 
Q 2394 2606 2259 2772 
Q 2125 2938 1869 2938 
Q 1466 2938 1225 2638 
Q 984 2338 984 1825 
L 984 0 
L 422 0 
L 422 3347 
z
" id="HelveticaWorld-Regular-6d" transform="scale(0.015625)"/>
       <path d="M 2778 1684 
Q 2778 2356 2540 2647 
Q 2303 2938 1863 2938 
Q 1416 2931 1187 2589 
Q 959 2247 959 1600 
Q 959 941 1234 666 
Q 1509 391 1875 391 
Q 2291 391 2534 733 
Q 2778 1075 2778 1684 
z
M 422 0 
L 422 4594 
L 984 4594 
L 984 2925 
L 997 2925 
Q 1356 3444 1966 3444 
Q 2591 3444 2975 2980 
Q 3359 2516 3359 1772 
Q 3359 934 2971 418 
Q 2584 -97 1888 -97 
Q 1275 -97 966 416 
L 953 416 
L 953 0 
L 422 0 
z
" id="HelveticaWorld-Regular-62" transform="scale(0.015625)"/>
       <path d="M 2719 1941 
Q 2675 2484 2431 2711 
Q 2188 2938 1784 2938 
Q 1375 2938 1123 2650 
Q 872 2363 856 1941 
L 2719 1941 
z
M 3256 1050 
Q 3163 531 2747 191 
Q 2381 -97 1784 -103 
Q 1081 -97 668 358 
Q 256 813 256 1581 
Q 256 2463 681 2953 
Q 1106 3444 1863 3444 
Q 2541 3444 2922 2937 
Q 3303 2431 3303 1491 
L 856 1491 
Q 856 966 1100 678 
Q 1344 391 1831 391 
Q 2175 391 2422 598 
Q 2669 806 2694 1050 
L 3256 1050 
z
" id="HelveticaWorld-Regular-65" transform="scale(0.015625)"/>
       <path d="M 984 0 
L 422 0 
L 422 3347 
L 953 3347 
L 953 2791 
L 966 2791 
Q 1331 3444 1906 3444 
Q 1997 3444 2053 3425 
L 2053 2841 
L 1844 2841 
Q 1466 2841 1225 2584 
Q 984 2328 984 1947 
L 984 0 
z
" id="HelveticaWorld-Regular-72" transform="scale(0.015625)"/>
       <path id="HelveticaWorld-Regular-20" transform="scale(0.015625)"/>
       <path d="M 813 1678 
Q 813 1119 1066 758 
Q 1319 397 1784 397 
Q 2266 397 2516 775 
Q 2766 1153 2766 1678 
Q 2766 2209 2516 2579 
Q 2266 2950 1784 2950 
Q 1338 2950 1075 2601 
Q 813 2253 813 1678 
z
M 238 1678 
Q 238 2425 653 2934 
Q 1069 3444 1784 3444 
Q 2516 3444 2928 2928 
Q 3341 2413 3341 1678 
Q 3341 941 2931 422 
Q 2522 -97 1784 -97 
Q 1075 -97 656 406 
Q 238 909 238 1678 
z
" id="HelveticaWorld-Regular-6f" transform="scale(0.015625)"/>
       <path d="M 1100 2881 
L 1100 0 
L 538 0 
L 538 2881 
L 78 2881 
L 78 3347 
L 538 3347 
L 538 3922 
Q 538 4300 767 4479 
Q 997 4659 1409 4659 
Q 1550 4659 1663 4647 
L 1663 4141 
Q 1563 4153 1434 4153 
Q 1247 4153 1173 4061 
Q 1100 3969 1100 3763 
L 1100 3347 
L 1663 3347 
L 1663 2881 
L 1100 2881 
z
" id="HelveticaWorld-Regular-66" transform="scale(0.015625)"/>
       <path d="M 3413 4594 
L 4109 4594 
L 2425 0 
L 1772 0 
L 97 4594 
L 788 4594 
L 2100 678 
L 2113 678 
L 3413 4594 
z
" id="HelveticaWorld-Regular-56" transform="scale(0.015625)"/>
       <path d="M 3138 0 
L 2413 0 
L 1588 1259 
L 781 0 
L 72 0 
L 1241 1722 
L 128 3347 
L 844 3347 
L 1619 2169 
L 2400 3347 
L 3084 3347 
L 1959 1722 
L 3138 0 
z
" id="HelveticaWorld-Regular-78" transform="scale(0.015625)"/>
       <path d="M 984 0 
L 422 0 
L 422 4594 
L 984 4594 
L 984 0 
z
" id="HelveticaWorld-Regular-6c" transform="scale(0.015625)"/>
       <path d="M 2309 2394 
Q 2297 2694 2095 2825 
Q 1894 2956 1516 2956 
Q 1241 2956 1045 2834 
Q 850 2713 850 2484 
Q 850 2303 965 2217 
Q 1081 2131 1466 2034 
L 2022 1894 
Q 2528 1766 2745 1567 
Q 2963 1369 2963 1013 
Q 2963 519 2602 211 
Q 2241 -97 1638 -97 
Q 934 -97 573 195 
Q 213 488 206 1075 
L 750 1075 
Q 763 728 980 559 
Q 1197 391 1631 391 
Q 1984 391 2192 531 
Q 2400 672 2400 922 
Q 2400 1100 2265 1206 
Q 2131 1313 1734 1403 
L 1081 1563 
Q 684 1663 495 1861 
Q 306 2059 306 2375 
Q 306 2869 659 3156 
Q 1013 3444 1581 3444 
Q 2188 3444 2511 3148 
Q 2834 2853 2853 2394 
L 2309 2394 
z
" id="HelveticaWorld-Regular-73" transform="scale(0.015625)"/>
      </defs>
      <use xlink:href="#HelveticaWorld-Regular-4e"/>
      <use x="73.095703" xlink:href="#HelveticaWorld-Regular-75"/>
      <use x="127.880859" xlink:href="#HelveticaWorld-Regular-6d"/>
      <use x="210.888672" xlink:href="#HelveticaWorld-Regular-62"/>
      <use x="267.382812" xlink:href="#HelveticaWorld-Regular-65"/>
      <use x="322.802734" xlink:href="#HelveticaWorld-Regular-72"/>
      <use x="355.371094" xlink:href="#HelveticaWorld-Regular-20"/>
      <use x="379.785156" xlink:href="#HelveticaWorld-Regular-6f"/>
      <use x="435.693359" xlink:href="#HelveticaWorld-Regular-66"/>
      <use x="463.378906" xlink:href="#HelveticaWorld-Regular-20"/>
      <use x="482.792969" xlink:href="#HelveticaWorld-Regular-56"/>
      <use x="540.619141" xlink:href="#HelveticaWorld-Regular-6f"/>
      <use x="593.652344" xlink:href="#HelveticaWorld-Regular-78"/>
      <use x="640.402344" xlink:href="#HelveticaWorld-Regular-65"/>
      <use x="695.822266" xlink:href="#HelveticaWorld-Regular-6c"/>
      <use x="717.84375" xlink:href="#HelveticaWorld-Regular-73"/>
     </g>
    </g>
   </g>
   <g id="matplotlib.axis_2">
    <g id="ytick_1">
     <g id="text_10">
      <!-- 0.0 -->
      <g style="fill:#262626;" transform="translate(416.960233 558.049375)scale(0.28 -0.28)">
       <defs>
        <path d="M 1222 0 
L 556 0 
L 556 678 
L 1222 678 
L 1222 0 
z
" id="HelveticaWorld-Regular-2e" transform="scale(0.015625)"/>
       </defs>
       <use xlink:href="#HelveticaWorld-Regular-30"/>
       <use x="55.615234" xlink:href="#HelveticaWorld-Regular-2e"/>
       <use x="83.398438" xlink:href="#HelveticaWorld-Regular-30"/>
      </g>
     </g>
    </g>
    <g id="ytick_2">
     <g id="text_11">
      <!-- 0.1 -->
      <g style="fill:#262626;" transform="translate(416.960233 465.382708)scale(0.28 -0.28)">
       <use xlink:href="#HelveticaWorld-Regular-30"/>
       <use x="55.615234" xlink:href="#HelveticaWorld-Regular-2e"/>
       <use x="83.398438" xlink:href="#HelveticaWorld-Regular-31"/>
      </g>
     </g>
    </g>
    <g id="ytick_3">
     <g id="text_12">
      <!-- 0.2 -->
      <g style="fill:#262626;" transform="translate(416.960233 372.716042)scale(0.28 -0.28)">
       <use xlink:href="#HelveticaWorld-Regular-30"/>
       <use x="55.615234" xlink:href="#HelveticaWorld-Regular-2e"/>
       <use x="83.398438" xlink:href="#HelveticaWorld-Regular-32"/>
      </g>
     </g>
    </g>
    <g id="ytick_4">
     <g id="text_13">
      <!-- 0.3 -->
      <g style="fill:#262626;" transform="translate(416.960233 280.049375)scale(0.28 -0.28)">
       <use xlink:href="#HelveticaWorld-Regular-30"/>
       <use x="55.615234" xlink:href="#HelveticaWorld-Regular-2e"/>
       <use x="83.398438" xlink:href="#HelveticaWorld-Regular-33"/>
      </g>
     </g>
    </g>
    <g id="ytick_5">
     <g id="text_14">
      <!-- 0.4 -->
      <g style="fill:#262626;" transform="translate(416.960233 187.382708)scale(0.28 -0.28)">
       <use xlink:href="#HelveticaWorld-Regular-30"/>
       <use x="55.615234" xlink:href="#HelveticaWorld-Regular-2e"/>
       <use x="83.398438" xlink:href="#HelveticaWorld-Regular-34"/>
      </g>
     </g>
    </g>
    <g id="text_15">
     <!-- Classifier Information (a.u.) -->
     <g style="fill:#262626;" transform="translate(406.335233 528.865)rotate(-90)scale(0.32 -0.32)">
      <defs>
       <path d="M 3713 3213 
Q 3609 3681 3279 3923 
Q 2950 4166 2425 4166 
Q 1747 4166 1334 3673 
Q 922 3181 922 2344 
Q 922 1375 1312 901 
Q 1703 428 2444 428 
Q 2931 428 3282 751 
Q 3634 1075 3756 1691 
L 4359 1691 
Q 4238 806 3688 342 
Q 3138 -122 2350 -122 
Q 1409 -122 845 525 
Q 281 1172 281 2322 
Q 281 3431 870 4073 
Q 1459 4716 2425 4716 
Q 3225 4716 3722 4303 
Q 4219 3891 4313 3213 
L 3713 3213 
z
" id="HelveticaWorld-Regular-43" transform="scale(0.015625)"/>
       <path d="M 2456 1709 
Q 2394 1644 2211 1603 
Q 2028 1563 1528 1497 
Q 1159 1453 986 1315 
Q 813 1178 813 953 
Q 813 678 959 525 
Q 1106 372 1428 372 
Q 1831 372 2143 601 
Q 2456 831 2456 1159 
L 2456 1709 
z
M 397 2328 
Q 416 2894 764 3169 
Q 1113 3444 1778 3444 
Q 2309 3444 2668 3203 
Q 3028 2963 3028 2509 
L 3028 581 
Q 3028 384 3206 384 
Q 3278 384 3391 409 
L 3391 0 
Q 3238 -63 3072 -63 
Q 2784 -63 2643 60 
Q 2503 184 2497 447 
Q 2016 -97 1288 -97 
Q 813 -97 525 172 
Q 238 441 238 872 
Q 238 1313 488 1584 
Q 738 1856 1216 1913 
L 2209 2034 
Q 2478 2075 2478 2431 
Q 2478 2694 2283 2834 
Q 2088 2975 1691 2975 
Q 1338 2975 1148 2819 
Q 959 2663 922 2328 
L 397 2328 
z
" id="HelveticaWorld-Regular-61" transform="scale(0.015625)"/>
       <path d="M 422 3956 
L 422 4594 
L 984 4594 
L 984 3956 
L 422 3956 
z
M 984 0 
L 422 0 
L 422 3347 
L 984 3347 
L 984 0 
z
" id="HelveticaWorld-Regular-69" transform="scale(0.015625)"/>
       <path d="M 1141 0 
L 519 0 
L 519 4594 
L 1141 4594 
L 1141 0 
z
" id="HelveticaWorld-Regular-49" transform="scale(0.015625)"/>
       <path d="M 3150 0 
L 2584 0 
L 2584 2059 
Q 2584 2534 2418 2736 
Q 2253 2938 1869 2938 
Q 1491 2938 1237 2650 
Q 984 2363 984 1825 
L 984 0 
L 422 0 
L 422 3347 
L 953 3347 
L 953 2875 
L 966 2875 
Q 1363 3444 1978 3444 
Q 2547 3444 2848 3142 
Q 3150 2841 3150 2278 
L 3150 0 
z
" id="HelveticaWorld-Regular-6e" transform="scale(0.015625)"/>
       <path d="M 1100 2881 
L 1100 703 
Q 1100 575 1170 508 
Q 1241 441 1422 441 
L 1638 441 
L 1638 0 
Q 1331 -44 1216 -44 
Q 863 -44 700 125 
Q 538 294 538 672 
L 538 2881 
L 84 2881 
L 84 3347 
L 538 3347 
L 538 4281 
L 1100 4281 
L 1100 3347 
L 1638 3347 
L 1638 2881 
L 1100 2881 
z
" id="HelveticaWorld-Regular-74" transform="scale(0.015625)"/>
       <path d="M 1906 4691 
Q 1338 3675 1188 3037 
Q 1038 2400 1038 1631 
Q 1038 872 1242 215 
Q 1447 -441 1913 -1325 
L 1538 -1325 
Q 1006 -550 720 140 
Q 434 831 434 1672 
Q 434 2463 693 3180 
Q 953 3897 1516 4691 
L 1906 4691 
z
" id="HelveticaWorld-Regular-28" transform="scale(0.015625)"/>
       <path d="M 225 -1325 
Q 788 -306 938 330 
Q 1088 966 1088 1734 
Q 1088 2497 886 3153 
Q 684 3809 219 4691 
L 588 4691 
Q 1125 3916 1411 3225 
Q 1697 2534 1697 1697 
Q 1697 903 1437 186 
Q 1178 -531 616 -1325 
L 225 -1325 
z
" id="HelveticaWorld-Regular-29" transform="scale(0.015625)"/>
      </defs>
      <use xlink:href="#HelveticaWorld-Regular-43"/>
      <use x="72.314453" xlink:href="#HelveticaWorld-Regular-6c"/>
      <use x="94.335938" xlink:href="#HelveticaWorld-Regular-61"/>
      <use x="149.267578" xlink:href="#HelveticaWorld-Regular-73"/>
      <use x="199.267578" xlink:href="#HelveticaWorld-Regular-73"/>
      <use x="249.267578" xlink:href="#HelveticaWorld-Regular-69"/>
      <use x="271.289062" xlink:href="#HelveticaWorld-Regular-66"/>
      <use x="298.974609" xlink:href="#HelveticaWorld-Regular-69"/>
      <use x="320.996094" xlink:href="#HelveticaWorld-Regular-65"/>
      <use x="376.416016" xlink:href="#HelveticaWorld-Regular-72"/>
      <use x="408.984375" xlink:href="#HelveticaWorld-Regular-20"/>
      <use x="433.398438" xlink:href="#HelveticaWorld-Regular-49"/>
      <use x="459.179688" xlink:href="#HelveticaWorld-Regular-6e"/>
      <use x="514.355469" xlink:href="#HelveticaWorld-Regular-66"/>
      <use x="540.041016" xlink:href="#HelveticaWorld-Regular-6f"/>
      <use x="595.949219" xlink:href="#HelveticaWorld-Regular-72"/>
      <use x="628.517578" xlink:href="#HelveticaWorld-Regular-6d"/>
      <use x="711.525391" xlink:href="#HelveticaWorld-Regular-61"/>
      <use x="766.457031" xlink:href="#HelveticaWorld-Regular-74"/>
      <use x="794.142578" xlink:href="#HelveticaWorld-Regular-69"/>
      <use x="816.164062" xlink:href="#HelveticaWorld-Regular-6f"/>
      <use x="872.072266" xlink:href="#HelveticaWorld-Regular-6e"/>
      <use x="927.248047" xlink:href="#HelveticaWorld-Regular-20"/>
      <use x="951.662109" xlink:href="#HelveticaWorld-Regular-28"/>
      <use x="984.962891" xlink:href="#HelveticaWorld-Regular-61"/>
      <use x="1039.894531" xlink:href="#HelveticaWorld-Regular-2e"/>
      <use x="1067.677734" xlink:href="#HelveticaWorld-Regular-75"/>
      <use x="1122.462891" xlink:href="#HelveticaWorld-Regular-2e"/>
      <use x="1150.246094" xlink:href="#HelveticaWorld-Regular-29"/>
     </g>
    </g>
   </g>
   <g id="PolyCollection_1">
    <defs>
     <path d="M 481.167554 -515.082114 
L 481.167554 -465.735883 
L 496.665284 -500.684185 
L 512.163014 -508.958517 
L 527.660743 -519.369885 
L 543.158473 -516.858942 
L 558.656203 -518.379894 
L 574.153933 -515.654819 
L 589.651663 -513.886592 
L 605.149392 -511.372775 
L 620.647122 -505.741869 
L 636.144852 -500.145064 
L 651.642582 -494.632923 
L 667.140311 -493.794846 
L 682.638041 -486.185056 
L 698.135771 -484.143855 
L 713.633501 -476.79582 
L 729.131231 -474.009256 
L 744.62896 -466.858428 
L 760.12669 -464.147145 
L 775.62442 -458.290269 
L 791.12215 -454.35101 
L 806.619879 -447.444828 
L 822.117609 -442.054468 
L 837.615339 -438.275617 
L 853.113069 -432.735701 
L 868.610798 -427.968544 
L 884.108528 -421.187921 
L 899.606258 -418.397985 
L 915.103988 -411.316127 
L 930.601718 -408.174537 
L 946.099447 -403.172609 
L 961.597177 -398.706247 
L 977.094907 -396.964346 
L 992.592637 -390.21359 
L 1008.090366 -386.002997 
L 1023.588096 -384.911145 
L 1039.085826 -379.48002 
L 1054.583556 -376.920486 
L 1070.081286 -375.42997 
L 1085.579015 -371.423651 
L 1101.076745 -370.954388 
L 1116.574475 -369.00226 
L 1132.072205 -366.388591 
L 1147.569934 -366.695118 
L 1163.067664 -362.497699 
L 1178.565394 -363.479051 
L 1194.063124 -363.254772 
L 1209.560854 -361.220563 
L 1225.058583 -363.281628 
L 1240.556313 -361.678946 
L 1256.054043 -360.727305 
L 1271.551773 -361.49346 
L 1287.049502 -360.120835 
L 1302.547232 -360.058026 
L 1318.044962 -361.688369 
L 1333.542692 -360.952359 
L 1349.040421 -359.244914 
L 1364.538151 -360.973759 
L 1380.035881 -359.755898 
L 1395.533611 -360.211779 
L 1395.533611 -398.569076 
L 1395.533611 -398.569076 
L 1380.035881 -401.810243 
L 1364.538151 -401.483359 
L 1349.040421 -399.15805 
L 1333.542692 -400.828726 
L 1318.044962 -400.670122 
L 1302.547232 -399.191187 
L 1287.049502 -400.451952 
L 1271.551773 -400.836104 
L 1256.054043 -402.37103 
L 1240.556313 -402.300148 
L 1225.058583 -401.46176 
L 1209.560854 -401.002478 
L 1194.063124 -402.856201 
L 1178.565394 -403.990473 
L 1163.067664 -404.112851 
L 1147.569934 -404.794947 
L 1132.072205 -405.523364 
L 1116.574475 -409.188295 
L 1101.076745 -409.614618 
L 1085.579015 -411.163998 
L 1070.081286 -413.824105 
L 1054.583556 -417.876467 
L 1039.085826 -419.732624 
L 1023.588096 -425.8726 
L 1008.090366 -427.61354 
L 992.592637 -432.82927 
L 977.094907 -435.498102 
L 961.597177 -441.861332 
L 946.099447 -443.738775 
L 930.601718 -451.160163 
L 915.103988 -455.859288 
L 899.606258 -460.543222 
L 884.108528 -467.030249 
L 868.610798 -475.787931 
L 853.113069 -477.826667 
L 837.615339 -483.509075 
L 822.117609 -490.847212 
L 806.619879 -497.279063 
L 791.12215 -502.055427 
L 775.62442 -507.597661 
L 760.12669 -511.821131 
L 744.62896 -518.435058 
L 729.131231 -523.672276 
L 713.633501 -528.75518 
L 698.135771 -533.576771 
L 682.638041 -537.80346 
L 667.140311 -542.313931 
L 651.642582 -546.682523 
L 636.144852 -554.751515 
L 620.647122 -557.444545 
L 605.149392 -563.88778 
L 589.651663 -566.87711 
L 574.153933 -570.040341 
L 558.656203 -571.485821 
L 543.158473 -569.107838 
L 527.660743 -570.361704 
L 512.163014 -563.274715 
L 496.665284 -554.01626 
L 481.167554 -515.082114 
z
" id="m95975e9d25" style="stroke:#1b9e77;stroke-opacity:0.2;"/>
    </defs>
    <g clip-path="url(#p2bf7d47310)">
     <use style="fill:#1b9e77;fill-opacity:0.2;stroke:#1b9e77;stroke-opacity:0.2;" x="0" xlink:href="#m95975e9d25" y="720"/>
    </g>
   </g>
   <g id="PolyCollection_2">
    <defs>
     <path d="M 481.167554 -483.795811 
L 481.167554 -438.136477 
L 496.665284 -451.603109 
L 512.163014 -450.149182 
L 527.660743 -451.694223 
L 543.158473 -446.036864 
L 558.656203 -445.711508 
L 574.153933 -444.46227 
L 589.651663 -443.004624 
L 605.149392 -438.596267 
L 620.647122 -433.231409 
L 636.144852 -430.138175 
L 651.642582 -422.997692 
L 667.140311 -421.434648 
L 682.638041 -420.556308 
L 698.135771 -414.903414 
L 713.633501 -412.315426 
L 729.131231 -407.936706 
L 744.62896 -405.975472 
L 760.12669 -402.965253 
L 775.62442 -397.235146 
L 791.12215 -395.499724 
L 806.619879 -388.691122 
L 822.117609 -384.686478 
L 837.615339 -380.573422 
L 853.113069 -379.974023 
L 868.610798 -373.352258 
L 884.108528 -370.032183 
L 899.606258 -367.036038 
L 915.103988 -361.394777 
L 930.601718 -355.732254 
L 946.099447 -350.429177 
L 961.597177 -345.811742 
L 977.094907 -341.644136 
L 992.592637 -341.224569 
L 1008.090366 -335.490429 
L 1023.588096 -331.488242 
L 1039.085826 -329.071563 
L 1054.583556 -327.315092 
L 1070.081286 -326.517862 
L 1085.579015 -321.922135 
L 1101.076745 -320.38759 
L 1116.574475 -319.76244 
L 1132.072205 -318.767116 
L 1147.569934 -318.618958 
L 1163.067664 -316.647669 
L 1178.565394 -316.549845 
L 1194.063124 -314.235451 
L 1209.560854 -314.39956 
L 1225.058583 -314.30639 
L 1240.556313 -312.841725 
L 1256.054043 -313.537889 
L 1271.551773 -314.305087 
L 1287.049502 -316.390822 
L 1302.547232 -313.137719 
L 1318.044962 -314.434095 
L 1333.542692 -316.064686 
L 1349.040421 -313.229015 
L 1364.538151 -315.340549 
L 1380.035881 -312.531865 
L 1395.533611 -315.126334 
L 1395.533611 -361.94761 
L 1395.533611 -361.94761 
L 1380.035881 -359.034246 
L 1364.538151 -360.607171 
L 1349.040421 -359.709521 
L 1333.542692 -360.474231 
L 1318.044962 -361.539002 
L 1302.547232 -360.803513 
L 1287.049502 -360.085463 
L 1271.551773 -358.074545 
L 1256.054043 -359.850887 
L 1240.556313 -361.204168 
L 1225.058583 -358.665849 
L 1209.560854 -360.160247 
L 1194.063124 -361.670258 
L 1178.565394 -361.082412 
L 1163.067664 -362.540068 
L 1147.569934 -363.604023 
L 1132.072205 -366.199416 
L 1116.574475 -367.004044 
L 1101.076745 -365.882335 
L 1085.579015 -369.198805 
L 1070.081286 -371.165318 
L 1054.583556 -372.458652 
L 1039.085826 -376.586297 
L 1023.588096 -379.271201 
L 1008.090366 -382.352554 
L 992.592637 -386.11783 
L 977.094907 -389.807522 
L 961.597177 -395.906844 
L 946.099447 -400.688152 
L 930.601718 -405.239288 
L 915.103988 -409.096341 
L 899.606258 -417.867917 
L 884.108528 -420.253228 
L 868.610798 -423.467242 
L 853.113069 -428.594118 
L 837.615339 -431.482341 
L 822.117609 -435.455487 
L 806.619879 -440.290844 
L 791.12215 -446.566559 
L 775.62442 -449.482132 
L 760.12669 -453.882295 
L 744.62896 -454.518293 
L 729.131231 -459.810825 
L 713.633501 -461.891261 
L 698.135771 -464.034282 
L 682.638041 -468.132272 
L 667.140311 -472.599604 
L 651.642582 -476.763382 
L 636.144852 -480.139717 
L 620.647122 -485.195813 
L 605.149392 -487.82681 
L 589.651663 -494.263432 
L 574.153933 -497.725866 
L 558.656203 -500.152922 
L 543.158473 -496.599807 
L 527.660743 -505.102329 
L 512.163014 -500.233569 
L 496.665284 -500.816457 
L 481.167554 -483.795811 
z
" id="m55805a2771" style="stroke:#d95f02;stroke-opacity:0.2;"/>
    </defs>
    <g clip-path="url(#p2bf7d47310)">
     <use style="fill:#d95f02;fill-opacity:0.2;stroke:#d95f02;stroke-opacity:0.2;" x="0" xlink:href="#m55805a2771" y="720"/>
    </g>
   </g>
   <g id="PathCollection_1">
    <defs>
     <path d="M 0 -6.708204 
L 0 0 
L -5.809475 -3.354102 
L 0 0 
L -5.809475 3.354102 
L 0 0 
L -0 6.708204 
L 0 0 
L 5.809475 3.354102 
L 0 0 
L 5.809475 -3.354102 
L 0 0 
z
" id="m87627292c2" style="stroke:#000000;stroke-width:2;"/>
    </defs>
    <g clip-path="url(#p2bf7d47310)">
     <use style="stroke:#000000;stroke-width:2;" x="512.163014" xlink:href="#m87627292c2" y="529.466667"/>
    </g>
   </g>
   <g id="PathCollection_2">
    <g clip-path="url(#p2bf7d47310)">
     <use style="stroke:#000000;stroke-width:2;" x="543.158473" xlink:href="#m87627292c2" y="529.466667"/>
    </g>
   </g>
   <g id="PathCollection_3">
    <g clip-path="url(#p2bf7d47310)">
     <use style="stroke:#000000;stroke-width:2;" x="558.656203" xlink:href="#m87627292c2" y="529.466667"/>
    </g>
   </g>
   <g id="PathCollection_4">
    <g clip-path="url(#p2bf7d47310)">
     <use style="stroke:#000000;stroke-width:2;" x="574.153933" xlink:href="#m87627292c2" y="529.466667"/>
    </g>
   </g>
   <g id="PathCollection_5">
    <g clip-path="url(#p2bf7d47310)">
     <use style="stroke:#000000;stroke-width:2;" x="589.651663" xlink:href="#m87627292c2" y="529.466667"/>
    </g>
   </g>
   <g id="PathCollection_6">
    <g clip-path="url(#p2bf7d47310)">
     <use style="stroke:#000000;stroke-width:2;" x="605.149392" xlink:href="#m87627292c2" y="529.466667"/>
    </g>
   </g>
   <g id="PathCollection_7">
    <g clip-path="url(#p2bf7d47310)">
     <use style="stroke:#000000;stroke-width:2;" x="620.647122" xlink:href="#m87627292c2" y="529.466667"/>
    </g>
   </g>
   <g id="PathCollection_8">
    <g clip-path="url(#p2bf7d47310)">
     <use style="stroke:#000000;stroke-width:2;" x="636.144852" xlink:href="#m87627292c2" y="529.466667"/>
    </g>
   </g>
   <g id="line2d_1">
    <path clip-path="url(#p2bf7d47310)" d="M 481.167554 230.064152 
L 496.665284 191.827033 
L 512.163014 184.56727 
L 527.660743 176.700716 
L 543.158473 176.972293 
L 558.656203 175.050344 
L 574.153933 177.334926 
L 589.651663 179.518113 
L 605.149392 182.783737 
L 620.647122 187.584607 
L 636.144852 193.340682 
L 651.642582 198.530934 
L 667.140311 202.72118 
L 682.638041 207.510582 
L 698.135771 212.478203 
L 713.633501 217.152867 
L 729.131231 221.626845 
L 744.62896 227.155659 
L 760.12669 232.187622 
L 775.62442 236.808022 
L 791.12215 242.018739 
L 806.619879 247.400114 
L 822.117609 253.357675 
L 837.615339 259.186466 
L 853.113069 264.709409 
L 868.610798 270.278486 
L 884.108528 275.792017 
L 899.606258 281.178362 
L 915.103988 285.864549 
L 930.601718 290.804348 
L 946.099447 295.28827 
L 961.597177 300.00572 
L 977.094907 304.401224 
L 992.592637 308.676503 
L 1008.090366 312.655939 
L 1023.588096 315.860497 
L 1039.085826 319.325087 
L 1054.583556 322.261729 
L 1070.081286 325.115459 
L 1085.579015 327.691382 
L 1101.076745 329.807929 
L 1116.574475 331.759007 
L 1132.072205 333.360388 
L 1147.569934 334.68494 
L 1163.067664 335.830294 
L 1178.565394 336.73598 
L 1194.063124 337.475136 
L 1209.560854 337.888806 
L 1225.058583 338.394354 
L 1240.556313 338.73357 
L 1256.054043 339.068992 
L 1271.551773 339.207491 
L 1287.049502 339.286675 
L 1302.547232 339.324434 
L 1318.044962 339.357792 
L 1333.542692 339.357792 
L 1349.040421 339.357792 
L 1364.538151 339.357792 
L 1380.035881 339.357792 
L 1395.533611 339.357792 
" style="fill:none;stroke:#1b9e77;stroke-linecap:round;stroke-width:1.5;"/>
    <defs>
     <path d="M 0 5 
C 1.326016 5 2.597899 4.473168 3.535534 3.535534 
C 4.473168 2.597899 5 1.326016 5 0 
C 5 -1.326016 4.473168 -2.597899 3.535534 -3.535534 
C 2.597899 -4.473168 1.326016 -5 0 -5 
C -1.326016 -5 -2.597899 -4.473168 -3.535534 -3.535534 
C -4.473168 -2.597899 -5 -1.326016 -5 0 
C -5 1.326016 -4.473168 2.597899 -3.535534 3.535534 
C -2.597899 4.473168 -1.326016 5 0 5 
z
" id="maa155fb1df" style="stroke:#000000;stroke-opacity:0;stroke-width:0.75;"/>
    </defs>
    <g clip-path="url(#p2bf7d47310)">
     <use style="fill:#1b9e77;stroke:#000000;stroke-opacity:0;stroke-width:0.75;" x="481.167554" xlink:href="#maa155fb1df" y="230.064152"/>
     <use style="fill:#1b9e77;stroke:#000000;stroke-opacity:0;stroke-width:0.75;" x="496.665284" xlink:href="#maa155fb1df" y="191.827033"/>
     <use style="fill:#1b9e77;stroke:#000000;stroke-opacity:0;stroke-width:0.75;" x="512.163014" xlink:href="#maa155fb1df" y="184.56727"/>
     <use style="fill:#1b9e77;stroke:#000000;stroke-opacity:0;stroke-width:0.75;" x="527.660743" xlink:href="#maa155fb1df" y="176.700716"/>
     <use style="fill:#1b9e77;stroke:#000000;stroke-opacity:0;stroke-width:0.75;" x="543.158473" xlink:href="#maa155fb1df" y="176.972293"/>
     <use style="fill:#1b9e77;stroke:#000000;stroke-opacity:0;stroke-width:0.75;" x="558.656203" xlink:href="#maa155fb1df" y="175.050344"/>
     <use style="fill:#1b9e77;stroke:#000000;stroke-opacity:0;stroke-width:0.75;" x="574.153933" xlink:href="#maa155fb1df" y="177.334926"/>
     <use style="fill:#1b9e77;stroke:#000000;stroke-opacity:0;stroke-width:0.75;" x="589.651663" xlink:href="#maa155fb1df" y="179.518113"/>
     <use style="fill:#1b9e77;stroke:#000000;stroke-opacity:0;stroke-width:0.75;" x="605.149392" xlink:href="#maa155fb1df" y="182.783737"/>
     <use style="fill:#1b9e77;stroke:#000000;stroke-opacity:0;stroke-width:0.75;" x="620.647122" xlink:href="#maa155fb1df" y="187.584607"/>
     <use style="fill:#1b9e77;stroke:#000000;stroke-opacity:0;stroke-width:0.75;" x="636.144852" xlink:href="#maa155fb1df" y="193.340682"/>
     <use style="fill:#1b9e77;stroke:#000000;stroke-opacity:0;stroke-width:0.75;" x="651.642582" xlink:href="#maa155fb1df" y="198.530934"/>
     <use style="fill:#1b9e77;stroke:#000000;stroke-opacity:0;stroke-width:0.75;" x="667.140311" xlink:href="#maa155fb1df" y="202.72118"/>
     <use style="fill:#1b9e77;stroke:#000000;stroke-opacity:0;stroke-width:0.75;" x="682.638041" xlink:href="#maa155fb1df" y="207.510582"/>
     <use style="fill:#1b9e77;stroke:#000000;stroke-opacity:0;stroke-width:0.75;" x="698.135771" xlink:href="#maa155fb1df" y="212.478203"/>
     <use style="fill:#1b9e77;stroke:#000000;stroke-opacity:0;stroke-width:0.75;" x="713.633501" xlink:href="#maa155fb1df" y="217.152867"/>
     <use style="fill:#1b9e77;stroke:#000000;stroke-opacity:0;stroke-width:0.75;" x="729.131231" xlink:href="#maa155fb1df" y="221.626845"/>
     <use style="fill:#1b9e77;stroke:#000000;stroke-opacity:0;stroke-width:0.75;" x="744.62896" xlink:href="#maa155fb1df" y="227.155659"/>
     <use style="fill:#1b9e77;stroke:#000000;stroke-opacity:0;stroke-width:0.75;" x="760.12669" xlink:href="#maa155fb1df" y="232.187622"/>
     <use style="fill:#1b9e77;stroke:#000000;stroke-opacity:0;stroke-width:0.75;" x="775.62442" xlink:href="#maa155fb1df" y="236.808022"/>
     <use style="fill:#1b9e77;stroke:#000000;stroke-opacity:0;stroke-width:0.75;" x="791.12215" xlink:href="#maa155fb1df" y="242.018739"/>
     <use style="fill:#1b9e77;stroke:#000000;stroke-opacity:0;stroke-width:0.75;" x="806.619879" xlink:href="#maa155fb1df" y="247.400114"/>
     <use style="fill:#1b9e77;stroke:#000000;stroke-opacity:0;stroke-width:0.75;" x="822.117609" xlink:href="#maa155fb1df" y="253.357675"/>
     <use style="fill:#1b9e77;stroke:#000000;stroke-opacity:0;stroke-width:0.75;" x="837.615339" xlink:href="#maa155fb1df" y="259.186466"/>
     <use style="fill:#1b9e77;stroke:#000000;stroke-opacity:0;stroke-width:0.75;" x="853.113069" xlink:href="#maa155fb1df" y="264.709409"/>
     <use style="fill:#1b9e77;stroke:#000000;stroke-opacity:0;stroke-width:0.75;" x="868.610798" xlink:href="#maa155fb1df" y="270.278486"/>
     <use style="fill:#1b9e77;stroke:#000000;stroke-opacity:0;stroke-width:0.75;" x="884.108528" xlink:href="#maa155fb1df" y="275.792017"/>
     <use style="fill:#1b9e77;stroke:#000000;stroke-opacity:0;stroke-width:0.75;" x="899.606258" xlink:href="#maa155fb1df" y="281.178362"/>
     <use style="fill:#1b9e77;stroke:#000000;stroke-opacity:0;stroke-width:0.75;" x="915.103988" xlink:href="#maa155fb1df" y="285.864549"/>
     <use style="fill:#1b9e77;stroke:#000000;stroke-opacity:0;stroke-width:0.75;" x="930.601718" xlink:href="#maa155fb1df" y="290.804348"/>
     <use style="fill:#1b9e77;stroke:#000000;stroke-opacity:0;stroke-width:0.75;" x="946.099447" xlink:href="#maa155fb1df" y="295.28827"/>
     <use style="fill:#1b9e77;stroke:#000000;stroke-opacity:0;stroke-width:0.75;" x="961.597177" xlink:href="#maa155fb1df" y="300.00572"/>
     <use style="fill:#1b9e77;stroke:#000000;stroke-opacity:0;stroke-width:0.75;" x="977.094907" xlink:href="#maa155fb1df" y="304.401224"/>
     <use style="fill:#1b9e77;stroke:#000000;stroke-opacity:0;stroke-width:0.75;" x="992.592637" xlink:href="#maa155fb1df" y="308.676503"/>
     <use style="fill:#1b9e77;stroke:#000000;stroke-opacity:0;stroke-width:0.75;" x="1008.090366" xlink:href="#maa155fb1df" y="312.655939"/>
     <use style="fill:#1b9e77;stroke:#000000;stroke-opacity:0;stroke-width:0.75;" x="1023.588096" xlink:href="#maa155fb1df" y="315.860497"/>
     <use style="fill:#1b9e77;stroke:#000000;stroke-opacity:0;stroke-width:0.75;" x="1039.085826" xlink:href="#maa155fb1df" y="319.325087"/>
     <use style="fill:#1b9e77;stroke:#000000;stroke-opacity:0;stroke-width:0.75;" x="1054.583556" xlink:href="#maa155fb1df" y="322.261729"/>
     <use style="fill:#1b9e77;stroke:#000000;stroke-opacity:0;stroke-width:0.75;" x="1070.081286" xlink:href="#maa155fb1df" y="325.115459"/>
     <use style="fill:#1b9e77;stroke:#000000;stroke-opacity:0;stroke-width:0.75;" x="1085.579015" xlink:href="#maa155fb1df" y="327.691382"/>
     <use style="fill:#1b9e77;stroke:#000000;stroke-opacity:0;stroke-width:0.75;" x="1101.076745" xlink:href="#maa155fb1df" y="329.807929"/>
     <use style="fill:#1b9e77;stroke:#000000;stroke-opacity:0;stroke-width:0.75;" x="1116.574475" xlink:href="#maa155fb1df" y="331.759007"/>
     <use style="fill:#1b9e77;stroke:#000000;stroke-opacity:0;stroke-width:0.75;" x="1132.072205" xlink:href="#maa155fb1df" y="333.360388"/>
     <use style="fill:#1b9e77;stroke:#000000;stroke-opacity:0;stroke-width:0.75;" x="1147.569934" xlink:href="#maa155fb1df" y="334.68494"/>
     <use style="fill:#1b9e77;stroke:#000000;stroke-opacity:0;stroke-width:0.75;" x="1163.067664" xlink:href="#maa155fb1df" y="335.830294"/>
     <use style="fill:#1b9e77;stroke:#000000;stroke-opacity:0;stroke-width:0.75;" x="1178.565394" xlink:href="#maa155fb1df" y="336.73598"/>
     <use style="fill:#1b9e77;stroke:#000000;stroke-opacity:0;stroke-width:0.75;" x="1194.063124" xlink:href="#maa155fb1df" y="337.475136"/>
     <use style="fill:#1b9e77;stroke:#000000;stroke-opacity:0;stroke-width:0.75;" x="1209.560854" xlink:href="#maa155fb1df" y="337.888806"/>
     <use style="fill:#1b9e77;stroke:#000000;stroke-opacity:0;stroke-width:0.75;" x="1225.058583" xlink:href="#maa155fb1df" y="338.394354"/>
     <use style="fill:#1b9e77;stroke:#000000;stroke-opacity:0;stroke-width:0.75;" x="1240.556313" xlink:href="#maa155fb1df" y="338.73357"/>
     <use style="fill:#1b9e77;stroke:#000000;stroke-opacity:0;stroke-width:0.75;" x="1256.054043" xlink:href="#maa155fb1df" y="339.068992"/>
     <use style="fill:#1b9e77;stroke:#000000;stroke-opacity:0;stroke-width:0.75;" x="1271.551773" xlink:href="#maa155fb1df" y="339.207491"/>
     <use style="fill:#1b9e77;stroke:#000000;stroke-opacity:0;stroke-width:0.75;" x="1287.049502" xlink:href="#maa155fb1df" y="339.286675"/>
     <use style="fill:#1b9e77;stroke:#000000;stroke-opacity:0;stroke-width:0.75;" x="1302.547232" xlink:href="#maa155fb1df" y="339.324434"/>
     <use style="fill:#1b9e77;stroke:#000000;stroke-opacity:0;stroke-width:0.75;" x="1318.044962" xlink:href="#maa155fb1df" y="339.357792"/>
     <use style="fill:#1b9e77;stroke:#000000;stroke-opacity:0;stroke-width:0.75;" x="1333.542692" xlink:href="#maa155fb1df" y="339.357792"/>
     <use style="fill:#1b9e77;stroke:#000000;stroke-opacity:0;stroke-width:0.75;" x="1349.040421" xlink:href="#maa155fb1df" y="339.357792"/>
     <use style="fill:#1b9e77;stroke:#000000;stroke-opacity:0;stroke-width:0.75;" x="1364.538151" xlink:href="#maa155fb1df" y="339.357792"/>
     <use style="fill:#1b9e77;stroke:#000000;stroke-opacity:0;stroke-width:0.75;" x="1380.035881" xlink:href="#maa155fb1df" y="339.357792"/>
     <use style="fill:#1b9e77;stroke:#000000;stroke-opacity:0;stroke-width:0.75;" x="1395.533611" xlink:href="#maa155fb1df" y="339.357792"/>
    </g>
   </g>
   <g id="line2d_2">
    <path clip-path="url(#p2bf7d47310)" d="M 481.167554 259.275247 
L 496.665284 245.272932 
L 512.163014 245.243568 
L 527.660743 241.677739 
L 543.158473 247.759872 
L 558.656203 248.274571 
L 574.153933 249.630354 
L 589.651663 252.05668 
L 605.149392 257.042492 
L 620.647122 261.145754 
L 636.144852 265.899727 
L 651.642582 270.138616 
L 667.140311 273.738304 
L 682.638041 277.570912 
L 698.135771 280.353935 
L 713.633501 282.442332 
L 729.131231 285.910994 
L 744.62896 289.053943 
L 760.12669 292.123265 
L 775.62442 296.707754 
L 791.12215 300.311174 
L 806.619879 305.169546 
L 822.117609 308.934608 
L 837.615339 312.42123 
L 853.113069 316.474177 
L 868.610798 321.369886 
L 884.108528 324.898842 
L 899.606258 329.998417 
L 915.103988 335.290337 
L 930.601718 339.459878 
L 946.099447 344.630197 
L 961.597177 349.073657 
L 977.094907 353.140374 
L 992.592637 356.641166 
L 1008.090366 360.549975 
L 1023.588096 363.837301 
L 1039.085826 366.682712 
L 1054.583556 369.626899 
L 1070.081286 372.002927 
L 1085.579015 374.203781 
L 1101.076745 375.609904 
L 1116.574475 377.114408 
L 1132.072205 378.042007 
L 1147.569934 379.185366 
L 1163.067664 380.214395 
L 1178.565394 381.055588 
L 1194.063124 381.849369 
L 1209.560854 382.111637 
L 1225.058583 382.448924 
L 1240.556313 382.577101 
L 1256.054043 382.744521 
L 1271.551773 382.838063 
L 1287.049502 382.859116 
L 1302.547232 382.885409 
L 1318.044962 382.884579 
L 1333.542692 382.884579 
L 1349.040421 382.884579 
L 1364.538151 382.884579 
L 1380.035881 382.884579 
L 1395.533611 382.884579 
" style="fill:none;stroke:#d95f02;stroke-linecap:round;stroke-width:1.5;"/>
    <defs>
     <path d="M 0 5 
C 1.326016 5 2.597899 4.473168 3.535534 3.535534 
C 4.473168 2.597899 5 1.326016 5 0 
C 5 -1.326016 4.473168 -2.597899 3.535534 -3.535534 
C 2.597899 -4.473168 1.326016 -5 0 -5 
C -1.326016 -5 -2.597899 -4.473168 -3.535534 -3.535534 
C -4.473168 -2.597899 -5 -1.326016 -5 0 
C -5 1.326016 -4.473168 2.597899 -3.535534 3.535534 
C -2.597899 4.473168 -1.326016 5 0 5 
z
" id="mf65b8bba78" style="stroke:#000000;stroke-opacity:0;stroke-width:0.75;"/>
    </defs>
    <g clip-path="url(#p2bf7d47310)">
     <use style="fill:#d95f02;stroke:#000000;stroke-opacity:0;stroke-width:0.75;" x="481.167554" xlink:href="#mf65b8bba78" y="259.275247"/>
     <use style="fill:#d95f02;stroke:#000000;stroke-opacity:0;stroke-width:0.75;" x="496.665284" xlink:href="#mf65b8bba78" y="245.272932"/>
     <use style="fill:#d95f02;stroke:#000000;stroke-opacity:0;stroke-width:0.75;" x="512.163014" xlink:href="#mf65b8bba78" y="245.243568"/>
     <use style="fill:#d95f02;stroke:#000000;stroke-opacity:0;stroke-width:0.75;" x="527.660743" xlink:href="#mf65b8bba78" y="241.677739"/>
     <use style="fill:#d95f02;stroke:#000000;stroke-opacity:0;stroke-width:0.75;" x="543.158473" xlink:href="#mf65b8bba78" y="247.759872"/>
     <use style="fill:#d95f02;stroke:#000000;stroke-opacity:0;stroke-width:0.75;" x="558.656203" xlink:href="#mf65b8bba78" y="248.274571"/>
     <use style="fill:#d95f02;stroke:#000000;stroke-opacity:0;stroke-width:0.75;" x="574.153933" xlink:href="#mf65b8bba78" y="249.630354"/>
     <use style="fill:#d95f02;stroke:#000000;stroke-opacity:0;stroke-width:0.75;" x="589.651663" xlink:href="#mf65b8bba78" y="252.05668"/>
     <use style="fill:#d95f02;stroke:#000000;stroke-opacity:0;stroke-width:0.75;" x="605.149392" xlink:href="#mf65b8bba78" y="257.042492"/>
     <use style="fill:#d95f02;stroke:#000000;stroke-opacity:0;stroke-width:0.75;" x="620.647122" xlink:href="#mf65b8bba78" y="261.145754"/>
     <use style="fill:#d95f02;stroke:#000000;stroke-opacity:0;stroke-width:0.75;" x="636.144852" xlink:href="#mf65b8bba78" y="265.899727"/>
     <use style="fill:#d95f02;stroke:#000000;stroke-opacity:0;stroke-width:0.75;" x="651.642582" xlink:href="#mf65b8bba78" y="270.138616"/>
     <use style="fill:#d95f02;stroke:#000000;stroke-opacity:0;stroke-width:0.75;" x="667.140311" xlink:href="#mf65b8bba78" y="273.738304"/>
     <use style="fill:#d95f02;stroke:#000000;stroke-opacity:0;stroke-width:0.75;" x="682.638041" xlink:href="#mf65b8bba78" y="277.570912"/>
     <use style="fill:#d95f02;stroke:#000000;stroke-opacity:0;stroke-width:0.75;" x="698.135771" xlink:href="#mf65b8bba78" y="280.353935"/>
     <use style="fill:#d95f02;stroke:#000000;stroke-opacity:0;stroke-width:0.75;" x="713.633501" xlink:href="#mf65b8bba78" y="282.442332"/>
     <use style="fill:#d95f02;stroke:#000000;stroke-opacity:0;stroke-width:0.75;" x="729.131231" xlink:href="#mf65b8bba78" y="285.910994"/>
     <use style="fill:#d95f02;stroke:#000000;stroke-opacity:0;stroke-width:0.75;" x="744.62896" xlink:href="#mf65b8bba78" y="289.053943"/>
     <use style="fill:#d95f02;stroke:#000000;stroke-opacity:0;stroke-width:0.75;" x="760.12669" xlink:href="#mf65b8bba78" y="292.123265"/>
     <use style="fill:#d95f02;stroke:#000000;stroke-opacity:0;stroke-width:0.75;" x="775.62442" xlink:href="#mf65b8bba78" y="296.707754"/>
     <use style="fill:#d95f02;stroke:#000000;stroke-opacity:0;stroke-width:0.75;" x="791.12215" xlink:href="#mf65b8bba78" y="300.311174"/>
     <use style="fill:#d95f02;stroke:#000000;stroke-opacity:0;stroke-width:0.75;" x="806.619879" xlink:href="#mf65b8bba78" y="305.169546"/>
     <use style="fill:#d95f02;stroke:#000000;stroke-opacity:0;stroke-width:0.75;" x="822.117609" xlink:href="#mf65b8bba78" y="308.934608"/>
     <use style="fill:#d95f02;stroke:#000000;stroke-opacity:0;stroke-width:0.75;" x="837.615339" xlink:href="#mf65b8bba78" y="312.42123"/>
     <use style="fill:#d95f02;stroke:#000000;stroke-opacity:0;stroke-width:0.75;" x="853.113069" xlink:href="#mf65b8bba78" y="316.474177"/>
     <use style="fill:#d95f02;stroke:#000000;stroke-opacity:0;stroke-width:0.75;" x="868.610798" xlink:href="#mf65b8bba78" y="321.369886"/>
     <use style="fill:#d95f02;stroke:#000000;stroke-opacity:0;stroke-width:0.75;" x="884.108528" xlink:href="#mf65b8bba78" y="324.898842"/>
     <use style="fill:#d95f02;stroke:#000000;stroke-opacity:0;stroke-width:0.75;" x="899.606258" xlink:href="#mf65b8bba78" y="329.998417"/>
     <use style="fill:#d95f02;stroke:#000000;stroke-opacity:0;stroke-width:0.75;" x="915.103988" xlink:href="#mf65b8bba78" y="335.290337"/>
     <use style="fill:#d95f02;stroke:#000000;stroke-opacity:0;stroke-width:0.75;" x="930.601718" xlink:href="#mf65b8bba78" y="339.459878"/>
     <use style="fill:#d95f02;stroke:#000000;stroke-opacity:0;stroke-width:0.75;" x="946.099447" xlink:href="#mf65b8bba78" y="344.630197"/>
     <use style="fill:#d95f02;stroke:#000000;stroke-opacity:0;stroke-width:0.75;" x="961.597177" xlink:href="#mf65b8bba78" y="349.073657"/>
     <use style="fill:#d95f02;stroke:#000000;stroke-opacity:0;stroke-width:0.75;" x="977.094907" xlink:href="#mf65b8bba78" y="353.140374"/>
     <use style="fill:#d95f02;stroke:#000000;stroke-opacity:0;stroke-width:0.75;" x="992.592637" xlink:href="#mf65b8bba78" y="356.641166"/>
     <use style="fill:#d95f02;stroke:#000000;stroke-opacity:0;stroke-width:0.75;" x="1008.090366" xlink:href="#mf65b8bba78" y="360.549975"/>
     <use style="fill:#d95f02;stroke:#000000;stroke-opacity:0;stroke-width:0.75;" x="1023.588096" xlink:href="#mf65b8bba78" y="363.837301"/>
     <use style="fill:#d95f02;stroke:#000000;stroke-opacity:0;stroke-width:0.75;" x="1039.085826" xlink:href="#mf65b8bba78" y="366.682712"/>
     <use style="fill:#d95f02;stroke:#000000;stroke-opacity:0;stroke-width:0.75;" x="1054.583556" xlink:href="#mf65b8bba78" y="369.626899"/>
     <use style="fill:#d95f02;stroke:#000000;stroke-opacity:0;stroke-width:0.75;" x="1070.081286" xlink:href="#mf65b8bba78" y="372.002927"/>
     <use style="fill:#d95f02;stroke:#000000;stroke-opacity:0;stroke-width:0.75;" x="1085.579015" xlink:href="#mf65b8bba78" y="374.203781"/>
     <use style="fill:#d95f02;stroke:#000000;stroke-opacity:0;stroke-width:0.75;" x="1101.076745" xlink:href="#mf65b8bba78" y="375.609904"/>
     <use style="fill:#d95f02;stroke:#000000;stroke-opacity:0;stroke-width:0.75;" x="1116.574475" xlink:href="#mf65b8bba78" y="377.114408"/>
     <use style="fill:#d95f02;stroke:#000000;stroke-opacity:0;stroke-width:0.75;" x="1132.072205" xlink:href="#mf65b8bba78" y="378.042007"/>
     <use style="fill:#d95f02;stroke:#000000;stroke-opacity:0;stroke-width:0.75;" x="1147.569934" xlink:href="#mf65b8bba78" y="379.185366"/>
     <use style="fill:#d95f02;stroke:#000000;stroke-opacity:0;stroke-width:0.75;" x="1163.067664" xlink:href="#mf65b8bba78" y="380.214395"/>
     <use style="fill:#d95f02;stroke:#000000;stroke-opacity:0;stroke-width:0.75;" x="1178.565394" xlink:href="#mf65b8bba78" y="381.055588"/>
     <use style="fill:#d95f02;stroke:#000000;stroke-opacity:0;stroke-width:0.75;" x="1194.063124" xlink:href="#mf65b8bba78" y="381.849369"/>
     <use style="fill:#d95f02;stroke:#000000;stroke-opacity:0;stroke-width:0.75;" x="1209.560854" xlink:href="#mf65b8bba78" y="382.111637"/>
     <use style="fill:#d95f02;stroke:#000000;stroke-opacity:0;stroke-width:0.75;" x="1225.058583" xlink:href="#mf65b8bba78" y="382.448924"/>
     <use style="fill:#d95f02;stroke:#000000;stroke-opacity:0;stroke-width:0.75;" x="1240.556313" xlink:href="#mf65b8bba78" y="382.577101"/>
     <use style="fill:#d95f02;stroke:#000000;stroke-opacity:0;stroke-width:0.75;" x="1256.054043" xlink:href="#mf65b8bba78" y="382.744521"/>
     <use style="fill:#d95f02;stroke:#000000;stroke-opacity:0;stroke-width:0.75;" x="1271.551773" xlink:href="#mf65b8bba78" y="382.838063"/>
     <use style="fill:#d95f02;stroke:#000000;stroke-opacity:0;stroke-width:0.75;" x="1287.049502" xlink:href="#mf65b8bba78" y="382.859116"/>
     <use style="fill:#d95f02;stroke:#000000;stroke-opacity:0;stroke-width:0.75;" x="1302.547232" xlink:href="#mf65b8bba78" y="382.885409"/>
     <use style="fill:#d95f02;stroke:#000000;stroke-opacity:0;stroke-width:0.75;" x="1318.044962" xlink:href="#mf65b8bba78" y="382.884579"/>
     <use style="fill:#d95f02;stroke:#000000;stroke-opacity:0;stroke-width:0.75;" x="1333.542692" xlink:href="#mf65b8bba78" y="382.884579"/>
     <use style="fill:#d95f02;stroke:#000000;stroke-opacity:0;stroke-width:0.75;" x="1349.040421" xlink:href="#mf65b8bba78" y="382.884579"/>
     <use style="fill:#d95f02;stroke:#000000;stroke-opacity:0;stroke-width:0.75;" x="1364.538151" xlink:href="#mf65b8bba78" y="382.884579"/>
     <use style="fill:#d95f02;stroke:#000000;stroke-opacity:0;stroke-width:0.75;" x="1380.035881" xlink:href="#mf65b8bba78" y="382.884579"/>
     <use style="fill:#d95f02;stroke:#000000;stroke-opacity:0;stroke-width:0.75;" x="1395.533611" xlink:href="#mf65b8bba78" y="382.884579"/>
    </g>
   </g>
   <g id="line2d_3"/>
   <g id="line2d_4"/>
   <g id="patch_3">
    <path d="M 462.880233 548 
L 462.880233 131 
" style="fill:none;stroke:#262626;stroke-linecap:square;stroke-linejoin:miter;stroke-width:2;"/>
   </g>
   <g id="patch_4">
    <path d="M 462.880233 548 
L 1413.820932 548 
" style="fill:none;stroke:#262626;stroke-linecap:square;stroke-linejoin:miter;stroke-width:2;"/>
   </g>
   <g id="legend_1">
    <g id="line2d_5">
     <path d="M 1163.269057 167.0325 
L 1219.269057 167.0325 
" style="fill:none;stroke:#1b9e77;stroke-linecap:round;stroke-width:1.5;"/>
    </g>
    <g id="line2d_6">
     <g>
      <use style="fill:#1b9e77;stroke:#000000;stroke-opacity:0;stroke-width:0.75;" x="1191.269057" xlink:href="#maa155fb1df" y="167.0325"/>
     </g>
    </g>
    <g id="text_16">
     <!-- Congruent -->
     <g style="fill:#262626;" transform="translate(1241.669057 176.8325)scale(0.28 -0.28)">
      <defs>
       <path d="M 831 1684 
Q 831 1069 1075 730 
Q 1319 391 1734 391 
Q 2138 391 2394 684 
Q 2650 978 2650 1516 
Q 2650 2222 2426 2580 
Q 2203 2938 1747 2938 
Q 1288 2938 1059 2633 
Q 831 2328 831 1684 
z
M 3188 191 
Q 3188 -616 2800 -1012 
Q 2413 -1409 1631 -1409 
Q 1069 -1409 736 -1150 
Q 403 -891 353 -409 
L 916 -409 
Q 959 -653 1142 -797 
Q 1325 -941 1672 -941 
Q 2144 -941 2384 -687 
Q 2625 -434 2625 134 
L 2625 372 
L 2613 372 
Q 2297 -97 1722 -97 
Q 1006 -97 628 431 
Q 250 959 250 1772 
Q 250 2516 631 2980 
Q 1013 3444 1644 3444 
Q 2278 3444 2644 2875 
L 2656 2875 
L 2656 3347 
L 3188 3347 
L 3188 191 
z
" id="HelveticaWorld-Regular-67" transform="scale(0.015625)"/>
      </defs>
      <use xlink:href="#HelveticaWorld-Regular-43"/>
      <use x="72.314453" xlink:href="#HelveticaWorld-Regular-6f"/>
      <use x="128.222656" xlink:href="#HelveticaWorld-Regular-6e"/>
      <use x="183.398438" xlink:href="#HelveticaWorld-Regular-67"/>
      <use x="239.306641" xlink:href="#HelveticaWorld-Regular-72"/>
      <use x="271.875" xlink:href="#HelveticaWorld-Regular-75"/>
      <use x="326.660156" xlink:href="#HelveticaWorld-Regular-65"/>
      <use x="382.080078" xlink:href="#HelveticaWorld-Regular-6e"/>
      <use x="437.255859" xlink:href="#HelveticaWorld-Regular-74"/>
     </g>
    </g>
    <g id="line2d_7">
     <path d="M 1163.269057 207.295625 
L 1219.269057 207.295625 
" style="fill:none;stroke:#d95f02;stroke-linecap:round;stroke-width:1.5;"/>
    </g>
    <g id="line2d_8">
     <g>
      <use style="fill:#d95f02;stroke:#000000;stroke-opacity:0;stroke-width:0.75;" x="1191.269057" xlink:href="#mf65b8bba78" y="207.295625"/>
     </g>
    </g>
    <g id="text_17">
     <!-- Incongruent -->
     <g style="fill:#262626;" transform="translate(1241.669057 217.095625)scale(0.28 -0.28)">
      <defs>
       <path d="M 2534 2222 
Q 2413 2938 1741 2938 
Q 1325 2938 1072 2605 
Q 819 2272 819 1678 
Q 819 1031 1053 711 
Q 1288 391 1734 391 
Q 2034 391 2253 611 
Q 2472 831 2534 1184 
L 3078 1184 
Q 2994 563 2639 233 
Q 2284 -97 1722 -97 
Q 1063 -97 641 354 
Q 219 806 219 1581 
Q 219 2431 641 2937 
Q 1063 3444 1825 3444 
Q 2381 3444 2711 3111 
Q 3041 2778 3078 2222 
L 2534 2222 
z
" id="HelveticaWorld-Regular-63" transform="scale(0.015625)"/>
      </defs>
      <use xlink:href="#HelveticaWorld-Regular-49"/>
      <use x="25.78125" xlink:href="#HelveticaWorld-Regular-6e"/>
      <use x="80.957031" xlink:href="#HelveticaWorld-Regular-63"/>
      <use x="132.226562" xlink:href="#HelveticaWorld-Regular-6f"/>
      <use x="188.134766" xlink:href="#HelveticaWorld-Regular-6e"/>
      <use x="243.310547" xlink:href="#HelveticaWorld-Regular-67"/>
      <use x="299.21875" xlink:href="#HelveticaWorld-Regular-72"/>
      <use x="331.787109" xlink:href="#HelveticaWorld-Regular-75"/>
      <use x="386.572266" xlink:href="#HelveticaWorld-Regular-65"/>
      <use x="441.992188" xlink:href="#HelveticaWorld-Regular-6e"/>
      <use x="497.167969" xlink:href="#HelveticaWorld-Regular-74"/>
     </g>
    </g>
   </g>
  </g>
  <g id="axes_2">
   <g id="patch_5">
    <path d="M 115.55 668.2 
L 371.830233 668.2 
L 371.830233 10.8 
L 115.55 10.8 
z
" style="fill:#ffffff;"/>
   </g>
   <g id="matplotlib.axis_3">
    <g id="xtick_9"/>
    <g id="text_18">
     <!-- Average -->
     <g style="fill:#262626;" transform="translate(185.500116 702.17)scale(0.32 -0.32)">
      <defs>
       <path d="M 2816 1888 
L 2138 3909 
L 2125 3909 
L 1388 1888 
L 2816 1888 
z
M 1197 1338 
L 716 0 
L 78 0 
L 1806 4594 
L 2509 4594 
L 4172 0 
L 3494 0 
L 3041 1338 
L 1197 1338 
z
" id="HelveticaWorld-Regular-41" transform="scale(0.015625)"/>
       <path d="M 2522 3347 
L 3138 3347 
L 1863 0 
L 1259 0 
L 38 3347 
L 691 3347 
L 1563 622 
L 1575 622 
L 2522 3347 
z
" id="HelveticaWorld-Regular-76" transform="scale(0.015625)"/>
      </defs>
      <use xlink:href="#HelveticaWorld-Regular-41"/>
      <use x="62.824219" xlink:href="#HelveticaWorld-Regular-76"/>
      <use x="110.433594" xlink:href="#HelveticaWorld-Regular-65"/>
      <use x="165.853516" xlink:href="#HelveticaWorld-Regular-72"/>
      <use x="197.421875" xlink:href="#HelveticaWorld-Regular-61"/>
      <use x="252.353516" xlink:href="#HelveticaWorld-Regular-67"/>
      <use x="308.261719" xlink:href="#HelveticaWorld-Regular-65"/>
     </g>
    </g>
   </g>
   <g id="matplotlib.axis_4">
    <g id="ytick_6">
     <g id="text_19">
      <!-- 0.6 -->
      <g style="fill:#262626;" transform="translate(45.32 632.727857)scale(0.32 -0.32)">
       <defs>
        <path d="M 3494 1381 
L 256 1381 
L 256 1850 
L 3494 1850 
L 3494 1381 
z
" id="HelveticaWorld-Regular-2212" transform="scale(0.015625)"/>
       </defs>
       <use xlink:href="#HelveticaWorld-Regular-2212"/>
       <use x="58.59375" xlink:href="#HelveticaWorld-Regular-30"/>
       <use x="114.208984" xlink:href="#HelveticaWorld-Regular-2e"/>
       <use x="141.992188" xlink:href="#HelveticaWorld-Regular-36"/>
      </g>
     </g>
    </g>
    <g id="ytick_7">
     <g id="text_20">
      <!-- 0.4 -->
      <g style="fill:#262626;" transform="translate(45.32 538.813571)scale(0.32 -0.32)">
       <use xlink:href="#HelveticaWorld-Regular-2212"/>
       <use x="58.59375" xlink:href="#HelveticaWorld-Regular-30"/>
       <use x="114.208984" xlink:href="#HelveticaWorld-Regular-2e"/>
       <use x="141.992188" xlink:href="#HelveticaWorld-Regular-34"/>
      </g>
     </g>
    </g>
    <g id="ytick_8">
     <g id="text_21">
      <!-- 0.2 -->
      <g style="fill:#262626;" transform="translate(45.32 444.899286)scale(0.32 -0.32)">
       <use xlink:href="#HelveticaWorld-Regular-2212"/>
       <use x="58.59375" xlink:href="#HelveticaWorld-Regular-30"/>
       <use x="114.208984" xlink:href="#HelveticaWorld-Regular-2e"/>
       <use x="141.992188" xlink:href="#HelveticaWorld-Regular-32"/>
      </g>
     </g>
    </g>
    <g id="ytick_9">
     <g id="text_22">
      <!-- 0.0 -->
      <g style="fill:#262626;" transform="translate(64.07 350.985)scale(0.32 -0.32)">
       <use xlink:href="#HelveticaWorld-Regular-30"/>
       <use x="55.615234" xlink:href="#HelveticaWorld-Regular-2e"/>
       <use x="83.398438" xlink:href="#HelveticaWorld-Regular-30"/>
      </g>
     </g>
    </g>
    <g id="ytick_10">
     <g id="text_23">
      <!-- 0.2 -->
      <g style="fill:#262626;" transform="translate(64.07 257.070714)scale(0.32 -0.32)">
       <use xlink:href="#HelveticaWorld-Regular-30"/>
       <use x="55.615234" xlink:href="#HelveticaWorld-Regular-2e"/>
       <use x="83.398438" xlink:href="#HelveticaWorld-Regular-32"/>
      </g>
     </g>
    </g>
    <g id="ytick_11">
     <g id="text_24">
      <!-- 0.4 -->
      <g style="fill:#262626;" transform="translate(64.07 163.156429)scale(0.32 -0.32)">
       <use xlink:href="#HelveticaWorld-Regular-30"/>
       <use x="55.615234" xlink:href="#HelveticaWorld-Regular-2e"/>
       <use x="83.398438" xlink:href="#HelveticaWorld-Regular-34"/>
      </g>
     </g>
    </g>
    <g id="ytick_12">
     <g id="text_25">
      <!-- 0.6 -->
      <g style="fill:#262626;" transform="translate(64.07 69.242143)scale(0.32 -0.32)">
       <use xlink:href="#HelveticaWorld-Regular-30"/>
       <use x="55.615234" xlink:href="#HelveticaWorld-Regular-2e"/>
       <use x="83.398438" xlink:href="#HelveticaWorld-Regular-36"/>
      </g>
     </g>
    </g>
    <g id="text_26">
     <!--  Classifier Information (a.u.) -->
     <g style="fill:#262626;" transform="translate(34.695 543.335)rotate(-90)scale(0.32 -0.32)">
      <defs>
       <path d="M 941 550 
L 3244 550 
L 2125 3891 
L 2113 3891 
L 941 550 
z
M 97 0 
L 1831 4594 
L 2456 4594 
L 4128 0 
L 97 0 
z
" id="HelveticaWorld-Regular-394" transform="scale(0.015625)"/>
      </defs>
      <use xlink:href="#HelveticaWorld-Regular-394"/>
      <use x="66.015625" xlink:href="#HelveticaWorld-Regular-20"/>
      <use x="90.429688" xlink:href="#HelveticaWorld-Regular-43"/>
      <use x="162.744141" xlink:href="#HelveticaWorld-Regular-6c"/>
      <use x="184.765625" xlink:href="#HelveticaWorld-Regular-61"/>
      <use x="239.697266" xlink:href="#HelveticaWorld-Regular-73"/>
      <use x="289.697266" xlink:href="#HelveticaWorld-Regular-73"/>
      <use x="339.697266" xlink:href="#HelveticaWorld-Regular-69"/>
      <use x="361.71875" xlink:href="#HelveticaWorld-Regular-66"/>
      <use x="389.404297" xlink:href="#HelveticaWorld-Regular-69"/>
      <use x="411.425781" xlink:href="#HelveticaWorld-Regular-65"/>
      <use x="466.845703" xlink:href="#HelveticaWorld-Regular-72"/>
      <use x="499.414062" xlink:href="#HelveticaWorld-Regular-20"/>
      <use x="523.828125" xlink:href="#HelveticaWorld-Regular-49"/>
      <use x="549.609375" xlink:href="#HelveticaWorld-Regular-6e"/>
      <use x="604.785156" xlink:href="#HelveticaWorld-Regular-66"/>
      <use x="630.470703" xlink:href="#HelveticaWorld-Regular-6f"/>
      <use x="686.378906" xlink:href="#HelveticaWorld-Regular-72"/>
      <use x="718.947266" xlink:href="#HelveticaWorld-Regular-6d"/>
      <use x="801.955078" xlink:href="#HelveticaWorld-Regular-61"/>
      <use x="856.886719" xlink:href="#HelveticaWorld-Regular-74"/>
      <use x="884.572266" xlink:href="#HelveticaWorld-Regular-69"/>
      <use x="906.59375" xlink:href="#HelveticaWorld-Regular-6f"/>
      <use x="962.501953" xlink:href="#HelveticaWorld-Regular-6e"/>
      <use x="1017.677734" xlink:href="#HelveticaWorld-Regular-20"/>
      <use x="1042.091797" xlink:href="#HelveticaWorld-Regular-28"/>
      <use x="1075.392578" xlink:href="#HelveticaWorld-Regular-61"/>
      <use x="1130.324219" xlink:href="#HelveticaWorld-Regular-2e"/>
      <use x="1158.107422" xlink:href="#HelveticaWorld-Regular-75"/>
      <use x="1212.892578" xlink:href="#HelveticaWorld-Regular-2e"/>
      <use x="1240.675781" xlink:href="#HelveticaWorld-Regular-29"/>
     </g>
    </g>
   </g>
   <g id="PolyCollection_3">
    <defs>
     <path d="M 219.165692 -118.707422 
L 218.064003 -118.707422 
L 217.670682 -124.142721 
L 217.179089 -129.578021 
L 216.580428 -135.013321 
L 215.870497 -140.448621 
L 215.051274 -145.883921 
L 214.132165 -151.319221 
L 213.130642 -156.754521 
L 212.07203 -162.189821 
L 210.988299 -167.625121 
L 209.915818 -173.060421 
L 208.892232 -178.495721 
L 207.952745 -183.93102 
L 207.126237 -189.36632 
L 206.431724 -194.80162 
L 205.875629 -200.23692 
L 205.45025 -205.67222 
L 205.133633 -211.10752 
L 204.890865 -216.54282 
L 204.676587 -221.97812 
L 204.438374 -227.41342 
L 204.120549 -232.84872 
L 203.667997 -238.284019 
L 203.029607 -243.719319 
L 202.161088 -249.154619 
L 201.027062 -254.589919 
L 199.602386 -260.025219 
L 197.872782 -265.460519 
L 195.834841 -270.895819 
L 193.495447 -276.331119 
L 190.870668 -281.766419 
L 187.984142 -287.201719 
L 184.865004 -292.637019 
L 181.545492 -298.072318 
L 178.058451 -303.507618 
L 174.435066 -308.942918 
L 170.703212 -314.378218 
L 166.886837 -319.813518 
L 163.006661 -325.248818 
L 159.08233 -330.684118 
L 155.135867 -336.119418 
L 151.195981 -341.554718 
L 147.302494 -346.990018 
L 143.510012 -352.425318 
L 139.889894 -357.860617 
L 136.529763 -363.295917 
L 133.530153 -368.731217 
L 130.99833 -374.166517 
L 129.039869 -379.601817 
L 127.749007 -385.037117 
L 127.199101 -390.472417 
L 127.434547 -395.907717 
L 128.465347 -401.343017 
L 130.265092 -406.778317 
L 132.772558 -412.213616 
L 135.896584 -417.648916 
L 139.523404 -423.084216 
L 143.525343 -428.519516 
L 147.769721 -433.954816 
L 152.126964 -439.390116 
L 156.477219 -444.825416 
L 160.715142 -450.260716 
L 164.752868 -455.696016 
L 168.521402 -461.131316 
L 171.970825 -466.566616 
L 175.069663 -472.001915 
L 177.803735 -477.437215 
L 180.17463 -482.872515 
L 182.197889 -488.307815 
L 183.90089 -493.743115 
L 185.320465 -499.178415 
L 186.500271 -504.613715 
L 187.48807 -510.049015 
L 188.333068 -515.484315 
L 189.083533 -520.919615 
L 189.784848 -526.354914 
L 190.478099 -531.790214 
L 191.199209 -537.225514 
L 191.97852 -542.660814 
L 192.840652 -548.096114 
L 193.804464 -553.531414 
L 194.882951 -558.966714 
L 196.082999 -564.402014 
L 197.405009 -569.837314 
L 198.842517 -575.272614 
L 200.381987 -580.707914 
L 202.002984 -586.143213 
L 203.678897 -591.578513 
L 205.378273 -597.013813 
L 207.066738 -602.449113 
L 208.709312 -607.884413 
L 210.272884 -613.319713 
L 211.728528 -618.755013 
L 213.053385 -624.190313 
L 214.231894 -629.625613 
L 215.256253 -635.060913 
L 216.126141 -640.496212 
L 216.847782 -645.931512 
L 217.432575 -651.366812 
L 217.895482 -656.802112 
L 219.165692 -656.802112 
L 219.165692 -656.802112 
L 219.165692 -651.366812 
L 219.165692 -645.931512 
L 219.165692 -640.496212 
L 219.165692 -635.060913 
L 219.165692 -629.625613 
L 219.165692 -624.190313 
L 219.165692 -618.755013 
L 219.165692 -613.319713 
L 219.165692 -607.884413 
L 219.165692 -602.449113 
L 219.165692 -597.013813 
L 219.165692 -591.578513 
L 219.165692 -586.143213 
L 219.165692 -580.707914 
L 219.165692 -575.272614 
L 219.165692 -569.837314 
L 219.165692 -564.402014 
L 219.165692 -558.966714 
L 219.165692 -553.531414 
L 219.165692 -548.096114 
L 219.165692 -542.660814 
L 219.165692 -537.225514 
L 219.165692 -531.790214 
L 219.165692 -526.354914 
L 219.165692 -520.919615 
L 219.165692 -515.484315 
L 219.165692 -510.049015 
L 219.165692 -504.613715 
L 219.165692 -499.178415 
L 219.165692 -493.743115 
L 219.165692 -488.307815 
L 219.165692 -482.872515 
L 219.165692 -477.437215 
L 219.165692 -472.001915 
L 219.165692 -466.566616 
L 219.165692 -461.131316 
L 219.165692 -455.696016 
L 219.165692 -450.260716 
L 219.165692 -444.825416 
L 219.165692 -439.390116 
L 219.165692 -433.954816 
L 219.165692 -428.519516 
L 219.165692 -423.084216 
L 219.165692 -417.648916 
L 219.165692 -412.213616 
L 219.165692 -406.778317 
L 219.165692 -401.343017 
L 219.165692 -395.907717 
L 219.165692 -390.472417 
L 219.165692 -385.037117 
L 219.165692 -379.601817 
L 219.165692 -374.166517 
L 219.165692 -368.731217 
L 219.165692 -363.295917 
L 219.165692 -357.860617 
L 219.165692 -352.425318 
L 219.165692 -346.990018 
L 219.165692 -341.554718 
L 219.165692 -336.119418 
L 219.165692 -330.684118 
L 219.165692 -325.248818 
L 219.165692 -319.813518 
L 219.165692 -314.378218 
L 219.165692 -308.942918 
L 219.165692 -303.507618 
L 219.165692 -298.072318 
L 219.165692 -292.637019 
L 219.165692 -287.201719 
L 219.165692 -281.766419 
L 219.165692 -276.331119 
L 219.165692 -270.895819 
L 219.165692 -265.460519 
L 219.165692 -260.025219 
L 219.165692 -254.589919 
L 219.165692 -249.154619 
L 219.165692 -243.719319 
L 219.165692 -238.284019 
L 219.165692 -232.84872 
L 219.165692 -227.41342 
L 219.165692 -221.97812 
L 219.165692 -216.54282 
L 219.165692 -211.10752 
L 219.165692 -205.67222 
L 219.165692 -200.23692 
L 219.165692 -194.80162 
L 219.165692 -189.36632 
L 219.165692 -183.93102 
L 219.165692 -178.495721 
L 219.165692 -173.060421 
L 219.165692 -167.625121 
L 219.165692 -162.189821 
L 219.165692 -156.754521 
L 219.165692 -151.319221 
L 219.165692 -145.883921 
L 219.165692 -140.448621 
L 219.165692 -135.013321 
L 219.165692 -129.578021 
L 219.165692 -124.142721 
L 219.165692 -118.707422 
z
" id="m000173451a" style="stroke:#7a7a7a;stroke-width:1.5;"/>
    </defs>
    <g clip-path="url(#p41818fe220)">
     <use style="fill:#cccccc;stroke:#7a7a7a;stroke-width:1.5;" x="0" xlink:href="#m000173451a" y="720"/>
    </g>
   </g>
   <g id="PolyCollection_4">
    <defs>
     <path d="M 219.165692 -368.731217 
L 133.530153 -368.731217 
L 133.530153 -368.731217 
L 130.99833 -374.166517 
L 129.039869 -379.601817 
L 127.749007 -385.037117 
L 127.199101 -390.472417 
L 127.434547 -395.907717 
L 128.465347 -401.343017 
L 128.465347 -401.343017 
L 130.265092 -406.778317 
L 132.772558 -412.213616 
L 135.896584 -417.648916 
L 139.523404 -423.084216 
L 219.165692 -423.084216 
L 219.165692 -423.084216 
L 219.165692 -417.648916 
L 219.165692 -412.213616 
L 219.165692 -406.778317 
L 219.165692 -401.343017 
L 219.165692 -401.343017 
L 219.165692 -395.907717 
L 219.165692 -390.472417 
L 219.165692 -385.037117 
L 219.165692 -379.601817 
L 219.165692 -374.166517 
L 219.165692 -368.731217 
L 219.165692 -368.731217 
z
" id="m32106d75c1" style="stroke:#666666;stroke-width:1.5;"/>
    </defs>
    <g clip-path="url(#p41818fe220)">
     <use style="fill:#8f8f8f;stroke:#666666;stroke-width:1.5;" x="0" xlink:href="#m32106d75c1" y="720"/>
    </g>
   </g>
   <g id="PolyCollection_5">
    <defs>
     <path d="M 268.214541 -237.425769 
L 271.749403 -237.425769 
L 273.025057 -242.14261 
L 274.641185 -246.859451 
L 276.645285 -251.576292 
L 279.077971 -256.293133 
L 281.968682 -261.009975 
L 285.33158 -265.726816 
L 289.162126 -270.443657 
L 293.434847 -275.160498 
L 298.102674 -279.877339 
L 303.098061 -284.59418 
L 308.335905 -289.311021 
L 313.717969 -294.027862 
L 319.138381 -298.744703 
L 324.489584 -303.461544 
L 329.668132 -308.178385 
L 334.57978 -312.895226 
L 339.143497 -317.612067 
L 343.294263 -322.328908 
L 346.984692 -327.045749 
L 350.185687 -331.76259 
L 352.88637 -336.479431 
L 355.093478 -341.196272 
L 356.830292 -345.913113 
L 358.135021 -350.629954 
L 359.058433 -355.346796 
L 359.660552 -360.063637 
L 360.00632 -364.780478 
L 360.160343 -369.497319 
L 360.181131 -374.21416 
L 360.115513 -378.931001 
L 359.994023 -383.647842 
L 359.828123 -388.364683 
L 359.609862 -393.081524 
L 359.314257 -397.798365 
L 358.904182 -402.515206 
L 358.337127 -407.232047 
L 357.572775 -411.948888 
L 356.580227 -416.665729 
L 355.343709 -421.38257 
L 353.865918 -426.099411 
L 352.168533 -430.816252 
L 350.289948 -435.533093 
L 348.280722 -440.249934 
L 346.197553 -444.966776 
L 344.096753 -449.683617 
L 342.028187 -454.400458 
L 340.030417 -459.117299 
L 338.127571 -463.83414 
L 336.328106 -468.550981 
L 334.625383 -473.267822 
L 332.999728 -477.984663 
L 331.421558 -482.701504 
L 329.85508 -487.418345 
L 328.262096 -492.135186 
L 326.605543 -496.852027 
L 324.852458 -501.568868 
L 322.976199 -506.285709 
L 320.957867 -511.00255 
L 318.786943 -515.719391 
L 316.46128 -520.436232 
L 313.986627 -525.153073 
L 311.375896 -529.869914 
L 308.648349 -534.586756 
L 305.828861 -539.303597 
L 302.947307 -544.020438 
L 300.03804 -548.737279 
L 297.139355 -553.45412 
L 294.292764 -558.170961 
L 291.541941 -562.887802 
L 288.931193 -567.604643 
L 286.503457 -572.321484 
L 284.297874 -577.038325 
L 282.347142 -581.755166 
L 280.674928 -586.472007 
L 279.293627 -591.188848 
L 278.202819 -595.905689 
L 277.388648 -600.62253 
L 276.824309 -605.339371 
L 276.471658 -610.056212 
L 276.283873 -614.773053 
L 276.208907 -619.489894 
L 276.193441 -624.206736 
L 276.186901 -628.923577 
L 276.145158 -633.640418 
L 276.03351 -638.357259 
L 275.828658 -643.0741 
L 275.519505 -647.790941 
L 275.106754 -652.507782 
L 274.601419 -657.224623 
L 274.022505 -661.941464 
L 273.394185 -666.658305 
L 272.742839 -671.375146 
L 272.094303 -676.091987 
L 271.471597 -680.808828 
L 270.893324 -685.525669 
L 270.372795 -690.24251 
L 269.917849 -694.959351 
L 269.531254 -699.676192 
L 269.211515 -704.393033 
L 268.214541 -704.393033 
L 268.214541 -704.393033 
L 268.214541 -699.676192 
L 268.214541 -694.959351 
L 268.214541 -690.24251 
L 268.214541 -685.525669 
L 268.214541 -680.808828 
L 268.214541 -676.091987 
L 268.214541 -671.375146 
L 268.214541 -666.658305 
L 268.214541 -661.941464 
L 268.214541 -657.224623 
L 268.214541 -652.507782 
L 268.214541 -647.790941 
L 268.214541 -643.0741 
L 268.214541 -638.357259 
L 268.214541 -633.640418 
L 268.214541 -628.923577 
L 268.214541 -624.206736 
L 268.214541 -619.489894 
L 268.214541 -614.773053 
L 268.214541 -610.056212 
L 268.214541 -605.339371 
L 268.214541 -600.62253 
L 268.214541 -595.905689 
L 268.214541 -591.188848 
L 268.214541 -586.472007 
L 268.214541 -581.755166 
L 268.214541 -577.038325 
L 268.214541 -572.321484 
L 268.214541 -567.604643 
L 268.214541 -562.887802 
L 268.214541 -558.170961 
L 268.214541 -553.45412 
L 268.214541 -548.737279 
L 268.214541 -544.020438 
L 268.214541 -539.303597 
L 268.214541 -534.586756 
L 268.214541 -529.869914 
L 268.214541 -525.153073 
L 268.214541 -520.436232 
L 268.214541 -515.719391 
L 268.214541 -511.00255 
L 268.214541 -506.285709 
L 268.214541 -501.568868 
L 268.214541 -496.852027 
L 268.214541 -492.135186 
L 268.214541 -487.418345 
L 268.214541 -482.701504 
L 268.214541 -477.984663 
L 268.214541 -473.267822 
L 268.214541 -468.550981 
L 268.214541 -463.83414 
L 268.214541 -459.117299 
L 268.214541 -454.400458 
L 268.214541 -449.683617 
L 268.214541 -444.966776 
L 268.214541 -440.249934 
L 268.214541 -435.533093 
L 268.214541 -430.816252 
L 268.214541 -426.099411 
L 268.214541 -421.38257 
L 268.214541 -416.665729 
L 268.214541 -411.948888 
L 268.214541 -407.232047 
L 268.214541 -402.515206 
L 268.214541 -397.798365 
L 268.214541 -393.081524 
L 268.214541 -388.364683 
L 268.214541 -383.647842 
L 268.214541 -378.931001 
L 268.214541 -374.21416 
L 268.214541 -369.497319 
L 268.214541 -364.780478 
L 268.214541 -360.063637 
L 268.214541 -355.346796 
L 268.214541 -350.629954 
L 268.214541 -345.913113 
L 268.214541 -341.196272 
L 268.214541 -336.479431 
L 268.214541 -331.76259 
L 268.214541 -327.045749 
L 268.214541 -322.328908 
L 268.214541 -317.612067 
L 268.214541 -312.895226 
L 268.214541 -308.178385 
L 268.214541 -303.461544 
L 268.214541 -298.744703 
L 268.214541 -294.027862 
L 268.214541 -289.311021 
L 268.214541 -284.59418 
L 268.214541 -279.877339 
L 268.214541 -275.160498 
L 268.214541 -270.443657 
L 268.214541 -265.726816 
L 268.214541 -261.009975 
L 268.214541 -256.293133 
L 268.214541 -251.576292 
L 268.214541 -246.859451 
L 268.214541 -242.14261 
L 268.214541 -237.425769 
z
" id="m80a4408769" style="stroke:#7a7a7a;stroke-width:1.5;"/>
    </defs>
    <g clip-path="url(#p41818fe220)">
     <use style="fill:#cccccc;stroke:#7a7a7a;stroke-width:1.5;" x="0" xlink:href="#m80a4408769" y="720"/>
    </g>
   </g>
   <g id="PolyCollection_6">
    <defs>
     <path d="M 268.214541 -389.891429 
L 359.828123 -389.891429 
L 359.609862 -393.081524 
L 359.314257 -397.798365 
L 358.904182 -402.515206 
L 358.337127 -407.232047 
L 357.572775 -411.948888 
L 356.580227 -416.665729 
L 355.343709 -421.38257 
L 353.865918 -426.099411 
L 352.168533 -430.816252 
L 350.289948 -435.533093 
L 348.280722 -440.249934 
L 268.214541 -440.249934 
L 268.214541 -440.249934 
L 268.214541 -435.533093 
L 268.214541 -430.816252 
L 268.214541 -426.099411 
L 268.214541 -421.38257 
L 268.214541 -416.665729 
L 268.214541 -411.948888 
L 268.214541 -407.232047 
L 268.214541 -402.515206 
L 268.214541 -397.798365 
L 268.214541 -393.081524 
L 268.214541 -389.891429 
z
" id="m67c6a8a131" style="stroke:#666666;stroke-width:1.5;"/>
    </defs>
    <g clip-path="url(#p41818fe220)">
     <use style="fill:#8f8f8f;stroke:#666666;stroke-width:1.5;" x="0" xlink:href="#m67c6a8a131" y="720"/>
    </g>
   </g>
   <g id="PathCollection_9">
    <defs>
     <path d="M 0 3 
C 0.795609 3 1.55874 2.683901 2.12132 2.12132 
C 2.683901 1.55874 3 0.795609 3 0 
C 3 -0.795609 2.683901 -1.55874 2.12132 -2.12132 
C 1.55874 -2.683901 0.795609 -3 0 -3 
C -0.795609 -3 -1.55874 -2.683901 -2.12132 -2.12132 
C -2.683901 -1.55874 -3 -0.795609 -3 0 
C -3 0.795609 -2.683901 1.55874 -2.12132 2.12132 
C -1.55874 2.683901 -0.795609 3 0 3 
z
" id="m781dd257a5" style="stroke:#000000;stroke-opacity:0.3;"/>
    </defs>
    <g clip-path="url(#p41818fe220)">
     <use style="fill-opacity:0.3;stroke:#000000;stroke-opacity:0.3;" x="206.40787" xlink:href="#m781dd257a5" y="136.332992"/>
     <use style="fill-opacity:0.3;stroke:#000000;stroke-opacity:0.3;" x="194.850014" xlink:href="#m781dd257a5" y="215.045966"/>
     <use style="fill-opacity:0.3;stroke:#000000;stroke-opacity:0.3;" x="199.164147" xlink:href="#m781dd257a5" y="259.682554"/>
     <use style="fill-opacity:0.3;stroke:#000000;stroke-opacity:0.3;" x="156.437895" xlink:href="#m781dd257a5" y="279.093026"/>
     <use style="fill-opacity:0.3;stroke:#000000;stroke-opacity:0.3;" x="212.283959" xlink:href="#m781dd257a5" y="376.287008"/>
     <use style="fill-opacity:0.3;stroke:#000000;stroke-opacity:0.3;" x="201.745644" xlink:href="#m781dd257a5" y="215.784367"/>
     <use style="fill-opacity:0.3;stroke:#000000;stroke-opacity:0.3;" x="214.285853" xlink:href="#m781dd257a5" y="305.671108"/>
     <use style="fill-opacity:0.3;stroke:#000000;stroke-opacity:0.3;" x="171.827724" xlink:href="#m781dd257a5" y="348.164462"/>
     <use style="fill-opacity:0.3;stroke:#000000;stroke-opacity:0.3;" x="180.426182" xlink:href="#m781dd257a5" y="342.371437"/>
     <use style="fill-opacity:0.3;stroke:#000000;stroke-opacity:0.3;" x="184.352321" xlink:href="#m781dd257a5" y="410.497966"/>
     <use style="fill-opacity:0.3;stroke:#000000;stroke-opacity:0.3;" x="205.428384" xlink:href="#m781dd257a5" y="325.445186"/>
     <use style="fill-opacity:0.3;stroke:#000000;stroke-opacity:0.3;" x="193.009156" xlink:href="#m781dd257a5" y="386.026366"/>
     <use style="fill-opacity:0.3;stroke:#000000;stroke-opacity:0.3;" x="203.831667" xlink:href="#m781dd257a5" y="183.346337"/>
     <use style="fill-opacity:0.3;stroke:#000000;stroke-opacity:0.3;" x="147.284228" xlink:href="#m781dd257a5" y="303.786525"/>
     <use style="fill-opacity:0.3;stroke:#000000;stroke-opacity:0.3;" x="201.563462" xlink:href="#m781dd257a5" y="380.40252"/>
     <use style="fill-opacity:0.3;stroke:#000000;stroke-opacity:0.3;" x="214.911865" xlink:href="#m781dd257a5" y="461.053026"/>
     <use style="fill-opacity:0.3;stroke:#000000;stroke-opacity:0.3;" x="143.321497" xlink:href="#m781dd257a5" y="321.575182"/>
     <use style="fill-opacity:0.3;stroke:#000000;stroke-opacity:0.3;" x="212.905233" xlink:href="#m781dd257a5" y="528.157474"/>
     <use style="fill-opacity:0.3;stroke:#000000;stroke-opacity:0.3;" x="140.919702" xlink:href="#m781dd257a5" y="324.426642"/>
     <use style="fill-opacity:0.3;stroke:#000000;stroke-opacity:0.3;" x="207.231017" xlink:href="#m781dd257a5" y="249.593678"/>
     <use style="fill-opacity:0.3;stroke:#000000;stroke-opacity:0.3;" x="177.685312" xlink:href="#m781dd257a5" y="381.990414"/>
     <use style="fill-opacity:0.3;stroke:#000000;stroke-opacity:0.3;" x="213.921683" xlink:href="#m781dd257a5" y="424.146948"/>
     <use style="fill-opacity:0.3;stroke:#000000;stroke-opacity:0.3;" x="145.583151" xlink:href="#m781dd257a5" y="306.604426"/>
     <use style="fill-opacity:0.3;stroke:#000000;stroke-opacity:0.3;" x="209.607296" xlink:href="#m781dd257a5" y="146.913476"/>
     <use style="fill-opacity:0.3;stroke:#000000;stroke-opacity:0.3;" x="150.858896" xlink:href="#m781dd257a5" y="313.487224"/>
     <use style="fill-opacity:0.3;stroke:#000000;stroke-opacity:0.3;" x="186.209252" xlink:href="#m781dd257a5" y="408.317929"/>
     <use style="fill-opacity:0.3;stroke:#000000;stroke-opacity:0.3;" x="218.20019" xlink:href="#m781dd257a5" y="180.504881"/>
     <use style="fill-opacity:0.3;stroke:#000000;stroke-opacity:0.3;" x="206.56812" xlink:href="#m781dd257a5" y="361.728063"/>
     <use style="fill-opacity:0.3;stroke:#000000;stroke-opacity:0.3;" x="133.229568" xlink:href="#m781dd257a5" y="336.663657"/>
     <use style="fill-opacity:0.3;stroke:#000000;stroke-opacity:0.3;" x="215.218968" xlink:href="#m781dd257a5" y="512.881525"/>
     <use style="fill-opacity:0.3;stroke:#000000;stroke-opacity:0.3;" x="177.513088" xlink:href="#m781dd257a5" y="281.33864"/>
     <use style="fill-opacity:0.3;stroke:#000000;stroke-opacity:0.3;" x="192.895156" xlink:href="#m781dd257a5" y="275.173668"/>
     <use style="fill-opacity:0.3;stroke:#000000;stroke-opacity:0.3;" x="172.586356" xlink:href="#m781dd257a5" y="333.7628"/>
     <use style="fill-opacity:0.3;stroke:#000000;stroke-opacity:0.3;" x="177.227673" xlink:href="#m781dd257a5" y="336.438501"/>
     <use style="fill-opacity:0.3;stroke:#000000;stroke-opacity:0.3;" x="186.177518" xlink:href="#m781dd257a5" y="328.097635"/>
    </g>
   </g>
   <g id="PathCollection_10">
    <g clip-path="url(#p41818fe220)">
     <use style="fill-opacity:0.3;stroke:#000000;stroke-opacity:0.3;" x="272.181594" xlink:href="#m781dd257a5" y="81.020557"/>
     <use style="fill-opacity:0.3;stroke:#000000;stroke-opacity:0.3;" x="274.392994" xlink:href="#m781dd257a5" y="347.447119"/>
     <use style="fill-opacity:0.3;stroke:#000000;stroke-opacity:0.3;" x="277.66208" xlink:href="#m781dd257a5" y="290.869399"/>
     <use style="fill-opacity:0.3;stroke:#000000;stroke-opacity:0.3;" x="289.967131" xlink:href="#m781dd257a5" y="323.431048"/>
     <use style="fill-opacity:0.3;stroke:#000000;stroke-opacity:0.3;" x="299.961112" xlink:href="#m781dd257a5" y="407.329912"/>
     <use style="fill-opacity:0.3;stroke:#000000;stroke-opacity:0.3;" x="303.101732" xlink:href="#m781dd257a5" y="204.717363"/>
     <use style="fill-opacity:0.3;stroke:#000000;stroke-opacity:0.3;" x="334.117095" xlink:href="#m781dd257a5" y="267.81298"/>
     <use style="fill-opacity:0.3;stroke:#000000;stroke-opacity:0.3;" x="279.772857" xlink:href="#m781dd257a5" y="352.839382"/>
     <use style="fill-opacity:0.3;stroke:#000000;stroke-opacity:0.3;" x="316.680088" xlink:href="#m781dd257a5" y="254.352425"/>
     <use style="fill-opacity:0.3;stroke:#000000;stroke-opacity:0.3;" x="271.469129" xlink:href="#m781dd257a5" y="410.350879"/>
     <use style="fill-opacity:0.3;stroke:#000000;stroke-opacity:0.3;" x="321.572037" xlink:href="#m781dd257a5" y="262.316704"/>
     <use style="fill-opacity:0.3;stroke:#000000;stroke-opacity:0.3;" x="322.991714" xlink:href="#m781dd257a5" y="392.832671"/>
     <use style="fill-opacity:0.3;stroke:#000000;stroke-opacity:0.3;" x="279.070651" xlink:href="#m781dd257a5" y="304.922841"/>
     <use style="fill-opacity:0.3;stroke:#000000;stroke-opacity:0.3;" x="278.316256" xlink:href="#m781dd257a5" y="199.546446"/>
     <use style="fill-opacity:0.3;stroke:#000000;stroke-opacity:0.3;" x="283.184816" xlink:href="#m781dd257a5" y="381.597066"/>
     <use style="fill-opacity:0.3;stroke:#000000;stroke-opacity:0.3;" x="312.675024" xlink:href="#m781dd257a5" y="316.47629"/>
     <use style="fill-opacity:0.3;stroke:#000000;stroke-opacity:0.3;" x="319.393597" xlink:href="#m781dd257a5" y="385.741241"/>
     <use style="fill-opacity:0.3;stroke:#000000;stroke-opacity:0.3;" x="318.225688" xlink:href="#m781dd257a5" y="416.525126"/>
     <use style="fill-opacity:0.3;stroke:#000000;stroke-opacity:0.3;" x="285.853505" xlink:href="#m781dd257a5" y="226.105717"/>
     <use style="fill-opacity:0.3;stroke:#000000;stroke-opacity:0.3;" x="309.617232" xlink:href="#m781dd257a5" y="306.559022"/>
     <use style="fill-opacity:0.3;stroke:#000000;stroke-opacity:0.3;" x="279.359264" xlink:href="#m781dd257a5" y="381.015312"/>
     <use style="fill-opacity:0.3;stroke:#000000;stroke-opacity:0.3;" x="273.39766" xlink:href="#m781dd257a5" y="308.796114"/>
     <use style="fill-opacity:0.3;stroke:#000000;stroke-opacity:0.3;" x="283.34343" xlink:href="#m781dd257a5" y="174.284406"/>
     <use style="fill-opacity:0.3;stroke:#000000;stroke-opacity:0.3;" x="307.99409" xlink:href="#m781dd257a5" y="232.164306"/>
     <use style="fill-opacity:0.3;stroke:#000000;stroke-opacity:0.3;" x="276.655787" xlink:href="#m781dd257a5" y="293.401996"/>
     <use style="fill-opacity:0.3;stroke:#000000;stroke-opacity:0.3;" x="303.002203" xlink:href="#m781dd257a5" y="243.998818"/>
     <use style="fill-opacity:0.3;stroke:#000000;stroke-opacity:0.3;" x="297.061806" xlink:href="#m781dd257a5" y="285.281111"/>
     <use style="fill-opacity:0.3;stroke:#000000;stroke-opacity:0.3;" x="281.730701" xlink:href="#m781dd257a5" y="212.007283"/>
     <use style="fill-opacity:0.3;stroke:#000000;stroke-opacity:0.3;" x="299.05573" xlink:href="#m781dd257a5" y="357.293853"/>
     <use style="fill-opacity:0.3;stroke:#000000;stroke-opacity:0.3;" x="294.706928" xlink:href="#m781dd257a5" y="417.16064"/>
     <use style="fill-opacity:0.3;stroke:#000000;stroke-opacity:0.3;" x="343.528748" xlink:href="#m781dd257a5" y="314.730157"/>
     <use style="fill-opacity:0.3;stroke:#000000;stroke-opacity:0.3;" x="294.296559" xlink:href="#m781dd257a5" y="164.312107"/>
     <use style="fill-opacity:0.3;stroke:#000000;stroke-opacity:0.3;" x="342.097055" xlink:href="#m781dd257a5" y="356.761572"/>
     <use style="fill-opacity:0.3;stroke:#000000;stroke-opacity:0.3;" x="336.874499" xlink:href="#m781dd257a5" y="358.072307"/>
     <use style="fill-opacity:0.3;stroke:#000000;stroke-opacity:0.3;" x="279.972111" xlink:href="#m781dd257a5" y="364.243276"/>
    </g>
   </g>
   <g id="line2d_9">
    <path clip-path="url(#p41818fe220)" d="M 243.690116 339.5 
L 243.690116 287.847143 
" style="fill:none;stroke:#000000;stroke-linecap:round;stroke-width:3;"/>
   </g>
   <g id="line2d_10">
    <path clip-path="url(#p41818fe220)" d="M 237.55901 339.5 
L 249.821223 339.5 
" style="fill:none;stroke:#000000;stroke-linecap:round;stroke-width:3;"/>
   </g>
   <g id="line2d_11">
    <path clip-path="url(#p41818fe220)" d="M 237.55901 287.847143 
L 249.821223 287.847143 
" style="fill:none;stroke:#000000;stroke-linecap:round;stroke-width:3;"/>
   </g>
   <g id="line2d_12">
    <defs>
     <path d="M 0 7.5 
C 1.989023 7.5 3.896849 6.709753 5.303301 5.303301 
C 6.709753 3.896849 7.5 1.989023 7.5 0 
C 7.5 -1.989023 6.709753 -3.896849 5.303301 -5.303301 
C 3.896849 -6.709753 1.989023 -7.5 0 -7.5 
C -1.989023 -7.5 -3.896849 -6.709753 -5.303301 -5.303301 
C -6.709753 -3.896849 -7.5 -1.989023 -7.5 0 
C -7.5 1.989023 -6.709753 3.896849 -5.303301 5.303301 
C -3.896849 6.709753 -1.989023 7.5 0 7.5 
z
" id="mbf1936a9d1" style="stroke:#000000;"/>
    </defs>
    <g clip-path="url(#p41818fe220)">
     <use style="stroke:#000000;" x="243.690116" xlink:href="#mbf1936a9d1" y="312.530158"/>
    </g>
   </g>
   <g id="line2d_13">
    <path clip-path="url(#p41818fe220)" d="M 115.55 339.5 
L 371.830233 339.5 
" style="fill:none;stroke:#000000;stroke-dasharray:7.4,3.2;stroke-dashoffset:0;stroke-width:2;"/>
   </g>
   <g id="patch_6">
    <path d="M 115.55 668.2 
L 115.55 10.8 
" style="fill:none;stroke:#262626;stroke-linecap:square;stroke-linejoin:miter;stroke-width:2;"/>
   </g>
  </g>
 </g>
 <defs>
  <clipPath id="p2bf7d47310">
   <rect height="417" width="950.940699" x="462.880233" y="131"/>
  </clipPath>
  <clipPath id="p41818fe220">
   <rect height="657.4" width="256.280233" x="115.55" y="10.8"/>
  </clipPath>
 </defs>
</svg>
