<?xml version="1.0" encoding="utf-8" standalone="no"?>
<!DOCTYPE svg PUBLIC "-//W3C//DTD SVG 1.1//EN"
  "http://www.w3.org/Graphics/SVG/1.1/DTD/svg11.dtd">
<svg height="648pt" version="1.1" viewBox="0 0 1728 648" width="1728pt" xmlns="http://www.w3.org/2000/svg" xmlns:xlink="http://www.w3.org/1999/xlink">
 <metadata>
  <rdf:RDF xmlns:cc="http://creativecommons.org/ns#" xmlns:dc="http://purl.org/dc/elements/1.1/" xmlns:rdf="http://www.w3.org/1999/02/22-rdf-syntax-ns#">
   <cc:Work>
    <dc:type rdf:resource="http://purl.org/dc/dcmitype/StillImage"/>
    <dc:date>2025-07-07T16:33:47.061198</dc:date>
    <dc:format>image/svg+xml</dc:format>
    <dc:creator>
     <cc:Agent>
      <dc:title>Matplotlib v3.4.3, https://matplotlib.org/</dc:title>
     </cc:Agent>
    </dc:creator>
   </cc:Work>
  </rdf:RDF>
 </metadata>
 <defs>
  <style type="text/css">*{stroke-linecap:butt;stroke-linejoin:round;}</style>
 </defs>
 <g id="figure_1">
  <g id="patch_1">
   <path d="M 0 648 
L 1728 648 
L 1728 0 
L 0 0 
z
" style="fill:none;"/>
  </g>
  <g id="axes_1">
   <g id="patch_2">
    <path d="M 547.351905 447.24 
L 1695.832618 447.24 
L 1695.832618 107.76 
L 547.351905 107.76 
z
" style="fill:#ffffff;"/>
   </g>
   <g id="matplotlib.axis_1">
    <g id="xtick_1">
     <g id="text_1">
      <!-- 100 -->
      <g style="fill:#262626;" transform="translate(539.40901 480.08125)scale(0.36 -0.36)">
       <defs>
        <path d="M 2297 0 
L 1697 0 
L 1697 3194 
L 647 3194 
L 647 3641 
Q 1197 3659 1465 3817 
Q 1734 3975 1856 4500 
L 2297 4500 
L 2297 0 
z
" id="HelveticaWorld-Regular-31" transform="scale(0.015625)"/>
        <path d="M 2719 2188 
Q 2719 3091 2480 3542 
Q 2241 3994 1778 3994 
Q 1325 3994 1081 3542 
Q 838 3091 838 2188 
Q 838 1313 1078 848 
Q 1319 384 1778 384 
Q 2241 384 2480 832 
Q 2719 1281 2719 2188 
z
M 3322 2188 
Q 3322 1081 2922 479 
Q 2522 -122 1778 -122 
Q 1006 -122 622 501 
Q 238 1125 238 2188 
Q 238 3278 631 3889 
Q 1025 4500 1778 4500 
Q 2522 4500 2922 3892 
Q 3322 3284 3322 2188 
z
" id="HelveticaWorld-Regular-30" transform="scale(0.015625)"/>
       </defs>
       <use xlink:href="#HelveticaWorld-Regular-31"/>
       <use x="55.615234" xlink:href="#HelveticaWorld-Regular-30"/>
       <use x="111.230469" xlink:href="#HelveticaWorld-Regular-30"/>
      </g>
     </g>
    </g>
    <g id="xtick_2">
     <g id="text_2">
      <!-- 500 -->
      <g style="fill:#262626;" transform="translate(614.277374 480.08125)scale(0.36 -0.36)">
       <defs>
        <path d="M 941 2619 
Q 1313 2900 1813 2900 
Q 2419 2900 2855 2497 
Q 3291 2094 3291 1459 
Q 3291 769 2870 320 
Q 2450 -128 1691 -128 
Q 1031 -128 650 195 
Q 269 519 206 1113 
L 788 1113 
Q 831 750 1072 558 
Q 1313 366 1741 366 
Q 2156 366 2422 653 
Q 2688 941 2688 1388 
Q 2688 1844 2409 2119 
Q 2131 2394 1691 2394 
Q 1191 2394 856 1966 
L 372 1991 
L 709 4397 
L 3041 4397 
L 3041 3853 
L 1131 3853 
L 941 2619 
z
" id="HelveticaWorld-Regular-35" transform="scale(0.015625)"/>
       </defs>
       <use xlink:href="#HelveticaWorld-Regular-35"/>
       <use x="55.615234" xlink:href="#HelveticaWorld-Regular-30"/>
       <use x="111.230469" xlink:href="#HelveticaWorld-Regular-30"/>
      </g>
     </g>
    </g>
    <g id="xtick_3">
     <g id="text_3">
      <!-- 1000 -->
      <g style="fill:#262626;" transform="translate(697.853143 480.08125)scale(0.36 -0.36)">
       <use xlink:href="#HelveticaWorld-Regular-31"/>
       <use x="55.615234" xlink:href="#HelveticaWorld-Regular-30"/>
       <use x="111.230469" xlink:href="#HelveticaWorld-Regular-30"/>
       <use x="166.845703" xlink:href="#HelveticaWorld-Regular-30"/>
      </g>
     </g>
    </g>
    <g id="xtick_4">
     <g id="text_4">
      <!-- 2000 -->
      <g style="fill:#262626;" transform="translate(885.024054 480.08125)scale(0.36 -0.36)">
       <defs>
        <path d="M 281 2888 
Q 281 3681 690 4090 
Q 1100 4500 1838 4500 
Q 2456 4500 2850 4125 
Q 3244 3750 3244 3156 
Q 3244 2694 3017 2376 
Q 2791 2059 2350 1819 
L 1575 1394 
Q 891 1019 800 531 
L 3244 531 
L 3244 0 
L 166 0 
Q 191 634 441 1056 
Q 691 1478 1222 1784 
L 2028 2253 
Q 2350 2438 2497 2636 
Q 2644 2834 2644 3181 
Q 2644 3525 2403 3759 
Q 2163 3994 1753 3994 
Q 1300 3994 1075 3695 
Q 850 3397 844 2888 
L 281 2888 
z
" id="HelveticaWorld-Regular-32" transform="scale(0.015625)"/>
       </defs>
       <use xlink:href="#HelveticaWorld-Regular-32"/>
       <use x="55.615234" xlink:href="#HelveticaWorld-Regular-30"/>
       <use x="111.230469" xlink:href="#HelveticaWorld-Regular-30"/>
       <use x="166.845703" xlink:href="#HelveticaWorld-Regular-30"/>
      </g>
     </g>
    </g>
    <g id="xtick_5">
     <g id="text_5">
      <!-- 3000 -->
      <g style="fill:#262626;" transform="translate(1072.194966 480.08125)scale(0.36 -0.36)">
       <defs>
        <path d="M 1434 2559 
Q 1575 2547 1728 2547 
Q 2125 2547 2354 2730 
Q 2584 2913 2584 3284 
Q 2584 3584 2370 3789 
Q 2156 3994 1753 3994 
Q 1306 3994 1098 3731 
Q 891 3469 878 3028 
L 325 3028 
Q 325 3731 694 4115 
Q 1063 4500 1778 4500 
Q 2413 4500 2791 4173 
Q 3169 3847 3169 3316 
Q 3169 2631 2591 2388 
L 2591 2375 
Q 3341 2119 3341 1325 
Q 3341 691 2919 284 
Q 2497 -122 1722 -122 
Q 1088 -122 678 211 
Q 269 544 219 1375 
L 800 1375 
Q 813 856 1056 620 
Q 1300 384 1759 384 
Q 2203 384 2472 631 
Q 2741 878 2741 1253 
Q 2741 1663 2484 1872 
Q 2228 2081 1691 2081 
Q 1563 2081 1434 2075 
L 1434 2559 
z
" id="HelveticaWorld-Regular-33" transform="scale(0.015625)"/>
       </defs>
       <use xlink:href="#HelveticaWorld-Regular-33"/>
       <use x="55.615234" xlink:href="#HelveticaWorld-Regular-30"/>
       <use x="111.230469" xlink:href="#HelveticaWorld-Regular-30"/>
       <use x="166.845703" xlink:href="#HelveticaWorld-Regular-30"/>
      </g>
     </g>
    </g>
    <g id="xtick_6">
     <g id="text_6">
      <!-- 4000 -->
      <g style="fill:#262626;" transform="translate(1259.365878 480.08125)scale(0.36 -0.36)">
       <defs>
        <path d="M 678 1581 
L 2125 1581 
L 2125 3622 
L 2113 3622 
L 678 1581 
z
M 2688 1094 
L 2688 0 
L 2125 0 
L 2125 1094 
L 159 1094 
L 159 1644 
L 2222 4500 
L 2688 4500 
L 2688 1581 
L 3347 1581 
L 3347 1094 
L 2688 1094 
z
" id="HelveticaWorld-Regular-34" transform="scale(0.015625)"/>
       </defs>
       <use xlink:href="#HelveticaWorld-Regular-34"/>
       <use x="55.615234" xlink:href="#HelveticaWorld-Regular-30"/>
       <use x="111.230469" xlink:href="#HelveticaWorld-Regular-30"/>
       <use x="166.845703" xlink:href="#HelveticaWorld-Regular-30"/>
      </g>
     </g>
    </g>
    <g id="xtick_7">
     <g id="text_7">
      <!-- 5000 -->
      <g style="fill:#262626;" transform="translate(1446.536789 480.08125)scale(0.36 -0.36)">
       <use xlink:href="#HelveticaWorld-Regular-35"/>
       <use x="55.615234" xlink:href="#HelveticaWorld-Regular-30"/>
       <use x="111.230469" xlink:href="#HelveticaWorld-Regular-30"/>
       <use x="166.845703" xlink:href="#HelveticaWorld-Regular-30"/>
      </g>
     </g>
    </g>
    <g id="xtick_8">
     <g id="text_8">
      <!-- 6000 -->
      <g style="fill:#262626;" transform="translate(1633.707701 480.08125)scale(0.36 -0.36)">
       <defs>
        <path d="M 903 1381 
Q 903 941 1165 662 
Q 1428 384 1850 384 
Q 2253 384 2492 668 
Q 2731 953 2731 1416 
Q 2731 1819 2495 2091 
Q 2259 2363 1825 2363 
Q 1403 2363 1153 2097 
Q 903 1831 903 1381 
z
M 2669 3303 
Q 2606 3647 2414 3820 
Q 2222 3994 1894 3994 
Q 1375 3994 1103 3487 
Q 831 2981 825 2328 
L 838 2316 
Q 1197 2869 1906 2869 
Q 2472 2869 2894 2494 
Q 3316 2119 3316 1441 
Q 3316 769 2916 323 
Q 2516 -122 1838 -122 
Q 1056 -122 650 434 
Q 244 991 244 2094 
Q 244 3156 659 3828 
Q 1075 4500 1906 4500 
Q 2444 4500 2816 4179 
Q 3188 3859 3219 3303 
L 2669 3303 
z
" id="HelveticaWorld-Regular-36" transform="scale(0.015625)"/>
       </defs>
       <use xlink:href="#HelveticaWorld-Regular-36"/>
       <use x="55.615234" xlink:href="#HelveticaWorld-Regular-30"/>
       <use x="111.230469" xlink:href="#HelveticaWorld-Regular-30"/>
       <use x="166.845703" xlink:href="#HelveticaWorld-Regular-30"/>
      </g>
     </g>
    </g>
    <g id="text_9">
     <!-- Number of Voxels -->
     <g style="fill:#262626;" transform="translate(983.377574 517.375625)scale(0.36 -0.36)">
      <defs>
       <path d="M 3559 4594 
L 4159 4594 
L 4159 0 
L 3469 0 
L 1125 3713 
L 1113 3713 
L 1113 0 
L 519 0 
L 519 4594 
L 1247 4594 
L 3547 884 
L 3559 884 
L 3559 4594 
z
" id="HelveticaWorld-Regular-4e" transform="scale(0.015625)"/>
       <path d="M 391 3347 
L 953 3347 
L 953 1125 
Q 953 756 1120 573 
Q 1288 391 1600 391 
Q 2034 391 2278 698 
Q 2522 1006 2522 1503 
L 2522 3347 
L 3084 3347 
L 3084 0 
L 2553 0 
L 2553 488 
L 2541 500 
Q 2222 -97 1478 -97 
Q 997 -97 694 165 
Q 391 428 391 941 
L 391 3347 
z
" id="HelveticaWorld-Regular-75" transform="scale(0.015625)"/>
       <path d="M 422 3347 
L 953 3347 
L 953 2875 
L 966 2875 
Q 1344 3444 1978 3444 
Q 2606 3444 2869 2900 
Q 3109 3194 3334 3319 
Q 3559 3444 3891 3444 
Q 4325 3444 4626 3159 
Q 4928 2875 4928 2316 
L 4928 0 
L 4366 0 
L 4366 2163 
Q 4366 2553 4219 2745 
Q 4072 2938 3744 2938 
Q 3413 2938 3184 2669 
Q 2956 2400 2956 2041 
L 2956 0 
L 2394 0 
L 2394 2316 
Q 2394 2606 2259 2772 
Q 2125 2938 1869 2938 
Q 1466 2938 1225 2638 
Q 984 2338 984 1825 
L 984 0 
L 422 0 
L 422 3347 
z
" id="HelveticaWorld-Regular-6d" transform="scale(0.015625)"/>
       <path d="M 2778 1684 
Q 2778 2356 2540 2647 
Q 2303 2938 1863 2938 
Q 1416 2931 1187 2589 
Q 959 2247 959 1600 
Q 959 941 1234 666 
Q 1509 391 1875 391 
Q 2291 391 2534 733 
Q 2778 1075 2778 1684 
z
M 422 0 
L 422 4594 
L 984 4594 
L 984 2925 
L 997 2925 
Q 1356 3444 1966 3444 
Q 2591 3444 2975 2980 
Q 3359 2516 3359 1772 
Q 3359 934 2971 418 
Q 2584 -97 1888 -97 
Q 1275 -97 966 416 
L 953 416 
L 953 0 
L 422 0 
z
" id="HelveticaWorld-Regular-62" transform="scale(0.015625)"/>
       <path d="M 2719 1941 
Q 2675 2484 2431 2711 
Q 2188 2938 1784 2938 
Q 1375 2938 1123 2650 
Q 872 2363 856 1941 
L 2719 1941 
z
M 3256 1050 
Q 3163 531 2747 191 
Q 2381 -97 1784 -103 
Q 1081 -97 668 358 
Q 256 813 256 1581 
Q 256 2463 681 2953 
Q 1106 3444 1863 3444 
Q 2541 3444 2922 2937 
Q 3303 2431 3303 1491 
L 856 1491 
Q 856 966 1100 678 
Q 1344 391 1831 391 
Q 2175 391 2422 598 
Q 2669 806 2694 1050 
L 3256 1050 
z
" id="HelveticaWorld-Regular-65" transform="scale(0.015625)"/>
       <path d="M 984 0 
L 422 0 
L 422 3347 
L 953 3347 
L 953 2791 
L 966 2791 
Q 1331 3444 1906 3444 
Q 1997 3444 2053 3425 
L 2053 2841 
L 1844 2841 
Q 1466 2841 1225 2584 
Q 984 2328 984 1947 
L 984 0 
z
" id="HelveticaWorld-Regular-72" transform="scale(0.015625)"/>
       <path id="HelveticaWorld-Regular-20" transform="scale(0.015625)"/>
       <path d="M 813 1678 
Q 813 1119 1066 758 
Q 1319 397 1784 397 
Q 2266 397 2516 775 
Q 2766 1153 2766 1678 
Q 2766 2209 2516 2579 
Q 2266 2950 1784 2950 
Q 1338 2950 1075 2601 
Q 813 2253 813 1678 
z
M 238 1678 
Q 238 2425 653 2934 
Q 1069 3444 1784 3444 
Q 2516 3444 2928 2928 
Q 3341 2413 3341 1678 
Q 3341 941 2931 422 
Q 2522 -97 1784 -97 
Q 1075 -97 656 406 
Q 238 909 238 1678 
z
" id="HelveticaWorld-Regular-6f" transform="scale(0.015625)"/>
       <path d="M 1100 2881 
L 1100 0 
L 538 0 
L 538 2881 
L 78 2881 
L 78 3347 
L 538 3347 
L 538 3922 
Q 538 4300 767 4479 
Q 997 4659 1409 4659 
Q 1550 4659 1663 4647 
L 1663 4141 
Q 1563 4153 1434 4153 
Q 1247 4153 1173 4061 
Q 1100 3969 1100 3763 
L 1100 3347 
L 1663 3347 
L 1663 2881 
L 1100 2881 
z
" id="HelveticaWorld-Regular-66" transform="scale(0.015625)"/>
       <path d="M 3413 4594 
L 4109 4594 
L 2425 0 
L 1772 0 
L 97 4594 
L 788 4594 
L 2100 678 
L 2113 678 
L 3413 4594 
z
" id="HelveticaWorld-Regular-56" transform="scale(0.015625)"/>
       <path d="M 3138 0 
L 2413 0 
L 1588 1259 
L 781 0 
L 72 0 
L 1241 1722 
L 128 3347 
L 844 3347 
L 1619 2169 
L 2400 3347 
L 3084 3347 
L 1959 1722 
L 3138 0 
z
" id="HelveticaWorld-Regular-78" transform="scale(0.015625)"/>
       <path d="M 984 0 
L 422 0 
L 422 4594 
L 984 4594 
L 984 0 
z
" id="HelveticaWorld-Regular-6c" transform="scale(0.015625)"/>
       <path d="M 2309 2394 
Q 2297 2694 2095 2825 
Q 1894 2956 1516 2956 
Q 1241 2956 1045 2834 
Q 850 2713 850 2484 
Q 850 2303 965 2217 
Q 1081 2131 1466 2034 
L 2022 1894 
Q 2528 1766 2745 1567 
Q 2963 1369 2963 1013 
Q 2963 519 2602 211 
Q 2241 -97 1638 -97 
Q 934 -97 573 195 
Q 213 488 206 1075 
L 750 1075 
Q 763 728 980 559 
Q 1197 391 1631 391 
Q 1984 391 2192 531 
Q 2400 672 2400 922 
Q 2400 1100 2265 1206 
Q 2131 1313 1734 1403 
L 1081 1563 
Q 684 1663 495 1861 
Q 306 2059 306 2375 
Q 306 2869 659 3156 
Q 1013 3444 1581 3444 
Q 2188 3444 2511 3148 
Q 2834 2853 2853 2394 
L 2309 2394 
z
" id="HelveticaWorld-Regular-73" transform="scale(0.015625)"/>
      </defs>
      <use xlink:href="#HelveticaWorld-Regular-4e"/>
      <use x="73.095703" xlink:href="#HelveticaWorld-Regular-75"/>
      <use x="127.880859" xlink:href="#HelveticaWorld-Regular-6d"/>
      <use x="210.888672" xlink:href="#HelveticaWorld-Regular-62"/>
      <use x="267.382812" xlink:href="#HelveticaWorld-Regular-65"/>
      <use x="322.802734" xlink:href="#HelveticaWorld-Regular-72"/>
      <use x="355.371094" xlink:href="#HelveticaWorld-Regular-20"/>
      <use x="379.785156" xlink:href="#HelveticaWorld-Regular-6f"/>
      <use x="435.693359" xlink:href="#HelveticaWorld-Regular-66"/>
      <use x="463.378906" xlink:href="#HelveticaWorld-Regular-20"/>
      <use x="482.792969" xlink:href="#HelveticaWorld-Regular-56"/>
      <use x="540.619141" xlink:href="#HelveticaWorld-Regular-6f"/>
      <use x="593.652344" xlink:href="#HelveticaWorld-Regular-78"/>
      <use x="640.402344" xlink:href="#HelveticaWorld-Regular-65"/>
      <use x="695.822266" xlink:href="#HelveticaWorld-Regular-6c"/>
      <use x="717.84375" xlink:href="#HelveticaWorld-Regular-73"/>
     </g>
    </g>
   </g>
   <g id="matplotlib.axis_2">
    <g id="ytick_1">
     <g id="text_10">
      <!-- 0.0 -->
      <g style="fill:#262626;" transform="translate(490.311905 460.160625)scale(0.36 -0.36)">
       <defs>
        <path d="M 1222 0 
L 556 0 
L 556 678 
L 1222 678 
L 1222 0 
z
" id="HelveticaWorld-Regular-2e" transform="scale(0.015625)"/>
       </defs>
       <use xlink:href="#HelveticaWorld-Regular-30"/>
       <use x="55.615234" xlink:href="#HelveticaWorld-Regular-2e"/>
       <use x="83.398438" xlink:href="#HelveticaWorld-Regular-30"/>
      </g>
     </g>
    </g>
    <g id="ytick_2">
     <g id="text_11">
      <!-- 0.1 -->
      <g style="fill:#262626;" transform="translate(490.311905 384.720625)scale(0.36 -0.36)">
       <use xlink:href="#HelveticaWorld-Regular-30"/>
       <use x="55.615234" xlink:href="#HelveticaWorld-Regular-2e"/>
       <use x="83.398438" xlink:href="#HelveticaWorld-Regular-31"/>
      </g>
     </g>
    </g>
    <g id="ytick_3">
     <g id="text_12">
      <!-- 0.2 -->
      <g style="fill:#262626;" transform="translate(490.311905 309.280625)scale(0.36 -0.36)">
       <use xlink:href="#HelveticaWorld-Regular-30"/>
       <use x="55.615234" xlink:href="#HelveticaWorld-Regular-2e"/>
       <use x="83.398438" xlink:href="#HelveticaWorld-Regular-32"/>
      </g>
     </g>
    </g>
    <g id="ytick_4">
     <g id="text_13">
      <!-- 0.3 -->
      <g style="fill:#262626;" transform="translate(490.311905 233.840625)scale(0.36 -0.36)">
       <use xlink:href="#HelveticaWorld-Regular-30"/>
       <use x="55.615234" xlink:href="#HelveticaWorld-Regular-2e"/>
       <use x="83.398438" xlink:href="#HelveticaWorld-Regular-33"/>
      </g>
     </g>
    </g>
    <g id="ytick_5">
     <g id="text_14">
      <!-- 0.4 -->
      <g style="fill:#262626;" transform="translate(490.311905 158.400625)scale(0.36 -0.36)">
       <use xlink:href="#HelveticaWorld-Regular-30"/>
       <use x="55.615234" xlink:href="#HelveticaWorld-Regular-2e"/>
       <use x="83.398438" xlink:href="#HelveticaWorld-Regular-34"/>
      </g>
     </g>
    </g>
    <g id="text_15">
     <!-- Classifier Information (a.u.) -->
     <g style="fill:#262626;" transform="translate(478.85878 490.535625)rotate(-90)scale(0.36 -0.36)">
      <defs>
       <path d="M 3713 3213 
Q 3609 3681 3279 3923 
Q 2950 4166 2425 4166 
Q 1747 4166 1334 3673 
Q 922 3181 922 2344 
Q 922 1375 1312 901 
Q 1703 428 2444 428 
Q 2931 428 3282 751 
Q 3634 1075 3756 1691 
L 4359 1691 
Q 4238 806 3688 342 
Q 3138 -122 2350 -122 
Q 1409 -122 845 525 
Q 281 1172 281 2322 
Q 281 3431 870 4073 
Q 1459 4716 2425 4716 
Q 3225 4716 3722 4303 
Q 4219 3891 4313 3213 
L 3713 3213 
z
" id="HelveticaWorld-Regular-43" transform="scale(0.015625)"/>
       <path d="M 2456 1709 
Q 2394 1644 2211 1603 
Q 2028 1563 1528 1497 
Q 1159 1453 986 1315 
Q 813 1178 813 953 
Q 813 678 959 525 
Q 1106 372 1428 372 
Q 1831 372 2143 601 
Q 2456 831 2456 1159 
L 2456 1709 
z
M 397 2328 
Q 416 2894 764 3169 
Q 1113 3444 1778 3444 
Q 2309 3444 2668 3203 
Q 3028 2963 3028 2509 
L 3028 581 
Q 3028 384 3206 384 
Q 3278 384 3391 409 
L 3391 0 
Q 3238 -63 3072 -63 
Q 2784 -63 2643 60 
Q 2503 184 2497 447 
Q 2016 -97 1288 -97 
Q 813 -97 525 172 
Q 238 441 238 872 
Q 238 1313 488 1584 
Q 738 1856 1216 1913 
L 2209 2034 
Q 2478 2075 2478 2431 
Q 2478 2694 2283 2834 
Q 2088 2975 1691 2975 
Q 1338 2975 1148 2819 
Q 959 2663 922 2328 
L 397 2328 
z
" id="HelveticaWorld-Regular-61" transform="scale(0.015625)"/>
       <path d="M 422 3956 
L 422 4594 
L 984 4594 
L 984 3956 
L 422 3956 
z
M 984 0 
L 422 0 
L 422 3347 
L 984 3347 
L 984 0 
z
" id="HelveticaWorld-Regular-69" transform="scale(0.015625)"/>
       <path d="M 1141 0 
L 519 0 
L 519 4594 
L 1141 4594 
L 1141 0 
z
" id="HelveticaWorld-Regular-49" transform="scale(0.015625)"/>
       <path d="M 3150 0 
L 2584 0 
L 2584 2059 
Q 2584 2534 2418 2736 
Q 2253 2938 1869 2938 
Q 1491 2938 1237 2650 
Q 984 2363 984 1825 
L 984 0 
L 422 0 
L 422 3347 
L 953 3347 
L 953 2875 
L 966 2875 
Q 1363 3444 1978 3444 
Q 2547 3444 2848 3142 
Q 3150 2841 3150 2278 
L 3150 0 
z
" id="HelveticaWorld-Regular-6e" transform="scale(0.015625)"/>
       <path d="M 1100 2881 
L 1100 703 
Q 1100 575 1170 508 
Q 1241 441 1422 441 
L 1638 441 
L 1638 0 
Q 1331 -44 1216 -44 
Q 863 -44 700 125 
Q 538 294 538 672 
L 538 2881 
L 84 2881 
L 84 3347 
L 538 3347 
L 538 4281 
L 1100 4281 
L 1100 3347 
L 1638 3347 
L 1638 2881 
L 1100 2881 
z
" id="HelveticaWorld-Regular-74" transform="scale(0.015625)"/>
       <path d="M 1906 4691 
Q 1338 3675 1188 3037 
Q 1038 2400 1038 1631 
Q 1038 872 1242 215 
Q 1447 -441 1913 -1325 
L 1538 -1325 
Q 1006 -550 720 140 
Q 434 831 434 1672 
Q 434 2463 693 3180 
Q 953 3897 1516 4691 
L 1906 4691 
z
" id="HelveticaWorld-Regular-28" transform="scale(0.015625)"/>
       <path d="M 225 -1325 
Q 788 -306 938 330 
Q 1088 966 1088 1734 
Q 1088 2497 886 3153 
Q 684 3809 219 4691 
L 588 4691 
Q 1125 3916 1411 3225 
Q 1697 2534 1697 1697 
Q 1697 903 1437 186 
Q 1178 -531 616 -1325 
L 225 -1325 
z
" id="HelveticaWorld-Regular-29" transform="scale(0.015625)"/>
      </defs>
      <use xlink:href="#HelveticaWorld-Regular-43"/>
      <use x="72.314453" xlink:href="#HelveticaWorld-Regular-6c"/>
      <use x="94.335938" xlink:href="#HelveticaWorld-Regular-61"/>
      <use x="149.267578" xlink:href="#HelveticaWorld-Regular-73"/>
      <use x="199.267578" xlink:href="#HelveticaWorld-Regular-73"/>
      <use x="249.267578" xlink:href="#HelveticaWorld-Regular-69"/>
      <use x="271.289062" xlink:href="#HelveticaWorld-Regular-66"/>
      <use x="298.974609" xlink:href="#HelveticaWorld-Regular-69"/>
      <use x="320.996094" xlink:href="#HelveticaWorld-Regular-65"/>
      <use x="376.416016" xlink:href="#HelveticaWorld-Regular-72"/>
      <use x="408.984375" xlink:href="#HelveticaWorld-Regular-20"/>
      <use x="433.398438" xlink:href="#HelveticaWorld-Regular-49"/>
      <use x="459.179688" xlink:href="#HelveticaWorld-Regular-6e"/>
      <use x="514.355469" xlink:href="#HelveticaWorld-Regular-66"/>
      <use x="540.041016" xlink:href="#HelveticaWorld-Regular-6f"/>
      <use x="595.949219" xlink:href="#HelveticaWorld-Regular-72"/>
      <use x="628.517578" xlink:href="#HelveticaWorld-Regular-6d"/>
      <use x="711.525391" xlink:href="#HelveticaWorld-Regular-61"/>
      <use x="766.457031" xlink:href="#HelveticaWorld-Regular-74"/>
      <use x="794.142578" xlink:href="#HelveticaWorld-Regular-69"/>
      <use x="816.164062" xlink:href="#HelveticaWorld-Regular-6f"/>
      <use x="872.072266" xlink:href="#HelveticaWorld-Regular-6e"/>
      <use x="927.248047" xlink:href="#HelveticaWorld-Regular-20"/>
      <use x="951.662109" xlink:href="#HelveticaWorld-Regular-28"/>
      <use x="984.962891" xlink:href="#HelveticaWorld-Regular-61"/>
      <use x="1039.894531" xlink:href="#HelveticaWorld-Regular-2e"/>
      <use x="1067.677734" xlink:href="#HelveticaWorld-Regular-75"/>
      <use x="1122.462891" xlink:href="#HelveticaWorld-Regular-2e"/>
      <use x="1150.246094" xlink:href="#HelveticaWorld-Regular-29"/>
     </g>
    </g>
   </g>
   <g id="PolyCollection_1">
    <defs>
     <path d="M 569.438072 -377.367814 
L 569.438072 -342.261005 
L 588.155163 -357.25601 
L 606.872254 -364.506277 
L 625.589346 -367.735595 
L 644.306437 -368.489895 
L 663.023528 -368.849728 
L 681.740619 -366.787215 
L 700.45771 -364.651761 
L 719.174801 -360.871566 
L 737.891893 -358.986372 
L 756.608984 -356.040483 
L 775.326075 -355.357263 
L 794.043166 -351.994895 
L 812.760257 -349.883948 
L 831.477348 -347.214437 
L 850.19444 -345.034685 
L 868.911531 -341.637805 
L 887.628622 -339.307756 
L 906.345713 -336.375715 
L 925.062804 -335.110234 
L 943.779895 -332.801944 
L 962.496987 -328.483988 
L 981.214078 -326.636896 
L 999.931169 -324.669575 
L 1018.64826 -323.807293 
L 1037.365351 -321.039283 
L 1056.082442 -319.795937 
L 1074.799534 -318.308739 
L 1093.516625 -316.253847 
L 1112.233716 -314.450638 
L 1130.950807 -312.797367 
L 1149.667898 -312.145554 
L 1168.384989 -309.272084 
L 1187.102081 -308.480523 
L 1205.819172 -306.570538 
L 1224.536263 -304.830163 
L 1243.253354 -302.78985 
L 1261.970445 -301.713838 
L 1280.687536 -300.391401 
L 1299.404628 -297.845107 
L 1318.121719 -295.545958 
L 1336.83881 -295.593827 
L 1355.555901 -294.623132 
L 1374.272992 -294.205619 
L 1392.990083 -291.671519 
L 1411.707174 -290.387556 
L 1430.424266 -289.578087 
L 1449.141357 -288.254417 
L 1467.858448 -286.500164 
L 1486.575539 -285.724188 
L 1505.29263 -283.585669 
L 1524.009721 -283.658671 
L 1542.726813 -282.506434 
L 1561.443904 -281.601163 
L 1580.160995 -280.459484 
L 1598.878086 -280.113755 
L 1617.595177 -279.079414 
L 1636.312268 -277.971364 
L 1655.02936 -276.775938 
L 1673.746451 -277.012925 
L 1673.746451 -294.925824 
L 1673.746451 -294.925824 
L 1655.02936 -296.129653 
L 1636.312268 -297.600622 
L 1617.595177 -298.375691 
L 1598.878086 -299.304075 
L 1580.160995 -300.43236 
L 1561.443904 -301.192706 
L 1542.726813 -302.133713 
L 1524.009721 -303.930728 
L 1505.29263 -304.024482 
L 1486.575539 -306.349741 
L 1467.858448 -307.337868 
L 1449.141357 -308.405923 
L 1430.424266 -310.363084 
L 1411.707174 -310.629122 
L 1392.990083 -312.772158 
L 1374.272992 -314.922144 
L 1355.555901 -314.93659 
L 1336.83881 -317.924971 
L 1318.121719 -317.462824 
L 1299.404628 -320.23613 
L 1280.687536 -320.817588 
L 1261.970445 -323.975401 
L 1243.253354 -325.205028 
L 1224.536263 -327.961068 
L 1205.819172 -329.403655 
L 1187.102081 -331.888744 
L 1168.384989 -333.555148 
L 1149.667898 -336.148837 
L 1130.950807 -337.353041 
L 1112.233716 -339.695531 
L 1093.516625 -340.053557 
L 1074.799534 -343.030876 
L 1056.082442 -345.792267 
L 1037.365351 -347.473801 
L 1018.64826 -348.800341 
L 999.931169 -350.482645 
L 981.214078 -353.386154 
L 962.496987 -356.315884 
L 943.779895 -358.623264 
L 925.062804 -361.64841 
L 906.345713 -363.898562 
L 887.628622 -367.753292 
L 868.911531 -369.825724 
L 850.19444 -373.641008 
L 831.477348 -375.215275 
L 812.760257 -377.687488 
L 794.043166 -382.2809 
L 775.326075 -384.181929 
L 756.608984 -386.624004 
L 737.891893 -389.090228 
L 719.174801 -392.862915 
L 700.45771 -394.39433 
L 681.740619 -398.113261 
L 663.023528 -401.118482 
L 644.306437 -401.545864 
L 625.589346 -402.021879 
L 606.872254 -400.294217 
L 588.155163 -394.123745 
L 569.438072 -377.367814 
z
" id="m45c79c8f2b" style="stroke:#1b9e77;stroke-opacity:0.2;"/>
    </defs>
    <g clip-path="url(#pa606e4543e)">
     <use style="fill:#1b9e77;fill-opacity:0.2;stroke:#1b9e77;stroke-opacity:0.2;" x="0" xlink:href="#m45c79c8f2b" y="648"/>
    </g>
   </g>
   <g id="PolyCollection_2">
    <defs>
     <path d="M 569.438072 -352.929018 
L 569.438072 -323.492996 
L 588.155163 -351.04504 
L 606.872254 -354.575073 
L 625.589346 -355.528779 
L 644.306437 -356.679338 
L 663.023528 -359.847864 
L 681.740619 -361.232348 
L 700.45771 -360.080466 
L 719.174801 -357.950292 
L 737.891893 -358.386444 
L 756.608984 -354.485697 
L 775.326075 -355.745889 
L 794.043166 -353.124507 
L 812.760257 -351.973531 
L 831.477348 -349.449936 
L 850.19444 -347.303263 
L 868.911531 -343.633608 
L 887.628622 -341.9879 
L 906.345713 -341.083847 
L 925.062804 -340.084105 
L 943.779895 -337.082532 
L 962.496987 -335.700533 
L 981.214078 -333.933337 
L 999.931169 -332.334243 
L 1018.64826 -330.250238 
L 1037.365351 -329.874762 
L 1056.082442 -327.737685 
L 1074.799534 -326.172458 
L 1093.516625 -322.647785 
L 1112.233716 -321.534008 
L 1130.950807 -321.235281 
L 1149.667898 -318.552471 
L 1168.384989 -317.04584 
L 1187.102081 -316.113032 
L 1205.819172 -312.869013 
L 1224.536263 -310.183393 
L 1243.253354 -309.769071 
L 1261.970445 -309.216746 
L 1280.687536 -306.116317 
L 1299.404628 -305.908125 
L 1318.121719 -303.120759 
L 1336.83881 -303.316588 
L 1355.555901 -302.022325 
L 1374.272992 -300.454857 
L 1392.990083 -299.935404 
L 1411.707174 -298.906971 
L 1430.424266 -295.745439 
L 1449.141357 -295.338148 
L 1467.858448 -293.680756 
L 1486.575539 -293.048959 
L 1505.29263 -290.232935 
L 1524.009721 -290.874343 
L 1542.726813 -289.823294 
L 1561.443904 -288.662887 
L 1580.160995 -287.018563 
L 1598.878086 -286.727477 
L 1617.595177 -285.987026 
L 1636.312268 -284.742481 
L 1655.02936 -283.291917 
L 1673.746451 -281.685767 
L 1673.746451 -304.141251 
L 1673.746451 -304.141251 
L 1655.02936 -304.781368 
L 1636.312268 -305.577321 
L 1617.595177 -307.060274 
L 1598.878086 -308.128869 
L 1580.160995 -308.549948 
L 1561.443904 -309.844564 
L 1542.726813 -310.79962 
L 1524.009721 -312.223011 
L 1505.29263 -313.867841 
L 1486.575539 -314.812629 
L 1467.858448 -316.576079 
L 1449.141357 -318.459327 
L 1430.424266 -319.687384 
L 1411.707174 -320.351883 
L 1392.990083 -323.537634 
L 1374.272992 -323.761574 
L 1355.555901 -324.915293 
L 1336.83881 -326.474075 
L 1318.121719 -327.839396 
L 1299.404628 -329.334559 
L 1280.687536 -331.11614 
L 1261.970445 -332.50437 
L 1243.253354 -334.479708 
L 1224.536263 -335.206821 
L 1205.819172 -337.368528 
L 1187.102081 -341.161976 
L 1168.384989 -343.193521 
L 1149.667898 -343.703433 
L 1130.950807 -345.728493 
L 1112.233716 -346.913465 
L 1093.516625 -349.957714 
L 1074.799534 -353.278595 
L 1056.082442 -353.973229 
L 1037.365351 -354.813754 
L 1018.64826 -356.942975 
L 999.931169 -358.662685 
L 981.214078 -361.826065 
L 962.496987 -363.200371 
L 943.779895 -366.510984 
L 925.062804 -367.706119 
L 906.345713 -370.483209 
L 887.628622 -372.309748 
L 868.911531 -374.511537 
L 850.19444 -377.2465 
L 831.477348 -378.904554 
L 812.760257 -380.879888 
L 794.043166 -382.219877 
L 775.326075 -384.853287 
L 756.608984 -386.287019 
L 737.891893 -387.784011 
L 719.174801 -389.772071 
L 700.45771 -390.493531 
L 681.740619 -392.36985 
L 663.023528 -392.15358 
L 644.306437 -390.522442 
L 625.589346 -385.623425 
L 606.872254 -384.807035 
L 588.155163 -381.106434 
L 569.438072 -352.929018 
z
" id="mdec50e5777" style="stroke:#d95f02;stroke-opacity:0.2;"/>
    </defs>
    <g clip-path="url(#pa606e4543e)">
     <use style="fill:#d95f02;fill-opacity:0.2;stroke:#d95f02;stroke-opacity:0.2;" x="0" xlink:href="#mdec50e5777" y="648"/>
    </g>
   </g>
   <g id="line2d_1">
    <path clip-path="url(#pa606e4543e)" d="M 569.438072 287.534745 
L 588.155163 271.267793 
L 606.872254 265.244511 
L 625.589346 262.738851 
L 644.306437 262.37921 
L 663.023528 263.255669 
L 681.740619 265.701663 
L 700.45771 268.788015 
L 719.174801 271.042367 
L 737.891893 273.56378 
L 756.608984 276.611857 
L 775.326075 278.822087 
L 794.043166 281.331385 
L 812.760257 283.897267 
L 831.477348 286.462051 
L 850.19444 289.240777 
L 868.911531 291.991825 
L 887.628622 294.496999 
L 906.345713 297.659246 
L 925.062804 300.377032 
L 943.779895 302.968111 
L 962.496987 305.613682 
L 981.214078 307.601529 
L 999.931169 309.599147 
L 1018.64826 311.714606 
L 1037.365351 313.565146 
L 1056.082442 315.499164 
L 1074.799534 317.6302 
L 1093.516625 319.466162 
L 1112.233716 320.850593 
L 1130.950807 322.664342 
L 1149.667898 324.570831 
L 1168.384989 326.648474 
L 1187.102081 328.227119 
L 1205.819172 330.104646 
L 1224.536263 331.899242 
L 1243.253354 333.717827 
L 1261.970445 335.41469 
L 1280.687536 337.419565 
L 1299.404628 339.023381 
L 1318.121719 340.559156 
L 1336.83881 341.798307 
L 1355.555901 343.139162 
L 1374.272992 344.645814 
L 1392.990083 345.91228 
L 1411.707174 347.119659 
L 1430.424266 348.376911 
L 1449.141357 350.017062 
L 1467.858448 351.212242 
L 1486.575539 352.543347 
L 1505.29263 353.556476 
L 1524.009721 354.467966 
L 1542.726813 355.639632 
L 1561.443904 356.545231 
L 1580.160995 357.501289 
L 1598.878086 358.513241 
L 1617.595177 359.41757 
L 1636.312268 360.508163 
L 1655.02936 361.312294 
L 1673.746451 362.126055 
" style="fill:none;stroke:#1b9e77;stroke-linecap:round;stroke-width:1.5;"/>
    <defs>
     <path d="M 0 5 
C 1.326016 5 2.597899 4.473168 3.535534 3.535534 
C 4.473168 2.597899 5 1.326016 5 0 
C 5 -1.326016 4.473168 -2.597899 3.535534 -3.535534 
C 2.597899 -4.473168 1.326016 -5 0 -5 
C -1.326016 -5 -2.597899 -4.473168 -3.535534 -3.535534 
C -4.473168 -2.597899 -5 -1.326016 -5 0 
C -5 1.326016 -4.473168 2.597899 -3.535534 3.535534 
C -2.597899 4.473168 -1.326016 5 0 5 
z
" id="m2d95cf36db" style="stroke:#000000;stroke-opacity:0;stroke-width:0.75;"/>
    </defs>
    <g clip-path="url(#pa606e4543e)">
     <use style="fill:#1b9e77;stroke:#000000;stroke-opacity:0;stroke-width:0.75;" x="569.438072" xlink:href="#m2d95cf36db" y="287.534745"/>
     <use style="fill:#1b9e77;stroke:#000000;stroke-opacity:0;stroke-width:0.75;" x="588.155163" xlink:href="#m2d95cf36db" y="271.267793"/>
     <use style="fill:#1b9e77;stroke:#000000;stroke-opacity:0;stroke-width:0.75;" x="606.872254" xlink:href="#m2d95cf36db" y="265.244511"/>
     <use style="fill:#1b9e77;stroke:#000000;stroke-opacity:0;stroke-width:0.75;" x="625.589346" xlink:href="#m2d95cf36db" y="262.738851"/>
     <use style="fill:#1b9e77;stroke:#000000;stroke-opacity:0;stroke-width:0.75;" x="644.306437" xlink:href="#m2d95cf36db" y="262.37921"/>
     <use style="fill:#1b9e77;stroke:#000000;stroke-opacity:0;stroke-width:0.75;" x="663.023528" xlink:href="#m2d95cf36db" y="263.255669"/>
     <use style="fill:#1b9e77;stroke:#000000;stroke-opacity:0;stroke-width:0.75;" x="681.740619" xlink:href="#m2d95cf36db" y="265.701663"/>
     <use style="fill:#1b9e77;stroke:#000000;stroke-opacity:0;stroke-width:0.75;" x="700.45771" xlink:href="#m2d95cf36db" y="268.788015"/>
     <use style="fill:#1b9e77;stroke:#000000;stroke-opacity:0;stroke-width:0.75;" x="719.174801" xlink:href="#m2d95cf36db" y="271.042367"/>
     <use style="fill:#1b9e77;stroke:#000000;stroke-opacity:0;stroke-width:0.75;" x="737.891893" xlink:href="#m2d95cf36db" y="273.56378"/>
     <use style="fill:#1b9e77;stroke:#000000;stroke-opacity:0;stroke-width:0.75;" x="756.608984" xlink:href="#m2d95cf36db" y="276.611857"/>
     <use style="fill:#1b9e77;stroke:#000000;stroke-opacity:0;stroke-width:0.75;" x="775.326075" xlink:href="#m2d95cf36db" y="278.822087"/>
     <use style="fill:#1b9e77;stroke:#000000;stroke-opacity:0;stroke-width:0.75;" x="794.043166" xlink:href="#m2d95cf36db" y="281.331385"/>
     <use style="fill:#1b9e77;stroke:#000000;stroke-opacity:0;stroke-width:0.75;" x="812.760257" xlink:href="#m2d95cf36db" y="283.897267"/>
     <use style="fill:#1b9e77;stroke:#000000;stroke-opacity:0;stroke-width:0.75;" x="831.477348" xlink:href="#m2d95cf36db" y="286.462051"/>
     <use style="fill:#1b9e77;stroke:#000000;stroke-opacity:0;stroke-width:0.75;" x="850.19444" xlink:href="#m2d95cf36db" y="289.240777"/>
     <use style="fill:#1b9e77;stroke:#000000;stroke-opacity:0;stroke-width:0.75;" x="868.911531" xlink:href="#m2d95cf36db" y="291.991825"/>
     <use style="fill:#1b9e77;stroke:#000000;stroke-opacity:0;stroke-width:0.75;" x="887.628622" xlink:href="#m2d95cf36db" y="294.496999"/>
     <use style="fill:#1b9e77;stroke:#000000;stroke-opacity:0;stroke-width:0.75;" x="906.345713" xlink:href="#m2d95cf36db" y="297.659246"/>
     <use style="fill:#1b9e77;stroke:#000000;stroke-opacity:0;stroke-width:0.75;" x="925.062804" xlink:href="#m2d95cf36db" y="300.377032"/>
     <use style="fill:#1b9e77;stroke:#000000;stroke-opacity:0;stroke-width:0.75;" x="943.779895" xlink:href="#m2d95cf36db" y="302.968111"/>
     <use style="fill:#1b9e77;stroke:#000000;stroke-opacity:0;stroke-width:0.75;" x="962.496987" xlink:href="#m2d95cf36db" y="305.613682"/>
     <use style="fill:#1b9e77;stroke:#000000;stroke-opacity:0;stroke-width:0.75;" x="981.214078" xlink:href="#m2d95cf36db" y="307.601529"/>
     <use style="fill:#1b9e77;stroke:#000000;stroke-opacity:0;stroke-width:0.75;" x="999.931169" xlink:href="#m2d95cf36db" y="309.599147"/>
     <use style="fill:#1b9e77;stroke:#000000;stroke-opacity:0;stroke-width:0.75;" x="1018.64826" xlink:href="#m2d95cf36db" y="311.714606"/>
     <use style="fill:#1b9e77;stroke:#000000;stroke-opacity:0;stroke-width:0.75;" x="1037.365351" xlink:href="#m2d95cf36db" y="313.565146"/>
     <use style="fill:#1b9e77;stroke:#000000;stroke-opacity:0;stroke-width:0.75;" x="1056.082442" xlink:href="#m2d95cf36db" y="315.499164"/>
     <use style="fill:#1b9e77;stroke:#000000;stroke-opacity:0;stroke-width:0.75;" x="1074.799534" xlink:href="#m2d95cf36db" y="317.6302"/>
     <use style="fill:#1b9e77;stroke:#000000;stroke-opacity:0;stroke-width:0.75;" x="1093.516625" xlink:href="#m2d95cf36db" y="319.466162"/>
     <use style="fill:#1b9e77;stroke:#000000;stroke-opacity:0;stroke-width:0.75;" x="1112.233716" xlink:href="#m2d95cf36db" y="320.850593"/>
     <use style="fill:#1b9e77;stroke:#000000;stroke-opacity:0;stroke-width:0.75;" x="1130.950807" xlink:href="#m2d95cf36db" y="322.664342"/>
     <use style="fill:#1b9e77;stroke:#000000;stroke-opacity:0;stroke-width:0.75;" x="1149.667898" xlink:href="#m2d95cf36db" y="324.570831"/>
     <use style="fill:#1b9e77;stroke:#000000;stroke-opacity:0;stroke-width:0.75;" x="1168.384989" xlink:href="#m2d95cf36db" y="326.648474"/>
     <use style="fill:#1b9e77;stroke:#000000;stroke-opacity:0;stroke-width:0.75;" x="1187.102081" xlink:href="#m2d95cf36db" y="328.227119"/>
     <use style="fill:#1b9e77;stroke:#000000;stroke-opacity:0;stroke-width:0.75;" x="1205.819172" xlink:href="#m2d95cf36db" y="330.104646"/>
     <use style="fill:#1b9e77;stroke:#000000;stroke-opacity:0;stroke-width:0.75;" x="1224.536263" xlink:href="#m2d95cf36db" y="331.899242"/>
     <use style="fill:#1b9e77;stroke:#000000;stroke-opacity:0;stroke-width:0.75;" x="1243.253354" xlink:href="#m2d95cf36db" y="333.717827"/>
     <use style="fill:#1b9e77;stroke:#000000;stroke-opacity:0;stroke-width:0.75;" x="1261.970445" xlink:href="#m2d95cf36db" y="335.41469"/>
     <use style="fill:#1b9e77;stroke:#000000;stroke-opacity:0;stroke-width:0.75;" x="1280.687536" xlink:href="#m2d95cf36db" y="337.419565"/>
     <use style="fill:#1b9e77;stroke:#000000;stroke-opacity:0;stroke-width:0.75;" x="1299.404628" xlink:href="#m2d95cf36db" y="339.023381"/>
     <use style="fill:#1b9e77;stroke:#000000;stroke-opacity:0;stroke-width:0.75;" x="1318.121719" xlink:href="#m2d95cf36db" y="340.559156"/>
     <use style="fill:#1b9e77;stroke:#000000;stroke-opacity:0;stroke-width:0.75;" x="1336.83881" xlink:href="#m2d95cf36db" y="341.798307"/>
     <use style="fill:#1b9e77;stroke:#000000;stroke-opacity:0;stroke-width:0.75;" x="1355.555901" xlink:href="#m2d95cf36db" y="343.139162"/>
     <use style="fill:#1b9e77;stroke:#000000;stroke-opacity:0;stroke-width:0.75;" x="1374.272992" xlink:href="#m2d95cf36db" y="344.645814"/>
     <use style="fill:#1b9e77;stroke:#000000;stroke-opacity:0;stroke-width:0.75;" x="1392.990083" xlink:href="#m2d95cf36db" y="345.91228"/>
     <use style="fill:#1b9e77;stroke:#000000;stroke-opacity:0;stroke-width:0.75;" x="1411.707174" xlink:href="#m2d95cf36db" y="347.119659"/>
     <use style="fill:#1b9e77;stroke:#000000;stroke-opacity:0;stroke-width:0.75;" x="1430.424266" xlink:href="#m2d95cf36db" y="348.376911"/>
     <use style="fill:#1b9e77;stroke:#000000;stroke-opacity:0;stroke-width:0.75;" x="1449.141357" xlink:href="#m2d95cf36db" y="350.017062"/>
     <use style="fill:#1b9e77;stroke:#000000;stroke-opacity:0;stroke-width:0.75;" x="1467.858448" xlink:href="#m2d95cf36db" y="351.212242"/>
     <use style="fill:#1b9e77;stroke:#000000;stroke-opacity:0;stroke-width:0.75;" x="1486.575539" xlink:href="#m2d95cf36db" y="352.543347"/>
     <use style="fill:#1b9e77;stroke:#000000;stroke-opacity:0;stroke-width:0.75;" x="1505.29263" xlink:href="#m2d95cf36db" y="353.556476"/>
     <use style="fill:#1b9e77;stroke:#000000;stroke-opacity:0;stroke-width:0.75;" x="1524.009721" xlink:href="#m2d95cf36db" y="354.467966"/>
     <use style="fill:#1b9e77;stroke:#000000;stroke-opacity:0;stroke-width:0.75;" x="1542.726813" xlink:href="#m2d95cf36db" y="355.639632"/>
     <use style="fill:#1b9e77;stroke:#000000;stroke-opacity:0;stroke-width:0.75;" x="1561.443904" xlink:href="#m2d95cf36db" y="356.545231"/>
     <use style="fill:#1b9e77;stroke:#000000;stroke-opacity:0;stroke-width:0.75;" x="1580.160995" xlink:href="#m2d95cf36db" y="357.501289"/>
     <use style="fill:#1b9e77;stroke:#000000;stroke-opacity:0;stroke-width:0.75;" x="1598.878086" xlink:href="#m2d95cf36db" y="358.513241"/>
     <use style="fill:#1b9e77;stroke:#000000;stroke-opacity:0;stroke-width:0.75;" x="1617.595177" xlink:href="#m2d95cf36db" y="359.41757"/>
     <use style="fill:#1b9e77;stroke:#000000;stroke-opacity:0;stroke-width:0.75;" x="1636.312268" xlink:href="#m2d95cf36db" y="360.508163"/>
     <use style="fill:#1b9e77;stroke:#000000;stroke-opacity:0;stroke-width:0.75;" x="1655.02936" xlink:href="#m2d95cf36db" y="361.312294"/>
     <use style="fill:#1b9e77;stroke:#000000;stroke-opacity:0;stroke-width:0.75;" x="1673.746451" xlink:href="#m2d95cf36db" y="362.126055"/>
    </g>
   </g>
   <g id="line2d_2">
    <path clip-path="url(#pa606e4543e)" d="M 569.438072 309.571397 
L 588.155163 281.351142 
L 606.872254 277.820345 
L 625.589346 277.896189 
L 644.306437 274.654537 
L 663.023528 271.328774 
L 681.740619 270.960389 
L 700.45771 272.590007 
L 719.174801 274.640676 
L 737.891893 275.235585 
L 756.608984 276.694357 
L 775.326075 278.028931 
L 794.043166 279.743827 
L 812.760257 281.248386 
L 831.477348 283.437046 
L 850.19444 285.618073 
L 868.911531 288.178862 
L 887.628622 290.041287 
L 906.345713 291.897688 
L 925.062804 294.392412 
L 943.779895 296.619317 
L 962.496987 298.723777 
L 981.214078 300.481484 
L 999.931169 302.50632 
L 1018.64826 304.050122 
L 1037.365351 305.737443 
L 1056.082442 307.093938 
L 1074.799534 308.921562 
L 1093.516625 311.1212 
L 1112.233716 313.315779 
L 1130.950807 315.053449 
L 1149.667898 316.898183 
L 1168.384989 318.476346 
L 1187.102081 320.338528 
L 1205.819172 322.595453 
L 1224.536263 324.428894 
L 1243.253354 325.799758 
L 1261.970445 327.391129 
L 1280.687536 328.907025 
L 1299.404628 330.509913 
L 1318.121719 331.993915 
L 1336.83881 333.21959 
L 1355.555901 334.528598 
L 1374.272992 336.219984 
L 1392.990083 337.17572 
L 1411.707174 338.412161 
L 1430.424266 339.535626 
L 1449.141357 340.587769 
L 1467.858448 342.467186 
L 1486.575539 344.140638 
L 1505.29263 345.740432 
L 1524.009721 346.979456 
L 1542.726813 348.065956 
L 1561.443904 348.842915 
L 1580.160995 350.37711 
L 1598.878086 350.970502 
L 1617.595177 351.533395 
L 1636.312268 352.709866 
L 1655.02936 353.881359 
L 1673.746451 355.116428 
" style="fill:none;stroke:#d95f02;stroke-linecap:round;stroke-width:1.5;"/>
    <defs>
     <path d="M 0 5 
C 1.326016 5 2.597899 4.473168 3.535534 3.535534 
C 4.473168 2.597899 5 1.326016 5 0 
C 5 -1.326016 4.473168 -2.597899 3.535534 -3.535534 
C 2.597899 -4.473168 1.326016 -5 0 -5 
C -1.326016 -5 -2.597899 -4.473168 -3.535534 -3.535534 
C -4.473168 -2.597899 -5 -1.326016 -5 0 
C -5 1.326016 -4.473168 2.597899 -3.535534 3.535534 
C -2.597899 4.473168 -1.326016 5 0 5 
z
" id="md5ecf46a14" style="stroke:#000000;stroke-opacity:0;stroke-width:0.75;"/>
    </defs>
    <g clip-path="url(#pa606e4543e)">
     <use style="fill:#d95f02;stroke:#000000;stroke-opacity:0;stroke-width:0.75;" x="569.438072" xlink:href="#md5ecf46a14" y="309.571397"/>
     <use style="fill:#d95f02;stroke:#000000;stroke-opacity:0;stroke-width:0.75;" x="588.155163" xlink:href="#md5ecf46a14" y="281.351142"/>
     <use style="fill:#d95f02;stroke:#000000;stroke-opacity:0;stroke-width:0.75;" x="606.872254" xlink:href="#md5ecf46a14" y="277.820345"/>
     <use style="fill:#d95f02;stroke:#000000;stroke-opacity:0;stroke-width:0.75;" x="625.589346" xlink:href="#md5ecf46a14" y="277.896189"/>
     <use style="fill:#d95f02;stroke:#000000;stroke-opacity:0;stroke-width:0.75;" x="644.306437" xlink:href="#md5ecf46a14" y="274.654537"/>
     <use style="fill:#d95f02;stroke:#000000;stroke-opacity:0;stroke-width:0.75;" x="663.023528" xlink:href="#md5ecf46a14" y="271.328774"/>
     <use style="fill:#d95f02;stroke:#000000;stroke-opacity:0;stroke-width:0.75;" x="681.740619" xlink:href="#md5ecf46a14" y="270.960389"/>
     <use style="fill:#d95f02;stroke:#000000;stroke-opacity:0;stroke-width:0.75;" x="700.45771" xlink:href="#md5ecf46a14" y="272.590007"/>
     <use style="fill:#d95f02;stroke:#000000;stroke-opacity:0;stroke-width:0.75;" x="719.174801" xlink:href="#md5ecf46a14" y="274.640676"/>
     <use style="fill:#d95f02;stroke:#000000;stroke-opacity:0;stroke-width:0.75;" x="737.891893" xlink:href="#md5ecf46a14" y="275.235585"/>
     <use style="fill:#d95f02;stroke:#000000;stroke-opacity:0;stroke-width:0.75;" x="756.608984" xlink:href="#md5ecf46a14" y="276.694357"/>
     <use style="fill:#d95f02;stroke:#000000;stroke-opacity:0;stroke-width:0.75;" x="775.326075" xlink:href="#md5ecf46a14" y="278.028931"/>
     <use style="fill:#d95f02;stroke:#000000;stroke-opacity:0;stroke-width:0.75;" x="794.043166" xlink:href="#md5ecf46a14" y="279.743827"/>
     <use style="fill:#d95f02;stroke:#000000;stroke-opacity:0;stroke-width:0.75;" x="812.760257" xlink:href="#md5ecf46a14" y="281.248386"/>
     <use style="fill:#d95f02;stroke:#000000;stroke-opacity:0;stroke-width:0.75;" x="831.477348" xlink:href="#md5ecf46a14" y="283.437046"/>
     <use style="fill:#d95f02;stroke:#000000;stroke-opacity:0;stroke-width:0.75;" x="850.19444" xlink:href="#md5ecf46a14" y="285.618073"/>
     <use style="fill:#d95f02;stroke:#000000;stroke-opacity:0;stroke-width:0.75;" x="868.911531" xlink:href="#md5ecf46a14" y="288.178862"/>
     <use style="fill:#d95f02;stroke:#000000;stroke-opacity:0;stroke-width:0.75;" x="887.628622" xlink:href="#md5ecf46a14" y="290.041287"/>
     <use style="fill:#d95f02;stroke:#000000;stroke-opacity:0;stroke-width:0.75;" x="906.345713" xlink:href="#md5ecf46a14" y="291.897688"/>
     <use style="fill:#d95f02;stroke:#000000;stroke-opacity:0;stroke-width:0.75;" x="925.062804" xlink:href="#md5ecf46a14" y="294.392412"/>
     <use style="fill:#d95f02;stroke:#000000;stroke-opacity:0;stroke-width:0.75;" x="943.779895" xlink:href="#md5ecf46a14" y="296.619317"/>
     <use style="fill:#d95f02;stroke:#000000;stroke-opacity:0;stroke-width:0.75;" x="962.496987" xlink:href="#md5ecf46a14" y="298.723777"/>
     <use style="fill:#d95f02;stroke:#000000;stroke-opacity:0;stroke-width:0.75;" x="981.214078" xlink:href="#md5ecf46a14" y="300.481484"/>
     <use style="fill:#d95f02;stroke:#000000;stroke-opacity:0;stroke-width:0.75;" x="999.931169" xlink:href="#md5ecf46a14" y="302.50632"/>
     <use style="fill:#d95f02;stroke:#000000;stroke-opacity:0;stroke-width:0.75;" x="1018.64826" xlink:href="#md5ecf46a14" y="304.050122"/>
     <use style="fill:#d95f02;stroke:#000000;stroke-opacity:0;stroke-width:0.75;" x="1037.365351" xlink:href="#md5ecf46a14" y="305.737443"/>
     <use style="fill:#d95f02;stroke:#000000;stroke-opacity:0;stroke-width:0.75;" x="1056.082442" xlink:href="#md5ecf46a14" y="307.093938"/>
     <use style="fill:#d95f02;stroke:#000000;stroke-opacity:0;stroke-width:0.75;" x="1074.799534" xlink:href="#md5ecf46a14" y="308.921562"/>
     <use style="fill:#d95f02;stroke:#000000;stroke-opacity:0;stroke-width:0.75;" x="1093.516625" xlink:href="#md5ecf46a14" y="311.1212"/>
     <use style="fill:#d95f02;stroke:#000000;stroke-opacity:0;stroke-width:0.75;" x="1112.233716" xlink:href="#md5ecf46a14" y="313.315779"/>
     <use style="fill:#d95f02;stroke:#000000;stroke-opacity:0;stroke-width:0.75;" x="1130.950807" xlink:href="#md5ecf46a14" y="315.053449"/>
     <use style="fill:#d95f02;stroke:#000000;stroke-opacity:0;stroke-width:0.75;" x="1149.667898" xlink:href="#md5ecf46a14" y="316.898183"/>
     <use style="fill:#d95f02;stroke:#000000;stroke-opacity:0;stroke-width:0.75;" x="1168.384989" xlink:href="#md5ecf46a14" y="318.476346"/>
     <use style="fill:#d95f02;stroke:#000000;stroke-opacity:0;stroke-width:0.75;" x="1187.102081" xlink:href="#md5ecf46a14" y="320.338528"/>
     <use style="fill:#d95f02;stroke:#000000;stroke-opacity:0;stroke-width:0.75;" x="1205.819172" xlink:href="#md5ecf46a14" y="322.595453"/>
     <use style="fill:#d95f02;stroke:#000000;stroke-opacity:0;stroke-width:0.75;" x="1224.536263" xlink:href="#md5ecf46a14" y="324.428894"/>
     <use style="fill:#d95f02;stroke:#000000;stroke-opacity:0;stroke-width:0.75;" x="1243.253354" xlink:href="#md5ecf46a14" y="325.799758"/>
     <use style="fill:#d95f02;stroke:#000000;stroke-opacity:0;stroke-width:0.75;" x="1261.970445" xlink:href="#md5ecf46a14" y="327.391129"/>
     <use style="fill:#d95f02;stroke:#000000;stroke-opacity:0;stroke-width:0.75;" x="1280.687536" xlink:href="#md5ecf46a14" y="328.907025"/>
     <use style="fill:#d95f02;stroke:#000000;stroke-opacity:0;stroke-width:0.75;" x="1299.404628" xlink:href="#md5ecf46a14" y="330.509913"/>
     <use style="fill:#d95f02;stroke:#000000;stroke-opacity:0;stroke-width:0.75;" x="1318.121719" xlink:href="#md5ecf46a14" y="331.993915"/>
     <use style="fill:#d95f02;stroke:#000000;stroke-opacity:0;stroke-width:0.75;" x="1336.83881" xlink:href="#md5ecf46a14" y="333.21959"/>
     <use style="fill:#d95f02;stroke:#000000;stroke-opacity:0;stroke-width:0.75;" x="1355.555901" xlink:href="#md5ecf46a14" y="334.528598"/>
     <use style="fill:#d95f02;stroke:#000000;stroke-opacity:0;stroke-width:0.75;" x="1374.272992" xlink:href="#md5ecf46a14" y="336.219984"/>
     <use style="fill:#d95f02;stroke:#000000;stroke-opacity:0;stroke-width:0.75;" x="1392.990083" xlink:href="#md5ecf46a14" y="337.17572"/>
     <use style="fill:#d95f02;stroke:#000000;stroke-opacity:0;stroke-width:0.75;" x="1411.707174" xlink:href="#md5ecf46a14" y="338.412161"/>
     <use style="fill:#d95f02;stroke:#000000;stroke-opacity:0;stroke-width:0.75;" x="1430.424266" xlink:href="#md5ecf46a14" y="339.535626"/>
     <use style="fill:#d95f02;stroke:#000000;stroke-opacity:0;stroke-width:0.75;" x="1449.141357" xlink:href="#md5ecf46a14" y="340.587769"/>
     <use style="fill:#d95f02;stroke:#000000;stroke-opacity:0;stroke-width:0.75;" x="1467.858448" xlink:href="#md5ecf46a14" y="342.467186"/>
     <use style="fill:#d95f02;stroke:#000000;stroke-opacity:0;stroke-width:0.75;" x="1486.575539" xlink:href="#md5ecf46a14" y="344.140638"/>
     <use style="fill:#d95f02;stroke:#000000;stroke-opacity:0;stroke-width:0.75;" x="1505.29263" xlink:href="#md5ecf46a14" y="345.740432"/>
     <use style="fill:#d95f02;stroke:#000000;stroke-opacity:0;stroke-width:0.75;" x="1524.009721" xlink:href="#md5ecf46a14" y="346.979456"/>
     <use style="fill:#d95f02;stroke:#000000;stroke-opacity:0;stroke-width:0.75;" x="1542.726813" xlink:href="#md5ecf46a14" y="348.065956"/>
     <use style="fill:#d95f02;stroke:#000000;stroke-opacity:0;stroke-width:0.75;" x="1561.443904" xlink:href="#md5ecf46a14" y="348.842915"/>
     <use style="fill:#d95f02;stroke:#000000;stroke-opacity:0;stroke-width:0.75;" x="1580.160995" xlink:href="#md5ecf46a14" y="350.37711"/>
     <use style="fill:#d95f02;stroke:#000000;stroke-opacity:0;stroke-width:0.75;" x="1598.878086" xlink:href="#md5ecf46a14" y="350.970502"/>
     <use style="fill:#d95f02;stroke:#000000;stroke-opacity:0;stroke-width:0.75;" x="1617.595177" xlink:href="#md5ecf46a14" y="351.533395"/>
     <use style="fill:#d95f02;stroke:#000000;stroke-opacity:0;stroke-width:0.75;" x="1636.312268" xlink:href="#md5ecf46a14" y="352.709866"/>
     <use style="fill:#d95f02;stroke:#000000;stroke-opacity:0;stroke-width:0.75;" x="1655.02936" xlink:href="#md5ecf46a14" y="353.881359"/>
     <use style="fill:#d95f02;stroke:#000000;stroke-opacity:0;stroke-width:0.75;" x="1673.746451" xlink:href="#md5ecf46a14" y="355.116428"/>
    </g>
   </g>
   <g id="line2d_3"/>
   <g id="line2d_4"/>
   <g id="patch_3">
    <path d="M 547.351905 447.24 
L 547.351905 107.76 
" style="fill:none;stroke:#262626;stroke-linecap:square;stroke-linejoin:miter;stroke-width:2;"/>
   </g>
   <g id="patch_4">
    <path d="M 547.351905 447.24 
L 1695.832618 447.24 
" style="fill:none;stroke:#262626;stroke-linecap:square;stroke-linejoin:miter;stroke-width:2;"/>
   </g>
   <g id="legend_1">
    <g id="line2d_5">
     <path d="M 1373.694493 154.0875 
L 1445.694493 154.0875 
" style="fill:none;stroke:#1b9e77;stroke-linecap:round;stroke-width:1.5;"/>
    </g>
    <g id="line2d_6">
     <g>
      <use style="fill:#1b9e77;stroke:#000000;stroke-opacity:0;stroke-width:0.75;" x="1409.694493" xlink:href="#m2d95cf36db" y="154.0875"/>
     </g>
    </g>
    <g id="text_16">
     <!-- Congruent -->
     <g style="fill:#262626;" transform="translate(1474.494493 166.6875)scale(0.36 -0.36)">
      <defs>
       <path d="M 831 1684 
Q 831 1069 1075 730 
Q 1319 391 1734 391 
Q 2138 391 2394 684 
Q 2650 978 2650 1516 
Q 2650 2222 2426 2580 
Q 2203 2938 1747 2938 
Q 1288 2938 1059 2633 
Q 831 2328 831 1684 
z
M 3188 191 
Q 3188 -616 2800 -1012 
Q 2413 -1409 1631 -1409 
Q 1069 -1409 736 -1150 
Q 403 -891 353 -409 
L 916 -409 
Q 959 -653 1142 -797 
Q 1325 -941 1672 -941 
Q 2144 -941 2384 -687 
Q 2625 -434 2625 134 
L 2625 372 
L 2613 372 
Q 2297 -97 1722 -97 
Q 1006 -97 628 431 
Q 250 959 250 1772 
Q 250 2516 631 2980 
Q 1013 3444 1644 3444 
Q 2278 3444 2644 2875 
L 2656 2875 
L 2656 3347 
L 3188 3347 
L 3188 191 
z
" id="HelveticaWorld-Regular-67" transform="scale(0.015625)"/>
      </defs>
      <use xlink:href="#HelveticaWorld-Regular-43"/>
      <use x="72.314453" xlink:href="#HelveticaWorld-Regular-6f"/>
      <use x="128.222656" xlink:href="#HelveticaWorld-Regular-6e"/>
      <use x="183.398438" xlink:href="#HelveticaWorld-Regular-67"/>
      <use x="239.306641" xlink:href="#HelveticaWorld-Regular-72"/>
      <use x="271.875" xlink:href="#HelveticaWorld-Regular-75"/>
      <use x="326.660156" xlink:href="#HelveticaWorld-Regular-65"/>
      <use x="382.080078" xlink:href="#HelveticaWorld-Regular-6e"/>
      <use x="437.255859" xlink:href="#HelveticaWorld-Regular-74"/>
     </g>
    </g>
    <g id="line2d_7">
     <path d="M 1373.694493 205.854375 
L 1445.694493 205.854375 
" style="fill:none;stroke:#d95f02;stroke-linecap:round;stroke-width:1.5;"/>
    </g>
    <g id="line2d_8">
     <g>
      <use style="fill:#d95f02;stroke:#000000;stroke-opacity:0;stroke-width:0.75;" x="1409.694493" xlink:href="#md5ecf46a14" y="205.854375"/>
     </g>
    </g>
    <g id="text_17">
     <!-- Incongruent -->
     <g style="fill:#262626;" transform="translate(1474.494493 218.454375)scale(0.36 -0.36)">
      <defs>
       <path d="M 2534 2222 
Q 2413 2938 1741 2938 
Q 1325 2938 1072 2605 
Q 819 2272 819 1678 
Q 819 1031 1053 711 
Q 1288 391 1734 391 
Q 2034 391 2253 611 
Q 2472 831 2534 1184 
L 3078 1184 
Q 2994 563 2639 233 
Q 2284 -97 1722 -97 
Q 1063 -97 641 354 
Q 219 806 219 1581 
Q 219 2431 641 2937 
Q 1063 3444 1825 3444 
Q 2381 3444 2711 3111 
Q 3041 2778 3078 2222 
L 2534 2222 
z
" id="HelveticaWorld-Regular-63" transform="scale(0.015625)"/>
      </defs>
      <use xlink:href="#HelveticaWorld-Regular-49"/>
      <use x="25.78125" xlink:href="#HelveticaWorld-Regular-6e"/>
      <use x="80.957031" xlink:href="#HelveticaWorld-Regular-63"/>
      <use x="132.226562" xlink:href="#HelveticaWorld-Regular-6f"/>
      <use x="188.134766" xlink:href="#HelveticaWorld-Regular-6e"/>
      <use x="243.310547" xlink:href="#HelveticaWorld-Regular-67"/>
      <use x="299.21875" xlink:href="#HelveticaWorld-Regular-72"/>
      <use x="331.787109" xlink:href="#HelveticaWorld-Regular-75"/>
      <use x="386.572266" xlink:href="#HelveticaWorld-Regular-65"/>
      <use x="441.992188" xlink:href="#HelveticaWorld-Regular-6e"/>
      <use x="497.167969" xlink:href="#HelveticaWorld-Regular-74"/>
     </g>
    </g>
   </g>
  </g>
  <g id="axes_2">
   <g id="patch_5">
    <path d="M 128.675 544.2 
L 439.801905 544.2 
L 439.801905 10.8 
L 128.675 10.8 
z
" style="fill:#ffffff;"/>
   </g>
   <g id="matplotlib.axis_3">
    <g id="xtick_9">
     <g id="text_18">
      <!-- Left -->
      <g style="fill:#262626;" transform="translate(202.677736 577.04125)scale(0.36 -0.36)">
       <defs>
        <path d="M 1131 550 
L 3469 550 
L 3469 0 
L 519 0 
L 519 4594 
L 1131 4594 
L 1131 550 
z
" id="HelveticaWorld-Regular-4c" transform="scale(0.015625)"/>
       </defs>
       <use xlink:href="#HelveticaWorld-Regular-4c"/>
       <use x="53.865234" xlink:href="#HelveticaWorld-Regular-65"/>
       <use x="108.285156" xlink:href="#HelveticaWorld-Regular-66"/>
       <use x="135.970703" xlink:href="#HelveticaWorld-Regular-74"/>
      </g>
     </g>
    </g>
    <g id="xtick_10">
     <g id="text_19">
      <!-- Right -->
      <g style="fill:#262626;" transform="translate(294.550106 577.04125)scale(0.36 -0.36)">
       <defs>
        <path d="M 1141 2503 
L 2578 2503 
Q 3078 2503 3295 2708 
Q 3513 2913 3513 3297 
Q 3513 3647 3325 3855 
Q 3138 4063 2681 4063 
L 1141 4063 
L 1141 2503 
z
M 1141 0 
L 519 0 
L 519 4594 
L 2644 4594 
Q 3384 4594 3765 4278 
Q 4147 3963 4147 3359 
Q 4147 2963 3994 2697 
Q 3841 2431 3513 2259 
Q 3794 2156 3919 1970 
Q 4044 1784 4063 1394 
L 4103 538 
Q 4109 325 4170 239 
Q 4231 153 4341 103 
L 4341 0 
L 3572 0 
Q 3513 172 3488 522 
Q 3463 872 3463 1153 
Q 3463 1294 3438 1441 
Q 3413 1588 3328 1706 
Q 3244 1825 3081 1898 
Q 2919 1972 2644 1972 
L 1141 1972 
L 1141 0 
z
" id="HelveticaWorld-Regular-52" transform="scale(0.015625)"/>
        <path d="M 3150 0 
L 2584 0 
L 2584 2188 
Q 2584 2591 2428 2764 
Q 2272 2938 1919 2938 
Q 1484 2938 1234 2656 
Q 984 2375 984 1825 
L 984 0 
L 422 0 
L 422 4594 
L 984 4594 
L 984 2900 
L 997 2900 
Q 1381 3444 1978 3444 
Q 2528 3444 2839 3156 
Q 3150 2869 3150 2278 
L 3150 0 
z
" id="HelveticaWorld-Regular-68" transform="scale(0.015625)"/>
       </defs>
       <use xlink:href="#HelveticaWorld-Regular-52"/>
       <use x="71.386719" xlink:href="#HelveticaWorld-Regular-69"/>
       <use x="93.408203" xlink:href="#HelveticaWorld-Regular-67"/>
       <use x="149.316406" xlink:href="#HelveticaWorld-Regular-68"/>
       <use x="204.492188" xlink:href="#HelveticaWorld-Regular-74"/>
      </g>
     </g>
    </g>
    <g id="text_20">
     <!-- Hemisphere -->
     <g style="fill:#262626;" transform="translate(187.482827 626.808125)scale(0.36 -0.36)">
      <defs>
       <path d="M 4153 0 
L 3531 0 
L 3531 2144 
L 1131 2144 
L 1131 0 
L 519 0 
L 519 4594 
L 1131 4594 
L 1131 2694 
L 3531 2694 
L 3531 4594 
L 4153 4594 
L 4153 0 
z
" id="HelveticaWorld-Regular-48" transform="scale(0.015625)"/>
       <path d="M 959 1516 
Q 959 978 1221 684 
Q 1484 391 1875 391 
Q 2303 391 2540 739 
Q 2778 1088 2778 1684 
Q 2778 2338 2550 2638 
Q 2322 2938 1863 2938 
Q 1416 2938 1187 2586 
Q 959 2234 959 1516 
z
M 422 3347 
L 953 3347 
L 953 2875 
L 966 2875 
Q 1325 3444 1966 3444 
Q 2613 3444 2986 2973 
Q 3359 2503 3359 1772 
Q 3359 953 2978 428 
Q 2597 -97 1888 -97 
Q 1306 -97 997 353 
L 984 353 
L 984 -1325 
L 422 -1325 
L 422 3347 
z
" id="HelveticaWorld-Regular-70" transform="scale(0.015625)"/>
      </defs>
      <use xlink:href="#HelveticaWorld-Regular-48"/>
      <use x="72.998047" xlink:href="#HelveticaWorld-Regular-65"/>
      <use x="128.417969" xlink:href="#HelveticaWorld-Regular-6d"/>
      <use x="211.425781" xlink:href="#HelveticaWorld-Regular-69"/>
      <use x="233.447266" xlink:href="#HelveticaWorld-Regular-73"/>
      <use x="283.447266" xlink:href="#HelveticaWorld-Regular-70"/>
      <use x="339.941406" xlink:href="#HelveticaWorld-Regular-68"/>
      <use x="395.117188" xlink:href="#HelveticaWorld-Regular-65"/>
      <use x="450.537109" xlink:href="#HelveticaWorld-Regular-72"/>
      <use x="482.105469" xlink:href="#HelveticaWorld-Regular-65"/>
     </g>
    </g>
   </g>
   <g id="matplotlib.axis_4">
    <g id="ytick_6">
     <g id="text_21">
      <!-- 0.6 -->
      <g style="fill:#262626;" transform="translate(50.54125 519.020625)scale(0.36 -0.36)">
       <defs>
        <path d="M 3494 1381 
L 256 1381 
L 256 1850 
L 3494 1850 
L 3494 1381 
z
" id="HelveticaWorld-Regular-2212" transform="scale(0.015625)"/>
       </defs>
       <use xlink:href="#HelveticaWorld-Regular-2212"/>
       <use x="58.59375" xlink:href="#HelveticaWorld-Regular-30"/>
       <use x="114.208984" xlink:href="#HelveticaWorld-Regular-2e"/>
       <use x="141.992188" xlink:href="#HelveticaWorld-Regular-36"/>
      </g>
     </g>
    </g>
    <g id="ytick_7">
     <g id="text_22">
      <!-- 0.4 -->
      <g style="fill:#262626;" transform="translate(50.54125 442.820625)scale(0.36 -0.36)">
       <use xlink:href="#HelveticaWorld-Regular-2212"/>
       <use x="58.59375" xlink:href="#HelveticaWorld-Regular-30"/>
       <use x="114.208984" xlink:href="#HelveticaWorld-Regular-2e"/>
       <use x="141.992188" xlink:href="#HelveticaWorld-Regular-34"/>
      </g>
     </g>
    </g>
    <g id="ytick_8">
     <g id="text_23">
      <!-- 0.2 -->
      <g style="fill:#262626;" transform="translate(50.54125 366.620625)scale(0.36 -0.36)">
       <use xlink:href="#HelveticaWorld-Regular-2212"/>
       <use x="58.59375" xlink:href="#HelveticaWorld-Regular-30"/>
       <use x="114.208984" xlink:href="#HelveticaWorld-Regular-2e"/>
       <use x="141.992188" xlink:href="#HelveticaWorld-Regular-32"/>
      </g>
     </g>
    </g>
    <g id="ytick_9">
     <g id="text_24">
      <!-- 0.0 -->
      <g style="fill:#262626;" transform="translate(71.635 290.420625)scale(0.36 -0.36)">
       <use xlink:href="#HelveticaWorld-Regular-30"/>
       <use x="55.615234" xlink:href="#HelveticaWorld-Regular-2e"/>
       <use x="83.398438" xlink:href="#HelveticaWorld-Regular-30"/>
      </g>
     </g>
    </g>
    <g id="ytick_10">
     <g id="text_25">
      <!-- 0.2 -->
      <g style="fill:#262626;" transform="translate(71.635 214.220625)scale(0.36 -0.36)">
       <use xlink:href="#HelveticaWorld-Regular-30"/>
       <use x="55.615234" xlink:href="#HelveticaWorld-Regular-2e"/>
       <use x="83.398438" xlink:href="#HelveticaWorld-Regular-32"/>
      </g>
     </g>
    </g>
    <g id="ytick_11">
     <g id="text_26">
      <!-- 0.4 -->
      <g style="fill:#262626;" transform="translate(71.635 138.020625)scale(0.36 -0.36)">
       <use xlink:href="#HelveticaWorld-Regular-30"/>
       <use x="55.615234" xlink:href="#HelveticaWorld-Regular-2e"/>
       <use x="83.398438" xlink:href="#HelveticaWorld-Regular-34"/>
      </g>
     </g>
    </g>
    <g id="ytick_12">
     <g id="text_27">
      <!-- 0.6 -->
      <g style="fill:#262626;" transform="translate(71.635 61.820625)scale(0.36 -0.36)">
       <use xlink:href="#HelveticaWorld-Regular-30"/>
       <use x="55.615234" xlink:href="#HelveticaWorld-Regular-2e"/>
       <use x="83.398438" xlink:href="#HelveticaWorld-Regular-36"/>
      </g>
     </g>
    </g>
    <g id="text_28">
     <!--  Classifier Information (a.u.) -->
     <g style="fill:#262626;" transform="translate(39.088125 506.814375)rotate(-90)scale(0.36 -0.36)">
      <defs>
       <path d="M 941 550 
L 3244 550 
L 2125 3891 
L 2113 3891 
L 941 550 
z
M 97 0 
L 1831 4594 
L 2456 4594 
L 4128 0 
L 97 0 
z
" id="HelveticaWorld-Regular-394" transform="scale(0.015625)"/>
      </defs>
      <use xlink:href="#HelveticaWorld-Regular-394"/>
      <use x="66.015625" xlink:href="#HelveticaWorld-Regular-20"/>
      <use x="90.429688" xlink:href="#HelveticaWorld-Regular-43"/>
      <use x="162.744141" xlink:href="#HelveticaWorld-Regular-6c"/>
      <use x="184.765625" xlink:href="#HelveticaWorld-Regular-61"/>
      <use x="239.697266" xlink:href="#HelveticaWorld-Regular-73"/>
      <use x="289.697266" xlink:href="#HelveticaWorld-Regular-73"/>
      <use x="339.697266" xlink:href="#HelveticaWorld-Regular-69"/>
      <use x="361.71875" xlink:href="#HelveticaWorld-Regular-66"/>
      <use x="389.404297" xlink:href="#HelveticaWorld-Regular-69"/>
      <use x="411.425781" xlink:href="#HelveticaWorld-Regular-65"/>
      <use x="466.845703" xlink:href="#HelveticaWorld-Regular-72"/>
      <use x="499.414062" xlink:href="#HelveticaWorld-Regular-20"/>
      <use x="523.828125" xlink:href="#HelveticaWorld-Regular-49"/>
      <use x="549.609375" xlink:href="#HelveticaWorld-Regular-6e"/>
      <use x="604.785156" xlink:href="#HelveticaWorld-Regular-66"/>
      <use x="630.470703" xlink:href="#HelveticaWorld-Regular-6f"/>
      <use x="686.378906" xlink:href="#HelveticaWorld-Regular-72"/>
      <use x="718.947266" xlink:href="#HelveticaWorld-Regular-6d"/>
      <use x="801.955078" xlink:href="#HelveticaWorld-Regular-61"/>
      <use x="856.886719" xlink:href="#HelveticaWorld-Regular-74"/>
      <use x="884.572266" xlink:href="#HelveticaWorld-Regular-69"/>
      <use x="906.59375" xlink:href="#HelveticaWorld-Regular-6f"/>
      <use x="962.501953" xlink:href="#HelveticaWorld-Regular-6e"/>
      <use x="1017.677734" xlink:href="#HelveticaWorld-Regular-20"/>
      <use x="1042.091797" xlink:href="#HelveticaWorld-Regular-28"/>
      <use x="1075.392578" xlink:href="#HelveticaWorld-Regular-61"/>
      <use x="1130.324219" xlink:href="#HelveticaWorld-Regular-2e"/>
      <use x="1158.107422" xlink:href="#HelveticaWorld-Regular-75"/>
      <use x="1212.892578" xlink:href="#HelveticaWorld-Regular-2e"/>
      <use x="1240.675781" xlink:href="#HelveticaWorld-Regular-29"/>
     </g>
    </g>
   </g>
   <g id="PolyCollection_3">
    <defs>
     <path d="M 254.465543 -256.110725 
L 252.533805 -256.110725 
L 251.867583 -258.388462 
L 251.021384 -260.666199 
L 249.963424 -262.943936 
L 248.66119 -265.221673 
L 247.082824 -267.49941 
L 245.198771 -269.777147 
L 242.983626 -272.054884 
L 240.418097 -274.332621 
L 237.490981 -276.610358 
L 234.201037 -278.888095 
L 230.558598 -281.165832 
L 226.586809 -283.443569 
L 222.322317 -285.721306 
L 217.815284 -287.999043 
L 213.128591 -290.27678 
L 208.336142 -292.554517 
L 203.520219 -294.832254 
L 198.767925 -297.109991 
L 194.166807 -299.387728 
L 189.79991 -301.665465 
L 185.740554 -303.943202 
L 182.04726 -306.220939 
L 178.759302 -308.498677 
L 175.893359 -310.776414 
L 173.441725 -313.054151 
L 171.372398 -315.331888 
L 169.631235 -317.609625 
L 168.146138 -319.887362 
L 166.832993 -322.165099 
L 165.602918 -324.442836 
L 164.37015 -326.720573 
L 163.059827 -328.99831 
L 161.614895 -331.276047 
L 160.001417 -333.553784 
L 158.211761 -335.831521 
L 156.265308 -338.109258 
L 154.206632 -340.386995 
L 152.101324 -342.664732 
L 150.029914 -344.942469 
L 148.080488 -347.220206 
L 146.340754 -349.497943 
L 144.890306 -351.77568 
L 143.79382 -354.053417 
L 143.095774 -356.331154 
L 142.817132 -358.608891 
L 142.954223 -360.886628 
L 143.479822 -363.164365 
L 144.346246 -365.442102 
L 145.490094 -367.719839 
L 146.838111 -369.997576 
L 148.313582 -372.275313 
L 149.842611 -374.55305 
L 151.359699 -376.830787 
L 152.812097 -379.108524 
L 154.162584 -381.386262 
L 155.390511 -383.663999 
L 156.491136 -385.941736 
L 157.473543 -388.219473 
L 158.357562 -390.49721 
L 159.170246 -392.774947 
L 159.942508 -395.052684 
L 160.706398 -397.330421 
L 161.493401 -399.608158 
L 162.333862 -401.885895 
L 163.257419 -404.163632 
L 164.294089 -406.441369 
L 165.475487 -408.719106 
L 166.835644 -410.996843 
L 168.41092 -413.27458 
L 170.238737 -415.552317 
L 172.355093 -417.830054 
L 174.791106 -420.107791 
L 177.569076 -422.385528 
L 180.698699 -424.663265 
L 184.174089 -426.941002 
L 187.972159 -429.218739 
L 192.052694 -431.496476 
L 196.360186 -433.774213 
L 200.827208 -436.05195 
L 205.378882 -438.329687 
L 209.937859 -440.607424 
L 214.429187 -442.885161 
L 218.784529 -445.162898 
L 222.945342 -447.440635 
L 226.864825 -449.718372 
L 230.508641 -451.996109 
L 233.854576 -454.273847 
L 236.891417 -456.551584 
L 239.617342 -458.829321 
L 242.038139 -461.107058 
L 244.165453 -463.384795 
L 246.015235 -465.662532 
L 247.60645 -467.940269 
L 248.960039 -470.218006 
L 250.098109 -472.495743 
L 251.04328 -474.77348 
L 251.818143 -477.051217 
L 252.444784 -479.328954 
L 252.944366 -481.606691 
L 254.465543 -481.606691 
L 254.465543 -481.606691 
L 254.465543 -479.328954 
L 254.465543 -477.051217 
L 254.465543 -474.77348 
L 254.465543 -472.495743 
L 254.465543 -470.218006 
L 254.465543 -467.940269 
L 254.465543 -465.662532 
L 254.465543 -463.384795 
L 254.465543 -461.107058 
L 254.465543 -458.829321 
L 254.465543 -456.551584 
L 254.465543 -454.273847 
L 254.465543 -451.996109 
L 254.465543 -449.718372 
L 254.465543 -447.440635 
L 254.465543 -445.162898 
L 254.465543 -442.885161 
L 254.465543 -440.607424 
L 254.465543 -438.329687 
L 254.465543 -436.05195 
L 254.465543 -433.774213 
L 254.465543 -431.496476 
L 254.465543 -429.218739 
L 254.465543 -426.941002 
L 254.465543 -424.663265 
L 254.465543 -422.385528 
L 254.465543 -420.107791 
L 254.465543 -417.830054 
L 254.465543 -415.552317 
L 254.465543 -413.27458 
L 254.465543 -410.996843 
L 254.465543 -408.719106 
L 254.465543 -406.441369 
L 254.465543 -404.163632 
L 254.465543 -401.885895 
L 254.465543 -399.608158 
L 254.465543 -397.330421 
L 254.465543 -395.052684 
L 254.465543 -392.774947 
L 254.465543 -390.49721 
L 254.465543 -388.219473 
L 254.465543 -385.941736 
L 254.465543 -383.663999 
L 254.465543 -381.386262 
L 254.465543 -379.108524 
L 254.465543 -376.830787 
L 254.465543 -374.55305 
L 254.465543 -372.275313 
L 254.465543 -369.997576 
L 254.465543 -367.719839 
L 254.465543 -365.442102 
L 254.465543 -363.164365 
L 254.465543 -360.886628 
L 254.465543 -358.608891 
L 254.465543 -356.331154 
L 254.465543 -354.053417 
L 254.465543 -351.77568 
L 254.465543 -349.497943 
L 254.465543 -347.220206 
L 254.465543 -344.942469 
L 254.465543 -342.664732 
L 254.465543 -340.386995 
L 254.465543 -338.109258 
L 254.465543 -335.831521 
L 254.465543 -333.553784 
L 254.465543 -331.276047 
L 254.465543 -328.99831 
L 254.465543 -326.720573 
L 254.465543 -324.442836 
L 254.465543 -322.165099 
L 254.465543 -319.887362 
L 254.465543 -317.609625 
L 254.465543 -315.331888 
L 254.465543 -313.054151 
L 254.465543 -310.776414 
L 254.465543 -308.498677 
L 254.465543 -306.220939 
L 254.465543 -303.943202 
L 254.465543 -301.665465 
L 254.465543 -299.387728 
L 254.465543 -297.109991 
L 254.465543 -294.832254 
L 254.465543 -292.554517 
L 254.465543 -290.27678 
L 254.465543 -287.999043 
L 254.465543 -285.721306 
L 254.465543 -283.443569 
L 254.465543 -281.165832 
L 254.465543 -278.888095 
L 254.465543 -276.610358 
L 254.465543 -274.332621 
L 254.465543 -272.054884 
L 254.465543 -269.777147 
L 254.465543 -267.49941 
L 254.465543 -265.221673 
L 254.465543 -262.943936 
L 254.465543 -260.666199 
L 254.465543 -258.388462 
L 254.465543 -256.110725 
z
" id="mb35baf10db" style="stroke:#7a7a7a;stroke-width:1.5;"/>
    </defs>
    <g clip-path="url(#p10f0ddf257)">
     <use style="fill:#cccccc;stroke:#7a7a7a;stroke-width:1.5;" x="0" xlink:href="#mb35baf10db" y="648"/>
    </g>
   </g>
   <g id="PolyCollection_4">
    <defs>
     <path d="M 254.465543 -351.77568 
L 144.890306 -351.77568 
L 143.095774 -356.331154 
L 142.817132 -358.608891 
L 143.479822 -363.164365 
L 145.490094 -367.719839 
L 146.838111 -369.997576 
L 149.842611 -374.55305 
L 152.812097 -379.108524 
L 254.465543 -379.108524 
L 254.465543 -379.108524 
L 254.465543 -374.55305 
L 254.465543 -369.997576 
L 254.465543 -367.719839 
L 254.465543 -363.164365 
L 254.465543 -358.608891 
L 254.465543 -356.331154 
L 254.465543 -351.77568 
z
" id="m0a81c604e8" style="stroke:#666666;stroke-width:1.5;"/>
    </defs>
    <g clip-path="url(#p10f0ddf257)">
     <use style="fill:#8f8f8f;stroke:#666666;stroke-width:1.5;" x="0" xlink:href="#m0a81c604e8" y="648"/>
    </g>
   </g>
   <g id="PolyCollection_5">
    <defs>
     <path d="M 314.011362 -273.322294 
L 315.925103 -273.322294 
L 316.582583 -275.612469 
L 317.409504 -277.902644 
L 318.431213 -280.192819 
L 319.67229 -282.482995 
L 321.155753 -284.77317 
L 322.902509 -287.063345 
L 324.931156 -289.35352 
L 327.258178 -291.643696 
L 329.898472 -293.933871 
L 332.866028 -296.224046 
L 336.174496 -298.514221 
L 339.837307 -300.804397 
L 343.867011 -303.094572 
L 348.273566 -305.384747 
L 353.061496 -307.674922 
L 358.22602 -309.965098 
L 363.748533 -312.255273 
L 369.592023 -314.545448 
L 375.697189 -316.835623 
L 381.980045 -319.125798 
L 388.331725 -321.415974 
L 394.62097 -323.706149 
L 400.699465 -325.996324 
L 406.409779 -328.286499 
L 411.595319 -330.576675 
L 416.111363 -332.86685 
L 419.836053 -335.157025 
L 422.680157 -337.4472 
L 424.594527 -339.737376 
L 425.574363 -342.027551 
L 425.659773 -344.317726 
L 424.932456 -346.607901 
L 423.508778 -348.898076 
L 421.529852 -351.188252 
L 419.149589 -353.478427 
L 416.521881 -355.768602 
L 413.788207 -358.058777 
L 411.066936 -360.348953 
L 408.445451 -362.639128 
L 405.97593 -364.929303 
L 403.675221 -367.219478 
L 401.528769 -369.509654 
L 399.498048 -371.799829 
L 397.530493 -374.090004 
L 395.570567 -376.380179 
L 393.570439 -378.670355 
L 391.49877 -380.96053 
L 389.346389 -383.250705 
L 387.128095 -385.54088 
L 384.880394 -387.831055 
L 382.655634 -390.121231 
L 380.513534 -392.411406 
L 378.511488 -394.701581 
L 376.695223 -396.991756 
L 375.091255 -399.281932 
L 373.702283 -401.572107 
L 372.506148 -403.862282 
L 371.458401 -406.152457 
L 370.497961 -408.442633 
L 369.554891 -410.732808 
L 368.559057 -413.022983 
L 367.448397 -415.313158 
L 366.175659 -417.603333 
L 364.712825 -419.893509 
L 363.052811 -422.183684 
L 361.208509 -424.473859 
L 359.20956 -426.764034 
L 357.097563 -429.05421 
L 354.920515 -431.344385 
L 352.72727 -433.63456 
L 350.562698 -435.924735 
L 348.46399 -438.214911 
L 346.458353 -440.505086 
L 344.562093 -442.795261 
L 342.780934 -445.085436 
L 341.111288 -447.375612 
L 339.542177 -449.665787 
L 338.057474 -451.955962 
L 336.638237 -454.246137 
L 335.264907 -456.536312 
L 333.919261 -458.826488 
L 332.586024 -461.116663 
L 331.254089 -463.406838 
L 329.917316 -465.697013 
L 328.57488 -467.987189 
L 327.231177 -470.277364 
L 325.895287 -472.567539 
L 324.58006 -474.857714 
L 323.30089 -477.14789 
L 322.074299 -479.438065 
L 320.916485 -481.72824 
L 319.841949 -484.018415 
L 318.862373 -486.30859 
L 317.985824 -488.598766 
L 317.216342 -490.888941 
L 316.55394 -493.179116 
L 315.994944 -495.469291 
L 315.532607 -497.759467 
L 315.157894 -500.049642 
L 314.011362 -500.049642 
L 314.011362 -500.049642 
L 314.011362 -497.759467 
L 314.011362 -495.469291 
L 314.011362 -493.179116 
L 314.011362 -490.888941 
L 314.011362 -488.598766 
L 314.011362 -486.30859 
L 314.011362 -484.018415 
L 314.011362 -481.72824 
L 314.011362 -479.438065 
L 314.011362 -477.14789 
L 314.011362 -474.857714 
L 314.011362 -472.567539 
L 314.011362 -470.277364 
L 314.011362 -467.987189 
L 314.011362 -465.697013 
L 314.011362 -463.406838 
L 314.011362 -461.116663 
L 314.011362 -458.826488 
L 314.011362 -456.536312 
L 314.011362 -454.246137 
L 314.011362 -451.955962 
L 314.011362 -449.665787 
L 314.011362 -447.375612 
L 314.011362 -445.085436 
L 314.011362 -442.795261 
L 314.011362 -440.505086 
L 314.011362 -438.214911 
L 314.011362 -435.924735 
L 314.011362 -433.63456 
L 314.011362 -431.344385 
L 314.011362 -429.05421 
L 314.011362 -426.764034 
L 314.011362 -424.473859 
L 314.011362 -422.183684 
L 314.011362 -419.893509 
L 314.011362 -417.603333 
L 314.011362 -415.313158 
L 314.011362 -413.022983 
L 314.011362 -410.732808 
L 314.011362 -408.442633 
L 314.011362 -406.152457 
L 314.011362 -403.862282 
L 314.011362 -401.572107 
L 314.011362 -399.281932 
L 314.011362 -396.991756 
L 314.011362 -394.701581 
L 314.011362 -392.411406 
L 314.011362 -390.121231 
L 314.011362 -387.831055 
L 314.011362 -385.54088 
L 314.011362 -383.250705 
L 314.011362 -380.96053 
L 314.011362 -378.670355 
L 314.011362 -376.380179 
L 314.011362 -374.090004 
L 314.011362 -371.799829 
L 314.011362 -369.509654 
L 314.011362 -367.219478 
L 314.011362 -364.929303 
L 314.011362 -362.639128 
L 314.011362 -360.348953 
L 314.011362 -358.058777 
L 314.011362 -355.768602 
L 314.011362 -353.478427 
L 314.011362 -351.188252 
L 314.011362 -348.898076 
L 314.011362 -346.607901 
L 314.011362 -344.317726 
L 314.011362 -342.027551 
L 314.011362 -339.737376 
L 314.011362 -337.4472 
L 314.011362 -335.157025 
L 314.011362 -332.86685 
L 314.011362 -330.576675 
L 314.011362 -328.286499 
L 314.011362 -325.996324 
L 314.011362 -323.706149 
L 314.011362 -321.415974 
L 314.011362 -319.125798 
L 314.011362 -316.835623 
L 314.011362 -314.545448 
L 314.011362 -312.255273 
L 314.011362 -309.965098 
L 314.011362 -307.674922 
L 314.011362 -305.384747 
L 314.011362 -303.094572 
L 314.011362 -300.804397 
L 314.011362 -298.514221 
L 314.011362 -296.224046 
L 314.011362 -293.933871 
L 314.011362 -291.643696 
L 314.011362 -289.35352 
L 314.011362 -287.063345 
L 314.011362 -284.77317 
L 314.011362 -282.482995 
L 314.011362 -280.192819 
L 314.011362 -277.902644 
L 314.011362 -275.612469 
L 314.011362 -273.322294 
z
" id="m66f04ef2f6" style="stroke:#7a7a7a;stroke-width:1.5;"/>
    </defs>
    <g clip-path="url(#p10f0ddf257)">
     <use style="fill:#cccccc;stroke:#7a7a7a;stroke-width:1.5;" x="0" xlink:href="#m66f04ef2f6" y="648"/>
    </g>
   </g>
   <g id="PolyCollection_6">
    <defs>
     <path d="M 314.011362 -355.768602 
L 416.521881 -355.768602 
L 413.788207 -358.058777 
L 408.445451 -362.639128 
L 403.675221 -367.219478 
L 401.528769 -369.509654 
L 397.530493 -374.090004 
L 393.570439 -378.670355 
L 391.49877 -380.96053 
L 314.011362 -380.96053 
L 314.011362 -380.96053 
L 314.011362 -378.670355 
L 314.011362 -374.090004 
L 314.011362 -369.509654 
L 314.011362 -367.219478 
L 314.011362 -362.639128 
L 314.011362 -358.058777 
L 314.011362 -355.768602 
z
" id="m2884e80dbe" style="stroke:#666666;stroke-width:1.5;"/>
    </defs>
    <g clip-path="url(#p10f0ddf257)">
     <use style="fill:#8f8f8f;stroke:#666666;stroke-width:1.5;" x="0" xlink:href="#m2884e80dbe" y="648"/>
    </g>
   </g>
   <g id="PathCollection_1">
    <defs>
     <path d="M 0 3 
C 0.795609 3 1.55874 2.683901 2.12132 2.12132 
C 2.683901 1.55874 3 0.795609 3 0 
C 3 -0.795609 2.683901 -1.55874 2.12132 -2.12132 
C 1.55874 -2.683901 0.795609 -3 0 -3 
C -0.795609 -3 -1.55874 -2.683901 -2.12132 -2.12132 
C -2.683901 -1.55874 -3 -0.795609 -3 0 
C -3 0.795609 -2.683901 1.55874 -2.12132 2.12132 
C -1.55874 2.683901 -0.795609 3 0 3 
z
" id="m9f6630fe85" style="stroke:#000000;stroke-opacity:0.3;"/>
    </defs>
    <g clip-path="url(#p10f0ddf257)">
     <use style="fill-opacity:0.3;stroke:#000000;stroke-opacity:0.3;" x="211.796866" xlink:href="#m9f6630fe85" y="277.507214"/>
     <use style="fill-opacity:0.3;stroke:#000000;stroke-opacity:0.3;" x="176.889727" xlink:href="#m9f6630fe85" y="247.410017"/>
     <use style="fill-opacity:0.3;stroke:#000000;stroke-opacity:0.3;" x="231.633083" xlink:href="#m9f6630fe85" y="218.633811"/>
     <use style="fill-opacity:0.3;stroke:#000000;stroke-opacity:0.3;" x="184.396181" xlink:href="#m9f6630fe85" y="235.895437"/>
     <use style="fill-opacity:0.3;stroke:#000000;stroke-opacity:0.3;" x="203.85732" xlink:href="#m9f6630fe85" y="290.179261"/>
     <use style="fill-opacity:0.3;stroke:#000000;stroke-opacity:0.3;" x="250.272646" xlink:href="#m9f6630fe85" y="221.203336"/>
     <use style="fill-opacity:0.3;stroke:#000000;stroke-opacity:0.3;" x="248.842106" xlink:href="#m9f6630fe85" y="303.55672"/>
     <use style="fill-opacity:0.3;stroke:#000000;stroke-opacity:0.3;" x="239.278024" xlink:href="#m9f6630fe85" y="336.438345"/>
     <use style="fill-opacity:0.3;stroke:#000000;stroke-opacity:0.3;" x="232.405772" xlink:href="#m9f6630fe85" y="334.71674"/>
     <use style="fill-opacity:0.3;stroke:#000000;stroke-opacity:0.3;" x="237.500758" xlink:href="#m9f6630fe85" y="357.795164"/>
     <use style="fill-opacity:0.3;stroke:#000000;stroke-opacity:0.3;" x="215.302106" xlink:href="#m9f6630fe85" y="227.393179"/>
     <use style="fill-opacity:0.3;stroke:#000000;stroke-opacity:0.3;" x="173.123908" xlink:href="#m9f6630fe85" y="320.78819"/>
     <use style="fill-opacity:0.3;stroke:#000000;stroke-opacity:0.3;" x="175.302593" xlink:href="#m9f6630fe85" y="248.305086"/>
     <use style="fill-opacity:0.3;stroke:#000000;stroke-opacity:0.3;" x="252.780644" xlink:href="#m9f6630fe85" y="294.93708"/>
     <use style="fill-opacity:0.3;stroke:#000000;stroke-opacity:0.3;" x="170.573724" xlink:href="#m9f6630fe85" y="288.689624"/>
     <use style="fill-opacity:0.3;stroke:#000000;stroke-opacity:0.3;" x="252.716084" xlink:href="#m9f6630fe85" y="304.981779"/>
     <use style="fill-opacity:0.3;stroke:#000000;stroke-opacity:0.3;" x="185.014531" xlink:href="#m9f6630fe85" y="271.617704"/>
     <use style="fill-opacity:0.3;stroke:#000000;stroke-opacity:0.3;" x="212.351917" xlink:href="#m9f6630fe85" y="347.051714"/>
     <use style="fill-opacity:0.3;stroke:#000000;stroke-opacity:0.3;" x="188.694225" xlink:href="#m9f6630fe85" y="308.010279"/>
     <use style="fill-opacity:0.3;stroke:#000000;stroke-opacity:0.3;" x="194.518254" xlink:href="#m9f6630fe85" y="253.981346"/>
     <use style="fill-opacity:0.3;stroke:#000000;stroke-opacity:0.3;" x="213.879591" xlink:href="#m9f6630fe85" y="329.133625"/>
     <use style="fill-opacity:0.3;stroke:#000000;stroke-opacity:0.3;" x="212.03943" xlink:href="#m9f6630fe85" y="334.546102"/>
     <use style="fill-opacity:0.3;stroke:#000000;stroke-opacity:0.3;" x="229.720598" xlink:href="#m9f6630fe85" y="223.675346"/>
     <use style="fill-opacity:0.3;stroke:#000000;stroke-opacity:0.3;" x="226.354505" xlink:href="#m9f6630fe85" y="200.48742"/>
     <use style="fill-opacity:0.3;stroke:#000000;stroke-opacity:0.3;" x="237.314265" xlink:href="#m9f6630fe85" y="300.058247"/>
     <use style="fill-opacity:0.3;stroke:#000000;stroke-opacity:0.3;" x="202.5509" xlink:href="#m9f6630fe85" y="252.824169"/>
     <use style="fill-opacity:0.3;stroke:#000000;stroke-opacity:0.3;" x="195.001681" xlink:href="#m9f6630fe85" y="321.680931"/>
     <use style="fill-opacity:0.3;stroke:#000000;stroke-opacity:0.3;" x="236.460548" xlink:href="#m9f6630fe85" y="279.065974"/>
     <use style="fill-opacity:0.3;stroke:#000000;stroke-opacity:0.3;" x="228.342213" xlink:href="#m9f6630fe85" y="264.163332"/>
     <use style="fill-opacity:0.3;stroke:#000000;stroke-opacity:0.3;" x="147.120662" xlink:href="#m9f6630fe85" y="289.321846"/>
     <use style="fill-opacity:0.3;stroke:#000000;stroke-opacity:0.3;" x="215.105647" xlink:href="#m9f6630fe85" y="225.579277"/>
     <use style="fill-opacity:0.3;stroke:#000000;stroke-opacity:0.3;" x="223.832546" xlink:href="#m9f6630fe85" y="248.835981"/>
     <use style="fill-opacity:0.3;stroke:#000000;stroke-opacity:0.3;" x="221.949345" xlink:href="#m9f6630fe85" y="344.279527"/>
     <use style="fill-opacity:0.3;stroke:#000000;stroke-opacity:0.3;" x="246.045449" xlink:href="#m9f6630fe85" y="287.597576"/>
     <use style="fill-opacity:0.3;stroke:#000000;stroke-opacity:0.3;" x="233.625677" xlink:href="#m9f6630fe85" y="269.121459"/>
    </g>
   </g>
   <g id="PathCollection_2">
    <g clip-path="url(#p10f0ddf257)">
     <use style="fill-opacity:0.3;stroke:#000000;stroke-opacity:0.3;" x="355.778414" xlink:href="#m9f6630fe85" y="220.149696"/>
     <use style="fill-opacity:0.3;stroke:#000000;stroke-opacity:0.3;" x="354.948483" xlink:href="#m9f6630fe85" y="269.966664"/>
     <use style="fill-opacity:0.3;stroke:#000000;stroke-opacity:0.3;" x="351.324673" xlink:href="#m9f6630fe85" y="271.371473"/>
     <use style="fill-opacity:0.3;stroke:#000000;stroke-opacity:0.3;" x="323.195178" xlink:href="#m9f6630fe85" y="231.967073"/>
     <use style="fill-opacity:0.3;stroke:#000000;stroke-opacity:0.3;" x="345.889448" xlink:href="#m9f6630fe85" y="341.850295"/>
     <use style="fill-opacity:0.3;stroke:#000000;stroke-opacity:0.3;" x="340.671778" xlink:href="#m9f6630fe85" y="242.027169"/>
     <use style="fill-opacity:0.3;stroke:#000000;stroke-opacity:0.3;" x="377.524966" xlink:href="#m9f6630fe85" y="312.964645"/>
     <use style="fill-opacity:0.3;stroke:#000000;stroke-opacity:0.3;" x="322.846771" xlink:href="#m9f6630fe85" y="290.804108"/>
     <use style="fill-opacity:0.3;stroke:#000000;stroke-opacity:0.3;" x="327.278036" xlink:href="#m9f6630fe85" y="227.77016"/>
     <use style="fill-opacity:0.3;stroke:#000000;stroke-opacity:0.3;" x="329.993365" xlink:href="#m9f6630fe85" y="338.77428"/>
     <use style="fill-opacity:0.3;stroke:#000000;stroke-opacity:0.3;" x="350.201809" xlink:href="#m9f6630fe85" y="234.533793"/>
     <use style="fill-opacity:0.3;stroke:#000000;stroke-opacity:0.3;" x="388.552684" xlink:href="#m9f6630fe85" y="264.226266"/>
     <use style="fill-opacity:0.3;stroke:#000000;stroke-opacity:0.3;" x="380.08029" xlink:href="#m9f6630fe85" y="265.470986"/>
     <use style="fill-opacity:0.3;stroke:#000000;stroke-opacity:0.3;" x="319.811044" xlink:href="#m9f6630fe85" y="299.701367"/>
     <use style="fill-opacity:0.3;stroke:#000000;stroke-opacity:0.3;" x="318.075459" xlink:href="#m9f6630fe85" y="309.835712"/>
     <use style="fill-opacity:0.3;stroke:#000000;stroke-opacity:0.3;" x="342.709862" xlink:href="#m9f6630fe85" y="237.816848"/>
     <use style="fill-opacity:0.3;stroke:#000000;stroke-opacity:0.3;" x="343.226635" xlink:href="#m9f6630fe85" y="324.669711"/>
     <use style="fill-opacity:0.3;stroke:#000000;stroke-opacity:0.3;" x="419.541704" xlink:href="#m9f6630fe85" y="311.737206"/>
     <use style="fill-opacity:0.3;stroke:#000000;stroke-opacity:0.3;" x="317.006035" xlink:href="#m9f6630fe85" y="180.777769"/>
     <use style="fill-opacity:0.3;stroke:#000000;stroke-opacity:0.3;" x="323.700985" xlink:href="#m9f6630fe85" y="303.408024"/>
     <use style="fill-opacity:0.3;stroke:#000000;stroke-opacity:0.3;" x="348.688648" xlink:href="#m9f6630fe85" y="257.962677"/>
     <use style="fill-opacity:0.3;stroke:#000000;stroke-opacity:0.3;" x="323.986879" xlink:href="#m9f6630fe85" y="295.549213"/>
     <use style="fill-opacity:0.3;stroke:#000000;stroke-opacity:0.3;" x="324.822825" xlink:href="#m9f6630fe85" y="197.064876"/>
     <use style="fill-opacity:0.3;stroke:#000000;stroke-opacity:0.3;" x="386.453224" xlink:href="#m9f6630fe85" y="271.204982"/>
     <use style="fill-opacity:0.3;stroke:#000000;stroke-opacity:0.3;" x="322.480414" xlink:href="#m9f6630fe85" y="299.739816"/>
     <use style="fill-opacity:0.3;stroke:#000000;stroke-opacity:0.3;" x="387.031076" xlink:href="#m9f6630fe85" y="265.919525"/>
     <use style="fill-opacity:0.3;stroke:#000000;stroke-opacity:0.3;" x="348.497181" xlink:href="#m9f6630fe85" y="304.074197"/>
     <use style="fill-opacity:0.3;stroke:#000000;stroke-opacity:0.3;" x="318.82615" xlink:href="#m9f6630fe85" y="316.096762"/>
     <use style="fill-opacity:0.3;stroke:#000000;stroke-opacity:0.3;" x="392.708416" xlink:href="#m9f6630fe85" y="284.653301"/>
     <use style="fill-opacity:0.3;stroke:#000000;stroke-opacity:0.3;" x="367.644665" xlink:href="#m9f6630fe85" y="318.999935"/>
     <use style="fill-opacity:0.3;stroke:#000000;stroke-opacity:0.3;" x="381.209033" xlink:href="#m9f6630fe85" y="312.884084"/>
     <use style="fill-opacity:0.3;stroke:#000000;stroke-opacity:0.3;" x="317.904466" xlink:href="#m9f6630fe85" y="208.67278"/>
     <use style="fill-opacity:0.3;stroke:#000000;stroke-opacity:0.3;" x="381.449146" xlink:href="#m9f6630fe85" y="317.797414"/>
     <use style="fill-opacity:0.3;stroke:#000000;stroke-opacity:0.3;" x="326.035979" xlink:href="#m9f6630fe85" y="284.091502"/>
     <use style="fill-opacity:0.3;stroke:#000000;stroke-opacity:0.3;" x="356.35748" xlink:href="#m9f6630fe85" y="301.086007"/>
    </g>
   </g>
   <g id="line2d_9">
    <path clip-path="url(#p10f0ddf257)" d="M 284.238452 292.74 
L 284.238452 266.07 
" style="fill:none;stroke:#000000;stroke-linecap:round;stroke-width:3;"/>
   </g>
   <g id="line2d_10">
    <path clip-path="url(#p10f0ddf257)" d="M 276.795225 292.74 
L 291.68168 292.74 
" style="fill:none;stroke:#000000;stroke-linecap:round;stroke-width:3;"/>
   </g>
   <g id="line2d_11">
    <path clip-path="url(#p10f0ddf257)" d="M 276.795225 266.07 
L 291.68168 266.07 
" style="fill:none;stroke:#000000;stroke-linecap:round;stroke-width:3;"/>
   </g>
   <g id="line2d_12">
    <defs>
     <path d="M 0 7.5 
C 1.989023 7.5 3.896849 6.709753 5.303301 5.303301 
C 6.709753 3.896849 7.5 1.989023 7.5 0 
C 7.5 -1.989023 6.709753 -3.896849 5.303301 -5.303301 
C 3.896849 -6.709753 1.989023 -7.5 0 -7.5 
C -1.989023 -7.5 -3.896849 -6.709753 -5.303301 -5.303301 
C -6.709753 -3.896849 -7.5 -1.989023 -7.5 0 
C -7.5 1.989023 -6.709753 3.896849 -5.303301 5.303301 
C -3.896849 6.709753 -1.989023 7.5 0 7.5 
z
" id="mb7cc7a89be" style="stroke:#000000;"/>
    </defs>
    <g clip-path="url(#p10f0ddf257)">
     <use style="stroke:#000000;" x="284.238452" xlink:href="#mb7cc7a89be" y="279.644045"/>
    </g>
   </g>
   <g id="line2d_13">
    <path clip-path="url(#p10f0ddf257)" d="M 128.675 277.5 
L 439.801905 277.5 
" style="fill:none;stroke:#000000;stroke-dasharray:7.4,3.2;stroke-dashoffset:0;stroke-width:2;"/>
   </g>
   <g id="patch_6">
    <path d="M 128.675 544.2 
L 128.675 10.8 
" style="fill:none;stroke:#262626;stroke-linecap:square;stroke-linejoin:miter;stroke-width:2;"/>
   </g>
  </g>
 </g>
 <defs>
  <clipPath id="pa606e4543e">
   <rect height="339.48" width="1148.480714" x="547.351905" y="107.76"/>
  </clipPath>
  <clipPath id="p10f0ddf257">
   <rect height="533.4" width="311.126905" x="128.675" y="10.8"/>
  </clipPath>
 </defs>
</svg>
