<?xml version="1.0" encoding="utf-8" standalone="no"?>
<!DOCTYPE svg PUBLIC "-//W3C//DTD SVG 1.1//EN"
  "http://www.w3.org/Graphics/SVG/1.1/DTD/svg11.dtd">
<svg height="720pt" version="1.1" viewBox="0 0 1440 720" width="1440pt" xmlns="http://www.w3.org/2000/svg" xmlns:xlink="http://www.w3.org/1999/xlink">
 <metadata>
  <rdf:RDF xmlns:cc="http://creativecommons.org/ns#" xmlns:dc="http://purl.org/dc/elements/1.1/" xmlns:rdf="http://www.w3.org/1999/02/22-rdf-syntax-ns#">
   <cc:Work>
    <dc:type rdf:resource="http://purl.org/dc/dcmitype/StillImage"/>
    <dc:date>2024-10-21T10:17:46.815887</dc:date>
    <dc:format>image/svg+xml</dc:format>
    <dc:creator>
     <cc:Agent>
      <dc:title>Matplotlib v3.4.3, https://matplotlib.org/</dc:title>
     </cc:Agent>
    </dc:creator>
   </cc:Work>
  </rdf:RDF>
 </metadata>
 <defs>
  <style type="text/css">*{stroke-linecap:butt;stroke-linejoin:round;}</style>
 </defs>
 <g id="figure_1">
  <g id="patch_1">
   <path d="M 0 720 
L 1440 720 
L 1440 0 
L 0 0 
z
" style="fill:none;"/>
  </g>
  <g id="axes_1">
   <g id="patch_2">
    <path d="M 462.880233 548 
L 1413.820932 548 
L 1413.820932 131 
L 462.880233 131 
z
" style="fill:#ffffff;"/>
   </g>
   <g id="matplotlib.axis_1">
    <g id="xtick_1">
     <g id="text_1">
      <!-- 100 -->
      <g style="fill:#262626;" transform="translate(457.811617 575.09875)scale(0.28 -0.28)">
       <defs>
        <path d="M 2297 0 
L 1697 0 
L 1697 3194 
L 647 3194 
L 647 3641 
Q 1197 3659 1465 3817 
Q 1734 3975 1856 4500 
L 2297 4500 
L 2297 0 
z
" id="HelveticaWorld-Regular-31" transform="scale(0.015625)"/>
        <path d="M 2719 2188 
Q 2719 3091 2480 3542 
Q 2241 3994 1778 3994 
Q 1325 3994 1081 3542 
Q 838 3091 838 2188 
Q 838 1313 1078 848 
Q 1319 384 1778 384 
Q 2241 384 2480 832 
Q 2719 1281 2719 2188 
z
M 3322 2188 
Q 3322 1081 2922 479 
Q 2522 -122 1778 -122 
Q 1006 -122 622 501 
Q 238 1125 238 2188 
Q 238 3278 631 3889 
Q 1025 4500 1778 4500 
Q 2522 4500 2922 3892 
Q 3322 3284 3322 2188 
z
" id="HelveticaWorld-Regular-30" transform="scale(0.015625)"/>
       </defs>
       <use xlink:href="#HelveticaWorld-Regular-31"/>
       <use x="55.615234" xlink:href="#HelveticaWorld-Regular-30"/>
       <use x="111.230469" xlink:href="#HelveticaWorld-Regular-30"/>
      </g>
     </g>
    </g>
    <g id="xtick_2">
     <g id="text_2">
      <!-- 500 -->
      <g style="fill:#262626;" transform="translate(519.802536 575.09875)scale(0.28 -0.28)">
       <defs>
        <path d="M 941 2619 
Q 1313 2900 1813 2900 
Q 2419 2900 2855 2497 
Q 3291 2094 3291 1459 
Q 3291 769 2870 320 
Q 2450 -128 1691 -128 
Q 1031 -128 650 195 
Q 269 519 206 1113 
L 788 1113 
Q 831 750 1072 558 
Q 1313 366 1741 366 
Q 2156 366 2422 653 
Q 2688 941 2688 1388 
Q 2688 1844 2409 2119 
Q 2131 2394 1691 2394 
Q 1191 2394 856 1966 
L 372 1991 
L 709 4397 
L 3041 4397 
L 3041 3853 
L 1131 3853 
L 941 2619 
z
" id="HelveticaWorld-Regular-35" transform="scale(0.015625)"/>
       </defs>
       <use xlink:href="#HelveticaWorld-Regular-35"/>
       <use x="55.615234" xlink:href="#HelveticaWorld-Regular-30"/>
       <use x="111.230469" xlink:href="#HelveticaWorld-Regular-30"/>
      </g>
     </g>
    </g>
    <g id="xtick_3">
     <g id="text_3">
      <!-- 1000 -->
      <g style="fill:#262626;" transform="translate(589.505872 575.09875)scale(0.28 -0.28)">
       <use xlink:href="#HelveticaWorld-Regular-31"/>
       <use x="55.615234" xlink:href="#HelveticaWorld-Regular-30"/>
       <use x="111.230469" xlink:href="#HelveticaWorld-Regular-30"/>
       <use x="166.845703" xlink:href="#HelveticaWorld-Regular-30"/>
      </g>
     </g>
    </g>
    <g id="xtick_4">
     <g id="text_4">
      <!-- 2000 -->
      <g style="fill:#262626;" transform="translate(744.48317 575.09875)scale(0.28 -0.28)">
       <defs>
        <path d="M 281 2888 
Q 281 3681 690 4090 
Q 1100 4500 1838 4500 
Q 2456 4500 2850 4125 
Q 3244 3750 3244 3156 
Q 3244 2694 3017 2376 
Q 2791 2059 2350 1819 
L 1575 1394 
Q 891 1019 800 531 
L 3244 531 
L 3244 0 
L 166 0 
Q 191 634 441 1056 
Q 691 1478 1222 1784 
L 2028 2253 
Q 2350 2438 2497 2636 
Q 2644 2834 2644 3181 
Q 2644 3525 2403 3759 
Q 2163 3994 1753 3994 
Q 1300 3994 1075 3695 
Q 850 3397 844 2888 
L 281 2888 
z
" id="HelveticaWorld-Regular-32" transform="scale(0.015625)"/>
       </defs>
       <use xlink:href="#HelveticaWorld-Regular-32"/>
       <use x="55.615234" xlink:href="#HelveticaWorld-Regular-30"/>
       <use x="111.230469" xlink:href="#HelveticaWorld-Regular-30"/>
       <use x="166.845703" xlink:href="#HelveticaWorld-Regular-30"/>
      </g>
     </g>
    </g>
    <g id="xtick_5">
     <g id="text_5">
      <!-- 3000 -->
      <g style="fill:#262626;" transform="translate(899.460468 575.09875)scale(0.28 -0.28)">
       <defs>
        <path d="M 1434 2559 
Q 1575 2547 1728 2547 
Q 2125 2547 2354 2730 
Q 2584 2913 2584 3284 
Q 2584 3584 2370 3789 
Q 2156 3994 1753 3994 
Q 1306 3994 1098 3731 
Q 891 3469 878 3028 
L 325 3028 
Q 325 3731 694 4115 
Q 1063 4500 1778 4500 
Q 2413 4500 2791 4173 
Q 3169 3847 3169 3316 
Q 3169 2631 2591 2388 
L 2591 2375 
Q 3341 2119 3341 1325 
Q 3341 691 2919 284 
Q 2497 -122 1722 -122 
Q 1088 -122 678 211 
Q 269 544 219 1375 
L 800 1375 
Q 813 856 1056 620 
Q 1300 384 1759 384 
Q 2203 384 2472 631 
Q 2741 878 2741 1253 
Q 2741 1663 2484 1872 
Q 2228 2081 1691 2081 
Q 1563 2081 1434 2075 
L 1434 2559 
z
" id="HelveticaWorld-Regular-33" transform="scale(0.015625)"/>
       </defs>
       <use xlink:href="#HelveticaWorld-Regular-33"/>
       <use x="55.615234" xlink:href="#HelveticaWorld-Regular-30"/>
       <use x="111.230469" xlink:href="#HelveticaWorld-Regular-30"/>
       <use x="166.845703" xlink:href="#HelveticaWorld-Regular-30"/>
      </g>
     </g>
    </g>
    <g id="xtick_6">
     <g id="text_6">
      <!-- 4000 -->
      <g style="fill:#262626;" transform="translate(1054.437765 575.09875)scale(0.28 -0.28)">
       <defs>
        <path d="M 678 1581 
L 2125 1581 
L 2125 3622 
L 2113 3622 
L 678 1581 
z
M 2688 1094 
L 2688 0 
L 2125 0 
L 2125 1094 
L 159 1094 
L 159 1644 
L 2222 4500 
L 2688 4500 
L 2688 1581 
L 3347 1581 
L 3347 1094 
L 2688 1094 
z
" id="HelveticaWorld-Regular-34" transform="scale(0.015625)"/>
       </defs>
       <use xlink:href="#HelveticaWorld-Regular-34"/>
       <use x="55.615234" xlink:href="#HelveticaWorld-Regular-30"/>
       <use x="111.230469" xlink:href="#HelveticaWorld-Regular-30"/>
       <use x="166.845703" xlink:href="#HelveticaWorld-Regular-30"/>
      </g>
     </g>
    </g>
    <g id="xtick_7">
     <g id="text_7">
      <!-- 5000 -->
      <g style="fill:#262626;" transform="translate(1209.415063 575.09875)scale(0.28 -0.28)">
       <use xlink:href="#HelveticaWorld-Regular-35"/>
       <use x="55.615234" xlink:href="#HelveticaWorld-Regular-30"/>
       <use x="111.230469" xlink:href="#HelveticaWorld-Regular-30"/>
       <use x="166.845703" xlink:href="#HelveticaWorld-Regular-30"/>
      </g>
     </g>
    </g>
    <g id="xtick_8">
     <g id="text_8">
      <!-- 6000 -->
      <g style="fill:#262626;" transform="translate(1364.392361 575.09875)scale(0.28 -0.28)">
       <defs>
        <path d="M 903 1381 
Q 903 941 1165 662 
Q 1428 384 1850 384 
Q 2253 384 2492 668 
Q 2731 953 2731 1416 
Q 2731 1819 2495 2091 
Q 2259 2363 1825 2363 
Q 1403 2363 1153 2097 
Q 903 1831 903 1381 
z
M 2669 3303 
Q 2606 3647 2414 3820 
Q 2222 3994 1894 3994 
Q 1375 3994 1103 3487 
Q 831 2981 825 2328 
L 838 2316 
Q 1197 2869 1906 2869 
Q 2472 2869 2894 2494 
Q 3316 2119 3316 1441 
Q 3316 769 2916 323 
Q 2516 -122 1838 -122 
Q 1056 -122 650 434 
Q 244 991 244 2094 
Q 244 3156 659 3828 
Q 1075 4500 1906 4500 
Q 2444 4500 2816 4179 
Q 3188 3859 3219 3303 
L 2669 3303 
z
" id="HelveticaWorld-Regular-36" transform="scale(0.015625)"/>
       </defs>
       <use xlink:href="#HelveticaWorld-Regular-36"/>
       <use x="55.615234" xlink:href="#HelveticaWorld-Regular-30"/>
       <use x="111.230469" xlink:href="#HelveticaWorld-Regular-30"/>
       <use x="166.845703" xlink:href="#HelveticaWorld-Regular-30"/>
      </g>
     </g>
    </g>
    <g id="text_9">
     <!-- Number of Voxels -->
     <g style="fill:#262626;" transform="translate(815.493082 607.865625)scale(0.32 -0.32)">
      <defs>
       <path d="M 3559 4594 
L 4159 4594 
L 4159 0 
L 3469 0 
L 1125 3713 
L 1113 3713 
L 1113 0 
L 519 0 
L 519 4594 
L 1247 4594 
L 3547 884 
L 3559 884 
L 3559 4594 
z
" id="HelveticaWorld-Regular-4e" transform="scale(0.015625)"/>
       <path d="M 391 3347 
L 953 3347 
L 953 1125 
Q 953 756 1120 573 
Q 1288 391 1600 391 
Q 2034 391 2278 698 
Q 2522 1006 2522 1503 
L 2522 3347 
L 3084 3347 
L 3084 0 
L 2553 0 
L 2553 488 
L 2541 500 
Q 2222 -97 1478 -97 
Q 997 -97 694 165 
Q 391 428 391 941 
L 391 3347 
z
" id="HelveticaWorld-Regular-75" transform="scale(0.015625)"/>
       <path d="M 422 3347 
L 953 3347 
L 953 2875 
L 966 2875 
Q 1344 3444 1978 3444 
Q 2606 3444 2869 2900 
Q 3109 3194 3334 3319 
Q 3559 3444 3891 3444 
Q 4325 3444 4626 3159 
Q 4928 2875 4928 2316 
L 4928 0 
L 4366 0 
L 4366 2163 
Q 4366 2553 4219 2745 
Q 4072 2938 3744 2938 
Q 3413 2938 3184 2669 
Q 2956 2400 2956 2041 
L 2956 0 
L 2394 0 
L 2394 2316 
Q 2394 2606 2259 2772 
Q 2125 2938 1869 2938 
Q 1466 2938 1225 2638 
Q 984 2338 984 1825 
L 984 0 
L 422 0 
L 422 3347 
z
" id="HelveticaWorld-Regular-6d" transform="scale(0.015625)"/>
       <path d="M 2778 1684 
Q 2778 2356 2540 2647 
Q 2303 2938 1863 2938 
Q 1416 2931 1187 2589 
Q 959 2247 959 1600 
Q 959 941 1234 666 
Q 1509 391 1875 391 
Q 2291 391 2534 733 
Q 2778 1075 2778 1684 
z
M 422 0 
L 422 4594 
L 984 4594 
L 984 2925 
L 997 2925 
Q 1356 3444 1966 3444 
Q 2591 3444 2975 2980 
Q 3359 2516 3359 1772 
Q 3359 934 2971 418 
Q 2584 -97 1888 -97 
Q 1275 -97 966 416 
L 953 416 
L 953 0 
L 422 0 
z
" id="HelveticaWorld-Regular-62" transform="scale(0.015625)"/>
       <path d="M 2719 1941 
Q 2675 2484 2431 2711 
Q 2188 2938 1784 2938 
Q 1375 2938 1123 2650 
Q 872 2363 856 1941 
L 2719 1941 
z
M 3256 1050 
Q 3163 531 2747 191 
Q 2381 -97 1784 -103 
Q 1081 -97 668 358 
Q 256 813 256 1581 
Q 256 2463 681 2953 
Q 1106 3444 1863 3444 
Q 2541 3444 2922 2937 
Q 3303 2431 3303 1491 
L 856 1491 
Q 856 966 1100 678 
Q 1344 391 1831 391 
Q 2175 391 2422 598 
Q 2669 806 2694 1050 
L 3256 1050 
z
" id="HelveticaWorld-Regular-65" transform="scale(0.015625)"/>
       <path d="M 984 0 
L 422 0 
L 422 3347 
L 953 3347 
L 953 2791 
L 966 2791 
Q 1331 3444 1906 3444 
Q 1997 3444 2053 3425 
L 2053 2841 
L 1844 2841 
Q 1466 2841 1225 2584 
Q 984 2328 984 1947 
L 984 0 
z
" id="HelveticaWorld-Regular-72" transform="scale(0.015625)"/>
       <path id="HelveticaWorld-Regular-20" transform="scale(0.015625)"/>
       <path d="M 813 1678 
Q 813 1119 1066 758 
Q 1319 397 1784 397 
Q 2266 397 2516 775 
Q 2766 1153 2766 1678 
Q 2766 2209 2516 2579 
Q 2266 2950 1784 2950 
Q 1338 2950 1075 2601 
Q 813 2253 813 1678 
z
M 238 1678 
Q 238 2425 653 2934 
Q 1069 3444 1784 3444 
Q 2516 3444 2928 2928 
Q 3341 2413 3341 1678 
Q 3341 941 2931 422 
Q 2522 -97 1784 -97 
Q 1075 -97 656 406 
Q 238 909 238 1678 
z
" id="HelveticaWorld-Regular-6f" transform="scale(0.015625)"/>
       <path d="M 1100 2881 
L 1100 0 
L 538 0 
L 538 2881 
L 78 2881 
L 78 3347 
L 538 3347 
L 538 3922 
Q 538 4300 767 4479 
Q 997 4659 1409 4659 
Q 1550 4659 1663 4647 
L 1663 4141 
Q 1563 4153 1434 4153 
Q 1247 4153 1173 4061 
Q 1100 3969 1100 3763 
L 1100 3347 
L 1663 3347 
L 1663 2881 
L 1100 2881 
z
" id="HelveticaWorld-Regular-66" transform="scale(0.015625)"/>
       <path d="M 3413 4594 
L 4109 4594 
L 2425 0 
L 1772 0 
L 97 4594 
L 788 4594 
L 2100 678 
L 2113 678 
L 3413 4594 
z
" id="HelveticaWorld-Regular-56" transform="scale(0.015625)"/>
       <path d="M 3138 0 
L 2413 0 
L 1588 1259 
L 781 0 
L 72 0 
L 1241 1722 
L 128 3347 
L 844 3347 
L 1619 2169 
L 2400 3347 
L 3084 3347 
L 1959 1722 
L 3138 0 
z
" id="HelveticaWorld-Regular-78" transform="scale(0.015625)"/>
       <path d="M 984 0 
L 422 0 
L 422 4594 
L 984 4594 
L 984 0 
z
" id="HelveticaWorld-Regular-6c" transform="scale(0.015625)"/>
       <path d="M 2309 2394 
Q 2297 2694 2095 2825 
Q 1894 2956 1516 2956 
Q 1241 2956 1045 2834 
Q 850 2713 850 2484 
Q 850 2303 965 2217 
Q 1081 2131 1466 2034 
L 2022 1894 
Q 2528 1766 2745 1567 
Q 2963 1369 2963 1013 
Q 2963 519 2602 211 
Q 2241 -97 1638 -97 
Q 934 -97 573 195 
Q 213 488 206 1075 
L 750 1075 
Q 763 728 980 559 
Q 1197 391 1631 391 
Q 1984 391 2192 531 
Q 2400 672 2400 922 
Q 2400 1100 2265 1206 
Q 2131 1313 1734 1403 
L 1081 1563 
Q 684 1663 495 1861 
Q 306 2059 306 2375 
Q 306 2869 659 3156 
Q 1013 3444 1581 3444 
Q 2188 3444 2511 3148 
Q 2834 2853 2853 2394 
L 2309 2394 
z
" id="HelveticaWorld-Regular-73" transform="scale(0.015625)"/>
      </defs>
      <use xlink:href="#HelveticaWorld-Regular-4e"/>
      <use x="73.095703" xlink:href="#HelveticaWorld-Regular-75"/>
      <use x="127.880859" xlink:href="#HelveticaWorld-Regular-6d"/>
      <use x="210.888672" xlink:href="#HelveticaWorld-Regular-62"/>
      <use x="267.382812" xlink:href="#HelveticaWorld-Regular-65"/>
      <use x="322.802734" xlink:href="#HelveticaWorld-Regular-72"/>
      <use x="355.371094" xlink:href="#HelveticaWorld-Regular-20"/>
      <use x="379.785156" xlink:href="#HelveticaWorld-Regular-6f"/>
      <use x="435.693359" xlink:href="#HelveticaWorld-Regular-66"/>
      <use x="463.378906" xlink:href="#HelveticaWorld-Regular-20"/>
      <use x="482.792969" xlink:href="#HelveticaWorld-Regular-56"/>
      <use x="540.619141" xlink:href="#HelveticaWorld-Regular-6f"/>
      <use x="593.652344" xlink:href="#HelveticaWorld-Regular-78"/>
      <use x="640.402344" xlink:href="#HelveticaWorld-Regular-65"/>
      <use x="695.822266" xlink:href="#HelveticaWorld-Regular-6c"/>
      <use x="717.84375" xlink:href="#HelveticaWorld-Regular-73"/>
     </g>
    </g>
   </g>
   <g id="matplotlib.axis_2">
    <g id="ytick_1">
     <g id="text_10">
      <!-- 0.0 -->
      <g style="fill:#262626;" transform="translate(416.960233 558.049375)scale(0.28 -0.28)">
       <defs>
        <path d="M 1222 0 
L 556 0 
L 556 678 
L 1222 678 
L 1222 0 
z
" id="HelveticaWorld-Regular-2e" transform="scale(0.015625)"/>
       </defs>
       <use xlink:href="#HelveticaWorld-Regular-30"/>
       <use x="55.615234" xlink:href="#HelveticaWorld-Regular-2e"/>
       <use x="83.398438" xlink:href="#HelveticaWorld-Regular-30"/>
      </g>
     </g>
    </g>
    <g id="ytick_2">
     <g id="text_11">
      <!-- 0.1 -->
      <g style="fill:#262626;" transform="translate(416.960233 465.382708)scale(0.28 -0.28)">
       <use xlink:href="#HelveticaWorld-Regular-30"/>
       <use x="55.615234" xlink:href="#HelveticaWorld-Regular-2e"/>
       <use x="83.398438" xlink:href="#HelveticaWorld-Regular-31"/>
      </g>
     </g>
    </g>
    <g id="ytick_3">
     <g id="text_12">
      <!-- 0.2 -->
      <g style="fill:#262626;" transform="translate(416.960233 372.716042)scale(0.28 -0.28)">
       <use xlink:href="#HelveticaWorld-Regular-30"/>
       <use x="55.615234" xlink:href="#HelveticaWorld-Regular-2e"/>
       <use x="83.398438" xlink:href="#HelveticaWorld-Regular-32"/>
      </g>
     </g>
    </g>
    <g id="ytick_4">
     <g id="text_13">
      <!-- 0.3 -->
      <g style="fill:#262626;" transform="translate(416.960233 280.049375)scale(0.28 -0.28)">
       <use xlink:href="#HelveticaWorld-Regular-30"/>
       <use x="55.615234" xlink:href="#HelveticaWorld-Regular-2e"/>
       <use x="83.398438" xlink:href="#HelveticaWorld-Regular-33"/>
      </g>
     </g>
    </g>
    <g id="ytick_5">
     <g id="text_14">
      <!-- 0.4 -->
      <g style="fill:#262626;" transform="translate(416.960233 187.382708)scale(0.28 -0.28)">
       <use xlink:href="#HelveticaWorld-Regular-30"/>
       <use x="55.615234" xlink:href="#HelveticaWorld-Regular-2e"/>
       <use x="83.398438" xlink:href="#HelveticaWorld-Regular-34"/>
      </g>
     </g>
    </g>
    <g id="text_15">
     <!-- Classifier Information (a.u.) -->
     <g style="fill:#262626;" transform="translate(406.335233 528.865)rotate(-90)scale(0.32 -0.32)">
      <defs>
       <path d="M 3713 3213 
Q 3609 3681 3279 3923 
Q 2950 4166 2425 4166 
Q 1747 4166 1334 3673 
Q 922 3181 922 2344 
Q 922 1375 1312 901 
Q 1703 428 2444 428 
Q 2931 428 3282 751 
Q 3634 1075 3756 1691 
L 4359 1691 
Q 4238 806 3688 342 
Q 3138 -122 2350 -122 
Q 1409 -122 845 525 
Q 281 1172 281 2322 
Q 281 3431 870 4073 
Q 1459 4716 2425 4716 
Q 3225 4716 3722 4303 
Q 4219 3891 4313 3213 
L 3713 3213 
z
" id="HelveticaWorld-Regular-43" transform="scale(0.015625)"/>
       <path d="M 2456 1709 
Q 2394 1644 2211 1603 
Q 2028 1563 1528 1497 
Q 1159 1453 986 1315 
Q 813 1178 813 953 
Q 813 678 959 525 
Q 1106 372 1428 372 
Q 1831 372 2143 601 
Q 2456 831 2456 1159 
L 2456 1709 
z
M 397 2328 
Q 416 2894 764 3169 
Q 1113 3444 1778 3444 
Q 2309 3444 2668 3203 
Q 3028 2963 3028 2509 
L 3028 581 
Q 3028 384 3206 384 
Q 3278 384 3391 409 
L 3391 0 
Q 3238 -63 3072 -63 
Q 2784 -63 2643 60 
Q 2503 184 2497 447 
Q 2016 -97 1288 -97 
Q 813 -97 525 172 
Q 238 441 238 872 
Q 238 1313 488 1584 
Q 738 1856 1216 1913 
L 2209 2034 
Q 2478 2075 2478 2431 
Q 2478 2694 2283 2834 
Q 2088 2975 1691 2975 
Q 1338 2975 1148 2819 
Q 959 2663 922 2328 
L 397 2328 
z
" id="HelveticaWorld-Regular-61" transform="scale(0.015625)"/>
       <path d="M 422 3956 
L 422 4594 
L 984 4594 
L 984 3956 
L 422 3956 
z
M 984 0 
L 422 0 
L 422 3347 
L 984 3347 
L 984 0 
z
" id="HelveticaWorld-Regular-69" transform="scale(0.015625)"/>
       <path d="M 1141 0 
L 519 0 
L 519 4594 
L 1141 4594 
L 1141 0 
z
" id="HelveticaWorld-Regular-49" transform="scale(0.015625)"/>
       <path d="M 3150 0 
L 2584 0 
L 2584 2059 
Q 2584 2534 2418 2736 
Q 2253 2938 1869 2938 
Q 1491 2938 1237 2650 
Q 984 2363 984 1825 
L 984 0 
L 422 0 
L 422 3347 
L 953 3347 
L 953 2875 
L 966 2875 
Q 1363 3444 1978 3444 
Q 2547 3444 2848 3142 
Q 3150 2841 3150 2278 
L 3150 0 
z
" id="HelveticaWorld-Regular-6e" transform="scale(0.015625)"/>
       <path d="M 1100 2881 
L 1100 703 
Q 1100 575 1170 508 
Q 1241 441 1422 441 
L 1638 441 
L 1638 0 
Q 1331 -44 1216 -44 
Q 863 -44 700 125 
Q 538 294 538 672 
L 538 2881 
L 84 2881 
L 84 3347 
L 538 3347 
L 538 4281 
L 1100 4281 
L 1100 3347 
L 1638 3347 
L 1638 2881 
L 1100 2881 
z
" id="HelveticaWorld-Regular-74" transform="scale(0.015625)"/>
       <path d="M 1906 4691 
Q 1338 3675 1188 3037 
Q 1038 2400 1038 1631 
Q 1038 872 1242 215 
Q 1447 -441 1913 -1325 
L 1538 -1325 
Q 1006 -550 720 140 
Q 434 831 434 1672 
Q 434 2463 693 3180 
Q 953 3897 1516 4691 
L 1906 4691 
z
" id="HelveticaWorld-Regular-28" transform="scale(0.015625)"/>
       <path d="M 225 -1325 
Q 788 -306 938 330 
Q 1088 966 1088 1734 
Q 1088 2497 886 3153 
Q 684 3809 219 4691 
L 588 4691 
Q 1125 3916 1411 3225 
Q 1697 2534 1697 1697 
Q 1697 903 1437 186 
Q 1178 -531 616 -1325 
L 225 -1325 
z
" id="HelveticaWorld-Regular-29" transform="scale(0.015625)"/>
      </defs>
      <use xlink:href="#HelveticaWorld-Regular-43"/>
      <use x="72.314453" xlink:href="#HelveticaWorld-Regular-6c"/>
      <use x="94.335938" xlink:href="#HelveticaWorld-Regular-61"/>
      <use x="149.267578" xlink:href="#HelveticaWorld-Regular-73"/>
      <use x="199.267578" xlink:href="#HelveticaWorld-Regular-73"/>
      <use x="249.267578" xlink:href="#HelveticaWorld-Regular-69"/>
      <use x="271.289062" xlink:href="#HelveticaWorld-Regular-66"/>
      <use x="298.974609" xlink:href="#HelveticaWorld-Regular-69"/>
      <use x="320.996094" xlink:href="#HelveticaWorld-Regular-65"/>
      <use x="376.416016" xlink:href="#HelveticaWorld-Regular-72"/>
      <use x="408.984375" xlink:href="#HelveticaWorld-Regular-20"/>
      <use x="433.398438" xlink:href="#HelveticaWorld-Regular-49"/>
      <use x="459.179688" xlink:href="#HelveticaWorld-Regular-6e"/>
      <use x="514.355469" xlink:href="#HelveticaWorld-Regular-66"/>
      <use x="540.041016" xlink:href="#HelveticaWorld-Regular-6f"/>
      <use x="595.949219" xlink:href="#HelveticaWorld-Regular-72"/>
      <use x="628.517578" xlink:href="#HelveticaWorld-Regular-6d"/>
      <use x="711.525391" xlink:href="#HelveticaWorld-Regular-61"/>
      <use x="766.457031" xlink:href="#HelveticaWorld-Regular-74"/>
      <use x="794.142578" xlink:href="#HelveticaWorld-Regular-69"/>
      <use x="816.164062" xlink:href="#HelveticaWorld-Regular-6f"/>
      <use x="872.072266" xlink:href="#HelveticaWorld-Regular-6e"/>
      <use x="927.248047" xlink:href="#HelveticaWorld-Regular-20"/>
      <use x="951.662109" xlink:href="#HelveticaWorld-Regular-28"/>
      <use x="984.962891" xlink:href="#HelveticaWorld-Regular-61"/>
      <use x="1039.894531" xlink:href="#HelveticaWorld-Regular-2e"/>
      <use x="1067.677734" xlink:href="#HelveticaWorld-Regular-75"/>
      <use x="1122.462891" xlink:href="#HelveticaWorld-Regular-2e"/>
      <use x="1150.246094" xlink:href="#HelveticaWorld-Regular-29"/>
     </g>
    </g>
   </g>
   <g id="PolyCollection_1">
    <defs>
     <path d="M 481.167554 -391.42233 
L 481.167554 -345.947664 
L 496.665284 -364.773489 
L 512.163014 -372.62748 
L 527.660743 -377.303718 
L 543.158473 -377.28368 
L 558.656203 -377.80804 
L 574.153933 -374.786043 
L 589.651663 -370.760636 
L 605.149392 -370.910157 
L 620.647122 -367.43405 
L 636.144852 -363.587116 
L 651.642582 -360.530433 
L 667.140311 -358.565731 
L 682.638041 -354.515917 
L 698.135771 -353.023051 
L 713.633501 -347.238792 
L 729.131231 -345.522571 
L 744.62896 -340.787777 
L 760.12669 -338.479857 
L 775.62442 -335.316657 
L 791.12215 -334.043081 
L 806.619879 -330.383869 
L 822.117609 -328.027328 
L 837.615339 -324.83196 
L 853.113069 -322.371617 
L 868.610798 -321.642928 
L 884.108528 -318.381042 
L 899.606258 -316.984436 
L 915.103988 -313.206322 
L 930.601718 -311.924225 
L 946.099447 -310.97452 
L 961.597177 -308.971104 
L 977.094907 -306.837792 
L 992.592637 -302.806789 
L 1008.090366 -301.869215 
L 1023.588096 -300.093867 
L 1039.085826 -297.466767 
L 1054.583556 -295.581423 
L 1070.081286 -293.08692 
L 1085.579015 -290.838181 
L 1101.076745 -288.91606 
L 1116.574475 -288.289231 
L 1132.072205 -287.02173 
L 1147.569934 -285.03782 
L 1163.067664 -284.10951 
L 1178.565394 -282.624493 
L 1194.063124 -280.410642 
L 1209.560854 -278.823315 
L 1225.058583 -276.217356 
L 1240.556313 -276.158987 
L 1256.054043 -273.361708 
L 1271.551773 -274.061289 
L 1287.049502 -272.344195 
L 1302.547232 -271.720212 
L 1318.044962 -271.352037 
L 1333.542692 -269.137124 
L 1349.040421 -267.841331 
L 1364.538151 -266.373859 
L 1380.035881 -266.03661 
L 1395.533611 -264.312419 
L 1395.533611 -287.883429 
L 1395.533611 -287.883429 
L 1380.035881 -288.779241 
L 1364.538151 -289.768597 
L 1349.040421 -292.43405 
L 1333.542692 -293.5797 
L 1318.044962 -293.88439 
L 1302.547232 -295.31936 
L 1287.049502 -296.522962 
L 1271.551773 -298.166968 
L 1256.054043 -299.088235 
L 1240.556313 -300.627042 
L 1225.058583 -302.076774 
L 1209.560854 -303.932413 
L 1194.063124 -307.536003 
L 1178.565394 -308.20446 
L 1163.067664 -309.992488 
L 1147.569934 -311.319876 
L 1132.072205 -312.783086 
L 1116.574475 -314.195763 
L 1101.076745 -316.564024 
L 1085.579015 -318.677428 
L 1070.081286 -320.173719 
L 1054.583556 -322.618184 
L 1039.085826 -326.096226 
L 1023.588096 -328.792616 
L 1008.090366 -330.254683 
L 992.592637 -332.248131 
L 977.094907 -335.110395 
L 961.597177 -338.294504 
L 946.099447 -338.842827 
L 930.601718 -342.204841 
L 915.103988 -342.732312 
L 899.606258 -347.08479 
L 884.108528 -349.018524 
L 868.610798 -351.834097 
L 853.113069 -354.748278 
L 837.615339 -357.258545 
L 822.117609 -358.640574 
L 806.619879 -361.467739 
L 791.12215 -364.380625 
L 775.62442 -368.307251 
L 760.12669 -372.803875 
L 744.62896 -376.18834 
L 729.131231 -379.171588 
L 713.633501 -383.120867 
L 698.135771 -386.568634 
L 682.638041 -390.163648 
L 667.140311 -395.069065 
L 651.642582 -397.361998 
L 636.144852 -400.813588 
L 620.647122 -404.352973 
L 605.149392 -407.109949 
L 589.651663 -409.602112 
L 574.153933 -414.305895 
L 558.656203 -416.940972 
L 543.158473 -418.910943 
L 527.660743 -419.084331 
L 512.163014 -417.936067 
L 496.665284 -411.849123 
L 481.167554 -391.42233 
z
" id="mcb33d8e73a" style="stroke:#1b9e77;stroke-opacity:0.2;"/>
    </defs>
    <g clip-path="url(#pc978f90a5f)">
     <use style="fill:#1b9e77;fill-opacity:0.2;stroke:#1b9e77;stroke-opacity:0.2;" x="0" xlink:href="#mcb33d8e73a" y="720"/>
    </g>
   </g>
   <g id="PolyCollection_2">
    <defs>
     <path d="M 481.167554 -357.223918 
L 481.167554 -323.002924 
L 496.665284 -356.730739 
L 512.163014 -362.366152 
L 527.660743 -360.602402 
L 543.158473 -363.999328 
L 558.656203 -369.082636 
L 574.153933 -369.511299 
L 589.651663 -368.060884 
L 605.149392 -364.881139 
L 620.647122 -364.310771 
L 636.144852 -362.05822 
L 651.642582 -361.216765 
L 667.140311 -359.365288 
L 682.638041 -357.07622 
L 698.135771 -355.514915 
L 713.633501 -350.986657 
L 729.131231 -349.711422 
L 744.62896 -345.778502 
L 760.12669 -343.831129 
L 775.62442 -342.795998 
L 791.12215 -339.873428 
L 806.619879 -338.234858 
L 822.117609 -335.857907 
L 837.615339 -333.104697 
L 853.113069 -332.388959 
L 868.610798 -330.046157 
L 884.108528 -329.132981 
L 899.606258 -326.271214 
L 915.103988 -323.28204 
L 930.601718 -320.566032 
L 946.099447 -319.472466 
L 961.597177 -317.227381 
L 977.094907 -314.297996 
L 992.592637 -311.480974 
L 1008.090366 -308.833113 
L 1023.588096 -307.82588 
L 1039.085826 -305.668001 
L 1054.583556 -304.956513 
L 1070.081286 -302.753376 
L 1085.579015 -300.125745 
L 1101.076745 -300.418557 
L 1116.574475 -297.090004 
L 1132.072205 -296.152212 
L 1147.569934 -294.487157 
L 1163.067664 -293.13774 
L 1178.565394 -290.924895 
L 1194.063124 -289.209702 
L 1209.560854 -289.047917 
L 1225.058583 -286.086429 
L 1240.556313 -284.552518 
L 1256.054043 -282.719422 
L 1271.551773 -283.02362 
L 1287.049502 -281.40928 
L 1302.547232 -280.368641 
L 1318.044962 -278.05738 
L 1333.542692 -277.394441 
L 1349.040421 -275.728336 
L 1364.538151 -275.96098 
L 1380.035881 -273.698866 
L 1395.533611 -272.697825 
L 1395.533611 -297.309093 
L 1395.533611 -297.309093 
L 1380.035881 -298.730277 
L 1364.538151 -301.166658 
L 1349.040421 -302.635895 
L 1333.542692 -302.549293 
L 1318.044962 -303.998732 
L 1302.547232 -306.584664 
L 1287.049502 -308.025505 
L 1271.551773 -309.437864 
L 1256.054043 -309.55976 
L 1240.556313 -313.673687 
L 1225.058583 -314.503581 
L 1209.560854 -317.298293 
L 1194.063124 -318.718519 
L 1178.565394 -320.08426 
L 1163.067664 -321.896251 
L 1147.569934 -323.439661 
L 1132.072205 -324.747025 
L 1116.574475 -325.988965 
L 1101.076745 -329.700211 
L 1085.579015 -330.483904 
L 1070.081286 -331.805979 
L 1054.583556 -334.409973 
L 1039.085826 -336.164348 
L 1023.588096 -337.756741 
L 1008.090366 -338.456634 
L 992.592637 -343.007154 
L 977.094907 -345.376897 
L 961.597177 -347.30239 
L 946.099447 -351.723892 
L 930.601718 -352.096879 
L 915.103988 -355.50891 
L 899.606258 -358.427713 
L 884.108528 -359.653282 
L 868.610798 -362.565447 
L 853.113069 -366.154433 
L 837.615339 -366.407791 
L 822.117609 -370.072293 
L 806.619879 -371.948044 
L 791.12215 -374.160581 
L 775.62442 -377.638871 
L 760.12669 -379.6312 
L 744.62896 -381.02594 
L 729.131231 -385.347347 
L 713.633501 -389.121235 
L 698.135771 -392.610539 
L 682.638041 -394.715789 
L 667.140311 -396.070923 
L 651.642582 -397.306862 
L 636.144852 -398.952605 
L 620.647122 -401.026245 
L 605.149392 -403.114102 
L 589.651663 -404.522153 
L 574.153933 -406.61359 
L 558.656203 -405.887909 
L 543.158473 -402.706262 
L 527.660743 -397.639714 
L 512.163014 -399.401064 
L 496.665284 -393.150878 
L 481.167554 -357.223918 
z
" id="m3b031acb2a" style="stroke:#d95f02;stroke-opacity:0.2;"/>
    </defs>
    <g clip-path="url(#pc978f90a5f)">
     <use style="fill:#d95f02;fill-opacity:0.2;stroke:#d95f02;stroke-opacity:0.2;" x="0" xlink:href="#m3b031acb2a" y="720"/>
    </g>
   </g>
   <g id="line2d_1">
    <path clip-path="url(#pc978f90a5f)" d="M 481.167554 351.826172 
L 496.665284 331.844674 
L 512.163014 324.44598 
L 527.660743 321.368154 
L 543.158473 320.926389 
L 558.656203 322.002987 
L 574.153933 325.007522 
L 589.651663 328.79864 
L 605.149392 331.567772 
L 620.647122 334.664947 
L 636.144852 338.409051 
L 651.642582 341.123984 
L 667.140311 344.206279 
L 682.638041 347.358078 
L 698.135771 350.508529 
L 713.633501 353.921774 
L 729.131231 357.301022 
L 744.62896 360.378251 
L 760.12669 364.262594 
L 775.62442 367.600985 
L 791.12215 370.783734 
L 806.619879 374.03342 
L 822.117609 376.47519 
L 837.615339 378.928963 
L 853.113069 381.527485 
L 868.610798 383.800594 
L 884.108528 386.176244 
L 899.606258 388.7939 
L 915.103988 391.049103 
L 930.601718 392.749669 
L 946.099447 394.977585 
L 961.597177 397.319419 
L 977.094907 399.871491 
L 992.592637 401.810618 
L 1008.090366 404.116877 
L 1023.588096 406.321268 
L 1039.085826 408.555125 
L 1054.583556 410.639466 
L 1070.081286 413.102152 
L 1085.579015 415.072198 
L 1101.076745 416.958666 
L 1116.574475 418.480776 
L 1132.072205 420.127815 
L 1147.569934 421.978509 
L 1163.067664 423.534172 
L 1178.565394 425.017256 
L 1194.063124 426.5616 
L 1209.560854 428.576278 
L 1225.058583 430.044376 
L 1240.556313 431.679439 
L 1256.054043 432.923915 
L 1271.551773 434.043542 
L 1287.049502 435.482758 
L 1302.547232 436.595149 
L 1318.044962 437.769523 
L 1333.542692 439.012554 
L 1349.040421 440.123385 
L 1364.538151 441.463014 
L 1380.035881 442.450768 
L 1395.533611 443.450351 
" style="fill:none;stroke:#1b9e77;stroke-linecap:round;stroke-width:1.5;"/>
    <defs>
     <path d="M 0 5 
C 1.326016 5 2.597899 4.473168 3.535534 3.535534 
C 4.473168 2.597899 5 1.326016 5 0 
C 5 -1.326016 4.473168 -2.597899 3.535534 -3.535534 
C 2.597899 -4.473168 1.326016 -5 0 -5 
C -1.326016 -5 -2.597899 -4.473168 -3.535534 -3.535534 
C -4.473168 -2.597899 -5 -1.326016 -5 0 
C -5 1.326016 -4.473168 2.597899 -3.535534 3.535534 
C -2.597899 4.473168 -1.326016 5 0 5 
z
" id="mbb4c083510" style="stroke:#000000;stroke-opacity:0;stroke-width:0.75;"/>
    </defs>
    <g clip-path="url(#pc978f90a5f)">
     <use style="fill:#1b9e77;stroke:#000000;stroke-opacity:0;stroke-width:0.75;" x="481.167554" xlink:href="#mbb4c083510" y="351.826172"/>
     <use style="fill:#1b9e77;stroke:#000000;stroke-opacity:0;stroke-width:0.75;" x="496.665284" xlink:href="#mbb4c083510" y="331.844674"/>
     <use style="fill:#1b9e77;stroke:#000000;stroke-opacity:0;stroke-width:0.75;" x="512.163014" xlink:href="#mbb4c083510" y="324.44598"/>
     <use style="fill:#1b9e77;stroke:#000000;stroke-opacity:0;stroke-width:0.75;" x="527.660743" xlink:href="#mbb4c083510" y="321.368154"/>
     <use style="fill:#1b9e77;stroke:#000000;stroke-opacity:0;stroke-width:0.75;" x="543.158473" xlink:href="#mbb4c083510" y="320.926389"/>
     <use style="fill:#1b9e77;stroke:#000000;stroke-opacity:0;stroke-width:0.75;" x="558.656203" xlink:href="#mbb4c083510" y="322.002987"/>
     <use style="fill:#1b9e77;stroke:#000000;stroke-opacity:0;stroke-width:0.75;" x="574.153933" xlink:href="#mbb4c083510" y="325.007522"/>
     <use style="fill:#1b9e77;stroke:#000000;stroke-opacity:0;stroke-width:0.75;" x="589.651663" xlink:href="#mbb4c083510" y="328.79864"/>
     <use style="fill:#1b9e77;stroke:#000000;stroke-opacity:0;stroke-width:0.75;" x="605.149392" xlink:href="#mbb4c083510" y="331.567772"/>
     <use style="fill:#1b9e77;stroke:#000000;stroke-opacity:0;stroke-width:0.75;" x="620.647122" xlink:href="#mbb4c083510" y="334.664947"/>
     <use style="fill:#1b9e77;stroke:#000000;stroke-opacity:0;stroke-width:0.75;" x="636.144852" xlink:href="#mbb4c083510" y="338.409051"/>
     <use style="fill:#1b9e77;stroke:#000000;stroke-opacity:0;stroke-width:0.75;" x="651.642582" xlink:href="#mbb4c083510" y="341.123984"/>
     <use style="fill:#1b9e77;stroke:#000000;stroke-opacity:0;stroke-width:0.75;" x="667.140311" xlink:href="#mbb4c083510" y="344.206279"/>
     <use style="fill:#1b9e77;stroke:#000000;stroke-opacity:0;stroke-width:0.75;" x="682.638041" xlink:href="#mbb4c083510" y="347.358078"/>
     <use style="fill:#1b9e77;stroke:#000000;stroke-opacity:0;stroke-width:0.75;" x="698.135771" xlink:href="#mbb4c083510" y="350.508529"/>
     <use style="fill:#1b9e77;stroke:#000000;stroke-opacity:0;stroke-width:0.75;" x="713.633501" xlink:href="#mbb4c083510" y="353.921774"/>
     <use style="fill:#1b9e77;stroke:#000000;stroke-opacity:0;stroke-width:0.75;" x="729.131231" xlink:href="#mbb4c083510" y="357.301022"/>
     <use style="fill:#1b9e77;stroke:#000000;stroke-opacity:0;stroke-width:0.75;" x="744.62896" xlink:href="#mbb4c083510" y="360.378251"/>
     <use style="fill:#1b9e77;stroke:#000000;stroke-opacity:0;stroke-width:0.75;" x="760.12669" xlink:href="#mbb4c083510" y="364.262594"/>
     <use style="fill:#1b9e77;stroke:#000000;stroke-opacity:0;stroke-width:0.75;" x="775.62442" xlink:href="#mbb4c083510" y="367.600985"/>
     <use style="fill:#1b9e77;stroke:#000000;stroke-opacity:0;stroke-width:0.75;" x="791.12215" xlink:href="#mbb4c083510" y="370.783734"/>
     <use style="fill:#1b9e77;stroke:#000000;stroke-opacity:0;stroke-width:0.75;" x="806.619879" xlink:href="#mbb4c083510" y="374.03342"/>
     <use style="fill:#1b9e77;stroke:#000000;stroke-opacity:0;stroke-width:0.75;" x="822.117609" xlink:href="#mbb4c083510" y="376.47519"/>
     <use style="fill:#1b9e77;stroke:#000000;stroke-opacity:0;stroke-width:0.75;" x="837.615339" xlink:href="#mbb4c083510" y="378.928963"/>
     <use style="fill:#1b9e77;stroke:#000000;stroke-opacity:0;stroke-width:0.75;" x="853.113069" xlink:href="#mbb4c083510" y="381.527485"/>
     <use style="fill:#1b9e77;stroke:#000000;stroke-opacity:0;stroke-width:0.75;" x="868.610798" xlink:href="#mbb4c083510" y="383.800594"/>
     <use style="fill:#1b9e77;stroke:#000000;stroke-opacity:0;stroke-width:0.75;" x="884.108528" xlink:href="#mbb4c083510" y="386.176244"/>
     <use style="fill:#1b9e77;stroke:#000000;stroke-opacity:0;stroke-width:0.75;" x="899.606258" xlink:href="#mbb4c083510" y="388.7939"/>
     <use style="fill:#1b9e77;stroke:#000000;stroke-opacity:0;stroke-width:0.75;" x="915.103988" xlink:href="#mbb4c083510" y="391.049103"/>
     <use style="fill:#1b9e77;stroke:#000000;stroke-opacity:0;stroke-width:0.75;" x="930.601718" xlink:href="#mbb4c083510" y="392.749669"/>
     <use style="fill:#1b9e77;stroke:#000000;stroke-opacity:0;stroke-width:0.75;" x="946.099447" xlink:href="#mbb4c083510" y="394.977585"/>
     <use style="fill:#1b9e77;stroke:#000000;stroke-opacity:0;stroke-width:0.75;" x="961.597177" xlink:href="#mbb4c083510" y="397.319419"/>
     <use style="fill:#1b9e77;stroke:#000000;stroke-opacity:0;stroke-width:0.75;" x="977.094907" xlink:href="#mbb4c083510" y="399.871491"/>
     <use style="fill:#1b9e77;stroke:#000000;stroke-opacity:0;stroke-width:0.75;" x="992.592637" xlink:href="#mbb4c083510" y="401.810618"/>
     <use style="fill:#1b9e77;stroke:#000000;stroke-opacity:0;stroke-width:0.75;" x="1008.090366" xlink:href="#mbb4c083510" y="404.116877"/>
     <use style="fill:#1b9e77;stroke:#000000;stroke-opacity:0;stroke-width:0.75;" x="1023.588096" xlink:href="#mbb4c083510" y="406.321268"/>
     <use style="fill:#1b9e77;stroke:#000000;stroke-opacity:0;stroke-width:0.75;" x="1039.085826" xlink:href="#mbb4c083510" y="408.555125"/>
     <use style="fill:#1b9e77;stroke:#000000;stroke-opacity:0;stroke-width:0.75;" x="1054.583556" xlink:href="#mbb4c083510" y="410.639466"/>
     <use style="fill:#1b9e77;stroke:#000000;stroke-opacity:0;stroke-width:0.75;" x="1070.081286" xlink:href="#mbb4c083510" y="413.102152"/>
     <use style="fill:#1b9e77;stroke:#000000;stroke-opacity:0;stroke-width:0.75;" x="1085.579015" xlink:href="#mbb4c083510" y="415.072198"/>
     <use style="fill:#1b9e77;stroke:#000000;stroke-opacity:0;stroke-width:0.75;" x="1101.076745" xlink:href="#mbb4c083510" y="416.958666"/>
     <use style="fill:#1b9e77;stroke:#000000;stroke-opacity:0;stroke-width:0.75;" x="1116.574475" xlink:href="#mbb4c083510" y="418.480776"/>
     <use style="fill:#1b9e77;stroke:#000000;stroke-opacity:0;stroke-width:0.75;" x="1132.072205" xlink:href="#mbb4c083510" y="420.127815"/>
     <use style="fill:#1b9e77;stroke:#000000;stroke-opacity:0;stroke-width:0.75;" x="1147.569934" xlink:href="#mbb4c083510" y="421.978509"/>
     <use style="fill:#1b9e77;stroke:#000000;stroke-opacity:0;stroke-width:0.75;" x="1163.067664" xlink:href="#mbb4c083510" y="423.534172"/>
     <use style="fill:#1b9e77;stroke:#000000;stroke-opacity:0;stroke-width:0.75;" x="1178.565394" xlink:href="#mbb4c083510" y="425.017256"/>
     <use style="fill:#1b9e77;stroke:#000000;stroke-opacity:0;stroke-width:0.75;" x="1194.063124" xlink:href="#mbb4c083510" y="426.5616"/>
     <use style="fill:#1b9e77;stroke:#000000;stroke-opacity:0;stroke-width:0.75;" x="1209.560854" xlink:href="#mbb4c083510" y="428.576278"/>
     <use style="fill:#1b9e77;stroke:#000000;stroke-opacity:0;stroke-width:0.75;" x="1225.058583" xlink:href="#mbb4c083510" y="430.044376"/>
     <use style="fill:#1b9e77;stroke:#000000;stroke-opacity:0;stroke-width:0.75;" x="1240.556313" xlink:href="#mbb4c083510" y="431.679439"/>
     <use style="fill:#1b9e77;stroke:#000000;stroke-opacity:0;stroke-width:0.75;" x="1256.054043" xlink:href="#mbb4c083510" y="432.923915"/>
     <use style="fill:#1b9e77;stroke:#000000;stroke-opacity:0;stroke-width:0.75;" x="1271.551773" xlink:href="#mbb4c083510" y="434.043542"/>
     <use style="fill:#1b9e77;stroke:#000000;stroke-opacity:0;stroke-width:0.75;" x="1287.049502" xlink:href="#mbb4c083510" y="435.482758"/>
     <use style="fill:#1b9e77;stroke:#000000;stroke-opacity:0;stroke-width:0.75;" x="1302.547232" xlink:href="#mbb4c083510" y="436.595149"/>
     <use style="fill:#1b9e77;stroke:#000000;stroke-opacity:0;stroke-width:0.75;" x="1318.044962" xlink:href="#mbb4c083510" y="437.769523"/>
     <use style="fill:#1b9e77;stroke:#000000;stroke-opacity:0;stroke-width:0.75;" x="1333.542692" xlink:href="#mbb4c083510" y="439.012554"/>
     <use style="fill:#1b9e77;stroke:#000000;stroke-opacity:0;stroke-width:0.75;" x="1349.040421" xlink:href="#mbb4c083510" y="440.123385"/>
     <use style="fill:#1b9e77;stroke:#000000;stroke-opacity:0;stroke-width:0.75;" x="1364.538151" xlink:href="#mbb4c083510" y="441.463014"/>
     <use style="fill:#1b9e77;stroke:#000000;stroke-opacity:0;stroke-width:0.75;" x="1380.035881" xlink:href="#mbb4c083510" y="442.450768"/>
     <use style="fill:#1b9e77;stroke:#000000;stroke-opacity:0;stroke-width:0.75;" x="1395.533611" xlink:href="#mbb4c083510" y="443.450351"/>
    </g>
   </g>
   <g id="line2d_2">
    <path clip-path="url(#pc978f90a5f)" d="M 481.167554 378.894876 
L 496.665284 344.230548 
L 512.163014 339.893496 
L 527.660743 339.986659 
L 543.158473 336.004778 
L 558.656203 331.919579 
L 574.153933 331.467073 
L 589.651663 333.468814 
L 605.149392 335.987752 
L 620.647122 336.718507 
L 636.144852 338.510388 
L 651.642582 340.149712 
L 667.140311 342.256204 
L 682.638041 344.104327 
L 698.135771 346.792766 
L 713.633501 349.471829 
L 729.131231 352.617371 
L 744.62896 354.905081 
L 760.12669 357.185389 
L 775.62442 360.249782 
L 791.12215 362.985198 
L 806.619879 365.570211 
L 822.117609 367.729289 
L 837.615339 370.216495 
L 853.113069 372.112823 
L 868.610798 374.185441 
L 884.108528 375.851691 
L 899.606258 378.096652 
L 915.103988 380.798575 
L 930.601718 383.494285 
L 946.099447 385.628751 
L 961.597177 387.894728 
L 977.094907 389.833263 
L 992.592637 392.120673 
L 1008.090366 394.892965 
L 1023.588096 397.145071 
L 1039.085826 398.828971 
L 1054.583556 400.783731 
L 1070.081286 402.64578 
L 1085.579015 404.614686 
L 1101.076745 406.437559 
L 1116.574475 407.943116 
L 1132.072205 409.551035 
L 1147.569934 411.628648 
L 1163.067664 412.802625 
L 1178.565394 414.321406 
L 1194.063124 415.701414 
L 1209.560854 416.993813 
L 1225.058583 419.302394 
L 1240.556313 421.357978 
L 1256.054043 423.323083 
L 1271.551773 424.845037 
L 1287.049502 426.179638 
L 1302.547232 427.134016 
L 1318.044962 429.018542 
L 1333.542692 429.747435 
L 1349.040421 430.438865 
L 1364.538151 431.883981 
L 1380.035881 433.322984 
L 1395.533611 434.84008 
" style="fill:none;stroke:#d95f02;stroke-linecap:round;stroke-width:1.5;"/>
    <defs>
     <path d="M 0 5 
C 1.326016 5 2.597899 4.473168 3.535534 3.535534 
C 4.473168 2.597899 5 1.326016 5 0 
C 5 -1.326016 4.473168 -2.597899 3.535534 -3.535534 
C 2.597899 -4.473168 1.326016 -5 0 -5 
C -1.326016 -5 -2.597899 -4.473168 -3.535534 -3.535534 
C -4.473168 -2.597899 -5 -1.326016 -5 0 
C -5 1.326016 -4.473168 2.597899 -3.535534 3.535534 
C -2.597899 4.473168 -1.326016 5 0 5 
z
" id="m71b5d41843" style="stroke:#000000;stroke-opacity:0;stroke-width:0.75;"/>
    </defs>
    <g clip-path="url(#pc978f90a5f)">
     <use style="fill:#d95f02;stroke:#000000;stroke-opacity:0;stroke-width:0.75;" x="481.167554" xlink:href="#m71b5d41843" y="378.894876"/>
     <use style="fill:#d95f02;stroke:#000000;stroke-opacity:0;stroke-width:0.75;" x="496.665284" xlink:href="#m71b5d41843" y="344.230548"/>
     <use style="fill:#d95f02;stroke:#000000;stroke-opacity:0;stroke-width:0.75;" x="512.163014" xlink:href="#m71b5d41843" y="339.893496"/>
     <use style="fill:#d95f02;stroke:#000000;stroke-opacity:0;stroke-width:0.75;" x="527.660743" xlink:href="#m71b5d41843" y="339.986659"/>
     <use style="fill:#d95f02;stroke:#000000;stroke-opacity:0;stroke-width:0.75;" x="543.158473" xlink:href="#m71b5d41843" y="336.004778"/>
     <use style="fill:#d95f02;stroke:#000000;stroke-opacity:0;stroke-width:0.75;" x="558.656203" xlink:href="#m71b5d41843" y="331.919579"/>
     <use style="fill:#d95f02;stroke:#000000;stroke-opacity:0;stroke-width:0.75;" x="574.153933" xlink:href="#m71b5d41843" y="331.467073"/>
     <use style="fill:#d95f02;stroke:#000000;stroke-opacity:0;stroke-width:0.75;" x="589.651663" xlink:href="#m71b5d41843" y="333.468814"/>
     <use style="fill:#d95f02;stroke:#000000;stroke-opacity:0;stroke-width:0.75;" x="605.149392" xlink:href="#m71b5d41843" y="335.987752"/>
     <use style="fill:#d95f02;stroke:#000000;stroke-opacity:0;stroke-width:0.75;" x="620.647122" xlink:href="#m71b5d41843" y="336.718507"/>
     <use style="fill:#d95f02;stroke:#000000;stroke-opacity:0;stroke-width:0.75;" x="636.144852" xlink:href="#m71b5d41843" y="338.510388"/>
     <use style="fill:#d95f02;stroke:#000000;stroke-opacity:0;stroke-width:0.75;" x="651.642582" xlink:href="#m71b5d41843" y="340.149712"/>
     <use style="fill:#d95f02;stroke:#000000;stroke-opacity:0;stroke-width:0.75;" x="667.140311" xlink:href="#m71b5d41843" y="342.256204"/>
     <use style="fill:#d95f02;stroke:#000000;stroke-opacity:0;stroke-width:0.75;" x="682.638041" xlink:href="#m71b5d41843" y="344.104327"/>
     <use style="fill:#d95f02;stroke:#000000;stroke-opacity:0;stroke-width:0.75;" x="698.135771" xlink:href="#m71b5d41843" y="346.792766"/>
     <use style="fill:#d95f02;stroke:#000000;stroke-opacity:0;stroke-width:0.75;" x="713.633501" xlink:href="#m71b5d41843" y="349.471829"/>
     <use style="fill:#d95f02;stroke:#000000;stroke-opacity:0;stroke-width:0.75;" x="729.131231" xlink:href="#m71b5d41843" y="352.617371"/>
     <use style="fill:#d95f02;stroke:#000000;stroke-opacity:0;stroke-width:0.75;" x="744.62896" xlink:href="#m71b5d41843" y="354.905081"/>
     <use style="fill:#d95f02;stroke:#000000;stroke-opacity:0;stroke-width:0.75;" x="760.12669" xlink:href="#m71b5d41843" y="357.185389"/>
     <use style="fill:#d95f02;stroke:#000000;stroke-opacity:0;stroke-width:0.75;" x="775.62442" xlink:href="#m71b5d41843" y="360.249782"/>
     <use style="fill:#d95f02;stroke:#000000;stroke-opacity:0;stroke-width:0.75;" x="791.12215" xlink:href="#m71b5d41843" y="362.985198"/>
     <use style="fill:#d95f02;stroke:#000000;stroke-opacity:0;stroke-width:0.75;" x="806.619879" xlink:href="#m71b5d41843" y="365.570211"/>
     <use style="fill:#d95f02;stroke:#000000;stroke-opacity:0;stroke-width:0.75;" x="822.117609" xlink:href="#m71b5d41843" y="367.729289"/>
     <use style="fill:#d95f02;stroke:#000000;stroke-opacity:0;stroke-width:0.75;" x="837.615339" xlink:href="#m71b5d41843" y="370.216495"/>
     <use style="fill:#d95f02;stroke:#000000;stroke-opacity:0;stroke-width:0.75;" x="853.113069" xlink:href="#m71b5d41843" y="372.112823"/>
     <use style="fill:#d95f02;stroke:#000000;stroke-opacity:0;stroke-width:0.75;" x="868.610798" xlink:href="#m71b5d41843" y="374.185441"/>
     <use style="fill:#d95f02;stroke:#000000;stroke-opacity:0;stroke-width:0.75;" x="884.108528" xlink:href="#m71b5d41843" y="375.851691"/>
     <use style="fill:#d95f02;stroke:#000000;stroke-opacity:0;stroke-width:0.75;" x="899.606258" xlink:href="#m71b5d41843" y="378.096652"/>
     <use style="fill:#d95f02;stroke:#000000;stroke-opacity:0;stroke-width:0.75;" x="915.103988" xlink:href="#m71b5d41843" y="380.798575"/>
     <use style="fill:#d95f02;stroke:#000000;stroke-opacity:0;stroke-width:0.75;" x="930.601718" xlink:href="#m71b5d41843" y="383.494285"/>
     <use style="fill:#d95f02;stroke:#000000;stroke-opacity:0;stroke-width:0.75;" x="946.099447" xlink:href="#m71b5d41843" y="385.628751"/>
     <use style="fill:#d95f02;stroke:#000000;stroke-opacity:0;stroke-width:0.75;" x="961.597177" xlink:href="#m71b5d41843" y="387.894728"/>
     <use style="fill:#d95f02;stroke:#000000;stroke-opacity:0;stroke-width:0.75;" x="977.094907" xlink:href="#m71b5d41843" y="389.833263"/>
     <use style="fill:#d95f02;stroke:#000000;stroke-opacity:0;stroke-width:0.75;" x="992.592637" xlink:href="#m71b5d41843" y="392.120673"/>
     <use style="fill:#d95f02;stroke:#000000;stroke-opacity:0;stroke-width:0.75;" x="1008.090366" xlink:href="#m71b5d41843" y="394.892965"/>
     <use style="fill:#d95f02;stroke:#000000;stroke-opacity:0;stroke-width:0.75;" x="1023.588096" xlink:href="#m71b5d41843" y="397.145071"/>
     <use style="fill:#d95f02;stroke:#000000;stroke-opacity:0;stroke-width:0.75;" x="1039.085826" xlink:href="#m71b5d41843" y="398.828971"/>
     <use style="fill:#d95f02;stroke:#000000;stroke-opacity:0;stroke-width:0.75;" x="1054.583556" xlink:href="#m71b5d41843" y="400.783731"/>
     <use style="fill:#d95f02;stroke:#000000;stroke-opacity:0;stroke-width:0.75;" x="1070.081286" xlink:href="#m71b5d41843" y="402.64578"/>
     <use style="fill:#d95f02;stroke:#000000;stroke-opacity:0;stroke-width:0.75;" x="1085.579015" xlink:href="#m71b5d41843" y="404.614686"/>
     <use style="fill:#d95f02;stroke:#000000;stroke-opacity:0;stroke-width:0.75;" x="1101.076745" xlink:href="#m71b5d41843" y="406.437559"/>
     <use style="fill:#d95f02;stroke:#000000;stroke-opacity:0;stroke-width:0.75;" x="1116.574475" xlink:href="#m71b5d41843" y="407.943116"/>
     <use style="fill:#d95f02;stroke:#000000;stroke-opacity:0;stroke-width:0.75;" x="1132.072205" xlink:href="#m71b5d41843" y="409.551035"/>
     <use style="fill:#d95f02;stroke:#000000;stroke-opacity:0;stroke-width:0.75;" x="1147.569934" xlink:href="#m71b5d41843" y="411.628648"/>
     <use style="fill:#d95f02;stroke:#000000;stroke-opacity:0;stroke-width:0.75;" x="1163.067664" xlink:href="#m71b5d41843" y="412.802625"/>
     <use style="fill:#d95f02;stroke:#000000;stroke-opacity:0;stroke-width:0.75;" x="1178.565394" xlink:href="#m71b5d41843" y="414.321406"/>
     <use style="fill:#d95f02;stroke:#000000;stroke-opacity:0;stroke-width:0.75;" x="1194.063124" xlink:href="#m71b5d41843" y="415.701414"/>
     <use style="fill:#d95f02;stroke:#000000;stroke-opacity:0;stroke-width:0.75;" x="1209.560854" xlink:href="#m71b5d41843" y="416.993813"/>
     <use style="fill:#d95f02;stroke:#000000;stroke-opacity:0;stroke-width:0.75;" x="1225.058583" xlink:href="#m71b5d41843" y="419.302394"/>
     <use style="fill:#d95f02;stroke:#000000;stroke-opacity:0;stroke-width:0.75;" x="1240.556313" xlink:href="#m71b5d41843" y="421.357978"/>
     <use style="fill:#d95f02;stroke:#000000;stroke-opacity:0;stroke-width:0.75;" x="1256.054043" xlink:href="#m71b5d41843" y="423.323083"/>
     <use style="fill:#d95f02;stroke:#000000;stroke-opacity:0;stroke-width:0.75;" x="1271.551773" xlink:href="#m71b5d41843" y="424.845037"/>
     <use style="fill:#d95f02;stroke:#000000;stroke-opacity:0;stroke-width:0.75;" x="1287.049502" xlink:href="#m71b5d41843" y="426.179638"/>
     <use style="fill:#d95f02;stroke:#000000;stroke-opacity:0;stroke-width:0.75;" x="1302.547232" xlink:href="#m71b5d41843" y="427.134016"/>
     <use style="fill:#d95f02;stroke:#000000;stroke-opacity:0;stroke-width:0.75;" x="1318.044962" xlink:href="#m71b5d41843" y="429.018542"/>
     <use style="fill:#d95f02;stroke:#000000;stroke-opacity:0;stroke-width:0.75;" x="1333.542692" xlink:href="#m71b5d41843" y="429.747435"/>
     <use style="fill:#d95f02;stroke:#000000;stroke-opacity:0;stroke-width:0.75;" x="1349.040421" xlink:href="#m71b5d41843" y="430.438865"/>
     <use style="fill:#d95f02;stroke:#000000;stroke-opacity:0;stroke-width:0.75;" x="1364.538151" xlink:href="#m71b5d41843" y="431.883981"/>
     <use style="fill:#d95f02;stroke:#000000;stroke-opacity:0;stroke-width:0.75;" x="1380.035881" xlink:href="#m71b5d41843" y="433.322984"/>
     <use style="fill:#d95f02;stroke:#000000;stroke-opacity:0;stroke-width:0.75;" x="1395.533611" xlink:href="#m71b5d41843" y="434.84008"/>
    </g>
   </g>
   <g id="line2d_3"/>
   <g id="line2d_4"/>
   <g id="patch_3">
    <path d="M 462.880233 548 
L 462.880233 131 
" style="fill:none;stroke:#262626;stroke-linecap:square;stroke-linejoin:miter;stroke-width:2;"/>
   </g>
   <g id="patch_4">
    <path d="M 462.880233 548 
L 1413.820932 548 
" style="fill:none;stroke:#262626;stroke-linecap:square;stroke-linejoin:miter;stroke-width:2;"/>
   </g>
   <g id="legend_1">
    <g id="line2d_5">
     <path d="M 1163.269057 167.0325 
L 1219.269057 167.0325 
" style="fill:none;stroke:#1b9e77;stroke-linecap:round;stroke-width:1.5;"/>
    </g>
    <g id="line2d_6">
     <g>
      <use style="fill:#1b9e77;stroke:#000000;stroke-opacity:0;stroke-width:0.75;" x="1191.269057" xlink:href="#mbb4c083510" y="167.0325"/>
     </g>
    </g>
    <g id="text_16">
     <!-- Congruent -->
     <g style="fill:#262626;" transform="translate(1241.669057 176.8325)scale(0.28 -0.28)">
      <defs>
       <path d="M 831 1684 
Q 831 1069 1075 730 
Q 1319 391 1734 391 
Q 2138 391 2394 684 
Q 2650 978 2650 1516 
Q 2650 2222 2426 2580 
Q 2203 2938 1747 2938 
Q 1288 2938 1059 2633 
Q 831 2328 831 1684 
z
M 3188 191 
Q 3188 -616 2800 -1012 
Q 2413 -1409 1631 -1409 
Q 1069 -1409 736 -1150 
Q 403 -891 353 -409 
L 916 -409 
Q 959 -653 1142 -797 
Q 1325 -941 1672 -941 
Q 2144 -941 2384 -687 
Q 2625 -434 2625 134 
L 2625 372 
L 2613 372 
Q 2297 -97 1722 -97 
Q 1006 -97 628 431 
Q 250 959 250 1772 
Q 250 2516 631 2980 
Q 1013 3444 1644 3444 
Q 2278 3444 2644 2875 
L 2656 2875 
L 2656 3347 
L 3188 3347 
L 3188 191 
z
" id="HelveticaWorld-Regular-67" transform="scale(0.015625)"/>
      </defs>
      <use xlink:href="#HelveticaWorld-Regular-43"/>
      <use x="72.314453" xlink:href="#HelveticaWorld-Regular-6f"/>
      <use x="128.222656" xlink:href="#HelveticaWorld-Regular-6e"/>
      <use x="183.398438" xlink:href="#HelveticaWorld-Regular-67"/>
      <use x="239.306641" xlink:href="#HelveticaWorld-Regular-72"/>
      <use x="271.875" xlink:href="#HelveticaWorld-Regular-75"/>
      <use x="326.660156" xlink:href="#HelveticaWorld-Regular-65"/>
      <use x="382.080078" xlink:href="#HelveticaWorld-Regular-6e"/>
      <use x="437.255859" xlink:href="#HelveticaWorld-Regular-74"/>
     </g>
    </g>
    <g id="line2d_7">
     <path d="M 1163.269057 207.295625 
L 1219.269057 207.295625 
" style="fill:none;stroke:#d95f02;stroke-linecap:round;stroke-width:1.5;"/>
    </g>
    <g id="line2d_8">
     <g>
      <use style="fill:#d95f02;stroke:#000000;stroke-opacity:0;stroke-width:0.75;" x="1191.269057" xlink:href="#m71b5d41843" y="207.295625"/>
     </g>
    </g>
    <g id="text_17">
     <!-- Incongruent -->
     <g style="fill:#262626;" transform="translate(1241.669057 217.095625)scale(0.28 -0.28)">
      <defs>
       <path d="M 2534 2222 
Q 2413 2938 1741 2938 
Q 1325 2938 1072 2605 
Q 819 2272 819 1678 
Q 819 1031 1053 711 
Q 1288 391 1734 391 
Q 2034 391 2253 611 
Q 2472 831 2534 1184 
L 3078 1184 
Q 2994 563 2639 233 
Q 2284 -97 1722 -97 
Q 1063 -97 641 354 
Q 219 806 219 1581 
Q 219 2431 641 2937 
Q 1063 3444 1825 3444 
Q 2381 3444 2711 3111 
Q 3041 2778 3078 2222 
L 2534 2222 
z
" id="HelveticaWorld-Regular-63" transform="scale(0.015625)"/>
      </defs>
      <use xlink:href="#HelveticaWorld-Regular-49"/>
      <use x="25.78125" xlink:href="#HelveticaWorld-Regular-6e"/>
      <use x="80.957031" xlink:href="#HelveticaWorld-Regular-63"/>
      <use x="132.226562" xlink:href="#HelveticaWorld-Regular-6f"/>
      <use x="188.134766" xlink:href="#HelveticaWorld-Regular-6e"/>
      <use x="243.310547" xlink:href="#HelveticaWorld-Regular-67"/>
      <use x="299.21875" xlink:href="#HelveticaWorld-Regular-72"/>
      <use x="331.787109" xlink:href="#HelveticaWorld-Regular-75"/>
      <use x="386.572266" xlink:href="#HelveticaWorld-Regular-65"/>
      <use x="441.992188" xlink:href="#HelveticaWorld-Regular-6e"/>
      <use x="497.167969" xlink:href="#HelveticaWorld-Regular-74"/>
     </g>
    </g>
   </g>
  </g>
  <g id="axes_2">
   <g id="patch_5">
    <path d="M 115.55 668.2 
L 371.830233 668.2 
L 371.830233 10.8 
L 115.55 10.8 
z
" style="fill:#ffffff;"/>
   </g>
   <g id="matplotlib.axis_3">
    <g id="xtick_9"/>
    <g id="text_18">
     <!-- Average -->
     <g style="fill:#262626;" transform="translate(185.500116 702.17)scale(0.32 -0.32)">
      <defs>
       <path d="M 2816 1888 
L 2138 3909 
L 2125 3909 
L 1388 1888 
L 2816 1888 
z
M 1197 1338 
L 716 0 
L 78 0 
L 1806 4594 
L 2509 4594 
L 4172 0 
L 3494 0 
L 3041 1338 
L 1197 1338 
z
" id="HelveticaWorld-Regular-41" transform="scale(0.015625)"/>
       <path d="M 2522 3347 
L 3138 3347 
L 1863 0 
L 1259 0 
L 38 3347 
L 691 3347 
L 1563 622 
L 1575 622 
L 2522 3347 
z
" id="HelveticaWorld-Regular-76" transform="scale(0.015625)"/>
      </defs>
      <use xlink:href="#HelveticaWorld-Regular-41"/>
      <use x="62.824219" xlink:href="#HelveticaWorld-Regular-76"/>
      <use x="110.433594" xlink:href="#HelveticaWorld-Regular-65"/>
      <use x="165.853516" xlink:href="#HelveticaWorld-Regular-72"/>
      <use x="197.421875" xlink:href="#HelveticaWorld-Regular-61"/>
      <use x="252.353516" xlink:href="#HelveticaWorld-Regular-67"/>
      <use x="308.261719" xlink:href="#HelveticaWorld-Regular-65"/>
     </g>
    </g>
   </g>
   <g id="matplotlib.axis_4">
    <g id="ytick_6">
     <g id="text_19">
      <!-- 0.6 -->
      <g style="fill:#262626;" transform="translate(45.32 632.727857)scale(0.32 -0.32)">
       <defs>
        <path d="M 3494 1381 
L 256 1381 
L 256 1850 
L 3494 1850 
L 3494 1381 
z
" id="HelveticaWorld-Regular-2212" transform="scale(0.015625)"/>
       </defs>
       <use xlink:href="#HelveticaWorld-Regular-2212"/>
       <use x="58.59375" xlink:href="#HelveticaWorld-Regular-30"/>
       <use x="114.208984" xlink:href="#HelveticaWorld-Regular-2e"/>
       <use x="141.992188" xlink:href="#HelveticaWorld-Regular-36"/>
      </g>
     </g>
    </g>
    <g id="ytick_7">
     <g id="text_20">
      <!-- 0.4 -->
      <g style="fill:#262626;" transform="translate(45.32 538.813571)scale(0.32 -0.32)">
       <use xlink:href="#HelveticaWorld-Regular-2212"/>
       <use x="58.59375" xlink:href="#HelveticaWorld-Regular-30"/>
       <use x="114.208984" xlink:href="#HelveticaWorld-Regular-2e"/>
       <use x="141.992188" xlink:href="#HelveticaWorld-Regular-34"/>
      </g>
     </g>
    </g>
    <g id="ytick_8">
     <g id="text_21">
      <!-- 0.2 -->
      <g style="fill:#262626;" transform="translate(45.32 444.899286)scale(0.32 -0.32)">
       <use xlink:href="#HelveticaWorld-Regular-2212"/>
       <use x="58.59375" xlink:href="#HelveticaWorld-Regular-30"/>
       <use x="114.208984" xlink:href="#HelveticaWorld-Regular-2e"/>
       <use x="141.992188" xlink:href="#HelveticaWorld-Regular-32"/>
      </g>
     </g>
    </g>
    <g id="ytick_9">
     <g id="text_22">
      <!-- 0.0 -->
      <g style="fill:#262626;" transform="translate(64.07 350.985)scale(0.32 -0.32)">
       <use xlink:href="#HelveticaWorld-Regular-30"/>
       <use x="55.615234" xlink:href="#HelveticaWorld-Regular-2e"/>
       <use x="83.398438" xlink:href="#HelveticaWorld-Regular-30"/>
      </g>
     </g>
    </g>
    <g id="ytick_10">
     <g id="text_23">
      <!-- 0.2 -->
      <g style="fill:#262626;" transform="translate(64.07 257.070714)scale(0.32 -0.32)">
       <use xlink:href="#HelveticaWorld-Regular-30"/>
       <use x="55.615234" xlink:href="#HelveticaWorld-Regular-2e"/>
       <use x="83.398438" xlink:href="#HelveticaWorld-Regular-32"/>
      </g>
     </g>
    </g>
    <g id="ytick_11">
     <g id="text_24">
      <!-- 0.4 -->
      <g style="fill:#262626;" transform="translate(64.07 163.156429)scale(0.32 -0.32)">
       <use xlink:href="#HelveticaWorld-Regular-30"/>
       <use x="55.615234" xlink:href="#HelveticaWorld-Regular-2e"/>
       <use x="83.398438" xlink:href="#HelveticaWorld-Regular-34"/>
      </g>
     </g>
    </g>
    <g id="ytick_12">
     <g id="text_25">
      <!-- 0.6 -->
      <g style="fill:#262626;" transform="translate(64.07 69.242143)scale(0.32 -0.32)">
       <use xlink:href="#HelveticaWorld-Regular-30"/>
       <use x="55.615234" xlink:href="#HelveticaWorld-Regular-2e"/>
       <use x="83.398438" xlink:href="#HelveticaWorld-Regular-36"/>
      </g>
     </g>
    </g>
    <g id="text_26">
     <!--  Classifier information (a.u.) -->
     <g style="fill:#262626;" transform="translate(34.695 542.7325)rotate(-90)scale(0.32 -0.32)">
      <defs>
       <path d="M 941 550 
L 3244 550 
L 2125 3891 
L 2113 3891 
L 941 550 
z
M 97 0 
L 1831 4594 
L 2456 4594 
L 4128 0 
L 97 0 
z
" id="HelveticaWorld-Regular-394" transform="scale(0.015625)"/>
      </defs>
      <use xlink:href="#HelveticaWorld-Regular-394"/>
      <use x="66.015625" xlink:href="#HelveticaWorld-Regular-20"/>
      <use x="90.429688" xlink:href="#HelveticaWorld-Regular-43"/>
      <use x="162.744141" xlink:href="#HelveticaWorld-Regular-6c"/>
      <use x="184.765625" xlink:href="#HelveticaWorld-Regular-61"/>
      <use x="239.697266" xlink:href="#HelveticaWorld-Regular-73"/>
      <use x="289.697266" xlink:href="#HelveticaWorld-Regular-73"/>
      <use x="339.697266" xlink:href="#HelveticaWorld-Regular-69"/>
      <use x="361.71875" xlink:href="#HelveticaWorld-Regular-66"/>
      <use x="389.404297" xlink:href="#HelveticaWorld-Regular-69"/>
      <use x="411.425781" xlink:href="#HelveticaWorld-Regular-65"/>
      <use x="466.845703" xlink:href="#HelveticaWorld-Regular-72"/>
      <use x="499.414062" xlink:href="#HelveticaWorld-Regular-20"/>
      <use x="523.828125" xlink:href="#HelveticaWorld-Regular-69"/>
      <use x="545.849609" xlink:href="#HelveticaWorld-Regular-6e"/>
      <use x="601.025391" xlink:href="#HelveticaWorld-Regular-66"/>
      <use x="626.710938" xlink:href="#HelveticaWorld-Regular-6f"/>
      <use x="682.619141" xlink:href="#HelveticaWorld-Regular-72"/>
      <use x="715.1875" xlink:href="#HelveticaWorld-Regular-6d"/>
      <use x="798.195312" xlink:href="#HelveticaWorld-Regular-61"/>
      <use x="853.126953" xlink:href="#HelveticaWorld-Regular-74"/>
      <use x="880.8125" xlink:href="#HelveticaWorld-Regular-69"/>
      <use x="902.833984" xlink:href="#HelveticaWorld-Regular-6f"/>
      <use x="958.742188" xlink:href="#HelveticaWorld-Regular-6e"/>
      <use x="1013.917969" xlink:href="#HelveticaWorld-Regular-20"/>
      <use x="1038.332031" xlink:href="#HelveticaWorld-Regular-28"/>
      <use x="1071.632812" xlink:href="#HelveticaWorld-Regular-61"/>
      <use x="1126.564453" xlink:href="#HelveticaWorld-Regular-2e"/>
      <use x="1154.347656" xlink:href="#HelveticaWorld-Regular-75"/>
      <use x="1209.132812" xlink:href="#HelveticaWorld-Regular-2e"/>
      <use x="1236.916016" xlink:href="#HelveticaWorld-Regular-29"/>
     </g>
    </g>
   </g>
   <g id="PolyCollection_3">
    <defs>
     <path d="M 219.165692 -239.518542 
L 217.574489 -239.518542 
L 217.025711 -242.325787 
L 216.328683 -245.133032 
L 215.457225 -247.940276 
L 214.384554 -250.747521 
L 213.084428 -253.554766 
L 211.532504 -256.362011 
L 209.707853 -259.169255 
L 207.594585 -261.9765 
L 205.183473 -264.783745 
L 202.473493 -267.590989 
L 199.473157 -270.398234 
L 196.201531 -273.205479 
L 192.688801 -276.012723 
L 188.976285 -278.819968 
L 185.115781 -281.627213 
L 181.168163 -284.434458 
L 177.20121 -287.241702 
L 173.286669 -290.048947 
L 169.496654 -292.856192 
L 165.899571 -295.663436 
L 162.555814 -298.470681 
L 159.513588 -301.277926 
L 156.805245 -304.08517 
L 154.444522 -306.892415 
L 152.425071 -309.69966 
L 150.720533 -312.506905 
L 149.28631 -315.314149 
L 148.063011 -318.121394 
L 146.981352 -320.928639 
L 145.96812 -323.735883 
L 144.952669 -326.543128 
L 143.873335 -329.350373 
L 142.683121 -332.157618 
L 141.354073 -334.964862 
L 139.879905 -337.772107 
L 138.27658 -340.579352 
L 136.580816 -343.386596 
L 134.84664 -346.193841 
L 133.140386 -349.001086 
L 131.534612 -351.80833 
L 130.101565 -354.615575 
L 128.906808 -357.42282 
L 128.003615 -360.230065 
L 127.428623 -363.037309 
L 127.199101 -365.844554 
L 127.312026 -368.651799 
L 127.74497 -371.459043 
L 128.458657 -374.266288 
L 129.400863 -377.073533 
L 130.511247 -379.880777 
L 131.726615 -382.688022 
L 132.986102 -385.495267 
L 134.235751 -388.302512 
L 135.432115 -391.109756 
L 136.544533 -393.917001 
L 137.555996 -396.724246 
L 138.462598 -399.53149 
L 139.271823 -402.338735 
L 140.000003 -405.14598 
L 140.669425 -407.953224 
L 141.305549 -410.760469 
L 141.934778 -413.567714 
L 142.583045 -416.374959 
L 143.275346 -419.182203 
L 144.036095 -421.989448 
L 144.890016 -424.796693 
L 145.863152 -427.603937 
L 146.983536 -430.411182 
L 148.281116 -433.218427 
L 149.786718 -436.025672 
L 151.529995 -438.832916 
L 153.536578 -441.640161 
L 155.824837 -444.447406 
L 158.402757 -447.25465 
L 161.265492 -450.061895 
L 164.394023 -452.86914 
L 167.755225 -455.676384 
L 171.303376 -458.483629 
L 174.982934 -461.290874 
L 178.732221 -464.098119 
L 182.487524 -466.905363 
L 186.187103 -469.712608 
L 189.774668 -472.519853 
L 193.201996 -475.327097 
L 196.430537 -478.134342 
L 199.432007 -480.941587 
L 202.188108 -483.748831 
L 204.689602 -486.556076 
L 206.934991 -489.363321 
L 208.92904 -492.170566 
L 210.681342 -494.97781 
L 212.205038 -497.785055 
L 213.515747 -500.5923 
L 214.63072 -503.399544 
L 215.568167 -506.206789 
L 216.34672 -509.014034 
L 216.984986 -511.821279 
L 217.501161 -514.628523 
L 217.912675 -517.435768 
L 219.165692 -517.435768 
L 219.165692 -517.435768 
L 219.165692 -514.628523 
L 219.165692 -511.821279 
L 219.165692 -509.014034 
L 219.165692 -506.206789 
L 219.165692 -503.399544 
L 219.165692 -500.5923 
L 219.165692 -497.785055 
L 219.165692 -494.97781 
L 219.165692 -492.170566 
L 219.165692 -489.363321 
L 219.165692 -486.556076 
L 219.165692 -483.748831 
L 219.165692 -480.941587 
L 219.165692 -478.134342 
L 219.165692 -475.327097 
L 219.165692 -472.519853 
L 219.165692 -469.712608 
L 219.165692 -466.905363 
L 219.165692 -464.098119 
L 219.165692 -461.290874 
L 219.165692 -458.483629 
L 219.165692 -455.676384 
L 219.165692 -452.86914 
L 219.165692 -450.061895 
L 219.165692 -447.25465 
L 219.165692 -444.447406 
L 219.165692 -441.640161 
L 219.165692 -438.832916 
L 219.165692 -436.025672 
L 219.165692 -433.218427 
L 219.165692 -430.411182 
L 219.165692 -427.603937 
L 219.165692 -424.796693 
L 219.165692 -421.989448 
L 219.165692 -419.182203 
L 219.165692 -416.374959 
L 219.165692 -413.567714 
L 219.165692 -410.760469 
L 219.165692 -407.953224 
L 219.165692 -405.14598 
L 219.165692 -402.338735 
L 219.165692 -399.53149 
L 219.165692 -396.724246 
L 219.165692 -393.917001 
L 219.165692 -391.109756 
L 219.165692 -388.302512 
L 219.165692 -385.495267 
L 219.165692 -382.688022 
L 219.165692 -379.880777 
L 219.165692 -377.073533 
L 219.165692 -374.266288 
L 219.165692 -371.459043 
L 219.165692 -368.651799 
L 219.165692 -365.844554 
L 219.165692 -363.037309 
L 219.165692 -360.230065 
L 219.165692 -357.42282 
L 219.165692 -354.615575 
L 219.165692 -351.80833 
L 219.165692 -349.001086 
L 219.165692 -346.193841 
L 219.165692 -343.386596 
L 219.165692 -340.579352 
L 219.165692 -337.772107 
L 219.165692 -334.964862 
L 219.165692 -332.157618 
L 219.165692 -329.350373 
L 219.165692 -326.543128 
L 219.165692 -323.735883 
L 219.165692 -320.928639 
L 219.165692 -318.121394 
L 219.165692 -315.314149 
L 219.165692 -312.506905 
L 219.165692 -309.69966 
L 219.165692 -306.892415 
L 219.165692 -304.08517 
L 219.165692 -301.277926 
L 219.165692 -298.470681 
L 219.165692 -295.663436 
L 219.165692 -292.856192 
L 219.165692 -290.048947 
L 219.165692 -287.241702 
L 219.165692 -284.434458 
L 219.165692 -281.627213 
L 219.165692 -278.819968 
L 219.165692 -276.012723 
L 219.165692 -273.205479 
L 219.165692 -270.398234 
L 219.165692 -267.590989 
L 219.165692 -264.783745 
L 219.165692 -261.9765 
L 219.165692 -259.169255 
L 219.165692 -256.362011 
L 219.165692 -253.554766 
L 219.165692 -250.747521 
L 219.165692 -247.940276 
L 219.165692 -245.133032 
L 219.165692 -242.325787 
L 219.165692 -239.518542 
z
" id="m2c62194a73" style="stroke:#7a7a7a;stroke-width:1.5;"/>
    </defs>
    <g clip-path="url(#p1a04477733)">
     <use style="fill:#cccccc;stroke:#7a7a7a;stroke-width:1.5;" x="0" xlink:href="#m2c62194a73" y="720"/>
    </g>
   </g>
   <g id="PolyCollection_4">
    <defs>
     <path d="M 219.165692 -357.42282 
L 128.906808 -357.42282 
L 127.428623 -363.037309 
L 127.199101 -365.844554 
L 127.74497 -371.459043 
L 129.400863 -377.073533 
L 130.511247 -379.880777 
L 132.986102 -385.495267 
L 135.432115 -391.109756 
L 219.165692 -391.109756 
L 219.165692 -391.109756 
L 219.165692 -385.495267 
L 219.165692 -379.880777 
L 219.165692 -377.073533 
L 219.165692 -371.459043 
L 219.165692 -365.844554 
L 219.165692 -363.037309 
L 219.165692 -357.42282 
z
" id="ma50cbd1041" style="stroke:#666666;stroke-width:1.5;"/>
    </defs>
    <g clip-path="url(#p1a04477733)">
     <use style="fill:#8f8f8f;stroke:#666666;stroke-width:1.5;" x="0" xlink:href="#ma50cbd1041" y="720"/>
    </g>
   </g>
   <g id="PolyCollection_5">
    <defs>
     <path d="M 268.214541 -260.731301 
L 269.79092 -260.731301 
L 270.332497 -263.553875 
L 271.013645 -266.37645 
L 271.855243 -269.199024 
L 272.877538 -272.021599 
L 274.099491 -274.844173 
L 275.538322 -277.666748 
L 277.209351 -280.489322 
L 279.126156 -283.311896 
L 281.301009 -286.134471 
L 283.745433 -288.957045 
L 286.470671 -291.77962 
L 289.487787 -294.602194 
L 292.807119 -297.424768 
L 296.436869 -300.247343 
L 300.380764 -303.069917 
L 304.634865 -305.892492 
L 309.183848 -308.715066 
L 313.997225 -311.537641 
L 319.026148 -314.360215 
L 324.201438 -317.182789 
L 329.433419 -320.005364 
L 334.613971 -322.827938 
L 339.620925 -325.650513 
L 344.324602 -328.473087 
L 348.596015 -331.295662 
L 352.315953 -334.118236 
L 355.38404 -336.94081 
L 357.726774 -339.763385 
L 359.303671 -342.585959 
L 360.110778 -345.408534 
L 360.181131 -348.231108 
L 359.582029 -351.053683 
L 358.409323 -353.876257 
L 356.779249 -356.698831 
L 354.818588 -359.521406 
L 352.654103 -362.34398 
L 350.402332 -365.166555 
L 348.160777 -367.989129 
L 346.001418 -370.811704 
L 343.967234 -373.634278 
L 342.072103 -376.456852 
L 340.304036 -379.279427 
L 338.631298 -382.102001 
L 337.010591 -384.924576 
L 335.396169 -387.74715 
L 333.748632 -390.569725 
L 332.042164 -393.392299 
L 330.269214 -396.214873 
L 328.441969 -399.037448 
L 326.590502 -401.860022 
L 324.757932 -404.682597 
L 322.993449 -407.505171 
L 321.344331 -410.327745 
L 319.848245 -413.15032 
L 318.52703 -415.972894 
L 317.382912 -418.795469 
L 316.397636 -421.618043 
L 315.53459 -424.440618 
L 314.743461 -427.263192 
L 313.966638 -430.085766 
L 313.146354 -432.908341 
L 312.231485 -435.730915 
L 311.183111 -438.55349 
L 309.978151 -441.376064 
L 308.610771 -444.198639 
L 307.09159 -447.021213 
L 305.445023 -449.843787 
L 303.705337 -452.666362 
L 301.912068 -455.488936 
L 300.105457 -458.311511 
L 298.322464 -461.134085 
L 296.593725 -463.95666 
L 294.941649 -466.779234 
L 293.379669 -469.601808 
L 291.9125 -472.424383 
L 290.537186 -475.246957 
L 289.244683 -478.069532 
L 288.02171 -480.892106 
L 286.852662 -483.714681 
L 285.721427 -486.537255 
L 284.612997 -489.359829 
L 283.514788 -492.182404 
L 282.417652 -495.004978 
L 281.316531 -497.827553 
L 280.210745 -500.650127 
L 279.103915 -503.472702 
L 278.003521 -506.295276 
L 276.920148 -509.11785 
L 275.866474 -511.940425 
L 274.856112 -514.762999 
L 273.902401 -517.585574 
L 273.017289 -520.408148 
L 272.210397 -523.230723 
L 271.488369 -526.053297 
L 270.854534 -528.875871 
L 270.308904 -531.698446 
L 269.84845 -534.52102 
L 269.467615 -537.343595 
L 269.158958 -540.166169 
L 268.214541 -540.166169 
L 268.214541 -540.166169 
L 268.214541 -537.343595 
L 268.214541 -534.52102 
L 268.214541 -531.698446 
L 268.214541 -528.875871 
L 268.214541 -526.053297 
L 268.214541 -523.230723 
L 268.214541 -520.408148 
L 268.214541 -517.585574 
L 268.214541 -514.762999 
L 268.214541 -511.940425 
L 268.214541 -509.11785 
L 268.214541 -506.295276 
L 268.214541 -503.472702 
L 268.214541 -500.650127 
L 268.214541 -497.827553 
L 268.214541 -495.004978 
L 268.214541 -492.182404 
L 268.214541 -489.359829 
L 268.214541 -486.537255 
L 268.214541 -483.714681 
L 268.214541 -480.892106 
L 268.214541 -478.069532 
L 268.214541 -475.246957 
L 268.214541 -472.424383 
L 268.214541 -469.601808 
L 268.214541 -466.779234 
L 268.214541 -463.95666 
L 268.214541 -461.134085 
L 268.214541 -458.311511 
L 268.214541 -455.488936 
L 268.214541 -452.666362 
L 268.214541 -449.843787 
L 268.214541 -447.021213 
L 268.214541 -444.198639 
L 268.214541 -441.376064 
L 268.214541 -438.55349 
L 268.214541 -435.730915 
L 268.214541 -432.908341 
L 268.214541 -430.085766 
L 268.214541 -427.263192 
L 268.214541 -424.440618 
L 268.214541 -421.618043 
L 268.214541 -418.795469 
L 268.214541 -415.972894 
L 268.214541 -413.15032 
L 268.214541 -410.327745 
L 268.214541 -407.505171 
L 268.214541 -404.682597 
L 268.214541 -401.860022 
L 268.214541 -399.037448 
L 268.214541 -396.214873 
L 268.214541 -393.392299 
L 268.214541 -390.569725 
L 268.214541 -387.74715 
L 268.214541 -384.924576 
L 268.214541 -382.102001 
L 268.214541 -379.279427 
L 268.214541 -376.456852 
L 268.214541 -373.634278 
L 268.214541 -370.811704 
L 268.214541 -367.989129 
L 268.214541 -365.166555 
L 268.214541 -362.34398 
L 268.214541 -359.521406 
L 268.214541 -356.698831 
L 268.214541 -353.876257 
L 268.214541 -351.053683 
L 268.214541 -348.231108 
L 268.214541 -345.408534 
L 268.214541 -342.585959 
L 268.214541 -339.763385 
L 268.214541 -336.94081 
L 268.214541 -334.118236 
L 268.214541 -331.295662 
L 268.214541 -328.473087 
L 268.214541 -325.650513 
L 268.214541 -322.827938 
L 268.214541 -320.005364 
L 268.214541 -317.182789 
L 268.214541 -314.360215 
L 268.214541 -311.537641 
L 268.214541 -308.715066 
L 268.214541 -305.892492 
L 268.214541 -303.069917 
L 268.214541 -300.247343 
L 268.214541 -297.424768 
L 268.214541 -294.602194 
L 268.214541 -291.77962 
L 268.214541 -288.957045 
L 268.214541 -286.134471 
L 268.214541 -283.311896 
L 268.214541 -280.489322 
L 268.214541 -277.666748 
L 268.214541 -274.844173 
L 268.214541 -272.021599 
L 268.214541 -269.199024 
L 268.214541 -266.37645 
L 268.214541 -263.553875 
L 268.214541 -260.731301 
z
" id="m370d262de1" style="stroke:#7a7a7a;stroke-width:1.5;"/>
    </defs>
    <g clip-path="url(#p1a04477733)">
     <use style="fill:#cccccc;stroke:#7a7a7a;stroke-width:1.5;" x="0" xlink:href="#m370d262de1" y="720"/>
    </g>
   </g>
   <g id="PolyCollection_6">
    <defs>
     <path d="M 268.214541 -362.34398 
L 352.654103 -362.34398 
L 350.402332 -365.166555 
L 346.001418 -370.811704 
L 342.072103 -376.456852 
L 340.304036 -379.279427 
L 337.010591 -384.924576 
L 333.748632 -390.569725 
L 332.042164 -393.392299 
L 268.214541 -393.392299 
L 268.214541 -393.392299 
L 268.214541 -390.569725 
L 268.214541 -384.924576 
L 268.214541 -379.279427 
L 268.214541 -376.456852 
L 268.214541 -370.811704 
L 268.214541 -365.166555 
L 268.214541 -362.34398 
z
" id="med00142059" style="stroke:#666666;stroke-width:1.5;"/>
    </defs>
    <g clip-path="url(#p1a04477733)">
     <use style="fill:#8f8f8f;stroke:#666666;stroke-width:1.5;" x="0" xlink:href="#med00142059" y="720"/>
    </g>
   </g>
   <g id="PathCollection_1">
    <defs>
     <path d="M 0 3 
C 0.795609 3 1.55874 2.683901 2.12132 2.12132 
C 2.683901 1.55874 3 0.795609 3 0 
C 3 -0.795609 2.683901 -1.55874 2.12132 -2.12132 
C 1.55874 -2.683901 0.795609 -3 0 -3 
C -0.795609 -3 -1.55874 -2.683901 -2.12132 -2.12132 
C -2.683901 -1.55874 -3 -0.795609 -3 0 
C -3 0.795609 -2.683901 1.55874 -2.12132 2.12132 
C -1.55874 2.683901 -0.795609 3 0 3 
z
" id="m121d55ae38" style="stroke:#000000;stroke-opacity:0.3;"/>
    </defs>
    <g clip-path="url(#p1a04477733)">
     <use style="fill-opacity:0.3;stroke:#000000;stroke-opacity:0.3;" x="188.927874" xlink:href="#m121d55ae38" y="339.508891"/>
     <use style="fill-opacity:0.3;stroke:#000000;stroke-opacity:0.3;" x="146.042054" xlink:href="#m121d55ae38" y="302.41497"/>
     <use style="fill-opacity:0.3;stroke:#000000;stroke-opacity:0.3;" x="172.681084" xlink:href="#m121d55ae38" y="266.949132"/>
     <use style="fill-opacity:0.3;stroke:#000000;stroke-opacity:0.3;" x="208.817506" xlink:href="#m121d55ae38" y="288.223585"/>
     <use style="fill-opacity:0.3;stroke:#000000;stroke-opacity:0.3;" x="202.814975" xlink:href="#m121d55ae38" y="355.126821"/>
     <use style="fill-opacity:0.3;stroke:#000000;stroke-opacity:0.3;" x="215.551041" xlink:href="#m121d55ae38" y="270.115998"/>
     <use style="fill-opacity:0.3;stroke:#000000;stroke-opacity:0.3;" x="151.131926" xlink:href="#m121d55ae38" y="371.61415"/>
     <use style="fill-opacity:0.3;stroke:#000000;stroke-opacity:0.3;" x="205.369843" xlink:href="#m121d55ae38" y="412.139798"/>
     <use style="fill-opacity:0.3;stroke:#000000;stroke-opacity:0.3;" x="204.307694" xlink:href="#m121d55ae38" y="410.01797"/>
     <use style="fill-opacity:0.3;stroke:#000000;stroke-opacity:0.3;" x="190.825543" xlink:href="#m121d55ae38" y="438.461456"/>
     <use style="fill-opacity:0.3;stroke:#000000;stroke-opacity:0.3;" x="177.264456" xlink:href="#m121d55ae38" y="277.744799"/>
     <use style="fill-opacity:0.3;stroke:#000000;stroke-opacity:0.3;" x="161.821515" xlink:href="#m121d55ae38" y="392.851437"/>
     <use style="fill-opacity:0.3;stroke:#000000;stroke-opacity:0.3;" x="197.67339" xlink:href="#m121d55ae38" y="303.518117"/>
     <use style="fill-opacity:0.3;stroke:#000000;stroke-opacity:0.3;" x="167.616123" xlink:href="#m121d55ae38" y="360.990695"/>
     <use style="fill-opacity:0.3;stroke:#000000;stroke-opacity:0.3;" x="127.476725" xlink:href="#m121d55ae38" y="353.290887"/>
     <use style="fill-opacity:0.3;stroke:#000000;stroke-opacity:0.3;" x="141.826197" xlink:href="#m121d55ae38" y="373.370494"/>
     <use style="fill-opacity:0.3;stroke:#000000;stroke-opacity:0.3;" x="151.863356" xlink:href="#m121d55ae38" y="332.250241"/>
     <use style="fill-opacity:0.3;stroke:#000000;stroke-opacity:0.3;" x="185.837423" xlink:href="#m121d55ae38" y="425.220466"/>
     <use style="fill-opacity:0.3;stroke:#000000;stroke-opacity:0.3;" x="143.15922" xlink:href="#m121d55ae38" y="377.103033"/>
     <use style="fill-opacity:0.3;stroke:#000000;stroke-opacity:0.3;" x="157.89482" xlink:href="#m121d55ae38" y="310.513942"/>
     <use style="fill-opacity:0.3;stroke:#000000;stroke-opacity:0.3;" x="168.094793" xlink:href="#m121d55ae38" y="403.136942"/>
     <use style="fill-opacity:0.3;stroke:#000000;stroke-opacity:0.3;" x="186.451445" xlink:href="#m121d55ae38" y="409.807664"/>
     <use style="fill-opacity:0.3;stroke:#000000;stroke-opacity:0.3;" x="214.161151" xlink:href="#m121d55ae38" y="273.162678"/>
     <use style="fill-opacity:0.3;stroke:#000000;stroke-opacity:0.3;" x="218.585311" xlink:href="#m121d55ae38" y="244.584233"/>
     <use style="fill-opacity:0.3;stroke:#000000;stroke-opacity:0.3;" x="206.318982" xlink:href="#m121d55ae38" y="367.302383"/>
     <use style="fill-opacity:0.3;stroke:#000000;stroke-opacity:0.3;" x="188.373359" xlink:href="#m121d55ae38" y="309.087756"/>
     <use style="fill-opacity:0.3;stroke:#000000;stroke-opacity:0.3;" x="163.420725" xlink:href="#m121d55ae38" y="393.951714"/>
     <use style="fill-opacity:0.3;stroke:#000000;stroke-opacity:0.3;" x="184.675657" xlink:href="#m121d55ae38" y="341.430017"/>
     <use style="fill-opacity:0.3;stroke:#000000;stroke-opacity:0.3;" x="139.390691" xlink:href="#m121d55ae38" y="323.062944"/>
     <use style="fill-opacity:0.3;stroke:#000000;stroke-opacity:0.3;" x="150.911828" xlink:href="#m121d55ae38" y="354.070082"/>
     <use style="fill-opacity:0.3;stroke:#000000;stroke-opacity:0.3;" x="213.454388" xlink:href="#m121d55ae38" y="275.509217"/>
     <use style="fill-opacity:0.3;stroke:#000000;stroke-opacity:0.3;" x="216.544379" xlink:href="#m121d55ae38" y="304.172429"/>
     <use style="fill-opacity:0.3;stroke:#000000;stroke-opacity:0.3;" x="190.001125" xlink:href="#m121d55ae38" y="421.803826"/>
     <use style="fill-opacity:0.3;stroke:#000000;stroke-opacity:0.3;" x="154.03756" xlink:href="#m121d55ae38" y="351.944969"/>
     <use style="fill-opacity:0.3;stroke:#000000;stroke-opacity:0.3;" x="164.663762" xlink:href="#m121d55ae38" y="329.173692"/>
    </g>
   </g>
   <g id="PathCollection_2">
    <g clip-path="url(#p1a04477733)">
     <use style="fill-opacity:0.3;stroke:#000000;stroke-opacity:0.3;" x="269.470505" xlink:href="#m121d55ae38" y="268.817417"/>
     <use style="fill-opacity:0.3;stroke:#000000;stroke-opacity:0.3;" x="330.915987" xlink:href="#m121d55ae38" y="330.215382"/>
     <use style="fill-opacity:0.3;stroke:#000000;stroke-opacity:0.3;" x="332.712375" xlink:href="#m121d55ae38" y="331.946769"/>
     <use style="fill-opacity:0.3;stroke:#000000;stroke-opacity:0.3;" x="284.357127" xlink:href="#m121d55ae38" y="283.38199"/>
     <use style="fill-opacity:0.3;stroke:#000000;stroke-opacity:0.3;" x="269.167602" xlink:href="#m121d55ae38" y="418.809869"/>
     <use style="fill-opacity:0.3;stroke:#000000;stroke-opacity:0.3;" x="269.1117" xlink:href="#m121d55ae38" y="295.780766"/>
     <use style="fill-opacity:0.3;stroke:#000000;stroke-opacity:0.3;" x="287.967086" xlink:href="#m121d55ae38" y="383.209145"/>
     <use style="fill-opacity:0.3;stroke:#000000;stroke-opacity:0.3;" x="312.47582" xlink:href="#m121d55ae38" y="355.896926"/>
     <use style="fill-opacity:0.3;stroke:#000000;stroke-opacity:0.3;" x="298.718995" xlink:href="#m121d55ae38" y="278.209418"/>
     <use style="fill-opacity:0.3;stroke:#000000;stroke-opacity:0.3;" x="286.662476" xlink:href="#m121d55ae38" y="415.018769"/>
     <use style="fill-opacity:0.3;stroke:#000000;stroke-opacity:0.3;" x="290.353149" xlink:href="#m121d55ae38" y="286.545398"/>
     <use style="fill-opacity:0.3;stroke:#000000;stroke-opacity:0.3;" x="285.842281" xlink:href="#m121d55ae38" y="323.140509"/>
     <use style="fill-opacity:0.3;stroke:#000000;stroke-opacity:0.3;" x="308.710069" xlink:href="#m121d55ae38" y="324.67459"/>
     <use style="fill-opacity:0.3;stroke:#000000;stroke-opacity:0.3;" x="342.239762" xlink:href="#m121d55ae38" y="366.86254"/>
     <use style="fill-opacity:0.3;stroke:#000000;stroke-opacity:0.3;" x="288.649819" xlink:href="#m121d55ae38" y="379.352826"/>
     <use style="fill-opacity:0.3;stroke:#000000;stroke-opacity:0.3;" x="280.66122" xlink:href="#m121d55ae38" y="290.591669"/>
     <use style="fill-opacity:0.3;stroke:#000000;stroke-opacity:0.3;" x="291.074136" xlink:href="#m121d55ae38" y="397.635298"/>
     <use style="fill-opacity:0.3;stroke:#000000;stroke-opacity:0.3;" x="347.305671" xlink:href="#m121d55ae38" y="381.696361"/>
     <use style="fill-opacity:0.3;stroke:#000000;stroke-opacity:0.3;" x="268.698323" xlink:href="#m121d55ae38" y="220.292661"/>
     <use style="fill-opacity:0.3;stroke:#000000;stroke-opacity:0.3;" x="320.89594" xlink:href="#m121d55ae38" y="371.430887"/>
     <use style="fill-opacity:0.3;stroke:#000000;stroke-opacity:0.3;" x="301.783953" xlink:href="#m121d55ae38" y="315.420817"/>
     <use style="fill-opacity:0.3;stroke:#000000;stroke-opacity:0.3;" x="314.570806" xlink:href="#m121d55ae38" y="361.74513"/>
     <use style="fill-opacity:0.3;stroke:#000000;stroke-opacity:0.3;" x="286.506367" xlink:href="#m121d55ae38" y="240.366047"/>
     <use style="fill-opacity:0.3;stroke:#000000;stroke-opacity:0.3;" x="304.319758" xlink:href="#m121d55ae38" y="331.741573"/>
     <use style="fill-opacity:0.3;stroke:#000000;stroke-opacity:0.3;" x="336.414297" xlink:href="#m121d55ae38" y="366.909927"/>
     <use style="fill-opacity:0.3;stroke:#000000;stroke-opacity:0.3;" x="328.723355" xlink:href="#m121d55ae38" y="325.227402"/>
     <use style="fill-opacity:0.3;stroke:#000000;stroke-opacity:0.3;" x="317.922416" xlink:href="#m121d55ae38" y="372.251925"/>
     <use style="fill-opacity:0.3;stroke:#000000;stroke-opacity:0.3;" x="345.308576" xlink:href="#m121d55ae38" y="387.069388"/>
     <use style="fill-opacity:0.3;stroke:#000000;stroke-opacity:0.3;" x="317.776704" xlink:href="#m121d55ae38" y="348.316236"/>
     <use style="fill-opacity:0.3;stroke:#000000;stroke-opacity:0.3;" x="271.925069" xlink:href="#m121d55ae38" y="390.647464"/>
     <use style="fill-opacity:0.3;stroke:#000000;stroke-opacity:0.3;" x="318.131024" xlink:href="#m121d55ae38" y="383.109855"/>
     <use style="fill-opacity:0.3;stroke:#000000;stroke-opacity:0.3;" x="295.093064" xlink:href="#m121d55ae38" y="254.672451"/>
     <use style="fill-opacity:0.3;stroke:#000000;stroke-opacity:0.3;" x="307.39898" xlink:href="#m121d55ae38" y="389.165392"/>
     <use style="fill-opacity:0.3;stroke:#000000;stroke-opacity:0.3;" x="268.311452" xlink:href="#m121d55ae38" y="347.623834"/>
     <use style="fill-opacity:0.3;stroke:#000000;stroke-opacity:0.3;" x="281.499589" xlink:href="#m121d55ae38" y="368.569068"/>
    </g>
   </g>
   <g id="line2d_9">
    <path clip-path="url(#p1a04477733)" d="M 243.690116 358.282857 
L 243.690116 325.412857 
" style="fill:none;stroke:#000000;stroke-linecap:round;stroke-width:3;"/>
   </g>
   <g id="line2d_10">
    <path clip-path="url(#p1a04477733)" d="M 237.55901 358.282857 
L 249.821223 358.282857 
" style="fill:none;stroke:#000000;stroke-linecap:round;stroke-width:3;"/>
   </g>
   <g id="line2d_11">
    <path clip-path="url(#p1a04477733)" d="M 237.55901 325.412857 
L 249.821223 325.412857 
" style="fill:none;stroke:#000000;stroke-linecap:round;stroke-width:3;"/>
   </g>
   <g id="line2d_12">
    <defs>
     <path d="M 0 7.5 
C 1.989023 7.5 3.896849 6.709753 5.303301 5.303301 
C 6.709753 3.896849 7.5 1.989023 7.5 0 
C 7.5 -1.989023 6.709753 -3.896849 5.303301 -5.303301 
C 3.896849 -6.709753 1.989023 -7.5 0 -7.5 
C -1.989023 -7.5 -3.896849 -6.709753 -5.303301 -5.303301 
C -6.709753 -3.896849 -7.5 -1.989023 -7.5 0 
C -7.5 1.989023 -6.709753 3.896849 -5.303301 5.303301 
C -3.896849 6.709753 -1.989023 7.5 0 7.5 
z
" id="mfee73aa5b3" style="stroke:#000000;"/>
    </defs>
    <g clip-path="url(#p1a04477733)">
     <use style="stroke:#000000;" x="243.690116" xlink:href="#mfee73aa5b3" y="342.142473"/>
    </g>
   </g>
   <g id="line2d_13">
    <path clip-path="url(#p1a04477733)" d="M 115.55 339.5 
L 371.830233 339.5 
" style="fill:none;stroke:#000000;stroke-dasharray:7.4,3.2;stroke-dashoffset:0;stroke-width:2;"/>
   </g>
   <g id="patch_6">
    <path d="M 115.55 668.2 
L 115.55 10.8 
" style="fill:none;stroke:#262626;stroke-linecap:square;stroke-linejoin:miter;stroke-width:2;"/>
   </g>
  </g>
 </g>
 <defs>
  <clipPath id="pc978f90a5f">
   <rect height="417" width="950.940699" x="462.880233" y="131"/>
  </clipPath>
  <clipPath id="p1a04477733">
   <rect height="657.4" width="256.280233" x="115.55" y="10.8"/>
  </clipPath>
 </defs>
</svg>
