<?xml version="1.0" encoding="utf-8" standalone="no"?>
<!DOCTYPE svg PUBLIC "-//W3C//DTD SVG 1.1//EN"
  "http://www.w3.org/Graphics/SVG/1.1/DTD/svg11.dtd">
<svg height="720pt" version="1.1" viewBox="0 0 1440 720" width="1440pt" xmlns="http://www.w3.org/2000/svg" xmlns:xlink="http://www.w3.org/1999/xlink">
 <metadata>
  <rdf:RDF xmlns:cc="http://creativecommons.org/ns#" xmlns:dc="http://purl.org/dc/elements/1.1/" xmlns:rdf="http://www.w3.org/1999/02/22-rdf-syntax-ns#">
   <cc:Work>
    <dc:type rdf:resource="http://purl.org/dc/dcmitype/StillImage"/>
    <dc:date>2025-06-15T20:27:41.272577</dc:date>
    <dc:format>image/svg+xml</dc:format>
    <dc:creator>
     <cc:Agent>
      <dc:title>Matplotlib v3.4.3, https://matplotlib.org/</dc:title>
     </cc:Agent>
    </dc:creator>
   </cc:Work>
  </rdf:RDF>
 </metadata>
 <defs>
  <style type="text/css">*{stroke-linecap:butt;stroke-linejoin:round;}</style>
 </defs>
 <g id="figure_1">
  <g id="patch_1">
   <path d="M 0 720 
L 1440 720 
L 1440 0 
L 0 0 
z
" style="fill:none;"/>
  </g>
  <g id="axes_1">
   <g id="patch_2">
    <path d="M 462.880233 548 
L 1413.820932 548 
L 1413.820932 131 
L 462.880233 131 
z
" style="fill:#ffffff;"/>
   </g>
   <g id="matplotlib.axis_1">
    <g id="xtick_1">
     <g id="text_1">
      <!-- 100 -->
      <g style="fill:#262626;" transform="translate(457.811617 575.09875)scale(0.28 -0.28)">
       <defs>
        <path d="M 2297 0 
L 1697 0 
L 1697 3194 
L 647 3194 
L 647 3641 
Q 1197 3659 1465 3817 
Q 1734 3975 1856 4500 
L 2297 4500 
L 2297 0 
z
" id="HelveticaWorld-Regular-31" transform="scale(0.015625)"/>
        <path d="M 2719 2188 
Q 2719 3091 2480 3542 
Q 2241 3994 1778 3994 
Q 1325 3994 1081 3542 
Q 838 3091 838 2188 
Q 838 1313 1078 848 
Q 1319 384 1778 384 
Q 2241 384 2480 832 
Q 2719 1281 2719 2188 
z
M 3322 2188 
Q 3322 1081 2922 479 
Q 2522 -122 1778 -122 
Q 1006 -122 622 501 
Q 238 1125 238 2188 
Q 238 3278 631 3889 
Q 1025 4500 1778 4500 
Q 2522 4500 2922 3892 
Q 3322 3284 3322 2188 
z
" id="HelveticaWorld-Regular-30" transform="scale(0.015625)"/>
       </defs>
       <use xlink:href="#HelveticaWorld-Regular-31"/>
       <use x="55.615234" xlink:href="#HelveticaWorld-Regular-30"/>
       <use x="111.230469" xlink:href="#HelveticaWorld-Regular-30"/>
      </g>
     </g>
    </g>
    <g id="xtick_2">
     <g id="text_2">
      <!-- 500 -->
      <g style="fill:#262626;" transform="translate(519.802536 575.09875)scale(0.28 -0.28)">
       <defs>
        <path d="M 941 2619 
Q 1313 2900 1813 2900 
Q 2419 2900 2855 2497 
Q 3291 2094 3291 1459 
Q 3291 769 2870 320 
Q 2450 -128 1691 -128 
Q 1031 -128 650 195 
Q 269 519 206 1113 
L 788 1113 
Q 831 750 1072 558 
Q 1313 366 1741 366 
Q 2156 366 2422 653 
Q 2688 941 2688 1388 
Q 2688 1844 2409 2119 
Q 2131 2394 1691 2394 
Q 1191 2394 856 1966 
L 372 1991 
L 709 4397 
L 3041 4397 
L 3041 3853 
L 1131 3853 
L 941 2619 
z
" id="HelveticaWorld-Regular-35" transform="scale(0.015625)"/>
       </defs>
       <use xlink:href="#HelveticaWorld-Regular-35"/>
       <use x="55.615234" xlink:href="#HelveticaWorld-Regular-30"/>
       <use x="111.230469" xlink:href="#HelveticaWorld-Regular-30"/>
      </g>
     </g>
    </g>
    <g id="xtick_3">
     <g id="text_3">
      <!-- 1000 -->
      <g style="fill:#262626;" transform="translate(589.505872 575.09875)scale(0.28 -0.28)">
       <use xlink:href="#HelveticaWorld-Regular-31"/>
       <use x="55.615234" xlink:href="#HelveticaWorld-Regular-30"/>
       <use x="111.230469" xlink:href="#HelveticaWorld-Regular-30"/>
       <use x="166.845703" xlink:href="#HelveticaWorld-Regular-30"/>
      </g>
     </g>
    </g>
    <g id="xtick_4">
     <g id="text_4">
      <!-- 2000 -->
      <g style="fill:#262626;" transform="translate(744.48317 575.09875)scale(0.28 -0.28)">
       <defs>
        <path d="M 281 2888 
Q 281 3681 690 4090 
Q 1100 4500 1838 4500 
Q 2456 4500 2850 4125 
Q 3244 3750 3244 3156 
Q 3244 2694 3017 2376 
Q 2791 2059 2350 1819 
L 1575 1394 
Q 891 1019 800 531 
L 3244 531 
L 3244 0 
L 166 0 
Q 191 634 441 1056 
Q 691 1478 1222 1784 
L 2028 2253 
Q 2350 2438 2497 2636 
Q 2644 2834 2644 3181 
Q 2644 3525 2403 3759 
Q 2163 3994 1753 3994 
Q 1300 3994 1075 3695 
Q 850 3397 844 2888 
L 281 2888 
z
" id="HelveticaWorld-Regular-32" transform="scale(0.015625)"/>
       </defs>
       <use xlink:href="#HelveticaWorld-Regular-32"/>
       <use x="55.615234" xlink:href="#HelveticaWorld-Regular-30"/>
       <use x="111.230469" xlink:href="#HelveticaWorld-Regular-30"/>
       <use x="166.845703" xlink:href="#HelveticaWorld-Regular-30"/>
      </g>
     </g>
    </g>
    <g id="xtick_5">
     <g id="text_5">
      <!-- 3000 -->
      <g style="fill:#262626;" transform="translate(899.460468 575.09875)scale(0.28 -0.28)">
       <defs>
        <path d="M 1434 2559 
Q 1575 2547 1728 2547 
Q 2125 2547 2354 2730 
Q 2584 2913 2584 3284 
Q 2584 3584 2370 3789 
Q 2156 3994 1753 3994 
Q 1306 3994 1098 3731 
Q 891 3469 878 3028 
L 325 3028 
Q 325 3731 694 4115 
Q 1063 4500 1778 4500 
Q 2413 4500 2791 4173 
Q 3169 3847 3169 3316 
Q 3169 2631 2591 2388 
L 2591 2375 
Q 3341 2119 3341 1325 
Q 3341 691 2919 284 
Q 2497 -122 1722 -122 
Q 1088 -122 678 211 
Q 269 544 219 1375 
L 800 1375 
Q 813 856 1056 620 
Q 1300 384 1759 384 
Q 2203 384 2472 631 
Q 2741 878 2741 1253 
Q 2741 1663 2484 1872 
Q 2228 2081 1691 2081 
Q 1563 2081 1434 2075 
L 1434 2559 
z
" id="HelveticaWorld-Regular-33" transform="scale(0.015625)"/>
       </defs>
       <use xlink:href="#HelveticaWorld-Regular-33"/>
       <use x="55.615234" xlink:href="#HelveticaWorld-Regular-30"/>
       <use x="111.230469" xlink:href="#HelveticaWorld-Regular-30"/>
       <use x="166.845703" xlink:href="#HelveticaWorld-Regular-30"/>
      </g>
     </g>
    </g>
    <g id="xtick_6">
     <g id="text_6">
      <!-- 4000 -->
      <g style="fill:#262626;" transform="translate(1054.437765 575.09875)scale(0.28 -0.28)">
       <defs>
        <path d="M 678 1581 
L 2125 1581 
L 2125 3622 
L 2113 3622 
L 678 1581 
z
M 2688 1094 
L 2688 0 
L 2125 0 
L 2125 1094 
L 159 1094 
L 159 1644 
L 2222 4500 
L 2688 4500 
L 2688 1581 
L 3347 1581 
L 3347 1094 
L 2688 1094 
z
" id="HelveticaWorld-Regular-34" transform="scale(0.015625)"/>
       </defs>
       <use xlink:href="#HelveticaWorld-Regular-34"/>
       <use x="55.615234" xlink:href="#HelveticaWorld-Regular-30"/>
       <use x="111.230469" xlink:href="#HelveticaWorld-Regular-30"/>
       <use x="166.845703" xlink:href="#HelveticaWorld-Regular-30"/>
      </g>
     </g>
    </g>
    <g id="xtick_7">
     <g id="text_7">
      <!-- 5000 -->
      <g style="fill:#262626;" transform="translate(1209.415063 575.09875)scale(0.28 -0.28)">
       <use xlink:href="#HelveticaWorld-Regular-35"/>
       <use x="55.615234" xlink:href="#HelveticaWorld-Regular-30"/>
       <use x="111.230469" xlink:href="#HelveticaWorld-Regular-30"/>
       <use x="166.845703" xlink:href="#HelveticaWorld-Regular-30"/>
      </g>
     </g>
    </g>
    <g id="xtick_8">
     <g id="text_8">
      <!-- 6000 -->
      <g style="fill:#262626;" transform="translate(1364.392361 575.09875)scale(0.28 -0.28)">
       <defs>
        <path d="M 903 1381 
Q 903 941 1165 662 
Q 1428 384 1850 384 
Q 2253 384 2492 668 
Q 2731 953 2731 1416 
Q 2731 1819 2495 2091 
Q 2259 2363 1825 2363 
Q 1403 2363 1153 2097 
Q 903 1831 903 1381 
z
M 2669 3303 
Q 2606 3647 2414 3820 
Q 2222 3994 1894 3994 
Q 1375 3994 1103 3487 
Q 831 2981 825 2328 
L 838 2316 
Q 1197 2869 1906 2869 
Q 2472 2869 2894 2494 
Q 3316 2119 3316 1441 
Q 3316 769 2916 323 
Q 2516 -122 1838 -122 
Q 1056 -122 650 434 
Q 244 991 244 2094 
Q 244 3156 659 3828 
Q 1075 4500 1906 4500 
Q 2444 4500 2816 4179 
Q 3188 3859 3219 3303 
L 2669 3303 
z
" id="HelveticaWorld-Regular-36" transform="scale(0.015625)"/>
       </defs>
       <use xlink:href="#HelveticaWorld-Regular-36"/>
       <use x="55.615234" xlink:href="#HelveticaWorld-Regular-30"/>
       <use x="111.230469" xlink:href="#HelveticaWorld-Regular-30"/>
       <use x="166.845703" xlink:href="#HelveticaWorld-Regular-30"/>
      </g>
     </g>
    </g>
    <g id="text_9">
     <!-- Number of Voxels -->
     <g style="fill:#262626;" transform="translate(815.493082 607.865625)scale(0.32 -0.32)">
      <defs>
       <path d="M 3559 4594 
L 4159 4594 
L 4159 0 
L 3469 0 
L 1125 3713 
L 1113 3713 
L 1113 0 
L 519 0 
L 519 4594 
L 1247 4594 
L 3547 884 
L 3559 884 
L 3559 4594 
z
" id="HelveticaWorld-Regular-4e" transform="scale(0.015625)"/>
       <path d="M 391 3347 
L 953 3347 
L 953 1125 
Q 953 756 1120 573 
Q 1288 391 1600 391 
Q 2034 391 2278 698 
Q 2522 1006 2522 1503 
L 2522 3347 
L 3084 3347 
L 3084 0 
L 2553 0 
L 2553 488 
L 2541 500 
Q 2222 -97 1478 -97 
Q 997 -97 694 165 
Q 391 428 391 941 
L 391 3347 
z
" id="HelveticaWorld-Regular-75" transform="scale(0.015625)"/>
       <path d="M 422 3347 
L 953 3347 
L 953 2875 
L 966 2875 
Q 1344 3444 1978 3444 
Q 2606 3444 2869 2900 
Q 3109 3194 3334 3319 
Q 3559 3444 3891 3444 
Q 4325 3444 4626 3159 
Q 4928 2875 4928 2316 
L 4928 0 
L 4366 0 
L 4366 2163 
Q 4366 2553 4219 2745 
Q 4072 2938 3744 2938 
Q 3413 2938 3184 2669 
Q 2956 2400 2956 2041 
L 2956 0 
L 2394 0 
L 2394 2316 
Q 2394 2606 2259 2772 
Q 2125 2938 1869 2938 
Q 1466 2938 1225 2638 
Q 984 2338 984 1825 
L 984 0 
L 422 0 
L 422 3347 
z
" id="HelveticaWorld-Regular-6d" transform="scale(0.015625)"/>
       <path d="M 2778 1684 
Q 2778 2356 2540 2647 
Q 2303 2938 1863 2938 
Q 1416 2931 1187 2589 
Q 959 2247 959 1600 
Q 959 941 1234 666 
Q 1509 391 1875 391 
Q 2291 391 2534 733 
Q 2778 1075 2778 1684 
z
M 422 0 
L 422 4594 
L 984 4594 
L 984 2925 
L 997 2925 
Q 1356 3444 1966 3444 
Q 2591 3444 2975 2980 
Q 3359 2516 3359 1772 
Q 3359 934 2971 418 
Q 2584 -97 1888 -97 
Q 1275 -97 966 416 
L 953 416 
L 953 0 
L 422 0 
z
" id="HelveticaWorld-Regular-62" transform="scale(0.015625)"/>
       <path d="M 2719 1941 
Q 2675 2484 2431 2711 
Q 2188 2938 1784 2938 
Q 1375 2938 1123 2650 
Q 872 2363 856 1941 
L 2719 1941 
z
M 3256 1050 
Q 3163 531 2747 191 
Q 2381 -97 1784 -103 
Q 1081 -97 668 358 
Q 256 813 256 1581 
Q 256 2463 681 2953 
Q 1106 3444 1863 3444 
Q 2541 3444 2922 2937 
Q 3303 2431 3303 1491 
L 856 1491 
Q 856 966 1100 678 
Q 1344 391 1831 391 
Q 2175 391 2422 598 
Q 2669 806 2694 1050 
L 3256 1050 
z
" id="HelveticaWorld-Regular-65" transform="scale(0.015625)"/>
       <path d="M 984 0 
L 422 0 
L 422 3347 
L 953 3347 
L 953 2791 
L 966 2791 
Q 1331 3444 1906 3444 
Q 1997 3444 2053 3425 
L 2053 2841 
L 1844 2841 
Q 1466 2841 1225 2584 
Q 984 2328 984 1947 
L 984 0 
z
" id="HelveticaWorld-Regular-72" transform="scale(0.015625)"/>
       <path id="HelveticaWorld-Regular-20" transform="scale(0.015625)"/>
       <path d="M 813 1678 
Q 813 1119 1066 758 
Q 1319 397 1784 397 
Q 2266 397 2516 775 
Q 2766 1153 2766 1678 
Q 2766 2209 2516 2579 
Q 2266 2950 1784 2950 
Q 1338 2950 1075 2601 
Q 813 2253 813 1678 
z
M 238 1678 
Q 238 2425 653 2934 
Q 1069 3444 1784 3444 
Q 2516 3444 2928 2928 
Q 3341 2413 3341 1678 
Q 3341 941 2931 422 
Q 2522 -97 1784 -97 
Q 1075 -97 656 406 
Q 238 909 238 1678 
z
" id="HelveticaWorld-Regular-6f" transform="scale(0.015625)"/>
       <path d="M 1100 2881 
L 1100 0 
L 538 0 
L 538 2881 
L 78 2881 
L 78 3347 
L 538 3347 
L 538 3922 
Q 538 4300 767 4479 
Q 997 4659 1409 4659 
Q 1550 4659 1663 4647 
L 1663 4141 
Q 1563 4153 1434 4153 
Q 1247 4153 1173 4061 
Q 1100 3969 1100 3763 
L 1100 3347 
L 1663 3347 
L 1663 2881 
L 1100 2881 
z
" id="HelveticaWorld-Regular-66" transform="scale(0.015625)"/>
       <path d="M 3413 4594 
L 4109 4594 
L 2425 0 
L 1772 0 
L 97 4594 
L 788 4594 
L 2100 678 
L 2113 678 
L 3413 4594 
z
" id="HelveticaWorld-Regular-56" transform="scale(0.015625)"/>
       <path d="M 3138 0 
L 2413 0 
L 1588 1259 
L 781 0 
L 72 0 
L 1241 1722 
L 128 3347 
L 844 3347 
L 1619 2169 
L 2400 3347 
L 3084 3347 
L 1959 1722 
L 3138 0 
z
" id="HelveticaWorld-Regular-78" transform="scale(0.015625)"/>
       <path d="M 984 0 
L 422 0 
L 422 4594 
L 984 4594 
L 984 0 
z
" id="HelveticaWorld-Regular-6c" transform="scale(0.015625)"/>
       <path d="M 2309 2394 
Q 2297 2694 2095 2825 
Q 1894 2956 1516 2956 
Q 1241 2956 1045 2834 
Q 850 2713 850 2484 
Q 850 2303 965 2217 
Q 1081 2131 1466 2034 
L 2022 1894 
Q 2528 1766 2745 1567 
Q 2963 1369 2963 1013 
Q 2963 519 2602 211 
Q 2241 -97 1638 -97 
Q 934 -97 573 195 
Q 213 488 206 1075 
L 750 1075 
Q 763 728 980 559 
Q 1197 391 1631 391 
Q 1984 391 2192 531 
Q 2400 672 2400 922 
Q 2400 1100 2265 1206 
Q 2131 1313 1734 1403 
L 1081 1563 
Q 684 1663 495 1861 
Q 306 2059 306 2375 
Q 306 2869 659 3156 
Q 1013 3444 1581 3444 
Q 2188 3444 2511 3148 
Q 2834 2853 2853 2394 
L 2309 2394 
z
" id="HelveticaWorld-Regular-73" transform="scale(0.015625)"/>
      </defs>
      <use xlink:href="#HelveticaWorld-Regular-4e"/>
      <use x="73.095703" xlink:href="#HelveticaWorld-Regular-75"/>
      <use x="127.880859" xlink:href="#HelveticaWorld-Regular-6d"/>
      <use x="210.888672" xlink:href="#HelveticaWorld-Regular-62"/>
      <use x="267.382812" xlink:href="#HelveticaWorld-Regular-65"/>
      <use x="322.802734" xlink:href="#HelveticaWorld-Regular-72"/>
      <use x="355.371094" xlink:href="#HelveticaWorld-Regular-20"/>
      <use x="379.785156" xlink:href="#HelveticaWorld-Regular-6f"/>
      <use x="435.693359" xlink:href="#HelveticaWorld-Regular-66"/>
      <use x="463.378906" xlink:href="#HelveticaWorld-Regular-20"/>
      <use x="482.792969" xlink:href="#HelveticaWorld-Regular-56"/>
      <use x="540.619141" xlink:href="#HelveticaWorld-Regular-6f"/>
      <use x="593.652344" xlink:href="#HelveticaWorld-Regular-78"/>
      <use x="640.402344" xlink:href="#HelveticaWorld-Regular-65"/>
      <use x="695.822266" xlink:href="#HelveticaWorld-Regular-6c"/>
      <use x="717.84375" xlink:href="#HelveticaWorld-Regular-73"/>
     </g>
    </g>
   </g>
   <g id="matplotlib.axis_2">
    <g id="ytick_1">
     <g id="text_10">
      <!-- 0.0 -->
      <g style="fill:#262626;" transform="translate(416.960233 558.049375)scale(0.28 -0.28)">
       <defs>
        <path d="M 1222 0 
L 556 0 
L 556 678 
L 1222 678 
L 1222 0 
z
" id="HelveticaWorld-Regular-2e" transform="scale(0.015625)"/>
       </defs>
       <use xlink:href="#HelveticaWorld-Regular-30"/>
       <use x="55.615234" xlink:href="#HelveticaWorld-Regular-2e"/>
       <use x="83.398438" xlink:href="#HelveticaWorld-Regular-30"/>
      </g>
     </g>
    </g>
    <g id="ytick_2">
     <g id="text_11">
      <!-- 0.1 -->
      <g style="fill:#262626;" transform="translate(416.960233 465.382708)scale(0.28 -0.28)">
       <use xlink:href="#HelveticaWorld-Regular-30"/>
       <use x="55.615234" xlink:href="#HelveticaWorld-Regular-2e"/>
       <use x="83.398438" xlink:href="#HelveticaWorld-Regular-31"/>
      </g>
     </g>
    </g>
    <g id="ytick_3">
     <g id="text_12">
      <!-- 0.2 -->
      <g style="fill:#262626;" transform="translate(416.960233 372.716042)scale(0.28 -0.28)">
       <use xlink:href="#HelveticaWorld-Regular-30"/>
       <use x="55.615234" xlink:href="#HelveticaWorld-Regular-2e"/>
       <use x="83.398438" xlink:href="#HelveticaWorld-Regular-32"/>
      </g>
     </g>
    </g>
    <g id="ytick_4">
     <g id="text_13">
      <!-- 0.3 -->
      <g style="fill:#262626;" transform="translate(416.960233 280.049375)scale(0.28 -0.28)">
       <use xlink:href="#HelveticaWorld-Regular-30"/>
       <use x="55.615234" xlink:href="#HelveticaWorld-Regular-2e"/>
       <use x="83.398438" xlink:href="#HelveticaWorld-Regular-33"/>
      </g>
     </g>
    </g>
    <g id="ytick_5">
     <g id="text_14">
      <!-- 0.4 -->
      <g style="fill:#262626;" transform="translate(416.960233 187.382708)scale(0.28 -0.28)">
       <use xlink:href="#HelveticaWorld-Regular-30"/>
       <use x="55.615234" xlink:href="#HelveticaWorld-Regular-2e"/>
       <use x="83.398438" xlink:href="#HelveticaWorld-Regular-34"/>
      </g>
     </g>
    </g>
    <g id="text_15">
     <!-- Classifier Information (a.u.) -->
     <g style="fill:#262626;" transform="translate(406.335233 528.865)rotate(-90)scale(0.32 -0.32)">
      <defs>
       <path d="M 3713 3213 
Q 3609 3681 3279 3923 
Q 2950 4166 2425 4166 
Q 1747 4166 1334 3673 
Q 922 3181 922 2344 
Q 922 1375 1312 901 
Q 1703 428 2444 428 
Q 2931 428 3282 751 
Q 3634 1075 3756 1691 
L 4359 1691 
Q 4238 806 3688 342 
Q 3138 -122 2350 -122 
Q 1409 -122 845 525 
Q 281 1172 281 2322 
Q 281 3431 870 4073 
Q 1459 4716 2425 4716 
Q 3225 4716 3722 4303 
Q 4219 3891 4313 3213 
L 3713 3213 
z
" id="HelveticaWorld-Regular-43" transform="scale(0.015625)"/>
       <path d="M 2456 1709 
Q 2394 1644 2211 1603 
Q 2028 1563 1528 1497 
Q 1159 1453 986 1315 
Q 813 1178 813 953 
Q 813 678 959 525 
Q 1106 372 1428 372 
Q 1831 372 2143 601 
Q 2456 831 2456 1159 
L 2456 1709 
z
M 397 2328 
Q 416 2894 764 3169 
Q 1113 3444 1778 3444 
Q 2309 3444 2668 3203 
Q 3028 2963 3028 2509 
L 3028 581 
Q 3028 384 3206 384 
Q 3278 384 3391 409 
L 3391 0 
Q 3238 -63 3072 -63 
Q 2784 -63 2643 60 
Q 2503 184 2497 447 
Q 2016 -97 1288 -97 
Q 813 -97 525 172 
Q 238 441 238 872 
Q 238 1313 488 1584 
Q 738 1856 1216 1913 
L 2209 2034 
Q 2478 2075 2478 2431 
Q 2478 2694 2283 2834 
Q 2088 2975 1691 2975 
Q 1338 2975 1148 2819 
Q 959 2663 922 2328 
L 397 2328 
z
" id="HelveticaWorld-Regular-61" transform="scale(0.015625)"/>
       <path d="M 422 3956 
L 422 4594 
L 984 4594 
L 984 3956 
L 422 3956 
z
M 984 0 
L 422 0 
L 422 3347 
L 984 3347 
L 984 0 
z
" id="HelveticaWorld-Regular-69" transform="scale(0.015625)"/>
       <path d="M 1141 0 
L 519 0 
L 519 4594 
L 1141 4594 
L 1141 0 
z
" id="HelveticaWorld-Regular-49" transform="scale(0.015625)"/>
       <path d="M 3150 0 
L 2584 0 
L 2584 2059 
Q 2584 2534 2418 2736 
Q 2253 2938 1869 2938 
Q 1491 2938 1237 2650 
Q 984 2363 984 1825 
L 984 0 
L 422 0 
L 422 3347 
L 953 3347 
L 953 2875 
L 966 2875 
Q 1363 3444 1978 3444 
Q 2547 3444 2848 3142 
Q 3150 2841 3150 2278 
L 3150 0 
z
" id="HelveticaWorld-Regular-6e" transform="scale(0.015625)"/>
       <path d="M 1100 2881 
L 1100 703 
Q 1100 575 1170 508 
Q 1241 441 1422 441 
L 1638 441 
L 1638 0 
Q 1331 -44 1216 -44 
Q 863 -44 700 125 
Q 538 294 538 672 
L 538 2881 
L 84 2881 
L 84 3347 
L 538 3347 
L 538 4281 
L 1100 4281 
L 1100 3347 
L 1638 3347 
L 1638 2881 
L 1100 2881 
z
" id="HelveticaWorld-Regular-74" transform="scale(0.015625)"/>
       <path d="M 1906 4691 
Q 1338 3675 1188 3037 
Q 1038 2400 1038 1631 
Q 1038 872 1242 215 
Q 1447 -441 1913 -1325 
L 1538 -1325 
Q 1006 -550 720 140 
Q 434 831 434 1672 
Q 434 2463 693 3180 
Q 953 3897 1516 4691 
L 1906 4691 
z
" id="HelveticaWorld-Regular-28" transform="scale(0.015625)"/>
       <path d="M 225 -1325 
Q 788 -306 938 330 
Q 1088 966 1088 1734 
Q 1088 2497 886 3153 
Q 684 3809 219 4691 
L 588 4691 
Q 1125 3916 1411 3225 
Q 1697 2534 1697 1697 
Q 1697 903 1437 186 
Q 1178 -531 616 -1325 
L 225 -1325 
z
" id="HelveticaWorld-Regular-29" transform="scale(0.015625)"/>
      </defs>
      <use xlink:href="#HelveticaWorld-Regular-43"/>
      <use x="72.314453" xlink:href="#HelveticaWorld-Regular-6c"/>
      <use x="94.335938" xlink:href="#HelveticaWorld-Regular-61"/>
      <use x="149.267578" xlink:href="#HelveticaWorld-Regular-73"/>
      <use x="199.267578" xlink:href="#HelveticaWorld-Regular-73"/>
      <use x="249.267578" xlink:href="#HelveticaWorld-Regular-69"/>
      <use x="271.289062" xlink:href="#HelveticaWorld-Regular-66"/>
      <use x="298.974609" xlink:href="#HelveticaWorld-Regular-69"/>
      <use x="320.996094" xlink:href="#HelveticaWorld-Regular-65"/>
      <use x="376.416016" xlink:href="#HelveticaWorld-Regular-72"/>
      <use x="408.984375" xlink:href="#HelveticaWorld-Regular-20"/>
      <use x="433.398438" xlink:href="#HelveticaWorld-Regular-49"/>
      <use x="459.179688" xlink:href="#HelveticaWorld-Regular-6e"/>
      <use x="514.355469" xlink:href="#HelveticaWorld-Regular-66"/>
      <use x="540.041016" xlink:href="#HelveticaWorld-Regular-6f"/>
      <use x="595.949219" xlink:href="#HelveticaWorld-Regular-72"/>
      <use x="628.517578" xlink:href="#HelveticaWorld-Regular-6d"/>
      <use x="711.525391" xlink:href="#HelveticaWorld-Regular-61"/>
      <use x="766.457031" xlink:href="#HelveticaWorld-Regular-74"/>
      <use x="794.142578" xlink:href="#HelveticaWorld-Regular-69"/>
      <use x="816.164062" xlink:href="#HelveticaWorld-Regular-6f"/>
      <use x="872.072266" xlink:href="#HelveticaWorld-Regular-6e"/>
      <use x="927.248047" xlink:href="#HelveticaWorld-Regular-20"/>
      <use x="951.662109" xlink:href="#HelveticaWorld-Regular-28"/>
      <use x="984.962891" xlink:href="#HelveticaWorld-Regular-61"/>
      <use x="1039.894531" xlink:href="#HelveticaWorld-Regular-2e"/>
      <use x="1067.677734" xlink:href="#HelveticaWorld-Regular-75"/>
      <use x="1122.462891" xlink:href="#HelveticaWorld-Regular-2e"/>
      <use x="1150.246094" xlink:href="#HelveticaWorld-Regular-29"/>
     </g>
    </g>
   </g>
   <g id="PolyCollection_1">
    <defs>
     <path d="M 481.167554 -415.193538 
L 481.167554 -373.394496 
L 496.665284 -405.323304 
L 512.163014 -414.69825 
L 527.660743 -425.398676 
L 543.158473 -429.572403 
L 558.656203 -433.672714 
L 574.153933 -437.435927 
L 589.651663 -436.932591 
L 605.149392 -433.800325 
L 620.647122 -435.228344 
L 636.144852 -434.353283 
L 651.642582 -433.325434 
L 667.140311 -430.115579 
L 682.638041 -432.127743 
L 698.135771 -428.093547 
L 713.633501 -427.414214 
L 729.131231 -424.972131 
L 744.62896 -421.095928 
L 760.12669 -417.729275 
L 775.62442 -415.048275 
L 791.12215 -412.881049 
L 806.619879 -410.686636 
L 822.117609 -406.596512 
L 837.615339 -404.771568 
L 853.113069 -404.389821 
L 868.610798 -401.752257 
L 884.108528 -401.322539 
L 899.606258 -398.098058 
L 915.103988 -394.341837 
L 930.601718 -395.350269 
L 946.099447 -391.771211 
L 961.597177 -390.653468 
L 977.094907 -384.516542 
L 992.592637 -385.025628 
L 1008.090366 -381.207174 
L 1023.588096 -380.608998 
L 1039.085826 -376.345623 
L 1054.583556 -374.565259 
L 1070.081286 -370.875897 
L 1085.579015 -369.514088 
L 1101.076745 -369.646141 
L 1116.574475 -366.692945 
L 1132.072205 -366.023753 
L 1147.569934 -362.601614 
L 1163.067664 -360.940795 
L 1178.565394 -359.546264 
L 1194.063124 -357.59555 
L 1209.560854 -356.175198 
L 1225.058583 -352.858253 
L 1240.556313 -349.586397 
L 1256.054043 -350.318787 
L 1271.551773 -347.823388 
L 1287.049502 -346.53572 
L 1302.547232 -344.801547 
L 1318.044962 -343.60501 
L 1333.542692 -342.564891 
L 1349.040421 -340.674444 
L 1364.538151 -339.954729 
L 1380.035881 -339.588525 
L 1395.533611 -335.559975 
L 1395.533611 -374.653346 
L 1395.533611 -374.653346 
L 1380.035881 -375.996582 
L 1364.538151 -375.146942 
L 1349.040421 -377.643286 
L 1333.542692 -379.158388 
L 1318.044962 -379.094956 
L 1302.547232 -382.904204 
L 1287.049502 -383.808862 
L 1271.551773 -387.094019 
L 1256.054043 -387.688396 
L 1240.556313 -390.246632 
L 1225.058583 -390.137601 
L 1209.560854 -391.96473 
L 1194.063124 -393.888581 
L 1178.565394 -397.923163 
L 1163.067664 -400.136965 
L 1147.569934 -399.678164 
L 1132.072205 -403.082212 
L 1116.574475 -405.285866 
L 1101.076745 -406.007141 
L 1085.579015 -407.378304 
L 1070.081286 -410.836086 
L 1054.583556 -414.255977 
L 1039.085826 -414.946922 
L 1023.588096 -418.780223 
L 1008.090366 -420.787912 
L 992.592637 -424.857594 
L 977.094907 -425.530268 
L 961.597177 -429.49629 
L 946.099447 -432.182082 
L 930.601718 -434.839935 
L 915.103988 -433.989875 
L 899.606258 -437.224411 
L 884.108528 -440.784843 
L 868.610798 -442.651219 
L 853.113069 -444.153925 
L 837.615339 -444.342952 
L 822.117609 -447.649038 
L 806.619879 -450.950851 
L 791.12215 -453.514801 
L 775.62442 -454.825923 
L 760.12669 -459.37146 
L 744.62896 -462.815496 
L 729.131231 -465.585122 
L 713.633501 -468.08349 
L 698.135771 -469.742649 
L 682.638041 -470.56877 
L 667.140311 -471.420575 
L 651.642582 -472.833539 
L 636.144852 -476.505316 
L 620.647122 -477.742711 
L 605.149392 -479.059032 
L 589.651663 -480.623077 
L 574.153933 -482.948059 
L 558.656203 -480.541738 
L 543.158473 -476.879207 
L 527.660743 -470.397593 
L 512.163014 -462.636241 
L 496.665284 -451.565928 
L 481.167554 -415.193538 
z
" id="m3ce2689ce8" style="stroke:#1b9e77;stroke-opacity:0.2;"/>
    </defs>
    <g clip-path="url(#p08dbf5211e)">
     <use style="fill:#1b9e77;fill-opacity:0.2;stroke:#1b9e77;stroke-opacity:0.2;" x="0" xlink:href="#m3ce2689ce8" y="720"/>
    </g>
   </g>
   <g id="PolyCollection_2">
    <defs>
     <path d="M 481.167554 -388.53174 
L 481.167554 -350.07244 
L 496.665284 -400.305298 
L 512.163014 -402.760399 
L 527.660743 -406.580191 
L 543.158473 -409.052481 
L 558.656203 -415.986005 
L 574.153933 -415.769423 
L 589.651663 -415.320506 
L 605.149392 -412.266514 
L 620.647122 -413.444595 
L 636.144852 -412.094519 
L 651.642582 -413.881131 
L 667.140311 -411.5999 
L 682.638041 -409.234607 
L 698.135771 -411.288014 
L 713.633501 -408.079785 
L 729.131231 -409.870624 
L 744.62896 -407.109795 
L 760.12669 -403.327903 
L 775.62442 -402.241018 
L 791.12215 -400.287851 
L 806.619879 -399.57624 
L 822.117609 -397.896065 
L 837.615339 -395.785985 
L 853.113069 -395.895286 
L 868.610798 -396.380664 
L 884.108528 -393.499301 
L 899.606258 -392.824339 
L 915.103988 -391.019001 
L 930.601718 -385.695757 
L 946.099447 -385.884251 
L 961.597177 -382.510265 
L 977.094907 -382.261201 
L 992.592637 -383.682518 
L 1008.090366 -376.767759 
L 1023.588096 -375.523884 
L 1039.085826 -375.757781 
L 1054.583556 -374.799247 
L 1070.081286 -372.829847 
L 1085.579015 -368.957167 
L 1101.076745 -368.705406 
L 1116.574475 -368.143925 
L 1132.072205 -368.220332 
L 1147.569934 -363.235032 
L 1163.067664 -362.774324 
L 1178.565394 -362.770958 
L 1194.063124 -360.114002 
L 1209.560854 -359.18777 
L 1225.058583 -356.862051 
L 1240.556313 -354.517615 
L 1256.054043 -351.917419 
L 1271.551773 -350.778724 
L 1287.049502 -348.138472 
L 1302.547232 -349.72746 
L 1318.044962 -346.656998 
L 1333.542692 -346.946018 
L 1349.040421 -347.428711 
L 1364.538151 -346.272635 
L 1380.035881 -344.595123 
L 1395.533611 -341.910296 
L 1395.533611 -384.654228 
L 1395.533611 -384.654228 
L 1380.035881 -386.943532 
L 1364.538151 -388.108816 
L 1349.040421 -388.553478 
L 1333.542692 -387.917567 
L 1318.044962 -389.755654 
L 1302.547232 -390.892558 
L 1287.049502 -392.113436 
L 1271.551773 -394.312696 
L 1256.054043 -395.360523 
L 1240.556313 -398.062234 
L 1225.058583 -400.363797 
L 1209.560854 -402.957424 
L 1194.063124 -403.782996 
L 1178.565394 -406.755497 
L 1163.067664 -408.311663 
L 1147.569934 -408.043284 
L 1132.072205 -410.217146 
L 1116.574475 -411.948545 
L 1101.076745 -413.540207 
L 1085.579015 -415.691569 
L 1070.081286 -416.888544 
L 1054.583556 -417.273996 
L 1039.085826 -420.491095 
L 1023.588096 -420.502423 
L 1008.090366 -422.063689 
L 992.592637 -426.39382 
L 977.094907 -427.333672 
L 961.597177 -427.285836 
L 946.099447 -428.265056 
L 930.601718 -431.482971 
L 915.103988 -436.958914 
L 899.606258 -437.21865 
L 884.108528 -441.746122 
L 868.610798 -441.886014 
L 853.113069 -439.948025 
L 837.615339 -442.117855 
L 822.117609 -445.312268 
L 806.619879 -444.120459 
L 791.12215 -448.413651 
L 775.62442 -449.178013 
L 760.12669 -451.59161 
L 744.62896 -456.238149 
L 729.131231 -456.406274 
L 713.633501 -456.603841 
L 698.135771 -455.785012 
L 682.638041 -456.974454 
L 667.140311 -458.769022 
L 651.642582 -459.24042 
L 636.144852 -458.552463 
L 620.647122 -456.949856 
L 605.149392 -457.137459 
L 589.651663 -459.457273 
L 574.153933 -457.535072 
L 558.656203 -456.922704 
L 543.158473 -449.957562 
L 527.660743 -444.525215 
L 512.163014 -441.08774 
L 496.665284 -433.443001 
L 481.167554 -388.53174 
z
" id="m6d62472365" style="stroke:#d95f02;stroke-opacity:0.2;"/>
    </defs>
    <g clip-path="url(#p08dbf5211e)">
     <use style="fill:#d95f02;fill-opacity:0.2;stroke:#d95f02;stroke-opacity:0.2;" x="0" xlink:href="#m6d62472365" y="720"/>
    </g>
   </g>
   <g id="line2d_1">
    <path clip-path="url(#p08dbf5211e)" d="M 481.167554 326.754261 
L 496.665284 293.312824 
L 512.163014 279.836061 
L 527.660743 270.760438 
L 543.158473 266.397794 
L 558.656203 262.494424 
L 574.153933 260.528491 
L 589.651663 262.772861 
L 605.149392 263.37701 
L 620.647122 263.930376 
L 636.144852 265.233443 
L 651.642582 265.883748 
L 667.140311 268.249499 
L 682.638041 269.188813 
L 698.135771 270.867179 
L 713.633501 272.968489 
L 729.131231 275.453533 
L 744.62896 277.858298 
L 760.12669 281.695984 
L 775.62442 284.58181 
L 791.12215 287.166604 
L 806.619879 290.121858 
L 822.117609 292.246879 
L 837.615339 293.897458 
L 853.113069 295.77871 
L 868.610798 297.441695 
L 884.108528 299.365672 
L 899.606258 302.670867 
L 915.103988 305.016262 
L 930.601718 305.842871 
L 946.099447 308.148146 
L 961.597177 310.655583 
L 977.094907 313.530519 
L 992.592637 315.711266 
L 1008.090366 318.163635 
L 1023.588096 321.155608 
L 1039.085826 323.737905 
L 1054.583556 325.789642 
L 1070.081286 328.49371 
L 1085.579015 330.634617 
L 1101.076745 332.894805 
L 1116.574475 334.297712 
L 1132.072205 336.345475 
L 1147.569934 338.615828 
L 1163.067664 340.097191 
L 1178.565394 341.841652 
L 1194.063124 343.373227 
L 1209.560854 346.39247 
L 1225.058583 347.94916 
L 1240.556313 350.238956 
L 1256.054043 351.429228 
L 1271.551773 352.774681 
L 1287.049502 354.617191 
L 1302.547232 356.385496 
L 1318.044962 357.907155 
L 1333.542692 359.654642 
L 1349.040421 360.993845 
L 1364.538151 362.771091 
L 1380.035881 363.802864 
L 1395.533611 365.136988 
" style="fill:none;stroke:#1b9e77;stroke-linecap:round;stroke-width:1.5;"/>
    <defs>
     <path d="M 0 5 
C 1.326016 5 2.597899 4.473168 3.535534 3.535534 
C 4.473168 2.597899 5 1.326016 5 0 
C 5 -1.326016 4.473168 -2.597899 3.535534 -3.535534 
C 2.597899 -4.473168 1.326016 -5 0 -5 
C -1.326016 -5 -2.597899 -4.473168 -3.535534 -3.535534 
C -4.473168 -2.597899 -5 -1.326016 -5 0 
C -5 1.326016 -4.473168 2.597899 -3.535534 3.535534 
C -2.597899 4.473168 -1.326016 5 0 5 
z
" id="m359bf11517" style="stroke:#000000;stroke-opacity:0;stroke-width:0.75;"/>
    </defs>
    <g clip-path="url(#p08dbf5211e)">
     <use style="fill:#1b9e77;stroke:#000000;stroke-opacity:0;stroke-width:0.75;" x="481.167554" xlink:href="#m359bf11517" y="326.754261"/>
     <use style="fill:#1b9e77;stroke:#000000;stroke-opacity:0;stroke-width:0.75;" x="496.665284" xlink:href="#m359bf11517" y="293.312824"/>
     <use style="fill:#1b9e77;stroke:#000000;stroke-opacity:0;stroke-width:0.75;" x="512.163014" xlink:href="#m359bf11517" y="279.836061"/>
     <use style="fill:#1b9e77;stroke:#000000;stroke-opacity:0;stroke-width:0.75;" x="527.660743" xlink:href="#m359bf11517" y="270.760438"/>
     <use style="fill:#1b9e77;stroke:#000000;stroke-opacity:0;stroke-width:0.75;" x="543.158473" xlink:href="#m359bf11517" y="266.397794"/>
     <use style="fill:#1b9e77;stroke:#000000;stroke-opacity:0;stroke-width:0.75;" x="558.656203" xlink:href="#m359bf11517" y="262.494424"/>
     <use style="fill:#1b9e77;stroke:#000000;stroke-opacity:0;stroke-width:0.75;" x="574.153933" xlink:href="#m359bf11517" y="260.528491"/>
     <use style="fill:#1b9e77;stroke:#000000;stroke-opacity:0;stroke-width:0.75;" x="589.651663" xlink:href="#m359bf11517" y="262.772861"/>
     <use style="fill:#1b9e77;stroke:#000000;stroke-opacity:0;stroke-width:0.75;" x="605.149392" xlink:href="#m359bf11517" y="263.37701"/>
     <use style="fill:#1b9e77;stroke:#000000;stroke-opacity:0;stroke-width:0.75;" x="620.647122" xlink:href="#m359bf11517" y="263.930376"/>
     <use style="fill:#1b9e77;stroke:#000000;stroke-opacity:0;stroke-width:0.75;" x="636.144852" xlink:href="#m359bf11517" y="265.233443"/>
     <use style="fill:#1b9e77;stroke:#000000;stroke-opacity:0;stroke-width:0.75;" x="651.642582" xlink:href="#m359bf11517" y="265.883748"/>
     <use style="fill:#1b9e77;stroke:#000000;stroke-opacity:0;stroke-width:0.75;" x="667.140311" xlink:href="#m359bf11517" y="268.249499"/>
     <use style="fill:#1b9e77;stroke:#000000;stroke-opacity:0;stroke-width:0.75;" x="682.638041" xlink:href="#m359bf11517" y="269.188813"/>
     <use style="fill:#1b9e77;stroke:#000000;stroke-opacity:0;stroke-width:0.75;" x="698.135771" xlink:href="#m359bf11517" y="270.867179"/>
     <use style="fill:#1b9e77;stroke:#000000;stroke-opacity:0;stroke-width:0.75;" x="713.633501" xlink:href="#m359bf11517" y="272.968489"/>
     <use style="fill:#1b9e77;stroke:#000000;stroke-opacity:0;stroke-width:0.75;" x="729.131231" xlink:href="#m359bf11517" y="275.453533"/>
     <use style="fill:#1b9e77;stroke:#000000;stroke-opacity:0;stroke-width:0.75;" x="744.62896" xlink:href="#m359bf11517" y="277.858298"/>
     <use style="fill:#1b9e77;stroke:#000000;stroke-opacity:0;stroke-width:0.75;" x="760.12669" xlink:href="#m359bf11517" y="281.695984"/>
     <use style="fill:#1b9e77;stroke:#000000;stroke-opacity:0;stroke-width:0.75;" x="775.62442" xlink:href="#m359bf11517" y="284.58181"/>
     <use style="fill:#1b9e77;stroke:#000000;stroke-opacity:0;stroke-width:0.75;" x="791.12215" xlink:href="#m359bf11517" y="287.166604"/>
     <use style="fill:#1b9e77;stroke:#000000;stroke-opacity:0;stroke-width:0.75;" x="806.619879" xlink:href="#m359bf11517" y="290.121858"/>
     <use style="fill:#1b9e77;stroke:#000000;stroke-opacity:0;stroke-width:0.75;" x="822.117609" xlink:href="#m359bf11517" y="292.246879"/>
     <use style="fill:#1b9e77;stroke:#000000;stroke-opacity:0;stroke-width:0.75;" x="837.615339" xlink:href="#m359bf11517" y="293.897458"/>
     <use style="fill:#1b9e77;stroke:#000000;stroke-opacity:0;stroke-width:0.75;" x="853.113069" xlink:href="#m359bf11517" y="295.77871"/>
     <use style="fill:#1b9e77;stroke:#000000;stroke-opacity:0;stroke-width:0.75;" x="868.610798" xlink:href="#m359bf11517" y="297.441695"/>
     <use style="fill:#1b9e77;stroke:#000000;stroke-opacity:0;stroke-width:0.75;" x="884.108528" xlink:href="#m359bf11517" y="299.365672"/>
     <use style="fill:#1b9e77;stroke:#000000;stroke-opacity:0;stroke-width:0.75;" x="899.606258" xlink:href="#m359bf11517" y="302.670867"/>
     <use style="fill:#1b9e77;stroke:#000000;stroke-opacity:0;stroke-width:0.75;" x="915.103988" xlink:href="#m359bf11517" y="305.016262"/>
     <use style="fill:#1b9e77;stroke:#000000;stroke-opacity:0;stroke-width:0.75;" x="930.601718" xlink:href="#m359bf11517" y="305.842871"/>
     <use style="fill:#1b9e77;stroke:#000000;stroke-opacity:0;stroke-width:0.75;" x="946.099447" xlink:href="#m359bf11517" y="308.148146"/>
     <use style="fill:#1b9e77;stroke:#000000;stroke-opacity:0;stroke-width:0.75;" x="961.597177" xlink:href="#m359bf11517" y="310.655583"/>
     <use style="fill:#1b9e77;stroke:#000000;stroke-opacity:0;stroke-width:0.75;" x="977.094907" xlink:href="#m359bf11517" y="313.530519"/>
     <use style="fill:#1b9e77;stroke:#000000;stroke-opacity:0;stroke-width:0.75;" x="992.592637" xlink:href="#m359bf11517" y="315.711266"/>
     <use style="fill:#1b9e77;stroke:#000000;stroke-opacity:0;stroke-width:0.75;" x="1008.090366" xlink:href="#m359bf11517" y="318.163635"/>
     <use style="fill:#1b9e77;stroke:#000000;stroke-opacity:0;stroke-width:0.75;" x="1023.588096" xlink:href="#m359bf11517" y="321.155608"/>
     <use style="fill:#1b9e77;stroke:#000000;stroke-opacity:0;stroke-width:0.75;" x="1039.085826" xlink:href="#m359bf11517" y="323.737905"/>
     <use style="fill:#1b9e77;stroke:#000000;stroke-opacity:0;stroke-width:0.75;" x="1054.583556" xlink:href="#m359bf11517" y="325.789642"/>
     <use style="fill:#1b9e77;stroke:#000000;stroke-opacity:0;stroke-width:0.75;" x="1070.081286" xlink:href="#m359bf11517" y="328.49371"/>
     <use style="fill:#1b9e77;stroke:#000000;stroke-opacity:0;stroke-width:0.75;" x="1085.579015" xlink:href="#m359bf11517" y="330.634617"/>
     <use style="fill:#1b9e77;stroke:#000000;stroke-opacity:0;stroke-width:0.75;" x="1101.076745" xlink:href="#m359bf11517" y="332.894805"/>
     <use style="fill:#1b9e77;stroke:#000000;stroke-opacity:0;stroke-width:0.75;" x="1116.574475" xlink:href="#m359bf11517" y="334.297712"/>
     <use style="fill:#1b9e77;stroke:#000000;stroke-opacity:0;stroke-width:0.75;" x="1132.072205" xlink:href="#m359bf11517" y="336.345475"/>
     <use style="fill:#1b9e77;stroke:#000000;stroke-opacity:0;stroke-width:0.75;" x="1147.569934" xlink:href="#m359bf11517" y="338.615828"/>
     <use style="fill:#1b9e77;stroke:#000000;stroke-opacity:0;stroke-width:0.75;" x="1163.067664" xlink:href="#m359bf11517" y="340.097191"/>
     <use style="fill:#1b9e77;stroke:#000000;stroke-opacity:0;stroke-width:0.75;" x="1178.565394" xlink:href="#m359bf11517" y="341.841652"/>
     <use style="fill:#1b9e77;stroke:#000000;stroke-opacity:0;stroke-width:0.75;" x="1194.063124" xlink:href="#m359bf11517" y="343.373227"/>
     <use style="fill:#1b9e77;stroke:#000000;stroke-opacity:0;stroke-width:0.75;" x="1209.560854" xlink:href="#m359bf11517" y="346.39247"/>
     <use style="fill:#1b9e77;stroke:#000000;stroke-opacity:0;stroke-width:0.75;" x="1225.058583" xlink:href="#m359bf11517" y="347.94916"/>
     <use style="fill:#1b9e77;stroke:#000000;stroke-opacity:0;stroke-width:0.75;" x="1240.556313" xlink:href="#m359bf11517" y="350.238956"/>
     <use style="fill:#1b9e77;stroke:#000000;stroke-opacity:0;stroke-width:0.75;" x="1256.054043" xlink:href="#m359bf11517" y="351.429228"/>
     <use style="fill:#1b9e77;stroke:#000000;stroke-opacity:0;stroke-width:0.75;" x="1271.551773" xlink:href="#m359bf11517" y="352.774681"/>
     <use style="fill:#1b9e77;stroke:#000000;stroke-opacity:0;stroke-width:0.75;" x="1287.049502" xlink:href="#m359bf11517" y="354.617191"/>
     <use style="fill:#1b9e77;stroke:#000000;stroke-opacity:0;stroke-width:0.75;" x="1302.547232" xlink:href="#m359bf11517" y="356.385496"/>
     <use style="fill:#1b9e77;stroke:#000000;stroke-opacity:0;stroke-width:0.75;" x="1318.044962" xlink:href="#m359bf11517" y="357.907155"/>
     <use style="fill:#1b9e77;stroke:#000000;stroke-opacity:0;stroke-width:0.75;" x="1333.542692" xlink:href="#m359bf11517" y="359.654642"/>
     <use style="fill:#1b9e77;stroke:#000000;stroke-opacity:0;stroke-width:0.75;" x="1349.040421" xlink:href="#m359bf11517" y="360.993845"/>
     <use style="fill:#1b9e77;stroke:#000000;stroke-opacity:0;stroke-width:0.75;" x="1364.538151" xlink:href="#m359bf11517" y="362.771091"/>
     <use style="fill:#1b9e77;stroke:#000000;stroke-opacity:0;stroke-width:0.75;" x="1380.035881" xlink:href="#m359bf11517" y="363.802864"/>
     <use style="fill:#1b9e77;stroke:#000000;stroke-opacity:0;stroke-width:0.75;" x="1395.533611" xlink:href="#m359bf11517" y="365.136988"/>
    </g>
   </g>
   <g id="line2d_2">
    <path clip-path="url(#p08dbf5211e)" d="M 481.167554 350.839247 
L 496.665284 302.361289 
L 512.163014 298.178299 
L 527.660743 294.170125 
L 543.158473 290.699212 
L 558.656203 284.841202 
L 574.153933 283.040047 
L 589.651663 283.022692 
L 605.149392 286.085177 
L 620.647122 286.389699 
L 636.144852 285.888563 
L 651.642582 283.345024 
L 667.140311 284.939087 
L 682.638041 285.459083 
L 698.135771 285.907098 
L 713.633501 286.746595 
L 729.131231 288.208878 
L 744.62896 290.124398 
L 760.12669 291.502984 
L 775.62442 294.707936 
L 791.12215 296.79477 
L 806.619879 298.661147 
L 822.117609 298.311742 
L 837.615339 300.868255 
L 853.113069 301.35362 
L 868.610798 302.156504 
L 884.108528 302.486266 
L 899.606258 304.689179 
L 915.103988 307.482701 
L 930.601718 310.489583 
L 946.099447 312.519054 
L 961.597177 314.191661 
L 977.094907 315.430735 
L 992.592637 317.051956 
L 1008.090366 319.394965 
L 1023.588096 321.716661 
L 1039.085826 322.498631 
L 1054.583556 323.856594 
L 1070.081286 325.146855 
L 1085.579015 326.567107 
L 1101.076745 328.966614 
L 1116.574475 330.557983 
L 1132.072205 331.417189 
L 1147.569934 334.064449 
L 1163.067664 335.110167 
L 1178.565394 336.750112 
L 1194.063124 338.44849 
L 1209.560854 339.377965 
L 1225.058583 341.925293 
L 1240.556313 343.747513 
L 1256.054043 345.92942 
L 1271.551773 347.375386 
L 1287.049502 348.651396 
L 1302.547232 349.54343 
L 1318.044962 351.754971 
L 1333.542692 352.020649 
L 1349.040421 352.035426 
L 1364.538151 353.952056 
L 1380.035881 355.936051 
L 1395.533611 357.80901 
" style="fill:none;stroke:#d95f02;stroke-linecap:round;stroke-width:1.5;"/>
    <defs>
     <path d="M 0 5 
C 1.326016 5 2.597899 4.473168 3.535534 3.535534 
C 4.473168 2.597899 5 1.326016 5 0 
C 5 -1.326016 4.473168 -2.597899 3.535534 -3.535534 
C 2.597899 -4.473168 1.326016 -5 0 -5 
C -1.326016 -5 -2.597899 -4.473168 -3.535534 -3.535534 
C -4.473168 -2.597899 -5 -1.326016 -5 0 
C -5 1.326016 -4.473168 2.597899 -3.535534 3.535534 
C -2.597899 4.473168 -1.326016 5 0 5 
z
" id="m195f527b28" style="stroke:#000000;stroke-opacity:0;stroke-width:0.75;"/>
    </defs>
    <g clip-path="url(#p08dbf5211e)">
     <use style="fill:#d95f02;stroke:#000000;stroke-opacity:0;stroke-width:0.75;" x="481.167554" xlink:href="#m195f527b28" y="350.839247"/>
     <use style="fill:#d95f02;stroke:#000000;stroke-opacity:0;stroke-width:0.75;" x="496.665284" xlink:href="#m195f527b28" y="302.361289"/>
     <use style="fill:#d95f02;stroke:#000000;stroke-opacity:0;stroke-width:0.75;" x="512.163014" xlink:href="#m195f527b28" y="298.178299"/>
     <use style="fill:#d95f02;stroke:#000000;stroke-opacity:0;stroke-width:0.75;" x="527.660743" xlink:href="#m195f527b28" y="294.170125"/>
     <use style="fill:#d95f02;stroke:#000000;stroke-opacity:0;stroke-width:0.75;" x="543.158473" xlink:href="#m195f527b28" y="290.699212"/>
     <use style="fill:#d95f02;stroke:#000000;stroke-opacity:0;stroke-width:0.75;" x="558.656203" xlink:href="#m195f527b28" y="284.841202"/>
     <use style="fill:#d95f02;stroke:#000000;stroke-opacity:0;stroke-width:0.75;" x="574.153933" xlink:href="#m195f527b28" y="283.040047"/>
     <use style="fill:#d95f02;stroke:#000000;stroke-opacity:0;stroke-width:0.75;" x="589.651663" xlink:href="#m195f527b28" y="283.022692"/>
     <use style="fill:#d95f02;stroke:#000000;stroke-opacity:0;stroke-width:0.75;" x="605.149392" xlink:href="#m195f527b28" y="286.085177"/>
     <use style="fill:#d95f02;stroke:#000000;stroke-opacity:0;stroke-width:0.75;" x="620.647122" xlink:href="#m195f527b28" y="286.389699"/>
     <use style="fill:#d95f02;stroke:#000000;stroke-opacity:0;stroke-width:0.75;" x="636.144852" xlink:href="#m195f527b28" y="285.888563"/>
     <use style="fill:#d95f02;stroke:#000000;stroke-opacity:0;stroke-width:0.75;" x="651.642582" xlink:href="#m195f527b28" y="283.345024"/>
     <use style="fill:#d95f02;stroke:#000000;stroke-opacity:0;stroke-width:0.75;" x="667.140311" xlink:href="#m195f527b28" y="284.939087"/>
     <use style="fill:#d95f02;stroke:#000000;stroke-opacity:0;stroke-width:0.75;" x="682.638041" xlink:href="#m195f527b28" y="285.459083"/>
     <use style="fill:#d95f02;stroke:#000000;stroke-opacity:0;stroke-width:0.75;" x="698.135771" xlink:href="#m195f527b28" y="285.907098"/>
     <use style="fill:#d95f02;stroke:#000000;stroke-opacity:0;stroke-width:0.75;" x="713.633501" xlink:href="#m195f527b28" y="286.746595"/>
     <use style="fill:#d95f02;stroke:#000000;stroke-opacity:0;stroke-width:0.75;" x="729.131231" xlink:href="#m195f527b28" y="288.208878"/>
     <use style="fill:#d95f02;stroke:#000000;stroke-opacity:0;stroke-width:0.75;" x="744.62896" xlink:href="#m195f527b28" y="290.124398"/>
     <use style="fill:#d95f02;stroke:#000000;stroke-opacity:0;stroke-width:0.75;" x="760.12669" xlink:href="#m195f527b28" y="291.502984"/>
     <use style="fill:#d95f02;stroke:#000000;stroke-opacity:0;stroke-width:0.75;" x="775.62442" xlink:href="#m195f527b28" y="294.707936"/>
     <use style="fill:#d95f02;stroke:#000000;stroke-opacity:0;stroke-width:0.75;" x="791.12215" xlink:href="#m195f527b28" y="296.79477"/>
     <use style="fill:#d95f02;stroke:#000000;stroke-opacity:0;stroke-width:0.75;" x="806.619879" xlink:href="#m195f527b28" y="298.661147"/>
     <use style="fill:#d95f02;stroke:#000000;stroke-opacity:0;stroke-width:0.75;" x="822.117609" xlink:href="#m195f527b28" y="298.311742"/>
     <use style="fill:#d95f02;stroke:#000000;stroke-opacity:0;stroke-width:0.75;" x="837.615339" xlink:href="#m195f527b28" y="300.868255"/>
     <use style="fill:#d95f02;stroke:#000000;stroke-opacity:0;stroke-width:0.75;" x="853.113069" xlink:href="#m195f527b28" y="301.35362"/>
     <use style="fill:#d95f02;stroke:#000000;stroke-opacity:0;stroke-width:0.75;" x="868.610798" xlink:href="#m195f527b28" y="302.156504"/>
     <use style="fill:#d95f02;stroke:#000000;stroke-opacity:0;stroke-width:0.75;" x="884.108528" xlink:href="#m195f527b28" y="302.486266"/>
     <use style="fill:#d95f02;stroke:#000000;stroke-opacity:0;stroke-width:0.75;" x="899.606258" xlink:href="#m195f527b28" y="304.689179"/>
     <use style="fill:#d95f02;stroke:#000000;stroke-opacity:0;stroke-width:0.75;" x="915.103988" xlink:href="#m195f527b28" y="307.482701"/>
     <use style="fill:#d95f02;stroke:#000000;stroke-opacity:0;stroke-width:0.75;" x="930.601718" xlink:href="#m195f527b28" y="310.489583"/>
     <use style="fill:#d95f02;stroke:#000000;stroke-opacity:0;stroke-width:0.75;" x="946.099447" xlink:href="#m195f527b28" y="312.519054"/>
     <use style="fill:#d95f02;stroke:#000000;stroke-opacity:0;stroke-width:0.75;" x="961.597177" xlink:href="#m195f527b28" y="314.191661"/>
     <use style="fill:#d95f02;stroke:#000000;stroke-opacity:0;stroke-width:0.75;" x="977.094907" xlink:href="#m195f527b28" y="315.430735"/>
     <use style="fill:#d95f02;stroke:#000000;stroke-opacity:0;stroke-width:0.75;" x="992.592637" xlink:href="#m195f527b28" y="317.051956"/>
     <use style="fill:#d95f02;stroke:#000000;stroke-opacity:0;stroke-width:0.75;" x="1008.090366" xlink:href="#m195f527b28" y="319.394965"/>
     <use style="fill:#d95f02;stroke:#000000;stroke-opacity:0;stroke-width:0.75;" x="1023.588096" xlink:href="#m195f527b28" y="321.716661"/>
     <use style="fill:#d95f02;stroke:#000000;stroke-opacity:0;stroke-width:0.75;" x="1039.085826" xlink:href="#m195f527b28" y="322.498631"/>
     <use style="fill:#d95f02;stroke:#000000;stroke-opacity:0;stroke-width:0.75;" x="1054.583556" xlink:href="#m195f527b28" y="323.856594"/>
     <use style="fill:#d95f02;stroke:#000000;stroke-opacity:0;stroke-width:0.75;" x="1070.081286" xlink:href="#m195f527b28" y="325.146855"/>
     <use style="fill:#d95f02;stroke:#000000;stroke-opacity:0;stroke-width:0.75;" x="1085.579015" xlink:href="#m195f527b28" y="326.567107"/>
     <use style="fill:#d95f02;stroke:#000000;stroke-opacity:0;stroke-width:0.75;" x="1101.076745" xlink:href="#m195f527b28" y="328.966614"/>
     <use style="fill:#d95f02;stroke:#000000;stroke-opacity:0;stroke-width:0.75;" x="1116.574475" xlink:href="#m195f527b28" y="330.557983"/>
     <use style="fill:#d95f02;stroke:#000000;stroke-opacity:0;stroke-width:0.75;" x="1132.072205" xlink:href="#m195f527b28" y="331.417189"/>
     <use style="fill:#d95f02;stroke:#000000;stroke-opacity:0;stroke-width:0.75;" x="1147.569934" xlink:href="#m195f527b28" y="334.064449"/>
     <use style="fill:#d95f02;stroke:#000000;stroke-opacity:0;stroke-width:0.75;" x="1163.067664" xlink:href="#m195f527b28" y="335.110167"/>
     <use style="fill:#d95f02;stroke:#000000;stroke-opacity:0;stroke-width:0.75;" x="1178.565394" xlink:href="#m195f527b28" y="336.750112"/>
     <use style="fill:#d95f02;stroke:#000000;stroke-opacity:0;stroke-width:0.75;" x="1194.063124" xlink:href="#m195f527b28" y="338.44849"/>
     <use style="fill:#d95f02;stroke:#000000;stroke-opacity:0;stroke-width:0.75;" x="1209.560854" xlink:href="#m195f527b28" y="339.377965"/>
     <use style="fill:#d95f02;stroke:#000000;stroke-opacity:0;stroke-width:0.75;" x="1225.058583" xlink:href="#m195f527b28" y="341.925293"/>
     <use style="fill:#d95f02;stroke:#000000;stroke-opacity:0;stroke-width:0.75;" x="1240.556313" xlink:href="#m195f527b28" y="343.747513"/>
     <use style="fill:#d95f02;stroke:#000000;stroke-opacity:0;stroke-width:0.75;" x="1256.054043" xlink:href="#m195f527b28" y="345.92942"/>
     <use style="fill:#d95f02;stroke:#000000;stroke-opacity:0;stroke-width:0.75;" x="1271.551773" xlink:href="#m195f527b28" y="347.375386"/>
     <use style="fill:#d95f02;stroke:#000000;stroke-opacity:0;stroke-width:0.75;" x="1287.049502" xlink:href="#m195f527b28" y="348.651396"/>
     <use style="fill:#d95f02;stroke:#000000;stroke-opacity:0;stroke-width:0.75;" x="1302.547232" xlink:href="#m195f527b28" y="349.54343"/>
     <use style="fill:#d95f02;stroke:#000000;stroke-opacity:0;stroke-width:0.75;" x="1318.044962" xlink:href="#m195f527b28" y="351.754971"/>
     <use style="fill:#d95f02;stroke:#000000;stroke-opacity:0;stroke-width:0.75;" x="1333.542692" xlink:href="#m195f527b28" y="352.020649"/>
     <use style="fill:#d95f02;stroke:#000000;stroke-opacity:0;stroke-width:0.75;" x="1349.040421" xlink:href="#m195f527b28" y="352.035426"/>
     <use style="fill:#d95f02;stroke:#000000;stroke-opacity:0;stroke-width:0.75;" x="1364.538151" xlink:href="#m195f527b28" y="353.952056"/>
     <use style="fill:#d95f02;stroke:#000000;stroke-opacity:0;stroke-width:0.75;" x="1380.035881" xlink:href="#m195f527b28" y="355.936051"/>
     <use style="fill:#d95f02;stroke:#000000;stroke-opacity:0;stroke-width:0.75;" x="1395.533611" xlink:href="#m195f527b28" y="357.80901"/>
    </g>
   </g>
   <g id="line2d_3"/>
   <g id="line2d_4"/>
   <g id="patch_3">
    <path d="M 462.880233 548 
L 462.880233 131 
" style="fill:none;stroke:#262626;stroke-linecap:square;stroke-linejoin:miter;stroke-width:2;"/>
   </g>
   <g id="patch_4">
    <path d="M 462.880233 548 
L 1413.820932 548 
" style="fill:none;stroke:#262626;stroke-linecap:square;stroke-linejoin:miter;stroke-width:2;"/>
   </g>
   <g id="legend_1">
    <g id="line2d_5">
     <path d="M 1163.269057 167.0325 
L 1219.269057 167.0325 
" style="fill:none;stroke:#1b9e77;stroke-linecap:round;stroke-width:1.5;"/>
    </g>
    <g id="line2d_6">
     <g>
      <use style="fill:#1b9e77;stroke:#000000;stroke-opacity:0;stroke-width:0.75;" x="1191.269057" xlink:href="#m359bf11517" y="167.0325"/>
     </g>
    </g>
    <g id="text_16">
     <!-- Congruent -->
     <g style="fill:#262626;" transform="translate(1241.669057 176.8325)scale(0.28 -0.28)">
      <defs>
       <path d="M 831 1684 
Q 831 1069 1075 730 
Q 1319 391 1734 391 
Q 2138 391 2394 684 
Q 2650 978 2650 1516 
Q 2650 2222 2426 2580 
Q 2203 2938 1747 2938 
Q 1288 2938 1059 2633 
Q 831 2328 831 1684 
z
M 3188 191 
Q 3188 -616 2800 -1012 
Q 2413 -1409 1631 -1409 
Q 1069 -1409 736 -1150 
Q 403 -891 353 -409 
L 916 -409 
Q 959 -653 1142 -797 
Q 1325 -941 1672 -941 
Q 2144 -941 2384 -687 
Q 2625 -434 2625 134 
L 2625 372 
L 2613 372 
Q 2297 -97 1722 -97 
Q 1006 -97 628 431 
Q 250 959 250 1772 
Q 250 2516 631 2980 
Q 1013 3444 1644 3444 
Q 2278 3444 2644 2875 
L 2656 2875 
L 2656 3347 
L 3188 3347 
L 3188 191 
z
" id="HelveticaWorld-Regular-67" transform="scale(0.015625)"/>
      </defs>
      <use xlink:href="#HelveticaWorld-Regular-43"/>
      <use x="72.314453" xlink:href="#HelveticaWorld-Regular-6f"/>
      <use x="128.222656" xlink:href="#HelveticaWorld-Regular-6e"/>
      <use x="183.398438" xlink:href="#HelveticaWorld-Regular-67"/>
      <use x="239.306641" xlink:href="#HelveticaWorld-Regular-72"/>
      <use x="271.875" xlink:href="#HelveticaWorld-Regular-75"/>
      <use x="326.660156" xlink:href="#HelveticaWorld-Regular-65"/>
      <use x="382.080078" xlink:href="#HelveticaWorld-Regular-6e"/>
      <use x="437.255859" xlink:href="#HelveticaWorld-Regular-74"/>
     </g>
    </g>
    <g id="line2d_7">
     <path d="M 1163.269057 207.295625 
L 1219.269057 207.295625 
" style="fill:none;stroke:#d95f02;stroke-linecap:round;stroke-width:1.5;"/>
    </g>
    <g id="line2d_8">
     <g>
      <use style="fill:#d95f02;stroke:#000000;stroke-opacity:0;stroke-width:0.75;" x="1191.269057" xlink:href="#m195f527b28" y="207.295625"/>
     </g>
    </g>
    <g id="text_17">
     <!-- Incongruent -->
     <g style="fill:#262626;" transform="translate(1241.669057 217.095625)scale(0.28 -0.28)">
      <defs>
       <path d="M 2534 2222 
Q 2413 2938 1741 2938 
Q 1325 2938 1072 2605 
Q 819 2272 819 1678 
Q 819 1031 1053 711 
Q 1288 391 1734 391 
Q 2034 391 2253 611 
Q 2472 831 2534 1184 
L 3078 1184 
Q 2994 563 2639 233 
Q 2284 -97 1722 -97 
Q 1063 -97 641 354 
Q 219 806 219 1581 
Q 219 2431 641 2937 
Q 1063 3444 1825 3444 
Q 2381 3444 2711 3111 
Q 3041 2778 3078 2222 
L 2534 2222 
z
" id="HelveticaWorld-Regular-63" transform="scale(0.015625)"/>
      </defs>
      <use xlink:href="#HelveticaWorld-Regular-49"/>
      <use x="25.78125" xlink:href="#HelveticaWorld-Regular-6e"/>
      <use x="80.957031" xlink:href="#HelveticaWorld-Regular-63"/>
      <use x="132.226562" xlink:href="#HelveticaWorld-Regular-6f"/>
      <use x="188.134766" xlink:href="#HelveticaWorld-Regular-6e"/>
      <use x="243.310547" xlink:href="#HelveticaWorld-Regular-67"/>
      <use x="299.21875" xlink:href="#HelveticaWorld-Regular-72"/>
      <use x="331.787109" xlink:href="#HelveticaWorld-Regular-75"/>
      <use x="386.572266" xlink:href="#HelveticaWorld-Regular-65"/>
      <use x="441.992188" xlink:href="#HelveticaWorld-Regular-6e"/>
      <use x="497.167969" xlink:href="#HelveticaWorld-Regular-74"/>
     </g>
    </g>
   </g>
  </g>
  <g id="axes_2">
   <g id="patch_5">
    <path d="M 115.55 668.2 
L 371.830233 668.2 
L 371.830233 10.8 
L 115.55 10.8 
z
" style="fill:#ffffff;"/>
   </g>
   <g id="matplotlib.axis_3">
    <g id="xtick_9"/>
    <g id="text_18">
     <!-- Average -->
     <g style="fill:#262626;" transform="translate(185.500116 702.17)scale(0.32 -0.32)">
      <defs>
       <path d="M 2816 1888 
L 2138 3909 
L 2125 3909 
L 1388 1888 
L 2816 1888 
z
M 1197 1338 
L 716 0 
L 78 0 
L 1806 4594 
L 2509 4594 
L 4172 0 
L 3494 0 
L 3041 1338 
L 1197 1338 
z
" id="HelveticaWorld-Regular-41" transform="scale(0.015625)"/>
       <path d="M 2522 3347 
L 3138 3347 
L 1863 0 
L 1259 0 
L 38 3347 
L 691 3347 
L 1563 622 
L 1575 622 
L 2522 3347 
z
" id="HelveticaWorld-Regular-76" transform="scale(0.015625)"/>
      </defs>
      <use xlink:href="#HelveticaWorld-Regular-41"/>
      <use x="62.824219" xlink:href="#HelveticaWorld-Regular-76"/>
      <use x="110.433594" xlink:href="#HelveticaWorld-Regular-65"/>
      <use x="165.853516" xlink:href="#HelveticaWorld-Regular-72"/>
      <use x="197.421875" xlink:href="#HelveticaWorld-Regular-61"/>
      <use x="252.353516" xlink:href="#HelveticaWorld-Regular-67"/>
      <use x="308.261719" xlink:href="#HelveticaWorld-Regular-65"/>
     </g>
    </g>
   </g>
   <g id="matplotlib.axis_4">
    <g id="ytick_6">
     <g id="text_19">
      <!-- 0.6 -->
      <g style="fill:#262626;" transform="translate(45.32 632.727857)scale(0.32 -0.32)">
       <defs>
        <path d="M 3494 1381 
L 256 1381 
L 256 1850 
L 3494 1850 
L 3494 1381 
z
" id="HelveticaWorld-Regular-2212" transform="scale(0.015625)"/>
       </defs>
       <use xlink:href="#HelveticaWorld-Regular-2212"/>
       <use x="58.59375" xlink:href="#HelveticaWorld-Regular-30"/>
       <use x="114.208984" xlink:href="#HelveticaWorld-Regular-2e"/>
       <use x="141.992188" xlink:href="#HelveticaWorld-Regular-36"/>
      </g>
     </g>
    </g>
    <g id="ytick_7">
     <g id="text_20">
      <!-- 0.4 -->
      <g style="fill:#262626;" transform="translate(45.32 538.813571)scale(0.32 -0.32)">
       <use xlink:href="#HelveticaWorld-Regular-2212"/>
       <use x="58.59375" xlink:href="#HelveticaWorld-Regular-30"/>
       <use x="114.208984" xlink:href="#HelveticaWorld-Regular-2e"/>
       <use x="141.992188" xlink:href="#HelveticaWorld-Regular-34"/>
      </g>
     </g>
    </g>
    <g id="ytick_8">
     <g id="text_21">
      <!-- 0.2 -->
      <g style="fill:#262626;" transform="translate(45.32 444.899286)scale(0.32 -0.32)">
       <use xlink:href="#HelveticaWorld-Regular-2212"/>
       <use x="58.59375" xlink:href="#HelveticaWorld-Regular-30"/>
       <use x="114.208984" xlink:href="#HelveticaWorld-Regular-2e"/>
       <use x="141.992188" xlink:href="#HelveticaWorld-Regular-32"/>
      </g>
     </g>
    </g>
    <g id="ytick_9">
     <g id="text_22">
      <!-- 0.0 -->
      <g style="fill:#262626;" transform="translate(64.07 350.985)scale(0.32 -0.32)">
       <use xlink:href="#HelveticaWorld-Regular-30"/>
       <use x="55.615234" xlink:href="#HelveticaWorld-Regular-2e"/>
       <use x="83.398438" xlink:href="#HelveticaWorld-Regular-30"/>
      </g>
     </g>
    </g>
    <g id="ytick_10">
     <g id="text_23">
      <!-- 0.2 -->
      <g style="fill:#262626;" transform="translate(64.07 257.070714)scale(0.32 -0.32)">
       <use xlink:href="#HelveticaWorld-Regular-30"/>
       <use x="55.615234" xlink:href="#HelveticaWorld-Regular-2e"/>
       <use x="83.398438" xlink:href="#HelveticaWorld-Regular-32"/>
      </g>
     </g>
    </g>
    <g id="ytick_11">
     <g id="text_24">
      <!-- 0.4 -->
      <g style="fill:#262626;" transform="translate(64.07 163.156429)scale(0.32 -0.32)">
       <use xlink:href="#HelveticaWorld-Regular-30"/>
       <use x="55.615234" xlink:href="#HelveticaWorld-Regular-2e"/>
       <use x="83.398438" xlink:href="#HelveticaWorld-Regular-34"/>
      </g>
     </g>
    </g>
    <g id="ytick_12">
     <g id="text_25">
      <!-- 0.6 -->
      <g style="fill:#262626;" transform="translate(64.07 69.242143)scale(0.32 -0.32)">
       <use xlink:href="#HelveticaWorld-Regular-30"/>
       <use x="55.615234" xlink:href="#HelveticaWorld-Regular-2e"/>
       <use x="83.398438" xlink:href="#HelveticaWorld-Regular-36"/>
      </g>
     </g>
    </g>
    <g id="text_26">
     <!--  Classifier Information (a.u.) -->
     <g style="fill:#262626;" transform="translate(34.695 543.335)rotate(-90)scale(0.32 -0.32)">
      <defs>
       <path d="M 941 550 
L 3244 550 
L 2125 3891 
L 2113 3891 
L 941 550 
z
M 97 0 
L 1831 4594 
L 2456 4594 
L 4128 0 
L 97 0 
z
" id="HelveticaWorld-Regular-394" transform="scale(0.015625)"/>
      </defs>
      <use xlink:href="#HelveticaWorld-Regular-394"/>
      <use x="66.015625" xlink:href="#HelveticaWorld-Regular-20"/>
      <use x="90.429688" xlink:href="#HelveticaWorld-Regular-43"/>
      <use x="162.744141" xlink:href="#HelveticaWorld-Regular-6c"/>
      <use x="184.765625" xlink:href="#HelveticaWorld-Regular-61"/>
      <use x="239.697266" xlink:href="#HelveticaWorld-Regular-73"/>
      <use x="289.697266" xlink:href="#HelveticaWorld-Regular-73"/>
      <use x="339.697266" xlink:href="#HelveticaWorld-Regular-69"/>
      <use x="361.71875" xlink:href="#HelveticaWorld-Regular-66"/>
      <use x="389.404297" xlink:href="#HelveticaWorld-Regular-69"/>
      <use x="411.425781" xlink:href="#HelveticaWorld-Regular-65"/>
      <use x="466.845703" xlink:href="#HelveticaWorld-Regular-72"/>
      <use x="499.414062" xlink:href="#HelveticaWorld-Regular-20"/>
      <use x="523.828125" xlink:href="#HelveticaWorld-Regular-49"/>
      <use x="549.609375" xlink:href="#HelveticaWorld-Regular-6e"/>
      <use x="604.785156" xlink:href="#HelveticaWorld-Regular-66"/>
      <use x="630.470703" xlink:href="#HelveticaWorld-Regular-6f"/>
      <use x="686.378906" xlink:href="#HelveticaWorld-Regular-72"/>
      <use x="718.947266" xlink:href="#HelveticaWorld-Regular-6d"/>
      <use x="801.955078" xlink:href="#HelveticaWorld-Regular-61"/>
      <use x="856.886719" xlink:href="#HelveticaWorld-Regular-74"/>
      <use x="884.572266" xlink:href="#HelveticaWorld-Regular-69"/>
      <use x="906.59375" xlink:href="#HelveticaWorld-Regular-6f"/>
      <use x="962.501953" xlink:href="#HelveticaWorld-Regular-6e"/>
      <use x="1017.677734" xlink:href="#HelveticaWorld-Regular-20"/>
      <use x="1042.091797" xlink:href="#HelveticaWorld-Regular-28"/>
      <use x="1075.392578" xlink:href="#HelveticaWorld-Regular-61"/>
      <use x="1130.324219" xlink:href="#HelveticaWorld-Regular-2e"/>
      <use x="1158.107422" xlink:href="#HelveticaWorld-Regular-75"/>
      <use x="1212.892578" xlink:href="#HelveticaWorld-Regular-2e"/>
      <use x="1240.675781" xlink:href="#HelveticaWorld-Regular-29"/>
     </g>
    </g>
   </g>
   <g id="PolyCollection_3">
    <defs>
     <path d="M 219.165692 -164.568696 
L 217.323027 -164.568696 
L 216.715175 -168.831646 
L 215.9654 -173.094596 
L 215.060542 -177.357546 
L 213.992283 -181.620496 
L 212.758773 -185.883446 
L 211.365935 -190.146396 
L 209.828243 -194.409347 
L 208.168749 -198.672297 
L 206.418271 -202.935247 
L 204.613678 -207.198197 
L 202.795393 -211.461147 
L 201.004319 -215.724097 
L 199.278491 -219.987048 
L 197.649839 -224.249998 
L 196.141436 -228.512948 
L 194.765558 -232.775898 
L 193.522794 -237.038848 
L 192.402283 -241.301798 
L 191.383052 -245.564749 
L 190.436227 -249.827699 
L 189.527837 -254.090649 
L 188.621838 -258.353599 
L 187.682978 -262.616549 
L 186.679193 -266.879499 
L 185.58328 -271.14245 
L 184.373757 -275.4054 
L 183.034916 -279.66835 
L 181.55621 -283.9313 
L 179.931232 -288.19425 
L 178.156556 -292.4572 
L 176.230757 -296.72015 
L 174.153851 -300.983101 
L 171.927311 -305.246051 
L 169.554688 -309.509001 
L 167.042724 -313.771951 
L 164.402709 -318.034901 
L 161.651756 -322.297851 
L 158.813634 -326.560802 
L 155.918828 -330.823752 
L 153.003649 -335.086702 
L 150.108346 -339.349652 
L 147.274447 -343.612602 
L 144.541681 -347.875552 
L 141.945042 -352.138503 
L 139.512559 -356.401453 
L 137.264285 -360.664403 
L 135.212813 -364.927353 
L 133.365372 -369.190303 
L 131.7272 -373.453253 
L 130.305634 -377.716204 
L 129.114125 -381.979154 
L 128.175339 -386.242104 
L 127.52259 -390.505054 
L 127.199101 -394.768004 
L 127.254977 -399.030954 
L 127.742116 -403.293905 
L 128.707723 -407.556855 
L 130.187303 -411.819805 
L 132.198163 -416.082755 
L 134.734374 -420.345705 
L 137.763984 -424.608655 
L 141.228893 -428.871605 
L 145.047481 -433.134556 
L 149.119677 -437.397506 
L 153.333871 -441.660456 
L 157.574854 -445.923406 
L 161.731912 -450.186356 
L 165.706252 -454.449306 
L 169.417065 -458.712257 
L 172.80578 -462.975207 
L 175.838279 -467.238157 
L 178.505082 -471.501107 
L 180.819702 -475.764057 
L 182.815493 -480.027007 
L 184.541401 -484.289958 
L 186.057012 -488.552908 
L 187.427331 -492.815858 
L 188.717634 -497.078808 
L 189.988726 -501.341758 
L 191.292873 -505.604708 
L 192.670636 -509.867659 
L 194.148774 -514.130609 
L 195.739311 -518.393559 
L 197.439793 -522.656509 
L 199.234657 -526.919459 
L 201.097551 -531.182409 
L 202.994348 -535.445359 
L 204.886549 -539.70831 
L 206.734744 -543.97126 
L 208.501794 -548.23421 
L 210.155483 -552.49716 
L 211.67043 -556.76011 
L 213.029188 -561.02306 
L 214.222514 -565.286011 
L 215.24893 -569.548961 
L 216.11371 -573.811911 
L 216.827504 -578.074861 
L 217.404778 -582.337811 
L 217.862274 -586.600761 
L 219.165692 -586.600761 
L 219.165692 -586.600761 
L 219.165692 -582.337811 
L 219.165692 -578.074861 
L 219.165692 -573.811911 
L 219.165692 -569.548961 
L 219.165692 -565.286011 
L 219.165692 -561.02306 
L 219.165692 -556.76011 
L 219.165692 -552.49716 
L 219.165692 -548.23421 
L 219.165692 -543.97126 
L 219.165692 -539.70831 
L 219.165692 -535.445359 
L 219.165692 -531.182409 
L 219.165692 -526.919459 
L 219.165692 -522.656509 
L 219.165692 -518.393559 
L 219.165692 -514.130609 
L 219.165692 -509.867659 
L 219.165692 -505.604708 
L 219.165692 -501.341758 
L 219.165692 -497.078808 
L 219.165692 -492.815858 
L 219.165692 -488.552908 
L 219.165692 -484.289958 
L 219.165692 -480.027007 
L 219.165692 -475.764057 
L 219.165692 -471.501107 
L 219.165692 -467.238157 
L 219.165692 -462.975207 
L 219.165692 -458.712257 
L 219.165692 -454.449306 
L 219.165692 -450.186356 
L 219.165692 -445.923406 
L 219.165692 -441.660456 
L 219.165692 -437.397506 
L 219.165692 -433.134556 
L 219.165692 -428.871605 
L 219.165692 -424.608655 
L 219.165692 -420.345705 
L 219.165692 -416.082755 
L 219.165692 -411.819805 
L 219.165692 -407.556855 
L 219.165692 -403.293905 
L 219.165692 -399.030954 
L 219.165692 -394.768004 
L 219.165692 -390.505054 
L 219.165692 -386.242104 
L 219.165692 -381.979154 
L 219.165692 -377.716204 
L 219.165692 -373.453253 
L 219.165692 -369.190303 
L 219.165692 -364.927353 
L 219.165692 -360.664403 
L 219.165692 -356.401453 
L 219.165692 -352.138503 
L 219.165692 -347.875552 
L 219.165692 -343.612602 
L 219.165692 -339.349652 
L 219.165692 -335.086702 
L 219.165692 -330.823752 
L 219.165692 -326.560802 
L 219.165692 -322.297851 
L 219.165692 -318.034901 
L 219.165692 -313.771951 
L 219.165692 -309.509001 
L 219.165692 -305.246051 
L 219.165692 -300.983101 
L 219.165692 -296.72015 
L 219.165692 -292.4572 
L 219.165692 -288.19425 
L 219.165692 -283.9313 
L 219.165692 -279.66835 
L 219.165692 -275.4054 
L 219.165692 -271.14245 
L 219.165692 -266.879499 
L 219.165692 -262.616549 
L 219.165692 -258.353599 
L 219.165692 -254.090649 
L 219.165692 -249.827699 
L 219.165692 -245.564749 
L 219.165692 -241.301798 
L 219.165692 -237.038848 
L 219.165692 -232.775898 
L 219.165692 -228.512948 
L 219.165692 -224.249998 
L 219.165692 -219.987048 
L 219.165692 -215.724097 
L 219.165692 -211.461147 
L 219.165692 -207.198197 
L 219.165692 -202.935247 
L 219.165692 -198.672297 
L 219.165692 -194.409347 
L 219.165692 -190.146396 
L 219.165692 -185.883446 
L 219.165692 -181.620496 
L 219.165692 -177.357546 
L 219.165692 -173.094596 
L 219.165692 -168.831646 
L 219.165692 -164.568696 
z
" id="mdb30841bca" style="stroke:#7a7a7a;stroke-width:1.5;"/>
    </defs>
    <g clip-path="url(#pe18a0e694d)">
     <use style="fill:#cccccc;stroke:#7a7a7a;stroke-width:1.5;" x="0" xlink:href="#mdb30841bca" y="720"/>
    </g>
   </g>
   <g id="PolyCollection_4">
    <defs>
     <path d="M 219.165692 -352.325714 
L 141.945042 -352.325714 
L 139.512559 -356.401453 
L 137.264285 -360.664403 
L 135.212813 -364.927353 
L 133.365372 -369.190303 
L 130.305634 -377.716204 
L 129.114125 -381.979154 
L 128.175339 -386.242104 
L 127.52259 -390.505054 
L 127.199101 -394.768004 
L 127.254977 -399.030954 
L 219.165692 -399.030954 
L 219.165692 -399.030954 
L 219.165692 -394.768004 
L 219.165692 -390.505054 
L 219.165692 -386.242104 
L 219.165692 -381.979154 
L 219.165692 -377.716204 
L 219.165692 -369.190303 
L 219.165692 -364.927353 
L 219.165692 -360.664403 
L 219.165692 -356.401453 
L 219.165692 -352.325714 
z
" id="m20ed3ce6ce" style="stroke:#666666;stroke-width:1.5;"/>
    </defs>
    <g clip-path="url(#pe18a0e694d)">
     <use style="fill:#8f8f8f;stroke:#666666;stroke-width:1.5;" x="0" xlink:href="#m20ed3ce6ce" y="720"/>
    </g>
   </g>
   <g id="PolyCollection_5">
    <defs>
     <path d="M 268.214541 -218.342507 
L 270.152721 -218.342507 
L 270.823707 -221.871683 
L 271.668639 -225.400859 
L 272.712143 -228.930035 
L 273.976021 -232.459211 
L 275.477135 -235.988387 
L 277.22522 -239.517563 
L 279.220797 -243.046738 
L 281.453435 -246.575914 
L 283.900587 -250.10509 
L 286.527215 -253.634266 
L 289.28637 -257.163442 
L 292.120831 -260.692618 
L 294.965808 -264.221794 
L 297.752618 -267.75097 
L 300.413114 -271.280146 
L 302.884583 -274.809322 
L 305.114683 -278.338498 
L 307.065978 -281.867674 
L 308.719583 -285.396849 
L 310.077465 -288.926025 
L 311.163037 -292.455201 
L 312.019858 -295.984377 
L 312.708409 -299.513553 
L 313.30119 -303.042729 
L 313.876594 -306.571905 
L 314.512203 -310.101081 
L 315.278263 -313.630257 
L 316.232113 -317.159433 
L 317.414204 -320.688609 
L 318.846148 -324.217785 
L 320.530931 -327.746961 
L 322.455076 -331.276136 
L 324.592286 -334.805312 
L 326.907852 -338.334488 
L 329.363062 -341.863664 
L 331.918889 -345.39284 
L 334.538452 -348.922016 
L 337.188023 -352.451192 
L 339.836673 -355.980368 
L 342.454947 -359.509544 
L 345.013133 -363.03872 
L 347.479761 -366.567896 
L 349.820864 -370.097072 
L 352.000345 -373.626248 
L 353.98148 -377.155423 
L 355.72931 -380.684599 
L 357.21343 -384.213775 
L 358.41055 -387.742951 
L 359.306235 -391.272127 
L 359.895365 -394.801303 
L 360.181131 -398.330479 
L 360.172702 -401.859655 
L 359.881961 -405.388831 
L 359.319952 -408.918007 
L 358.493744 -412.447183 
L 357.404355 -415.976359 
L 356.046209 -419.505534 
L 354.408299 -423.03471 
L 352.476939 -426.563886 
L 350.239697 -430.093062 
L 347.689874 -433.622238 
L 344.830844 -437.151414 
L 341.679523 -440.68059 
L 338.268413 -444.209766 
L 334.645844 -447.738942 
L 330.87429 -451.268118 
L 327.026895 -454.797294 
L 323.182569 -458.32647 
L 319.420202 -461.855646 
L 315.812646 -465.384821 
L 312.421136 -468.913997 
L 309.290777 -472.443173 
L 306.447594 -475.972349 
L 303.897443 -479.501525 
L 301.626871 -483.030701 
L 299.605774 -486.559877 
L 297.79149 -490.089053 
L 296.133838 -493.618229 
L 294.580489 -497.147405 
L 293.082079 -500.676581 
L 291.596552 -504.205757 
L 290.092332 -507.734933 
L 288.550125 -511.264108 
L 286.963303 -514.793284 
L 285.337004 -518.32246 
L 283.686205 -521.851636 
L 282.03311 -525.380812 
L 280.404191 -528.909988 
L 278.827252 -532.439164 
L 277.328778 -535.96834 
L 275.931791 -539.497516 
L 274.654334 -543.026692 
L 273.50861 -546.555868 
L 272.500761 -550.085044 
L 271.631179 -553.61422 
L 270.895226 -557.143395 
L 270.284238 -560.672571 
L 269.786642 -564.201747 
L 269.389092 -567.730923 
L 268.214541 -567.730923 
L 268.214541 -567.730923 
L 268.214541 -564.201747 
L 268.214541 -560.672571 
L 268.214541 -557.143395 
L 268.214541 -553.61422 
L 268.214541 -550.085044 
L 268.214541 -546.555868 
L 268.214541 -543.026692 
L 268.214541 -539.497516 
L 268.214541 -535.96834 
L 268.214541 -532.439164 
L 268.214541 -528.909988 
L 268.214541 -525.380812 
L 268.214541 -521.851636 
L 268.214541 -518.32246 
L 268.214541 -514.793284 
L 268.214541 -511.264108 
L 268.214541 -507.734933 
L 268.214541 -504.205757 
L 268.214541 -500.676581 
L 268.214541 -497.147405 
L 268.214541 -493.618229 
L 268.214541 -490.089053 
L 268.214541 -486.559877 
L 268.214541 -483.030701 
L 268.214541 -479.501525 
L 268.214541 -475.972349 
L 268.214541 -472.443173 
L 268.214541 -468.913997 
L 268.214541 -465.384821 
L 268.214541 -461.855646 
L 268.214541 -458.32647 
L 268.214541 -454.797294 
L 268.214541 -451.268118 
L 268.214541 -447.738942 
L 268.214541 -444.209766 
L 268.214541 -440.68059 
L 268.214541 -437.151414 
L 268.214541 -433.622238 
L 268.214541 -430.093062 
L 268.214541 -426.563886 
L 268.214541 -423.03471 
L 268.214541 -419.505534 
L 268.214541 -415.976359 
L 268.214541 -412.447183 
L 268.214541 -408.918007 
L 268.214541 -405.388831 
L 268.214541 -401.859655 
L 268.214541 -398.330479 
L 268.214541 -394.801303 
L 268.214541 -391.272127 
L 268.214541 -387.742951 
L 268.214541 -384.213775 
L 268.214541 -380.684599 
L 268.214541 -377.155423 
L 268.214541 -373.626248 
L 268.214541 -370.097072 
L 268.214541 -366.567896 
L 268.214541 -363.03872 
L 268.214541 -359.509544 
L 268.214541 -355.980368 
L 268.214541 -352.451192 
L 268.214541 -348.922016 
L 268.214541 -345.39284 
L 268.214541 -341.863664 
L 268.214541 -338.334488 
L 268.214541 -334.805312 
L 268.214541 -331.276136 
L 268.214541 -327.746961 
L 268.214541 -324.217785 
L 268.214541 -320.688609 
L 268.214541 -317.159433 
L 268.214541 -313.630257 
L 268.214541 -310.101081 
L 268.214541 -306.571905 
L 268.214541 -303.042729 
L 268.214541 -299.513553 
L 268.214541 -295.984377 
L 268.214541 -292.455201 
L 268.214541 -288.926025 
L 268.214541 -285.396849 
L 268.214541 -281.867674 
L 268.214541 -278.338498 
L 268.214541 -274.809322 
L 268.214541 -271.280146 
L 268.214541 -267.75097 
L 268.214541 -264.221794 
L 268.214541 -260.692618 
L 268.214541 -257.163442 
L 268.214541 -253.634266 
L 268.214541 -250.10509 
L 268.214541 -246.575914 
L 268.214541 -243.046738 
L 268.214541 -239.517563 
L 268.214541 -235.988387 
L 268.214541 -232.459211 
L 268.214541 -228.930035 
L 268.214541 -225.400859 
L 268.214541 -221.871683 
L 268.214541 -218.342507 
z
" id="m41e17348f8" style="stroke:#7a7a7a;stroke-width:1.5;"/>
    </defs>
    <g clip-path="url(#pe18a0e694d)">
     <use style="fill:#cccccc;stroke:#7a7a7a;stroke-width:1.5;" x="0" xlink:href="#m41e17348f8" y="720"/>
    </g>
   </g>
   <g id="PolyCollection_6">
    <defs>
     <path d="M 268.214541 -366.567896 
L 347.479761 -366.567896 
L 349.820864 -370.097072 
L 353.98148 -377.155423 
L 355.72931 -380.684599 
L 357.21343 -384.213775 
L 359.306235 -391.272127 
L 359.895365 -394.801303 
L 360.181131 -398.330479 
L 359.881961 -405.388831 
L 268.214541 -405.388831 
L 268.214541 -405.388831 
L 268.214541 -398.330479 
L 268.214541 -394.801303 
L 268.214541 -391.272127 
L 268.214541 -384.213775 
L 268.214541 -380.684599 
L 268.214541 -377.155423 
L 268.214541 -370.097072 
L 268.214541 -366.567896 
z
" id="m6995ce95b7" style="stroke:#666666;stroke-width:1.5;"/>
    </defs>
    <g clip-path="url(#pe18a0e694d)">
     <use style="fill:#8f8f8f;stroke:#666666;stroke-width:1.5;" x="0" xlink:href="#m6995ce95b7" y="720"/>
    </g>
   </g>
   <g id="PathCollection_1">
    <defs>
     <path d="M 0 3 
C 0.795609 3 1.55874 2.683901 2.12132 2.12132 
C 2.683901 1.55874 3 0.795609 3 0 
C 3 -0.795609 2.683901 -1.55874 2.12132 -2.12132 
C 1.55874 -2.683901 0.795609 -3 0 -3 
C -0.795609 -3 -1.55874 -2.683901 -2.12132 -2.12132 
C -2.683901 -1.55874 -3 -0.795609 -3 0 
C -3 0.795609 -2.683901 1.55874 -2.12132 2.12132 
C -1.55874 2.683901 -0.795609 3 0 3 
z
" id="me3854963b1" style="stroke:#000000;stroke-opacity:0.3;"/>
    </defs>
    <g clip-path="url(#pe18a0e694d)">
     <use style="fill-opacity:0.3;stroke:#000000;stroke-opacity:0.3;" x="206.168772" xlink:href="#me3854963b1" y="364.414589"/>
     <use style="fill-opacity:0.3;stroke:#000000;stroke-opacity:0.3;" x="190.653727" xlink:href="#me3854963b1" y="308.27669"/>
     <use style="fill-opacity:0.3;stroke:#000000;stroke-opacity:0.3;" x="187.299899" xlink:href="#me3854963b1" y="252.038978"/>
     <use style="fill-opacity:0.3;stroke:#000000;stroke-opacity:0.3;" x="204.898901" xlink:href="#me3854963b1" y="216.929796"/>
     <use style="fill-opacity:0.3;stroke:#000000;stroke-opacity:0.3;" x="204.756954" xlink:href="#me3854963b1" y="309.660705"/>
     <use style="fill-opacity:0.3;stroke:#000000;stroke-opacity:0.3;" x="167.855448" xlink:href="#me3854963b1" y="302.942354"/>
     <use style="fill-opacity:0.3;stroke:#000000;stroke-opacity:0.3;" x="216.235026" xlink:href="#me3854963b1" y="317.364354"/>
     <use style="fill-opacity:0.3;stroke:#000000;stroke-opacity:0.3;" x="184.053348" xlink:href="#me3854963b1" y="395.107001"/>
     <use style="fill-opacity:0.3;stroke:#000000;stroke-opacity:0.3;" x="195.503568" xlink:href="#me3854963b1" y="428.79283"/>
     <use style="fill-opacity:0.3;stroke:#000000;stroke-opacity:0.3;" x="218.866987" xlink:href="#me3854963b1" y="492.828372"/>
     <use style="fill-opacity:0.3;stroke:#000000;stroke-opacity:0.3;" x="217.10361" xlink:href="#me3854963b1" y="211.30306"/>
     <use style="fill-opacity:0.3;stroke:#000000;stroke-opacity:0.3;" x="184.074659" xlink:href="#me3854963b1" y="410.676934"/>
     <use style="fill-opacity:0.3;stroke:#000000;stroke-opacity:0.3;" x="193.693126" xlink:href="#me3854963b1" y="319.801089"/>
     <use style="fill-opacity:0.3;stroke:#000000;stroke-opacity:0.3;" x="218.472976" xlink:href="#me3854963b1" y="355.232851"/>
     <use style="fill-opacity:0.3;stroke:#000000;stroke-opacity:0.3;" x="179.360642" xlink:href="#me3854963b1" y="299.017599"/>
     <use style="fill-opacity:0.3;stroke:#000000;stroke-opacity:0.3;" x="214.450139" xlink:href="#me3854963b1" y="355.437126"/>
     <use style="fill-opacity:0.3;stroke:#000000;stroke-opacity:0.3;" x="175.695049" xlink:href="#me3854963b1" y="286.335822"/>
     <use style="fill-opacity:0.3;stroke:#000000;stroke-opacity:0.3;" x="198.924343" xlink:href="#me3854963b1" y="397.323126"/>
     <use style="fill-opacity:0.3;stroke:#000000;stroke-opacity:0.3;" x="186.528394" xlink:href="#me3854963b1" y="349.119554"/>
     <use style="fill-opacity:0.3;stroke:#000000;stroke-opacity:0.3;" x="200.830618" xlink:href="#me3854963b1" y="320.950092"/>
     <use style="fill-opacity:0.3;stroke:#000000;stroke-opacity:0.3;" x="212.270751" xlink:href="#me3854963b1" y="470.600913"/>
     <use style="fill-opacity:0.3;stroke:#000000;stroke-opacity:0.3;" x="209.533025" xlink:href="#me3854963b1" y="453.078038"/>
     <use style="fill-opacity:0.3;stroke:#000000;stroke-opacity:0.3;" x="183.609175" xlink:href="#me3854963b1" y="276.947574"/>
     <use style="fill-opacity:0.3;stroke:#000000;stroke-opacity:0.3;" x="211.82652" xlink:href="#me3854963b1" y="194.29707"/>
     <use style="fill-opacity:0.3;stroke:#000000;stroke-opacity:0.3;" x="191.119793" xlink:href="#me3854963b1" y="360.645817"/>
     <use style="fill-opacity:0.3;stroke:#000000;stroke-opacity:0.3;" x="212.156452" xlink:href="#me3854963b1" y="319.09351"/>
     <use style="fill-opacity:0.3;stroke:#000000;stroke-opacity:0.3;" x="189.922818" xlink:href="#me3854963b1" y="426.658909"/>
     <use style="fill-opacity:0.3;stroke:#000000;stroke-opacity:0.3;" x="193.249633" xlink:href="#me3854963b1" y="380.397741"/>
     <use style="fill-opacity:0.3;stroke:#000000;stroke-opacity:0.3;" x="204.447465" xlink:href="#me3854963b1" y="289.692644"/>
     <use style="fill-opacity:0.3;stroke:#000000;stroke-opacity:0.3;" x="137.272307" xlink:href="#me3854963b1" y="355.948894"/>
     <use style="fill-opacity:0.3;stroke:#000000;stroke-opacity:0.3;" x="212.581295" xlink:href="#me3854963b1" y="243.094759"/>
     <use style="fill-opacity:0.3;stroke:#000000;stroke-opacity:0.3;" x="197.120726" xlink:href="#me3854963b1" y="336.670047"/>
     <use style="fill-opacity:0.3;stroke:#000000;stroke-opacity:0.3;" x="200.516135" xlink:href="#me3854963b1" y="494.533474"/>
     <use style="fill-opacity:0.3;stroke:#000000;stroke-opacity:0.3;" x="192.251251" xlink:href="#me3854963b1" y="373.099368"/>
     <use style="fill-opacity:0.3;stroke:#000000;stroke-opacity:0.3;" x="215.005284" xlink:href="#me3854963b1" y="289.040955"/>
    </g>
   </g>
   <g id="PathCollection_2">
    <g clip-path="url(#pe18a0e694d)">
     <use style="fill-opacity:0.3;stroke:#000000;stroke-opacity:0.3;" x="331.573969" xlink:href="#me3854963b1" y="320.150811"/>
     <use style="fill-opacity:0.3;stroke:#000000;stroke-opacity:0.3;" x="296.841134" xlink:href="#me3854963b1" y="427.133457"/>
     <use style="fill-opacity:0.3;stroke:#000000;stroke-opacity:0.3;" x="359.749522" xlink:href="#me3854963b1" y="322.454744"/>
     <use style="fill-opacity:0.3;stroke:#000000;stroke-opacity:0.3;" x="318.52239" xlink:href="#me3854963b1" y="268.478928"/>
     <use style="fill-opacity:0.3;stroke:#000000;stroke-opacity:0.3;" x="278.432078" xlink:href="#me3854963b1" y="450.573438"/>
     <use style="fill-opacity:0.3;stroke:#000000;stroke-opacity:0.3;" x="294.56185" xlink:href="#me3854963b1" y="264.152347"/>
     <use style="fill-opacity:0.3;stroke:#000000;stroke-opacity:0.3;" x="290.087415" xlink:href="#me3854963b1" y="289.914267"/>
     <use style="fill-opacity:0.3;stroke:#000000;stroke-opacity:0.3;" x="354.85444" xlink:href="#me3854963b1" y="315.322664"/>
     <use style="fill-opacity:0.3;stroke:#000000;stroke-opacity:0.3;" x="293.320423" xlink:href="#me3854963b1" y="279.48009"/>
     <use style="fill-opacity:0.3;stroke:#000000;stroke-opacity:0.3;" x="273.793978" xlink:href="#me3854963b1" y="446.27308"/>
     <use style="fill-opacity:0.3;stroke:#000000;stroke-opacity:0.3;" x="316.665962" xlink:href="#me3854963b1" y="295.527219"/>
     <use style="fill-opacity:0.3;stroke:#000000;stroke-opacity:0.3;" x="285.710474" xlink:href="#me3854963b1" y="293.097624"/>
     <use style="fill-opacity:0.3;stroke:#000000;stroke-opacity:0.3;" x="326.228371" xlink:href="#me3854963b1" y="325.863232"/>
     <use style="fill-opacity:0.3;stroke:#000000;stroke-opacity:0.3;" x="340.333395" xlink:href="#me3854963b1" y="337.957068"/>
     <use style="fill-opacity:0.3;stroke:#000000;stroke-opacity:0.3;" x="274.646009" xlink:href="#me3854963b1" y="385.716745"/>
     <use style="fill-opacity:0.3;stroke:#000000;stroke-opacity:0.3;" x="334.600199" xlink:href="#me3854963b1" y="296.935835"/>
     <use style="fill-opacity:0.3;stroke:#000000;stroke-opacity:0.3;" x="297.150989" xlink:href="#me3854963b1" y="364.695042"/>
     <use style="fill-opacity:0.3;stroke:#000000;stroke-opacity:0.3;" x="291.914643" xlink:href="#me3854963b1" y="375.496495"/>
     <use style="fill-opacity:0.3;stroke:#000000;stroke-opacity:0.3;" x="274.679583" xlink:href="#me3854963b1" y="203.353132"/>
     <use style="fill-opacity:0.3;stroke:#000000;stroke-opacity:0.3;" x="273.998574" xlink:href="#me3854963b1" y="338.585452"/>
     <use style="fill-opacity:0.3;stroke:#000000;stroke-opacity:0.3;" x="301.823192" xlink:href="#me3854963b1" y="281.35185"/>
     <use style="fill-opacity:0.3;stroke:#000000;stroke-opacity:0.3;" x="293.420066" xlink:href="#me3854963b1" y="353.014372"/>
     <use style="fill-opacity:0.3;stroke:#000000;stroke-opacity:0.3;" x="271.863167" xlink:href="#me3854963b1" y="227.48982"/>
     <use style="fill-opacity:0.3;stroke:#000000;stroke-opacity:0.3;" x="358.241178" xlink:href="#me3854963b1" y="328.196375"/>
     <use style="fill-opacity:0.3;stroke:#000000;stroke-opacity:0.3;" x="300.329045" xlink:href="#me3854963b1" y="340.069162"/>
     <use style="fill-opacity:0.3;stroke:#000000;stroke-opacity:0.3;" x="278.8781" xlink:href="#me3854963b1" y="261.919439"/>
     <use style="fill-opacity:0.3;stroke:#000000;stroke-opacity:0.3;" x="277.841911" xlink:href="#me3854963b1" y="431.178343"/>
     <use style="fill-opacity:0.3;stroke:#000000;stroke-opacity:0.3;" x="296.391317" xlink:href="#me3854963b1" y="421.165092"/>
     <use style="fill-opacity:0.3;stroke:#000000;stroke-opacity:0.3;" x="270.649124" xlink:href="#me3854963b1" y="333.415002"/>
     <use style="fill-opacity:0.3;stroke:#000000;stroke-opacity:0.3;" x="304.679751" xlink:href="#me3854963b1" y="361.152342"/>
     <use style="fill-opacity:0.3;stroke:#000000;stroke-opacity:0.3;" x="280.398649" xlink:href="#me3854963b1" y="383.848251"/>
     <use style="fill-opacity:0.3;stroke:#000000;stroke-opacity:0.3;" x="293.158077" xlink:href="#me3854963b1" y="223.874459"/>
     <use style="fill-opacity:0.3;stroke:#000000;stroke-opacity:0.3;" x="274.85126" xlink:href="#me3854963b1" y="416.041618"/>
     <use style="fill-opacity:0.3;stroke:#000000;stroke-opacity:0.3;" x="317.387252" xlink:href="#me3854963b1" y="296.890381"/>
     <use style="fill-opacity:0.3;stroke:#000000;stroke-opacity:0.3;" x="309.517639" xlink:href="#me3854963b1" y="376.461429"/>
    </g>
   </g>
   <g id="line2d_9">
    <path clip-path="url(#pe18a0e694d)" d="M 243.690116 358.282857 
L 243.690116 316.021429 
" style="fill:none;stroke:#000000;stroke-linecap:round;stroke-width:3;"/>
   </g>
   <g id="line2d_10">
    <path clip-path="url(#pe18a0e694d)" d="M 237.55901 358.282857 
L 249.821223 358.282857 
" style="fill:none;stroke:#000000;stroke-linecap:round;stroke-width:3;"/>
   </g>
   <g id="line2d_11">
    <path clip-path="url(#pe18a0e694d)" d="M 237.55901 316.021429 
L 249.821223 316.021429 
" style="fill:none;stroke:#000000;stroke-linecap:round;stroke-width:3;"/>
   </g>
   <g id="line2d_12">
    <defs>
     <path d="M 0 7.5 
C 1.989023 7.5 3.896849 6.709753 5.303301 5.303301 
C 6.709753 3.896849 7.5 1.989023 7.5 0 
C 7.5 -1.989023 6.709753 -3.896849 5.303301 -5.303301 
C 3.896849 -6.709753 1.989023 -7.5 0 -7.5 
C -1.989023 -7.5 -3.896849 -6.709753 -5.303301 -5.303301 
C -6.709753 -3.896849 -7.5 -1.989023 -7.5 0 
C -7.5 1.989023 -6.709753 3.896849 -5.303301 5.303301 
C -3.896849 6.709753 -1.989023 7.5 0 7.5 
z
" id="m978febc6b6" style="stroke:#000000;"/>
    </defs>
    <g clip-path="url(#pe18a0e694d)">
     <use style="stroke:#000000;" x="243.690116" xlink:href="#m978febc6b6" y="337.065461"/>
    </g>
   </g>
   <g id="line2d_13">
    <path clip-path="url(#pe18a0e694d)" d="M 115.55 339.5 
L 371.830233 339.5 
" style="fill:none;stroke:#000000;stroke-dasharray:7.4,3.2;stroke-dashoffset:0;stroke-width:2;"/>
   </g>
   <g id="patch_6">
    <path d="M 115.55 668.2 
L 115.55 10.8 
" style="fill:none;stroke:#262626;stroke-linecap:square;stroke-linejoin:miter;stroke-width:2;"/>
   </g>
  </g>
 </g>
 <defs>
  <clipPath id="p08dbf5211e">
   <rect height="417" width="950.940699" x="462.880233" y="131"/>
  </clipPath>
  <clipPath id="pe18a0e694d">
   <rect height="657.4" width="256.280233" x="115.55" y="10.8"/>
  </clipPath>
 </defs>
</svg>
