<?xml version="1.0" encoding="utf-8" standalone="no"?>
<!DOCTYPE svg PUBLIC "-//W3C//DTD SVG 1.1//EN"
  "http://www.w3.org/Graphics/SVG/1.1/DTD/svg11.dtd">
<svg height="720pt" version="1.1" viewBox="0 0 720 720" width="720pt" xmlns="http://www.w3.org/2000/svg" xmlns:xlink="http://www.w3.org/1999/xlink">
 <metadata>
  <rdf:RDF xmlns:cc="http://creativecommons.org/ns#" xmlns:dc="http://purl.org/dc/elements/1.1/" xmlns:rdf="http://www.w3.org/1999/02/22-rdf-syntax-ns#">
   <cc:Work>
    <dc:type rdf:resource="http://purl.org/dc/dcmitype/StillImage"/>
    <dc:date>2024-10-21T14:14:46.041695</dc:date>
    <dc:format>image/svg+xml</dc:format>
    <dc:creator>
     <cc:Agent>
      <dc:title>Matplotlib v3.4.3, https://matplotlib.org/</dc:title>
     </cc:Agent>
    </dc:creator>
   </cc:Work>
  </rdf:RDF>
 </metadata>
 <defs>
  <style type="text/css">*{stroke-linecap:butt;stroke-linejoin:round;}</style>
 </defs>
 <g id="figure_1">
  <g id="patch_1">
   <path d="M 0 720 
L 720 720 
L 720 0 
L 0 0 
z
" style="fill:none;"/>
  </g>
  <g id="axes_1">
   <g id="patch_2">
    <path d="M 113.55 662.7 
L 354.225 662.7 
L 354.225 20.8 
L 113.55 20.8 
z
" style="fill:#ffffff;"/>
   </g>
   <g id="patch_3">
    <path clip-path="url(#pd80b0e85fc)" d="M 125.58375 1946.5 
L 221.85375 1946.5 
L 221.85375 306.687605 
L 125.58375 306.687605 
z
" style="fill:#72b6a1;stroke:#000000;stroke-linejoin:miter;stroke-width:2;"/>
   </g>
   <g id="patch_4">
    <path clip-path="url(#pd80b0e85fc)" d="M 245.92125 1946.5 
L 342.19125 1946.5 
L 342.19125 404.849671 
L 245.92125 404.849671 
z
" style="fill:#e99675;stroke:#000000;stroke-linejoin:miter;stroke-width:2;"/>
   </g>
   <g id="matplotlib.axis_1">
    <g id="xtick_1">
     <g id="line2d_1"/>
     <g id="text_1">
      <!-- Cong. -->
      <g transform="translate(128.315469 702.75375)scale(0.34 -0.34)">
       <defs>
        <path d="M 3713 3213 
Q 3609 3681 3279 3923 
Q 2950 4166 2425 4166 
Q 1747 4166 1334 3673 
Q 922 3181 922 2344 
Q 922 1375 1312 901 
Q 1703 428 2444 428 
Q 2931 428 3282 751 
Q 3634 1075 3756 1691 
L 4359 1691 
Q 4238 806 3688 342 
Q 3138 -122 2350 -122 
Q 1409 -122 845 525 
Q 281 1172 281 2322 
Q 281 3431 870 4073 
Q 1459 4716 2425 4716 
Q 3225 4716 3722 4303 
Q 4219 3891 4313 3213 
L 3713 3213 
z
" id="HelveticaWorld-Regular-43" transform="scale(0.015625)"/>
        <path d="M 813 1678 
Q 813 1119 1066 758 
Q 1319 397 1784 397 
Q 2266 397 2516 775 
Q 2766 1153 2766 1678 
Q 2766 2209 2516 2579 
Q 2266 2950 1784 2950 
Q 1338 2950 1075 2601 
Q 813 2253 813 1678 
z
M 238 1678 
Q 238 2425 653 2934 
Q 1069 3444 1784 3444 
Q 2516 3444 2928 2928 
Q 3341 2413 3341 1678 
Q 3341 941 2931 422 
Q 2522 -97 1784 -97 
Q 1075 -97 656 406 
Q 238 909 238 1678 
z
" id="HelveticaWorld-Regular-6f" transform="scale(0.015625)"/>
        <path d="M 3150 0 
L 2584 0 
L 2584 2059 
Q 2584 2534 2418 2736 
Q 2253 2938 1869 2938 
Q 1491 2938 1237 2650 
Q 984 2363 984 1825 
L 984 0 
L 422 0 
L 422 3347 
L 953 3347 
L 953 2875 
L 966 2875 
Q 1363 3444 1978 3444 
Q 2547 3444 2848 3142 
Q 3150 2841 3150 2278 
L 3150 0 
z
" id="HelveticaWorld-Regular-6e" transform="scale(0.015625)"/>
        <path d="M 831 1684 
Q 831 1069 1075 730 
Q 1319 391 1734 391 
Q 2138 391 2394 684 
Q 2650 978 2650 1516 
Q 2650 2222 2426 2580 
Q 2203 2938 1747 2938 
Q 1288 2938 1059 2633 
Q 831 2328 831 1684 
z
M 3188 191 
Q 3188 -616 2800 -1012 
Q 2413 -1409 1631 -1409 
Q 1069 -1409 736 -1150 
Q 403 -891 353 -409 
L 916 -409 
Q 959 -653 1142 -797 
Q 1325 -941 1672 -941 
Q 2144 -941 2384 -687 
Q 2625 -434 2625 134 
L 2625 372 
L 2613 372 
Q 2297 -97 1722 -97 
Q 1006 -97 628 431 
Q 250 959 250 1772 
Q 250 2516 631 2980 
Q 1013 3444 1644 3444 
Q 2278 3444 2644 2875 
L 2656 2875 
L 2656 3347 
L 3188 3347 
L 3188 191 
z
" id="HelveticaWorld-Regular-67" transform="scale(0.015625)"/>
        <path d="M 1222 0 
L 556 0 
L 556 678 
L 1222 678 
L 1222 0 
z
" id="HelveticaWorld-Regular-2e" transform="scale(0.015625)"/>
       </defs>
       <use xlink:href="#HelveticaWorld-Regular-43"/>
       <use x="72.314453" xlink:href="#HelveticaWorld-Regular-6f"/>
       <use x="128.222656" xlink:href="#HelveticaWorld-Regular-6e"/>
       <use x="183.398438" xlink:href="#HelveticaWorld-Regular-67"/>
       <use x="239.306641" xlink:href="#HelveticaWorld-Regular-2e"/>
      </g>
     </g>
    </g>
    <g id="xtick_2">
     <g id="line2d_2"/>
     <g id="text_2">
      <!-- Incong. -->
      <g transform="translate(238.468906 702.105625)scale(0.34 -0.34)">
       <defs>
        <path d="M 1141 0 
L 519 0 
L 519 4594 
L 1141 4594 
L 1141 0 
z
" id="HelveticaWorld-Regular-49" transform="scale(0.015625)"/>
        <path d="M 2534 2222 
Q 2413 2938 1741 2938 
Q 1325 2938 1072 2605 
Q 819 2272 819 1678 
Q 819 1031 1053 711 
Q 1288 391 1734 391 
Q 2034 391 2253 611 
Q 2472 831 2534 1184 
L 3078 1184 
Q 2994 563 2639 233 
Q 2284 -97 1722 -97 
Q 1063 -97 641 354 
Q 219 806 219 1581 
Q 219 2431 641 2937 
Q 1063 3444 1825 3444 
Q 2381 3444 2711 3111 
Q 3041 2778 3078 2222 
L 2534 2222 
z
" id="HelveticaWorld-Regular-63" transform="scale(0.015625)"/>
       </defs>
       <use xlink:href="#HelveticaWorld-Regular-49"/>
       <use x="25.78125" xlink:href="#HelveticaWorld-Regular-6e"/>
       <use x="80.957031" xlink:href="#HelveticaWorld-Regular-63"/>
       <use x="132.226562" xlink:href="#HelveticaWorld-Regular-6f"/>
       <use x="188.134766" xlink:href="#HelveticaWorld-Regular-6e"/>
       <use x="243.310547" xlink:href="#HelveticaWorld-Regular-67"/>
       <use x="299.21875" xlink:href="#HelveticaWorld-Regular-2e"/>
      </g>
     </g>
    </g>
   </g>
   <g id="matplotlib.axis_2">
    <g id="ytick_1">
     <g id="line2d_3">
      <defs>
       <path d="M 0 0 
L -10 0 
" id="m4c47545182" style="stroke:#000000;stroke-width:2;"/>
      </defs>
      <g>
       <use style="stroke:#000000;stroke-width:2;" x="113.55" xlink:href="#m4c47545182" y="662.7"/>
      </g>
     </g>
     <g id="text_3">
      <!-- 0.50 -->
      <g transform="translate(45.559375 672.749375)scale(0.28 -0.28)">
       <defs>
        <path d="M 2719 2188 
Q 2719 3091 2480 3542 
Q 2241 3994 1778 3994 
Q 1325 3994 1081 3542 
Q 838 3091 838 2188 
Q 838 1313 1078 848 
Q 1319 384 1778 384 
Q 2241 384 2480 832 
Q 2719 1281 2719 2188 
z
M 3322 2188 
Q 3322 1081 2922 479 
Q 2522 -122 1778 -122 
Q 1006 -122 622 501 
Q 238 1125 238 2188 
Q 238 3278 631 3889 
Q 1025 4500 1778 4500 
Q 2522 4500 2922 3892 
Q 3322 3284 3322 2188 
z
" id="HelveticaWorld-Regular-30" transform="scale(0.015625)"/>
        <path d="M 941 2619 
Q 1313 2900 1813 2900 
Q 2419 2900 2855 2497 
Q 3291 2094 3291 1459 
Q 3291 769 2870 320 
Q 2450 -128 1691 -128 
Q 1031 -128 650 195 
Q 269 519 206 1113 
L 788 1113 
Q 831 750 1072 558 
Q 1313 366 1741 366 
Q 2156 366 2422 653 
Q 2688 941 2688 1388 
Q 2688 1844 2409 2119 
Q 2131 2394 1691 2394 
Q 1191 2394 856 1966 
L 372 1991 
L 709 4397 
L 3041 4397 
L 3041 3853 
L 1131 3853 
L 941 2619 
z
" id="HelveticaWorld-Regular-35" transform="scale(0.015625)"/>
       </defs>
       <use xlink:href="#HelveticaWorld-Regular-30"/>
       <use x="55.615234" xlink:href="#HelveticaWorld-Regular-2e"/>
       <use x="83.398438" xlink:href="#HelveticaWorld-Regular-35"/>
       <use x="139.013672" xlink:href="#HelveticaWorld-Regular-30"/>
      </g>
     </g>
    </g>
    <g id="ytick_2">
     <g id="line2d_4">
      <g>
       <use style="stroke:#000000;stroke-width:2;" x="113.55" xlink:href="#m4c47545182" y="534.32"/>
      </g>
     </g>
     <g id="text_4">
      <!-- 0.55 -->
      <g transform="translate(45.559375 544.369375)scale(0.28 -0.28)">
       <use xlink:href="#HelveticaWorld-Regular-30"/>
       <use x="55.615234" xlink:href="#HelveticaWorld-Regular-2e"/>
       <use x="83.398438" xlink:href="#HelveticaWorld-Regular-35"/>
       <use x="139.013672" xlink:href="#HelveticaWorld-Regular-35"/>
      </g>
     </g>
    </g>
    <g id="ytick_3">
     <g id="line2d_5">
      <g>
       <use style="stroke:#000000;stroke-width:2;" x="113.55" xlink:href="#m4c47545182" y="405.94"/>
      </g>
     </g>
     <g id="text_5">
      <!-- 0.60 -->
      <g transform="translate(45.559375 415.989375)scale(0.28 -0.28)">
       <defs>
        <path d="M 903 1381 
Q 903 941 1165 662 
Q 1428 384 1850 384 
Q 2253 384 2492 668 
Q 2731 953 2731 1416 
Q 2731 1819 2495 2091 
Q 2259 2363 1825 2363 
Q 1403 2363 1153 2097 
Q 903 1831 903 1381 
z
M 2669 3303 
Q 2606 3647 2414 3820 
Q 2222 3994 1894 3994 
Q 1375 3994 1103 3487 
Q 831 2981 825 2328 
L 838 2316 
Q 1197 2869 1906 2869 
Q 2472 2869 2894 2494 
Q 3316 2119 3316 1441 
Q 3316 769 2916 323 
Q 2516 -122 1838 -122 
Q 1056 -122 650 434 
Q 244 991 244 2094 
Q 244 3156 659 3828 
Q 1075 4500 1906 4500 
Q 2444 4500 2816 4179 
Q 3188 3859 3219 3303 
L 2669 3303 
z
" id="HelveticaWorld-Regular-36" transform="scale(0.015625)"/>
       </defs>
       <use xlink:href="#HelveticaWorld-Regular-30"/>
       <use x="55.615234" xlink:href="#HelveticaWorld-Regular-2e"/>
       <use x="83.398438" xlink:href="#HelveticaWorld-Regular-36"/>
       <use x="139.013672" xlink:href="#HelveticaWorld-Regular-30"/>
      </g>
     </g>
    </g>
    <g id="ytick_4">
     <g id="line2d_6">
      <g>
       <use style="stroke:#000000;stroke-width:2;" x="113.55" xlink:href="#m4c47545182" y="277.56"/>
      </g>
     </g>
     <g id="text_6">
      <!-- 0.65 -->
      <g transform="translate(45.559375 287.609375)scale(0.28 -0.28)">
       <use xlink:href="#HelveticaWorld-Regular-30"/>
       <use x="55.615234" xlink:href="#HelveticaWorld-Regular-2e"/>
       <use x="83.398438" xlink:href="#HelveticaWorld-Regular-36"/>
       <use x="139.013672" xlink:href="#HelveticaWorld-Regular-35"/>
      </g>
     </g>
    </g>
    <g id="ytick_5">
     <g id="line2d_7">
      <g>
       <use style="stroke:#000000;stroke-width:2;" x="113.55" xlink:href="#m4c47545182" y="149.18"/>
      </g>
     </g>
     <g id="text_7">
      <!-- 0.70 -->
      <g transform="translate(45.559375 159.229375)scale(0.28 -0.28)">
       <defs>
        <path d="M 238 4403 
L 3347 4403 
L 3347 3909 
Q 2706 3256 2175 2143 
Q 1644 1031 1497 0 
L 878 0 
Q 972 850 1500 1954 
Q 2028 3059 2713 3853 
L 238 3853 
L 238 4403 
z
" id="HelveticaWorld-Regular-37" transform="scale(0.015625)"/>
       </defs>
       <use xlink:href="#HelveticaWorld-Regular-30"/>
       <use x="55.615234" xlink:href="#HelveticaWorld-Regular-2e"/>
       <use x="83.398438" xlink:href="#HelveticaWorld-Regular-37"/>
       <use x="139.013672" xlink:href="#HelveticaWorld-Regular-30"/>
      </g>
     </g>
    </g>
    <g id="ytick_6">
     <g id="line2d_8">
      <g>
       <use style="stroke:#000000;stroke-width:2;" x="113.55" xlink:href="#m4c47545182" y="20.8"/>
      </g>
     </g>
     <g id="text_8">
      <!-- 0.75 -->
      <g transform="translate(45.559375 30.849375)scale(0.28 -0.28)">
       <use xlink:href="#HelveticaWorld-Regular-30"/>
       <use x="55.615234" xlink:href="#HelveticaWorld-Regular-2e"/>
       <use x="83.398438" xlink:href="#HelveticaWorld-Regular-37"/>
       <use x="139.013672" xlink:href="#HelveticaWorld-Regular-35"/>
      </g>
     </g>
    </g>
    <g id="text_9">
     <!-- Accuracy -->
     <g transform="translate(34.286563 411.516406)rotate(-90)scale(0.34 -0.34)">
      <defs>
       <path d="M 2816 1888 
L 2138 3909 
L 2125 3909 
L 1388 1888 
L 2816 1888 
z
M 1197 1338 
L 716 0 
L 78 0 
L 1806 4594 
L 2509 4594 
L 4172 0 
L 3494 0 
L 3041 1338 
L 1197 1338 
z
" id="HelveticaWorld-Regular-41" transform="scale(0.015625)"/>
       <path d="M 391 3347 
L 953 3347 
L 953 1125 
Q 953 756 1120 573 
Q 1288 391 1600 391 
Q 2034 391 2278 698 
Q 2522 1006 2522 1503 
L 2522 3347 
L 3084 3347 
L 3084 0 
L 2553 0 
L 2553 488 
L 2541 500 
Q 2222 -97 1478 -97 
Q 997 -97 694 165 
Q 391 428 391 941 
L 391 3347 
z
" id="HelveticaWorld-Regular-75" transform="scale(0.015625)"/>
       <path d="M 984 0 
L 422 0 
L 422 3347 
L 953 3347 
L 953 2791 
L 966 2791 
Q 1331 3444 1906 3444 
Q 1997 3444 2053 3425 
L 2053 2841 
L 1844 2841 
Q 1466 2841 1225 2584 
Q 984 2328 984 1947 
L 984 0 
z
" id="HelveticaWorld-Regular-72" transform="scale(0.015625)"/>
       <path d="M 2456 1709 
Q 2394 1644 2211 1603 
Q 2028 1563 1528 1497 
Q 1159 1453 986 1315 
Q 813 1178 813 953 
Q 813 678 959 525 
Q 1106 372 1428 372 
Q 1831 372 2143 601 
Q 2456 831 2456 1159 
L 2456 1709 
z
M 397 2328 
Q 416 2894 764 3169 
Q 1113 3444 1778 3444 
Q 2309 3444 2668 3203 
Q 3028 2963 3028 2509 
L 3028 581 
Q 3028 384 3206 384 
Q 3278 384 3391 409 
L 3391 0 
Q 3238 -63 3072 -63 
Q 2784 -63 2643 60 
Q 2503 184 2497 447 
Q 2016 -97 1288 -97 
Q 813 -97 525 172 
Q 238 441 238 872 
Q 238 1313 488 1584 
Q 738 1856 1216 1913 
L 2209 2034 
Q 2478 2075 2478 2431 
Q 2478 2694 2283 2834 
Q 2088 2975 1691 2975 
Q 1338 2975 1148 2819 
Q 959 2663 922 2328 
L 397 2328 
z
" id="HelveticaWorld-Regular-61" transform="scale(0.015625)"/>
       <path d="M 2497 3347 
L 3109 3347 
L 1913 63 
Q 1881 -25 1850 -103 
Q 1578 -828 1381 -1098 
Q 1184 -1369 744 -1369 
Q 513 -1369 366 -1319 
L 366 -806 
Q 525 -863 716 -863 
Q 922 -863 1017 -733 
Q 1113 -603 1300 -97 
L 56 3347 
L 691 3347 
L 1588 622 
L 1600 622 
L 2497 3347 
z
" id="HelveticaWorld-Regular-79" transform="scale(0.015625)"/>
      </defs>
      <use xlink:href="#HelveticaWorld-Regular-41"/>
      <use x="65.699219" xlink:href="#HelveticaWorld-Regular-63"/>
      <use x="116.96875" xlink:href="#HelveticaWorld-Regular-63"/>
      <use x="168.238281" xlink:href="#HelveticaWorld-Regular-75"/>
      <use x="223.023438" xlink:href="#HelveticaWorld-Regular-72"/>
      <use x="254.591797" xlink:href="#HelveticaWorld-Regular-61"/>
      <use x="309.523438" xlink:href="#HelveticaWorld-Regular-63"/>
      <use x="360.792969" xlink:href="#HelveticaWorld-Regular-79"/>
     </g>
    </g>
   </g>
   <g id="line2d_9">
    <path clip-path="url(#pd80b0e85fc)" d="M 173.71875 318.461188 
L 173.71875 292.544676 
" style="fill:none;stroke:#000000;stroke-linecap:square;stroke-width:2.7;"/>
   </g>
   <g id="line2d_10">
    <path clip-path="url(#pd80b0e85fc)" d="M 161.685 318.461188 
L 185.7525 318.461188 
" style="fill:none;stroke:#000000;stroke-linecap:square;stroke-width:2.7;"/>
   </g>
   <g id="line2d_11">
    <path clip-path="url(#pd80b0e85fc)" d="M 161.685 292.544676 
L 185.7525 292.544676 
" style="fill:none;stroke:#000000;stroke-linecap:square;stroke-width:2.7;"/>
   </g>
   <g id="line2d_12">
    <path clip-path="url(#pd80b0e85fc)" d="M 294.05625 438.73112 
L 294.05625 374.014333 
" style="fill:none;stroke:#000000;stroke-linecap:square;stroke-width:2.7;"/>
   </g>
   <g id="line2d_13">
    <path clip-path="url(#pd80b0e85fc)" d="M 282.0225 438.73112 
L 306.09 438.73112 
" style="fill:none;stroke:#000000;stroke-linecap:square;stroke-width:2.7;"/>
   </g>
   <g id="line2d_14">
    <path clip-path="url(#pd80b0e85fc)" d="M 282.0225 374.014333 
L 306.09 374.014333 
" style="fill:none;stroke:#000000;stroke-linecap:square;stroke-width:2.7;"/>
   </g>
   <g id="patch_5">
    <path d="M 113.55 662.7 
L 113.55 20.8 
" style="fill:none;stroke:#000000;stroke-linecap:square;stroke-linejoin:miter;stroke-width:2;"/>
   </g>
   <g id="patch_6">
    <path d="M 113.55 662.7 
L 354.225 662.7 
" style="fill:none;stroke:#000000;stroke-linecap:square;stroke-linejoin:miter;stroke-width:2;"/>
   </g>
  </g>
  <g id="axes_2">
   <g id="patch_7">
    <path d="M 468.525 662.7 
L 709.2 662.7 
L 709.2 20.8 
L 468.525 20.8 
z
" style="fill:#ffffff;"/>
   </g>
   <g id="PolyCollection_1">
    <defs>
     <path d="M 590.710009 -80.096662 
L 587.014991 -80.096662 
L 586.492505 -84.97443 
L 585.865015 -89.852197 
L 585.124248 -94.729965 
L 584.264738 -99.607733 
L 583.28463 -104.485501 
L 582.1863 -109.363269 
L 580.976713 -114.241037 
L 579.667378 -119.118805 
L 578.273844 -123.996573 
L 576.814682 -128.874341 
L 575.309961 -133.752109 
L 573.779276 -138.629877 
L 572.239473 -143.507645 
L 570.702244 -148.385413 
L 569.171825 -153.26318 
L 567.643057 -158.140948 
L 566.10006 -163.018716 
L 564.515732 -167.896484 
L 562.852245 -172.774252 
L 561.062602 -177.65202 
L 559.093244 -182.529788 
L 556.887574 -187.407556 
L 554.390186 -192.285324 
L 551.551485 -197.163092 
L 548.332353 -202.04086 
L 544.708482 -206.918628 
L 540.674008 -211.796395 
L 536.244126 -216.674163 
L 531.456441 -221.551931 
L 526.370915 -226.429699 
L 521.068342 -231.307467 
L 515.64745 -236.185235 
L 510.220771 -241.063003 
L 504.909557 -245.940771 
L 499.838062 -250.818539 
L 495.12757 -255.696307 
L 490.890552 -260.574075 
L 487.225338 -265.451843 
L 484.211639 -270.32961 
L 481.907201 -275.207378 
L 480.345776 -280.085146 
L 479.536517 -284.962914 
L 479.464773 -289.840682 
L 480.094174 -294.71845 
L 481.369805 -299.596218 
L 483.222173 -304.473986 
L 485.571649 -309.351754 
L 488.333033 -314.229522 
L 491.4199 -319.10729 
L 494.748456 -323.985058 
L 498.240672 -328.862825 
L 501.82657 -333.740593 
L 505.445609 -338.618361 
L 509.047241 -343.496129 
L 512.590717 -348.373897 
L 516.04435 -353.251665 
L 519.384398 -358.129433 
L 522.593782 -363.007201 
L 525.660787 -367.884969 
L 528.577902 -372.762737 
L 531.340859 -377.640505 
L 533.947932 -382.518273 
L 536.399462 -387.39604 
L 538.697608 -392.273808 
L 540.846242 -397.151576 
L 542.85094 -402.029344 
L 544.719031 -406.907112 
L 546.459633 -411.78488 
L 548.08367 -416.662648 
L 549.603838 -421.540416 
L 551.034508 -426.418184 
L 552.391549 -431.295952 
L 553.69207 -436.17372 
L 554.954052 -441.051488 
L 556.195872 -445.929255 
L 557.435704 -450.807023 
L 558.690812 -455.684791 
L 559.976752 -460.562559 
L 561.306533 -465.440327 
L 562.689801 -470.318095 
L 564.132113 -475.195863 
L 565.634399 -480.073631 
L 567.192673 -484.951399 
L 568.798059 -489.829167 
L 570.437156 -494.706935 
L 572.092739 -499.584703 
L 573.744749 -504.46247 
L 575.371498 -509.340238 
L 576.950979 -514.218006 
L 578.462184 -519.095774 
L 579.886292 -523.973542 
L 581.207658 -528.85131 
L 582.414513 -533.729078 
L 583.499338 -538.606846 
L 584.458921 -543.484614 
L 585.294117 -548.362382 
L 586.00936 -553.24015 
L 586.612013 -558.117918 
L 587.111615 -562.995686 
L 590.613385 -562.995686 
L 590.613385 -562.995686 
L 591.112987 -558.117918 
L 591.71564 -553.24015 
L 592.430883 -548.362382 
L 593.266079 -543.484614 
L 594.225662 -538.606846 
L 595.310487 -533.729078 
L 596.517342 -528.85131 
L 597.838708 -523.973542 
L 599.262816 -519.095774 
L 600.774021 -514.218006 
L 602.353502 -509.340238 
L 603.980251 -504.46247 
L 605.632261 -499.584703 
L 607.287844 -494.706935 
L 608.926941 -489.829167 
L 610.532327 -484.951399 
L 612.090601 -480.073631 
L 613.592887 -475.195863 
L 615.035199 -470.318095 
L 616.418467 -465.440327 
L 617.748248 -460.562559 
L 619.034188 -455.684791 
L 620.289296 -450.807023 
L 621.529128 -445.929255 
L 622.770948 -441.051488 
L 624.03293 -436.17372 
L 625.333451 -431.295952 
L 626.690492 -426.418184 
L 628.121162 -421.540416 
L 629.64133 -416.662648 
L 631.265367 -411.78488 
L 633.005969 -406.907112 
L 634.87406 -402.029344 
L 636.878758 -397.151576 
L 639.027392 -392.273808 
L 641.325538 -387.39604 
L 643.777068 -382.518273 
L 646.384141 -377.640505 
L 649.147098 -372.762737 
L 652.064213 -367.884969 
L 655.131218 -363.007201 
L 658.340602 -358.129433 
L 661.68065 -353.251665 
L 665.134283 -348.373897 
L 668.677759 -343.496129 
L 672.279391 -338.618361 
L 675.89843 -333.740593 
L 679.484328 -328.862825 
L 682.976544 -323.985058 
L 686.3051 -319.10729 
L 689.391967 -314.229522 
L 692.153351 -309.351754 
L 694.502827 -304.473986 
L 696.355195 -299.596218 
L 697.630826 -294.71845 
L 698.260227 -289.840682 
L 698.188483 -284.962914 
L 697.379224 -280.085146 
L 695.817799 -275.207378 
L 693.513361 -270.32961 
L 690.499662 -265.451843 
L 686.834448 -260.574075 
L 682.59743 -255.696307 
L 677.886938 -250.818539 
L 672.815443 -245.940771 
L 667.504229 -241.063003 
L 662.07755 -236.185235 
L 656.656658 -231.307467 
L 651.354085 -226.429699 
L 646.268559 -221.551931 
L 641.480874 -216.674163 
L 637.050992 -211.796395 
L 633.016518 -206.918628 
L 629.392647 -202.04086 
L 626.173515 -197.163092 
L 623.334814 -192.285324 
L 620.837426 -187.407556 
L 618.631756 -182.529788 
L 616.662398 -177.65202 
L 614.872755 -172.774252 
L 613.209268 -167.896484 
L 611.62494 -163.018716 
L 610.081943 -158.140948 
L 608.553175 -153.26318 
L 607.022756 -148.385413 
L 605.485527 -143.507645 
L 603.945724 -138.629877 
L 602.415039 -133.752109 
L 600.910318 -128.874341 
L 599.451156 -123.996573 
L 598.057622 -119.118805 
L 596.748287 -114.241037 
L 595.5387 -109.363269 
L 594.44037 -104.485501 
L 593.460262 -99.607733 
L 592.600752 -94.729965 
L 591.859985 -89.852197 
L 591.232495 -84.97443 
L 590.710009 -80.096662 
z
" id="m727c95f711" style="stroke:#7a7a7a;stroke-width:1.5;"/>
    </defs>
    <g clip-path="url(#p3234adc85c)">
     <use style="fill:#cccccc;stroke:#7a7a7a;stroke-width:1.5;" x="0" xlink:href="#m727c95f711" y="720"/>
    </g>
   </g>
   <g id="matplotlib.axis_3">
    <g id="xtick_3">
     <g id="line2d_15"/>
    </g>
   </g>
   <g id="matplotlib.axis_4">
    <g id="ytick_7">
     <g id="line2d_16">
      <g>
       <use style="stroke:#000000;stroke-width:2;" x="468.525" xlink:href="#m4c47545182" y="662.7"/>
      </g>
     </g>
     <g id="text_10">
      <!-- −0.2 -->
      <g transform="translate(399.69875 672.749375)scale(0.28 -0.28)">
       <defs>
        <path d="M 3494 1381 
L 256 1381 
L 256 1850 
L 3494 1850 
L 3494 1381 
z
" id="HelveticaWorld-Regular-2212" transform="scale(0.015625)"/>
        <path d="M 281 2888 
Q 281 3681 690 4090 
Q 1100 4500 1838 4500 
Q 2456 4500 2850 4125 
Q 3244 3750 3244 3156 
Q 3244 2694 3017 2376 
Q 2791 2059 2350 1819 
L 1575 1394 
Q 891 1019 800 531 
L 3244 531 
L 3244 0 
L 166 0 
Q 191 634 441 1056 
Q 691 1478 1222 1784 
L 2028 2253 
Q 2350 2438 2497 2636 
Q 2644 2834 2644 3181 
Q 2644 3525 2403 3759 
Q 2163 3994 1753 3994 
Q 1300 3994 1075 3695 
Q 850 3397 844 2888 
L 281 2888 
z
" id="HelveticaWorld-Regular-32" transform="scale(0.015625)"/>
       </defs>
       <use xlink:href="#HelveticaWorld-Regular-2212"/>
       <use x="58.59375" xlink:href="#HelveticaWorld-Regular-30"/>
       <use x="114.208984" xlink:href="#HelveticaWorld-Regular-2e"/>
       <use x="141.992188" xlink:href="#HelveticaWorld-Regular-32"/>
      </g>
     </g>
    </g>
    <g id="ytick_8">
     <g id="line2d_17">
      <g>
       <use style="stroke:#000000;stroke-width:2;" x="468.525" xlink:href="#m4c47545182" y="555.716667"/>
      </g>
     </g>
     <g id="text_11">
      <!-- −0.1 -->
      <g transform="translate(399.69875 565.766042)scale(0.28 -0.28)">
       <defs>
        <path d="M 2297 0 
L 1697 0 
L 1697 3194 
L 647 3194 
L 647 3641 
Q 1197 3659 1465 3817 
Q 1734 3975 1856 4500 
L 2297 4500 
L 2297 0 
z
" id="HelveticaWorld-Regular-31" transform="scale(0.015625)"/>
       </defs>
       <use xlink:href="#HelveticaWorld-Regular-2212"/>
       <use x="58.59375" xlink:href="#HelveticaWorld-Regular-30"/>
       <use x="114.208984" xlink:href="#HelveticaWorld-Regular-2e"/>
       <use x="141.992188" xlink:href="#HelveticaWorld-Regular-31"/>
      </g>
     </g>
    </g>
    <g id="ytick_9">
     <g id="line2d_18">
      <g>
       <use style="stroke:#000000;stroke-width:2;" x="468.525" xlink:href="#m4c47545182" y="448.733333"/>
      </g>
     </g>
     <g id="text_12">
      <!-- 0.0 -->
      <g transform="translate(416.105 458.782708)scale(0.28 -0.28)">
       <use xlink:href="#HelveticaWorld-Regular-30"/>
       <use x="55.615234" xlink:href="#HelveticaWorld-Regular-2e"/>
       <use x="83.398438" xlink:href="#HelveticaWorld-Regular-30"/>
      </g>
     </g>
    </g>
    <g id="ytick_10">
     <g id="line2d_19">
      <g>
       <use style="stroke:#000000;stroke-width:2;" x="468.525" xlink:href="#m4c47545182" y="341.75"/>
      </g>
     </g>
     <g id="text_13">
      <!-- 0.1 -->
      <g transform="translate(416.105 351.799375)scale(0.28 -0.28)">
       <use xlink:href="#HelveticaWorld-Regular-30"/>
       <use x="55.615234" xlink:href="#HelveticaWorld-Regular-2e"/>
       <use x="83.398438" xlink:href="#HelveticaWorld-Regular-31"/>
      </g>
     </g>
    </g>
    <g id="ytick_11">
     <g id="line2d_20">
      <g>
       <use style="stroke:#000000;stroke-width:2;" x="468.525" xlink:href="#m4c47545182" y="234.766667"/>
      </g>
     </g>
     <g id="text_14">
      <!-- 0.2 -->
      <g transform="translate(416.105 244.816042)scale(0.28 -0.28)">
       <use xlink:href="#HelveticaWorld-Regular-30"/>
       <use x="55.615234" xlink:href="#HelveticaWorld-Regular-2e"/>
       <use x="83.398438" xlink:href="#HelveticaWorld-Regular-32"/>
      </g>
     </g>
    </g>
    <g id="ytick_12">
     <g id="line2d_21">
      <g>
       <use style="stroke:#000000;stroke-width:2;" x="468.525" xlink:href="#m4c47545182" y="127.783333"/>
      </g>
     </g>
     <g id="text_15">
      <!-- 0.3 -->
      <g transform="translate(416.105 137.832708)scale(0.28 -0.28)">
       <defs>
        <path d="M 1434 2559 
Q 1575 2547 1728 2547 
Q 2125 2547 2354 2730 
Q 2584 2913 2584 3284 
Q 2584 3584 2370 3789 
Q 2156 3994 1753 3994 
Q 1306 3994 1098 3731 
Q 891 3469 878 3028 
L 325 3028 
Q 325 3731 694 4115 
Q 1063 4500 1778 4500 
Q 2413 4500 2791 4173 
Q 3169 3847 3169 3316 
Q 3169 2631 2591 2388 
L 2591 2375 
Q 3341 2119 3341 1325 
Q 3341 691 2919 284 
Q 2497 -122 1722 -122 
Q 1088 -122 678 211 
Q 269 544 219 1375 
L 800 1375 
Q 813 856 1056 620 
Q 1300 384 1759 384 
Q 2203 384 2472 631 
Q 2741 878 2741 1253 
Q 2741 1663 2484 1872 
Q 2228 2081 1691 2081 
Q 1563 2081 1434 2075 
L 1434 2559 
z
" id="HelveticaWorld-Regular-33" transform="scale(0.015625)"/>
       </defs>
       <use xlink:href="#HelveticaWorld-Regular-30"/>
       <use x="55.615234" xlink:href="#HelveticaWorld-Regular-2e"/>
       <use x="83.398438" xlink:href="#HelveticaWorld-Regular-33"/>
      </g>
     </g>
    </g>
    <g id="ytick_13">
     <g id="line2d_22">
      <g>
       <use style="stroke:#000000;stroke-width:2;" x="468.525" xlink:href="#m4c47545182" y="20.8"/>
      </g>
     </g>
     <g id="text_16">
      <!-- 0.4 -->
      <g transform="translate(416.105 30.849375)scale(0.28 -0.28)">
       <defs>
        <path d="M 678 1581 
L 2125 1581 
L 2125 3622 
L 2113 3622 
L 678 1581 
z
M 2688 1094 
L 2688 0 
L 2125 0 
L 2125 1094 
L 159 1094 
L 159 1644 
L 2222 4500 
L 2688 4500 
L 2688 1581 
L 3347 1581 
L 3347 1094 
L 2688 1094 
z
" id="HelveticaWorld-Regular-34" transform="scale(0.015625)"/>
       </defs>
       <use xlink:href="#HelveticaWorld-Regular-30"/>
       <use x="55.615234" xlink:href="#HelveticaWorld-Regular-2e"/>
       <use x="83.398438" xlink:href="#HelveticaWorld-Regular-34"/>
      </g>
     </g>
    </g>
    <g id="text_17">
     <!-- Δ Accuracy -->
     <g transform="translate(388.425938 426.890781)rotate(-90)scale(0.34 -0.34)">
      <defs>
       <path d="M 941 550 
L 3244 550 
L 2125 3891 
L 2113 3891 
L 941 550 
z
M 97 0 
L 1831 4594 
L 2456 4594 
L 4128 0 
L 97 0 
z
" id="HelveticaWorld-Regular-394" transform="scale(0.015625)"/>
       <path id="HelveticaWorld-Regular-20" transform="scale(0.015625)"/>
      </defs>
      <use xlink:href="#HelveticaWorld-Regular-394"/>
      <use x="66.015625" xlink:href="#HelveticaWorld-Regular-20"/>
      <use x="90.429688" xlink:href="#HelveticaWorld-Regular-41"/>
      <use x="156.128906" xlink:href="#HelveticaWorld-Regular-63"/>
      <use x="207.398438" xlink:href="#HelveticaWorld-Regular-63"/>
      <use x="258.667969" xlink:href="#HelveticaWorld-Regular-75"/>
      <use x="313.453125" xlink:href="#HelveticaWorld-Regular-72"/>
      <use x="345.021484" xlink:href="#HelveticaWorld-Regular-61"/>
      <use x="399.953125" xlink:href="#HelveticaWorld-Regular-63"/>
      <use x="451.222656" xlink:href="#HelveticaWorld-Regular-79"/>
     </g>
    </g>
   </g>
   <g id="line2d_23">
    <path clip-path="url(#p3234adc85c)" d="M 561.513068 407.832472 
L 616.211932 407.832472 
" style="fill:none;stroke:#000000;stroke-linecap:square;stroke-width:4;"/>
   </g>
   <g id="line2d_24">
    <path clip-path="url(#p3234adc85c)" d="M 588.8625 438.035 
L 588.8625 384.543333 
" style="fill:none;stroke:#000000;stroke-linecap:square;stroke-width:3;"/>
   </g>
   <g id="line2d_25">
    <path clip-path="url(#p3234adc85c)" d="M 580.65767 438.035 
L 597.06733 438.035 
" style="fill:none;stroke:#000000;stroke-linecap:square;stroke-width:3;"/>
   </g>
   <g id="line2d_26">
    <path clip-path="url(#p3234adc85c)" d="M 580.65767 384.543333 
L 597.06733 384.543333 
" style="fill:none;stroke:#000000;stroke-linecap:square;stroke-width:3;"/>
   </g>
   <g id="line2d_27">
    <path clip-path="url(#p3234adc85c)" d="M 468.525 448.733333 
L 709.2 448.733333 
" style="fill:none;stroke:#000000;stroke-dasharray:5.55,2.4;stroke-dashoffset:0;stroke-width:1.5;"/>
   </g>
   <g id="patch_8">
    <path d="M 468.525 662.7 
L 468.525 20.8 
" style="fill:none;stroke:#000000;stroke-linecap:square;stroke-linejoin:miter;stroke-width:2;"/>
   </g>
   <g id="PathCollection_1">
    <defs>
     <path d="M 0 2.5 
C 0.663008 2.5 1.29895 2.236584 1.767767 1.767767 
C 2.236584 1.29895 2.5 0.663008 2.5 -0 
C 2.5 -0.663008 2.236584 -1.29895 1.767767 -1.767767 
C 1.29895 -2.236584 0.663008 -2.5 0 -2.5 
C -0.663008 -2.5 -1.29895 -2.236584 -1.767767 -1.767767 
C -2.236584 -1.29895 -2.5 -0.663008 -2.5 0 
C -2.5 0.663008 -2.236584 1.29895 -1.767767 1.767767 
C -1.29895 2.236584 -0.663008 2.5 0 2.5 
z
" id="C0_0_0aa5c44b95"/>
    </defs>
    <g clip-path="url(#p3234adc85c)">
     <use style="fill-opacity:0.5;" x="602.081117" xlink:href="#C0_0_0aa5c44b95" y="425.808333"/>
    </g>
    <g clip-path="url(#p3234adc85c)">
     <use style="fill-opacity:0.5;" x="594.664255" xlink:href="#C0_0_0aa5c44b95" y="535.776366"/>
    </g>
    <g clip-path="url(#p3234adc85c)">
     <use style="fill-opacity:0.5;" x="571.15877" xlink:href="#C0_0_0aa5c44b95" y="404.32437"/>
    </g>
    <g clip-path="url(#p3234adc85c)">
     <use style="fill-opacity:0.5;" x="582.229094" xlink:href="#C0_0_0aa5c44b95" y="238.203882"/>
    </g>
    <g clip-path="url(#p3234adc85c)">
     <use style="fill-opacity:0.5;" x="605.975149" xlink:href="#C0_0_0aa5c44b95" y="378.626712"/>
    </g>
    <g clip-path="url(#p3234adc85c)">
     <use style="fill-opacity:0.5;" x="574.851798" xlink:href="#C0_0_0aa5c44b95" y="367.467757"/>
    </g>
    <g clip-path="url(#p3234adc85c)">
     <use style="fill-opacity:0.5;" x="591.906036" xlink:href="#C0_0_0aa5c44b95" y="439.424208"/>
    </g>
    <g clip-path="url(#p3234adc85c)">
     <use style="fill-opacity:0.5;" x="580.147662" xlink:href="#C0_0_0aa5c44b95" y="471.689781"/>
    </g>
    <g clip-path="url(#p3234adc85c)">
     <use style="fill-opacity:0.5;" x="582.446665" xlink:href="#C0_0_0aa5c44b95" y="440.035501"/>
    </g>
    <g clip-path="url(#p3234adc85c)">
     <use style="fill-opacity:0.5;" x="596.720434" xlink:href="#C0_0_0aa5c44b95" y="481.472811"/>
    </g>
    <g clip-path="url(#p3234adc85c)">
     <use style="fill-opacity:0.5;" x="600.660511" xlink:href="#C0_0_0aa5c44b95" y="310.585107"/>
    </g>
    <g clip-path="url(#p3234adc85c)">
     <use style="fill-opacity:0.5;" x="577.697986" xlink:href="#C0_0_0aa5c44b95" y="441.800885"/>
    </g>
    <g clip-path="url(#p3234adc85c)">
     <use style="fill-opacity:0.5;" x="571.841571" xlink:href="#C0_0_0aa5c44b95" y="440.921719"/>
    </g>
    <g clip-path="url(#p3234adc85c)">
     <use style="fill-opacity:0.5;" x="594.082788" xlink:href="#C0_0_0aa5c44b95" y="436.414292"/>
    </g>
    <g clip-path="url(#p3234adc85c)">
     <use style="fill-opacity:0.5;" x="584.023489" xlink:href="#C0_0_0aa5c44b95" y="370.452846"/>
    </g>
    <g clip-path="url(#p3234adc85c)">
     <use style="fill-opacity:0.5;" x="575.207533" xlink:href="#C0_0_0aa5c44b95" y="445.993293"/>
    </g>
    <g clip-path="url(#p3234adc85c)">
     <use style="fill-opacity:0.5;" x="588.80605" xlink:href="#C0_0_0aa5c44b95" y="285.763429"/>
    </g>
    <g clip-path="url(#p3234adc85c)">
     <use style="fill-opacity:0.5;" x="579.170973" xlink:href="#C0_0_0aa5c44b95" y="342.318053"/>
    </g>
    <g clip-path="url(#p3234adc85c)">
     <use style="fill-opacity:0.5;" x="592.342144" xlink:href="#C0_0_0aa5c44b95" y="236.464815"/>
    </g>
    <g clip-path="url(#p3234adc85c)">
     <use style="fill-opacity:0.5;" x="570.083101" xlink:href="#C0_0_0aa5c44b95" y="488.301758"/>
    </g>
    <g clip-path="url(#p3234adc85c)">
     <use style="fill-opacity:0.5;" x="592.385744" xlink:href="#C0_0_0aa5c44b95" y="468.273668"/>
    </g>
    <g clip-path="url(#p3234adc85c)">
     <use style="fill-opacity:0.5;" x="588.785207" xlink:href="#C0_0_0aa5c44b95" y="447.186586"/>
    </g>
    <g clip-path="url(#p3234adc85c)">
     <use style="fill-opacity:0.5;" x="587.837771" xlink:href="#C0_0_0aa5c44b95" y="341.320348"/>
    </g>
    <g clip-path="url(#p3234adc85c)">
     <use style="fill-opacity:0.5;" x="604.492967" xlink:href="#C0_0_0aa5c44b95" y="422.220665"/>
    </g>
    <g clip-path="url(#p3234adc85c)">
     <use style="fill-opacity:0.5;" x="575.367414" xlink:href="#C0_0_0aa5c44b95" y="362.637222"/>
    </g>
    <g clip-path="url(#p3234adc85c)">
     <use style="fill-opacity:0.5;" x="588.791786" xlink:href="#C0_0_0aa5c44b95" y="559.520913"/>
    </g>
    <g clip-path="url(#p3234adc85c)">
     <use style="fill-opacity:0.5;" x="601.164531" xlink:href="#C0_0_0aa5c44b95" y="312.145157"/>
    </g>
    <g clip-path="url(#p3234adc85c)">
     <use style="fill-opacity:0.5;" x="587.570263" xlink:href="#C0_0_0aa5c44b95" y="270.427778"/>
    </g>
    <g clip-path="url(#p3234adc85c)">
     <use style="fill-opacity:0.5;" x="596.849162" xlink:href="#C0_0_0aa5c44b95" y="392.41824"/>
    </g>
    <g clip-path="url(#p3234adc85c)">
     <use style="fill-opacity:0.5;" x="586.499826" xlink:href="#C0_0_0aa5c44b95" y="560.442838"/>
    </g>
    <g clip-path="url(#p3234adc85c)">
     <use style="fill-opacity:0.5;" x="607.116258" xlink:href="#C0_0_0aa5c44b95" y="461.111401"/>
    </g>
    <g clip-path="url(#p3234adc85c)">
     <use style="fill-opacity:0.5;" x="586.545564" xlink:href="#C0_0_0aa5c44b95" y="411.539461"/>
    </g>
    <g clip-path="url(#p3234adc85c)">
     <use style="fill-opacity:0.5;" x="599.394288" xlink:href="#C0_0_0aa5c44b95" y="414.77037"/>
    </g>
    <g clip-path="url(#p3234adc85c)">
     <use style="fill-opacity:0.5;" x="581.817821" xlink:href="#C0_0_0aa5c44b95" y="403.573417"/>
    </g>
    <g clip-path="url(#p3234adc85c)">
     <use style="fill-opacity:0.5;" x="586.185281" xlink:href="#C0_0_0aa5c44b95" y="464.702553"/>
    </g>
   </g>
  </g>
 </g>
 <defs>
  <clipPath id="pd80b0e85fc">
   <rect height="641.9" width="240.675" x="113.55" y="20.8"/>
  </clipPath>
  <clipPath id="p3234adc85c">
   <rect height="641.9" width="240.675" x="468.525" y="20.8"/>
  </clipPath>
 </defs>
</svg>
