<?xml version="1.0" encoding="utf-8" standalone="no"?>
<!DOCTYPE svg PUBLIC "-//W3C//DTD SVG 1.1//EN"
  "http://www.w3.org/Graphics/SVG/1.1/DTD/svg11.dtd">
<svg height="720pt" version="1.1" viewBox="0 0 720 720" width="720pt" xmlns="http://www.w3.org/2000/svg" xmlns:xlink="http://www.w3.org/1999/xlink">
 <metadata>
  <rdf:RDF xmlns:cc="http://creativecommons.org/ns#" xmlns:dc="http://purl.org/dc/elements/1.1/" xmlns:rdf="http://www.w3.org/1999/02/22-rdf-syntax-ns#">
   <cc:Work>
    <dc:type rdf:resource="http://purl.org/dc/dcmitype/StillImage"/>
    <dc:date>2024-09-11T10:52:48.095217</dc:date>
    <dc:format>image/svg+xml</dc:format>
    <dc:creator>
     <cc:Agent>
      <dc:title>Matplotlib v3.4.3, https://matplotlib.org/</dc:title>
     </cc:Agent>
    </dc:creator>
   </cc:Work>
  </rdf:RDF>
 </metadata>
 <defs>
  <style type="text/css">*{stroke-linecap:butt;stroke-linejoin:round;}</style>
 </defs>
 <g id="figure_1">
  <g id="patch_1">
   <path d="M 0 720 
L 720 720 
L 720 0 
L 0 0 
z
" style="fill:none;"/>
  </g>
  <g id="axes_1">
   <g id="patch_2">
    <path d="M 109.175 666.7 
L 352.225 666.7 
L 352.225 20.3 
L 109.175 20.3 
z
" style="fill:#ffffff;"/>
   </g>
   <g id="patch_3">
    <path clip-path="url(#pb1eb056225)" d="M 121.3275 1959.5 
L 218.5475 1959.5 
L 218.5475 300.138068 
L 121.3275 300.138068 
z
" style="fill:#72b6a1;stroke:#000000;stroke-linejoin:miter;stroke-width:2;"/>
   </g>
   <g id="patch_4">
    <path clip-path="url(#pb1eb056225)" d="M 242.8525 1959.5 
L 340.0725 1959.5 
L 340.0725 396.119044 
L 242.8525 396.119044 
z
" style="fill:#e99675;stroke:#000000;stroke-linejoin:miter;stroke-width:2;"/>
   </g>
   <g id="matplotlib.axis_1">
    <g id="xtick_1">
     <g id="line2d_1"/>
     <g id="text_1">
      <!-- Cong. -->
      <g transform="translate(129.875781 703.80625)scale(0.3 -0.3)">
       <defs>
        <path d="M 3713 3213 
Q 3609 3681 3279 3923 
Q 2950 4166 2425 4166 
Q 1747 4166 1334 3673 
Q 922 3181 922 2344 
Q 922 1375 1312 901 
Q 1703 428 2444 428 
Q 2931 428 3282 751 
Q 3634 1075 3756 1691 
L 4359 1691 
Q 4238 806 3688 342 
Q 3138 -122 2350 -122 
Q 1409 -122 845 525 
Q 281 1172 281 2322 
Q 281 3431 870 4073 
Q 1459 4716 2425 4716 
Q 3225 4716 3722 4303 
Q 4219 3891 4313 3213 
L 3713 3213 
z
" id="HelveticaWorld-Regular-43" transform="scale(0.015625)"/>
        <path d="M 813 1678 
Q 813 1119 1066 758 
Q 1319 397 1784 397 
Q 2266 397 2516 775 
Q 2766 1153 2766 1678 
Q 2766 2209 2516 2579 
Q 2266 2950 1784 2950 
Q 1338 2950 1075 2601 
Q 813 2253 813 1678 
z
M 238 1678 
Q 238 2425 653 2934 
Q 1069 3444 1784 3444 
Q 2516 3444 2928 2928 
Q 3341 2413 3341 1678 
Q 3341 941 2931 422 
Q 2522 -97 1784 -97 
Q 1075 -97 656 406 
Q 238 909 238 1678 
z
" id="HelveticaWorld-Regular-6f" transform="scale(0.015625)"/>
        <path d="M 3150 0 
L 2584 0 
L 2584 2059 
Q 2584 2534 2418 2736 
Q 2253 2938 1869 2938 
Q 1491 2938 1237 2650 
Q 984 2363 984 1825 
L 984 0 
L 422 0 
L 422 3347 
L 953 3347 
L 953 2875 
L 966 2875 
Q 1363 3444 1978 3444 
Q 2547 3444 2848 3142 
Q 3150 2841 3150 2278 
L 3150 0 
z
" id="HelveticaWorld-Regular-6e" transform="scale(0.015625)"/>
        <path d="M 831 1684 
Q 831 1069 1075 730 
Q 1319 391 1734 391 
Q 2138 391 2394 684 
Q 2650 978 2650 1516 
Q 2650 2222 2426 2580 
Q 2203 2938 1747 2938 
Q 1288 2938 1059 2633 
Q 831 2328 831 1684 
z
M 3188 191 
Q 3188 -616 2800 -1012 
Q 2413 -1409 1631 -1409 
Q 1069 -1409 736 -1150 
Q 403 -891 353 -409 
L 916 -409 
Q 959 -653 1142 -797 
Q 1325 -941 1672 -941 
Q 2144 -941 2384 -687 
Q 2625 -434 2625 134 
L 2625 372 
L 2613 372 
Q 2297 -97 1722 -97 
Q 1006 -97 628 431 
Q 250 959 250 1772 
Q 250 2516 631 2980 
Q 1013 3444 1644 3444 
Q 2278 3444 2644 2875 
L 2656 2875 
L 2656 3347 
L 3188 3347 
L 3188 191 
z
" id="HelveticaWorld-Regular-67" transform="scale(0.015625)"/>
        <path d="M 1222 0 
L 556 0 
L 556 678 
L 1222 678 
L 1222 0 
z
" id="HelveticaWorld-Regular-2e" transform="scale(0.015625)"/>
       </defs>
       <use xlink:href="#HelveticaWorld-Regular-43"/>
       <use x="72.314453" xlink:href="#HelveticaWorld-Regular-6f"/>
       <use x="128.222656" xlink:href="#HelveticaWorld-Regular-6e"/>
       <use x="183.398438" xlink:href="#HelveticaWorld-Regular-67"/>
       <use x="239.306641" xlink:href="#HelveticaWorld-Regular-2e"/>
      </g>
     </g>
    </g>
    <g id="xtick_2">
     <g id="line2d_2"/>
     <g id="text_2">
      <!-- Incong. -->
      <g transform="translate(242.414844 703.234375)scale(0.3 -0.3)">
       <defs>
        <path d="M 1141 0 
L 519 0 
L 519 4594 
L 1141 4594 
L 1141 0 
z
" id="HelveticaWorld-Regular-49" transform="scale(0.015625)"/>
        <path d="M 2534 2222 
Q 2413 2938 1741 2938 
Q 1325 2938 1072 2605 
Q 819 2272 819 1678 
Q 819 1031 1053 711 
Q 1288 391 1734 391 
Q 2034 391 2253 611 
Q 2472 831 2534 1184 
L 3078 1184 
Q 2994 563 2639 233 
Q 2284 -97 1722 -97 
Q 1063 -97 641 354 
Q 219 806 219 1581 
Q 219 2431 641 2937 
Q 1063 3444 1825 3444 
Q 2381 3444 2711 3111 
Q 3041 2778 3078 2222 
L 2534 2222 
z
" id="HelveticaWorld-Regular-63" transform="scale(0.015625)"/>
       </defs>
       <use xlink:href="#HelveticaWorld-Regular-49"/>
       <use x="25.78125" xlink:href="#HelveticaWorld-Regular-6e"/>
       <use x="80.957031" xlink:href="#HelveticaWorld-Regular-63"/>
       <use x="132.226562" xlink:href="#HelveticaWorld-Regular-6f"/>
       <use x="188.134766" xlink:href="#HelveticaWorld-Regular-6e"/>
       <use x="243.310547" xlink:href="#HelveticaWorld-Regular-67"/>
       <use x="299.21875" xlink:href="#HelveticaWorld-Regular-2e"/>
      </g>
     </g>
    </g>
   </g>
   <g id="matplotlib.axis_2">
    <g id="ytick_1">
     <g id="line2d_3">
      <defs>
       <path d="M 0 0 
L -10 0 
" id="mccdc17da21" style="stroke:#000000;stroke-width:2;"/>
      </defs>
      <g>
       <use style="stroke:#000000;stroke-width:2;" x="109.175" xlink:href="#mccdc17da21" y="666.7"/>
      </g>
     </g>
     <g id="text_3">
      <!-- 0.50 -->
      <g transform="translate(42.2375 675.818125)scale(0.24 -0.24)">
       <defs>
        <path d="M 2034 4250 
Q 1547 4250 1301 3770 
Q 1056 3291 1056 2328 
Q 1056 1369 1301 889 
Q 1547 409 2034 409 
Q 2525 409 2770 889 
Q 3016 1369 3016 2328 
Q 3016 3291 2770 3770 
Q 2525 4250 2034 4250 
z
M 2034 4750 
Q 2819 4750 3233 4129 
Q 3647 3509 3647 2328 
Q 3647 1150 3233 529 
Q 2819 -91 2034 -91 
Q 1250 -91 836 529 
Q 422 1150 422 2328 
Q 422 3509 836 4129 
Q 1250 4750 2034 4750 
z
" id="DejaVuSans-30" transform="scale(0.015625)"/>
        <path d="M 684 794 
L 1344 794 
L 1344 0 
L 684 0 
L 684 794 
z
" id="DejaVuSans-2e" transform="scale(0.015625)"/>
        <path d="M 691 4666 
L 3169 4666 
L 3169 4134 
L 1269 4134 
L 1269 2991 
Q 1406 3038 1543 3061 
Q 1681 3084 1819 3084 
Q 2600 3084 3056 2656 
Q 3513 2228 3513 1497 
Q 3513 744 3044 326 
Q 2575 -91 1722 -91 
Q 1428 -91 1123 -41 
Q 819 9 494 109 
L 494 744 
Q 775 591 1075 516 
Q 1375 441 1709 441 
Q 2250 441 2565 725 
Q 2881 1009 2881 1497 
Q 2881 1984 2565 2268 
Q 2250 2553 1709 2553 
Q 1456 2553 1204 2497 
Q 953 2441 691 2322 
L 691 4666 
z
" id="DejaVuSans-35" transform="scale(0.015625)"/>
       </defs>
       <use xlink:href="#DejaVuSans-30"/>
       <use x="63.623047" xlink:href="#DejaVuSans-2e"/>
       <use x="95.410156" xlink:href="#DejaVuSans-35"/>
       <use x="159.033203" xlink:href="#DejaVuSans-30"/>
      </g>
     </g>
    </g>
    <g id="ytick_2">
     <g id="line2d_4">
      <g>
       <use style="stroke:#000000;stroke-width:2;" x="109.175" xlink:href="#mccdc17da21" y="537.42"/>
      </g>
     </g>
     <g id="text_4">
      <!-- 0.55 -->
      <g transform="translate(42.2375 546.538125)scale(0.24 -0.24)">
       <use xlink:href="#DejaVuSans-30"/>
       <use x="63.623047" xlink:href="#DejaVuSans-2e"/>
       <use x="95.410156" xlink:href="#DejaVuSans-35"/>
       <use x="159.033203" xlink:href="#DejaVuSans-35"/>
      </g>
     </g>
    </g>
    <g id="ytick_3">
     <g id="line2d_5">
      <g>
       <use style="stroke:#000000;stroke-width:2;" x="109.175" xlink:href="#mccdc17da21" y="408.14"/>
      </g>
     </g>
     <g id="text_5">
      <!-- 0.60 -->
      <g transform="translate(42.2375 417.258125)scale(0.24 -0.24)">
       <defs>
        <path d="M 2113 2584 
Q 1688 2584 1439 2293 
Q 1191 2003 1191 1497 
Q 1191 994 1439 701 
Q 1688 409 2113 409 
Q 2538 409 2786 701 
Q 3034 994 3034 1497 
Q 3034 2003 2786 2293 
Q 2538 2584 2113 2584 
z
M 3366 4563 
L 3366 3988 
Q 3128 4100 2886 4159 
Q 2644 4219 2406 4219 
Q 1781 4219 1451 3797 
Q 1122 3375 1075 2522 
Q 1259 2794 1537 2939 
Q 1816 3084 2150 3084 
Q 2853 3084 3261 2657 
Q 3669 2231 3669 1497 
Q 3669 778 3244 343 
Q 2819 -91 2113 -91 
Q 1303 -91 875 529 
Q 447 1150 447 2328 
Q 447 3434 972 4092 
Q 1497 4750 2381 4750 
Q 2619 4750 2861 4703 
Q 3103 4656 3366 4563 
z
" id="DejaVuSans-36" transform="scale(0.015625)"/>
       </defs>
       <use xlink:href="#DejaVuSans-30"/>
       <use x="63.623047" xlink:href="#DejaVuSans-2e"/>
       <use x="95.410156" xlink:href="#DejaVuSans-36"/>
       <use x="159.033203" xlink:href="#DejaVuSans-30"/>
      </g>
     </g>
    </g>
    <g id="ytick_4">
     <g id="line2d_6">
      <g>
       <use style="stroke:#000000;stroke-width:2;" x="109.175" xlink:href="#mccdc17da21" y="278.86"/>
      </g>
     </g>
     <g id="text_6">
      <!-- 0.65 -->
      <g transform="translate(42.2375 287.978125)scale(0.24 -0.24)">
       <use xlink:href="#DejaVuSans-30"/>
       <use x="63.623047" xlink:href="#DejaVuSans-2e"/>
       <use x="95.410156" xlink:href="#DejaVuSans-36"/>
       <use x="159.033203" xlink:href="#DejaVuSans-35"/>
      </g>
     </g>
    </g>
    <g id="ytick_5">
     <g id="line2d_7">
      <g>
       <use style="stroke:#000000;stroke-width:2;" x="109.175" xlink:href="#mccdc17da21" y="149.58"/>
      </g>
     </g>
     <g id="text_7">
      <!-- 0.70 -->
      <g transform="translate(42.2375 158.698125)scale(0.24 -0.24)">
       <defs>
        <path d="M 525 4666 
L 3525 4666 
L 3525 4397 
L 1831 0 
L 1172 0 
L 2766 4134 
L 525 4134 
L 525 4666 
z
" id="DejaVuSans-37" transform="scale(0.015625)"/>
       </defs>
       <use xlink:href="#DejaVuSans-30"/>
       <use x="63.623047" xlink:href="#DejaVuSans-2e"/>
       <use x="95.410156" xlink:href="#DejaVuSans-37"/>
       <use x="159.033203" xlink:href="#DejaVuSans-30"/>
      </g>
     </g>
    </g>
    <g id="ytick_6">
     <g id="line2d_8">
      <g>
       <use style="stroke:#000000;stroke-width:2;" x="109.175" xlink:href="#mccdc17da21" y="20.3"/>
      </g>
     </g>
     <g id="text_8">
      <!-- 0.75 -->
      <g transform="translate(42.2375 29.418125)scale(0.24 -0.24)">
       <use xlink:href="#DejaVuSans-30"/>
       <use x="63.623047" xlink:href="#DejaVuSans-2e"/>
       <use x="95.410156" xlink:href="#DejaVuSans-37"/>
       <use x="159.033203" xlink:href="#DejaVuSans-35"/>
      </g>
     </g>
    </g>
    <g id="text_9">
     <!-- Accuracy -->
     <g transform="translate(31.820313 405.058594)rotate(-90)scale(0.3 -0.3)">
      <defs>
       <path d="M 2816 1888 
L 2138 3909 
L 2125 3909 
L 1388 1888 
L 2816 1888 
z
M 1197 1338 
L 716 0 
L 78 0 
L 1806 4594 
L 2509 4594 
L 4172 0 
L 3494 0 
L 3041 1338 
L 1197 1338 
z
" id="HelveticaWorld-Regular-41" transform="scale(0.015625)"/>
       <path d="M 391 3347 
L 953 3347 
L 953 1125 
Q 953 756 1120 573 
Q 1288 391 1600 391 
Q 2034 391 2278 698 
Q 2522 1006 2522 1503 
L 2522 3347 
L 3084 3347 
L 3084 0 
L 2553 0 
L 2553 488 
L 2541 500 
Q 2222 -97 1478 -97 
Q 997 -97 694 165 
Q 391 428 391 941 
L 391 3347 
z
" id="HelveticaWorld-Regular-75" transform="scale(0.015625)"/>
       <path d="M 984 0 
L 422 0 
L 422 3347 
L 953 3347 
L 953 2791 
L 966 2791 
Q 1331 3444 1906 3444 
Q 1997 3444 2053 3425 
L 2053 2841 
L 1844 2841 
Q 1466 2841 1225 2584 
Q 984 2328 984 1947 
L 984 0 
z
" id="HelveticaWorld-Regular-72" transform="scale(0.015625)"/>
       <path d="M 2456 1709 
Q 2394 1644 2211 1603 
Q 2028 1563 1528 1497 
Q 1159 1453 986 1315 
Q 813 1178 813 953 
Q 813 678 959 525 
Q 1106 372 1428 372 
Q 1831 372 2143 601 
Q 2456 831 2456 1159 
L 2456 1709 
z
M 397 2328 
Q 416 2894 764 3169 
Q 1113 3444 1778 3444 
Q 2309 3444 2668 3203 
Q 3028 2963 3028 2509 
L 3028 581 
Q 3028 384 3206 384 
Q 3278 384 3391 409 
L 3391 0 
Q 3238 -63 3072 -63 
Q 2784 -63 2643 60 
Q 2503 184 2497 447 
Q 2016 -97 1288 -97 
Q 813 -97 525 172 
Q 238 441 238 872 
Q 238 1313 488 1584 
Q 738 1856 1216 1913 
L 2209 2034 
Q 2478 2075 2478 2431 
Q 2478 2694 2283 2834 
Q 2088 2975 1691 2975 
Q 1338 2975 1148 2819 
Q 959 2663 922 2328 
L 397 2328 
z
" id="HelveticaWorld-Regular-61" transform="scale(0.015625)"/>
       <path d="M 2497 3347 
L 3109 3347 
L 1913 63 
Q 1881 -25 1850 -103 
Q 1578 -828 1381 -1098 
Q 1184 -1369 744 -1369 
Q 513 -1369 366 -1319 
L 366 -806 
Q 525 -863 716 -863 
Q 922 -863 1017 -733 
Q 1113 -603 1300 -97 
L 56 3347 
L 691 3347 
L 1588 622 
L 1600 622 
L 2497 3347 
z
" id="HelveticaWorld-Regular-79" transform="scale(0.015625)"/>
      </defs>
      <use xlink:href="#HelveticaWorld-Regular-41"/>
      <use x="65.699219" xlink:href="#HelveticaWorld-Regular-63"/>
      <use x="116.96875" xlink:href="#HelveticaWorld-Regular-63"/>
      <use x="168.238281" xlink:href="#HelveticaWorld-Regular-75"/>
      <use x="223.023438" xlink:href="#HelveticaWorld-Regular-72"/>
      <use x="254.591797" xlink:href="#HelveticaWorld-Regular-61"/>
      <use x="309.523438" xlink:href="#HelveticaWorld-Regular-63"/>
      <use x="360.792969" xlink:href="#HelveticaWorld-Regular-79"/>
     </g>
    </g>
   </g>
   <g id="line2d_9">
    <path clip-path="url(#pb1eb056225)" d="M 169.9375 311.497664 
L 169.9375 289.802161 
" style="fill:none;stroke:#000000;stroke-linecap:square;stroke-width:2.7;"/>
   </g>
   <g id="line2d_10">
    <path clip-path="url(#pb1eb056225)" d="M 157.785 311.497664 
L 182.09 311.497664 
" style="fill:none;stroke:#000000;stroke-linecap:square;stroke-width:2.7;"/>
   </g>
   <g id="line2d_11">
    <path clip-path="url(#pb1eb056225)" d="M 157.785 289.802161 
L 182.09 289.802161 
" style="fill:none;stroke:#000000;stroke-linecap:square;stroke-width:2.7;"/>
   </g>
   <g id="line2d_12">
    <path clip-path="url(#pb1eb056225)" d="M 291.4625 427.598903 
L 291.4625 365.981256 
" style="fill:none;stroke:#000000;stroke-linecap:square;stroke-width:2.7;"/>
   </g>
   <g id="line2d_13">
    <path clip-path="url(#pb1eb056225)" d="M 279.31 427.598903 
L 303.615 427.598903 
" style="fill:none;stroke:#000000;stroke-linecap:square;stroke-width:2.7;"/>
   </g>
   <g id="line2d_14">
    <path clip-path="url(#pb1eb056225)" d="M 279.31 365.981256 
L 303.615 365.981256 
" style="fill:none;stroke:#000000;stroke-linecap:square;stroke-width:2.7;"/>
   </g>
   <g id="patch_5">
    <path d="M 109.175 666.7 
L 109.175 20.3 
" style="fill:none;stroke:#000000;stroke-linecap:square;stroke-linejoin:miter;stroke-width:2;"/>
   </g>
   <g id="patch_6">
    <path d="M 109.175 666.7 
L 352.225 666.7 
" style="fill:none;stroke:#000000;stroke-linecap:square;stroke-linejoin:miter;stroke-width:2;"/>
   </g>
  </g>
  <g id="axes_2">
   <g id="patch_7">
    <path d="M 466.15 666.7 
L 709.2 666.7 
L 709.2 20.3 
L 466.15 20.3 
z
" style="fill:#ffffff;"/>
   </g>
   <g id="PolyCollection_1">
    <defs>
     <path d="M 589.558342 -74.889366 
L 585.791658 -74.889366 
L 585.265184 -79.828948 
L 584.633864 -84.768529 
L 583.889361 -89.708111 
L 583.026005 -94.647693 
L 582.04155 -99.587274 
L 580.937777 -104.526856 
L 579.720823 -109.466437 
L 578.401155 -114.406019 
L 576.993096 -119.345601 
L 575.513876 -124.285182 
L 573.982192 -129.224764 
L 572.416355 -134.164345 
L 570.832135 -139.103927 
L 569.240471 -144.043509 
L 567.645282 -148.98309 
L 566.041596 -153.922672 
L 564.414256 -158.862253 
L 562.737408 -163.801835 
L 560.974922 -168.741416 
L 559.081843 -173.680998 
L 557.006851 -178.62058 
L 554.695617 -183.560161 
L 552.094867 -188.499743 
L 549.156859 -193.439324 
L 545.843942 -198.378906 
L 542.132835 -203.318488 
L 538.018267 -208.258069 
L 533.515659 -213.197651 
L 528.662613 -218.137232 
L 523.519021 -223.076814 
L 518.165762 -228.016396 
L 512.702008 -232.955977 
L 507.24131 -237.895559 
L 501.906683 -242.83514 
L 496.825009 -247.774722 
L 492.121101 -252.714303 
L 487.911809 -257.653885 
L 484.300537 -262.593467 
L 481.372501 -267.533048 
L 479.191006 -272.47263 
L 477.794959 -277.412211 
L 477.197727 -282.351793 
L 477.387379 -287.291375 
L 478.328221 -292.230956 
L 479.963501 -297.170538 
L 482.219036 -302.110119 
L 485.007492 -307.049701 
L 488.233016 -311.989283 
L 491.795902 -316.928864 
L 495.59702 -321.868446 
L 499.541744 -326.808027 
L 503.543209 -331.747609 
L 507.524771 -336.68719 
L 511.421624 -341.626772 
L 515.181596 -346.566354 
L 518.765187 -351.505935 
L 522.144986 -356.445517 
L 525.304582 -361.385098 
L 528.237155 -366.32468 
L 530.943869 -371.264262 
L 533.432213 -376.203843 
L 535.714409 -381.143425 
L 537.805957 -386.083006 
L 539.724392 -391.022588 
L 541.488277 -395.96217 
L 543.116442 -400.901751 
L 544.627476 -405.841333 
L 546.039421 -410.780914 
L 547.36967 -415.720496 
L 548.634981 -420.660078 
L 549.851583 -425.599659 
L 551.035303 -430.539241 
L 552.201651 -435.478822 
L 553.365821 -440.418404 
L 554.542558 -445.357985 
L 555.745864 -450.297567 
L 556.988552 -455.237149 
L 558.281663 -460.17673 
L 559.633799 -465.116312 
L 561.050444 -470.055893 
L 562.53335 -474.995475 
L 564.080083 -479.935057 
L 565.683804 -484.874638 
L 567.33333 -489.81422 
L 569.013523 -494.753801 
L 570.70598 -499.693383 
L 572.389986 -504.632965 
L 574.043654 -509.572546 
L 575.645164 -514.512128 
L 577.17397 -519.451709 
L 578.611904 -524.391291 
L 579.944055 -529.330872 
L 581.159393 -534.270454 
L 582.251073 -539.210036 
L 583.216452 -544.149617 
L 584.056816 -549.089199 
L 584.776899 -554.02878 
L 585.384233 -558.968362 
L 585.888428 -563.907944 
L 589.461572 -563.907944 
L 589.461572 -563.907944 
L 589.965767 -558.968362 
L 590.573101 -554.02878 
L 591.293184 -549.089199 
L 592.133548 -544.149617 
L 593.098927 -539.210036 
L 594.190607 -534.270454 
L 595.405945 -529.330872 
L 596.738096 -524.391291 
L 598.17603 -519.451709 
L 599.704836 -514.512128 
L 601.306346 -509.572546 
L 602.960014 -504.632965 
L 604.64402 -499.693383 
L 606.336477 -494.753801 
L 608.01667 -489.81422 
L 609.666196 -484.874638 
L 611.269917 -479.935057 
L 612.81665 -474.995475 
L 614.299556 -470.055893 
L 615.716201 -465.116312 
L 617.068337 -460.17673 
L 618.361448 -455.237149 
L 619.604136 -450.297567 
L 620.807442 -445.357985 
L 621.984179 -440.418404 
L 623.148349 -435.478822 
L 624.314697 -430.539241 
L 625.498417 -425.599659 
L 626.715019 -420.660078 
L 627.98033 -415.720496 
L 629.310579 -410.780914 
L 630.722524 -405.841333 
L 632.233558 -400.901751 
L 633.861723 -395.96217 
L 635.625608 -391.022588 
L 637.544043 -386.083006 
L 639.635591 -381.143425 
L 641.917787 -376.203843 
L 644.406131 -371.264262 
L 647.112845 -366.32468 
L 650.045418 -361.385098 
L 653.205014 -356.445517 
L 656.584813 -351.505935 
L 660.168404 -346.566354 
L 663.928376 -341.626772 
L 667.825229 -336.68719 
L 671.806791 -331.747609 
L 675.808256 -326.808027 
L 679.75298 -321.868446 
L 683.554098 -316.928864 
L 687.116984 -311.989283 
L 690.342508 -307.049701 
L 693.130964 -302.110119 
L 695.386499 -297.170538 
L 697.021779 -292.230956 
L 697.962621 -287.291375 
L 698.152273 -282.351793 
L 697.555041 -277.412211 
L 696.158994 -272.47263 
L 693.977499 -267.533048 
L 691.049463 -262.593467 
L 687.438191 -257.653885 
L 683.228899 -252.714303 
L 678.524991 -247.774722 
L 673.443317 -242.83514 
L 668.10869 -237.895559 
L 662.647992 -232.955977 
L 657.184238 -228.016396 
L 651.830979 -223.076814 
L 646.687387 -218.137232 
L 641.834341 -213.197651 
L 637.331733 -208.258069 
L 633.217165 -203.318488 
L 629.506058 -198.378906 
L 626.193141 -193.439324 
L 623.255133 -188.499743 
L 620.654383 -183.560161 
L 618.343149 -178.62058 
L 616.268157 -173.680998 
L 614.375078 -168.741416 
L 612.612592 -163.801835 
L 610.935744 -158.862253 
L 609.308404 -153.922672 
L 607.704718 -148.98309 
L 606.109529 -144.043509 
L 604.517865 -139.103927 
L 602.933645 -134.164345 
L 601.367808 -129.224764 
L 599.836124 -124.285182 
L 598.356904 -119.345601 
L 596.948845 -114.406019 
L 595.629177 -109.466437 
L 594.412223 -104.526856 
L 593.30845 -99.587274 
L 592.323995 -94.647693 
L 591.460639 -89.708111 
L 590.716136 -84.768529 
L 590.084816 -79.828948 
L 589.558342 -74.889366 
z
" id="m12ecfe9686" style="stroke:#7a7a7a;stroke-width:1.5;"/>
    </defs>
    <g clip-path="url(#p2a40469930)">
     <use style="fill:#cccccc;stroke:#7a7a7a;stroke-width:1.5;" x="0" xlink:href="#m12ecfe9686" y="720"/>
    </g>
   </g>
   <g id="matplotlib.axis_3">
    <g id="xtick_3">
     <g id="line2d_15"/>
    </g>
   </g>
   <g id="matplotlib.axis_4">
    <g id="ytick_7">
     <g id="line2d_16">
      <g>
       <use style="stroke:#000000;stroke-width:2;" x="466.15" xlink:href="#mccdc17da21" y="666.7"/>
      </g>
     </g>
     <g id="text_10">
      <!-- −0.2 -->
      <g transform="translate(394.37125 675.818125)scale(0.24 -0.24)">
       <defs>
        <path d="M 678 2272 
L 4684 2272 
L 4684 1741 
L 678 1741 
L 678 2272 
z
" id="DejaVuSans-2212" transform="scale(0.015625)"/>
        <path d="M 1228 531 
L 3431 531 
L 3431 0 
L 469 0 
L 469 531 
Q 828 903 1448 1529 
Q 2069 2156 2228 2338 
Q 2531 2678 2651 2914 
Q 2772 3150 2772 3378 
Q 2772 3750 2511 3984 
Q 2250 4219 1831 4219 
Q 1534 4219 1204 4116 
Q 875 4013 500 3803 
L 500 4441 
Q 881 4594 1212 4672 
Q 1544 4750 1819 4750 
Q 2544 4750 2975 4387 
Q 3406 4025 3406 3419 
Q 3406 3131 3298 2873 
Q 3191 2616 2906 2266 
Q 2828 2175 2409 1742 
Q 1991 1309 1228 531 
z
" id="DejaVuSans-32" transform="scale(0.015625)"/>
       </defs>
       <use xlink:href="#DejaVuSans-2212"/>
       <use x="83.789062" xlink:href="#DejaVuSans-30"/>
       <use x="147.412109" xlink:href="#DejaVuSans-2e"/>
       <use x="179.199219" xlink:href="#DejaVuSans-32"/>
      </g>
     </g>
    </g>
    <g id="ytick_8">
     <g id="line2d_17">
      <g>
       <use style="stroke:#000000;stroke-width:2;" x="466.15" xlink:href="#mccdc17da21" y="558.966667"/>
      </g>
     </g>
     <g id="text_11">
      <!-- −0.1 -->
      <g transform="translate(394.37125 568.084792)scale(0.24 -0.24)">
       <defs>
        <path d="M 794 531 
L 1825 531 
L 1825 4091 
L 703 3866 
L 703 4441 
L 1819 4666 
L 2450 4666 
L 2450 531 
L 3481 531 
L 3481 0 
L 794 0 
L 794 531 
z
" id="DejaVuSans-31" transform="scale(0.015625)"/>
       </defs>
       <use xlink:href="#DejaVuSans-2212"/>
       <use x="83.789062" xlink:href="#DejaVuSans-30"/>
       <use x="147.412109" xlink:href="#DejaVuSans-2e"/>
       <use x="179.199219" xlink:href="#DejaVuSans-31"/>
      </g>
     </g>
    </g>
    <g id="ytick_9">
     <g id="line2d_18">
      <g>
       <use style="stroke:#000000;stroke-width:2;" x="466.15" xlink:href="#mccdc17da21" y="451.233333"/>
      </g>
     </g>
     <g id="text_12">
      <!-- 0.0 -->
      <g transform="translate(414.4825 460.351458)scale(0.24 -0.24)">
       <use xlink:href="#DejaVuSans-30"/>
       <use x="63.623047" xlink:href="#DejaVuSans-2e"/>
       <use x="95.410156" xlink:href="#DejaVuSans-30"/>
      </g>
     </g>
    </g>
    <g id="ytick_10">
     <g id="line2d_19">
      <g>
       <use style="stroke:#000000;stroke-width:2;" x="466.15" xlink:href="#mccdc17da21" y="343.5"/>
      </g>
     </g>
     <g id="text_13">
      <!-- 0.1 -->
      <g transform="translate(414.4825 352.618125)scale(0.24 -0.24)">
       <use xlink:href="#DejaVuSans-30"/>
       <use x="63.623047" xlink:href="#DejaVuSans-2e"/>
       <use x="95.410156" xlink:href="#DejaVuSans-31"/>
      </g>
     </g>
    </g>
    <g id="ytick_11">
     <g id="line2d_20">
      <g>
       <use style="stroke:#000000;stroke-width:2;" x="466.15" xlink:href="#mccdc17da21" y="235.766667"/>
      </g>
     </g>
     <g id="text_14">
      <!-- 0.2 -->
      <g transform="translate(414.4825 244.884792)scale(0.24 -0.24)">
       <use xlink:href="#DejaVuSans-30"/>
       <use x="63.623047" xlink:href="#DejaVuSans-2e"/>
       <use x="95.410156" xlink:href="#DejaVuSans-32"/>
      </g>
     </g>
    </g>
    <g id="ytick_12">
     <g id="line2d_21">
      <g>
       <use style="stroke:#000000;stroke-width:2;" x="466.15" xlink:href="#mccdc17da21" y="128.033333"/>
      </g>
     </g>
     <g id="text_15">
      <!-- 0.3 -->
      <g transform="translate(414.4825 137.151458)scale(0.24 -0.24)">
       <defs>
        <path d="M 2597 2516 
Q 3050 2419 3304 2112 
Q 3559 1806 3559 1356 
Q 3559 666 3084 287 
Q 2609 -91 1734 -91 
Q 1441 -91 1130 -33 
Q 819 25 488 141 
L 488 750 
Q 750 597 1062 519 
Q 1375 441 1716 441 
Q 2309 441 2620 675 
Q 2931 909 2931 1356 
Q 2931 1769 2642 2001 
Q 2353 2234 1838 2234 
L 1294 2234 
L 1294 2753 
L 1863 2753 
Q 2328 2753 2575 2939 
Q 2822 3125 2822 3475 
Q 2822 3834 2567 4026 
Q 2313 4219 1838 4219 
Q 1578 4219 1281 4162 
Q 984 4106 628 3988 
L 628 4550 
Q 988 4650 1302 4700 
Q 1616 4750 1894 4750 
Q 2613 4750 3031 4423 
Q 3450 4097 3450 3541 
Q 3450 3153 3228 2886 
Q 3006 2619 2597 2516 
z
" id="DejaVuSans-33" transform="scale(0.015625)"/>
       </defs>
       <use xlink:href="#DejaVuSans-30"/>
       <use x="63.623047" xlink:href="#DejaVuSans-2e"/>
       <use x="95.410156" xlink:href="#DejaVuSans-33"/>
      </g>
     </g>
    </g>
    <g id="ytick_13">
     <g id="line2d_22">
      <g>
       <use style="stroke:#000000;stroke-width:2;" x="466.15" xlink:href="#mccdc17da21" y="20.3"/>
      </g>
     </g>
     <g id="text_16">
      <!-- 0.4 -->
      <g transform="translate(414.4825 29.418125)scale(0.24 -0.24)">
       <defs>
        <path d="M 2419 4116 
L 825 1625 
L 2419 1625 
L 2419 4116 
z
M 2253 4666 
L 3047 4666 
L 3047 1625 
L 3713 1625 
L 3713 1100 
L 3047 1100 
L 3047 0 
L 2419 0 
L 2419 1100 
L 313 1100 
L 313 1709 
L 2253 4666 
z
" id="DejaVuSans-34" transform="scale(0.015625)"/>
       </defs>
       <use xlink:href="#DejaVuSans-30"/>
       <use x="63.623047" xlink:href="#DejaVuSans-2e"/>
       <use x="95.410156" xlink:href="#DejaVuSans-34"/>
      </g>
     </g>
    </g>
    <g id="text_17">
     <!-- Δ Accuracy -->
     <g transform="translate(383.954063 418.624219)rotate(-90)scale(0.3 -0.3)">
      <defs>
       <path d="M 941 550 
L 3244 550 
L 2125 3891 
L 2113 3891 
L 941 550 
z
M 97 0 
L 1831 4594 
L 2456 4594 
L 4128 0 
L 97 0 
z
" id="HelveticaWorld-Regular-394" transform="scale(0.015625)"/>
       <path id="HelveticaWorld-Regular-20" transform="scale(0.015625)"/>
      </defs>
      <use xlink:href="#HelveticaWorld-Regular-394"/>
      <use x="66.015625" xlink:href="#HelveticaWorld-Regular-20"/>
      <use x="90.429688" xlink:href="#HelveticaWorld-Regular-41"/>
      <use x="156.128906" xlink:href="#HelveticaWorld-Regular-63"/>
      <use x="207.398438" xlink:href="#HelveticaWorld-Regular-63"/>
      <use x="258.667969" xlink:href="#HelveticaWorld-Regular-75"/>
      <use x="313.453125" xlink:href="#HelveticaWorld-Regular-72"/>
      <use x="345.021484" xlink:href="#HelveticaWorld-Regular-61"/>
      <use x="399.953125" xlink:href="#HelveticaWorld-Regular-63"/>
      <use x="451.222656" xlink:href="#HelveticaWorld-Regular-79"/>
     </g>
    </g>
   </g>
   <g id="line2d_23">
    <path clip-path="url(#p2a40469930)" d="M 560.055682 411.24126 
L 615.294318 411.24126 
" style="fill:none;stroke:#000000;stroke-linecap:square;stroke-width:4;"/>
   </g>
   <g id="line2d_24">
    <path clip-path="url(#p2a40469930)" d="M 587.675 440.46 
L 587.675 386.593333 
" style="fill:none;stroke:#000000;stroke-linecap:square;stroke-width:3;"/>
   </g>
   <g id="line2d_25">
    <path clip-path="url(#p2a40469930)" d="M 579.389205 440.46 
L 595.960795 440.46 
" style="fill:none;stroke:#000000;stroke-linecap:square;stroke-width:3;"/>
   </g>
   <g id="line2d_26">
    <path clip-path="url(#p2a40469930)" d="M 579.389205 386.593333 
L 595.960795 386.593333 
" style="fill:none;stroke:#000000;stroke-linecap:square;stroke-width:3;"/>
   </g>
   <g id="line2d_27">
    <path clip-path="url(#p2a40469930)" d="M 466.15 451.233333 
L 709.2 451.233333 
" style="fill:none;stroke:#000000;stroke-dasharray:5.55,2.4;stroke-dashoffset:0;stroke-width:1.5;"/>
   </g>
   <g id="patch_8">
    <path d="M 466.15 666.7 
L 466.15 20.3 
" style="fill:none;stroke:#000000;stroke-linecap:square;stroke-linejoin:miter;stroke-width:2;"/>
   </g>
   <g id="PathCollection_1">
    <defs>
     <path d="M 0 2.5 
C 0.663008 2.5 1.29895 2.236584 1.767767 1.767767 
C 2.236584 1.29895 2.5 0.663008 2.5 -0 
C 2.5 -0.663008 2.236584 -1.29895 1.767767 -1.767767 
C 1.29895 -2.236584 0.663008 -2.5 0 -2.5 
C -0.663008 -2.5 -1.29895 -2.236584 -1.767767 -1.767767 
C -2.236584 -1.29895 -2.5 -0.663008 -2.5 0 
C -2.5 0.663008 -2.236584 1.29895 -1.767767 1.767767 
C -1.29895 2.236584 -0.663008 2.5 0 2.5 
z
" id="C0_0_fa4fc1e8b2"/>
    </defs>
    <g clip-path="url(#p2a40469930)">
     <use style="fill-opacity:0.5;" x="596.946881" xlink:href="#C0_0_fa4fc1e8b2" y="428.147619"/>
    </g>
    <g clip-path="url(#p2a40469930)">
     <use style="fill-opacity:0.5;" x="592.830152" xlink:href="#C0_0_fa4fc1e8b2" y="538.886576"/>
    </g>
    <g clip-path="url(#p2a40469930)">
     <use style="fill-opacity:0.5;" x="590.040024" xlink:href="#C0_0_fa4fc1e8b2" y="406.513043"/>
    </g>
    <g clip-path="url(#p2a40469930)">
     <use style="fill-opacity:0.5;" x="571.141651" xlink:href="#C0_0_fa4fc1e8b2" y="239.227979"/>
    </g>
    <g clip-path="url(#p2a40469930)">
     <use style="fill-opacity:0.5;" x="592.450544" xlink:href="#C0_0_fa4fc1e8b2" y="380.635234"/>
    </g>
    <g clip-path="url(#p2a40469930)">
     <use style="fill-opacity:0.5;" x="575.513251" xlink:href="#C0_0_fa4fc1e8b2" y="441.858947"/>
    </g>
    <g clip-path="url(#p2a40469930)">
     <use style="fill-opacity:0.5;" x="570.02636" xlink:href="#C0_0_fa4fc1e8b2" y="474.350715"/>
    </g>
    <g clip-path="url(#p2a40469930)">
     <use style="fill-opacity:0.5;" x="605.540506" xlink:href="#C0_0_fa4fc1e8b2" y="442.474526"/>
    </g>
    <g clip-path="url(#p2a40469930)">
     <use style="fill-opacity:0.5;" x="578.925471" xlink:href="#C0_0_fa4fc1e8b2" y="484.202329"/>
    </g>
    <g clip-path="url(#p2a40469930)">
     <use style="fill-opacity:0.5;" x="582.259943" xlink:href="#C0_0_fa4fc1e8b2" y="312.116627"/>
    </g>
    <g clip-path="url(#p2a40469930)">
     <use style="fill-opacity:0.5;" x="602.872618" xlink:href="#C0_0_fa4fc1e8b2" y="444.252285"/>
    </g>
    <g clip-path="url(#p2a40469930)">
     <use style="fill-opacity:0.5;" x="590.99152" xlink:href="#C0_0_fa4fc1e8b2" y="443.366957"/>
    </g>
    <g clip-path="url(#p2a40469930)">
     <use style="fill-opacity:0.5;" x="601.058339" xlink:href="#C0_0_fa4fc1e8b2" y="438.827931"/>
    </g>
    <g clip-path="url(#p2a40469930)">
     <use style="fill-opacity:0.5;" x="602.285377" xlink:href="#C0_0_fa4fc1e8b2" y="372.404065"/>
    </g>
    <g clip-path="url(#p2a40469930)">
     <use style="fill-opacity:0.5;" x="578.867388" xlink:href="#C0_0_fa4fc1e8b2" y="448.474085"/>
    </g>
    <g clip-path="url(#p2a40469930)">
     <use style="fill-opacity:0.5;" x="600.782102" xlink:href="#C0_0_fa4fc1e8b2" y="287.120939"/>
    </g>
    <g clip-path="url(#p2a40469930)">
     <use style="fill-opacity:0.5;" x="569.988325" xlink:href="#C0_0_fa4fc1e8b2" y="344.072035"/>
    </g>
    <g clip-path="url(#p2a40469930)">
     <use style="fill-opacity:0.5;" x="580.607159" xlink:href="#C0_0_fa4fc1e8b2" y="237.47672"/>
    </g>
    <g clip-path="url(#p2a40469930)">
     <use style="fill-opacity:0.5;" x="596.793172" xlink:href="#C0_0_fa4fc1e8b2" y="491.07915"/>
    </g>
    <g clip-path="url(#p2a40469930)">
     <use style="fill-opacity:0.5;" x="595.878404" xlink:href="#C0_0_fa4fc1e8b2" y="470.910654"/>
    </g>
    <g clip-path="url(#p2a40469930)">
     <use style="fill-opacity:0.5;" x="599.540766" xlink:href="#C0_0_fa4fc1e8b2" y="449.675743"/>
    </g>
    <g clip-path="url(#p2a40469930)">
     <use style="fill-opacity:0.5;" x="572.634097" xlink:href="#C0_0_fa4fc1e8b2" y="343.067336"/>
    </g>
    <g clip-path="url(#p2a40469930)">
     <use style="fill-opacity:0.5;" x="593.084744" xlink:href="#C0_0_fa4fc1e8b2" y="424.534799"/>
    </g>
    <g clip-path="url(#p2a40469930)">
     <use style="fill-opacity:0.5;" x="600.979683" xlink:href="#C0_0_fa4fc1e8b2" y="364.533651"/>
    </g>
    <g clip-path="url(#p2a40469930)">
     <use style="fill-opacity:0.5;" x="598.199809" xlink:href="#C0_0_fa4fc1e8b2" y="562.797582"/>
    </g>
    <g clip-path="url(#p2a40469930)">
     <use style="fill-opacity:0.5;" x="570.277716" xlink:href="#C0_0_fa4fc1e8b2" y="313.687614"/>
    </g>
    <g clip-path="url(#p2a40469930)">
     <use style="fill-opacity:0.5;" x="605.822306" xlink:href="#C0_0_fa4fc1e8b2" y="271.677778"/>
    </g>
    <g clip-path="url(#p2a40469930)">
     <use style="fill-opacity:0.5;" x="585.074987" xlink:href="#C0_0_fa4fc1e8b2" y="394.523446"/>
    </g>
    <g clip-path="url(#p2a40469930)">
     <use style="fill-opacity:0.5;" x="589.787861" xlink:href="#C0_0_fa4fc1e8b2" y="563.725971"/>
    </g>
    <g clip-path="url(#p2a40469930)">
     <use style="fill-opacity:0.5;" x="597.489244" xlink:href="#C0_0_fa4fc1e8b2" y="463.698177"/>
    </g>
    <g clip-path="url(#p2a40469930)">
     <use style="fill-opacity:0.5;" x="591.966219" xlink:href="#C0_0_fa4fc1e8b2" y="413.778716"/>
    </g>
    <g clip-path="url(#p2a40469930)">
     <use style="fill-opacity:0.5;" x="585.937799" xlink:href="#C0_0_fa4fc1e8b2" y="417.032275"/>
    </g>
    <g clip-path="url(#p2a40469930)">
     <use style="fill-opacity:0.5;" x="571.35515" xlink:href="#C0_0_fa4fc1e8b2" y="405.756827"/>
    </g>
    <g clip-path="url(#p2a40469930)">
     <use style="fill-opacity:0.5;" x="592.619567" xlink:href="#C0_0_fa4fc1e8b2" y="467.314504"/>
    </g>
   </g>
  </g>
 </g>
 <defs>
  <clipPath id="pb1eb056225">
   <rect height="646.4" width="243.05" x="109.175" y="20.3"/>
  </clipPath>
  <clipPath id="p2a40469930">
   <rect height="646.4" width="243.05" x="466.15" y="20.3"/>
  </clipPath>
 </defs>
</svg>
